<?xml version="1.0" encoding="UTF-8"?>
<svg id="_レイヤー_1" data-name="レイヤー_1" xmlns="http://www.w3.org/2000/svg" version="1.1" viewBox="0 0 280 220">
  <!-- Generator: Adobe Illustrator 29.0.1, SVG Export Plug-In . SVG Version: 2.1.0 Build 192)  -->
  <defs>
    <style>
      .st0 {
        opacity: .6;
      }

      .st0, .st1, .st2 {
        fill: #fff;
      }

      .st1 {
        opacity: .8;
      }
    </style>
  </defs>
  <path class="st1" d="M38.4,119.5c-.9-1.3-1.4-2.8-1.4-4.5V44.9c0-1.9.7-3.7,1.8-5.1L4.9,5.9c-2.4,2.7-3.9,6.2-3.9,10.1v127.9c0,3.6,1.3,6.9,3.4,9.5l34-34Z"/>
  <path class="st0" d="M112.8,124.5c-1.4-1-3.2-1.5-5-1.5h-62.9c-2.4,0-4.5-1-5.9-2.7L5.1,154.2c2.7,2.9,6.6,4.8,10.9,4.8h47.9c4,0,7.7,1.4,10.6,3.8l38.2-38.2Z"/>
  <path class="st2" d="M39.5,39.1c1.4-1.3,3.3-2.1,5.4-2.1h190.2c1.8,0,3.5.6,4.9,1.7l33.9-33.9c-2.6-2.3-6.1-3.8-9.9-3.8H16c-4,0-7.7,1.6-10.4,4.2l33.9,33.9Z"/>
  <path class="st1" d="M274.6,5.4l-33.9,33.9c1.4,1.4,2.3,3.4,2.3,5.6v130.2c0,2-.8,3.8-2,5.2l33.9,33.9c2.5-2.7,4.1-6.3,4.1-10.3V16c0-4.1-1.7-7.9-4.4-10.6Z"/>
  <path class="st0" d="M240.3,181c-1.4,1.2-3.2,2-5.2,2h-110.2c-2.1,0-3.9-.8-5.3-2.1l-33.9,33.9c2.7,2.6,6.3,4.2,10.3,4.2h167.9c4,0,7.6-1.5,10.2-4.1l-33.9-33.9Z"/>
  <path class="st1" d="M85,214.1l33.9-33.9c-1.2-1.4-1.9-3.2-1.9-5.1v-42.9c0-2.9-1.3-5.4-3.3-7.1l-38.3,38.3c3.5,3.1,5.6,7.6,5.6,12.6v27.9c0,3.9,1.5,7.5,4,10.2Z"/>
</svg>