<?xml version="1.0" encoding="UTF-8"?>
<svg id="_レイヤー_1" xmlns="http://www.w3.org/2000/svg" version="1.1" viewBox="0 0 260 220">
  <!-- Generator: Adobe Illustrator 29.0.1, SVG Export Plug-In . SVG Version: 2.1.0 Build 192)  -->
  <defs>
    <style>
      .st0 {
        fill: #191919;
      }
    </style>
  </defs>
  <path class="st0" d="M83.2,215.5l28.2-28.1c-1.1-1.4-1.8-3.1-1.8-5h-.1v-39.1c0-2.4-1-4.1-2.6-5.2l-30.9,30.9c2.3,2.1,3.8,5.1,3.8,8.5v29.5c0,3.3,1.3,6.4,3.4,8.7Z"/>
  <path class="st0" d="M0,12.9v136.7c0,4.2,1.5,8.3,4.2,11.4.2.2.4.4.6.6l26.8-26.8c-1.8-1.5-1.9-3.8-1.9-6.5V37.3c0-2,.7-3.8,1.9-5.1L3.5,4.1C1.3,6.4,0,9.5,0,12.9Z"/>
  <path class="st0" d="M37.4,29.6h182c3.4,0,6.2.8,8,2.7l28.5-28.5c-2.8-2.6-7-3.8-13-3.8H12.8c-3.3,0-6.3,1.3-8.6,3.4l28.1,28.1c1.4-1.2,3.2-1.9,5.1-1.9Z"/>
  <path class="st0" d="M227.8,188.2c-1.3,1.2-3.1,1.9-4.9,1.9h-105.5c-2,0-3.8-.8-5.2-2l-28.2,28.1c2.3,2.1,5.3,3.5,8.7,3.5h154.6c3.2,0,6.1-1.5,8.3-3.6l-27.7-27.8Z"/>
  <path class="st0" d="M260,206.4V16.3c0-5.2-1.1-9.1-3.3-11.7l-28.5,28.5c1.1,1.5,1.7,3.6,1.7,6.4l.7,142.9c0,1.8-.8,3.7-2.1,5.1l27.7,27.8c2.3-2.6,3.8-5.9,3.8-8.9Z"/>
  <path class="st0" d="M68.5,166c2.5,0,4.8.8,6.6,2.2l30.7-30.8c-1.2-.6-2.5-.9-4-.9,0,0-56.4-.1-64.1-.2-2.4,0-4.1-.4-5.3-1l-26.9,26.9c2.2,1.9,5.5,3.8,10.2,3.8h52.8Z"/>
</svg>