<?xml version="1.0" encoding="UTF-8"?>
<svg id="_レイヤー_1" xmlns="http://www.w3.org/2000/svg" version="1.1" viewBox="0 0 280 280">
  <!-- Generator: Adobe Illustrator 29.0.1, SVG Export Plug-In . SVG Version: 2.1.0 Build 192)  -->
  <defs>
    <style>
      .st0 {
        fill: #191919;
      }
    </style>
  </defs>
  <path class="st0" d="M124.4,272.8l27.6-27.5c-1.1-1.3-1.8-3-1.8-4.9h0v-97.3c0-2.3-1-4-2.6-5.1l-30.2,30.2c2.3,2,3.7,5,3.7,8.3v87.9c0,3.3,1.3,6.2,3.3,8.5Z"/>
  <path class="st0" d="M3.1,15.7v133.6c0,4.1,1.5,8.1,4.1,11.1.2.2.4.4.6.6l26.2-26.2c-1.7-1.4-1.9-3.7-1.9-6.3V39.6c0-1.9.7-3.7,1.9-5L6.5,7.1c-2.1,2.3-3.4,5.3-3.4,8.6Z"/>
  <path class="st0" d="M39.7,32h197.5c3.3,0,6.1.8,7.9,2.6l27.8-27.8c-2.7-2.6-6.8-3.7-12.7-3.7H15.6c-3.2,0-6.2,1.3-8.4,3.3l27.5,27.5c1.3-1.2,3.1-1.9,5-1.9Z"/>
  <path class="st0" d="M245.3,246.1c-1.3,1.1-3,1.9-4.8,1.9h-82.7c-2,0-3.8-.8-5.1-2l-27.6,27.5c2.2,2.1,5.2,3.4,8.5,3.4h130.7c3.1,0,5.9-1.4,8.1-3.6l-27.1-27.2Z"/>
  <path class="st0" d="M276.8,263.9V19c0-5.1-1-8.9-3.3-11.4l-27.8,27.8c1.1,1.5,1.7,3.6,1.7,6.3l.7,198.7c0,1.8-.8,3.6-2.1,5l27.1,27.2c2.3-2.5,3.7-5.8,3.7-8.7Z"/>
  <path class="st0" d="M110.1,165.4c2.4,0,4.7.8,6.5,2.1l30.1-30.1c-1.1-.6-2.5-.9-3.9-.9,0,0-95.2,0-102.7-.2-2.4,0-4-.4-5.2-1l-26.3,26.3c2.1,1.9,5.4,3.7,10,3.7h91.6Z"/>
</svg>