<?xml version="1.0" encoding="UTF-8"?>
<svg id="_レイヤー_1" xmlns="http://www.w3.org/2000/svg" version="1.1" viewBox="0 0 800 330">
  <!-- Generator: Adobe Illustrator 29.0.0, SVG Export Plug-In . SVG Version: 2.1.0 Build 186)  -->
  <defs>
    <style>
      .st0, .st1 {
        fill: none;
      }

      .st2 {
        opacity: .5;
      }

      .st2, .st3 {
        fill: #fff;
      }

      .st1 {
        stroke: #fff;
        stroke-miterlimit: 10;
        stroke-width: .6px;
      }
    </style>
  </defs>
  <g>
    <polyline class="st1" points="480.7 239.7 435.6 239.7 419.8 223.9 376.8 223.9"/>
    <path class="st3" d="M480.6,237.6c1.1,0,2,.9,2,2s-.9,2-2,2-2-.9-2-2,.9-2,2-2Z"/>
    <path class="st3" d="M376.9,221.8c-1.1,0-2,.9-2,2s.9,2,2,2,2-.9,2-2-.9-2-2-2Z"/>
  </g>
  <g>
    <polyline class="st1" points="457.9 148.9 465.2 141.5 569.3 141.5 595 168.3 611.7 168.3 622.4 179 622.4 194.9"/>
    <path class="st3" d="M459.4,150.2c-.8.8-2.1.8-2.9,0s-.8-2.1,0-2.9c.8-.8,2.1-.8,2.9,0,.8.8.8,2.1,0,2.9Z"/>
    <path class="st3" d="M620.4,194.8c0,1.1.9,2,2,2s2-.9,2-2-.9-2-2-2-2,.9-2,2Z"/>
  </g>
  <g>
    <polyline class="st1" points="600.5 159.7 574.7 133.8 513.9 133.8 482.5 99.3 470.5 99.3"/>
    <path class="st3" d="M601.9,158.2c.8.8.8,2.1,0,2.9-.8.8-2.1.8-2.9,0-.8-.8-.8-2.1,0-2.9.8-.8,2.1-.8,2.9,0Z"/>
    <path class="st3" d="M470.6,97.3c-1.1,0-2,.9-2,2s.9,2,2,2,2-.9,2-2-.9-2-2-2Z"/>
  </g>
  <g>
    <polyline class="st1" points="622 144 600.2 144 581.3 125.1 541.5 125.1"/>
    <circle class="st3" cx="621.9" cy="144" r="2"/>
    <path class="st3" d="M541.6,123c-1.1,0-2,.9-2,2s.9,2,2,2,2-.9,2-2-.9-2-2-2Z"/>
  </g>
  <g>
    <line class="st1" x1="513.5" y1="149.6" x2="549.7" y2="149.6"/>
    <path class="st3" d="M513.6,151.7c-1.1,0-2-.9-2-2s.9-2,2-2,2,.9,2,2-.9,2-2,2Z"/>
    <circle class="st3" cx="549.6" cy="149.6" r="2"/>
  </g>
  <g>
    <line class="st1" x1="513.5" y1="157.8" x2="549.7" y2="157.8"/>
    <path class="st3" d="M513.6,159.8c-1.1,0-2-.9-2-2s.9-2,2-2,2,.9,2,2-.9,2-2,2Z"/>
    <circle class="st3" cx="549.6" cy="157.8" r="2"/>
  </g>
  <g>
    <line class="st1" x1="513.5" y1="166" x2="549.7" y2="166"/>
    <path class="st3" d="M513.6,168c-1.1,0-2-.9-2-2s.9-2,2-2,2,.9,2,2-.9,2-2,2Z"/>
    <circle class="st3" cx="549.6" cy="166" r="2"/>
  </g>
  <g>
    <line class="st1" x1="78.3" y1="75.8" x2="104.4" y2="75.8"/>
    <path class="st3" d="M78.4,77.9c-1.1,0-2-.9-2-2s.9-2,2-2,2,.9,2,2-.9,2-2,2Z"/>
    <path class="st3" d="M104.3,77.9c1.1,0,2-.9,2-2s-.9-2-2-2-2,.9-2,2,.9,2,2,2Z"/>
  </g>
  <g>
    <line class="st1" x1="78.3" y1="83.8" x2="104.4" y2="83.8"/>
    <path class="st3" d="M78.4,85.8c-1.1,0-2-.9-2-2s.9-2,2-2,2,.9,2,2-.9,2-2,2Z"/>
    <path class="st3" d="M104.3,85.8c1.1,0,2-.9,2-2s-.9-2-2-2-2,.9-2,2,.9,2,2,2Z"/>
  </g>
  <g>
    <line class="st1" x1="78.3" y1="91.8" x2="104.4" y2="91.8"/>
    <path class="st3" d="M78.4,93.9c-1.1,0-2-.9-2-2s.9-2,2-2,2,.9,2,2-.9,2-2,2Z"/>
    <path class="st3" d="M104.3,93.9c1.1,0,2-.9,2-2s-.9-2-2-2-2,.9-2,2,.9,2,2,2Z"/>
  </g>
  <g>
    <polyline class="st1" points="606.3 23.9 623.3 6.8 675.3 6.8 705.1 36.7 731.9 36.7"/>
    <path class="st3" d="M607.8,25.3c-.8.8-2.1.8-2.9,0-.8-.8-.8-2.1,0-2.9s2.1-.8,2.9,0,.8,2.1,0,2.9Z"/>
    <circle class="st3" cx="731.8" cy="36.7" r="2"/>
  </g>
  <g>
    <polyline class="st1" points="236 153.7 221 138.6 190.1 138.6 159.6 108.2 89.2 108.2"/>
    <path class="st3" d="M237.4,152.2c.8.8.8,2.1,0,2.9s-2.1.8-2.9,0c-.8-.8-.8-2.1,0-2.9s2.1-.8,2.9,0Z"/>
    <path class="st3" d="M89.3,106.2c-1.1,0-2,.9-2,2s.9,2,2,2,2-.9,2-2-.9-2-2-2Z"/>
  </g>
  <g>
    <polyline class="st1" points="221 130.2 196.2 130.2 166 99.9 53.4 99.9"/>
    <path class="st3" d="M220.9,128.2c1.1,0,2,.9,2,2s-.9,2-2,2-2-.9-2-2,.9-2,2-2Z"/>
    <path class="st3" d="M53.5,97.9c-1.1,0-2,.9-2,2s.9,2,2,2,2-.9,2-2-.9-2-2-2Z"/>
  </g>
  <path class="st0" d="M196.1,71.6"/>
  <g>
    <polyline class="st1" points="221.8 122.4 203.5 122.4 176.4 95.3"/>
    <path class="st3" d="M221.7,120.4c1.1,0,2,.9,2,2s-.9,2-2,2-2-.9-2-2,.9-2,2-2Z"/>
    <path class="st3" d="M177.9,93.9c-.8-.8-2.1-.8-2.9,0-.8.8-.8,2.1,0,2.9s2.1.8,2.9,0c.8-.8.8-2.1,0-2.9Z"/>
  </g>
  <g>
    <polyline class="st1" points="227.3 158.4 216.4 147.5 181 147.5"/>
    <path class="st3" d="M228.7,156.9c.8.8.8,2.1,0,2.9s-2.1.8-2.9,0-.8-2.1,0-2.9,2.1-.8,2.9,0Z"/>
    <path class="st3" d="M181.1,145.4c-1.1,0-2,.9-2,2s.9,2,2,2,2-.9,2-2-.9-2-2-2Z"/>
  </g>
  <g>
    <polyline class="st1" points="273.4 35.3 204.3 35.3 189.1 20.1 82.5 20.1"/>
    <path class="st3" d="M273.3,33.2c1.1,0,2,.9,2,2s-.9,2-2,2-2-.9-2-2,.9-2,2-2Z"/>
    <path class="st3" d="M82.6,18c-1.1,0-2,.9-2,2s.9,2,2,2,2-.9,2-2-.9-2-2-2Z"/>
  </g>
  <g>
    <polyline class="st1" points="535.3 67.7 543.6 59.3 612.3 59.3 633.8 37.8 672.7 37.8"/>
    <path class="st3" d="M536.8,69c-.8.8-2.1.8-2.9,0-.8-.8-.8-2.1,0-2.9.8-.8,2.1-.8,2.9,0,.8.8.8,2.1,0,2.9Z"/>
    <path class="st3" d="M672.6,39.8c1.1,0,2-.9,2-2s-.9-2-2-2-2,.9-2,2,.9,2,2,2Z"/>
  </g>
  <g>
    <polyline class="st1" points="674.3 29.6 628.3 29.6 606.7 51.1 521.6 51.1 508.6 38.1"/>
    <circle class="st3" cx="674.2" cy="29.6" r="2"/>
    <path class="st3" d="M510.1,36.7c-.8-.8-2.1-.8-2.9,0-.8.8-.8,2.1,0,2.9.8.8,2.1.8,2.9,0s.8-2.1,0-2.9Z"/>
  </g>
  <g>
    <polyline class="st1" points="572.9 43.3 601.8 43.3 621.9 23.1"/>
    <path class="st3" d="M573,45.3c-1.1,0-2-.9-2-2s.9-2,2-2,2,.9,2,2-.9,2-2,2Z"/>
    <path class="st3" d="M623.3,24.6c.8-.8.8-2.1,0-2.9-.8-.8-2.1-.8-2.9,0s-.8,2.1,0,2.9c.8.8,2.1.8,2.9,0Z"/>
  </g>
  <g>
    <polyline class="st1" points="587.5 116 605.7 134.2 724.4 134.2 756.1 102.7 776.1 102.7"/>
    <path class="st3" d="M586.1,117.5c-.8-.8-.8-2.1,0-2.9.8-.8,2.1-.8,2.9,0,.8.8.8,2.1,0,2.9-.8.8-2.1.8-2.9,0Z"/>
    <path class="st3" d="M776,104.8c1.1,0,2-.9,2-2s-.9-2-2-2-2,.9-2,2,.9,2,2,2Z"/>
  </g>
  <g>
    <polyline class="st1" points="231.3 26.6 210.9 26.6 196.5 12.2 46.8 12.2"/>
    <path class="st3" d="M231.2,24.6c1.1,0,2,.9,2,2s-.9,2-2,2-2-.9-2-2,.9-2,2-2Z"/>
    <path class="st3" d="M46.9,10.2c-1.1,0-2,.9-2,2s.9,2,2,2,2-.9,2-2-.9-2-2-2Z"/>
  </g>
  <g>
    <polyline class="st1" points="541 77.3 551.1 67.2 635.4 67.2"/>
    <path class="st3" d="M542.5,78.6c-.8.8-2.1.8-2.9,0-.8-.8-.8-2.1,0-2.9.8-.8,2.1-.8,2.9,0,.8.8.8,2.1,0,2.9Z"/>
    <path class="st3" d="M635.3,69.2c1.1,0,2-.9,2-2s-.9-2-2-2-2,.9-2,2,.9,2,2,2Z"/>
  </g>
  <g>
    <rect class="st3" x="541.1" y="196.4" width="4.6" height="4.6"/>
    <rect class="st3" x="549.7" y="196.4" width="4.6" height="4.6"/>
    <rect class="st3" x="558.2" y="196.4" width="4.6" height="4.6"/>
    <rect class="st3" x="566.8" y="196.4" width="4.6" height="4.6"/>
    <rect class="st3" x="575.4" y="196.4" width="4.6" height="4.6"/>
  </g>
  <g>
    <polyline class="st1" points="579.1 318.3 566.2 305.4 476.2 305.4 443.2 272.3 378.8 272.3"/>
    <path class="st3" d="M580.5,316.8c.8.8.8,2.1,0,2.9-.8.8-2.1.8-2.9,0-.8-.8-.8-2.1,0-2.9.8-.8,2.1-.8,2.9,0Z"/>
    <path class="st3" d="M378.9,270.3c-1.1,0-2,.9-2,2s.9,2,2,2,2-.9,2-2-.9-2-2-2Z"/>
  </g>
  <g>
    <polyline class="st1" points="537.5 296.8 481.1 296.8 448.6 264.2 317.7 264.2"/>
    <circle class="st3" cx="537.4" cy="296.8" r="2"/>
    <path class="st3" d="M317.8,262.2c-1.1,0-2,.9-2,2s.9,2,2,2,2-.9,2-2-.9-2-2-2Z"/>
  </g>
  <g>
    <polyline class="st1" points="505.1 289.1 487.5 289.1 454.5 256.1 379.6 256.1"/>
    <path class="st3" d="M505,287.1c1.1,0,2,.9,2,2s-.9,2-2,2-2-.9-2-2,.9-2,2-2Z"/>
    <circle class="st3" cx="379.7" cy="256.1" r="2"/>
  </g>
  <g>
    <polyline class="st1" points="542.9 285.4 530.4 272.8 495 272.8"/>
    <path class="st3" d="M544.3,283.9c.8.8.8,2.1,0,2.9-.8.8-2.1.8-2.9,0-.8-.8-.8-2.1,0-2.9.8-.8,2.1-.8,2.9,0Z"/>
    <path class="st3" d="M495.1,270.8c-1.1,0-2,.9-2,2s.9,2,2,2,2-.9,2-2-.9-2-2-2Z"/>
  </g>
  <g>
    <polyline class="st1" points="155.6 224 249.2 224 265.2 239.9 291 239.9"/>
    <path class="st3" d="M155.7,226c-1.1,0-2-.9-2-2s.9-2,2-2,2,.9,2,2-.9,2-2,2Z"/>
    <path class="st3" d="M290.9,242c1.1,0,2-.9,2-2s-.9-2-2-2-2,.9-2,2,.9,2,2,2Z"/>
  </g>
  <g>
    <polyline class="st1" points="175 174.8 163.5 163.4 89.3 163.4"/>
    <path class="st3" d="M176.4,173.3c.8.8.8,2.1,0,2.9-.8.8-2.1.8-2.9,0-.8-.8-.8-2.1,0-2.9.8-.8,2.1-.8,2.9,0Z"/>
    <path class="st3" d="M89.4,161.3c-1.1,0-2,.9-2,2s.9,2,2,2,2-.9,2-2-.9-2-2-2Z"/>
  </g>
  <g>
    <polyline class="st1" points="161.6 155.3 112.4 155.3 91.5 134.4 53.4 134.4"/>
    <path class="st3" d="M161.5,153.3c1.1,0,2,.9,2,2s-.9,2-2,2-2-.9-2-2,.9-2,2-2Z"/>
    <path class="st3" d="M53.5,132.4c-1.1,0-2,.9-2,2s.9,2,2,2,2-.9,2-2-.9-2-2-2Z"/>
  </g>
  <g>
    <line class="st1" x1="161.5" y1="147.3" x2="124" y2="147.3"/>
    <path class="st3" d="M161.4,145.3c1.1,0,2,.9,2,2s-.9,2-2,2-2-.9-2-2,.9-2,2-2Z"/>
    <path class="st3" d="M124.1,145.3c-1.1,0-2,.9-2,2s.9,2,2,2,2-.9,2-2-.9-2-2-2Z"/>
  </g>
  <path class="st2" d="M299.1,158.7h-31.6c-6.5,0-11.8,5.3-11.8,11.8v31.6c0,7.7,7.3,13.4,14.8,11.4,19.5-5.2,34.8-20.6,40.1-40.1,2-7.5-3.7-14.8-11.4-14.8ZM288.6,162c.9,0,1.7.7,1.7,1.7s-.4,1.3-1,1.5v3.2l-21.5,21.5c0,.2.1.4.1.6,0,.9-.7,1.7-1.7,1.7s-1.7-.7-1.7-1.7.7-1.7,1.7-1.7.5,0,.7.2l21.1-21.1v-2.7c-.6-.3-1-.8-1-1.5s.7-1.7,1.7-1.7ZM261.1,168.5c.8,0,1.4.5,1.6,1.2h10c.2-.7.8-1.2,1.6-1.2s1.7.7,1.7,1.7-.7,1.7-1.7,1.7-1.2-.3-1.4-.9h-10.3c-.3.5-.8.9-1.4.9-.9,0-1.7-.7-1.7-1.7s.7-1.7,1.7-1.7ZM261.1,174.9c.8,0,1.4.5,1.6,1.2h10c.2-.7.8-1.2,1.6-1.2s1.7.7,1.7,1.7-.7,1.7-1.7,1.7-1.2-.3-1.4-.9h-10.3c-.3.5-.8.9-1.4.9-.9,0-1.7-.7-1.7-1.7s.7-1.7,1.7-1.7ZM261.1,194.8c.7,0,1.3.5,1.6,1.1h5.8l24.6-24.6c-.1-.2-.2-.5-.2-.7,0-.9.7-1.7,1.7-1.7s1.7.7,1.7,1.7-.7,1.7-1.7,1.7-.4,0-.5,0l-25,25h-6.3c-.3.6-.8,1-1.5,1s-1.7-.7-1.7-1.7.7-1.7,1.7-1.7ZM282.4,202.5l-2.2-2.2,2.2-2.2,2.2,2.2-2.2,2.2ZM286.5,198.4l-2.2-2.2,2.2-2.2,2.2,2.2-2.2,2.2ZM290.6,194.2l-2.2-2.2,2.2-2.2,2.2,2.2-2.2,2.2ZM294.8,190.1l-2.2-2.2,2.2-2.2,2.2,2.2-2.2,2.2ZM298.9,186l-2.2-2.2,2.2-2.2,2.2,2.2-2.2,2.2ZM301.1,165.2v8.1l-29.7,29.7h-8.9c-.3.5-.8.9-1.5.9-.9,0-1.7-.7-1.7-1.7s.7-1.7,1.7-1.7,1.4.5,1.6,1.2h8.2l29-29v-7.6c-.6-.2-1.1-.8-1.1-1.5s.7-1.7,1.7-1.7,1.7.7,1.7,1.7-.4,1.2-1,1.5Z"/>
  <path class="st2" d="M680.7,144.3h-31.6c-6.5,0-11.8,5.3-11.8,11.8v31.6c0,7.7,7.3,13.4,14.8,11.4,19.5-5.2,34.8-20.6,40.1-40.1,2-7.5-3.7-14.8-11.4-14.8ZM670.2,147.6c.9,0,1.7.7,1.7,1.7s-.4,1.3-1,1.5v3.2l-21.5,21.5c0,.2.1.4.1.6,0,.9-.7,1.7-1.7,1.7s-1.7-.7-1.7-1.7.7-1.7,1.7-1.7.5,0,.7.2l21.1-21.1v-2.7c-.6-.3-1-.8-1-1.5s.7-1.7,1.7-1.7ZM642.7,154.1c.8,0,1.4.5,1.6,1.2h10c.2-.7.8-1.2,1.6-1.2s1.7.7,1.7,1.7-.7,1.7-1.7,1.7-1.2-.3-1.4-.9h-10.3c-.3.5-.8.9-1.4.9-.9,0-1.7-.7-1.7-1.7s.7-1.7,1.7-1.7ZM642.7,160.5c.8,0,1.4.5,1.6,1.2h10c.2-.7.8-1.2,1.6-1.2s1.7.7,1.7,1.7-.7,1.7-1.7,1.7-1.2-.3-1.4-.9h-10.3c-.3.5-.8.9-1.4.9-.9,0-1.7-.7-1.7-1.7s.7-1.7,1.7-1.7ZM642.7,180.3c.7,0,1.3.5,1.6,1.1h5.8l24.6-24.6c-.1-.2-.2-.5-.2-.7,0-.9.7-1.7,1.7-1.7s1.7.7,1.7,1.7-.7,1.7-1.7,1.7-.4,0-.5,0l-25,25h-6.3c-.3.6-.8,1-1.5,1s-1.7-.7-1.7-1.7.7-1.7,1.7-1.7ZM664,188.1l-2.2-2.2,2.2-2.2,2.2,2.2-2.2,2.2ZM668.1,183.9l-2.2-2.2,2.2-2.2,2.2,2.2-2.2,2.2ZM672.2,179.8l-2.2-2.2,2.2-2.2,2.2,2.2-2.2,2.2ZM676.4,175.7l-2.2-2.2,2.2-2.2,2.2,2.2-2.2,2.2ZM680.5,171.5l-2.2-2.2,2.2-2.2,2.2,2.2-2.2,2.2ZM682.7,150.8v8.1l-29.7,29.7h-8.9c-.3.5-.8.9-1.5.9-.9,0-1.7-.7-1.7-1.7s.7-1.7,1.7-1.7,1.4.5,1.6,1.2h8.2l29-29v-7.6c-.6-.2-1.1-.8-1.1-1.5s.7-1.7,1.7-1.7,1.7.7,1.7,1.7-.4,1.2-1,1.5Z"/>
  <path class="st2" d="M160.6,32.3h-31.6c-6.5,0-11.8,5.3-11.8,11.8v31.6c0,7.7,7.3,13.4,14.8,11.4,19.5-5.2,34.8-20.6,40.1-40.1,2-7.5-3.7-14.8-11.4-14.8ZM150.1,35.7c.9,0,1.7.7,1.7,1.7s-.4,1.3-1,1.5v3.2l-21.5,21.5c0,.2.1.4.1.6,0,.9-.7,1.7-1.7,1.7s-1.7-.7-1.7-1.7.7-1.7,1.7-1.7.5,0,.7.2l21.1-21.1v-2.7c-.6-.3-1-.8-1-1.5s.7-1.7,1.7-1.7ZM122.6,42.1c.8,0,1.4.5,1.6,1.2h10c.2-.7.8-1.2,1.6-1.2s1.7.7,1.7,1.7-.7,1.7-1.7,1.7-1.2-.3-1.4-.9h-10.3c-.3.5-.8.9-1.4.9-.9,0-1.7-.7-1.7-1.7s.7-1.7,1.7-1.7ZM122.6,48.5c.8,0,1.4.5,1.6,1.2h10c.2-.7.8-1.2,1.6-1.2s1.7.7,1.7,1.7-.7,1.7-1.7,1.7-1.2-.3-1.4-.9h-10.3c-.3.5-.8.9-1.4.9-.9,0-1.7-.7-1.7-1.7s.7-1.7,1.7-1.7ZM122.6,68.4c.7,0,1.3.5,1.6,1.1h5.8l24.6-24.6c-.1-.2-.2-.5-.2-.7,0-.9.7-1.7,1.7-1.7s1.7.7,1.7,1.7-.7,1.7-1.7,1.7-.4,0-.5,0l-25,25h-6.3c-.3.6-.8,1-1.5,1s-1.7-.7-1.7-1.7.7-1.7,1.7-1.7ZM143.9,76.1l-2.2-2.2,2.2-2.2,2.2,2.2-2.2,2.2ZM148,72l-2.2-2.2,2.2-2.2,2.2,2.2-2.2,2.2ZM152.1,67.9l-2.2-2.2,2.2-2.2,2.2,2.2-2.2,2.2ZM156.3,63.7l-2.2-2.2,2.2-2.2,2.2,2.2-2.2,2.2ZM160.4,59.6l-2.2-2.2,2.2-2.2,2.2,2.2-2.2,2.2ZM162.6,38.8v8.1l-29.7,29.7h-8.9c-.3.5-.8.9-1.5.9-.9,0-1.7-.7-1.7-1.7s.7-1.7,1.7-1.7,1.4.5,1.6,1.2h8.2l29-29v-7.6c-.6-.2-1.1-.8-1.1-1.5s.7-1.7,1.7-1.7,1.7.7,1.7,1.7-.4,1.2-1,1.5Z"/>
  <g>
    <polyline class="st1" points="195.2 211.8 203.9 203.1 227.8 203.1"/>
    <path class="st3" d="M196.7,213.2c-.8.8-2.1.8-2.9,0-.8-.8-.8-2.1,0-2.9.8-.8,2.1-.8,2.9,0,.8.8.8,2.1,0,2.9Z"/>
    <path class="st3" d="M227.6,205.2c1.1,0,2-.9,2-2s-.9-2-2-2-2,.9-2,2,.9,2,2,2Z"/>
  </g>
  <path class="st3" d="M200.2,42.8h161c5.2-.7,9.3-5.1,9.3-10.5,0-5.9-4.7-10.6-10.6-10.6h-2.5s0,0,0,0h-110c-11.7,0-21.2-9.5-21.2-21.2h0c0-11.7,9.5-21.2,21.2-21.2h333.4c11.7,0,21.2,9.5,21.2,21.2h0c0,11.7-9.5,21.2-21.2,21.2h-154.2s-9.5,0-9.5,0c-5.9,0-10.6,4.7-10.6,10.6,0,5.9,4.7,10.6,10.6,10.6h9.5s52.9,0,52.9,0c11.7,0,21.2,9.5,21.2,21.2h0c0,11.7-9.5,21.2-21.2,21.2h-135.9c-5.2.7-9.3,5.1-9.3,10.5,0,5.9,4.7,10.6,10.6,10.6h2.5s0,0,0,0h83.8c11.7,0,21.2,9.5,21.2,21.2h0c0,11.7-9.5,21.2-21.2,21.2h-24s-2.5,0-2.5,0c-5.9,0-10.6,4.7-10.6,10.6,0,5.9,4.7,10.6,10.6,10.6h2.5s0,0,0,0h57.8c11.7,0,21.2,9.5,21.2,21.2h0c0,11.7-9.5,21.2-21.2,21.2h-128.9c-11.7,0-21.2-9.5-21.2-21.2h0c0-11.7,9.5-21.2,21.2-21.2h1.9s9.5,0,9.5,0c5.9,0,10.6-4.7,10.6-10.6s-4.7-10.6-10.6-10.6h-9.5s0,0,0,0h-87.7c-11.7,0-21.2-9.5-21.2-21.2h0c0-11.7,9.5-21.2,21.2-21.2h27.9s9.5,0,9.5,0c5.9,0,10.6-4.7,10.6-10.6,0-5.9-4.7-10.6-10.6-10.6h-9.5s-78,0-78,0c-11.7,0-21.2-9.5-21.2-21.2h0c0-11.7,9.5-21.2,21.2-21.2Z"/>
  <g>
    <polyline class="st1" points="503.2 198.7 528.6 224.1 599.3 224.1 611 212.4 611 195.4"/>
    <path class="st3" d="M501.8,200.3c-.8-.8-.8-2.1,0-2.9.8-.8,2.1-.8,2.9,0,.8.8.8,2.1,0,2.9-.8.8-2.1.8-2.9,0Z"/>
    <path class="st3" d="M613,195.5c0-1.1-.9-2-2-2s-2,.9-2,2,.9,2,2,2,2-.9,2-2Z"/>
  </g>
  <g>
    <polyline class="st1" points="498.6 205.2 525.1 231.7 546.4 231.7 564.8 250.1 599.3 250.1"/>
    <circle class="st3" cx="498.6" cy="205.3" r="2" transform="translate(-36.8 141.4) rotate(-15.6)"/>
    <circle class="st3" cx="599.2" cy="250.1" r="2"/>
  </g>
  <g>
    <polyline class="st1" points="726.8 118.8 750.8 94.8 776.1 94.8"/>
    <path class="st3" d="M728.3,120.2c-.8.8-2.1.8-2.9,0-.8-.8-.8-2.1,0-2.9.8-.8,2.1-.8,2.9,0,.8.8.8,2.1,0,2.9Z"/>
    <path class="st3" d="M776,96.8c1.1,0,2-.9,2-2s-.9-2-2-2-2,.9-2,2,.9,2,2,2Z"/>
  </g>
  <path class="st3" d="M766.8,210.8c11.9,0,21.6,9.7,21.6,21.6h0c0,11.9-9.7,21.6-21.6,21.6h-37.4s0,0,0,0h-9.6c-6,0-10.8,4.8-10.8,10.8,0,6,4.8,10.8,10.8,10.8h9.6s1.9,0,1.9,0c11.9,0,21.6,9.7,21.6,21.6h0c0,11.9-9.7,21.6-21.6,21.6h-127.5c-11.9,0-21.6-9.7-21.6-21.6h0c0-11.9,9.7-21.6,21.6-21.6h55.4s0,0,0,0h2.5c6,0,10.8-4.8,10.8-10.8,0-6-4.8-10.8-10.8-10.8h-2.5s-24.4,0-24.4,0c-11.9,0-21.6-9.7-21.6-21.6h0c0-11.9,9.7-21.6,21.6-21.6h85.2s0,0,0,0h2.5s44.3,0,44.3,0Z"/>
  <g>
    <rect class="st3" x="223.6" y="90.3" width="4.6" height="4.6"/>
    <rect class="st3" x="232.2" y="90.3" width="4.6" height="4.6"/>
    <rect class="st3" x="240.8" y="90.3" width="4.6" height="4.6"/>
    <rect class="st3" x="249.4" y="90.3" width="4.6" height="4.6"/>
    <rect class="st3" x="258" y="90.3" width="4.6" height="4.6"/>
  </g>
  <g>
    <polyline class="st1" points="516.2 104 564.7 104 585.2 83.6 659.1 83.6 674.1 98.6"/>
    <circle class="st3" cx="516.3" cy="104" r="2"/>
    <path class="st3" d="M672.6,100c.8.8,2.1.8,2.9,0,.8-.8.8-2.1,0-2.9-.8-.8-2.1-.8-2.9,0-.8.8-.8,2.1,0,2.9Z"/>
  </g>
  <g>
    <polyline class="st1" points="600.3 91.2 654.5 91.2 682.3 118.9 695.1 118.9"/>
    <circle class="st3" cx="600.4" cy="91.2" r="2"/>
    <path class="st3" d="M695,121c1.1,0,2-.9,2-2s-.9-2-2-2-2,.9-2,2,.9,2,2,2Z"/>
  </g>
  <g>
    <line class="st1" x1="766.1" y1="110.5" x2="792.2" y2="110.5"/>
    <path class="st3" d="M766.2,112.5c-1.1,0-2-.9-2-2s.9-2,2-2,2,.9,2,2-.9,2-2,2Z"/>
    <circle class="st3" cx="792.1" cy="110.5" r="2"/>
  </g>
  <g>
    <line class="st1" x1="766.1" y1="118.9" x2="792.2" y2="118.9"/>
    <path class="st3" d="M766.2,121c-1.1,0-2-.9-2-2s.9-2,2-2,2,.9,2,2-.9,2-2,2Z"/>
    <circle class="st3" cx="792.1" cy="118.9" r="2"/>
  </g>
  <g>
    <line class="st1" x1="766.1" y1="126.7" x2="792.2" y2="126.7"/>
    <path class="st3" d="M766.2,128.7c-1.1,0-2-.9-2-2s.9-2,2-2,2,.9,2,2-.9,2-2,2Z"/>
    <circle class="st3" cx="792.1" cy="126.7" r="2"/>
  </g>
  <g>
    <polyline class="st1" points="697.4 186.4 732.5 186.4 765 153.9 781.7 153.9 794 141.6"/>
    <path class="st3" d="M697.5,188.4c-1.1,0-2-.9-2-2s.9-2,2-2,2,.9,2,2-.9,2-2,2Z"/>
    <path class="st3" d="M795.3,143.1c.8-.8.8-2.1,0-2.9-.8-.8-2.1-.8-2.9,0-.8.8-.8,2.1,0,2.9.8.8,2.1.8,2.9,0Z"/>
  </g>
  <g>
    <polyline class="st1" points="401.8 239.6 321.8 239.6 297.4 264.1"/>
    <path class="st3" d="M401.7,237.6c1.1,0,2,.9,2,2s-.9,2-2,2-2-.9-2-2,.9-2,2-2Z"/>
    <path class="st3" d="M296,262.6c-.8.8-.8,2.1,0,2.9.8.8,2.1.8,2.9,0,.8-.8.8-2.1,0-2.9s-2.1-.8-2.9,0Z"/>
  </g>
  <g>
    <polyline class="st1" points="697.4 194.8 737 194.8 768.8 162.9 793.5 162.9"/>
    <circle class="st3" cx="697.5" cy="194.8" r="2"/>
    <path class="st3" d="M793.4,165c1.1,0,2-.9,2-2s-.9-2-2-2-2,.9-2,2,.9,2,2,2Z"/>
  </g>
  <g>
    <polyline class="st1" points="575 159.8 591.8 176.6 607.4 176.6"/>
    <path class="st3" d="M573.6,161.3c-.8-.8-.8-2.1,0-2.9.8-.8,2.1-.8,2.9,0,.8.8.8,2.1,0,2.9-.8.8-2.1.8-2.9,0Z"/>
    <circle class="st3" cx="607.3" cy="176.6" r="2"/>
  </g>
  <g>
    <polyline class="st1" points="493.3 18.4 532.6 18.4 545.8 5.1"/>
    <path class="st3" d="M493.4,20.4c-1.1,0-2-.9-2-2s.9-2,2-2,2,.9,2,2-.9,2-2,2Z"/>
    <path class="st3" d="M547.2,6.6c.8-.8.8-2.1,0-2.9s-2.1-.8-2.9,0c-.8.8-.8,2.1,0,2.9.8.8,2.1.8,2.9,0Z"/>
  </g>
  <g>
    <polyline class="st1" points="497.2 264.6 538.2 264.6 566.3 293.7"/>
    <path class="st3" d="M497.3,266.6c-1.1,0-2-.9-2-2s.9-2,2-2,2,.9,2,2-.9,2-2,2Z"/>
    <path class="st3" d="M564.8,295c.8.8,2.1.8,2.9,0,.8-.8.8-2.1,0-2.9-.8-.8-2.1-.8-2.9,0-.8.8-.8,2.1,0,2.9Z"/>
  </g>
  <g>
    <polyline class="st1" points="707.1 44.7 738.3 44.7 766 17.1 795.6 17.1"/>
    <circle class="st3" cx="707.2" cy="44.7" r="2"/>
    <path class="st3" d="M795.5,19.1c1.1,0,2-.9,2-2s-.9-2-2-2-2,.9-2,2,.9,2,2,2Z"/>
  </g>
  <g>
    <polyline class="st1" points="717.5 55.2 707.2 65.5 673.4 65.5 663.8 75.1 601.8 75.1"/>
    <path class="st3" d="M716,53.8c.8-.8,2.1-.8,2.9,0,.8.8.8,2.1,0,2.9-.8.8-2.1.8-2.9,0-.8-.8-.8-2.1,0-2.9Z"/>
    <circle class="st3" cx="601.9" cy="75.1" r="2"/>
  </g>
  <g>
    <polyline class="st1" points="412.1 231.9 327.9 231.9 312.5 216.5"/>
    <path class="st3" d="M412,229.9c1.1,0,2,.9,2,2s-.9,2-2,2-2-.9-2-2,.9-2,2-2Z"/>
    <path class="st3" d="M314,215.2c-.8-.8-2.1-.8-2.9,0-.8.8-.8,2.1,0,2.9.8.8,2.1.8,2.9,0,.8-.8.8-2.1,0-2.9Z"/>
  </g>
  <g>
    <polyline class="st1" points="178.8 167 197.9 186.1 229.4 186.1 241.2 197.9"/>
    <path class="st3" d="M177.4,168.5c-.8-.8-.8-2.1,0-2.9.8-.8,2.1-.8,2.9,0,.8.8.8,2.1,0,2.9-.8.8-2.1.8-2.9,0Z"/>
    <path class="st3" d="M239.7,199.2c.8.8,2.1.8,2.9,0,.8-.8.8-2.1,0-2.9-.8-.8-2.1-.8-2.9,0-.8.8-.8,2.1,0,2.9Z"/>
  </g>
  <g>
    <polyline class="st1" points="218.4 217.6 254.8 217.6 266.4 229.2"/>
    <path class="st3" d="M218.5,219.6c-1.1,0-2-.9-2-2s.9-2,2-2,2,.9,2,2-.9,2-2,2Z"/>
    <path class="st3" d="M264.9,230.6c.8.8,2.1.8,2.9,0,.8-.8.8-2.1,0-2.9-.8-.8-2.1-.8-2.9,0-.8.8-.8,2.1,0,2.9Z"/>
  </g>
</svg>