<?xml version="1.0" encoding="UTF-8"?>
<svg id="_レイヤー_1" xmlns="http://www.w3.org/2000/svg" version="1.1" viewBox="0 0 800 330">
  <!-- Generator: Adobe Illustrator 29.0.0, SVG Export Plug-In . SVG Version: 2.1.0 Build 186)  -->
  <defs>
    <style>
      .st0 {
        opacity: .5;
      }

      .st0, .st1 {
        fill: #fff;
      }

      .st2 {
        fill: none;
        stroke: #fff;
        stroke-miterlimit: 10;
        stroke-width: .6px;
      }
    </style>
  </defs>
  <path class="st1" d="M228.8,314.3h9.7s-.8,0-.8,0c11.9,0,21.6-9.7,21.6-21.6h0c0-11.9-9.7-21.6-21.6-21.6h-25.8s0,0,0,0h-9.7c-6,0-10.8-4.8-10.8-10.8,0-6,4.8-10.8,10.8-10.8h4.7s1.9,0,1.9,0c11.9,0,21.6-9.7,21.6-21.6h0c0-11.9-9.7-21.6-21.6-21.6h-124.2c-11.9,0-21.6,9.7-21.6,21.6h0c0,11.9,9.7,21.6,21.6,21.6h56.8s0,0,0,0h2.5c6,0,10.8,4.8,10.8,10.8,0,6-4.8,10.8-10.8,10.8h-2.5s-7.2,0-7.2,0c-11.9,0-21.6,9.7-21.6,21.6h0c0,11.9,9.7,21.6,21.6,21.6h68.2s0,0,0,0h26.4Z"/>
  <path class="st0" d="M318.1,192.2h-28.5c-5.9,0-10.6,4.8-10.6,10.6v28.5c0,7,6.6,12.1,13.3,10.3,17.5-4.7,31.3-18.5,36.1-36.1,1.8-6.7-3.3-13.3-10.3-13.3ZM308.6,195.2c.8,0,1.5.7,1.5,1.5s-.4,1.2-.9,1.4v2.9l-19.3,19.3c0,.2,0,.3,0,.5,0,.8-.7,1.5-1.5,1.5s-1.5-.7-1.5-1.5.7-1.5,1.5-1.5.4,0,.6.1l19-19v-2.4c-.5-.2-.9-.8-.9-1.4s.7-1.5,1.5-1.5ZM283.8,201c.7,0,1.2.5,1.4,1.1h9c.2-.6.7-1.1,1.4-1.1s1.5.7,1.5,1.5-.7,1.5-1.5,1.5-1-.3-1.3-.8h-9.3c-.3.5-.7.8-1.3.8-.8,0-1.5-.7-1.5-1.5s.7-1.5,1.5-1.5ZM283.8,206.8c.7,0,1.2.5,1.4,1.1h9c.2-.6.7-1.1,1.4-1.1s1.5.7,1.5,1.5-.7,1.5-1.5,1.5-1-.3-1.3-.8h-9.3c-.3.5-.7.8-1.3.8-.8,0-1.5-.7-1.5-1.5s.7-1.5,1.5-1.5ZM283.8,224.7c.6,0,1.2.4,1.4,1h5.2l22.1-22.1c0-.2-.2-.4-.2-.7,0-.8.7-1.5,1.5-1.5s1.5.7,1.5,1.5-.7,1.5-1.5,1.5-.3,0-.5,0l-22.5,22.5h-5.7c-.2.5-.7.9-1.3.9s-1.5-.7-1.5-1.5.7-1.5,1.5-1.5ZM303,231.6l-2-2,2-2,2,2-2,2ZM306.7,227.9l-2-2,2-2,2,2-2,2ZM310.5,224.2l-2-2,2-2,2,2-2,2ZM314.2,220.5l-2-2,2-2,2,2-2,2ZM317.9,216.8l-2-2,2-2,2,2-2,2ZM319.9,198.1v7.3l-26.8,26.8h-8c-.3.5-.7.8-1.3.8-.8,0-1.5-.7-1.5-1.5s.7-1.5,1.5-1.5,1.2.4,1.4,1h7.4l26.1-26.1v-6.8c-.6-.2-1-.8-1-1.4s.7-1.5,1.5-1.5,1.5.7,1.5,1.5-.4,1.1-.9,1.4Z"/>
  <path class="st0" d="M759.4,52.5h-28.5c-5.9,0-10.6,4.8-10.6,10.6v28.5c0,7,6.6,12.1,13.3,10.3,17.5-4.7,31.3-18.5,36.1-36.1,1.8-6.7-3.3-13.3-10.3-13.3ZM749.9,55.5c.8,0,1.5.7,1.5,1.5s-.4,1.2-.9,1.4v2.9l-19.3,19.3c0,.2,0,.3,0,.5,0,.8-.7,1.5-1.5,1.5s-1.5-.7-1.5-1.5.7-1.5,1.5-1.5.4,0,.6.1l19-19v-2.4c-.5-.2-.9-.8-.9-1.4s.7-1.5,1.5-1.5ZM725.2,61.3c.7,0,1.2.5,1.4,1.1h9c.2-.6.7-1.1,1.4-1.1s1.5.7,1.5,1.5-.7,1.5-1.5,1.5-1-.3-1.3-.8h-9.3c-.3.5-.7.8-1.3.8-.8,0-1.5-.7-1.5-1.5s.7-1.5,1.5-1.5ZM725.2,67.1c.7,0,1.2.5,1.4,1.1h9c.2-.6.7-1.1,1.4-1.1s1.5.7,1.5,1.5-.7,1.5-1.5,1.5-1-.3-1.3-.8h-9.3c-.3.5-.7.8-1.3.8-.8,0-1.5-.7-1.5-1.5s.7-1.5,1.5-1.5ZM725.2,84.9c.6,0,1.2.4,1.4,1h5.2l22.1-22.1c0-.2-.2-.4-.2-.7,0-.8.7-1.5,1.5-1.5s1.5.7,1.5,1.5-.7,1.5-1.5,1.5-.3,0-.5,0l-22.5,22.5h-5.7c-.2.5-.7.9-1.3.9s-1.5-.7-1.5-1.5.7-1.5,1.5-1.5ZM744.4,91.9l-2-2,2-2,2,2-2,2ZM748.1,88.2l-2-2,2-2,2,2-2,2ZM751.8,84.5l-2-2,2-2,2,2-2,2ZM755.5,80.8l-2-2,2-2,2,2-2,2ZM759.2,77.1l-2-2,2-2,2,2-2,2ZM761.2,58.4v7.3l-26.8,26.8h-8c-.3.5-.7.8-1.3.8-.8,0-1.5-.7-1.5-1.5s.7-1.5,1.5-1.5,1.2.4,1.4,1h7.4l26.1-26.1v-6.8c-.6-.2-1-.8-1-1.4s.7-1.5,1.5-1.5,1.5.7,1.5,1.5-.4,1.1-.9,1.4Z"/>
  <g>
    <polyline class="st2" points="175.1 76.9 167.5 69.3 17.8 69.3"/>
    <path class="st1" d="M176.5,75.5c.8.8.8,2.1,0,2.9s-2.1.8-2.9,0-.8-2.1,0-2.9,2.1-.8,2.9,0Z"/>
    <path class="st1" d="M17.8,67.3c-1.1,0-2,.9-2,2s.9,2,2,2,2-.9,2-2-.9-2-2-2Z"/>
  </g>
  <g>
    <polyline class="st2" points="523 38.5 533.5 28 592.5 28 616.5 52.1 697.2 52.1"/>
    <path class="st1" d="M524.4,39.9c-.8.8-2.1.8-2.9,0-.8-.8-.8-2.1,0-2.9.8-.8,2.1-.8,2.9,0,.8.8.8,2.1,0,2.9Z"/>
    <path class="st1" d="M697.2,54.1c1.1,0,2-.9,2-2s-.9-2-2-2-2,.9-2,2,.9,2,2,2Z"/>
  </g>
  <g>
    <polyline class="st2" points="666.4 44.3 619.8 44.3 595.8 20.2"/>
    <circle class="st1" cx="666.4" cy="44.3" r="2"/>
    <path class="st1" d="M597.2,18.8c-.8-.8-2.1-.8-2.9,0-.8.8-.8,2.1,0,2.9.8.8,2.1.8,2.9,0,.8-.8.8-2.1,0-2.9Z"/>
  </g>
  <g>
    <polyline class="st2" points="749.1 35.8 623.9 35.8 625.2 37"/>
    <path class="st1" d="M749.1,33.7c1.1,0,2,.9,2,2s-.9,2-2,2-2-.9-2-2,.9-2,2-2Z"/>
    <path class="st1" d="M623.7,38.5c.8.8,2.1.8,2.9,0,.8-.8.8-2.1,0-2.9-.8-.8-2.1-.8-2.9,0-.8.8-.8,2.1,0,2.9Z"/>
  </g>
  <g>
    <line class="st2" x1="540.5" y1="36.1" x2="576.5" y2="36.1"/>
    <path class="st1" d="M540.5,38.1c-1.1,0-2-.9-2-2s.9-2,2-2,2,.9,2,2-.9,2-2,2Z"/>
    <circle class="st1" cx="576.5" cy="36.1" r="2"/>
  </g>
  <g>
    <line class="st2" x1="540.5" y1="44.2" x2="576.5" y2="44.2"/>
    <path class="st1" d="M540.5,46.2c-1.1,0-2-.9-2-2s.9-2,2-2,2,.9,2,2-.9,2-2,2Z"/>
    <circle class="st1" cx="576.5" cy="44.2" r="2"/>
  </g>
  <g>
    <line class="st2" x1="540.5" y1="52.3" x2="576.5" y2="52.3"/>
    <path class="st1" d="M540.5,54.3c-1.1,0-2-.9-2-2s.9-2,2-2,2,.9,2,2-.9,2-2,2Z"/>
    <circle class="st1" cx="576.5" cy="52.3" r="2"/>
  </g>
  <g>
    <line class="st2" x1="215.1" y1="172.4" x2="251.1" y2="172.4"/>
    <path class="st1" d="M215.1,174.5c-1.1,0-2-.9-2-2s.9-2,2-2,2,.9,2,2-.9,2-2,2Z"/>
    <path class="st1" d="M251.1,174.5c1.1,0,2-.9,2-2s-.9-2-2-2-2,.9-2,2,.9,2,2,2Z"/>
  </g>
  <g>
    <line class="st2" x1="215.1" y1="180.4" x2="251.1" y2="180.4"/>
    <path class="st1" d="M215.1,182.4c-1.1,0-2-.9-2-2s.9-2,2-2,2,.9,2,2-.9,2-2,2Z"/>
    <path class="st1" d="M251.1,182.4c1.1,0,2-.9,2-2s-.9-2-2-2-2,.9-2,2,.9,2,2,2Z"/>
  </g>
  <g>
    <line class="st2" x1="214.9" y1="188.4" x2="250.9" y2="188.4"/>
    <path class="st1" d="M214.9,190.4c-1.1,0-2-.9-2-2s.9-2,2-2,2,.9,2,2-.9,2-2,2Z"/>
    <path class="st1" d="M250.9,190.4c1.1,0,2-.9,2-2s-.9-2-2-2-2,.9-2,2,.9,2,2,2Z"/>
  </g>
  <g>
    <polyline class="st2" points="480.8 112.2 489.5 103.5 551.3 103.5 573.1 81.8 652.9 81.8"/>
    <path class="st1" d="M482.3,113.7c-.8.8-2.1.8-2.9,0-.8-.8-.8-2.1,0-2.9.8-.8,2.1-.8,2.9,0s.8,2.1,0,2.9Z"/>
    <circle class="st1" cx="652.9" cy="81.8" r="2"/>
  </g>
  <g>
    <polyline class="st2" points="611.2 72.8 568.1 72.8 545.4 95.5 468.8 95.5 459.1 85.7"/>
    <path class="st1" d="M611.2,70.8c1.1,0,2,.9,2,2s-.9,2-2,2-2-.9-2-2,.9-2,2-2Z"/>
    <path class="st1" d="M460.5,84.3c-.8-.8-2.1-.8-2.9,0s-.8,2.1,0,2.9c.8.8,2.1.8,2.9,0,.8-.8.8-2.1,0-2.9Z"/>
  </g>
  <g>
    <polyline class="st2" points="164.2 106.2 222.2 106.2 235.6 92.9 269.3 92.9"/>
    <path class="st1" d="M164.2,108.3c-1.1,0-2-.9-2-2s.9-2,2-2,2,.9,2,2-.9,2-2,2Z"/>
    <path class="st1" d="M269.3,94.9c1.1,0,2-.9,2-2s-.9-2-2-2-2,.9-2,2,.9,2,2,2Z"/>
  </g>
  <g>
    <polyline class="st2" points="613.9 12.1 629.4 27.7 729.7 27.7"/>
    <path class="st1" d="M612.4,13.6c-.8-.8-.8-2.1,0-2.9.8-.8,2.1-.8,2.9,0s.8,2.1,0,2.9c-.8.8-2.1.8-2.9,0Z"/>
    <circle class="st1" cx="729.7" cy="27.7" r="2"/>
  </g>
  <g>
    <polyline class="st2" points="491.7 119 499.1 111.6 576.7 111.6"/>
    <path class="st1" d="M493.1,120.4c-.8.8-2.1.8-2.9,0-.8-.8-.8-2.1,0-2.9.8-.8,2.1-.8,2.9,0,.8.8.8,2.1,0,2.9Z"/>
    <path class="st1" d="M576.7,113.6c1.1,0,2-.9,2-2s-.9-2-2-2-2,.9-2,2,.9,2,2,2Z"/>
  </g>
  <g>
    <rect class="st1" x="535.8" y="119.2" width="4.2" height="4.2"/>
    <rect class="st1" x="543.5" y="119.2" width="4.2" height="4.2"/>
    <rect class="st1" x="551.2" y="119.2" width="4.2" height="4.2"/>
    <rect class="st1" x="558.9" y="119.2" width="4.2" height="4.2"/>
    <rect class="st1" x="566.7" y="119.2" width="4.2" height="4.2"/>
  </g>
  <g>
    <rect class="st1" x="374.8" y="156" width="4.2" height="4.2"/>
    <rect class="st1" x="382.5" y="156" width="4.2" height="4.2"/>
    <rect class="st1" x="390.2" y="156" width="4.2" height="4.2"/>
    <rect class="st1" x="398" y="156" width="4.2" height="4.2"/>
    <rect class="st1" x="405.7" y="156" width="4.2" height="4.2"/>
  </g>
  <g>
    <rect class="st1" x="405.3" y="240.7" width="4.2" height="4.2"/>
    <rect class="st1" x="413.1" y="240.7" width="4.2" height="4.2"/>
    <rect class="st1" x="420.8" y="240.7" width="4.2" height="4.2"/>
    <rect class="st1" x="428.5" y="240.7" width="4.2" height="4.2"/>
    <rect class="st1" x="436.2" y="240.7" width="4.2" height="4.2"/>
  </g>
  <g>
    <polyline class="st2" points="231.8 114.5 152 114.5 123.1 85.6 36.4 85.6"/>
    <path class="st1" d="M231.8,112.4c1.1,0,2,.9,2,2s-.9,2-2,2-2-.9-2-2,.9-2,2-2Z"/>
    <path class="st1" d="M36.4,83.6c-1.1,0-2,.9-2,2s.9,2,2,2,2-.9,2-2-.9-2-2-2Z"/>
  </g>
  <g>
    <polyline class="st2" points="296.6 76.3 286.3 86.6 173.7 86.6 164.4 77.3 36.3 77.3"/>
    <path class="st1" d="M295.2,74.9c.8-.8,2.1-.8,2.9,0,.8.8.8,2.1,0,2.9-.8.8-2.1.8-2.9,0-.8-.8-.8-2.1,0-2.9Z"/>
    <path class="st1" d="M36.3,75.3c-1.1,0-2,.9-2,2s.9,2,2,2,2-.9,2-2-.9-2-2-2Z"/>
  </g>
  <g>
    <polyline class="st2" points="535.6 198.5 368.1 198.5 332.7 163.1 250.9 163.1"/>
    <circle class="st1" cx="535.6" cy="198.5" r="2"/>
    <path class="st1" d="M250.9,161.1c-1.1,0-2,.9-2,2s.9,2,2,2,2-.9,2-2-.9-2-2-2Z"/>
  </g>
  <g>
    <polyline class="st2" points="390.7 190.3 374.4 190.3 339 154.9 189.9 154.9 170.1 174.7 152.8 174.7"/>
    <path class="st1" d="M390.7,188.3c1.1,0,2,.9,2,2s-.9,2-2,2-2-.9-2-2,.9-2,2-2Z"/>
    <path class="st1" d="M152.8,172.6c-1.1,0-2,.9-2,2s.9,2,2,2,2-.9,2-2-.9-2-2-2Z"/>
  </g>
  <g>
    <line class="st2" x1="668.1" y1="87.2" x2="690.6" y2="87.2"/>
    <circle class="st1" cx="668.1" cy="87.2" r="2"/>
    <path class="st1" d="M690.6,89.2c1.1,0,2-.9,2-2s-.9-2-2-2-2,.9-2,2,.9,2,2,2Z"/>
  </g>
  <g>
    <line class="st2" x1="668.1" y1="95.2" x2="690.6" y2="95.2"/>
    <circle class="st1" cx="668.1" cy="95.2" r="2"/>
    <path class="st1" d="M690.6,97.2c1.1,0,2-.9,2-2s-.9-2-2-2-2,.9-2,2,.9,2,2,2Z"/>
  </g>
  <g>
    <line class="st2" x1="668.1" y1="103.1" x2="690.6" y2="103.1"/>
    <circle class="st1" cx="668.1" cy="103.1" r="2"/>
    <path class="st1" d="M690.6,105.1c1.1,0,2-.9,2-2s-.9-2-2-2-2,.9-2,2,.9,2,2,2Z"/>
  </g>
  <g>
    <polyline class="st2" points="753.1 146.5 721.7 146.5 694.4 119.2 652.1 119.2"/>
    <circle class="st1" cx="753.1" cy="146.5" r="2"/>
    <circle class="st1" cx="652.1" cy="119.2" r="2"/>
  </g>
  <g>
    <polyline class="st2" points="780.7 138.6 728.3 138.6 701 111.3 595.9 111.3"/>
    <path class="st1" d="M780.7,136.6c1.1,0,2,.9,2,2s-.9,2-2,2-2-.9-2-2,.9-2,2-2Z"/>
    <circle class="st1" cx="595.9" cy="111.3" r="2"/>
  </g>
  <g>
    <polyline class="st2" points="753.1 130.8 734.9 130.8 704.3 100.1 704.3 82.2"/>
    <path class="st1" d="M753.1,128.7c1.1,0,2,.9,2,2s-.9,2-2,2-2-.9-2-2,.9-2,2-2Z"/>
    <path class="st1" d="M706.3,82.2c0-1.1-.9-2-2-2-1.1,0-2,.9-2,2s.9,2,2,2c1.1,0,2-.9,2-2Z"/>
  </g>
  <g>
    <polyline class="st2" points="781.2 127.8 775.6 122.2 753.1 122.2"/>
    <path class="st1" d="M782.6,126.3c.8.8.8,2.1,0,2.9-.8.8-2.1.8-2.9,0-.8-.8-.8-2.1,0-2.9.8-.8,2.1-.8,2.9,0Z"/>
    <path class="st1" d="M753.1,120.1c-1.1,0-2,.9-2,2s.9,2,2,2,2-.9,2-2-.9-2-2-2Z"/>
  </g>
  <g>
    <polyline class="st2" points="651.4 253.6 626.2 253.6 600.6 227.9 532.8 227.9"/>
    <path class="st1" d="M651.4,251.5c1.1,0,2,.9,2,2s-.9,2-2,2-2-.9-2-2,.9-2,2-2Z"/>
    <circle class="st1" cx="532.8" cy="227.9" r="2"/>
  </g>
  <g>
    <polyline class="st2" points="519.2 259.5 468.8 259.5 441.5 232.2 336.4 232.2"/>
    <path class="st1" d="M519.2,257.5c1.1,0,2,.9,2,2s-.9,2-2,2-2-.9-2-2,.9-2,2-2Z"/>
    <circle class="st1" cx="336.4" cy="232.2" r="2"/>
  </g>
  <g>
    <polyline class="st2" points="651.4 245.6 632.7 245.6 605.4 218.3 605.4 200.3"/>
    <path class="st1" d="M651.4,243.5c1.1,0,2,.9,2,2s-.9,2-2,2-2-.9-2-2,.9-2,2-2Z"/>
    <path class="st1" d="M607.5,200.3c0-1.1-.9-2-2-2-1.1,0-2,.9-2,2s.9,2,2,2c1.1,0,2-.9,2-2Z"/>
  </g>
  <g>
    <polyline class="st2" points="696 248.4 684.9 237.3 651.4 237.3"/>
    <path class="st1" d="M697.5,247c.8.8.8,2.1,0,2.9-.8.8-2.1.8-2.9,0-.8-.8-.8-2.1,0-2.9.8-.8,2.1-.8,2.9,0Z"/>
    <path class="st1" d="M651.4,235.3c-1.1,0-2,.9-2,2s.9,2,2,2,2-.9,2-2-.9-2-2-2Z"/>
  </g>
  <g>
    <polyline class="st2" points="153 182.6 79.7 182.6 35.1 137.9 17.8 137.9"/>
    <path class="st1" d="M153,180.6c1.1,0,2,.9,2,2s-.9,2-2,2-2-.9-2-2,.9-2,2-2Z"/>
    <path class="st1" d="M17.8,135.9c-1.1,0-2,.9-2,2s.9,2,2,2,2-.9,2-2-.9-2-2-2Z"/>
  </g>
  <g>
    <polyline class="st2" points="153 190.7 74.3 190.7 58.2 206.8"/>
    <path class="st1" d="M153,188.7c1.1,0,2,.9,2,2s-.9,2-2,2-2-.9-2-2,.9-2,2-2Z"/>
    <path class="st1" d="M56.7,205.4c-.8.8-.8,2.1,0,2.9.8.8,2.1.8,2.9,0,.8-.8.8-2.1,0-2.9-.8-.8-2.1-.8-2.9,0Z"/>
  </g>
  <g>
    <polyline class="st2" points="123.8 174.6 86.3 174.6 61.4 149.7"/>
    <path class="st1" d="M123.8,172.6c1.1,0,2,.9,2,2s-.9,2-2,2-2-.9-2-2,.9-2,2-2Z"/>
    <path class="st1" d="M62.8,148.3c-.8-.8-2.1-.8-2.9,0s-.8,2.1,0,2.9c.8.8,2.1.8,2.9,0,.8-.8.8-2.1,0-2.9Z"/>
  </g>
  <g>
    <polyline class="st2" points="461.7 237.8 475.4 251.5 532.8 251.5"/>
    <path class="st1" d="M460.2,239.2c-.8-.8-.8-2.1,0-2.9s2.1-.8,2.9,0c.8.8.8,2.1,0,2.9-.8.8-2.1.8-2.9,0Z"/>
    <path class="st1" d="M532.8,253.6c1.1,0,2-.9,2-2s-.9-2-2-2-2,.9-2,2,.9,2,2,2Z"/>
  </g>
  <g>
    <polyline class="st2" points="379.7 224.8 390 214.5 445.4 214.5"/>
    <circle class="st1" cx="379.7" cy="224.8" r="2"/>
    <circle class="st1" cx="445.4" cy="214.5" r="2"/>
  </g>
  <g>
    <polyline class="st2" points="388.7 206.3 534.1 206.3 549.6 221.8 580.7 221.8"/>
    <circle class="st1" cx="388.7" cy="206.3" r="2"/>
    <circle class="st1" cx="580.7" cy="221.8" r="2"/>
  </g>
  <g>
    <polyline class="st2" points="214.9 196.7 250.2 196.7 265.1 211.7"/>
    <path class="st1" d="M214.9,198.8c-1.1,0-2-.9-2-2s.9-2,2-2,2,.9,2,2-.9,2-2,2Z"/>
    <path class="st1" d="M263.7,213.1c.8.8,2.1.8,2.9,0,.8-.8.8-2.1,0-2.9-.8-.8-2.1-.8-2.9,0-.8.8-.8,2.1,0,2.9Z"/>
  </g>
  <g>
    <polyline class="st2" points="351.3 151.2 369.6 169.4 423.1 169.4"/>
    <path class="st1" d="M350,152.7c-.8-.8-.8-2.1,0-2.9s2.1-.8,2.9,0c.8.8.8,2.1,0,2.9-.8.8-2.1.8-2.9,0Z"/>
    <path class="st1" d="M423,171.5c1.1,0,2-.9,2-2s-.9-2-2-2-2,.9-2,2,.9,2,2,2Z"/>
  </g>
  <g>
    <line class="st2" x1="635.3" y1="187.8" x2="709.4" y2="187.8"/>
    <circle class="st1" cx="635.4" cy="187.8" r="2"/>
    <circle class="st1" cx="709.3" cy="187.8" r="2"/>
  </g>
  <g>
    <polyline class="st2" points="183.3 122.4 221.7 122.4 232.4 133.1"/>
    <path class="st1" d="M183.4,124.5c-1.1,0-2-.9-2-2s.9-2,2-2,2,.9,2,2-.9,2-2,2Z"/>
    <path class="st1" d="M230.9,134.4c.8.8,2.1.8,2.9,0,.8-.8.8-2.1,0-2.9s-2.1-.8-2.9,0c-.8.8-.8,2.1,0,2.9Z"/>
  </g>
  <g>
    <line class="st2" x1="183.6" y1="146.8" x2="219.4" y2="146.8"/>
    <path class="st1" d="M183.7,148.9c-1.1,0-2-.9-2-2s.9-2,2-2,2,.9,2,2-.9,2-2,2Z"/>
    <path class="st1" d="M219.3,148.9c1.1,0,2-.9,2-2s-.9-2-2-2-2,.9-2,2,.9,2,2,2Z"/>
  </g>
  <g>
    <line class="st2" x1="183.6" y1="138.8" x2="219.4" y2="138.8"/>
    <path class="st1" d="M183.7,140.8c-1.1,0-2-.9-2-2s.9-2,2-2,2,.9,2,2-.9,2-2,2Z"/>
    <path class="st1" d="M219.3,140.8c1.1,0,2-.9,2-2s-.9-2-2-2-2,.9-2,2,.9,2,2,2Z"/>
  </g>
  <g>
    <polyline class="st2" points="296.6 59.6 236.9 59.6 209.6 32.3 194.9 32.3"/>
    <circle class="st1" cx="296.6" cy="59.6" r="2"/>
    <path class="st1" d="M194.9,30.3c-1.1,0-2,.9-2,2s.9,2,2,2,2-.9,2-2-.9-2-2-2Z"/>
  </g>
  <g>
    <polyline class="st2" points="296.6 67.7 231.5 67.7 204.2 40.4 193.5 40.4"/>
    <circle class="st1" cx="296.6" cy="67.7" r="2"/>
    <path class="st1" d="M193.5,38.4c-1.1,0-2,.9-2,2s.9,2,2,2,2-.9,2-2-.9-2-2-2Z"/>
  </g>
  <g>
    <polyline class="st2" points="296.6 51.5 243.4 51.5 216.1 24.2 165.3 24.2"/>
    <circle class="st1" cx="296.6" cy="51.5" r="2"/>
    <path class="st1" d="M165.3,22.2c-1.1,0-2,.9-2,2s.9,2,2,2,2-.9,2-2-.9-2-2-2Z"/>
  </g>
  <g>
    <line class="st2" x1="83.6" y1="92.9" x2="119.6" y2="92.9"/>
    <path class="st1" d="M83.6,94.9c-1.1,0-2-.9-2-2s.9-2,2-2,2,.9,2,2-.9,2-2,2Z"/>
    <path class="st1" d="M119.6,94.9c1.1,0,2-.9,2-2s-.9-2-2-2-2,.9-2,2,.9,2,2,2Z"/>
  </g>
  <g>
    <line class="st2" x1="83.6" y1="101" x2="119.6" y2="101"/>
    <path class="st1" d="M83.6,103c-1.1,0-2-.9-2-2s.9-2,2-2,2,.9,2,2-.9,2-2,2Z"/>
    <path class="st1" d="M119.6,103c1.1,0,2-.9,2-2s-.9-2-2-2-2,.9-2,2,.9,2,2,2Z"/>
  </g>
  <g>
    <line class="st2" x1="83.6" y1="109" x2="119.6" y2="109"/>
    <path class="st1" d="M83.6,111.1c-1.1,0-2-.9-2-2s.9-2,2-2,2,.9,2,2-.9,2-2,2Z"/>
    <path class="st1" d="M119.6,111.1c1.1,0,2-.9,2-2s-.9-2-2-2-2,.9-2,2,.9,2,2,2Z"/>
  </g>
  <g>
    <polyline class="st2" points="17.8 117.1 71.3 117.1 93.3 139.1 165 139.1"/>
    <path class="st1" d="M17.8,119.1c-1.1,0-2-.9-2-2s.9-2,2-2,2,.9,2,2-.9,2-2,2Z"/>
    <path class="st1" d="M165,141.2c1.1,0,2-.9,2-2s-.9-2-2-2-2,.9-2,2,.9,2,2,2Z"/>
  </g>
  <g>
    <polyline class="st2" points="103.6 16.1 222.4 16.1 242.3 36.1"/>
    <path class="st1" d="M103.6,18.2c-1.1,0-2-.9-2-2s.9-2,2-2,2,.9,2,2-.9,2-2,2Z"/>
    <circle class="st1" cx="242.3" cy="36.1" r="2"/>
  </g>
  <g>
    <polyline class="st2" points="271.2 283 297.3 283 322.3 257 370.4 257"/>
    <path class="st1" d="M271.3,285c-1.1,0-2-.9-2-2s.9-2,2-2,2,.9,2,2-.9,2-2,2Z"/>
    <circle class="st1" cx="370.3" cy="257" r="2"/>
  </g>
  <g>
    <polyline class="st2" points="271.2 275.2 290.8 275.2 317.3 248.7 345.1 248.7"/>
    <path class="st1" d="M271.3,277.2c-1.1,0-2-.9-2-2s.9-2,2-2,2,.9,2,2-.9,2-2,2Z"/>
    <path class="st1" d="M345,250.7c1.1,0,2-.9,2-2s-.9-2-2-2-2,.9-2,2,.9,2,2,2Z"/>
  </g>
  <g>
    <polyline class="st2" points="270.7 291.7 296.2 315 341.9 315 397.5 260.2 440.3 260.2"/>
    <path class="st1" d="M269.4,293.2c-.8-.8-.9-2-.1-2.9s2-.9,2.9-.1c.8.8.9,2,.1,2.9s-2,.9-2.9.1Z"/>
    <path class="st1" d="M440.2,262.3c1.1,0,2-.9,2-2s-.9-2-2-2-2,.9-2,2,.9,2,2,2Z"/>
  </g>
  <g>
    <polyline class="st2" points="317.6 307.1 335.6 307.1 369.8 272.9"/>
    <circle class="st1" cx="317.7" cy="307.1" r="2"/>
    <path class="st1" d="M371.1,274.4c.8-.8.8-2.1,0-2.9-.8-.8-2.1-.8-2.9,0-.8.8-.8,2.1,0,2.9s2.1.8,2.9,0Z"/>
  </g>
  <g>
    <polyline class="st2" points="292.4 298.8 328.8 298.8 348 279.6"/>
    <circle class="st1" cx="292.5" cy="298.8" r="2"/>
    <path class="st1" d="M349.3,281.1c.8-.8.8-2.1,0-2.9s-2.1-.8-2.9,0c-.8.8-.8,2.1,0,2.9.8.8,2.1.8,2.9,0Z"/>
  </g>
  <path class="st1" d="M395.2-21.7h184.4c11.5,0,21,9.4,21,21h0c0,11.5-9.4,21-21,21h-102.3s-9.4,0-9.4,0c-5.8,0-10.5,4.7-10.5,10.5s4.7,10.5,10.5,10.5h9.4s27.6,0,27.6,0c11.5,0,21,9.4,21,21h0c0,11.5-9.4,21-21,21h-86.8s0,0,0,0h-9.4c-5.8,0-10.5,4.7-10.5,10.5s4.7,10.5,10.5,10.5h9.4s1.8,0,1.8,0c11.5,0,21,9.4,21,21h0c0,11.5-9.4,21-21,21h-127.5c-11.5,0-21-9.4-21-21h0c0-11.5,9.4-21,21-21h57.2s0,0,0,0h2.5c5.8,0,10.5-4.7,10.5-10.5,0-5.8-4.7-10.5-10.5-10.5h-2.5s-23.7,0-23.7,0c-11.5,0-21-9.4-21-21h0c0-11.5,9.4-21,21-21h82.9s0,0,0,0h2.5c5.8,0,10.5-4.7,10.5-10.5,0-5.3-4-9.8-9.2-10.4h-134.5c-11.5,0-21-9.4-21-21h0c0-11.5,9.4-21,21-21h52.4s9.4,0,9.4,0h55.3Z"/>
  <g>
    <polyline class="st2" points="439.5 170.1 450 159.6 509 159.6 533 183.7 613.7 183.7"/>
    <path class="st1" d="M440.9,171.5c-.8.8-2.1.8-2.9,0-.8-.8-.8-2.1,0-2.9.8-.8,2.1-.8,2.9,0s.8,2.1,0,2.9Z"/>
    <path class="st1" d="M613.7,185.7c1.1,0,2-.9,2-2s-.9-2-2-2-2,.9-2,2,.9,2,2,2Z"/>
  </g>
  <g>
    <polyline class="st2" points="582.9 175.9 536.3 175.9 512.3 151.8 459.6 151.8"/>
    <circle class="st1" cx="582.9" cy="175.9" r="2"/>
    <path class="st1" d="M459.6,149.8c-1.1,0-2,.9-2,2s.9,2,2,2,2-.9,2-2-.9-2-2-2Z"/>
  </g>
  <g>
    <polyline class="st2" points="665.6 167.4 540.4 167.4 516.3 143.3 480 143.3"/>
    <path class="st1" d="M665.6,165.3c1.1,0,2,.9,2,2s-.9,2-2,2-2-.9-2-2,.9-2,2-2Z"/>
    <circle class="st1" cx="480" cy="143.3" r="2"/>
  </g>
  <g>
    <line class="st2" x1="457" y1="167.7" x2="493" y2="167.7"/>
    <circle class="st1" cx="457" cy="167.7" r="2"/>
    <circle class="st1" cx="493" cy="167.7" r="2"/>
  </g>
  <g>
    <line class="st2" x1="457" y1="175.8" x2="493" y2="175.8"/>
    <circle class="st1" cx="457" cy="175.8" r="2"/>
    <circle class="st1" cx="493" cy="175.8" r="2"/>
  </g>
  <g>
    <line class="st2" x1="457" y1="183.9" x2="493" y2="183.9"/>
    <circle class="st1" cx="457" cy="183.9" r="2"/>
    <circle class="st1" cx="493" cy="183.9" r="2"/>
  </g>
  <g>
    <polyline class="st2" points="530.4 143.7 545.9 159.3 646.2 159.3"/>
    <path class="st1" d="M528.9,145.2c-.8-.8-.8-2.1,0-2.9.8-.8,2.1-.8,2.9,0,.8.8.8,2.1,0,2.9-.8.8-2.1.8-2.9,0Z"/>
    <circle class="st1" cx="646.2" cy="159.3" r="2"/>
  </g>
  <g>
    <polyline class="st2" points="19.7 267.1 89.8 267.1 105.5 282.8"/>
    <path class="st1" d="M19.8,269.1c-1.1,0-2-.9-2-2s.9-2,2-2,2,.9,2,2-.9,2-2,2Z"/>
    <path class="st1" d="M104,284.2c.8.8,2.1.8,2.9,0,.8-.8.8-2.1,0-2.9-.8-.8-2.1-.8-2.9,0-.8.8-.8,2.1,0,2.9Z"/>
  </g>
  <g>
    <polyline class="st2" points="39.9 275.2 85.6 275.2 103.4 293"/>
    <path class="st1" d="M40,277.2c-1.1,0-2-.9-2-2s.9-2,2-2,2,.9,2,2-.9,2-2,2Z"/>
    <path class="st1" d="M101.9,294.4c.8.8,2.1.8,2.9,0,.8-.8.8-2.1,0-2.9-.8-.8-2.1-.8-2.9,0-.8.8-.8,2.1,0,2.9Z"/>
  </g>
  <g>
    <polyline class="st2" points="19.7 291.3 67.9 291.3 74.7 284.5"/>
    <path class="st1" d="M19.8,293.3c-1.1,0-2-.9-2-2s.9-2,2-2,2,.9,2,2-.9,2-2,2Z"/>
    <path class="st1" d="M76.1,286c.8-.8.8-2.1,0-2.9-.8-.8-2.1-.8-2.9,0-.8.8-.8,2.1,0,2.9.8.8,2.1.8,2.9,0Z"/>
  </g>
  <g>
    <polyline class="st2" points="39.9 258.5 66.2 258.5 73.1 251.6"/>
    <path class="st1" d="M40,260.5c-1.1,0-2-.9-2-2s.9-2,2-2,2,.9,2,2-.9,2-2,2Z"/>
    <path class="st1" d="M74.5,253.1c.8-.8.8-2.1,0-2.9s-2.1-.8-2.9,0-.8,2.1,0,2.9c.8.8,2.1.8,2.9,0Z"/>
  </g>
</svg>