<?xml version="1.0" encoding="UTF-8"?>
<svg xmlns="http://www.w3.org/2000/svg" version="1.1" viewBox="0 0 850 300">
  <defs>
    <style>
      .cls-1 {
        opacity: .5;
      }

      .cls-1, .cls-2 {
        fill: #fff;
      }

      .cls-3 {
        fill: none;
        stroke: #fff;
        stroke-miterlimit: 10;
        stroke-width: .5px;
      }
    </style>
  </defs>
  <!-- Generator: Adobe Illustrator 28.7.1, SVG Export Plug-In . SVG Version: 1.2.0 Build 142)  -->
  <g>
    <g id="_レイヤー_1" data-name="レイヤー_1">
      <polygon class="cls-2" points="107.8 118.7 218.3 118.7 230.2 130.6 230.2 130.6 218.3 142.5 154.3 142.5 149 142.5 143 148.4 149 154.4 154.3 154.4 154.3 154.4 240.8 154.4 252.6 166.3 252.6 166.3 240.8 178.2 53.9 178.2 42 166.3 42 166.3 53.9 154.4 115.5 154.4 115.5 154.4 116.9 154.4 122.9 148.4 117.7 142.5 13.2 142.5 1.3 130.7 1.3 130.7 13.2 118.8 76.5 118.8 107.8 118.7"/>
      <polygon class="cls-2" points="496 216.5 391.5 216.5 386.3 210.6 392.3 204.6 393.6 204.6 393.6 204.6 455.3 204.6 467.2 192.7 467.2 192.7 455.3 180.8 268.4 180.8 256.5 192.7 256.5 192.7 268.4 204.6 354.9 204.6 354.9 204.6 360.2 204.6 366.1 210.6 360.2 216.5 354.9 216.5 325.2 216.5 313.3 228.4 313.3 228.4 325.2 240.3 401.4 240.3 406.6 246.2 400.6 252.1 399.2 252.1 399.2 252.1 352.3 252.1 340.4 264 340.4 264 352.3 275.9 365.7 275.9 365.7 275.9 367.1 275.9 373 281.8 367.1 287.8 365.7 287.8 365.7 287.8 313.4 287.8 301.5 299.7 301.5 299.7 313.4 311.6 417.2 311.6 429.1 299.7 417.2 287.8 404.5 287.8 404.5 287.8 399.1 287.8 393.2 281.8 399.1 275.9 404.5 275.9 404.5 275.9 453.6 275.9 465.5 264 465.5 264 453.6 252.1 438 252.1 438 252.1 432.7 252.1 426.8 246.2 432.7 240.2 438 240.2 496 240.2 507.9 228.3 507.9 228.3 496 216.5"/>
      <polyline class="cls-3" points="468 252 480.8 264.9 595.5 264.9 622.3 238.1 711.9 238.1"/>
      <circle class="cls-2" cx="712.7" cy="238.2" r="1.9"/>
      <polyline class="cls-3" points="677.6 247.6 625.9 247.6 599.2 274.3 504.2 274.3"/>
      <polyline class="cls-3" points="769.6 258.4 630.4 258.4 603.7 285.1 562 285.1"/>
      <circle class="cls-2" cx="677.4" cy="247.7" r="1.9"/>
      <line class="cls-3" x1="537.8" y1="254" x2="577.8" y2="254"/>
      <circle class="cls-2" cx="578" cy="254.2" r="1.9"/>
      <circle class="cls-2" cx="539.3" cy="254.2" r="1.9"/>
      <g>
        <line class="cls-3" x1="537.8" y1="243.7" x2="577.8" y2="243.7"/>
        <circle class="cls-2" cx="578" cy="243.9" r="1.9"/>
        <circle class="cls-2" cx="539.3" cy="243.9" r="1.9"/>
      </g>
      <g>
        <line class="cls-3" x1="537.8" y1="232.8" x2="577.8" y2="232.8"/>
        <circle class="cls-2" cx="578" cy="232.9" r="1.9"/>
        <circle class="cls-2" cx="539.3" cy="232.9" r="1.9"/>
      </g>
      <circle class="cls-2" cx="561.7" cy="285" r="1.9"/>
      <circle class="cls-2" cx="769.6" cy="258.3" r="2.9"/>
      <polyline class="cls-3" points="492.9 173.9 502.6 183.6 571.2 183.6 592.8 205.1 681.5 205.1"/>
      <polyline class="cls-3" points="635.2 215.1 587.2 215.1 565.6 193.5 480.6 193.5 469.7 204.3"/>
      <polyline class="cls-3" points="236 228.5 300.5 228.5 312.6 240.5"/>
      <polyline class="cls-3" points="618.2 286.8 635.5 269.6 747 269.6"/>
      <polyline class="cls-3" points="498.6 161.1 510 172.6 596.3 172.6"/>
      <circle class="cls-2" cx="746.4" cy="269.5" r="1.9"/>
      <circle class="cls-2" cx="618.3" cy="286.6" r="1.9"/>
      <circle class="cls-2" cx="498.4" cy="161.2" r="1.9"/>
      <circle class="cls-2" cx="596.8" cy="172.6" r="1.9"/>
      <circle class="cls-2" cx="492.9" cy="174" r="1.9"/>
      <circle class="cls-2" cx="681.7" cy="205.1" r="1.9"/>
      <circle class="cls-2" cx="635" cy="215.2" r="1.9"/>
      <circle class="cls-2" cx="504.1" cy="274.3" r="1.9"/>
      <circle class="cls-2" cx="469.7" cy="204.4" r="1.9"/>
      <g>
        <rect class="cls-2" x="558" y="158.9" width="4.6" height="4.6"/>
        <rect class="cls-2" x="566.6" y="158.9" width="4.6" height="4.6"/>
        <rect class="cls-2" x="575.2" y="158.9" width="4.6" height="4.6"/>
        <rect class="cls-2" x="583.7" y="158.9" width="4.6" height="4.6"/>
        <rect class="cls-2" x="592.3" y="158.9" width="4.6" height="4.6"/>
      </g>
      <g>
        <rect class="cls-2" x="406.4" y="23.9" width="4.6" height="4.6"/>
        <rect class="cls-2" x="415" y="23.9" width="4.6" height="4.6"/>
        <rect class="cls-2" x="423.5" y="23.9" width="4.6" height="4.6"/>
        <rect class="cls-2" x="432.1" y="23.9" width="4.6" height="4.6"/>
        <rect class="cls-2" x="440.7" y="23.9" width="4.6" height="4.6"/>
      </g>
      <circle class="cls-2" cx="468.1" cy="251.9" r="1.9"/>
      <circle class="cls-2" cx="312.2" cy="240.4" r="1.9"/>
      <circle class="cls-2" cx="235.5" cy="228.4" r="1.9"/>
      <polyline class="cls-3" points="253.2 204.2 240.5 191.1 147.3 191.1"/>
      <circle class="cls-2" cx="260.3" cy="168.7" r="1.9"/>
      <circle class="cls-2" cx="147" cy="191.1" r="1.9"/>
      <polyline class="cls-3" points="292.1 218.8 208.8 218.8 182.4 245.2 89.6 245.2"/>
      <circle class="cls-2" cx="292.2" cy="218.8" r="1.9"/>
      <circle class="cls-2" cx="89" cy="245.2" r="2.9"/>
      <polyline class="cls-3" points="339.9 276.1 328.5 264.7 245.9 264.7 235.5 275 176.7 275"/>
      <circle class="cls-2" cx="176.5" cy="274.9" r="1.9"/>
      <circle class="cls-2" cx="321.9" cy="156.4" r="1.9"/>
      <polyline class="cls-3" points="543.9 122 458.1 122 423.7 156.5 322.8 156.5"/>
      <polyline class="cls-3" points="476.9 138.5 460 138.5 429.7 168.8 260.3 168.8"/>
      <circle class="cls-2" cx="253.2" cy="204.2" r="1.9"/>
      <circle class="cls-2" cx="340.1" cy="276.2" r="1.9"/>
      <circle class="cls-2" cx="544.2" cy="121.8" r="1.9"/>
      <g>
        <circle class="cls-2" cx="679" cy="161.7" r="1.9"/>
        <circle class="cls-2" cx="660" cy="89" r="1.9"/>
        <circle class="cls-2" cx="789.4" cy="154.4" r="1.9"/>
        <circle class="cls-2" cx="789.4" cy="166.2" r="1.9"/>
        <circle class="cls-2" cx="738.5" cy="204.6" r="1.9"/>
        <g>
          <line class="cls-3" x1="697.3" y1="204.8" x2="722.3" y2="204.8"/>
          <circle class="cls-2" cx="722.4" cy="205" r="1.9"/>
          <circle class="cls-2" cx="698.8" cy="205" r="1.9"/>
          <g>
            <line class="cls-3" x1="697.3" y1="194.6" x2="722.3" y2="194.6"/>
            <circle class="cls-2" cx="722.4" cy="194.8" r="1.9"/>
            <circle class="cls-2" cx="698.8" cy="194.8" r="1.9"/>
          </g>
          <g>
            <line class="cls-3" x1="697.3" y1="183.6" x2="722.3" y2="183.6"/>
            <circle class="cls-2" cx="722.4" cy="183.8" r="1.9"/>
            <circle class="cls-2" cx="698.8" cy="183.8" r="1.9"/>
          </g>
        </g>
        <polyline class="cls-3" points="789.6 131.4 761.2 131.4 730.9 161.7 680.6 161.7"/>
        <polyline class="cls-3" points="823.5 142 765.2 142 734.9 172.3 618.1 172.3"/>
        <polyline class="cls-3" points="789 154.4 768.8 154.4 738.6 184.7 738.6 204.7"/>
        <polyline class="cls-3" points="839.2 154 826.9 166.3 789.7 166.3"/>
        <circle class="cls-2" cx="839" cy="154.5" r="1.9"/>
        <circle class="cls-2" cx="823.4" cy="141.9" r="1.9"/>
        <circle class="cls-2" cx="791.4" cy="130.9" r="1.9"/>
        <circle class="cls-2" cx="617.9" cy="172.4" r="1.9"/>
      </g>
      <circle class="cls-2" cx="544.2" cy="39.4" r="1.9"/>
      <circle class="cls-2" cx="544.2" cy="93.6" r="1.9"/>
      <circle class="cls-2" cx="479.8" cy="106.9" r="1.9"/>
      <circle class="cls-2" cx="470.7" cy="82.2" r="1.9"/>
      <circle class="cls-2" cx="679.5" cy="23.1" r="1.9"/>
      <circle class="cls-2" cx="679.5" cy="9.1" r="1.9"/>
      <circle class="cls-2" cx="679.5" cy="36.9" r="1.9"/>
      <circle class="cls-2" cx="628.6" cy="73.3" r="1.9"/>
      <g>
        <line class="cls-3" x1="587.4" y1="73.5" x2="612.4" y2="73.5"/>
        <circle class="cls-2" cx="612.6" cy="73.7" r="1.9"/>
        <circle class="cls-2" cx="589" cy="73.7" r="1.9"/>
        <g>
          <line class="cls-3" x1="587.4" y1="63.3" x2="612.4" y2="63.3"/>
          <circle class="cls-2" cx="612.6" cy="63.5" r="1.9"/>
          <circle class="cls-2" cx="589" cy="63.5" r="1.9"/>
        </g>
        <g>
          <line class="cls-3" x1="587.4" y1="52.3" x2="612.4" y2="52.3"/>
          <circle class="cls-2" cx="612.6" cy="52.5" r="1.9"/>
          <circle class="cls-2" cx="589" cy="52.5" r="1.9"/>
        </g>
      </g>
      <polyline class="cls-3" points="679.7 9.1 651.4 9.1 621.1 39.4 545.8 39.4"/>
      <polyline class="cls-3" points="535.2 7.6 476.9 7.6 446.6 37.9 329.8 37.9"/>
      <polyline class="cls-3" points="679.2 23.1 659 23.1 628.7 53.4 628.7 73.4"/>
      <polyline class="cls-3" points="729.4 24.7 717.1 37 679.8 37"/>
      <circle class="cls-2" cx="729.1" cy="25.2" r="1.9"/>
      <circle class="cls-2" cx="535.1" cy="7.6" r="1.9"/>
      <circle class="cls-2" cx="544.1" cy="19.6" r="1.9"/>
      <circle class="cls-2" cx="471.4" cy="34.7" r="1.9"/>
      <circle class="cls-2" cx="329.6" cy="38" r="1.9"/>
      <circle class="cls-2" cx="477" cy="138.8" r="1.9"/>
      <polyline class="cls-3" points="234.9 60.5 191.7 60.5 161.4 90.8 60.5 90.8"/>
      <polyline class="cls-3" points="234.9 45.5 191.7 45.5 161.4 75.7 60.5 75.7"/>
      <polyline class="cls-3" points="214.6 72.8 197.7 72.8 167.4 103.1 72 103.1"/>
      <circle class="cls-2" cx="234.5" cy="60.5" r="1.9"/>
      <circle class="cls-2" cx="234.5" cy="88.6" r="1.9"/>
      <circle class="cls-2" cx="234.5" cy="45.5" r="1.9"/>
      <circle class="cls-2" cx="214.8" cy="73.1" r="1.9"/>
      <polyline class="cls-2" points="359.2 48.1 353.9 48.1 324.2 48.1 312.3 59.9 312.3 59.9 324.2 71.8 400.4 71.8 405.6 77.7 399.6 83.7 398.2 83.7 398.2 83.7 351.2 83.7 339.3 95.6 339.3 95.6 351.2 107.5 364.7 107.5 364.7 107.5 366.1 107.5 372 113.4 366.1 119.3 364.7 119.3 364.7 119.3 312.4 119.3 300.5 131.2 300.5 131.2 312.4 143.1 416.2 143.1 428.1 131.2 416.2 119.3 403.4 119.3 403.4 119.3 398.1 119.3 392.2 113.4 398.1 107.5 403.4 107.5 403.4 107.5 452.6 107.5 464.5 95.6 464.5 95.6 452.6 83.7 437 83.7 437 83.7 431.7 83.7 425.7 77.7 431.7 71.8 437 71.8 495 71.8 506.9 59.9 506.9 59.9 495 48 390.5 48"/>
      <polyline class="cls-3" points="471.5 34.5 486.7 19.3 543.5 19.3"/>
      <polyline class="cls-3" points="471.1 82.5 482.5 93.9 544 93.9"/>
      <polyline class="cls-3" points="481.1 107 642.6 107 659.8 89.8"/>
      <circle class="cls-2" cx="299.9" cy="278.6" r="1.9"/>
      <polyline class="cls-3" points="173.6 104.9 218.5 104.9 235.1 88.3"/>
      <path class="cls-1" d="M291.8,46.8h-31.6c-6.5,0-11.8,5.3-11.8,11.8v31.6c0,7.7,7.3,13.4,14.8,11.4,19.5-5.2,34.8-20.6,40.1-40.1,2-7.5-3.7-14.8-11.4-14.8ZM281.3,50.1c.9,0,1.7.7,1.7,1.7s-.4,1.3-1,1.5v3.2l-21.5,21.5c0,.2.1.4.1.6,0,.9-.7,1.7-1.7,1.7s-1.7-.7-1.7-1.7.7-1.7,1.7-1.7.5,0,.7.2l21.1-21.1v-2.7c-.6-.3-1-.8-1-1.5s.7-1.7,1.7-1.7ZM253.8,56.6c.8,0,1.4.5,1.6,1.2h10c.2-.7.8-1.2,1.6-1.2s1.7.7,1.7,1.7-.7,1.7-1.7,1.7-1.2-.3-1.4-.9h-10.3c-.3.5-.8.9-1.4.9-.9,0-1.7-.7-1.7-1.7s.7-1.7,1.7-1.7ZM253.8,63c.8,0,1.4.5,1.6,1.2h10c.2-.7.8-1.2,1.6-1.2s1.7.7,1.7,1.7-.7,1.7-1.7,1.7-1.2-.3-1.4-.9h-10.3c-.3.5-.8.9-1.4.9-.9,0-1.7-.7-1.7-1.7s.7-1.7,1.7-1.7ZM253.8,82.8c.7,0,1.3.5,1.6,1.1h5.8l24.6-24.6c-.1-.2-.2-.5-.2-.7,0-.9.7-1.7,1.7-1.7s1.7.7,1.7,1.7-.7,1.7-1.7,1.7-.4,0-.5,0l-25,25h-6.3c-.3.6-.8,1-1.5,1s-1.7-.7-1.7-1.7.7-1.7,1.7-1.7ZM275.1,90.6l-2.2-2.2,2.2-2.2,2.2,2.2-2.2,2.2ZM279.2,86.4l-2.2-2.2,2.2-2.2,2.2,2.2-2.2,2.2ZM283.3,82.3l-2.2-2.2,2.2-2.2,2.2,2.2-2.2,2.2ZM287.5,78.2l-2.2-2.2,2.2-2.2,2.2,2.2-2.2,2.2ZM291.6,74l-2.2-2.2,2.2-2.2,2.2,2.2-2.2,2.2ZM293.8,53.3v8.1l-29.7,29.7h-8.9c-.3.5-.8.9-1.5.9-.9,0-1.7-.7-1.7-1.7s.7-1.7,1.7-1.7,1.4.5,1.6,1.2h8.2l29-29v-7.6c-.6-.2-1.1-.8-1.1-1.5s.7-1.7,1.7-1.7,1.7.7,1.7,1.7-.4,1.2-1,1.5Z"/>
      <path class="cls-1" d="M799.8,181.8h-31.6c-6.5,0-11.8,5.3-11.8,11.8v31.6c0,7.7,7.3,13.4,14.8,11.4,19.5-5.2,34.8-20.6,40.1-40.1,2-7.5-3.7-14.8-11.4-14.8ZM789.3,185.1c.9,0,1.7.7,1.7,1.7s-.4,1.3-1,1.5v3.2l-21.5,21.5c0,.2.1.4.1.6,0,.9-.7,1.7-1.7,1.7s-1.7-.7-1.7-1.7.7-1.7,1.7-1.7.5,0,.7.2l21.1-21.1v-2.7c-.6-.3-1-.8-1-1.5s.7-1.7,1.7-1.7ZM761.8,191.6c.8,0,1.4.5,1.6,1.2h10c.2-.7.8-1.2,1.6-1.2s1.7.7,1.7,1.7-.7,1.7-1.7,1.7-1.2-.3-1.4-.9h-10.3c-.3.5-.8.9-1.4.9-.9,0-1.7-.7-1.7-1.7s.7-1.7,1.7-1.7ZM761.8,198c.8,0,1.4.5,1.6,1.2h10c.2-.7.8-1.2,1.6-1.2s1.7.7,1.7,1.7-.7,1.7-1.7,1.7-1.2-.3-1.4-.9h-10.3c-.3.5-.8.9-1.4.9-.9,0-1.7-.7-1.7-1.7s.7-1.7,1.7-1.7ZM761.8,217.8c.7,0,1.3.5,1.6,1.1h5.8l24.6-24.6c-.1-.2-.2-.5-.2-.7,0-.9.7-1.7,1.7-1.7s1.7.7,1.7,1.7-.7,1.7-1.7,1.7-.4,0-.5,0l-25,25h-6.3c-.3.6-.8,1-1.5,1s-1.7-.7-1.7-1.7.7-1.7,1.7-1.7ZM783.1,225.6l-2.2-2.2,2.2-2.2,2.2,2.2-2.2,2.2ZM787.2,221.4l-2.2-2.2,2.2-2.2,2.2,2.2-2.2,2.2ZM791.4,217.3l-2.2-2.2,2.2-2.2,2.2,2.2-2.2,2.2ZM795.5,213.2l-2.2-2.2,2.2-2.2,2.2,2.2-2.2,2.2ZM799.6,209.1l-2.2-2.2,2.2-2.2,2.2,2.2-2.2,2.2ZM801.8,188.3v8.1l-29.7,29.7h-8.9c-.3.5-.8.9-1.5.9-.9,0-1.7-.7-1.7-1.7s.7-1.7,1.7-1.7,1.4.5,1.6,1.2h8.2l29-29v-7.6c-.6-.2-1.1-.8-1.1-1.5s.7-1.7,1.7-1.7,1.7.7,1.7,1.7-.4,1.2-1,1.5Z"/>
      <polyline class="cls-3" points="300.3 278.8 291.9 287.2 176.2 287.2"/>
    </g>
  </g>
</svg>