<?xml version="1.0" encoding="UTF-8"?>
<svg id="_レイヤー_1" xmlns="http://www.w3.org/2000/svg" version="1.1" viewBox="0 0 800 330">
  <!-- Generator: Adobe Illustrator 29.0.1, SVG Export Plug-In . SVG Version: 2.1.0 Build 192)  -->
  <defs>
    <style>
      .st0, .st1 {
        fill: none;
      }

      .st2, .st3 {
        fill: #fff;
      }

      .st1 {
        stroke: #fff;
        stroke-miterlimit: 10;
        stroke-width: .6px;
      }

      .st3 {
        opacity: .5;
      }

      .hero__sijimi {
        animation: shake 3s ease-in-out infinite; /* 0.3秒で震えるアニメーションを無限ループ */
        animation-delay: 3.5s;
      }

      .hero__sijimi--01 {
        animation-delay: 4.5s;
      }

      .hero__sijimi--02 {
        animation-delay: 5.5s;
      }

      @keyframes shake {
        0%, 100%, 20% {
          transform: translateX(0);
          opacity: 0.5;
        }
        5% {
          transform: translateX(-3px);
          opacity: 0.8;
        }
        10% {
          transform: translateX(3px);
          opacity: 0.3;
        }
        15% {
          opacity: 0.5;
          transform: translateX(-3px);
        }
      }

    </style>
  </defs>
  <g>
    <polyline class="st1" points="480.7 90.2 435.6 90.2 419.8 106.1 376.8 106.1"/>
    <path class="st2" d="M480.6,88.2c1.1,0,2,.9,2,2s-.9,2-2,2-2-.9-2-2,.9-2,2-2Z"/>
    <path class="st2" d="M376.9,104c-1.1,0-2,.9-2,2s.9,2,2,2,2-.9,2-2-.9-2-2-2Z"/>
  </g>
  <g>
    <polyline class="st1" points="457.9 181 465.2 188.4 569.3 188.4 595 161.6 611.7 161.6 622.4 150.9 622.4 135"/>
    <path class="st2" d="M456.5,182.5c-.8-.8-.8-2.1,0-2.9.8-.8,2.1-.8,2.9,0s.8,2.1,0,2.9-2.1.8-2.9,0Z"/>
    <path class="st2" d="M624.4,135.1c0-1.1-.9-2-2-2s-2,.9-2,2,.9,2,2,2,2-.9,2-2Z"/>
  </g>
  <g>
    <polyline class="st1" points="600.5 170.2 574.7 196.1 513.9 196.1 482.5 230.6 470.5 230.6"/>
    <path class="st2" d="M599,168.9c.8-.8,2.1-.8,2.9,0,.8.8.8,2.1,0,2.9-.8.8-2.1.8-2.9,0-.8-.8-.8-2.1,0-2.9Z"/>
    <path class="st2" d="M470.6,228.6c-1.1,0-2,.9-2,2s.9,2,2,2,2-.9,2-2-.9-2-2-2Z"/>
  </g>
  <g>
    <polyline class="st1" points="622 185.9 600.2 185.9 581.3 204.8 541.5 204.8"/>
    <circle class="st2" cx="621.9" cy="185.9" r="2"/>
    <path class="st2" d="M541.6,202.8c-1.1,0-2,.9-2,2s.9,2,2,2,2-.9,2-2-.9-2-2-2Z"/>
  </g>
  <g>
    <line class="st1" x1="513.5" y1="180.3" x2="549.7" y2="180.3"/>
    <path class="st2" d="M513.6,182.3c-1.1,0-2-.9-2-2s.9-2,2-2,2,.9,2,2-.9,2-2,2Z"/>
    <circle class="st2" cx="549.6" cy="180.3" r="2"/>
  </g>
  <g>
    <line class="st1" x1="513.5" y1="172.1" x2="549.7" y2="172.1"/>
    <path class="st2" d="M513.6,174.2c-1.1,0-2-.9-2-2s.9-2,2-2,2,.9,2,2-.9,2-2,2Z"/>
    <circle class="st2" cx="549.6" cy="172.1" r="2"/>
  </g>
  <g>
    <line class="st1" x1="513.5" y1="163.9" x2="549.7" y2="163.9"/>
    <path class="st2" d="M513.6,166c-1.1,0-2-.9-2-2s.9-2,2-2,2,.9,2,2-.9,2-2,2Z"/>
    <circle class="st2" cx="549.6" cy="163.9" r="2"/>
  </g>
  <g>
    <line class="st1" x1="78.3" y1="254.1" x2="104.4" y2="254.1"/>
    <path class="st2" d="M78.4,256.1c-1.1,0-2-.9-2-2s.9-2,2-2,2,.9,2,2-.9,2-2,2Z"/>
    <path class="st2" d="M104.3,256.1c1.1,0,2-.9,2-2s-.9-2-2-2-2,.9-2,2,.9,2,2,2Z"/>
  </g>
  <g>
    <line class="st1" x1="78.3" y1="246.1" x2="104.4" y2="246.1"/>
    <path class="st2" d="M78.4,248.1c-1.1,0-2-.9-2-2s.9-2,2-2,2,.9,2,2-.9,2-2,2Z"/>
    <path class="st2" d="M104.3,248.1c1.1,0,2-.9,2-2s-.9-2-2-2-2,.9-2,2,.9,2,2,2Z"/>
  </g>
  <g>
    <line class="st1" x1="78.3" y1="238.1" x2="104.4" y2="238.1"/>
    <path class="st2" d="M78.4,240.1c-1.1,0-2-.9-2-2s.9-2,2-2,2,.9,2,2-.9,2-2,2Z"/>
    <path class="st2" d="M104.3,240.1c1.1,0,2-.9,2-2s-.9-2-2-2-2,.9-2,2,.9,2,2,2Z"/>
  </g>
  <g>
    <polyline class="st1" points="606.3 306 623.3 323.1 675.3 323.1 705.1 293.2 731.9 293.2"/>
    <path class="st2" d="M604.9,307.5c-.8-.8-.8-2.1,0-2.9s2.1-.8,2.9,0c.8.8.8,2.1,0,2.9s-2.1.8-2.9,0Z"/>
    <circle class="st2" cx="731.8" cy="293.2" r="2"/>
  </g>
  <g>
    <polyline class="st1" points="236 176.2 221 191.3 190.1 191.3 159.6 221.7 89.2 221.7"/>
    <path class="st2" d="M234.5,174.8c.8-.8,2.1-.8,2.9,0,.8.8.8,2.1,0,2.9-.8.8-2.1.8-2.9,0-.8-.8-.8-2.1,0-2.9Z"/>
    <path class="st2" d="M89.3,219.7c-1.1,0-2,.9-2,2s.9,2,2,2,2-.9,2-2-.9-2-2-2Z"/>
  </g>
  <g>
    <polyline class="st1" points="221 199.7 196.2 199.7 166 230 53.4 230"/>
    <path class="st2" d="M220.9,197.7c1.1,0,2,.9,2,2s-.9,2-2,2-2-.9-2-2,.9-2,2-2Z"/>
    <path class="st2" d="M53.5,227.9c-1.1,0-2,.9-2,2s.9,2,2,2,2-.9,2-2-.9-2-2-2Z"/>
  </g>
  <path class="st0" d="M196.1,258.4"/>
  <g>
    <polyline class="st1" points="221.8 207.5 203.5 207.5 176.4 234.6"/>
    <path class="st2" d="M221.7,205.5c1.1,0,2,.9,2,2s-.9,2-2,2-2-.9-2-2,.9-2,2-2Z"/>
    <circle class="st2" cx="176.4" cy="234.6" r="2"/>
  </g>
  <g>
    <polyline class="st1" points="227.3 171.5 216.4 182.4 181 182.4"/>
    <path class="st2" d="M225.8,170.1c.8-.8,2.1-.8,2.9,0,.8.8.8,2.1,0,2.9-.8.8-2.1.8-2.9,0-.8-.8-.8-2.1,0-2.9Z"/>
    <path class="st2" d="M181.1,180.4c-1.1,0-2,.9-2,2s.9,2,2,2,2-.9,2-2-.9-2-2-2Z"/>
  </g>
  <g>
    <polyline class="st1" points="273.4 294.7 204.3 294.7 189.1 309.8 82.5 309.8"/>
    <path class="st2" d="M273.3,292.6c1.1,0,2,.9,2,2s-.9,2-2,2-2-.9-2-2,.9-2,2-2Z"/>
    <path class="st2" d="M82.6,307.8c-1.1,0-2,.9-2,2s.9,2,2,2,2-.9,2-2-.9-2-2-2Z"/>
  </g>
  <g>
    <polyline class="st1" points="535.3 262.3 543.6 270.6 612.3 270.6 633.8 292.1 672.7 292.1"/>
    <path class="st2" d="M534,263.8c-.8-.8-.8-2.1,0-2.9s2.1-.8,2.9,0c.8.8.8,2.1,0,2.9s-2.1.8-2.9,0Z"/>
    <path class="st2" d="M672.6,294.2c1.1,0,2-.9,2-2s-.9-2-2-2-2,.9-2,2,.9,2,2,2Z"/>
  </g>
  <g>
    <polyline class="st1" points="674.3 300.3 628.3 300.3 606.7 278.8 521.6 278.8 508.6 291.8"/>
    <circle class="st2" cx="674.2" cy="300.3" r="2"/>
    <path class="st2" d="M507.3,290.3c-.8.8-.8,2.1,0,2.9s2.1.8,2.9,0,.8-2.1,0-2.9-2.1-.8-2.9,0Z"/>
  </g>
  <g>
    <polyline class="st1" points="572.9 286.6 601.8 286.6 621.9 306.8"/>
    <path class="st2" d="M573,288.7c-1.1,0-2-.9-2-2s.9-2,2-2,2,.9,2,2-.9,2-2,2Z"/>
    <path class="st2" d="M620.4,308.2c.8.8,2.1.8,2.9,0,.8-.8.8-2.1,0-2.9s-2.1-.8-2.9,0c-.8.8-.8,2.1,0,2.9Z"/>
  </g>
  <g>
    <polyline class="st1" points="587.5 213.9 605.7 195.7 724.4 195.7 756.1 227.2 776.1 227.2"/>
    <path class="st2" d="M589,215.3c-.8.8-2.1.8-2.9,0-.8-.8-.8-2.1,0-2.9.8-.8,2.1-.8,2.9,0,.8.8.8,2.1,0,2.9Z"/>
    <path class="st2" d="M776,229.2c1.1,0,2-.9,2-2s-.9-2-2-2-2,.9-2,2,.9,2,2,2Z"/>
  </g>
  <g>
    <polyline class="st1" points="231.3 303.3 210.9 303.3 196.5 317.7 46.8 317.7"/>
    <path class="st2" d="M231.2,301.3c1.1,0,2,.9,2,2s-.9,2-2,2-2-.9-2-2,.9-2,2-2Z"/>
    <path class="st2" d="M46.9,315.7c-1.1,0-2,.9-2,2s.9,2,2,2,2-.9,2-2-.9-2-2-2Z"/>
  </g>
  <g>
    <polyline class="st1" points="541 252.6 551.1 262.7 635.4 262.7"/>
    <path class="st2" d="M539.7,254.1c-.8-.8-.8-2.1,0-2.9.8-.8,2.1-.8,2.9,0,.8.8.8,2.1,0,2.9-.8.8-2.1.8-2.9,0Z"/>
    <path class="st2" d="M635.3,264.7c1.1,0,2-.9,2-2s-.9-2-2-2-2,.9-2,2,.9,2,2,2Z"/>
  </g>
  <g>
    <rect class="st2" x="541.1" y="128.8" width="4.6" height="4.6"/>
    <rect class="st2" x="549.7" y="128.8" width="4.6" height="4.6"/>
    <rect class="st2" x="558.2" y="128.8" width="4.6" height="4.6"/>
    <rect class="st2" x="566.8" y="128.8" width="4.6" height="4.6"/>
    <rect class="st2" x="575.4" y="128.8" width="4.6" height="4.6"/>
  </g>
  <g>
    <polyline class="st1" points="579.1 11.6 566.2 24.5 476.2 24.5 443.2 57.6 378.8 57.6"/>
    <path class="st2" d="M577.6,10.3c.8-.8,2.1-.8,2.9,0,.8.8.8,2.1,0,2.9-.8.8-2.1.8-2.9,0-.8-.8-.8-2.1,0-2.9Z"/>
    <path class="st2" d="M378.9,55.5c-1.1,0-2,.9-2,2s.9,2,2,2,2-.9,2-2-.9-2-2-2Z"/>
  </g>
  <g>
    <polyline class="st1" points="537.5 33.1 481.1 33.1 448.6 65.7 317.7 65.7"/>
    <circle class="st2" cx="537.4" cy="33.1" r="2"/>
    <path class="st2" d="M317.8,63.7c-1.1,0-2,.9-2,2s.9,2,2,2,2-.9,2-2-.9-2-2-2Z"/>
  </g>
  <g>
    <polyline class="st1" points="505.1 40.8 487.5 40.8 454.5 73.9 379.6 73.9"/>
    <path class="st2" d="M505,38.8c1.1,0,2,.9,2,2s-.9,2-2,2-2-.9-2-2,.9-2,2-2Z"/>
    <circle class="st2" cx="379.7" cy="73.9" r="2"/>
  </g>
  <g>
    <polyline class="st1" points="542.9 44.5 530.4 57.1 495 57.1"/>
    <path class="st2" d="M541.4,43.2c.8-.8,2.1-.8,2.9,0,.8.8.8,2.1,0,2.9-.8.8-2.1.8-2.9,0-.8-.8-.8-2.1,0-2.9Z"/>
    <path class="st2" d="M495.1,55c-1.1,0-2,.9-2,2s.9,2,2,2,2-.9,2-2-.9-2-2-2Z"/>
  </g>
  <g>
    <polyline class="st1" points="155.6 105.9 249.2 105.9 265.2 90 291 90"/>
    <path class="st2" d="M155.7,108c-1.1,0-2-.9-2-2s.9-2,2-2,2,.9,2,2-.9,2-2,2Z"/>
    <path class="st2" d="M290.9,92c1.1,0,2-.9,2-2s-.9-2-2-2-2,.9-2,2,.9,2,2,2Z"/>
  </g>
  <g>
    <polyline class="st1" points="175 155.1 163.5 166.6 89.3 166.6"/>
    <path class="st2" d="M173.5,153.7c.8-.8,2.1-.8,2.9,0s.8,2.1,0,2.9c-.8.8-2.1.8-2.9,0s-.8-2.1,0-2.9Z"/>
    <path class="st2" d="M89.4,164.5c-1.1,0-2,.9-2,2s.9,2,2,2,2-.9,2-2-.9-2-2-2Z"/>
  </g>
  <g>
    <polyline class="st1" points="161.6 174.6 112.4 174.6 91.5 195.5 53.4 195.5"/>
    <path class="st2" d="M161.5,172.6c1.1,0,2,.9,2,2s-.9,2-2,2-2-.9-2-2,.9-2,2-2Z"/>
    <path class="st2" d="M53.5,193.5c-1.1,0-2,.9-2,2s.9,2,2,2,2-.9,2-2-.9-2-2-2Z"/>
  </g>
  <g>
    <line class="st1" x1="161.5" y1="182.6" x2="124" y2="182.6"/>
    <path class="st2" d="M161.4,180.6c1.1,0,2,.9,2,2s-.9,2-2,2-2-.9-2-2,.9-2,2-2Z"/>
    <path class="st2" d="M124.1,180.6c-1.1,0-2,.9-2,2s.9,2,2,2,2-.9,2-2-.9-2-2-2Z"/>
  </g>
  <path class="st3 hero__sijimi hero__sijimi--00" d="M294.6,121.4h-28.5c-5.9,0-10.6,4.8-10.6,10.6v28.5c0,6.9,6.6,12.1,13.4,10.3,17.6-4.7,31.4-18.6,36.2-36.2,1.8-6.8-3.3-13.4-10.3-13.4h0ZM285.1,124.4c.8,0,1.5.6,1.5,1.5s-.4,1.2-.9,1.4v2.9l-19.4,19.4c0,.2,0,.4,0,.5,0,.8-.6,1.5-1.5,1.5s-1.5-.6-1.5-1.5.6-1.5,1.5-1.5.5,0,.6.2l19-19v-2.4c-.5-.3-.9-.7-.9-1.4s.6-1.5,1.5-1.5h0ZM260.3,130.2c.7,0,1.3.5,1.4,1.1h9c.2-.6.7-1.1,1.4-1.1s1.5.6,1.5,1.5-.6,1.5-1.5,1.5-1.1-.3-1.3-.8h-9.3c-.3.5-.7.8-1.3.8-.8,0-1.5-.6-1.5-1.5s.6-1.5,1.5-1.5h0ZM260.3,136c.7,0,1.3.5,1.4,1.1h9c.2-.6.7-1.1,1.4-1.1s1.5.6,1.5,1.5-.6,1.5-1.5,1.5-1.1-.3-1.3-.8h-9.3c-.3.5-.7.8-1.3.8-.8,0-1.5-.6-1.5-1.5s.6-1.5,1.5-1.5h0ZM260.3,154c.6,0,1.2.5,1.4,1h5.2l22.2-22.2c0-.2-.2-.5-.2-.6,0-.8.6-1.5,1.5-1.5s1.5.6,1.5,1.5-.6,1.5-1.5,1.5-.4,0-.5,0l-22.6,22.6h-5.7c-.3.5-.7.9-1.4.9s-1.5-.6-1.5-1.5.6-1.5,1.5-1.5h-.2ZM279.5,160.9l-2-2,2-2,2,2-2,2ZM283.2,157.2l-2-2,2-2,2,2-2,2ZM286.9,153.4l-2-2,2-2,2,2-2,2ZM290.7,149.7l-2-2,2-2,2,2-2,2ZM294.4,146l-2-2,2-2,2,2-2,2ZM296.4,127.3v7.3l-26.8,26.8h-8c-.3.5-.7.8-1.4.8s-1.5-.6-1.5-1.5.6-1.5,1.5-1.5,1.3.5,1.4,1.1h7.4l26.2-26.2v-6.9c-.5-.2-1-.7-1-1.4s.6-1.5,1.5-1.5,1.5.6,1.5,1.5-.4,1.1-.9,1.4h0Z"/>
  <path class="st3 hero__sijimi hero__sijimi--01" d="M674.2,134h-28.5c-5.9,0-10.6,4.8-10.6,10.6v28.5c0,6.9,6.6,12.1,13.4,10.3,17.6-4.7,31.4-18.6,36.2-36.2,1.8-6.8-3.3-13.4-10.3-13.4h0ZM664.7,137c.8,0,1.5.6,1.5,1.5s-.4,1.2-.9,1.4v2.9l-19.4,19.4c0,.2,0,.4,0,.5,0,.8-.6,1.5-1.5,1.5s-1.5-.6-1.5-1.5.6-1.5,1.5-1.5.5,0,.6.2l19-19v-2.4c-.5-.3-.9-.7-.9-1.4s.6-1.5,1.5-1.5h0ZM639.9,142.8c.7,0,1.3.5,1.4,1.1h9c.2-.6.7-1.1,1.4-1.1s1.5.6,1.5,1.5-.6,1.5-1.5,1.5-1.1-.3-1.3-.8h-9.3c-.3.5-.7.8-1.3.8-.8,0-1.5-.6-1.5-1.5s.6-1.5,1.5-1.5h0ZM639.9,148.6c.7,0,1.3.5,1.4,1.1h9c.2-.6.7-1.1,1.4-1.1s1.5.6,1.5,1.5-.6,1.5-1.5,1.5-1.1-.3-1.3-.8h-9.3c-.3.5-.7.8-1.3.8-.8,0-1.5-.6-1.5-1.5s.6-1.5,1.5-1.5h0ZM639.9,166.5c.6,0,1.2.5,1.4,1h5.2l22.2-22.2c0-.2-.2-.5-.2-.6,0-.8.6-1.5,1.5-1.5s1.5.6,1.5,1.5-.6,1.5-1.5,1.5-.4,0-.5,0l-22.6,22.6h-5.7c-.3.5-.7.9-1.4.9s-1.5-.6-1.5-1.5.6-1.5,1.5-1.5h-.2ZM659.1,173.5l-2-2,2-2,2,2-2,2ZM662.8,169.7l-2-2,2-2,2,2-2,2ZM666.5,166l-2-2,2-2,2,2-2,2ZM670.3,162.3l-2-2,2-2,2,2-2,2ZM674,158.5l-2-2,2-2,2,2-2,2ZM676,139.9v7.3l-26.8,26.8h-8c-.3.5-.7.8-1.4.8s-1.5-.6-1.5-1.5.6-1.5,1.5-1.5,1.3.5,1.4,1.1h7.4l26.2-26.2v-6.9c-.5-.2-1-.7-1-1.4s.6-1.5,1.5-1.5,1.5.6,1.5,1.5-.4,1.1-.9,1.4h0Z"/>
  <path class="st3 hero__sijimi hero__sijimi--02" d="M156.2,245.1h-28.5c-5.9,0-10.6,4.8-10.6,10.6v28.5c0,6.9,6.6,12.1,13.4,10.3,17.6-4.7,31.4-18.6,36.2-36.2,1.8-6.8-3.3-13.4-10.3-13.4h0ZM146.7,248.2c.8,0,1.5.6,1.5,1.5s-.4,1.2-.9,1.4v2.9l-19.4,19.4c0,.2,0,.4,0,.5,0,.8-.6,1.5-1.5,1.5s-1.5-.6-1.5-1.5.6-1.5,1.5-1.5.5,0,.6.2l19-19v-2.4c-.5-.3-.9-.7-.9-1.4s.6-1.5,1.5-1.5h0ZM121.9,254c.7,0,1.3.5,1.4,1.1h9c.2-.6.7-1.1,1.4-1.1s1.5.6,1.5,1.5-.6,1.5-1.5,1.5-1.1-.3-1.3-.8h-9.3c-.3.5-.7.8-1.3.8-.8,0-1.5-.6-1.5-1.5s.6-1.5,1.5-1.5h0ZM121.9,259.7c.7,0,1.3.5,1.4,1.1h9c.2-.6.7-1.1,1.4-1.1s1.5.6,1.5,1.5-.6,1.5-1.5,1.5-1.1-.3-1.3-.8h-9.3c-.3.5-.7.8-1.3.8-.8,0-1.5-.6-1.5-1.5s.6-1.5,1.5-1.5h0ZM121.9,277.7c.6,0,1.2.5,1.4,1h5.2l22.2-22.2c0-.2-.2-.5-.2-.6,0-.8.6-1.5,1.5-1.5s1.5.6,1.5,1.5-.6,1.5-1.5,1.5-.4,0-.5,0l-22.6,22.6h-5.7c-.3.5-.7.9-1.4.9s-1.5-.6-1.5-1.5.6-1.5,1.5-1.5h-.2ZM141.1,284.6l-2-2,2-2,2,2-2,2ZM144.8,280.9l-2-2,2-2,2,2-2,2ZM148.5,277.2l-2-2,2-2,2,2-2,2ZM152.3,273.5l-2-2,2-2,2,2-2,2ZM156,269.7l-2-2,2-2,2,2-2,2ZM158,251v7.3l-26.8,26.8h-8c-.3.5-.7.8-1.4.8s-1.5-.6-1.5-1.5.6-1.5,1.5-1.5,1.3.5,1.4,1.1h7.4l26.2-26.2v-6.9c-.5-.2-1-.7-1-1.4s.6-1.5,1.5-1.5,1.5.6,1.5,1.5-.4,1.1-.9,1.4h0Z"/>
  <g>
    <polyline class="st1" points="195.2 118.1 203.9 126.8 227.8 126.8"/>
    <path class="st2" d="M193.8,119.6c-.8-.8-.8-2.1,0-2.9s2.1-.8,2.9,0,.8,2.1,0,2.9-2.1.8-2.9,0Z"/>
    <path class="st2" d="M227.6,128.8c1.1,0,2-.9,2-2s-.9-2-2-2-2,.9-2,2,.9,2,2,2Z"/>
  </g>
  <path class="st2" d="M200.2,287.1h161c5.2.7,9.3,5.1,9.3,10.5s-4.7,10.6-10.6,10.6h-112.5c-11.7,0-21.2,9.5-21.2,21.2h0c0,11.7,9.5,21.2,21.2,21.2h333.4c11.7,0,21.2-9.5,21.2-21.2h0c0-11.7-9.5-21.2-21.2-21.2h-163.7c-5.9,0-10.6-4.7-10.6-10.6s4.7-10.6,10.6-10.6h62.4c11.7,0,21.2-9.5,21.2-21.2h0c0-11.7-9.5-21.2-21.2-21.2h-135.9c-5.2-.7-9.3-5.1-9.3-10.5s4.7-10.6,10.6-10.6h86.3c11.7,0,21.2-9.5,21.2-21.2h0c0-11.7-9.5-21.2-21.2-21.2h-26.5c-5.9,0-10.6-4.7-10.6-10.6s4.7-10.6,10.6-10.6h60.3c11.7,0,21.2-9.5,21.2-21.2h0c0-11.7-9.5-21.2-21.2-21.2h-128.9c-11.7,0-21.2,9.5-21.2,21.2h0c0,11.7,9.5,21.2,21.2,21.2h11.4c5.9,0,10.6,4.7,10.6,10.6s-4.7,10.6-10.6,10.6h-97.2c-11.7,0-21.2,9.5-21.2,21.2h0c0,11.7,9.5,21.2,21.2,21.2h37.4c5.9,0,10.6,4.7,10.6,10.6s-4.7,10.6-10.6,10.6h-87.5c-11.7,0-21.2,9.5-21.2,21.2h0c0,11.7,9.5,21.2,21.2,21.2h0Z"/>
  <g>
    <polyline class="st1" points="503.2 131.2 528.6 105.8 599.3 105.8 611 117.5 611 134.5"/>
    <path class="st2" d="M504.7,132.5c-.8.8-2.1.8-2.9,0s-.8-2.1,0-2.9c.8-.8,2.1-.8,2.9,0s.8,2.1,0,2.9Z"/>
    <path class="st2" d="M608.9,134.4c0,1.1.9,2,2,2s2-.9,2-2-.9-2-2-2-2,.9-2,2Z"/>
  </g>
  <g>
    <polyline class="st1" points="498.6 124.7 525.1 98.2 546.4 98.2 564.8 79.9 599.3 79.9"/>
    <path class="st2" d="M500.1,126c-.8.8-2.1.8-2.9,0s-.8-2.1,0-2.9,2.1-.8,2.9,0,.8,2.1,0,2.9Z"/>
    <circle class="st2" cx="599.2" cy="79.9" r="2"/>
  </g>
  <g>
    <polyline class="st1" points="726.8 211.1 750.8 235.1 776.1 235.1"/>
    <path class="st2" d="M725.4,212.6c-.8-.8-.8-2.1,0-2.9.8-.8,2.1-.8,2.9,0,.8.8.8,2.1,0,2.9-.8.8-2.1.8-2.9,0Z"/>
    <path class="st2" d="M776,237.2c1.1,0,2-.9,2-2s-.9-2-2-2-2,.9-2,2,.9,2,2,2Z"/>
  </g>
  <path class="st2" d="M766.8,119.1c11.9,0,21.6-9.7,21.6-21.6h0c0-11.9-9.7-21.6-21.6-21.6h-47c-6,0-10.8-4.8-10.8-10.8s4.8-10.8,10.8-10.8h11.5c11.9,0,21.6-9.7,21.6-21.6h0c0-11.9-9.7-21.6-21.6-21.6h-127.5c-11.9,0-21.6,9.7-21.6,21.6h0c0,11.9,9.7,21.6,21.6,21.6h57.9c6,0,10.8,4.8,10.8,10.8s-4.8,10.8-10.8,10.8h-26.9c-11.9,0-21.6,9.7-21.6,21.6h0c0,11.9,9.7,21.6,21.6,21.6h132Z"/>
  <g>
    <rect class="st2" x="223.6" y="235" width="4.6" height="4.6"/>
    <rect class="st2" x="232.2" y="235" width="4.6" height="4.6"/>
    <rect class="st2" x="240.8" y="235" width="4.6" height="4.6"/>
    <rect class="st2" x="249.4" y="235" width="4.6" height="4.6"/>
    <rect class="st2" x="258" y="235" width="4.6" height="4.6"/>
  </g>
  <g>
    <polyline class="st1" points="516.2 225.9 564.7 225.9 585.2 246.4 659.1 246.4 674.1 231.3"/>
    <circle class="st2" cx="516.3" cy="225.9" r="2"/>
    <path class="st2" d="M675.5,232.8c.8-.8.8-2.1,0-2.9-.8-.8-2.1-.8-2.9,0-.8.8-.8,2.1,0,2.9.8.8,2.1.8,2.9,0Z"/>
  </g>
  <g>
    <polyline class="st1" points="600.3 238.7 654.5 238.7 682.3 211 695.1 211"/>
    <circle class="st2" cx="600.4" cy="238.7" r="2"/>
    <path class="st2" d="M695,213c1.1,0,2-.9,2-2s-.9-2-2-2-2,.9-2,2,.9,2,2,2Z"/>
  </g>
  <g>
    <line class="st1" x1="766.1" y1="219.4" x2="792.2" y2="219.4"/>
    <path class="st2" d="M766.2,221.5c-1.1,0-2-.9-2-2s.9-2,2-2,2,.9,2,2-.9,2-2,2Z"/>
    <circle class="st2" cx="792.1" cy="219.4" r="2"/>
  </g>
  <g>
    <line class="st1" x1="766.1" y1="211" x2="792.2" y2="211"/>
    <path class="st2" d="M766.2,213c-1.1,0-2-.9-2-2s.9-2,2-2,2,.9,2,2-.9,2-2,2Z"/>
    <circle class="st2" cx="792.1" cy="211" r="2"/>
  </g>
  <g>
    <line class="st1" x1="766.1" y1="203.2" x2="792.2" y2="203.2"/>
    <path class="st2" d="M766.2,205.3c-1.1,0-2-.9-2-2s.9-2,2-2,2,.9,2,2-.9,2-2,2Z"/>
    <circle class="st2" cx="792.1" cy="203.2" r="2"/>
  </g>
  <g>
    <polyline class="st1" points="697.4 143.5 732.5 143.5 765 176 781.7 176 794 188.3"/>
    <path class="st2" d="M697.5,145.5c-1.1,0-2-.9-2-2s.9-2,2-2,2,.9,2,2-.9,2-2,2Z"/>
    <path class="st2" d="M792.5,189.7c.8.8,2.1.8,2.9,0,.8-.8.8-2.1,0-2.9-.8-.8-2.1-.8-2.9,0-.8.8-.8,2.1,0,2.9Z"/>
  </g>
  <g>
    <polyline class="st1" points="401.8 90.3 321.8 90.3 297.4 65.8"/>
    <path class="st2" d="M401.7,88.3c1.1,0,2,.9,2,2s-.9,2-2,2-2-.9-2-2,.9-2,2-2Z"/>
    <path class="st2" d="M298.9,64.5c-.8-.8-2.1-.8-2.9,0-.8.8-.8,2.1,0,2.9s2.1.8,2.9,0,.8-2.1,0-2.9Z"/>
  </g>
  <g>
    <polyline class="st1" points="697.4 135.1 737 135.1 768.8 167 793.5 167"/>
    <circle class="st2" cx="697.5" cy="135.1" r="2"/>
    <path class="st2" d="M793.4,169c1.1,0,2-.9,2-2s-.9-2-2-2-2,.9-2,2,.9,2,2,2Z"/>
  </g>
  <g>
    <polyline class="st1" points="575 170.1 591.8 153.3 607.4 153.3"/>
    <path class="st2" d="M576.5,171.5c-.8.8-2.1.8-2.9,0-.8-.8-.8-2.1,0-2.9.8-.8,2.1-.8,2.9,0,.8.8.8,2.1,0,2.9Z"/>
    <circle class="st2" cx="607.3" cy="153.3" r="2"/>
  </g>
  <g>
    <polyline class="st1" points="493.3 311.5 532.6 311.5 545.8 324.8"/>
    <path class="st2" d="M493.4,313.5c-1.1,0-2-.9-2-2s.9-2,2-2,2,.9,2,2-.9,2-2,2Z"/>
    <path class="st2" d="M544.3,326.1c.8.8,2.1.8,2.9,0s.8-2.1,0-2.9-2.1-.8-2.9,0c-.8.8-.8,2.1,0,2.9Z"/>
  </g>
  <g>
    <polyline class="st1" points="497.2 65.3 538.2 65.3 566.3 36.3"/>
    <path class="st2" d="M497.3,67.4c-1.1,0-2-.9-2-2s.9-2,2-2,2,.9,2,2-.9,2-2,2Z"/>
    <path class="st2" d="M567.7,37.7c.8-.8.8-2.1,0-2.9-.8-.8-2.1-.8-2.9,0s-.8,2.1,0,2.9c.8.8,2.1.8,2.9,0Z"/>
  </g>
  <g>
    <polyline class="st1" points="707.1 285.2 738.3 285.2 766 312.8 795.6 312.8"/>
    <circle class="st2" cx="707.2" cy="285.2" r="2"/>
    <path class="st2" d="M795.5,314.8c1.1,0,2-.9,2-2s-.9-2-2-2-2,.9-2,2,.9,2,2,2Z"/>
  </g>
  <g>
    <polyline class="st1" points="717.5 274.7 707.2 264.4 673.4 264.4 663.8 254.8 601.8 254.8"/>
    <path class="st2" d="M718.8,273.2c.8.8.8,2.1,0,2.9s-2.1.8-2.9,0c-.8-.8-.8-2.1,0-2.9s2.1-.8,2.9,0Z"/>
    <circle class="st2" cx="601.9" cy="254.8" r="2"/>
  </g>
  <g>
    <polyline class="st1" points="412.1 98 327.9 98 312.5 113.4"/>
    <path class="st2" d="M412,96c1.1,0,2,.9,2,2s-.9,2-2,2-2-.9-2-2,.9-2,2-2Z"/>
    <path class="st2" d="M311.2,111.9c-.8.8-.8,2.1,0,2.9s2.1.8,2.9,0,.8-2.1,0-2.9-2.1-.8-2.9,0Z"/>
  </g>
  <g>
    <polyline class="st1" points="178.8 162.9 197.9 143.8 229.4 143.8 241.2 132"/>
    <path class="st2" d="M180.3,164.3c-.8.8-2.1.8-2.9,0-.8-.8-.8-2.1,0-2.9s2.1-.8,2.9,0,.8,2.1,0,2.9Z"/>
    <path class="st2" d="M242.6,133.5c.8-.8.8-2.1,0-2.9s-2.1-.8-2.9,0c-.8.8-.8,2.1,0,2.9s2.1.8,2.9,0Z"/>
  </g>
  <g>
    <polyline class="st1" points="218.4 112.3 254.8 112.3 266.4 100.7"/>
    <path class="st2" d="M218.5,114.3c-1.1,0-2-.9-2-2s.9-2,2-2,2,.9,2,2-.9,2-2,2Z"/>
    <path class="st2" d="M267.8,102.2c.8-.8.8-2.1,0-2.9s-2.1-.8-2.9,0-.8,2.1,0,2.9,2.1.8,2.9,0Z"/>
  </g>
</svg>
