<?xml version="1.0" encoding="UTF-8"?>
<svg xmlns="http://www.w3.org/2000/svg" version="1.1" viewBox="0 0 728.1 333.1">
  <defs>
    <style>
      .cls-1 {
        opacity: .5;
      }

      .cls-1, .cls-2 {
        fill: #fff;
      }

      .cls-3 {
        fill: none;
        stroke: #fff;
        stroke-miterlimit: 10;
        stroke-width: .5px;
      }
    </style>
  </defs>
  <!-- Generator: Adobe Illustrator 28.7.1, SVG Export Plug-In . SVG Version: 1.2.0 Build 142)  -->
  <g>
    <g id="_レイヤー_1" data-name="レイヤー_1">
      <polygon class="cls-2" points="265.2 237.8 369.8 237.8 374.9 243.7 369 249.7 367.6 249.7 367.6 249.7 306 249.7 294.1 261.6 294.1 261.6 306 273.4 492.8 273.4 504.7 261.6 504.7 261.6 492.8 249.7 406.4 249.7 406.4 249.7 401.1 249.7 395.1 243.7 401.1 237.8 406.4 237.8 436.1 237.8 447.9 225.9 447.9 225.9 436.1 214 359.9 214 354.7 208.1 360.6 202.2 362 202.2 362 202.2 409 202.2 420.9 190.3 420.9 190.3 409 178.4 395.6 178.4 395.6 178.4 394.2 178.4 388.2 172.4 394.2 166.5 395.6 166.5 395.6 166.5 447.8 166.5 459.7 154.6 459.7 154.6 447.8 142.7 344 142.7 332.2 154.6 344 166.5 356.8 166.5 356.8 166.5 362.1 166.5 368.1 172.4 362.1 178.4 356.8 178.4 356.8 178.4 307.6 178.4 295.7 190.3 295.7 190.3 307.6 202.2 323.2 202.2 323.2 202.2 328.6 202.2 334.5 208.1 328.6 214 323.2 214 265.2 214 253.4 225.9 253.4 225.9 265.2 237.8"/>
      <polygon class="cls-2" points="223 344.6 334.5 344.6 339.7 350.5 333.7 356.5 332.4 356.5 332.4 356.5 270.7 356.5 258.8 368.3 258.8 368.3 270.7 380.2 457.6 380.2 469.5 368.3 469.5 368.3 457.6 356.5 371.1 356.5 371.1 356.5 365.8 356.5 359.9 350.5 365.8 344.6 371.1 344.6 470.7 344.6 482.6 332.7 482.6 332.7 470.7 320.8 324.6 320.8 319.4 314.9 325.4 308.9 326.7 308.9 326.7 308.9 373.7 308.9 385.6 297.1 385.6 297.1 373.7 285.2 360.3 285.2 360.3 285.2 358.9 285.2 353 279.2 358.9 273.3 360.3 273.3 360.3 273.3 412.6 273.3 424.5 261.4 424.5 261.4 412.6 249.5 308.8 249.5 296.9 261.4 308.8 273.3 321.5 273.3 321.5 273.3 326.9 273.3 332.8 279.2 326.9 285.2 321.5 285.2 321.5 285.2 272.4 285.2 260.5 297.1 260.5 297.1 272.4 308.9 288 308.9 288 308.9 293.3 308.9 299.2 314.9 293.3 320.8 288 320.8 223 320.8 211.1 332.7 211.1 332.7 223 344.6"/>
      <path class="cls-2" d="M574.1,100.7c-.3,0-.7,0-1,.3l-20.8-20.8h-50.3l-18.3,18.3h-63l-33.5,33.5c-.3-.3-.7-.4-1.2-.4-1,0-1.9.8-1.9,1.9s.8,1.9,1.9,1.9,1.9-.8,1.9-1.9-.2-.9-.4-1.2l33.4-33.4h63l18.3-18.3h50l20.6,20.6c-.4.3-.6.8-.6,1.4,0,1,.8,1.9,1.9,1.9s1.9-.8,1.9-1.9-.8-1.9-1.9-1.9Z"/>
      <path class="cls-2" d="M512.3,137.2c0,1.5-1.2,2.7-2.7,2.7s-2.7-1.2-2.7-2.7,1.2-2.7,2.7-2.7,0,0,.1,0v-14.3l-14.4-14.4h-67.5l-26.5,26.5c.2.3.4.7.4,1.1,0,1-.8,1.9-1.9,1.9s-1.9-.8-1.9-1.9.8-1.9,1.9-1.9.9.2,1.3.5l26.6-26.6h67.8l14.6,14.6v14.5c1.3.2,2.2,1.3,2.2,2.7Z"/>
      <polyline class="cls-3" points="462.8 90.1 415.8 90.1 399.1 106.9 360.1 106.9"/>
      <circle class="cls-2" cx="464.7" cy="90.1" r="1.9"/>
      <circle class="cls-2" cx="358.3" cy="106.7" r="1.9"/>
      <circle class="cls-2" cx="295" cy="175.5" r="2.9"/>
      <circle class="cls-2" cx="67.3" cy="220.2" r="1.9"/>
      <circle class="cls-2" cx="67.3" cy="163.5" r="1.9"/>
      <circle class="cls-2" cx="155.4" cy="150.3" r="1.9"/>
      <circle class="cls-2" cx="233" cy="200.6" r="1.9"/>
      <circle class="cls-2" cx="49.2" cy="230.7" r="2.9"/>
      <circle class="cls-2" cx="6.6" cy="303.8" r="1.9"/>
      <circle class="cls-2" cx="68" cy="291.1" r="1.9"/>
      <circle class="cls-2" cx="199.7" cy="213" r="1.9"/>
      <circle class="cls-2" cx="199.7" cy="224.7" r="1.9"/>
      <circle class="cls-2" cx="148.8" cy="261.1" r="1.9"/>
      <polyline class="cls-3" points="421 176.4 433.8 189.2 548.5 189.2 575.3 162.5 664.9 162.5"/>
      <circle class="cls-2" cx="420.5" cy="176.1" r="1.9"/>
      <circle class="cls-2" cx="665.7" cy="162.5" r="1.9"/>
      <circle class="cls-2" cx="665.7" cy="113.5" r="1.9"/>
      <polyline class="cls-3" points="630.7 171.9 578.9 171.9 552.2 198.6 491.5 198.6 464.5 225.6"/>
      <polyline class="cls-3" points="722.6 182.8 583.4 182.8 556.7 209.5 515 209.5"/>
      <circle class="cls-2" cx="464.5" cy="225.7" r="1.9"/>
      <circle class="cls-2" cx="630.5" cy="172.1" r="1.9"/>
      <line class="cls-3" x1="490.8" y1="178.3" x2="530.8" y2="178.3"/>
      <circle class="cls-2" cx="531" cy="178.5" r="1.9"/>
      <circle class="cls-2" cx="492.4" cy="178.5" r="1.9"/>
      <g>
        <line class="cls-3" x1="490.8" y1="168.1" x2="530.8" y2="168.1"/>
        <circle class="cls-2" cx="531" cy="168.3" r="1.9"/>
        <circle class="cls-2" cx="492.4" cy="168.3" r="1.9"/>
      </g>
      <g>
        <line class="cls-3" x1="490.8" y1="157.1" x2="530.8" y2="157.1"/>
        <circle class="cls-2" cx="531" cy="157.3" r="1.9"/>
        <circle class="cls-2" cx="492.4" cy="157.3" r="1.9"/>
      </g>
      <g>
        <line class="cls-3" x1="96.6" y1="265.5" x2="136.7" y2="265.5"/>
        <circle class="cls-2" cx="136.8" cy="265.6" r="1.9"/>
        <circle class="cls-2" cx="98.2" cy="265.6" r="1.9"/>
        <g>
          <line class="cls-3" x1="96.6" y1="255.2" x2="136.7" y2="255.2"/>
          <circle class="cls-2" cx="136.8" cy="255.4" r="1.9"/>
          <circle class="cls-2" cx="98.2" cy="255.4" r="1.9"/>
        </g>
        <g>
          <line class="cls-3" x1="96.6" y1="244.3" x2="136.7" y2="244.3"/>
          <circle class="cls-2" cx="136.8" cy="244.4" r="1.9"/>
          <circle class="cls-2" cx="98.2" cy="244.4" r="1.9"/>
        </g>
      </g>
      <polyline class="cls-3" points="552.2 95.2 570.7 113.7 664 113.7"/>
      <circle class="cls-2" cx="551.2" cy="94.4" r="1.9"/>
      <polyline class="cls-3" points="294.8 175.7 280.6 189.9 171.5 189.9 141.2 220.2 68.9 220.2"/>
      <polyline class="cls-3" points="233.8 200.5 175.5 200.5 145.2 230.8 48.9 230.8"/>
      <polyline class="cls-3" points="199.3 212.9 179.2 212.9 148.9 243.2 148.9 261.2"/>
      <circle class="cls-2" cx="249.7" cy="212.3" r="1.9"/>
      <polyline class="cls-3" points="249.5 212.5 237.2 224.9 200 224.9"/>
      <circle class="cls-2" cx="514.7" cy="209.3" r="1.9"/>
      <circle class="cls-2" cx="722.6" cy="182.6" r="2.9"/>
      <polygon class="cls-2" points="636.7 10.2 589.8 10.2 577.9 22.1 577.9 22.1 589.8 34 603.2 34 603.2 34 604.6 34 610.5 40 604.6 45.9 603.2 45.9 603.2 45.9 550.9 45.9 539 57.8 539 57.8 550.9 69.7 654.7 69.7 666.6 57.8 654.7 45.9 642 45.9 642 45.9 636.6 45.9 630.7 40 636.6 34 642 34 642 34 691.1 34 703 22.1 703 22.1 691.1 10.2 675.5 10.2 675.5 10.2 670.2 10.2 636.7 10.2"/>
      <polygon class="cls-2" points="182.6 117.4 184 117.4 184 117.4 227 117.4 238.9 129.3 238.9 129.3 227 141.2 217.6 141.2 217.6 141.2 216.2 141.2 210.3 147.1 216.2 153.1 217.6 153.1 217.6 153.1 269.9 153.1 281.8 165 281.8 165 269.9 176.9 166.1 176.9 154.2 165 166.1 153.1 178.8 153.1 178.8 153.1 184.1 153.1 190.1 147.1 184.1 141.2 178.8 141.2 178.8 141.2 129.6 141.2 117.7 129.3 117.7 129.3 129.6 117.4 145.3 117.4 145.3 117.4 150.6 117.4 182.6 117.4"/>
      <polyline class="cls-3" points="272.1 260.9 200.1 260.9 169.8 291.2 68.9 291.2"/>
      <circle class="cls-2" cx="271.8" cy="261.2" r="1.9"/>
      <polyline class="cls-3" points="513.2 265.8 522.9 275.5 591.5 275.5 613.1 297.1 701.8 297.1"/>
      <polyline class="cls-3" points="655.5 307 607.5 307 586 285.5 500.9 285.5 486.5 299.9"/>
      <polyline class="cls-3" points="550.2 296.6 581 296.6 602.6 318.2"/>
      <polyline class="cls-3" points="565.4 216.1 587.6 193.9 700 193.9"/>
      <polyline class="cls-3" points="228.4 273.3 206.1 273.3 175.8 303.6 6.4 303.6"/>
      <polyline class="cls-3" points="386 283 399.9 296.9 454.2 296.9"/>
      <polyline class="cls-3" points="518.9 253.1 530.4 264.5 616.6 264.5"/>
      <g>
        <rect class="cls-2" x="439.7" y="129.7" width="4.6" height="4.6"/>
        <rect class="cls-2" x="448.3" y="129.7" width="4.6" height="4.6"/>
        <rect class="cls-2" x="456.9" y="129.7" width="4.6" height="4.6"/>
        <rect class="cls-2" x="465.5" y="129.7" width="4.6" height="4.6"/>
        <rect class="cls-2" x="474" y="129.7" width="4.6" height="4.6"/>
      </g>
      <circle class="cls-2" cx="699.4" cy="193.8" r="1.9"/>
      <circle class="cls-2" cx="565.6" cy="215.8" r="1.9"/>
      <circle class="cls-2" cx="518.8" cy="253.2" r="1.9"/>
      <circle class="cls-2" cx="617.1" cy="264.6" r="1.9"/>
      <circle class="cls-2" cx="513.2" cy="266" r="1.9"/>
      <circle class="cls-2" cx="702" cy="297.1" r="1.9"/>
      <circle class="cls-2" cx="655.3" cy="307.1" r="1.9"/>
      <circle class="cls-2" cx="602.7" cy="318.1" r="1.9"/>
      <circle class="cls-2" cx="549.8" cy="296.6" r="1.9"/>
      <circle class="cls-2" cx="486.6" cy="299.8" r="1.9"/>
      <circle class="cls-2" cx="454.5" cy="296.8" r="1.9"/>
      <circle class="cls-2" cx="386.2" cy="282.9" r="1.9"/>
      <g>
        <rect class="cls-2" x="578.3" y="250.9" width="4.6" height="4.6"/>
        <rect class="cls-2" x="586.9" y="250.9" width="4.6" height="4.6"/>
        <rect class="cls-2" x="595.5" y="250.9" width="4.6" height="4.6"/>
        <rect class="cls-2" x="604.1" y="250.9" width="4.6" height="4.6"/>
        <rect class="cls-2" x="612.6" y="250.9" width="4.6" height="4.6"/>
      </g>
      <circle class="cls-2" cx="228.6" cy="273.5" r="1.9"/>
      <g>
        <circle class="cls-2" cx="358.2" cy="51.7" r="1.9"/>
        <circle class="cls-2" cx="517.9" cy="32" r="1.9"/>
        <circle class="cls-2" cx="297.5" cy="62.1" r="2.9"/>
        <circle class="cls-2" cx="487.6" cy="44.4" r="1.9"/>
        <circle class="cls-2" cx="487.6" cy="56.1" r="1.9"/>
        <circle class="cls-2" cx="358.4" cy="74.9" r="1.9"/>
        <polyline class="cls-3" points="579.7 7.1 565.5 21.4 456.4 21.4 426.1 51.6 359.8 51.6"/>
        <polyline class="cls-3" points="518.7 32 460.4 32 430.1 62.2 297.3 62.2"/>
        <polyline class="cls-3" points="487.2 44.4 464.1 44.4 433.8 74.7 356.9 74.7"/>
        <circle class="cls-2" cx="537.6" cy="43.7" r="1.9"/>
        <polyline class="cls-3" points="537.4 44 525.1 56.3 487.9 56.3"/>
        <circle class="cls-2" cx="579.4" cy="7.3" r="1.9"/>
      </g>
      <polyline class="cls-3" points="132.9 106.8 228.5 106.8 246 89.2"/>
      <circle class="cls-2" cx="245.9" cy="89.5" r="2.9"/>
      <polyline class="cls-3" points="155.6 150.6 142.8 163.4 66.6 163.4"/>
      <polyline class="cls-3" points="142.8 175.4 91.6 175.4 70.7 196.3 25 196.3"/>
      <line class="cls-3" x1="142.6" y1="187.7" x2="101.3" y2="187.7"/>
      <path class="cls-1" d="M330.6,102.6h-31.6c-6.5,0-11.8,5.3-11.8,11.8v31.6c0,7.7,7.3,13.4,14.8,11.4,19.5-5.2,34.8-20.6,40.1-40.1,2-7.5-3.7-14.8-11.4-14.8ZM320.1,106c.9,0,1.7.7,1.7,1.7s-.4,1.3-1,1.5v3.2l-21.5,21.5c0,.2.1.4.1.6,0,.9-.7,1.7-1.7,1.7s-1.7-.7-1.7-1.7.7-1.7,1.7-1.7.5,0,.7.2l21.1-21.1v-2.7c-.6-.3-1-.8-1-1.5s.7-1.7,1.7-1.7ZM292.6,112.4c.8,0,1.4.5,1.6,1.2h10c.2-.7.8-1.2,1.6-1.2s1.7.7,1.7,1.7-.7,1.7-1.7,1.7-1.2-.3-1.4-.9h-10.3c-.3.5-.8.9-1.4.9-.9,0-1.7-.7-1.7-1.7s.7-1.7,1.7-1.7ZM292.6,118.8c.8,0,1.4.5,1.6,1.2h10c.2-.7.8-1.2,1.6-1.2s1.7.7,1.7,1.7-.7,1.7-1.7,1.7-1.2-.3-1.4-.9h-10.3c-.3.5-.8.9-1.4.9-.9,0-1.7-.7-1.7-1.7s.7-1.7,1.7-1.7ZM292.6,138.7c.7,0,1.3.5,1.6,1.1h5.8l24.6-24.6c-.1-.2-.2-.5-.2-.7,0-.9.7-1.7,1.7-1.7s1.7.7,1.7,1.7-.7,1.7-1.7,1.7-.4,0-.5,0l-25,25h-6.3c-.3.6-.8,1-1.5,1s-1.7-.7-1.7-1.7.7-1.7,1.7-1.7ZM313.9,146.4l-2.2-2.2,2.2-2.2,2.2,2.2-2.2,2.2ZM318,142.3l-2.2-2.2,2.2-2.2,2.2,2.2-2.2,2.2ZM322.1,138.2l-2.2-2.2,2.2-2.2,2.2,2.2-2.2,2.2ZM326.3,134l-2.2-2.2,2.2-2.2,2.2,2.2-2.2,2.2ZM330.4,129.9l-2.2-2.2,2.2-2.2,2.2,2.2-2.2,2.2ZM332.6,109.1v8.1l-29.7,29.7h-8.9c-.3.5-.8.9-1.5.9-.9,0-1.7-.7-1.7-1.7s.7-1.7,1.7-1.7,1.4.5,1.6,1.2h8.2l29-29v-7.6c-.6-.2-1.1-.8-1.1-1.5s.7-1.7,1.7-1.7,1.7.7,1.7,1.7-.4,1.2-1,1.5Z"/>
      <polyline class="cls-3" points="242.6 117.5 252.7 127.6 278.5 127.6"/>
    </g>
  </g>
</svg>