<?xml version="1.0" encoding="UTF-8"?>
<svg id="_レイヤー_1" xmlns="http://www.w3.org/2000/svg" version="1.1" viewBox="0 0 520 150">
  <!-- Generator: Adobe Illustrator 29.0.0, SVG Export Plug-In . SVG Version: 2.1.0 Build 186)  -->
  <defs>
    <style>
      .st0 {
        fill: #fff;
      }

      .st1 {
        fill: none;
        stroke: #fff;
        stroke-miterlimit: 10;
        stroke-width: .6px;
      }
    </style>
  </defs>
  <path class="st0" d="M239.3-20.8h8.1c11.4,0,20.8,9.4,20.8,20.8h0c0,11.4-9.4,20.8-20.8,20.8h-61.1s-9.3,0-9.3,0c-5.7,0-10.4,4.7-10.4,10.4,0,5.7,4.7,10.4,10.4,10.4h9.3s103.9,0,103.9,0c11.4,0,20.8,9.4,20.8,20.8h0c0,11.4-9.4,20.8-20.8,20.8h-48.3s0,0,0,0h-9.3c-5.7,0-10.4,4.7-10.4,10.4,0,5.7,4.7,10.4,10.4,10.4h14.9s1.8,0,1.8,0c11.4,0,20.8,9.4,20.8,20.8h0c0,11.4-9.4,20.8-20.8,20.8h-109c-11.4,0-20.8-9.4-20.8-20.8h0c0-11.4,9.4-20.8,20.8-20.8h33.7s0,0,0,0h2.4c5.7,0,10.4-4.7,10.4-10.4,0-5.7-4.7-10.4-10.4-10.4h-2.4s-78.7,0-78.7,0c-11.4,0-20.8-9.4-20.8-20.8h0c0-11.4,9.4-20.8,20.8-20.8h23.2s0,0,0,0h2.4c5.7,0,10.4-4.7,10.4-10.4,0-5.3-4-9.7-9.1-10.3H45.5c-11.4,0-20.8-9.4-20.8-20.8h0c0-11.4,9.4-20.8,20.8-20.8h129.7s9.3,0,9.3,0c0,0,53.3,1.4,54.8,0Z"/>
  <g>
    <polyline class="st1" points="297.9 24.7 306.1 32.9 370.2 32.9"/>
    <path class="st0" d="M296.6,26.2c-.8-.8-.8-2.1,0-2.9.8-.8,2.1-.8,2.9,0,.8.8.8,2.1,0,2.9-.8.8-2.1.8-2.9,0Z"/>
    <circle class="st0" cx="370.1" cy="32.9" r="2"/>
  </g>
  <g>
    <polyline class="st1" points="317 41.5 382.4 41.5 406.2 17.4 433.1 17.4 444.5 28.8 460.9 28.8"/>
    <path class="st0" d="M317.1,43.5c-1.1,0-2-.9-2-2s.9-2,2-2,2,.9,2,2-.9,2-2,2Z"/>
    <circle class="st0" cx="460.8" cy="28.8" r="2"/>
  </g>
  <g>
    <polyline class="st1" points="329.7 25.2 374.4 25.2 390.5 9.1 424.1 9.1"/>
    <circle class="st0" cx="329.8" cy="25.2" r="2"/>
    <path class="st0" d="M424,11.1c1.1,0,2-.9,2-2s-.9-2-2-2-2,.9-2,2,.9,2,2,2Z"/>
  </g>
  <g>
    <polyline class="st1" points="335.6 49.4 381.9 49.4 401.5 69.1 421 69.1"/>
    <circle class="st0" cx="335.7" cy="49.4" r="2"/>
    <path class="st0" d="M420.9,71.1c1.1,0,2-.9,2-2s-.9-2-2-2-2,.9-2,2,.9,2,2,2Z"/>
  </g>
  <g>
    <polyline class="st1" points="353.8 57.6 375.4 57.6 395.2 77.3 435.9 77.3"/>
    <path class="st0" d="M353.9,59.6c-1.1,0-2-.9-2-2s.9-2,2-2,2,.9,2,2-.9,2-2,2Z"/>
    <circle class="st0" cx="435.8" cy="77.3" r="2"/>
  </g>
  <g>
    <polyline class="st1" points="320.9 85.2 333.2 85.2 351.8 65.6 369.5 65.6 376.1 72.1"/>
    <circle class="st0" cx="321" cy="85.2" r="2"/>
    <path class="st0" d="M374.6,73.5c.8.8,2.1.8,2.9,0,.8-.8.8-2.1,0-2.9-.8-.8-2.1-.8-2.9,0-.8.8-.8,2.1,0,2.9Z"/>
  </g>
  <g>
    <line class="st1" x1="316.2" y1="93.4" x2="340.6" y2="93.4"/>
    <circle class="st0" cx="316.3" cy="93.4" r="2"/>
    <circle class="st0" cx="340.5" cy="93.4" r="2"/>
  </g>
  <g>
    <polyline class="st1" points="376.5 101.6 286.3 101.6 279.5 108.5"/>
    <circle class="st0" cx="376.4" cy="101.6" r="2"/>
    <path class="st0" d="M278.1,107c-.8.8-.8,2.1,0,2.9.8.8,2.1.8,2.9,0,.8-.8.8-2.1,0-2.9-.8-.8-2.1-.8-2.9,0Z"/>
  </g>
  <g>
    <polyline class="st1" points="427.2 26.1 438.1 36.9 475.3 36.9"/>
    <path class="st0" d="M425.9,27.6c-.8-.8-.8-2.1,0-2.9.8-.8,2.1-.8,2.9,0,.8.8.8,2.1,0,2.9-.8.8-2.1.8-2.9,0Z"/>
    <circle class="st0" cx="475.2" cy="36.9" r="2"/>
  </g>
  <g>
    <polyline class="st1" points="137.5 95.7 82.3 95.7 64.7 78.1 27.6 78.1"/>
    <path class="st0" d="M137.4,93.6c1.1,0,2,.9,2,2s-.9,2-2,2-2-.9-2-2,.9-2,2-2Z"/>
    <path class="st0" d="M27.7,76.1c-1.1,0-2,.9-2,2s.9,2,2,2,2-.9,2-2-.9-2-2-2Z"/>
  </g>
  <g>
    <polyline class="st1" points="116.7 103.8 78.3 103.8 60.8 86.2 58.7 86.2"/>
    <path class="st0" d="M116.6,101.8c1.1,0,2,.9,2,2s-.9,2-2,2-2-.9-2-2,.9-2,2-2Z"/>
    <path class="st0" d="M58.8,84.2c-1.1,0-2,.9-2,2s.9,2,2,2,2-.9,2-2-.9-2-2-2Z"/>
  </g>
  <g>
    <line class="st1" x1="69.6" y1="70.2" x2="4.7" y2="70.2"/>
    <path class="st0" d="M69.5,68.2c1.1,0,2,.9,2,2s-.9,2-2,2-2-.9-2-2,.9-2,2-2Z"/>
    <path class="st0" d="M4.8,68.2c-1.1,0-2,.9-2,2s.9,2,2,2,2-.9,2-2-.9-2-2-2Z"/>
  </g>
  <g>
    <polyline class="st1" points="109.1 31 70.8 31 55.3 46.6 50.1 46.6"/>
    <path class="st0" d="M109,29c1.1,0,2,.9,2,2s-.9,2-2,2-2-.9-2-2,.9-2,2-2Z"/>
    <path class="st0" d="M50.2,44.5c-1.1,0-2,.9-2,2s.9,2,2,2,2-.9,2-2-.9-2-2-2Z"/>
  </g>
  <g>
    <polyline class="st1" points="62.9 60.8 49.4 60.8 41 52.4"/>
    <path class="st0" d="M62.8,58.7c1.1,0,2,.9,2,2s-.9,2-2,2-2-.9-2-2,.9-2,2-2Z"/>
    <path class="st0" d="M42.5,51c-.8-.8-2.1-.8-2.9,0-.8.8-.8,2.1,0,2.9.8.8,2.1.8,2.9,0s.8-2.1,0-2.9Z"/>
  </g>
  <g>
    <polyline class="st1" points="112.8 111.9 63.4 111.9 42.9 132.4 14 132.4"/>
    <path class="st0" d="M112.7,109.9c1.1,0,2,.9,2,2s-.9,2-2,2-2-.9-2-2,.9-2,2-2Z"/>
    <path class="st0" d="M14.1,130.4c-1.1,0-2,.9-2,2s.9,2,2,2,2-.9,2-2-.9-2-2-2Z"/>
  </g>
  <g>
    <line class="st1" x1="112.2" y1="120.2" x2="79.6" y2="120.2"/>
    <path class="st0" d="M112.1,118.2c1.1,0,2,.9,2,2s-.9,2-2,2-2-.9-2-2,.9-2,2-2Z"/>
    <path class="st0" d="M79.7,118.2c-1.1,0-2,.9-2,2s.9,2,2,2,2-.9,2-2-.9-2-2-2Z"/>
  </g>
  <g>
    <polyline class="st1" points="111.9 128.1 77.6 128.1 58.4 147.2"/>
    <path class="st0" d="M111.8,126.1c1.1,0,2,.9,2,2s-.9,2-2,2-2-.9-2-2,.9-2,2-2Z"/>
    <path class="st0" d="M57.1,145.7c-.8.8-.8,2.1,0,2.9.8.8,2.1.8,2.9,0,.8-.8.8-2.1,0-2.9-.8-.8-2.1-.8-2.9,0Z"/>
  </g>
</svg>