<?xml version="1.0" encoding="UTF-8"?>
<svg id="_レイヤー_1" xmlns="http://www.w3.org/2000/svg" version="1.1" viewBox="0 0 2000 400">
  <!-- Generator: Adobe Illustrator 29.0.0, SVG Export Plug-In . SVG Version: 2.1.0 Build 186)  -->
  <defs>
    <style>
      .st0 {
        fill: #fff;
      }

      .st1 {
        fill: none;
        stroke: #000;
        stroke-miterlimit: 10;
      }
    </style>
  </defs>
  <path class="st0" d="M952.8,136.9l-5.4-7.3,20.8-36.1h37.1l6-4.8h-17.7l-5.2,3.4-.8-1.5,5.6-3.6h20.2l5.1-4.2h-42.2v-1.5h60.7v-5.3h-78.4l-32.3,54.5,19.1,25.9,33.4-7.4,5-13.7,16.1-3.7-1.2-5.1-46,10.4h.1ZM1025.7,103.7h-52.2l-7,12.2h-4.3v5.3h42.9l7-12.2h13.6v-5.3ZM977,109.1c-.9,0-1.6-.7-1.6-1.6s.7-1.6,1.6-1.6,1.6.7,1.6,1.6-.7,1.6-1.6,1.6ZM983.6,109.1c-.9,0-1.6-.7-1.6-1.6s.7-1.6,1.6-1.6,1.6.7,1.6,1.6-.7,1.6-1.6,1.6ZM990.1,109.1c-.9,0-1.6-.7-1.6-1.6s.7-1.6,1.6-1.6,1.6.7,1.6,1.6-.7,1.6-1.6,1.6ZM996.7,109.1c-.9,0-1.6-.7-1.6-1.6s.7-1.6,1.6-1.6,1.6.7,1.6,1.6-.7,1.6-1.6,1.6ZM1003.3,109.1c-.9,0-1.6-.7-1.6-1.6s.7-1.6,1.6-1.6,1.6.7,1.6,1.6-.7,1.6-1.6,1.6ZM1043.3,136.9l-5.4-7.3,20.8-36.1h37.1l6.4-5.2h-19.3l-5.3,3.5-.7-1.3,5.6-3.6h21.5l4.8-4h-42.5v-1.6h61.1v-5.3h-78.4l-32.3,54.5,19.1,25.9,33.4-7.4,5-13.7,16.1-3.7-1.2-5.1-46,10.4h.2ZM936.8,63l3.7-5.2-22.7,7-3.7,5,22.8-6.8h0ZM891.4,150.8l19.7,15.6,6.1-1.1-14.6-12.2-11.2-2.3ZM856.6,87.1l54.7-16.4,5.4-7.3,25.5-7.9,3.9-5.5-58.7,18.2-.4-1.8,60.8-18.9v-.2l28.8-8.4-1.5-5-112.6,33.2,8.6-11.9-5.1-14.3,18.4-25.8-4.1-3-101.7,142,4.9,14.2-9.3,13,4.3,3.1,56.4-78.6,54.5,43.4,14,2.9,15.7,13.1,6.8-1.2-49.6-39.3.8-1,50.5,40h0l14.6,11.5,3.2-4-92.9-74.2,4.4-9.7-.3-.2h0ZM1116.1,109v-5.3h-52.2l-7,12.2h-4.3v5.3h42.9l7-12.2h13.6ZM1067.5,109.1c-.9,0-1.6-.7-1.6-1.6s.7-1.6,1.6-1.6,1.6.7,1.6,1.6-.7,1.6-1.6,1.6ZM1074.1,109.1c-.9,0-1.6-.7-1.6-1.6s.7-1.6,1.6-1.6,1.6.7,1.6,1.6-.7,1.6-1.6,1.6ZM1080.6,109.1c-.9,0-1.6-.7-1.6-1.6s.7-1.6,1.6-1.6,1.6.7,1.6,1.6-.7,1.6-1.6,1.6ZM1087.2,109.1c-.9,0-1.6-.7-1.6-1.6s.7-1.6,1.6-1.6,1.6.7,1.6,1.6-.7,1.6-1.6,1.6ZM1093.8,109.1c-.9,0-1.6-.7-1.6-1.6s.7-1.6,1.6-1.6,1.6.7,1.6,1.6-.7,1.6-1.6,1.6ZM1210.5,98.1l-20.3,7.4h-27.2v5.3h34.2l.6,2.2-72.6,40-3.7-4.2,59.5-82.4.8-18.9-18.9,27.1-1.5-1.2,20.6-29.5h0l15.9-22.2-4.3-3.1-94.7,131.9,22.7,24.3,100.4-55-11.3-21.5s-.2-.2-.2-.2ZM1122.1,162.2l-10.8-12.6,14.9-21.6,1.5,1.1-13.9,20.4,9.7,11.4-1.4,1.2h0Z"/>
  <g>
    <path class="st0" d="M868.1,316.8c-2.4,0-4.3-.2-5.8-.6s-2.7-1-3.6-1.8c-.9-.8-1.5-1.8-1.9-2.9-.4-1.2-.7-2.5-.8-4.1,0-1.5-.2-3.2-.2-5s0-3.5.2-5c0-1.5.4-2.9.9-4.1.4-1.2,1.1-2.2,2-3s2.1-1.4,3.6-1.8,3.4-.6,5.7-.6,2.9,0,4.4.2c1.5.1,2.8.4,4,.7v6.3c-.7-.1-1.7-.3-2.8-.4-1.1,0-2.2-.1-3.3-.1s-2.3.1-3,.3c-.8.2-1.3.6-1.7,1.1s-.6,1.3-.7,2.3c0,1-.2,2.4-.2,4s0,3,.2,4.1c0,1,.4,1.8.7,2.3.4.6.9.9,1.7,1.1s1.8.3,3.1.3,1.8,0,2.9-.1c1.1,0,2.2-.2,3.2-.4v6.3c-1.2.3-2.6.5-4.1.6s-3,.2-4.5.2h0Z"/>
    <path class="st0" d="M895.8,316.8c-2.5,0-4.6-.1-6.2-.4-1.7-.3-3-.8-3.9-1.4-1-.6-1.7-1.5-2.1-2.6-.4-1.1-.7-2.5-.9-4.2,0-1.7-.2-3.6-.2-5.8s0-4.2.2-5.9c0-1.7.4-3,.9-4.1.4-1.1,1.1-2,2.1-2.6,1-.7,2.3-1.1,3.9-1.4,1.7-.3,3.7-.4,6.2-.4s4.6.1,6.3.4,2.9.7,3.9,1.4c.9.7,1.6,1.5,2.1,2.6s.8,2.5.9,4.1c0,1.7.2,3.6.2,5.9s0,4.2-.2,5.8c0,1.7-.4,3-.9,4.2-.5,1.1-1.2,2-2.1,2.6-.9.6-2.2,1.1-3.9,1.4s-3.7.4-6.3.4ZM895.8,310.2c1.1,0,2,0,2.6-.3.6-.2,1.1-.5,1.3-1,.3-.5.4-1.3.5-2.3v-8.4c0-1-.2-1.8-.5-2.3s-.7-.9-1.3-1c-.6-.2-1.5-.2-2.6-.2s-2,0-2.6.2-1.1.5-1.3,1-.4,1.3-.4,2.3v8.4c0,1.1.2,1.8.4,2.3s.7.8,1.3,1,1.5.3,2.6.3Z"/>
    <path class="st0" d="M916.1,316.4v-28.1h8.4l.2,3.4h.5c.6-1,1.2-1.8,2-2.3.8-.6,1.7-.9,2.8-1.2,1-.2,2.2-.4,3.3-.4,1.9,0,3.4.2,4.5.7s2,1.2,2.6,2.1,1,2.1,1.2,3.4.3,2.9.3,4.7v17.6h-8.8v-18.5c0-.9-.2-1.5-.5-1.9s-.7-.7-1.2-.8c-.5-.1-1.2-.2-2.1-.2s-1.7.1-2.3.3c-.6.2-1,.6-1.2,1.1-.3.5-.4,1.2-.6,2,0,.8-.2,1.9-.2,3.3v14.6h-8.8v.2h-.1Z"/>
    <path class="st0" d="M952.7,316.4v-21.4h-5.2v-6.7h5.2v-1.9c0-2.1,0-3.9.4-5.2.3-1.3.7-2.4,1.4-3.2.7-.8,1.6-1.3,2.7-1.7,1.2-.3,2.7-.6,4.5-.7,1.8,0,4-.1,6.6-.1v6.1h-3.6c-.9,0-1.6.2-2,.4-.5.2-.8.6-.9,1,0,.5-.2,1.1-.2,1.9v3.2h6.7v6.7h-6.7v21.4h-8.9v.2h0Z"/>
    <path class="st0" d="M987.3,316.8c-2.6,0-4.8-.2-6.5-.5s-3.1-.9-4.1-1.6-1.8-1.7-2.2-2.8c-.5-1.1-.8-2.5-.9-4.1-.2-1.6-.2-3.4-.2-5.5s0-4.7.4-6.6c.3-1.8.8-3.4,1.7-4.5.8-1.2,2.2-2.1,4-2.6s4.2-.8,7.2-.8,4.5.2,6,.5c1.6.3,2.8.9,3.6,1.6.9.7,1.5,1.7,1.9,2.8.4,1.1.7,2.5.8,4.1s.2,3.4.2,5.5v2.1h-16.9c0,1.2,0,2.3.2,3,0,.8.4,1.3.9,1.7.5.4,1.2.6,2.2.7s2.4.2,4.1.2h2.6c.9,0,1.9,0,3-.2,1,0,2-.1,2.9-.2v6.2c-.8.2-1.8.3-2.9.5-1.2.1-2.4.2-3.7.3-1.3,0-2.6.1-3.9.1h-.4,0ZM990.6,300.8v-.8c0-1.3,0-2.4-.2-3.2,0-.8-.3-1.4-.7-1.7-.3-.4-.7-.6-1.3-.7s-1.2-.2-2-.2-1.8,0-2.4.2c-.6.1-1,.4-1.3.8s-.5,1-.6,1.8-.2,1.8-.2,3.1h9.5l-.9.8h.1Z"/>
    <path class="st0" d="M1006,316.4v-28.1h8.4l.2,4.9h.5c.5-1.4,1.2-2.5,2-3.2.8-.8,1.8-1.3,2.9-1.6,1.1-.3,2.4-.5,3.9-.5v8.1c-2.3,0-4.1.3-5.4.9-1.3.6-2.3,1.6-2.8,3-.6,1.4-.8,3.4-.8,5.9v10.6h-8.9Z"/>
    <path class="st0" d="M1042.8,316.8c-2.6,0-4.8-.2-6.5-.5s-3.1-.9-4.1-1.6-1.8-1.7-2.2-2.8c-.5-1.1-.8-2.5-.9-4.1-.2-1.6-.2-3.4-.2-5.5s0-4.7.4-6.6c.3-1.8.8-3.4,1.7-4.5.8-1.2,2.2-2.1,4-2.6s4.2-.8,7.2-.8,4.5.2,6,.5c1.6.3,2.8.9,3.6,1.6.9.7,1.5,1.7,1.9,2.8.4,1.1.7,2.5.8,4.1s.2,3.4.2,5.5v2.1h-16.9c0,1.2,0,2.3.2,3,0,.8.4,1.3.9,1.7.5.4,1.2.6,2.2.7s2.4.2,4.1.2h2.6c.9,0,1.9,0,3-.2,1,0,2-.1,2.9-.2v6.2c-.8.2-1.8.3-2.9.5-1.2.1-2.4.2-3.7.3-1.3,0-2.6.1-3.9.1h-.4,0ZM1046.1,300.8v-.8c0-1.3,0-2.4-.2-3.2,0-.8-.3-1.4-.7-1.7-.3-.4-.7-.6-1.3-.7s-1.2-.2-2-.2-1.8,0-2.4.2c-.6.1-1,.4-1.3.8s-.5,1-.6,1.8-.2,1.8-.2,3.1h9.5l-.9.8h.1Z"/>
    <path class="st0" d="M1061.5,316.4v-28.1h8.4l.2,3.4h.5c.6-1,1.2-1.8,2-2.3.8-.6,1.7-.9,2.8-1.2,1-.2,2.2-.4,3.3-.4,1.9,0,3.4.2,4.5.7s2,1.2,2.6,2.1,1,2.1,1.2,3.4.3,2.9.3,4.7v17.6h-8.8v-18.5c0-.9-.2-1.5-.5-1.9s-.7-.7-1.2-.8c-.5-.1-1.2-.2-2.1-.2s-1.7.1-2.3.3c-.6.2-1,.6-1.2,1.1-.3.5-.4,1.2-.6,2,0,.8-.2,1.9-.2,3.3v14.6h-8.8v.2h-.1Z"/>
    <path class="st0" d="M1106.5,316.8c-2.4,0-4.3-.2-5.8-.6s-2.7-1-3.6-1.8-1.5-1.8-1.9-2.9c-.4-1.2-.7-2.5-.8-4.1,0-1.5-.2-3.2-.2-5s0-3.5.2-5c0-1.5.4-2.9.9-4.1.4-1.2,1.1-2.2,2-3s2.1-1.4,3.6-1.8,3.4-.6,5.7-.6,2.9,0,4.4.2c1.5.1,2.8.4,4,.7v6.3c-.7-.1-1.7-.3-2.8-.4-1.1,0-2.2-.1-3.3-.1s-2.3.1-3,.3c-.8.2-1.3.6-1.7,1.1-.3.5-.6,1.3-.7,2.3s-.2,2.4-.2,4,0,3,.2,4.1c0,1,.4,1.8.7,2.3s.9.9,1.7,1.1c.8.2,1.8.3,3.1.3s1.8,0,2.9-.1c1.1,0,2.2-.2,3.2-.4v6.3c-1.2.3-2.6.5-4.1.6-1.5.2-3,.2-4.5.2h0Z"/>
    <path class="st0" d="M1134.9,316.8c-2.6,0-4.8-.2-6.5-.5s-3.1-.9-4.1-1.6-1.8-1.7-2.2-2.8c-.5-1.1-.8-2.5-.9-4.1-.2-1.6-.2-3.4-.2-5.5s0-4.7.4-6.6c.3-1.8.8-3.4,1.7-4.5.8-1.2,2.2-2.1,4-2.6,1.8-.6,4.2-.8,7.2-.8s4.5.2,6,.5c1.6.3,2.8.9,3.6,1.6.9.7,1.5,1.7,1.9,2.8.4,1.1.7,2.5.8,4.1s.2,3.4.2,5.5v2.1h-16.9c0,1.2,0,2.3.2,3,0,.8.4,1.3.9,1.7s1.2.6,2.2.7,2.4.2,4.1.2h2.6c.9,0,1.9,0,3-.2,1,0,2-.1,2.9-.2v6.2c-.8.2-1.8.3-2.9.5-1.2.1-2.4.2-3.7.3-1.3,0-2.6.1-3.9.1h-.4,0ZM1138.2,300.8v-.8c0-1.3,0-2.4-.2-3.2,0-.8-.3-1.4-.7-1.7-.3-.4-.7-.6-1.3-.7-.6-.1-1.2-.2-2-.2s-1.8,0-2.4.2c-.6.1-1,.4-1.3.8s-.5,1-.6,1.8-.2,1.8-.2,3.1h9.5l-.9.8h0Z"/>
  </g>
  <path class="st0" d="M1171.1,304"/>
  <g>
    <path class="st0" d="M948,204.7c-2,4.5-4.2,9-6.6,13.4-2.4,4.4-4.8,8.6-7.4,12.5-2.6,3.9-5.2,7.5-7.9,10.9-2.7,3.3-5.3,6.2-8,8.6-2.6,2.4-5.2,4.3-7.7,5.6-2.5,1.4-4.9,2-7.1,2s-1.8-.2-2.6-.5-1.5-.8-2.1-1.3c-.6-.6-1-1.3-1.4-2-.3-.8-.5-1.6-.5-2.6v-23.8l-25.3,28.3c-.7.7-1.4,1.1-2.1,1.4-.8.3-1.6.5-2.4.5s-1.7-.2-2.5-.5-1.4-.8-2-1.3c-.6-.6-1.1-1.3-1.4-2-.3-.8-.5-1.6-.5-2.6v-20.3h12.8v3.9l25.4-28.4c.9-.9,2-1.5,3.3-1.7s2.5-.1,3.7.4,2.2,1.3,2.9,2.3c.7,1.1,1.1,2.2,1.1,3.5v30.3c2.7-2.6,5.2-5.4,7.5-8.4,2.2-2.9,4.3-6,6.2-9.1s3.7-6.3,5.4-9.5,3.3-6.4,4.9-9.6h14.3,0Z"/>
    <path class="st0" d="M1006,239.8c0,2.2-.3,4.2-.8,5.9-.6,1.8-1.3,3.3-2.2,4.6s-2,2.5-3.2,3.4-2.5,1.7-3.8,2.3-2.7,1-4,1.3c-1.4.3-2.6.4-3.9.4h-23c-1.8,0-3.7-.3-5.8-.9-2.1-.6-4-1.6-5.8-3.1-1.8-1.4-3.3-3.3-4.5-5.5-1.2-2.3-1.8-5.1-1.8-8.4v-17.3c0-3.3.6-6,1.8-8.3s2.7-4.1,4.5-5.5,3.7-2.4,5.8-3.1c2.1-.6,4-.9,5.8-.9h23c3.3,0,6.1.6,8.3,1.8,2.3,1.2,4.1,2.7,5.5,4.4,1.4,1.8,2.4,3.7,3.1,5.8.6,2.1,1,4,1,5.8v17.3h0ZM993.3,222.6c0-1.8-.4-3.1-1.3-3.9-.9-.8-2.2-1.3-3.8-1.3h-22.9c-1.7,0-3,.4-3.9,1.3-.9.9-1.3,2.1-1.3,3.8v17.3c0,1.7.4,2.9,1.3,3.8s2.2,1.3,3.9,1.3h22.9c1.7,0,3-.4,3.9-1.3.8-.9,1.3-2.2,1.3-3.8v-17.2h-.1Z"/>
    <path class="st0" d="M1057.6,217.4h-27c-1.7,0-3,.4-3.9,1.3-.9.9-1.3,2.1-1.3,3.8v35.2h-12.8v-35.2c0-2.2.3-4.2.8-5.9.6-1.7,1.3-3.3,2.2-4.6s2-2.5,3.2-3.4,2.5-1.7,3.8-2.3,2.7-1,4-1.3c1.4-.3,2.6-.4,3.8-.4h27.1v12.8h.1Z"/>
    <path class="st0" d="M1087,257.7h-5.7c-1.8,0-3.8-.3-5.9-.9-2.1-.6-4-1.6-5.8-3.1-1.8-1.4-3.3-3.3-4.5-5.5-1.2-2.3-1.8-5.1-1.8-8.4v-57.5h12.8v57.5c0,1.6.5,2.8,1.5,3.8,1,.9,2.2,1.4,3.7,1.4h5.7v12.8h0Z"/>
    <path class="st0" d="M1149.3,239.8c0,2.2-.3,4.2-.8,5.9-.6,1.8-1.3,3.3-2.2,4.6-.9,1.3-2,2.5-3.2,3.4s-2.5,1.7-3.8,2.3-2.7,1-4,1.3c-1.4.3-2.6.4-3.9.4h-23c-2.2,0-4.2-.3-5.9-.8-1.7-.6-3.3-1.3-4.6-2.2-1.3-.9-2.5-2-3.4-3.2s-1.7-2.5-2.3-3.8c-.6-1.3-1-2.7-1.3-4-.3-1.4-.4-2.6-.4-3.8v-17.3c0-3.3.6-6,1.8-8.3,1.2-2.3,2.7-4.1,4.5-5.5s3.7-2.4,5.8-3.1c2.1-.6,4-.9,5.8-.9h23v12.8h-22.9c-1.7,0-3,.4-3.9,1.3-.9.9-1.3,2.1-1.3,3.8v17.2c0,1.7.4,3,1.3,3.9s2.1,1.3,3.8,1.3h23c1.7,0,3-.4,3.9-1.3.8-.9,1.3-2.2,1.3-3.8v-57.5h12.8v57.5-.2h-.1Z"/>
  </g>
  <path class="st0" d="M873.4,231h-12.8v-5.1c0-4-3-7-7.2-7H0v-12.8h853.4c11.2,0,19.9,8.7,19.9,19.7v5.1h0Z"/>
  <rect class="st0" x="1145.8" y="205.2" width="854.2" height="11.9"/>
  <path class="st0" d="M1221.7,254.8h-38c-7.8,0-14.2,6.3-14.2,14.2v38c0,9.3,8.8,16.1,17.8,13.7,23.4-6.3,41.8-24.7,48.1-48.1,2.4-9-4.4-17.8-13.7-17.8h0ZM1208.1,258.5c.7,0,1.3.6,1.3,1.3s-.3,1-.8,1.2v4.3l-26.1,26.1v.4c0,.7-.6,1.3-1.3,1.3s-1.3-.6-1.3-1.3.6-1.3,1.3-1.3.4,0,.6.1l25.8-25.8v-3.9c-.5-.2-.8-.7-.8-1.2s.6-1.3,1.3-1.3h0ZM1175,266.2c.6,0,1.1.4,1.3,1h13.3c0-.6.7-1,1.3-1s1.3.6,1.3,1.3-.6,1.3-1.3,1.3-.9-.2-1.1-.6h-13.6c-.2.4-.6.6-1.1.6s-1.3-.6-1.3-1.3.6-1.3,1.3-1.3h-.1ZM1175,273.9c.6,0,1.1.4,1.3,1h13.3c0-.6.7-1,1.3-1s1.3.6,1.3,1.3-.6,1.3-1.3,1.3-.9-.2-1.1-.6h-13.6c-.2.4-.6.6-1.1.6s-1.3-.6-1.3-1.3.6-1.3,1.3-1.3h-.1ZM1175,297.7c.6,0,1.1.4,1.3.9h7.6l30.1-30.1c0-.2-.2-.4-.2-.6,0-.7.6-1.3,1.3-1.3s1.3.6,1.3,1.3-.6,1.3-1.3,1.3-.2,0-.4,0l-30.4,30.4h-8.1c-.2.4-.7.7-1.2.7s-1.3-.6-1.3-1.3.6-1.3,1.3-1.3h0ZM1202.6,303.2l-2.1-2.1,2.1-2.1,2.1,2.1-2.1,2.1ZM1206.4,299.3l-2.1-2.1,2.1-2.1,2.1,2.1-2.1,2.1ZM1210.2,295.5l-2.1-2.1,2.1-2.1,2.1,2.1-2.1,2.1ZM1214,291.7l-2.1-2.1,2.1-2.1,2.1,2.1-2.1,2.1ZM1217.8,287.9l-2.1-2.1,2.1-2.1,2.1,2.1-2.1,2.1ZM1222.8,261v10.3l-35.6,35.6h-11.1c-.2.4-.7.7-1.1.7-.7,0-1.3-.6-1.3-1.3s.6-1.3,1.3-1.3,1.1.4,1.3,1h10.6l35-35v-9.8c-.5-.2-.9-.7-.9-1.2s.6-1.3,1.3-1.3,1.3.6,1.3,1.3-.3,1-.8,1.2v-.2h0Z"/>
  <path class="st0" d="M767.4,272.6c6.3,23.4,24.7,41.8,48.1,48.1,9,2.4,17.8-4.4,17.8-13.7v-38c0-7.8-6.3-14.2-14.2-14.2h-38c-9.3,0-16.1,8.8-13.7,17.8h0ZM796.1,259.8c0,.5-.3,1-.8,1.2v3.9l25.8,25.8c.2,0,.4-.1.6-.1.7,0,1.3.6,1.3,1.3s-.6,1.3-1.3,1.3-1.3-.6-1.3-1.3,0-.3,0-.4l-26.1-26.1v-4.3c-.5-.2-.8-.7-.8-1.2s.6-1.3,1.3-1.3,1.3.6,1.3,1.3h0ZM829.1,267.6c0,.7-.6,1.3-1.3,1.3s-.9-.2-1.1-.6h-13.6c-.2.4-.6.6-1.1.6s-1.3-.6-1.3-1.3.6-1.3,1.3-1.3,1.1.4,1.3,1h13.3c0-.6.7-1,1.3-1s1.3.6,1.3,1.3h-.1ZM829.1,275.2c0,.7-.6,1.3-1.3,1.3s-.9-.2-1.1-.6h-13.6c-.2.4-.6.6-1.1.6s-1.3-.6-1.3-1.3.6-1.3,1.3-1.3,1.1.4,1.3,1h13.3c0-.6.7-1,1.3-1s1.3.6,1.3,1.3h-.1ZM829.1,299.1c0,.7-.6,1.3-1.3,1.3s-1-.3-1.2-.7h-8.1l-30.4-30.4h-.4c-.7,0-1.3-.6-1.3-1.3s.6-1.3,1.3-1.3,1.3.6,1.3,1.3,0,.4-.2.6l30.1,30.1h7.6c.2-.5.7-.9,1.3-.9s1.3.6,1.3,1.3h0ZM798.2,301.1l2.1-2.1,2.1,2.1-2.1,2.1-2.1-2.1ZM794.4,297.3l2.1-2.1,2.1,2.1-2.1,2.1-2.1-2.1ZM790.5,293.5l2.1-2.1,2.1,2.1-2.1,2.1-2.1-2.1ZM786.7,289.7l2.1-2.1,2.1,2.1-2.1,2.1-2.1-2.1ZM782.9,285.9l2.1-2.1,2.1,2.1-2.1,2.1-2.1-2.1ZM779.2,259.8c0-.7.6-1.3,1.3-1.3s1.3.6,1.3,1.3-.4,1.1-.9,1.2v9.8l35,35h10.6c.2-.6.7-1,1.3-1s1.3.6,1.3,1.3-.6,1.3-1.3,1.3-.9-.3-1.1-.7h-11.1l-35.6-35.6v-10.3c-.4-.2-.8-.7-.8-1.2v.2h0Z"/>
  <path class="st1" d="M852.7,346.7"/>
</svg>