<?xml version="1.0" encoding="UTF-8"?>
<svg id="_レイヤー_1" data-name="レイヤー_1" xmlns="http://www.w3.org/2000/svg" version="1.1" viewBox="0 0 800 200">
  <!-- Generator: Adobe Illustrator 29.0.0, SVG Export Plug-In . SVG Version: 2.1.0 Build 186)  -->
  <defs>
    <style>
      .st0 {
        fill: #fff;
      }
    </style>
  </defs>
  <path class="st0" d="M226.9,81.5h-48.7l-6.6,11.4h-4v4.9h40l6.6-11.4h12.7v-4.9ZM181.5,86.4c-.8,0-1.4-.6-1.4-1.4s.6-1.4,1.4-1.4,1.4.6,1.4,1.4-.7,1.4-1.4,1.4ZM187.6,86.4c-.8,0-1.4-.6-1.4-1.4s.6-1.4,1.4-1.4,1.4.6,1.4,1.4-.6,1.4-1.4,1.4ZM193.7,86.4c-.8,0-1.4-.6-1.4-1.4s.6-1.4,1.4-1.4,1.4.6,1.4,1.4-.6,1.4-1.4,1.4ZM199.9,86.4c-.8,0-1.4-.6-1.4-1.4s.6-1.4,1.4-1.4,1.4.6,1.4,1.4-.7,1.4-1.4,1.4ZM206,86.4c-.8,0-1.4-.6-1.4-1.4s.6-1.4,1.4-1.4,1.4.6,1.4,1.4-.6,1.4-1.4,1.4ZM76.3,80.5l70.4-34.2,4.3-9-20.4,9.7v5.8h-1v-6.4l22.1-10.5,2-4.2-52.1,24.9-.4-.9,53.2-25.4h0c0-.1,25.2-12.2,25.2-12.2l-2.2-4.3-114.1,54.8,6.1-13.7-7.3-12.1,12.1-27.1-4.3-2L3.1,162.4l7.1,12.1-6.1,13.6,4.5,2,50.6-112.5-4,21.1,63.8,35.8,12.1.3,14.3,8.1,6.2-2.2-49.8-26.3.5-.9,50.6,26.7h.1l15.2,8.4,2.3-4.2-96.8-54.3,2.6-9.6ZM627.3,28l.2,27.4h-1.3v1.6c0,1.8,1.5,3.3,3.4,3.3h8v-1.3h5.1v1.3h4.3v-1.3h4.8v1.2h8c1.8,0,3.3-1.6,3.3-3.5v-1.6h-1.4l-.2-27.4h1.2v-1.6c0-1.8-1.5-3.3-3.4-3.3h-8v1.6h-4.6v-1.5h-4.3v1.5h-5.1v-1.5h-8c-1.8.1-3.3,1.6-3.3,3.5v1.6h1.3ZM629.9,25l28.7-.2c1.2,0,2.2,1,2.2,2.2l.2,29.1c0,1.2-1,2.2-2.2,2.2l-28.7.2c-1.2,0-2.2-1-2.2-2.2l-.2-29.1c0-1.2,1-2.2,2.2-2.2ZM120.9,135.6l17.5,9.8,5.8-2-13.3-7.6-10-.2ZM158.9,112.4l-5-6.8,19.4-33.6h34.7l6.8-5.5h-17.9c0,0-5,3.3-5,3.3l-.5-.8,5.2-3.3h19.4c0,0,4.6-3.8,4.6-3.8h-39.8v-1h41.2c0,0,15.5,0,15.5,0v-4.9h-73.2l-30.1,50.8,17.9,24.2,31.2-6.9,4.7-13,15-3.5-1.2-4.8-42.9,9.7ZM243.4,112.4l-5-6.8,19.4-33.6h34.7l6.8-5.5h-18.9c0,0-5,3.3-5,3.3l-.5-.8,5.2-3.3h20.4c0,0,4.6-3.8,4.6-3.8h-39.7v-1h41.2c0,0,15.4,0,15.4,0v-4.9h-73.2l-30.1,50.8,17.9,24.2,31.2-6.9,4.7-12.8,15-3.5-1.2-4.8-42.9,9.5ZM496.6,143l19.3,10.8,5.7-2-15.2-8.6-9.8-.2ZM453.8,88.9l70.4-34.2,4.1-8.6-21,10v5.8h-1v-6.4l22.7-10.8,2-4.2-52.7,25.1-.4-.9,53.8-25.6.2-.5,25.2-12.1-2.2-4.3-114.1,54.8,6.1-13.7-7.3-12.1,12.1-27.1-4.3-2-66.8,148.7,7.1,12.1-6.1,13.6,4.5,2,50.6-112.5-4,21.1,62,34.8,11.9.3,16.2,9.2,6.2-2.2-51.7-27.2.5-.9,52.5,27.7h0l15.2,8.4,2.3-4.2-96.7-54.4,2.6-9.7ZM399.5,76.3l-18.9,6.9h-25.4v4.9h31.8l.6,2-67.8,37.4-3.5-3.9,55.5-76.9.8-19-18.2,26.1-.8-.6,19.1-27.4v-.2l14.9-20.7-4-2.9-88.4,123.1,21.2,22.6,93.6-51.3-10.5-20.1ZM317.4,135.7l-9.6-11.3,13.5-19.7.8.6-13.1,19,9.1,10.7-.7.7ZM311.4,86.4v-4.9h-48.7l-6.6,11.4h-4v4.9h40l6.6-11.4h12.7ZM266,86.4c-.8,0-1.4-.6-1.4-1.4s.6-1.4,1.4-1.4,1.4.6,1.4,1.4-.7,1.4-1.4,1.4ZM272.1,86.4c-.8,0-1.4-.6-1.4-1.4s.6-1.4,1.4-1.4,1.4.6,1.4,1.4-.6,1.4-1.4,1.4ZM278.2,86.4c-.8,0-1.4-.6-1.4-1.4s.6-1.4,1.4-1.4,1.4.6,1.4,1.4-.6,1.4-1.4,1.4ZM284.4,86.4c-.8,0-1.4-.6-1.4-1.4s.6-1.4,1.4-1.4,1.4.6,1.4,1.4-.7,1.4-1.4,1.4ZM290.5,86.4c-.8,0-1.4-.6-1.4-1.4s.6-1.4,1.4-1.4,1.4.6,1.4,1.4-.6,1.4-1.4,1.4ZM654.7,54.4v-2.5h-20.2v2.6h20.2ZM657.2,48h-.8v6.5h1l.5.3h1.1v-6.5h-1.2l-.6-.3ZM657.1,33.5l.5.3h1.1v-6.5h-1.2l-.6-.3h-.8v6.5h1ZM662.9,130.3l14.8-.3,6.5-6.6,13.2-.3,1.7-4.2-26.2.6v-1l26.6-.6h0l13.9-.3v-4.9c0,0-41.3,1-41.3,1l-2.4-4,9.7-28.8,29.7-4.8,9.9-11.3,9.4,10.3,3.6-3.3-13-14-52.2,8.5-15.5,45.9,11.6,18.1ZM651.7,37.5v7.2h-2.7v3.2h5.9v-13.5h-6v3.2h2.8ZM694.6,129.6l2.3-5.6-12.3.3-5.5,5.6,15.5-.3ZM593.5,27.6l-4.9,3.8,11.1,14h0c0,0,12.3,15.1,12.3,15.1l-11.2,33.1-.9-.3,11-32.6-11.6-14.1-3.5,10,4,5.2-17.9,51.3-46.1.6-2.4-6,51-30.7h7.3v-5h-9.8c0,0-25.3,14.6-25.3,14.6l-.5-.9,25.1-14.4-4.5-8.8-64.4,39.5,11.4,28.5h69.1l25.2-71.9-24.5-31ZM585,122.9l-.9-.3,17.8-53.1.9.3-17.8,53.1ZM639.8,39.5v3.4h3.2v3.2h3.4v-3.2h3.2v-3.4h-3.2v-3.2h-3.4v3.2h-3.2ZM631.3,48.5h-1.1v6.5h1.2l.5-.3h.9v-6.5h-.9l-.6.3ZM631.2,34l.5-.3h.9v-6.5h-.9l-.6.3h-1.1v6.5h1.2ZM634.6,43.1v4.9h5.9v-3.2h-2.7v-2.1h0v-5.1h2.7v-3.2h-5.9v8.7h0ZM794.8,55h-1.4l-.2-27.4h1.2v-1.6c0-1.8-1.5-3.3-3.4-3.3h-8v1.6h-4.6v-1.5h-4.3v1.5h-5.1v-1.5h-8c-1.8.1-3.3,1.6-3.3,3.5v1.6h1.3l.2,27.4h-1.3v1.6c0,1.8,1.5,3.3,3.4,3.3h8v-1.3h5.1v1.3h4.3v-1.3h4.8v1.2h8c1.8,0,3.3-1.6,3.3-3.5v-1.6ZM790.7,58.2l-28.7.3c-1.2,0-2.2-1-2.2-2.2l-.2-29.1c0-1.2,1-2.2,2.2-2.2l28.7-.2c1.2,0,2.2,1,2.2,2.2l.2,29.1c0,1.1-1,2.1-2.2,2.1ZM766.4,48h5.9v-3.2h-2.7v-7.3h2.7v-3.2h-5.9v8.3c0,0,0,5.4,0,5.4ZM771.5,39.5v3.4h3.2v3.2h3.4v-3.2h3.2v-3.4h-3.2v-3.2h-3.4v3.2h-3.2ZM622,149.7l23.4-67-8.5-7.3-3.9,11.6-.9-.3,4.2-12.4h0l2.3-6.4-4.6-1.6-23.6,67,9.3,8-2.3,6.8,4.6,1.6ZM637.1,86c.2-.7,1-1.1,1.7-.9s1.1,1,.9,1.7c-.2.7-1,1.1-1.7.9s-1.1-1-.9-1.7ZM635.3,91.9c.2-.7,1-1.1,1.7-.9s1.1,1,.9,1.7c-.2.7-1,1.1-1.7.9s-1.1-1-.9-1.7ZM633.4,97.7c.2-.7,1-1.1,1.7-.9s1.1,1,.9,1.7c-.2.7-1,1.1-1.7.9-.7-.2-1.1-1-.9-1.7ZM631.6,103.6c.2-.7,1-1.1,1.7-.9s1.1,1,.9,1.7c-.2.7-1,1.1-1.7.9s-1.1-1-.9-1.7ZM629.8,109.4c.2-.7,1-1.1,1.7-.9s1.1,1,.9,1.7c-.2.7-1,1.1-1.7.9-.8-.2-1.2-1-.9-1.7ZM627.4,115.2c.2-.7,1-1.1,1.7-.9s1.1,1,.9,1.7c-.2.7-1,1.1-1.7.9-.7-.2-1.1-1-.9-1.7ZM625.5,121c.2-.7,1-1.1,1.7-.9s1.1,1,.9,1.7c-.2.7-1,1.1-1.7.9-.8-.2-1.2-.9-.9-1.7ZM623.5,126.8c.2-.7,1-1.1,1.7-.9s1.1,1,.9,1.7c-.2.7-1,1.1-1.7.9s-1.1-.9-.9-1.7ZM621.6,132.7c.2-.7,1-1.1,1.7-.9.7.2,1.1,1,.9,1.7-.2.7-1,1.1-1.7.9-.8-.2-1.2-1-.9-1.7ZM763.4,33.7h.9v-6.5h-.9l-.6.3h-1.1v6.5h1.2l.5-.3ZM772.7,67.9l-4.6-1.6-23.6,67,9.3,8-2.3,6.8,4.6,1.6,23.4-67-9.3-8,2.5-6.8ZM758.4,133.5c-.2.7-1,1.1-1.7.9-.7-.2-1.1-1-.9-1.7.2-.7,1-1.1,1.7-.9.8.2,1.1,1,.9,1.7ZM760.3,127.7c-.2.7-1,1.1-1.7.9-.7-.2-1.1-1-.9-1.7.2-.7,1-1.1,1.7-.9.8.2,1.2,1,.9,1.7ZM762.3,121.9c-.2.7-1,1.1-1.7.9s-1.1-1-.9-1.7c.2-.7,1-1.1,1.7-.9.8.2,1.1,1,.9,1.7ZM764.3,116.1c-.2.7-1,1.1-1.7.9s-1.1-1-.9-1.7c.2-.7,1-1.1,1.7-.9s1.1,1,.9,1.7ZM766.6,110.2c-.2.7-1,1.1-1.7.9s-1.1-1-.9-1.7c.2-.7,1-1.1,1.7-.9.7.2,1.1,1,.9,1.7ZM768.4,104.4c-.2.7-1,1.1-1.7.9s-1.1-1-.9-1.7c.2-.7,1-1.1,1.7-.9.8.2,1.2,1,.9,1.7ZM770.3,98.5c-.2.7-1,1.1-1.7.9s-1.1-1-.9-1.7c.2-.7,1-1.1,1.7-.9s1.1,1,.9,1.7ZM771.4,86c.2-.7,1-1.1,1.7-.9s1.1,1,.9,1.7c-.2.7-1,1.1-1.7.9-.8-.2-1.2-1-.9-1.7ZM771.2,91c.7.2,1.1,1,.9,1.7-.2.7-1,1.1-1.7.9s-1.1-1-.9-1.7c.2-.8,1-1.2,1.7-.9ZM739.6,72.2l-20.3,60.7-.9-.3,20.7-61.8h0l5.5-15.5-4.6-1.6-30.2,86.1-2.2,1.6-62.8,1.7-9.6,10.8,44.1-1v1l-44.8,1v-.2l-.2.3-16.5.4v4.8c0,0,97.9-1.9,97.9-1.9l7.1-5.1,23-67-6.2-14ZM763.6,48.2l-.6.3h-1.1v6.5h1.2l.5-.3h.9v-6.5h-.9ZM789.4,33.8h1.1v-6.5h-1.2l-.6-.3h-.8v6.5h1l.5.3ZM789.5,48.3l-.6-.3h-.8v6.5h1l.5.3h1.1v-6.5h-1.2ZM786.6,34.3h-5.9v3.2h2.7v7.2h-2.7v3.2h5.9v-13.6ZM766.2,52v2.5l20.2-.2v-2.5l-20.2.2Z"/>
</svg>