<?xml version="1.0" encoding="utf-8"?>
<!-- Generator: Adobe Illustrator 27.2.0, SVG Export Plug-In . SVG Version: 6.00 Build 0)  -->
<svg version="1.1" id="レイヤー_1" xmlns="http://www.w3.org/2000/svg" xmlns:xlink="http://www.w3.org/1999/xlink" x="0px"
	 y="0px" viewBox="0 0 913 215" style="enable-background:new 0 0 913 215;" xml:space="preserve">
<style type="text/css">
	.st0{fill:#FFFFFF;}
</style>
<path class="st0" d="M329.7,107.5c-1.1,12.9-4.2,25.5-9.2,37.4c-4.6,11.1-11.1,21.3-19.2,30.2c-7.8,8.5-17.3,15.4-27.9,20.2
	c-10.9,5-22.8,7.5-34.8,7.4c-15.2,0.4-30.1-4.1-42.5-12.8c-11.9-8.6-20.8-20.6-25.7-34.4c-5.4-15.5-7.2-32-5.3-48.2
	c1.4-17,6.4-33.4,14.6-48.3c7.7-13.9,18.7-25.6,32.1-34.1c13.3-8.4,28.7-12.8,44.3-12.6c15-0.4,29.7,4,42.1,12.6
	c11.8,8.5,20.9,20.4,25.9,34.1c5.6,15.5,7.5,32,5.6,48.3V107.5z M296.4,105.8c1-9.5,0-19.1-3.1-28.2c-2.8-8.6-8-16.3-15.1-22
	c-7.1-5.8-16.1-8.8-25.3-8.6c-9.6,0-19.1,3-26.9,8.6c-8.1,5.6-14.6,13.2-19,22c-4.5,8.8-7.3,18.3-8.2,28.2c-0.3,5.7-0.3,11.4,0,17
	c0.3,5.8,1.6,11.4,3.7,16.8c2,5.2,4.6,10,7.9,14.4c3.4,4.4,7.8,7.8,12.9,10.1c5.8,2.7,12.2,4,18.5,3.9c8.1,0.1,16.1-1.8,23.2-5.6
	c6.7-3.6,12.5-8.7,16.8-15c4.2-6.2,7.6-12.9,10.1-19.9c2.4-7,3.9-14.2,4.6-21.6L296.4,105.8z M509.3,107.3
	c-1.1,12.9-4.2,25.5-9.3,37.4c-4.6,11.1-11.1,21.3-19.1,30.2c-7.9,8.5-17.4,15.4-28,20.2c-10.9,5-22.8,7.5-34.8,7.4
	c-15.2,0.4-30.1-4.1-42.5-12.8c-11.9-8.6-20.8-20.6-25.7-34.4c-5.4-15.5-7.2-32-5.3-48.2c1.4-17,6.4-33.4,14.6-48.3
	c7.6-13.9,18.7-25.6,32.1-34.1c13.3-8.4,28.7-12.8,44.4-12.6c15-0.4,29.7,4,42,12.6c11.9,8.5,20.9,20.4,25.9,34.1
	c5.6,15.4,7.6,32,5.7,48.3V107.3z M475.8,105.6c1-9.5,0-19.1-3-28.2c-2.8-8.6-8-16.3-15.1-22c-7.1-5.8-16.1-8.8-25.3-8.6
	c-9.6,0-19.1,3-26.9,8.6c-8.1,5.6-14.6,13.2-19,22c-4.5,8.8-7.3,18.3-8.2,28.2c-0.3,5.7-0.3,11.4,0,17c0.3,5.8,1.5,11.4,3.7,16.8
	c2,5.1,4.6,10,7.9,14.4c3.4,4.4,7.8,7.8,12.9,10.1c5.8,2.7,12.1,4,18.5,3.9c8.1,0.1,16.1-1.8,23.2-5.6c6.7-3.6,12.5-8.7,16.8-15
	c4.2-6.2,7.6-12.9,10.1-19.9c2.4-7,4-14.2,4.6-21.6L475.8,105.6z M588.7,46.7l-16.1,153.5h-36l16.1-153.5h-37.3l3.4-31.4h110.6
	L626,46.7H588.7z M673.9,91.7h60l8.1-76.4h36l-19.3,184.8h-36.1l8.2-79.1h-60l-8.2,79.1h-36l19.3-184.8h36L673.9,91.7z M93.9,15.3
	c17.9,0,31.2,4,40,11.9c8.7,8,12.1,20.7,10.3,38.4c-0.8,7.2-2.9,14.3-6.2,20.7c-3.1,6.2-7.8,11.4-13.7,15.1
	c6.5,1.1,12.4,4.4,16.8,9.3c4.4,4.7,7.4,10.5,8.9,16.8c1.5,6.6,1.9,13.4,1.1,20.2c-1.9,17.3-8.7,30.4-20.5,39.2
	c-11.8,8.8-26.5,13.2-44.2,13.2H9.5L28.8,15.3L93.9,15.3z M54,119.8l-5.4,51.5h27.9c4.4,0,8.2,0,11.3-0.4c3.3-0.3,6.6-0.9,9.8-1.9
	c3.1-0.9,6-2.4,8.6-4.4c2.5-2.2,4.5-4.8,5.8-7.8c1.8-3.8,2.9-7.8,3.4-11.9c0.5-4,0.1-8-1.2-11.8c-1-2.8-2.6-5.4-4.8-7.5
	c-2.5-1.9-5.4-3.3-8.4-3.9c-3.2-0.8-6.4-1.4-9.6-1.6c-2.8,0-6.5-0.2-11.1-0.2H54z M61.9,44.2l-5,48.1h24.7c9.1,0,16-1.8,20.4-5.3
	c4.5-3.5,7.2-9.8,8.2-19c1-9.2-0.6-15-4.7-18.5s-10.3-5.3-18.7-5.3H61.9z"/>
<path class="st0" d="M896.5,133.4V125l-20.9-33.4h-7.2L857,119l-11.2-23.5h-6.5l-18.9,44.8V97.8h-12.9v3.7h-9.9v13.1h9.9v37.8
	c0,1.6,0.6,3.2,1.8,4.3c1.1,1.1,2.7,1.8,4.3,1.8h6.4v41.6h13.2v-18.8c0.2-5.2,2.4-10.1,6.2-13.6c3.8-3.6,8.8-5.5,14-5.3
	c18.3,0,33.1,13.8,33.1,30.9v6.9h10v-37.4h9.8v-20.6L896.5,133.4z"/>
</svg>
