<?xml version="1.0" encoding="utf-8"?>
<!-- Generator: Adobe Illustrator 27.2.0, SVG Export Plug-In . SVG Version: 6.00 Build 0)  -->
<svg version="1.1" id="レイヤー_1" xmlns="http://www.w3.org/2000/svg" xmlns:xlink="http://www.w3.org/1999/xlink" x="0px"
	 y="0px" viewBox="0 0 120 40" style="enable-background:new 0 0 120 40;" xml:space="preserve">
<style type="text/css">
	.st0{fill:#FFFFFF;}
	.st1{fill:#555555;}
	.st2{fill:#E68F24;}
	.st3{fill:#A86B11;}
</style>
<g>
	<g>
		<ellipse class="st0" cx="22.3" cy="20.5" rx="18.7" ry="18.1"/>
		<path class="st1" d="M10.6,22.8c-0.6-0.6-0.9-1.5-0.9-2.6s0.3-2.2,0.9-2.6c0.5-0.5,1.1-0.7,1.9-0.7s1.4,0.3,1.9,0.7
			c0.6,0.6,0.9,1.5,0.9,2.6s-0.3,2.2-0.9,2.6c-0.5,0.5-1.1,0.7-1.9,0.7C11.7,23.4,11,23.3,10.6,22.8z M11.2,20.1
			c0,1.5,0.4,2.2,1.3,2.2c0.8,0,1.3-0.8,1.3-2.2c0-1.5-0.4-2.2-1.3-2.2C11.6,18,11.2,18.7,11.2,20.1z"/>
		<path class="st1" d="M30.4,22.8c-0.6-0.6-0.9-1.5-0.9-2.6s0.3-2.2,0.9-2.6c0.5-0.5,1.1-0.7,1.9-0.7s1.4,0.3,1.9,0.7
			c0.6,0.6,0.9,1.5,0.9,2.6s-0.3,2.2-0.9,2.6c-0.5,0.5-1.1,0.7-1.9,0.7C31.5,23.4,30.8,23.3,30.4,22.8z M31,20.1
			c0,1.5,0.4,2.2,1.3,2.2c0.9,0,1.3-0.8,1.3-2.2c0-1.5-0.4-2.2-1.3-2.2C31.4,18,31,18.7,31,20.1z"/>
		<g>
			<ellipse class="st2" cx="22.3" cy="22.4" rx="6" ry="5.8"/>
			<path class="st3" d="M26.5,23.3h-8.4c-0.5,0-1-0.4-1-0.9s0.4-0.9,1-0.9h8.4c0.5,0,1,0.4,1,0.9C27.5,22.9,27.1,23.3,26.5,23.3z"/>
		</g>
	</g>
	<g>
		<path class="st0" d="M63.9,28.9c0,0-4,0.1-5.2,0c-1.8-0.2-3.2-0.5-4.2-1.6c-1.1-1.1-1.6-2.4-1.6-4.1h16.4v-2.8
			c0-3.6-1-6.5-2.9-8.7c-2.1-2.3-4.9-3.5-8.5-3.5c-3.4,0-6.3,1.2-8.3,3.4c-2.2,2.3-3.2,5.6-3.2,9.7c0,8.7,4,13.1,12.1,13.1
			c1,0,5.3,0,5.3,0L63.9,28.9z M53.5,16.1c0.8-1.8,2.3-2.6,4.4-2.6s3.6,0.9,4.4,2.6c0.4,0.8,0.6,1.7,0.6,2.7h-10
			C52.9,17.9,53.1,16.9,53.5,16.1z"/>
		<path class="st0" d="M105,8.2c-0.4,0-4.6,0-5,0v5.4c0.3,0,4.4,0,4.7,0c3.2,0,4.9,1.4,4.9,4v1.3h-6.2c-2.9,0-5.2,0.7-6.7,2.1
			c-1.6,1.4-2.3,3.1-2.3,5.3c0,2.3,0.8,4.3,2.3,5.8c1.5,1.5,3.7,2.3,6.7,2.3c2.6,0,4.8-0.8,6.5-2.4V34h6.5V17.2
			C116.3,11.2,112.5,8.2,105,8.2z M109.6,24.6c0,1.3-0.2,2.3-0.6,2.8c-0.8,1.1-2.3,1.7-4.5,1.7c-2.5,0-3.8-1-3.8-2.9
			s1.2-2.9,3.6-2.9h5.2L109.6,24.6L109.6,24.6z"/>
		<path class="st0" d="M84.5,18.6l-4.1-0.4c-1.9-0.2-2.7-0.9-2.7-2.3c0-1.7,1.3-2.4,3.7-2.4c1.1,0,10.7,0,10.7,0V8.2
			c0,0-9.5,0-10.6,0c-2.8,0-5.2,0.7-7,2.1c-2.1,1.5-3.1,3.5-3.1,6.1c0,4.3,2.5,6.7,7.7,7.1l4.1,0.4c1.9,0.2,2.7,1,2.7,2.3
			c0,1.8-1.6,2.6-4.7,2.6c-0.8,0-9.5,0-9.5,0v5.5c0,0,8.6,0,9.4,0c3.2,0,5.9-0.7,7.9-2.1c2.2-1.5,3.2-3.5,3.2-6.3
			C92.3,21.5,89.7,19,84.5,18.6z"/>
	</g>
</g>
</svg>
