<?xml version="1.0" encoding="utf-8"?>
<!-- Generator: Adobe Illustrator 27.2.0, SVG Export Plug-In . SVG Version: 6.00 Build 0)  -->
<svg version="1.1" id="Foreground" xmlns="http://www.w3.org/2000/svg" xmlns:xlink="http://www.w3.org/1999/xlink" x="0px" y="0px"
	 viewBox="0 0 201.6 78" style="enable-background:new 0 0 201.6 78;" xml:space="preserve">
<style type="text/css">
	.st0{fill:none;stroke:#FFFFFF;stroke-width:0.5;stroke-miterlimit:10;}
	.st1{fill:#FFFFFF;}
</style>
<g>
	<path class="st0" d="M47.9,8.2c0.8-1.2,1.9-2.6,2.4-2.6c0.8,0,3.5,2.2,3.5,3.2c0,0.5-0.7,0.9-2.1,0.9H23c-0.5,0-0.8-0.1-0.8-0.7
		c0-0.5,0.3-0.7,0.8-0.7h13.7c0-1.7,0-3.7-0.1-4.9c0-0.4,0.2-0.5,0.5-0.5c0.6,0,4.2,0.1,4.2,1.1c0,0.8-0.8,1-1.9,1.3v3
		C39.4,8.2,47.9,8.2,47.9,8.2z M31.2,29.1c-1.9,1.7-4.6,3.8-7.7,4.8c-1,0.4-1.5-0.5-0.8-1.1c2.7-1.8,5.1-4,6.6-6.4
		c0.2-0.3,0.4-0.4,0.9-0.2c1.2,0.6,2.9,2,2.7,2.6C32.8,29.2,32.3,29.3,31.2,29.1L31.2,29.1z M40.5,22.8c-0.1,0.4-0.7,0.6-1.2,0.7
		l0,9.5c0,1.9-1.4,2.6-2.7,2.6s-0.8-1.2-3.4-1.9c-0.9-0.2-0.7-1.3,0-1.2c0.8,0.1,2.1,0.2,2.6,0.2c0.8,0,1-0.3,1-1
		c0.1-1.8,0-6.6-0.1-8.9h-4.9v0.9c0,0.8-0.6,1.1-1.7,1.1c-0.7,0-1-0.4-1-1c0-2.3,0.2-7.9-0.1-11c0-0.3,0.2-0.5,0.5-0.5
		c0.7,0.1,2.5,0.7,3.4,1.4h10.9c0.6-0.8,1.4-1.7,1.8-1.7c0.8,0,3,1.6,3,2.4c0,0.5-0.7,0.8-1.3,1.1c-0.1,2.3,0,6.2,0,7.3
		s-0.6,1.4-1.6,1.4c-0.9,0-1.2-0.7-1.2-1.2v-0.3L40.5,22.8L40.5,22.8z M31.8,21.4h12.7c0-1.8,0-4.5,0-6.1H31.9c0,0.9,0,3.2,0,3.8
		V21.4L31.8,21.4z M51.8,30.6c0.4,1.1,0,2.1-1,2.4c-1.1,0.3-1.9-0.8-3.1-2.1c-1-1.1-2.1-1.9-3-2.7c-0.7-0.6-0.5-1.5,0.6-1.4
		C47.9,27,51.1,28.5,51.8,30.6L51.8,30.6z"/>
	<path class="st0" d="M73.5,14.4c0.6-1.1,1.4-2.2,1.9-2.2c0.7,0,2.6,2.1,2.6,2.8c0,0.5-0.6,0.8-1.4,0.8H70c-1,1.4-2.2,2.7-3.5,3.9
		h4.6c0.5-0.7,1.1-1.3,1.4-1.3c0.7,0,2.8,1.6,2.8,2.3c0,0.5-0.6,0.8-1.2,1c-0.1,2.9,0.1,10.2,0.1,11.7c0,1.1-0.6,1.4-1.6,1.4
		c-0.8,0-1.1-0.7-1.1-1.2v-0.9h-6.8v1.7c0,0.8-0.5,1.2-1.6,1.2c-0.6,0-1-0.4-1-1c0-2,0.1-7.1,0.1-11.2c-1.4,1.1-3,2.1-4.6,3
		c-1,0.5-1.6-0.5-0.7-1.1c1.9-1.3,3.6-2.7,5.2-4.1c0-0.8-0.1-1.4-0.1-2c0-0.2,0.2-0.5,0.5-0.5c0.3,0,1,0.2,1.7,0.5
		c1-1,2.1-2.2,2.9-3.3h-9.1c-0.5,0-0.8-0.1-0.8-0.7c0-0.5,0.3-0.7,0.8-0.7h6.4c0-1.4,0-3,0-4.6h-4.9c-0.5,0-0.8-0.1-0.8-0.7
		c0-0.5,0.3-0.7,0.8-0.7h4.9c0-2-0.1-3.8-0.2-4.8c0-0.3,0.2-0.5,0.5-0.5c0.6,0,3.9,0.1,3.9,1c0,0.7-0.7,1-1.7,1.2v3.1h1.1
		c0.6-1,1.4-2,1.8-2c0.4,0,1.4,0.9,2,1.7c0.5-1.1,1-2.3,1.4-3.5c0.1-0.4,0.4-0.5,0.7-0.4c1.4,0.4,3.2,1.7,3.2,2.3
		c0,0.5-0.9,0.7-1.9,0.5c-1.3,2.5-2.7,5-4.4,7.3L73.5,14.4L73.5,14.4z M65.6,21.2c-0.2,0.1-0.5,0.1-0.8,0.2c0,0.8-0.1,2.6-0.1,4h6.9
		c0-1.7,0-3.3,0-4.2H65.6z M71.6,31.3l0-4.5h-6.9v0.5l0,4H71.6L71.6,31.3z M68.4,14.4c1-1.4,2-2.9,2.8-4.6h-4.1v4.6H68.4L68.4,14.4z
		 M86.3,5.3c0.6-0.7,1.2-1.3,1.6-1.3c0.6,0,2.9,1.9,2.9,2.9c0,0.5-0.6,0.8-1.6,1.2c-1.4,2.7-3.7,6.1-4.5,7.5c-0.3,0.5-0.2,0.7,0.2,1
		c2.6,2.5,4.8,4.4,4.8,9.2c0,3.1-1,5.8-4.3,5.8c-0.6,0-0.9-0.2-1.2-0.7c-0.5-0.7-1-1-1.8-1.3c-0.9-0.3-0.8-1.3,0-1.3
		c0.5,0,1.5,0.1,2.6,0.1c1.8,0,2.1-1.3,2.1-4.1c0-2.4-1.4-4.8-3.9-7.1c-0.7-0.7-0.7-1-0.2-2.1c1-1.9,2.9-6.3,3.4-8.5h-5.3
		C81,9.2,81,17.6,81,19.1c0,1.3,0.1,13.7,0.1,15.2c0,0.8-0.5,1.3-1.7,1.3c-0.7,0-1-0.4-1-1.1c0-4.5,0.5-24.8-0.1-30.2
		c0-0.2,0.2-0.5,0.5-0.5c0.5,0,2.8,0.8,3.7,1.6H86.3L86.3,5.3z"/>
	<path class="st1" d="M100.4,14.1c1,0.2,3.9,1.2,3.9,2.2c0,0.6-0.5,0.9-1.9,0.8c-1.1,2.3-3.3,6.6-7.4,9.8c-0.9,0.7-1.9-0.1-1.2-1
		c3-4,5.1-7.9,5.6-11.2C99.5,14.1,99.7,13.9,100.4,14.1L100.4,14.1z M113.5,5.3c0,0.6-0.6,0.9-1.8,1.3c-0.2,6.1-0.1,17.3-0.1,25.7
		c0,2.3-1.7,3.2-3.1,3.2c-1.3,0-0.8-1.4-4.2-2.2c-0.8-0.2-0.7-1.3,0.1-1.2c1.2,0.1,2.3,0.3,3,0.3c1,0,1.5-0.4,1.6-1.5
		c0.1-2.5,0.1-9.7,0.1-13.4c0-2.6,0-8.5-0.4-12.7c0-0.4,0.2-0.5,0.7-0.5C111,4.2,113.5,4.5,113.5,5.3L113.5,5.3z M118.5,14.5
		c4.8,1.9,7.7,5.5,7.7,7.9c0,1.1-0.5,2-1.7,2c-0.8,0-1.3-0.3-1.8-1.4c-1.6-3.3-2.5-4.7-5.2-7.4C116.9,15.1,117.5,14.1,118.5,14.5z"
		/>
	<path class="st1" d="M137.7,18.8c0,2.5,0.1,13.9,0.1,15.4c0,0.8-0.5,1.3-1.7,1.3c-0.7,0-1.1-0.4-1.1-1.1c0-1.6,0.3-11.7,0.4-14.7
		c-1.4,2.5-3.3,5-5.5,6.9c-0.9,0.7-1.8,0-1-0.9c2.8-3.5,5.1-7.7,6.1-11.9h-4.8c-0.5,0-0.8-0.1-0.8-0.7c0-0.5,0.3-0.7,0.8-0.7h5.1
		c0-3.3-0.2-6.8-0.5-8.6c0-0.3,0.1-0.5,0.5-0.5c2.3,0,4.2,0.2,4.2,1.1c0,0.6-0.7,1-1.8,1.2c0,1.3,0,4.1-0.1,6.8h1.1
		c0.7-1.2,1.6-2.4,2.1-2.4c0.7,0,2.8,2.2,2.8,3c0,0.6-0.8,0.8-1.6,0.8h-4.5L137.7,18.8L137.7,18.8z M141.7,24
		c-0.9-0.1-1.2-1-1.7-2.1c-0.3-0.8-0.8-1.6-1.2-2.3c-0.4-0.7,0-1.4,0.9-1c1.9,0.8,3.7,2.2,3.6,3.8C143.2,23.4,142.6,24,141.7,24z
		 M161.9,32.2c0,1.2-0.6,1.8-1.6,1.8c-0.8,0-1.1-0.4-1.5-1.3c-0.2-0.6-0.5-1.5-0.9-2.4c-3.9,1.2-8.6,1.9-14,2.4
		c-0.1,0.8-0.5,1.6-1.1,1.5c-0.7,0-1.4-1.7-1.6-3.6c0-0.3,0.1-0.5,0.4-0.5c1.7,0,3.4-0.1,4.9-0.1c1.5-3.9,2.7-8.8,3.1-12.1
		c0-0.3,0.3-0.5,0.6-0.4c1.7,0.4,3.7,1.2,3.7,1.9c0,0.5-0.8,0.7-1.5,0.8c-0.8,2.4-2.4,6.5-4,9.7c3.5-0.2,6.4-0.5,8.9-0.9
		c-0.6-1.1-1.3-2-2-2.9c-0.4-0.5,0.1-1.3,0.9-0.9C160.3,27.3,161.9,30.6,161.9,32.2L161.9,32.2z M141.7,18.4c2.4-2.7,4.3-5.7,5-8.5
		c0-0.4,0.3-0.6,0.6-0.5c1.2,0.2,3.4,1.3,3.4,2c0,0.6-0.6,0.8-1.7,0.7c-1.3,2.1-3.4,5.2-6.4,7.2C141.8,19.8,141.1,19.2,141.7,18.4
		L141.7,18.4z M153.1,5.6c0.5-0.7,1.1-1.3,1.4-1.3c0.8,0,2.6,1.7,2.6,2.3c0,0.4-0.5,0.8-1.3,1c1,4,3.1,6.3,6.8,8.3
		c0.7,0.4,0.6,0.9-0.1,1.2c-0.5,0.2-1,0.6-1.4,1c-0.4,0.5-0.8,0.5-1.6-0.1c-3-2.3-5.1-6.8-5.6-11.1h-7.1c-0.5,0-0.8-0.1-0.8-0.7
		c0-0.5,0.3-0.7,0.8-0.7H153.1L153.1,5.6z"/>
	<path class="st1" d="M28.4,62.5c-0.6,2.2-2.1,5.4-2.1,6.4c0,1.1,0.5,2,0.5,3.8c0,1.6-0.8,2.3-1.9,2.3s-1.4-1-1.4-1.6s0.4-2.2,0-3.1
		c-0.5-1.3-1.2-1.7-2.1-2.5c-0.6-0.5-0.1-1.3,0.5-1c0.5,0.1,1.2,0.4,1.6,0.5c0.4,0.1,0.6,0,0.9-0.5c0.7-1.1,1.9-3.6,2.6-4.7
		C27.5,61.2,28.6,61.6,28.4,62.5z M21.8,54.3c-0.7-0.7-0.4-1.5,0.7-1.3c2.2,0.2,4.4,1.1,4.8,2.9c0.2,1-0.3,1.8-1.3,2.1
		c-0.9,0.2-1.5-0.7-2.3-1.7C23.1,55.6,22.4,54.9,21.8,54.3z M28.7,49.3c-1,0.1-1.5-0.7-2.3-1.7c-0.5-0.8-1.2-1.4-1.8-2.1
		c-0.6-0.7-0.4-1.4,0.7-1.3c2.2,0.3,4.4,1.3,4.7,3.1C30.3,48.3,29.7,49.1,28.7,49.3L28.7,49.3z M48.9,58.8c0.8-1.2,1.8-2.6,2.4-2.6
		c0.8,0,3.4,2.3,3.4,3.2c0,0.5-0.7,0.9-2,0.9H41.2c1.1,0.5,2.3,1.2,2.3,1.8c0,0.6-0.7,0.7-1.8,0.6c-0.8,1.7-2.4,4.9-4.6,7.7
		c4.7-0.1,8.5-0.5,11.7-1c-0.7-1.1-1.3-2-2.2-2.9c-0.4-0.5,0-1.3,0.9-0.9c4.3,1.8,6.2,5.3,6.3,7.2c0,1.2-0.6,1.8-1.7,1.8
		c-0.8,0-1.2-0.4-1.6-1.4c-0.2-0.6-0.5-1.6-0.9-2.5c-4.1,1.2-9.5,2-16.1,2.4c-0.2,0.8-0.6,1.6-1.2,1.5c-0.8-0.1-1.2-1.8-1.4-3.7
		c0-0.3,0.1-0.5,0.4-0.4c1.4,0,2.7,0,3.9,0c2.1-3.5,3.6-7.1,4.2-10.1H30c-0.5,0-0.8-0.1-0.8-0.7c0-0.5,0.3-0.7,0.8-0.7h10.3
		c0-1.9,0-4.3,0-6.6h-8.3c-0.5,0-0.8-0.1-0.8-0.7c0-0.5,0.3-0.7,0.8-0.7h8.3c0-3-0.1-5.8-0.3-7.1c0-0.3,0.2-0.5,0.5-0.5
		c0.6,0,4.2,0.1,4.2,1c0,0.8-0.8,1.1-1.9,1.3v5.2h4.8c0.8-1.1,1.7-2.4,2.3-2.4c0.7,0,3.2,2.2,3.2,3.1c0,0.5-0.7,0.8-1.9,0.8h-8.4
		v6.5L48.9,58.8L48.9,58.8z"/>
	<path class="st1" d="M87.5,52.7c0.6-1,1.3-2,1.8-2c0.6,0,2.3,2,2.3,2.7c0,0.5-0.6,0.7-1.2,0.7h-3.6c0,2.2,0,4.4,0,5.1
		c0,1.1-0.5,1.4-1.5,1.4c-0.8,0-1-0.6-1-1.2v0h-5.5l0,3.6h5c0.7-1,1.6-2.2,2.1-2.2c0.6,0,3,2.1,3,2.9c0,0.5-0.6,0.8-1.8,0.8h-8.3
		l0,3.8h6.1c0.8-1.1,1.7-2.4,2.3-2.4c0.8,0,3.2,2.2,3.2,3.1c0,0.5-0.7,0.8-1.9,0.8h-9.6c0,2.2,0,4,0,4.5c0,0.8-0.5,1.3-1.7,1.3
		c-0.7,0-1.1-0.4-1.1-1.1c0-0.6,0-2.5,0.1-4.8h-9.4c-0.5,0-0.8-0.1-0.8-0.7c0-0.5,0.3-0.7,0.8-0.7h9.4l0.1-3.8h-8
		c-0.5,0-0.8-0.1-0.8-0.7c0-0.5,0.3-0.7,0.8-0.7h8.1c0-1.5,0.1-2.8,0.1-3.5v-0.1h-7.9c-0.5,0-0.8-0.1-0.8-0.7c0-0.5,0.3-0.7,0.8-0.7
		h7.9v-3.8h-7.7c-0.5,0-0.8-0.1-0.8-0.7c-0.2,0-0.5,0-0.8-0.1c-0.7,1-1.6,2.3-2.8,3.7c0.8,0.4,1.7,0.9,1.7,1.4
		c0,0.5-0.6,0.7-1.3,0.8c-0.1,1.4-0.1,5.9-0.1,6.9l0,8.3c0,0.8-0.5,1.1-1.6,1.1c-0.6,0-1-0.4-1-1c0-2.1,0.2-10.6,0-15
		c-1.3,1.4-2.9,2.8-4.5,4c-0.9,0.6-1.6-0.1-0.8-0.9c3.7-3.7,6.6-7.9,8.1-11.7c0.2-0.4,0.3-0.5,0.7-0.4c1,0.3,3.1,1.4,3.2,2.1h7.5
		c0-1.1-0.1-2.2-0.1-3.3h-7.3c-0.5,0-0.8-0.1-0.8-0.7c0-0.5,0.3-0.7,0.8-0.7h7.2c-0.1-1.7-0.2-3.2-0.4-4.2c-0.1-0.3,0.1-0.5,0.5-0.5
		c2.3,0,4.2,0.2,4.2,1.1c0,0.6-0.7,1-1.8,1.2c0,0.5,0,1.4,0,2.4h4.8c0.5-0.8,1.3-1.7,1.7-1.7c0.8,0,2.9,1.6,2.9,2.4
		c0,0.5-0.7,0.9-1.4,1.1v2.8L87.5,52.7L87.5,52.7z M57.7,51.8c3.2-2.6,5.7-5.5,7.1-8.4c0.2-0.3,0.4-0.5,0.8-0.4
		c1.1,0.4,3.2,1.7,3.1,2.4c-0.1,0.6-0.8,0.7-1.8,0.5c-1.4,1.7-4.6,5.1-8.3,7C57.6,53.4,57,52.6,57.7,51.8z M78.8,52.7h5.6v-3.3h-5.5
		L78.8,52.7L78.8,52.7z M84.3,54.1h-5.5v3.8h5.5L84.3,54.1L84.3,54.1z"/>
	<path class="st1" d="M121.6,63.9c0.7-1.1,1.6-2.2,2-2.2c0.7,0,2.8,2.1,2.8,2.9c0,0.5-0.6,0.8-1.6,0.8h-4.2c0,2.2,0,4.4,0,5.1
		c0,1.1-0.5,1.4-1.5,1.4c-0.8,0-1-0.6-1-1.2v-1h-7.1v2.7c0,2.3-1.6,3.2-3,3.2c-1.3,0-0.6-1.4-4.1-2.2c-0.8-0.2-0.6-1.3,0.1-1.3
		c1.2,0.1,2.3,0.3,3,0.3c1,0,1.5-0.3,1.6-1.5c0-0.4,0-0.8,0-1.3H97.6c-0.5,0-0.8-0.1-0.8-0.7c0-0.5,0.3-0.7,0.8-0.7h11.2v-2.8H94.1
		c-0.5,0-0.8-0.1-0.8-0.7c0-0.5,0.3-0.7,0.8-0.7h14.6v-2.8h-11c-0.5,0-0.8-0.1-0.8-0.7c0-0.5,0.3-0.7,0.8-0.7h11v-2.6H102v0.5
		c0,0.8-0.6,1.1-1.6,1.1c-0.6,0-0.9-0.3-0.9-1c0-1.9,0.1-5-0.1-7.7c0-0.3,0.2-0.5,0.5-0.5c0.6,0.1,2.2,0.7,2.9,1.3h5.9
		c0-0.8,0-1.7-0.1-2.5h-14c-0.5,0-0.8-0.1-0.8-0.7c0-0.5,0.3-0.7,0.8-0.7h14c0-1.2-0.1-2.4-0.2-3.5c0-0.4,0.2-0.5,0.7-0.5
		c1.8,0,4,0.2,4,1.1c0,0.6-0.5,0.9-1.9,1.3l0,1.6h9.3c0.8-1.1,1.7-2.4,2.3-2.4c0.7,0,3.3,2.1,3.3,3c0,0.5-0.5,0.8-2,0.8h-12.9l0,2.5
		h6.1c0.5-0.7,1.1-1.3,1.4-1.3c0.7,0,2.7,1.5,2.7,2.3c0,0.5-0.6,0.8-1.1,1c0,1.3,0,3.3,0,4.1c0,1.1-0.5,1.4-1.5,1.4
		c-0.8,0-1-0.6-1-1.2h-6.6v2.6h6.6c0.5-0.7,1.1-1.4,1.5-1.4c0.7,0,2.7,1.5,2.7,2.3c0,0.5-0.6,0.8-1.2,1v2.2L121.6,63.9L121.6,63.9z
		 M102,55.6h6.8v-3.3H102c0,0.6,0,1.9,0,2.4L102,55.6L102,55.6z M111.1,52.3v3.3h6.6l0.1-3.3H111.1L111.1,52.3z M111.1,63.9h7.1
		v-2.8h-7.1V63.9z M118.2,65.3h-7.1v2.8h7.1V65.3z"/>
	<path class="st1" d="M140.7,55.8c0.6-0.7,1.3-1.3,1.7-1.3c0.6,0,2.6,1.8,2.6,2.9c0,0.6-0.9,0.7-1.8,0.9c-1.3,1.2-2.9,2.8-4.4,4.1
		c0.8,1.8,1.1,3.8,1.1,6.2c0,5-2.2,7-4.4,7c-0.8,0-1-0.3-1.4-0.8c-0.4-0.6-0.6-0.7-1.4-1.1c-0.8-0.3-0.7-1.2,0.2-1.1
		c0.8,0.1,1.6,0.2,2.5,0.2c1.2,0,2.2-1.3,2.2-4.5c0-1.8-0.2-3.5-0.8-5c-0.1,0.1-0.2,0.1-0.3,0.1c-1.6,3.1-3.5,5.6-6.6,7.8
		c-0.8,0.6-1.5-0.1-0.9-0.8c2.3-2.4,4.2-4.9,5.5-8.6c0.1-0.3,0.3-0.5,0.6-0.4c0.4,0.1,0.8,0.2,1.1,0.4c-0.5-1-1-1.9-1.8-3
		c-0.7-0.9,0.3-1.8,1.1-1c1,1,1.8,2.1,2.4,3.2c1-1.2,1.9-2.5,2.7-3.6h-10.3c-0.5,0-0.8-0.1-0.8-0.7c0-0.5,0.3-0.7,0.8-0.7
		L140.7,55.8L140.7,55.8z M130.9,46.9c-0.5,0-0.8-0.1-0.8-0.7c0-0.5,0.3-0.7,0.8-0.7h9.5c0.6-0.7,1.4-1.4,1.8-1.3
		c0.6,0,2.8,1.9,2.8,2.9c0,0.7-1,0.7-1.9,0.9c-1.3,0.9-2.9,2.2-4.5,3.3c0.5,0.5,0.9,1.1,1,1.5c0.3,1-0.1,1.7-0.9,1.9
		c-0.6,0.2-1.1,0-1.6-0.7c-0.5-0.6-1-1.4-1.8-2.3c-0.7-0.7-1.4-1.5-2.2-2.1c-0.5-0.4-0.2-1.1,0.6-1c1.6,0.4,2.8,0.9,3.7,1.5
		c1-1.1,2.1-2.3,2.9-3.4L130.9,46.9L130.9,46.9z M157.4,64c0.5-0.6,1-1.1,1.3-1.1c0.8,0,2.8,1.6,2.8,2.2c0,0.4-0.6,0.9-1.3,1.3
		c-0.1,2.4-0.4,5.3-1,6.6c-0.7,1.3-1.7,2.3-3.9,2.3c-1.1,0-1.3-0.4-1.5-0.9s-0.8-0.7-1.3-0.9c-0.5-0.2-0.6-0.4-0.5-0.8
		c0.1-0.3,0.3-0.5,0.7-0.4c0.9,0.1,1.6,0.2,2.7,0.2c1.2,0,1.7-0.9,1.8-1c0.4-1,0.8-4.1,0.8-5.9h-5.1c-1.1,5.8-5,8.6-11.8,10
		c-1.1,0.2-1.3-0.9-0.3-1.2c5.4-1.8,8.6-4,9.5-8.8h-7.2c-0.5,0-0.8-0.1-0.8-0.7c0-0.5,0.3-0.7,0.8-0.7h7.4c0.1-1,0.1-2.2,0-3.5
		c0-0.5,0.1-0.6,0.6-0.6c1.2,0,3.5,0.4,3.5,1.1c0,0.5-0.2,0.8-1.4,1.1c0,0.7,0,1.3-0.1,1.9L157.4,64L157.4,64z M158.3,49.5
		c0.5,0.3,0.8,0.7,0.8,0.9c0,0.4-0.5,0.6-1.6,0.7c-0.8,1.8-1.7,3.3-2.9,4.8c2.2,1.1,4.8,1.8,7.7,2.1c1.1,0.1,1,0.8,0.1,1
		c-0.9,0.3-1.2,0.6-1.6,1.1c-0.4,0.5-0.7,0.9-1.8,0.5c-2.5-0.6-4.6-1.6-6.4-2.9c-2.6,2-5.9,3.5-10.7,4.4c-1.1,0.2-1.3-0.9-0.3-1.2
		c4.4-1.2,7.2-2.7,9.4-4.6c-1.5-1.5-2.7-3.3-3.5-5.5c-1,1.2-2.1,2.3-3.5,3.2c-0.9,0.6-1.6-0.1-0.9-0.9c2.8-3.1,4.8-6.5,5.5-9.5
		c0.1-0.4,0.3-0.6,0.7-0.5c1.2,0.2,3.3,1.1,3.3,1.8c0,0.5-0.5,0.8-1.6,0.7c-0.4,0.7-0.8,1.5-1.4,2.4h8.1c0.6-1,1.5-2,1.9-2
		c0.6,0,2.9,1.9,3,2.7c0,0.5-0.6,0.7-1.8,0.7L158.3,49.5L158.3,49.5z M148.5,49.6c0.9,2.1,2.4,3.7,4.2,5.1c1.3-1.5,2.1-3.1,2.7-5.2
		L148.5,49.6L148.5,49.6L148.5,49.6z"/>
	<path class="st1" d="M171,62.8c-0.4,4.6-1.6,9.2-4.7,12.4c-0.9,0.8-1.8,0.1-1.1-0.9c2.2-3.5,3.2-7.7,3.2-13.7
		c0.1-2.8,0-6.1-0.2-8.9c0-0.5,0.2-0.8,0.7-0.7c0.7,0.1,2.5,1,3.2,1.7h4.6c0.5-0.7,1.1-1.4,1.5-1.4c0.8,0,2.8,1.6,2.8,2.3
		c0,0.5-0.6,0.8-1.2,1c-0.1,2.4,0,7.7,0,9c0,1.1-0.6,1.4-1.6,1.4c-0.9,0-1.1-0.6-1.1-1.2v-1.1H171L171,62.8z M166.4,47.9
		c-0.5,0-0.8-0.1-0.8-0.7c0-0.5,0.3-0.7,0.8-0.7h10.4c0.8-1.2,1.7-2.5,2.3-2.5c0.8,0,3.2,2.3,3.2,3.1c0,0.5-0.8,0.8-1.8,0.8H166.4z
		 M177.3,61.3c0-2.3,0-5.7,0-7.2h-6.1c0.1,2.3,0,4.2-0.1,7v0.2H177.3L177.3,61.3z M193.5,55.2c0.8-1.2,1.7-2.4,2.2-2.4
		c0.7,0,3.1,2.2,3.1,3.1c0,0.5-0.8,0.8-1.8,0.8h-3c0.2,0.1,0.3,0.3,0.3,0.5c0,0.4-0.4,0.7-1.2,0.8v7c0,4.9,0.1,8.1,0.1,9.2
		c0,0.8-0.6,1.3-1.8,1.3c-0.7,0-1-0.4-1-1.1c0-1.3,0.1-4.4,0.1-9.4v-8.3h-4.8c0,0.7-0.1,1.3-0.1,1.9c-0.3,5.9-1.8,12.4-10,16.6
		c-0.9,0.5-1.6-0.4-0.7-1.1c5.4-3.9,8-7.9,8.1-16.7c0.1-3.3,0-7.6-0.3-11.3c-0.1-0.5,0.1-0.7,0.6-0.7c0.5,0.1,2,0.8,2.8,1.4
		c3.2-0.8,5.5-1.8,7.6-2.9c0.8-0.5,1-0.5,1.7,0.1c0.6,0.5,1.4,1.3,1.7,1.9c0.4,0.8-0.3,1.2-1.6,0.5c-2,0.7-6.4,1.6-9.8,1.8
		c0,2.2,0,4.6-0.1,7L193.5,55.2L193.5,55.2z"/>
</g>
<rect x="2.2" y="2.8" class="st1" width="9" height="72"/>
</svg>
