<?xml version="1.0" encoding="utf-8"?>
<!-- Generator: Adobe Illustrator 27.2.0, SVG Export Plug-In . SVG Version: 6.00 Build 0)  -->
<svg version="1.1" id="レイヤー_1" xmlns="http://www.w3.org/2000/svg" xmlns:xlink="http://www.w3.org/1999/xlink" x="0px"
	 y="0px" viewBox="0 0 355.3 147.1" style="enable-background:new 0 0 355.3 147.1;" xml:space="preserve">
<style type="text/css">
	.st0{fill:#FFFFFF;}
	.st1{fill:none;stroke:#FFFFFF;stroke-width:2;stroke-miterlimit:10;}
</style>
<g>
	<path class="st0" d="M22.8,101.3h-5.7l0.1,0.2v13.8h-1.8v-13.8l0.1-0.2H9.7v-1.8h13.1V101.3z"/>
	<path class="st0" d="M39.3,115.3h-2l-1.7-3.8l0.1-0.2h-8.6l0.1,0.2l-1.7,3.8h-2l6.9-15.8h2L39.3,115.3z M34.9,109.5l-0.2-0.2
		l-2.8-6.3l-0.5-1.6h0l-0.5,1.6l-2.8,6.3l-0.2,0.2H34.9z"/>
	<path class="st0" d="M52.1,115.3H41.4V99.5h1.8v13.8l-0.2,0.2h9V115.3z"/>
	<path class="st0" d="M61.3,109.2h-5.5l0.2,0.2v5.8h-1.8V99.5h7.2c3.3,0,5.2,2,5.2,4.9C66.5,107.1,64.7,109.2,61.3,109.2z
		 M61.3,101.3h-5.5l0.2,0.2v5.8l-0.2,0.2h5.5c2.3,0,3.3-1.3,3.3-3.1C64.6,102.5,63.6,101.3,61.3,101.3z"/>
	<path class="st0" d="M77,115.3h-1.8V99.5H77V115.3z M87.7,115.3H85l-7.7-8l7.6-7.8h2.6l-7.7,7.7v0L87.7,115.3z"/>
	<path class="st0" d="M101,115.3H89.4V99.5H101v1.8h-9.9l0.2,0.2v4.9l-0.2,0.2h9v1.7h-9l0.2,0.2v4.9l-0.2,0.2h9.9V115.3z"/>
	<path class="st0" d="M117.7,99.5l-6.6,9.1v6.6h-1.9v-6.6l-6.6-9.1h2.3l4.1,5.8l1.1,1.8h0l1.1-1.8l4.1-5.8H117.7z"/>
	<path class="st0" d="M127.1,115.3h-7.4V99.5h7.2c3.3,0,4.8,2,4.8,4.2c0,1.5-0.5,2.4-1.8,3.2v0c1.6,0.7,2.5,2.1,2.5,3.8
		C132.4,113.5,130.6,115.3,127.1,115.3z M126.8,101.3h-5.4l0.2,0.2v4.6l-0.2,0.2h5.4c2.3,0,3.1-1.1,3.1-2.5
		C129.8,102.1,128.8,101.3,126.8,101.3z M127.1,108h-5.7l0.2,0.2v5.1l-0.2,0.2h5.7c2.4,0,3.4-1,3.4-2.7
		C130.5,109.1,129.4,108,127.1,108z"/>
	<path class="st0" d="M141.7,115.5c-4.8,0-7.4-3.2-7.4-8c0-4.8,2.5-8.2,7.4-8.2c4.9,0,7.4,3.4,7.4,8.2
		C149.1,112.3,146.5,115.5,141.7,115.5z M141.8,101.1c-3.9,0-5.5,2.9-5.5,6.4c0,3.5,1.6,6.2,5.5,6.2c3.9,0,5.5-2.8,5.5-6.2
		C147.2,104.1,145.7,101.1,141.8,101.1z"/>
	<path class="st0" d="M166.3,115.3h-2l-1.7-3.8l0.1-0.2h-8.6l0.1,0.2l-1.7,3.8h-2l6.9-15.8h2L166.3,115.3z M161.9,109.5l-0.2-0.2
		l-2.8-6.3l-0.5-1.6h0l-0.5,1.6l-2.8,6.3l-0.2,0.2H161.9z"/>
	<path class="st0" d="M181.8,115.3h-2.1l-2-4.1c-0.8-1.6-1.9-2.4-4-2.4H170l0.2,0.2v6.3h-1.8V99.5h6.9c2.9,0,5.3,1.5,5.3,4.7
		c0,2.1-1.4,3.6-3.2,4v0c0.7,0.3,1.5,1,2.1,2.1L181.8,115.3z M175.3,101.3H170l0.2,0.2v5.4L170,107h5c2.3,0,3.6-1.2,3.6-2.9
		C178.7,102.1,177.2,101.3,175.3,101.3z"/>
	<path class="st0" d="M189.8,115.3h-6V99.5h6c6.2,0,7.2,4.1,7.2,7.9C196.9,111.2,195.8,115.3,189.8,115.3z M189.5,101.3h-4.1
		l0.2,0.2v11.9l-0.2,0.2h4.2c4.7,0,5.4-2.9,5.4-6.1C195,104.2,194.2,101.3,189.5,101.3z"/>
</g>
<g>
	<rect x="210.8" y="5.2" class="st1" width="67.2" height="67.2"/>
	<circle class="st1" cx="243.7" cy="38.8" r="32.9"/>
</g>
<g>
	<rect x="283.5" y="5" class="st1" width="67.2" height="67.2"/>
	<circle class="st1" cx="316.5" cy="38.6" r="32.9"/>
</g>
<g>
	<rect x="210.8" y="77.2" class="st1" width="67.2" height="67.2"/>
	<circle class="st1" cx="243.7" cy="110.8" r="32.9"/>
</g>
<g>
	<path class="st0" d="M49.6,38H30.2l0.3,0.7v46.7h-6.2V38.6l0.3-0.7H5.2v-5.9h44.3V38z"/>
	<path class="st0" d="M105.3,85.3h-6.8l-5.6-12.8l0.3-0.7H64l0.3,0.7l-5.6,12.8h-6.8l23.4-53.2h6.6L105.3,85.3z M90.3,65.9l-0.7-0.7
		l-9.4-21.4l-1.6-5.3h-0.1l-1.6,5.3l-9.4,21.4l-0.7,0.7H90.3z"/>
	<path class="st0" d="M148.2,85.3h-36V32.1h6.2v46.6l-0.7,0.7h30.4V85.3z"/>
	<path class="st0" d="M179.3,64.9h-18.7l0.7,0.7v19.7h-6.2V32.1h24.3c11.3,0,17.5,6.8,17.5,16.4C196.9,57.7,190.7,64.9,179.3,64.9z
		 M179.4,38h-18.7l0.7,0.7v19.7l-0.7,0.7h18.7c7.6,0,11.2-4.5,11.2-10.5C190.5,42.2,186.9,38,179.4,38z"/>
</g>
</svg>
