<?xml version="1.0" encoding="UTF-8"?>
<svg id="_レイヤー_1" xmlns="http://www.w3.org/2000/svg" version="1.1" viewBox="0 0 800 330">
  <!-- Generator: Adobe Illustrator 29.0.0, SVG Export Plug-In . SVG Version: 2.1.0 Build 186)  -->
  <defs>
    <style>
      .st0 {
        opacity: .5;
      }

      .st0, .st1 {
        fill: #fff;
      }

      .st2 {
        fill: none;
        stroke: #fff;
        stroke-miterlimit: 10;
        stroke-width: .6px;
      }

      .hero__sijimi {
        animation: shake 3s ease-in-out infinite; /* 0.3秒で震えるアニメーションを無限ループ */
        animation-delay: 2s;
      }

      .hero__sijimi--01 {
        animation-delay: 3s;
      }

      @keyframes shake {
        0%, 100%, 20% {
          transform: translateX(0);
          opacity: 0.5;
        }
        5% {
          transform: translateX(-3px);
          opacity: 0.8;
        }
        10% {
          transform: translateX(3px);
          opacity: 0.3;
        }
        15% {
          opacity: 0.5;
          transform: translateX(-3px);
        }
      }

    </style>
  </defs>
  <path class="st1" d="M239.3,14.2h9.7s-.8,0-.8,0c11.9,0,21.6,9.7,21.6,21.6h0c0,11.9-9.7,21.6-21.6,21.6h-25.8s0,0,0,0h-9.7c-6,0-10.8,4.8-10.8,10.8,0,6,4.8,10.8,10.8,10.8h4.7s1.9,0,1.9,0c11.9,0,21.6,9.7,21.6,21.6h0c0,11.9-9.7,21.6-21.6,21.6h-124.2c-11.9,0-21.6-9.7-21.6-21.6h0c0-11.9,9.7-21.6,21.6-21.6h56.8s0,0,0,0h2.5c6,0,10.8-4.8,10.8-10.8,0-6-4.8-10.8-10.8-10.8h-2.5s-7.2,0-7.2,0c-11.9,0-21.6-9.7-21.6-21.6h0c0-11.9,9.7-21.6,21.6-21.6h68.2s0,0,0,0h26.4Z"/>
  <path class="st0 hero__sijimi hero__sijimi--00" d="M328.6,104.2h-28.5c-5.9,0-10.6,4.8-10.6,10.6v28.5c0,7,6.6,12.1,13.3,10.3,17.5-4.7,31.3-18.5,36.1-36.1,1.8-6.7-3.3-13.3-10.3-13.3ZM319.1,107.2c.8,0,1.5.7,1.5,1.5s-.4,1.2-.9,1.4v2.9l-19.3,19.3c0,.2,0,.3,0,.5,0,.8-.7,1.5-1.5,1.5s-1.5-.7-1.5-1.5.7-1.5,1.5-1.5.4,0,.6.1l19-19v-2.4c-.5-.2-.9-.8-.9-1.4s.7-1.5,1.5-1.5ZM294.3,113c.7,0,1.2.5,1.4,1.1h9c.2-.6.7-1.1,1.4-1.1s1.5.7,1.5,1.5-.7,1.5-1.5,1.5-1-.3-1.3-.8h-9.3c-.3.5-.7.8-1.3.8-.8,0-1.5-.7-1.5-1.5s.7-1.5,1.5-1.5ZM294.3,118.7c.7,0,1.2.5,1.4,1.1h9c.2-.6.7-1.1,1.4-1.1s1.5.7,1.5,1.5-.7,1.5-1.5,1.5-1-.3-1.3-.8h-9.3c-.3.5-.7.8-1.3.8-.8,0-1.5-.7-1.5-1.5s.7-1.5,1.5-1.5ZM294.3,136.6c.6,0,1.2.4,1.4,1h5.2l22.1-22.1c0-.2-.2-.4-.2-.7,0-.8.7-1.5,1.5-1.5s1.5.7,1.5,1.5-.7,1.5-1.5,1.5-.3,0-.5,0l-22.5,22.5h-5.7c-.2.5-.7.9-1.3.9s-1.5-.7-1.5-1.5.7-1.5,1.5-1.5ZM313.5,143.6l-2-2,2-2,2,2-2,2ZM317.2,139.9l-2-2,2-2,2,2-2,2ZM320.9,136.1l-2-2,2-2,2,2-2,2ZM324.7,132.4l-2-2,2-2,2,2-2,2ZM328.4,128.7l-2-2,2-2,2,2-2,2ZM330.4,110v7.3l-26.8,26.8h-8c-.3.5-.7.8-1.3.8-.8,0-1.5-.7-1.5-1.5s.7-1.5,1.5-1.5,1.2.4,1.4,1h7.4l26.1-26.1v-6.8c-.6-.2-1-.8-1-1.4s.7-1.5,1.5-1.5,1.5.7,1.5,1.5-.4,1.1-.9,1.4Z"/>
  <path class="st0 hero__sijimi hero__sijimi--01" d="M769.9,225.7h-28.5c-5.9,0-10.6,4.8-10.6,10.6v28.5c0,7,6.6,12.1,13.3,10.3,17.5-4.7,31.3-18.5,36.1-36.1,1.8-6.7-3.3-13.3-10.3-13.3ZM760.4,228.7c.8,0,1.5.7,1.5,1.5s-.4,1.2-.9,1.4v2.9l-19.3,19.3c0,.2,0,.3,0,.5,0,.8-.7,1.5-1.5,1.5s-1.5-.7-1.5-1.5.7-1.5,1.5-1.5.4,0,.6.1l19-19v-2.4c-.5-.2-.9-.8-.9-1.4s.7-1.5,1.5-1.5ZM735.7,234.5c.7,0,1.2.5,1.4,1.1h9c.2-.6.7-1.1,1.4-1.1s1.5.7,1.5,1.5-.7,1.5-1.5,1.5-1-.3-1.3-.8h-9.3c-.3.5-.7.8-1.3.8-.8,0-1.5-.7-1.5-1.5s.7-1.5,1.5-1.5ZM735.7,240.2c.7,0,1.2.5,1.4,1.1h9c.2-.6.7-1.1,1.4-1.1s1.5.7,1.5,1.5-.7,1.5-1.5,1.5-1-.3-1.3-.8h-9.3c-.3.5-.7.8-1.3.8-.8,0-1.5-.7-1.5-1.5s.7-1.5,1.5-1.5ZM735.7,258.1c.6,0,1.2.4,1.4,1h5.2l22.1-22.1c0-.2-.2-.4-.2-.7,0-.8.7-1.5,1.5-1.5s1.5.7,1.5,1.5-.7,1.5-1.5,1.5-.3,0-.5,0l-22.5,22.5h-5.7c-.2.5-.7.9-1.3.9s-1.5-.7-1.5-1.5.7-1.5,1.5-1.5ZM754.9,265.1l-2-2,2-2,2,2-2,2ZM758.6,261.4l-2-2,2-2,2,2-2,2ZM762.3,257.6l-2-2,2-2,2,2-2,2ZM766,253.9l-2-2,2-2,2,2-2,2ZM769.7,250.2l-2-2,2-2,2,2-2,2ZM771.7,231.5v7.3l-26.8,26.8h-8c-.3.5-.7.8-1.3.8-.8,0-1.5-.7-1.5-1.5s.7-1.5,1.5-1.5,1.2.4,1.4,1h7.4l26.1-26.1v-6.8c-.6-.2-1-.8-1-1.4s.7-1.5,1.5-1.5,1.5.7,1.5,1.5-.4,1.1-.9,1.4Z"/>
  <g>
    <polyline class="st2" points="185.6 251.5 178 259.1 28.3 259.1"/>
    <path class="st1" d="M184.1,250.1c.8-.8,2.1-.8,2.9,0,.8.8.8,2.1,0,2.9-.8.8-2.1.8-2.9,0s-.8-2.1,0-2.9Z"/>
    <path class="st1" d="M28.3,257.1c-1.1,0-2,.9-2,2s.9,2,2,2,2-.9,2-2-.9-2-2-2Z"/>
  </g>
  <g>
    <polyline class="st2" points="533.5 290 544 300.4 603 300.4 627 276.4 707.7 276.4"/>
    <path class="st1" d="M532.1,291.4c-.8-.8-.8-2.1,0-2.9.8-.8,2.1-.8,2.9,0,.8.8.8,2.1,0,2.9s-2.1.8-2.9,0Z"/>
    <circle class="st1" cx="707.7" cy="276.4" r="2"/>
  </g>
  <g>
    <polyline class="st2" points="676.9 284.2 630.3 284.2 606.2 308.2"/>
    <circle class="st1" cx="676.9" cy="284.2" r="2"/>
    <path class="st1" d="M604.8,306.8c-.8.8-.8,2.1,0,2.9.8.8,2.1.8,2.9,0,.8-.8.8-2.1,0-2.9s-2.1-.8-2.9,0Z"/>
  </g>
  <g>
    <polyline class="st2" points="759.6 292.7 634.4 292.7 635.6 291.4"/>
    <path class="st1" d="M759.6,290.7c1.1,0,2,.9,2,2s-.9,2-2,2-2-.9-2-2,.9-2,2-2Z"/>
    <path class="st1" d="M637.1,292.9c.8-.8.8-2.1,0-2.9-.8-.8-2.1-.8-2.9,0-.8.8-.8,2.1,0,2.9.8.8,2.1.8,2.9,0Z"/>
  </g>
  <g>
    <line class="st2" x1="551" y1="292.4" x2="587" y2="292.4"/>
    <circle class="st1" cx="551" cy="292.4" r="2"/>
    <circle class="st1" cx="587" cy="292.4" r="2"/>
  </g>
  <g>
    <line class="st2" x1="551" y1="284.3" x2="587" y2="284.3"/>
    <circle class="st1" cx="551" cy="284.3" r="2"/>
    <circle class="st1" cx="587" cy="284.3" r="2"/>
  </g>
  <g>
    <line class="st2" x1="551" y1="276.2" x2="587" y2="276.2"/>
    <circle class="st1" cx="551" cy="276.2" r="2"/>
    <circle class="st1" cx="587" cy="276.2" r="2"/>
  </g>
  <g>
    <line class="st2" x1="225.6" y1="156" x2="261.6" y2="156"/>
    <path class="st1" d="M225.6,158.1c-1.1,0-2-.9-2-2s.9-2,2-2,2,.9,2,2-.9,2-2,2Z"/>
    <path class="st1" d="M261.6,158.1c1.1,0,2-.9,2-2s-.9-2-2-2-2,.9-2,2,.9,2,2,2Z"/>
  </g>
  <g>
    <line class="st2" x1="225.6" y1="148.1" x2="261.6" y2="148.1"/>
    <path class="st1" d="M225.6,150.1c-1.1,0-2-.9-2-2s.9-2,2-2,2,.9,2,2-.9,2-2,2Z"/>
    <path class="st1" d="M261.6,150.1c1.1,0,2-.9,2-2s-.9-2-2-2-2,.9-2,2,.9,2,2,2Z"/>
  </g>
  <g>
    <line class="st2" x1="225.4" y1="140" x2="261.4" y2="140"/>
    <path class="st1" d="M225.4,142.1c-1.1,0-2-.9-2-2s.9-2,2-2,2,.9,2,2-.9,2-2,2Z"/>
    <path class="st1" d="M261.4,142.1c1.1,0,2-.9,2-2s-.9-2-2-2-2,.9-2,2,.9,2,2,2Z"/>
  </g>
  <g>
    <polyline class="st2" points="491.3 216.2 500 224.9 561.8 224.9 583.5 246.7 663.4 246.7"/>
    <path class="st1" d="M489.9,217.7c-.8-.8-.8-2.1,0-2.9.8-.8,2.1-.8,2.9,0,.8.8.8,2.1,0,2.9-.8.8-2.1.8-2.9,0Z"/>
    <circle class="st1" cx="663.4" cy="246.7" r="2"/>
  </g>
  <g>
    <polyline class="st2" points="621.7 255.6 578.6 255.6 555.9 233 479.3 233 469.6 242.7"/>
    <circle class="st1" cx="621.7" cy="255.6" r="2"/>
    <path class="st1" d="M468.2,241.3c-.8.8-.8,2.1,0,2.9.8.8,2.1.8,2.9,0,.8-.8.8-2.1,0-2.9s-2.1-.8-2.9,0Z"/>
  </g>
  <g>
    <polyline class="st2" points="174.7 222.2 232.7 222.2 246.1 235.6 279.8 235.6"/>
    <path class="st1" d="M174.7,224.3c-1.1,0-2-.9-2-2s.9-2,2-2,2,.9,2,2-.9,2-2,2Z"/>
    <path class="st1" d="M279.8,237.6c1.1,0,2-.9,2-2s-.9-2-2-2-2,.9-2,2,.9,2,2,2Z"/>
  </g>
  <g>
    <polyline class="st2" points="624.4 316.3 639.9 300.8 740.2 300.8"/>
    <path class="st1" d="M625.8,317.8c-.8.8-2.1.8-2.9,0-.8-.8-.8-2.1,0-2.9.8-.8,2.1-.8,2.9,0,.8.8.8,2.1,0,2.9Z"/>
    <circle class="st1" cx="740.2" cy="300.8" r="2"/>
  </g>
  <g>
    <polyline class="st2" points="502.2 209.5 509.6 216.9 587.2 216.9"/>
    <circle class="st1" cx="502.2" cy="209.5" r="2"/>
    <circle class="st1" cx="587.2" cy="216.9" r="2"/>
  </g>
  <g>
    <rect class="st1" x="546.3" y="205.1" width="4.2" height="4.2"/>
    <rect class="st1" x="554" y="205.1" width="4.2" height="4.2"/>
    <rect class="st1" x="561.7" y="205.1" width="4.2" height="4.2"/>
    <rect class="st1" x="569.4" y="205.1" width="4.2" height="4.2"/>
    <rect class="st1" x="577.2" y="205.1" width="4.2" height="4.2"/>
  </g>
  <g>
    <rect class="st1" x="385.3" y="168.3" width="4.2" height="4.2"/>
    <rect class="st1" x="393" y="168.3" width="4.2" height="4.2"/>
    <rect class="st1" x="400.7" y="168.3" width="4.2" height="4.2"/>
    <rect class="st1" x="408.4" y="168.3" width="4.2" height="4.2"/>
    <rect class="st1" x="416.2" y="168.3" width="4.2" height="4.2"/>
  </g>
  <g>
    <rect class="st1" x="415.8" y="83.6" width="4.2" height="4.2"/>
    <rect class="st1" x="423.5" y="83.6" width="4.2" height="4.2"/>
    <rect class="st1" x="431.3" y="83.6" width="4.2" height="4.2"/>
    <rect class="st1" x="439" y="83.6" width="4.2" height="4.2"/>
    <rect class="st1" x="446.7" y="83.6" width="4.2" height="4.2"/>
  </g>
  <g>
    <polyline class="st2" points="242.3 214 162.5 214 133.6 242.9 46.9 242.9"/>
    <path class="st1" d="M242.3,212c1.1,0,2,.9,2,2s-.9,2-2,2-2-.9-2-2,.9-2,2-2Z"/>
    <path class="st1" d="M46.9,240.8c-1.1,0-2,.9-2,2s.9,2,2,2,2-.9,2-2-.9-2-2-2Z"/>
  </g>
  <g>
    <polyline class="st2" points="307.1 252.1 296.8 241.8 184.2 241.8 174.9 251.2 46.8 251.2"/>
    <circle class="st1" cx="307.1" cy="252.1" r="2"/>
    <path class="st1" d="M46.8,249.1c-1.1,0-2,.9-2,2s.9,2,2,2,2-.9,2-2-.9-2-2-2Z"/>
  </g>
  <g>
    <polyline class="st2" points="546.1 130 378.6 130 343.2 165.4 261.4 165.4"/>
    <path class="st1" d="M546.1,127.9c1.1,0,2,.9,2,2s-.9,2-2,2-2-.9-2-2,.9-2,2-2Z"/>
    <path class="st1" d="M261.4,163.3c-1.1,0-2,.9-2,2s.9,2,2,2,2-.9,2-2-.9-2-2-2Z"/>
  </g>
  <g>
    <polyline class="st2" points="401.1 138.1 384.9 138.1 349.5 173.6 200.4 173.6 180.6 153.8 163.3 153.8"/>
    <path class="st1" d="M401.1,136.1c1.1,0,2,.9,2,2s-.9,2-2,2-2-.9-2-2,.9-2,2-2Z"/>
    <path class="st1" d="M163.3,151.8c-1.1,0-2,.9-2,2s.9,2,2,2,2-.9,2-2-.9-2-2-2Z"/>
  </g>
  <g>
    <line class="st2" x1="678.6" y1="241.3" x2="701.1" y2="241.3"/>
    <circle class="st1" cx="678.6" cy="241.3" r="2"/>
    <circle class="st1" cx="701.1" cy="241.3" r="2"/>
  </g>
  <g>
    <line class="st2" x1="678.6" y1="233.3" x2="701.1" y2="233.3"/>
    <circle class="st1" cx="678.6" cy="233.3" r="2"/>
    <circle class="st1" cx="701.1" cy="233.3" r="2"/>
  </g>
  <g>
    <line class="st2" x1="678.6" y1="225.4" x2="701.1" y2="225.4"/>
    <circle class="st1" cx="678.6" cy="225.4" r="2"/>
    <circle class="st1" cx="701.1" cy="225.4" r="2"/>
  </g>
  <g>
    <polyline class="st2" points="763.6 182 732.2 182 704.9 209.2 662.6 209.2"/>
    <path class="st1" d="M763.6,179.9c1.1,0,2,.9,2,2s-.9,2-2,2-2-.9-2-2,.9-2,2-2Z"/>
    <circle class="st1" cx="662.6" cy="209.2" r="2"/>
  </g>
  <g>
    <polyline class="st2" points="791.2 189.9 738.7 189.9 711.5 217.1 606.3 217.1"/>
    <circle class="st1" cx="791.2" cy="189.9" r="2"/>
    <path class="st1" d="M606.3,215.1c-1.1,0-2,.9-2,2s.9,2,2,2,2-.9,2-2-.9-2-2-2Z"/>
  </g>
  <g>
    <polyline class="st2" points="763.6 197.7 745.4 197.7 714.8 228.3 714.8 246.3"/>
    <circle class="st1" cx="763.6" cy="197.7" r="2"/>
    <path class="st1" d="M712.7,246.3c0,1.1.9,2,2,2s2-.9,2-2-.9-2-2-2c-1.1,0-2,.9-2,2Z"/>
  </g>
  <g>
    <polyline class="st2" points="791.7 200.7 786.1 206.3 763.6 206.3"/>
    <path class="st1" d="M790.2,199.2c.8-.8,2.1-.8,2.9,0,.8.8.8,2.1,0,2.9-.8.8-2.1.8-2.9,0-.8-.8-.8-2.1,0-2.9Z"/>
    <circle class="st1" cx="763.6" cy="206.3" r="2"/>
  </g>
  <g>
    <polyline class="st2" points="661.9 74.9 636.7 74.9 611.1 100.5 543.3 100.5"/>
    <circle class="st1" cx="661.9" cy="74.9" r="2"/>
    <path class="st1" d="M543.3,98.5c-1.1,0-2,.9-2,2s.9,2,2,2,2-.9,2-2-.9-2-2-2Z"/>
  </g>
  <g>
    <polyline class="st2" points="529.7 69 479.3 69 452 96.2 346.9 96.2"/>
    <path class="st1" d="M529.7,66.9c1.1,0,2,.9,2,2s-.9,2-2,2-2-.9-2-2,.9-2,2-2Z"/>
    <path class="st1" d="M346.9,94.2c-1.1,0-2,.9-2,2s.9,2,2,2,2-.9,2-2-.9-2-2-2Z"/>
  </g>
  <g>
    <polyline class="st2" points="661.9 82.9 643.2 82.9 615.9 110.2 615.9 128.1"/>
    <circle class="st1" cx="661.9" cy="82.9" r="2"/>
    <path class="st1" d="M613.9,128.1c0,1.1.9,2,2,2,1.1,0,2-.9,2-2s-.9-2-2-2c-1.1,0-2,.9-2,2Z"/>
  </g>
  <g>
    <polyline class="st2" points="706.5 80 695.4 91.1 661.9 91.1"/>
    <path class="st1" d="M705.1,78.6c.8-.8,2.1-.8,2.9,0,.8.8.8,2.1,0,2.9-.8.8-2.1.8-2.9,0-.8-.8-.8-2.1,0-2.9Z"/>
    <circle class="st1" cx="661.9" cy="91.1" r="2"/>
  </g>
  <g>
    <polyline class="st2" points="163.5 145.8 90.2 145.8 45.5 190.5 28.3 190.5"/>
    <path class="st1" d="M163.5,143.8c1.1,0,2,.9,2,2s-.9,2-2,2-2-.9-2-2,.9-2,2-2Z"/>
    <path class="st1" d="M28.3,188.5c-1.1,0-2,.9-2,2s.9,2,2,2,2-.9,2-2-.9-2-2-2Z"/>
  </g>
  <g>
    <polyline class="st2" points="163.5 137.8 84.8 137.8 68.7 121.6"/>
    <path class="st1" d="M163.5,135.7c1.1,0,2,.9,2,2s-.9,2-2,2-2-.9-2-2,.9-2,2-2Z"/>
    <path class="st1" d="M70.1,120.2c-.8-.8-2.1-.8-2.9,0-.8.8-.8,2.1,0,2.9.8.8,2.1.8,2.9,0,.8-.8.8-2.1,0-2.9Z"/>
  </g>
  <g>
    <polyline class="st2" points="134.2 153.8 96.7 153.8 71.9 178.7"/>
    <path class="st1" d="M134.2,151.8c1.1,0,2,.9,2,2s-.9,2-2,2-2-.9-2-2,.9-2,2-2Z"/>
    <path class="st1" d="M70.4,177.3c-.8.8-.8,2.1,0,2.9.8.8,2.1.8,2.9,0,.8-.8.8-2.1,0-2.9s-2.1-.8-2.9,0Z"/>
  </g>
  <g>
    <polyline class="st2" points="472.2 90.7 485.9 76.9 543.3 76.9"/>
    <path class="st1" d="M473.6,92.1c-.8.8-2.1.8-2.9,0-.8-.8-.8-2.1,0-2.9.8-.8,2.1-.8,2.9,0s.8,2.1,0,2.9Z"/>
    <path class="st1" d="M543.3,79c1.1,0,2-.9,2-2s-.9-2-2-2-2,.9-2,2,.9,2,2,2Z"/>
  </g>
  <g>
    <polyline class="st2" points="390.2 103.6 400.5 113.9 455.9 113.9"/>
    <path class="st1" d="M388.8,105c-.8-.8-.8-2.1,0-2.9.8-.8,2.1-.8,2.9,0,.8.8.8,2.1,0,2.9-.8.8-2.1.8-2.9,0Z"/>
    <path class="st1" d="M455.9,115.9c1.1,0,2-.9,2-2s-.9-2-2-2-2,.9-2,2,.9,2,2,2Z"/>
  </g>
  <g>
    <polyline class="st2" points="399.2 122.1 544.6 122.1 560.1 106.6 591.2 106.6"/>
    <path class="st1" d="M399.2,124.1c-1.1,0-2-.9-2-2s.9-2,2-2,2,.9,2,2-.9,2-2,2Z"/>
    <path class="st1" d="M591.2,108.6c1.1,0,2-.9,2-2s-.9-2-2-2-2,.9-2,2,.9,2,2,2Z"/>
  </g>
  <g>
    <polyline class="st2" points="225.4 131.7 260.7 131.7 275.6 116.8"/>
    <path class="st1" d="M225.4,133.7c-1.1,0-2-.9-2-2s.9-2,2-2,2,.9,2,2-.9,2-2,2Z"/>
    <path class="st1" d="M277.1,118.2c.8-.8.8-2.1,0-2.9-.8-.8-2.1-.8-2.9,0-.8.8-.8,2.1,0,2.9.8.8,2.1.8,2.9,0Z"/>
  </g>
  <g>
    <polyline class="st2" points="361.8 177.3 380.1 159 433.6 159"/>
    <path class="st1" d="M363.3,178.6c-.8.8-2.1.8-2.9,0-.8-.8-.8-2.1,0-2.9.8-.8,2.1-.8,2.9,0,.8.8.8,2.1,0,2.9Z"/>
    <path class="st1" d="M433.5,161c1.1,0,2-.9,2-2s-.9-2-2-2-2,.9-2,2,.9,2,2,2Z"/>
  </g>
  <g>
    <line class="st2" x1="645.7" y1="140.6" x2="719.9" y2="140.6"/>
    <path class="st1" d="M645.8,142.6c-1.1,0-2-.9-2-2s.9-2,2-2,2,.9,2,2-.9,2-2,2Z"/>
    <path class="st1" d="M719.8,142.6c1.1,0,2-.9,2-2s-.9-2-2-2-2,.9-2,2,.9,2,2,2Z"/>
  </g>
  <g>
    <polyline class="st2" points="193.8 206 232.2 206 242.9 195.4"/>
    <path class="st1" d="M193.9,208.1c-1.1,0-2-.9-2-2s.9-2,2-2,2,.9,2,2-.9,2-2,2Z"/>
    <path class="st1" d="M244.2,196.9c.8-.8.8-2.1,0-2.9s-2.1-.8-2.9,0c-.8.8-.8,2.1,0,2.9.8.8,2.1.8,2.9,0Z"/>
  </g>
  <g>
    <line class="st2" x1="194.1" y1="181.6" x2="229.8" y2="181.6"/>
    <path class="st1" d="M194.2,183.6c-1.1,0-2-.9-2-2s.9-2,2-2,2,.9,2,2-.9,2-2,2Z"/>
    <path class="st1" d="M229.7,183.6c1.1,0,2-.9,2-2s-.9-2-2-2-2,.9-2,2,.9,2,2,2Z"/>
  </g>
  <g>
    <line class="st2" x1="194.1" y1="189.7" x2="229.8" y2="189.7"/>
    <path class="st1" d="M194.2,191.7c-1.1,0-2-.9-2-2s.9-2,2-2,2,.9,2,2-.9,2-2,2Z"/>
    <path class="st1" d="M229.7,191.7c1.1,0,2-.9,2-2s-.9-2-2-2-2,.9-2,2,.9,2,2,2Z"/>
  </g>
  <g>
    <polyline class="st2" points="307.1 268.9 247.4 268.9 220.1 296.2 205.4 296.2"/>
    <path class="st1" d="M307.1,266.9c1.1,0,2,.9,2,2s-.9,2-2,2-2-.9-2-2,.9-2,2-2Z"/>
    <path class="st1" d="M205.4,294.1c-1.1,0-2,.9-2,2s.9,2,2,2,2-.9,2-2-.9-2-2-2Z"/>
  </g>
  <g>
    <polyline class="st2" points="307.1 260.8 242 260.8 214.7 288.1 204 288.1"/>
    <path class="st1" d="M307.1,258.8c1.1,0,2,.9,2,2s-.9,2-2,2-2-.9-2-2,.9-2,2-2Z"/>
    <path class="st1" d="M204,286c-1.1,0-2,.9-2,2s.9,2,2,2,2-.9,2-2-.9-2-2-2Z"/>
  </g>
  <g>
    <polyline class="st2" points="307.1 276.9 253.8 276.9 226.5 304.2 175.8 304.2"/>
    <path class="st1" d="M307.1,274.9c1.1,0,2,.9,2,2s-.9,2-2,2-2-.9-2-2,.9-2,2-2Z"/>
    <path class="st1" d="M175.8,302.2c-1.1,0-2,.9-2,2s.9,2,2,2,2-.9,2-2-.9-2-2-2Z"/>
  </g>
  <g>
    <line class="st2" x1="94.1" y1="235.6" x2="130.1" y2="235.6"/>
    <path class="st1" d="M94.1,237.6c-1.1,0-2-.9-2-2s.9-2,2-2,2,.9,2,2-.9,2-2,2Z"/>
    <path class="st1" d="M130.1,237.6c1.1,0,2-.9,2-2s-.9-2-2-2-2,.9-2,2,.9,2,2,2Z"/>
  </g>
  <g>
    <line class="st2" x1="94.1" y1="227.5" x2="130.1" y2="227.5"/>
    <path class="st1" d="M94.1,229.5c-1.1,0-2-.9-2-2s.9-2,2-2,2,.9,2,2-.9,2-2,2Z"/>
    <path class="st1" d="M130.1,229.5c1.1,0,2-.9,2-2s-.9-2-2-2-2,.9-2,2,.9,2,2,2Z"/>
  </g>
  <g>
    <line class="st2" x1="94.1" y1="219.4" x2="130.1" y2="219.4"/>
    <path class="st1" d="M94.1,221.4c-1.1,0-2-.9-2-2s.9-2,2-2,2,.9,2,2-.9,2-2,2Z"/>
    <path class="st1" d="M130.1,221.4c1.1,0,2-.9,2-2s-.9-2-2-2-2,.9-2,2,.9,2,2,2Z"/>
  </g>
  <g>
    <polyline class="st2" points="28.3 211.4 81.7 211.4 103.8 189.3 175.4 189.3"/>
    <path class="st1" d="M28.3,213.4c-1.1,0-2-.9-2-2s.9-2,2-2,2,.9,2,2-.9,2-2,2Z"/>
    <path class="st1" d="M175.4,191.4c1.1,0,2-.9,2-2s-.9-2-2-2-2,.9-2,2,.9,2,2,2Z"/>
  </g>
  <g>
    <polyline class="st2" points="114.1 312.3 232.9 312.3 252.8 292.4"/>
    <path class="st1" d="M114.1,314.3c-1.1,0-2-.9-2-2s.9-2,2-2,2,.9,2,2-.9,2-2,2Z"/>
    <path class="st1" d="M254.3,293.8c.8-.8.8-2.1,0-2.9-.8-.8-2.1-.8-2.9,0-.8.8-.8,2.1,0,2.9.8.8,2.1.8,2.9,0Z"/>
  </g>
  <g>
    <polyline class="st2" points="281.7 45.4 307.8 45.4 332.8 71.4 380.9 71.4"/>
    <path class="st1" d="M281.8,47.5c-1.1,0-2-.9-2-2s.9-2,2-2,2,.9,2,2-.9,2-2,2Z"/>
    <path class="st1" d="M380.8,73.5c1.1,0,2-.9,2-2s-.9-2-2-2-2,.9-2,2,.9,2,2,2Z"/>
  </g>
  <g>
    <polyline class="st2" points="281.7 53.3 301.3 53.3 327.8 79.8 355.6 79.8"/>
    <path class="st1" d="M281.8,55.3c-1.1,0-2-.9-2-2s.9-2,2-2,2,.9,2,2-.9,2-2,2Z"/>
    <path class="st1" d="M355.5,81.8c1.1,0,2-.9,2-2s-.9-2-2-2-2,.9-2,2,.9,2,2,2Z"/>
  </g>
  <g>
    <polyline class="st2" points="281.2 36.8 306.7 13.5 352.4 13.5 408 68.2 450.8 68.2"/>
    <path class="st1" d="M282.7,38.2c-.8.8-2.1.7-2.9-.1-.8-.8-.7-2.1.1-2.9.8-.8,2.1-.7,2.9.1.8.8.7,2.1-.1,2.9Z"/>
    <path class="st1" d="M450.7,70.3c1.1,0,2-.9,2-2s-.9-2-2-2-2,.9-2,2,.9,2,2,2Z"/>
  </g>
  <g>
    <polyline class="st2" points="328.1 21.4 346.1 21.4 380.3 55.6"/>
    <path class="st1" d="M328.2,23.4c-1.1,0-2-.9-2-2s.9-2,2-2,2,.9,2,2-.9,2-2,2Z"/>
    <path class="st1" d="M378.8,56.9c.8.8,2.1.8,2.9,0s.8-2.1,0-2.9c-.8-.8-2.1-.8-2.9,0-.8.8-.8,2.1,0,2.9Z"/>
  </g>
  <g>
    <polyline class="st2" points="302.9 29.6 339.3 29.6 358.5 48.8"/>
    <path class="st1" d="M303,31.7c-1.1,0-2-.9-2-2s.9-2,2-2,2,.9,2,2-.9,2-2,2Z"/>
    <path class="st1" d="M357,50.2c.8.8,2.1.8,2.9,0,.8-.8.8-2.1,0-2.9-.8-.8-2.1-.8-2.9,0-.8.8-.8,2.1,0,2.9Z"/>
  </g>
  <path class="st1" d="M405.7,350.2h184.4c11.5,0,21-9.4,21-21h0c0-11.5-9.4-21-21-21h-102.3s-9.4,0-9.4,0c-5.8,0-10.5-4.7-10.5-10.5s4.7-10.5,10.5-10.5h9.4s27.6,0,27.6,0c11.5,0,21-9.4,21-21h0c0-11.5-9.4-21-21-21h-86.8s0,0,0,0h-9.4c-5.8,0-10.5-4.7-10.5-10.5s4.7-10.5,10.5-10.5h9.4s1.8,0,1.8,0c11.5,0,21-9.4,21-21h0c0-11.5-9.4-21-21-21h-127.5c-11.5,0-21,9.4-21,21h0c0,11.5,9.4,21,21,21h57.2s0,0,0,0h2.5c5.8,0,10.5,4.7,10.5,10.5,0,5.8-4.7,10.5-10.5,10.5h-2.5s-23.7,0-23.7,0c-11.5,0-21,9.4-21,21h0c0,11.5,9.4,21,21,21h82.9s0,0,0,0h2.5c5.8,0,10.5,4.7,10.5,10.5,0,5.3-4,9.8-9.2,10.4h-134.5c-11.5,0-21,9.4-21,21h0c0,11.5,9.4,21,21,21h52.4s9.4,0,9.4,0h55.3Z"/>
  <g>
    <polyline class="st2" points="450 158.4 460.5 168.8 519.5 168.8 543.5 144.8 624.2 144.8"/>
    <path class="st1" d="M448.6,159.8c-.8-.8-.8-2.1,0-2.9.8-.8,2.1-.8,2.9,0,.8.8.8,2.1,0,2.9-.8.8-2.1.8-2.9,0Z"/>
    <circle class="st1" cx="624.2" cy="144.8" r="2"/>
  </g>
  <g>
    <polyline class="st2" points="593.4 152.5 546.8 152.5 522.7 176.6 470.1 176.6"/>
    <circle class="st1" cx="593.4" cy="152.5" r="2"/>
    <path class="st1" d="M470.1,174.6c-1.1,0-2,.9-2,2s.9,2,2,2,2-.9,2-2-.9-2-2-2Z"/>
  </g>
  <g>
    <polyline class="st2" points="676.1 161.1 550.9 161.1 526.8 185.1 490.4 185.1"/>
    <path class="st1" d="M676.1,159.1c1.1,0,2,.9,2,2s-.9,2-2,2-2-.9-2-2,.9-2,2-2Z"/>
    <path class="st1" d="M490.4,183.1c-1.1,0-2,.9-2,2s.9,2,2,2,2-.9,2-2-.9-2-2-2Z"/>
  </g>
  <g>
    <line class="st2" x1="467.5" y1="160.8" x2="503.5" y2="160.8"/>
    <path class="st1" d="M467.5,162.8c-1.1,0-2-.9-2-2s.9-2,2-2,2,.9,2,2-.9,2-2,2Z"/>
    <path class="st1" d="M503.5,162.8c1.1,0,2-.9,2-2s-.9-2-2-2-2,.9-2,2,.9,2,2,2Z"/>
  </g>
  <g>
    <line class="st2" x1="467.5" y1="152.7" x2="503.5" y2="152.7"/>
    <path class="st1" d="M467.5,154.7c-1.1,0-2-.9-2-2s.9-2,2-2,2,.9,2,2-.9,2-2,2Z"/>
    <path class="st1" d="M503.5,154.7c1.1,0,2-.9,2-2s-.9-2-2-2-2,.9-2,2,.9,2,2,2Z"/>
  </g>
  <g>
    <line class="st2" x1="467.5" y1="144.6" x2="503.5" y2="144.6"/>
    <path class="st1" d="M467.5,146.6c-1.1,0-2-.9-2-2s.9-2,2-2,2,.9,2,2-.9,2-2,2Z"/>
    <path class="st1" d="M503.5,146.6c1.1,0,2-.9,2-2s-.9-2-2-2-2,.9-2,2,.9,2,2,2Z"/>
  </g>
  <g>
    <polyline class="st2" points="540.9 184.7 556.4 169.2 656.7 169.2"/>
    <circle class="st1" cx="540.9" cy="184.7" r="2" transform="translate(-30.7 182.8) rotate(-18.7)"/>
    <circle class="st1" cx="656.7" cy="169.2" r="2"/>
  </g>
  <g>
    <polyline class="st2" points="30.2 61.4 100.3 61.4 116 45.7"/>
    <path class="st1" d="M30.3,63.4c-1.1,0-2-.9-2-2s.9-2,2-2,2,.9,2,2-.9,2-2,2Z"/>
    <path class="st1" d="M117.3,47.2c.8-.8.8-2.1,0-2.9s-2.1-.8-2.9,0c-.8.8-.8,2.1,0,2.9.8.8,2.1.8,2.9,0Z"/>
  </g>
  <g>
    <polyline class="st2" points="50.4 53.2 96 53.2 113.9 35.4"/>
    <path class="st1" d="M50.5,55.3c-1.1,0-2-.9-2-2s.9-2,2-2,2,.9,2,2-.9,2-2,2Z"/>
    <path class="st1" d="M115.2,36.9c.8-.8.8-2.1,0-2.9s-2.1-.8-2.9,0c-.8.8-.8,2.1,0,2.9.8.8,2.1.8,2.9,0Z"/>
  </g>
  <g>
    <polyline class="st2" points="30.2 37.1 78.4 37.1 85.2 43.9"/>
    <path class="st1" d="M30.3,39.2c-1.1,0-2-.9-2-2s.9-2,2-2,2,.9,2,2-.9,2-2,2Z"/>
    <path class="st1" d="M83.7,45.3c.8.8,2.1.8,2.9,0s.8-2.1,0-2.9c-.8-.8-2.1-.8-2.9,0-.8.8-.8,2.1,0,2.9Z"/>
  </g>
  <g>
    <polyline class="st2" points="50.4 70 76.7 70 83.6 76.9"/>
    <path class="st1" d="M50.5,72c-1.1,0-2-.9-2-2s.9-2,2-2,2,.9,2,2-.9,2-2,2Z"/>
    <path class="st1" d="M82.1,78.3c.8.8,2.1.8,2.9,0s.8-2.1,0-2.9c-.8-.8-2.1-.8-2.9,0-.8.8-.8,2.1,0,2.9Z"/>
  </g>
</svg>
