<?xml version="1.0" encoding="UTF-8"?>
<svg id="_レイヤー_1" xmlns="http://www.w3.org/2000/svg" version="1.1" viewBox="0 0 2000 400">
  <!-- Generator: Adobe Illustrator 29.0.0, SVG Export Plug-In . SVG Version: 2.1.0 Build 186)  -->
  <defs>
    <style>
      .st0 {
        fill: #fff;
      }
    </style>
  </defs>
  <path class="st0" d="M952.8,145.9l-5.4-7.3,20.8-36.1h37.1l6-4.8h-17.7l-5.2,3.4-.8-1.5,5.6-3.6h20.2l5.1-4.2h-42.2v-1.5h60.7v-5.3h-78.4l-32.3,54.5,19.1,25.9,33.4-7.4,5-13.7,16.1-3.7-1.2-5.1-46,10.4h.1ZM1025.7,112.7h-52.2l-7,12.2h-4.3v5.3h42.9l7-12.2h13.6v-5.3ZM977,118.1c-.9,0-1.6-.7-1.6-1.6s.7-1.6,1.6-1.6,1.6.7,1.6,1.6-.7,1.6-1.6,1.6ZM983.6,118.1c-.9,0-1.6-.7-1.6-1.6s.7-1.6,1.6-1.6,1.6.7,1.6,1.6-.7,1.6-1.6,1.6ZM990.1,118.1c-.9,0-1.6-.7-1.6-1.6s.7-1.6,1.6-1.6,1.6.7,1.6,1.6-.7,1.6-1.6,1.6ZM996.7,118.1c-.9,0-1.6-.7-1.6-1.6s.7-1.6,1.6-1.6,1.6.7,1.6,1.6-.7,1.6-1.6,1.6ZM1003.3,118.1c-.9,0-1.6-.7-1.6-1.6s.7-1.6,1.6-1.6,1.6.7,1.6,1.6-.7,1.6-1.6,1.6ZM1043.3,145.9l-5.4-7.3,20.8-36.1h37.1l6.4-5.2h-19.3l-5.3,3.5-.7-1.3,5.6-3.6h21.5l4.8-4h-42.5v-1.6h61.1v-5.3h-78.4l-32.3,54.5,19.1,25.9,33.4-7.4,5-13.7,16.1-3.7-1.2-5.1-46,10.4h.2ZM936.8,72l3.7-5.2-22.7,7-3.7,5,22.8-6.8h0ZM891.4,159.8l19.7,15.6,6.1-1.1-14.6-12.2-11.2-2.3ZM856.6,96.1l54.7-16.4,5.4-7.3,25.5-7.9,3.9-5.5-58.7,18.2-.4-1.8,60.8-18.9v-.2l28.8-8.4-1.5-5-112.6,33.2,8.6-11.9-5.1-14.3,18.4-25.8-4.1-3-101.7,142,4.9,14.2-9.3,13,4.3,3.1,56.4-78.6,54.5,43.4,14,2.9,15.7,13.1,6.8-1.2-49.6-39.3.8-1,50.5,40h0l14.6,11.5,3.2-4-92.9-74.2,4.4-9.7-.3-.2h0ZM1116.1,118v-5.3h-52.2l-7,12.2h-4.3v5.3h42.9l7-12.2h13.6ZM1067.5,118.1c-.9,0-1.6-.7-1.6-1.6s.7-1.6,1.6-1.6,1.6.7,1.6,1.6-.7,1.6-1.6,1.6ZM1074.1,118.1c-.9,0-1.6-.7-1.6-1.6s.7-1.6,1.6-1.6,1.6.7,1.6,1.6-.7,1.6-1.6,1.6ZM1080.6,118.1c-.9,0-1.6-.7-1.6-1.6s.7-1.6,1.6-1.6,1.6.7,1.6,1.6-.7,1.6-1.6,1.6ZM1087.2,118.1c-.9,0-1.6-.7-1.6-1.6s.7-1.6,1.6-1.6,1.6.7,1.6,1.6-.7,1.6-1.6,1.6ZM1093.8,118.1c-.9,0-1.6-.7-1.6-1.6s.7-1.6,1.6-1.6,1.6.7,1.6,1.6-.7,1.6-1.6,1.6ZM1210.5,107.1l-20.3,7.4h-27.2v5.3h34.2l.6,2.2-72.6,40-3.7-4.2,59.5-82.4.8-18.9-18.9,27.1-1.5-1.2,20.6-29.5h0l15.9-22.2-4.3-3.1-94.7,131.9,22.7,24.3,100.4-55-11.3-21.5s-.2-.2-.2-.2ZM1122.1,171.2l-10.8-12.6,14.9-21.6,1.5,1.1-13.9,20.4,9.7,11.4-1.4,1.2h0Z"/>
  <path class="st0" d="M1171.1,304"/>
  <g>
    <path class="st0" d="M948,204.7c-2,4.5-4.2,9-6.6,13.4-2.4,4.4-4.8,8.6-7.4,12.5-2.6,3.9-5.2,7.5-7.9,10.9-2.7,3.3-5.3,6.2-8,8.6-2.6,2.4-5.2,4.3-7.7,5.6-2.5,1.4-4.9,2-7.1,2s-1.8-.2-2.6-.5-1.5-.8-2.1-1.3c-.6-.6-1-1.3-1.4-2-.3-.8-.5-1.6-.5-2.6v-23.8l-25.3,28.3c-.7.7-1.4,1.1-2.1,1.4-.8.3-1.6.5-2.4.5s-1.7-.2-2.5-.5-1.4-.8-2-1.3c-.6-.6-1.1-1.3-1.4-2-.3-.8-.5-1.6-.5-2.6v-20.3h12.8v3.9l25.4-28.4c.9-.9,2-1.5,3.3-1.7s2.5-.1,3.7.4,2.2,1.3,2.9,2.3c.7,1.1,1.1,2.2,1.1,3.5v30.3c2.7-2.6,5.2-5.4,7.5-8.4,2.2-2.9,4.3-6,6.2-9.1s3.7-6.3,5.4-9.5,3.3-6.4,4.9-9.6h14.3,0Z"/>
    <path class="st0" d="M1006,239.8c0,2.2-.3,4.2-.8,5.9-.6,1.8-1.3,3.3-2.2,4.6s-2,2.5-3.2,3.4-2.5,1.7-3.8,2.3-2.7,1-4,1.3c-1.4.3-2.6.4-3.9.4h-23c-1.8,0-3.7-.3-5.8-.9-2.1-.6-4-1.6-5.8-3.1-1.8-1.4-3.3-3.3-4.5-5.5-1.2-2.3-1.8-5.1-1.8-8.4v-17.3c0-3.3.6-6,1.8-8.3s2.7-4.1,4.5-5.5,3.7-2.4,5.8-3.1c2.1-.6,4-.9,5.8-.9h23c3.3,0,6.1.6,8.3,1.8,2.3,1.2,4.1,2.7,5.5,4.4,1.4,1.8,2.4,3.7,3.1,5.8.6,2.1,1,4,1,5.8v17.3h0ZM993.3,222.6c0-1.8-.4-3.1-1.3-3.9-.9-.8-2.2-1.3-3.8-1.3h-22.9c-1.7,0-3,.4-3.9,1.3-.9.9-1.3,2.1-1.3,3.8v17.3c0,1.7.4,2.9,1.3,3.8s2.2,1.3,3.9,1.3h22.9c1.7,0,3-.4,3.9-1.3.8-.9,1.3-2.2,1.3-3.8v-17.2h-.1Z"/>
    <path class="st0" d="M1057.6,217.4h-27c-1.7,0-3,.4-3.9,1.3-.9.9-1.3,2.1-1.3,3.8v35.2h-12.8v-35.2c0-2.2.3-4.2.8-5.9.6-1.7,1.3-3.3,2.2-4.6s2-2.5,3.2-3.4,2.5-1.7,3.8-2.3,2.7-1,4-1.3c1.4-.3,2.6-.4,3.8-.4h27.1v12.8h.1Z"/>
    <path class="st0" d="M1087,257.7h-5.7c-1.8,0-3.8-.3-5.9-.9-2.1-.6-4-1.6-5.8-3.1-1.8-1.4-3.3-3.3-4.5-5.5-1.2-2.3-1.8-5.1-1.8-8.4v-57.5h12.8v57.5c0,1.6.5,2.8,1.5,3.8,1,.9,2.2,1.4,3.7,1.4h5.7v12.8h0Z"/>
    <path class="st0" d="M1149.3,239.8c0,2.2-.3,4.2-.8,5.9-.6,1.8-1.3,3.3-2.2,4.6-.9,1.3-2,2.5-3.2,3.4s-2.5,1.7-3.8,2.3-2.7,1-4,1.3c-1.4.3-2.6.4-3.9.4h-23c-2.2,0-4.2-.3-5.9-.8-1.7-.6-3.3-1.3-4.6-2.2-1.3-.9-2.5-2-3.4-3.2s-1.7-2.5-2.3-3.8c-.6-1.3-1-2.7-1.3-4-.3-1.4-.4-2.6-.4-3.8v-17.3c0-3.3.6-6,1.8-8.3,1.2-2.3,2.7-4.1,4.5-5.5s3.7-2.4,5.8-3.1c2.1-.6,4-.9,5.8-.9h23v12.8h-22.9c-1.7,0-3,.4-3.9,1.3-.9.9-1.3,2.1-1.3,3.8v17.2c0,1.7.4,3,1.3,3.9s2.1,1.3,3.8,1.3h23c1.7,0,3-.4,3.9-1.3.8-.9,1.3-2.2,1.3-3.8v-57.5h12.8v57.5-.2h-.1Z"/>
  </g>
  <path class="st0" d="M873.4,231h-12.8v-5.1c0-4-3-7-7.2-7H0v-12.8h853.4c11.2,0,19.9,8.7,19.9,19.7v5.1h0Z"/>
  <rect class="st0" x="1145.8" y="205.2" width="854.2" height="11.9"/>
  <g>
    <path d="M807.2,300.8c.2-1.5.6-3,1.2-4.3.6-1.3,1.4-2.5,2.2-3.7.8-1.1,1.7-2.3,2.7-3.3,1-1.1,1.9-2.2,2.9-3.3.1,0,.2,0,.3,0,0,0,.2,0,.3,0,.2-.7.7-1.3,1.3-1.6.6-.3,1.1-.9,1.4-1.7.5.1.8,0,1-.5.2-.4.5-.6,1-.6.6-.7,1.3-1.3,1.9-1.8.6-.5,1.3-1.1,2-1.6.1,0,.2,0,.1-.2,0-.1,0-.2,0-.2.5-.5.9-.8,1.3-1.1.4-.3.9-.6,1.4-.9.9-.6,1.7-1.3,2.4-2.1.7-.8,1.6-1.5,2.6-2.1.1,0,.3,0,.4-.1.2,0,.3,0,.4-.2.2-.1.3-.3.5-.5.1-.2.3-.4.5-.5,0-.1.1-.2.2-.1,0,0,.2,0,.2,0,.2-.1.3-.2.4-.4,0-.1.2-.3.3-.4.1-.1.3-.2.4-.3.2,0,.3-.1.5-.3.7-.6,1.5-1.1,2.4-1.5.8-.5,1.7-1,2.5-1.6.3-.3.6-.5.8-.8.3-.2.5-.5.8-.7.3-.3.8-.5,1.4-.8.6-.2,1.1-.5,1.5-.9.2-.3.4-.5.7-.6.3-.1.5-.3.6-.6.3-.1.6-.2.9-.3.3,0,.7-.2,1-.4.3-.2.6-.5.7-.7,1-.3,1.9-.7,2.6-1.3.7-.6,1.5-1.1,2.5-1.5,0-.1,0-.2.1-.3,0,0,0-.2,0-.4,1-.3,1.8-.5,2.6-.7.7-.2,1.5-.3,2.4-.3,1.1.7,2.5,1.1,4.1,1.3,1.6.2,3,.6,4.1,1.2.2.1.3,0,.4-.2.4.4.9.7,1.6.9.7.2,1.2.4,1.5.7.9,1.1,1.7,2.1,2.7,3.2.9,1,1.8,2.1,2.6,3.3-.1.1-.1.3,0,.5,0,.2.2.4.3.5,0,.9-.2,1.6-.3,2.2-.2.6-.4,1.2-.6,1.8-.2.6-.5,1.1-.7,1.7s-.5,1.2-.6,1.9c-.2,0-.4.2-.4.3,0,.2,0,.4-.1.6-.1,0-.2,0-.2,0,0,0-.1,0-.2,0,.1.1.1.2,0,.3-.1,0-.1.1,0,.2-1.3,1.5-2.4,3.1-3.4,4.8-1,1.7-2.2,3.3-3.6,4.8,0,.2,0,.4-.2.5-.1,0-.2.3-.2.6-.4.3-.7.6-1,1-.3.4-.6.7-1,1.1-.7.3-1.6.5-2.5.7-.9.2-1.8.4-2.6.7,0-.2-.1-.3-.3-.3s-.5,0-.8,0c-.1-.2-.3-.4-.4-.6-.2-.2-.4-.3-.7-.3,0-.4,0-.7-.3-.9-.2-.2-.5-.3-.8-.4-.3,0-.6-.2-.9-.3-.3-.1-.4-.3-.4-.7s-.1-.3-.4-.3c-.2-.8-.2-1.6,0-2.4.2-.8.3-1.7.3-2.6s0-1.5,0-2.1c0-.7.1-1.3.5-2,0,0,0-.2,0-.5-1,.4-2,1-3,1.7-.3.1-.6.2-.8.4-.2.1-.4.3-.6.6-1.1.6-2.2,1.3-3.2,2.1-1,.7-2,1.5-3,2.2-.5.3-1,.7-1.6,1-.5.3-1.1.6-1.6,1-1,.7-2.1,1.5-3.1,2.3s-2.1,1.7-3.2,2.5c-.6.5-1.3,1-2,1.4-.7.4-1.4.9-2,1.4-.4.3-.8.6-1.1,1-.3.4-.7.7-1.1,1-.5.5-.9.8-1.2.9-.4.2-.6.6-.6,1.2-.2,0-.3,0-.3,0,0,.1-.2.1-.3,0-1.1,1.1-2.3,2.3-3.3,3.6-1.1,1.3-2.1,2.5-3.2,3.9.3.1.6.3.8.4.3.2.6.2,1,.2.3,0,.6,0,.9-.2.3-.1.6-.2.9,0,.1,0,.2,0,.2.1s0,.1.2.1c.4,0,.8,0,1.2,0,.4-.1.9-.2,1.3-.2.2,0,.3,0,.5,0,.2,0,.3,0,.5,0,.7-.1,1.5-.3,2.2-.5.7-.2,1.4-.3,2.1-.3s.5,0,.7,0c.2,0,.4,0,.5-.3,1,0,2-.3,3-.6,1-.3,1.9-.5,2.7-.6.1,0,.2,0,.3-.1,0,0,.1-.2.3-.2,1-.1,1.8-.3,2.6-.5.8-.2,1.6-.5,2.4-.8,3.1-.5,6-1.1,8.6-1.8,2.6-.7,5.3-1.3,8.3-1.8,1.8-.6,3.4-1,4.9-1.3,1.5-.3,3.2-.7,5.2-1.1,1.4-.5,3.1-1,5-1.4,1.9-.4,3.5-.9,4.7-1.5.8,0,1.6,0,2.4-.3.8-.3,1.6-.5,2.4-.7.2.1.3.3.4.4,0,.2.2.3.3.4-.3.4-.7.7-1.2.8-.5.1-.7.5-.9,1.1-.5,0-.8.2-1,.6-.2.4-.5.7-.9,1-.3.1-.6.2-.9.3-.3,0-.6.2-.9.3-.6.3-1.1.7-1.7,1-.5.3-1.1.6-1.6.9,0,.1,0,.2,0,.3,0,.1,0,.2,0,.3-.2.1-.5.2-.7.3-.2,0-.3.2-.2.5-.6.1-.9.4-.9.9-1.4.3-2.7.6-3.7.8s-2.1.6-3.1,1.4c-1.2.5-2.4.9-3.6,1.3-1.2.4-2.3,1-3.3,1.6,0,.2.1.3.4,0,0,.3-.2.5-.4.6-.2,0-.4,0-.6-.2-1.1.7-2.5,1.2-4.1,1.6-1.6.4-3.1,1-4.4,1.8-.5,0-1,0-1.5.3-.5.2-1,.4-1.5.7-.1.2,0,.3,0,.3.2,0,.2,0,.2.2-.1.3-.2.4-.3.5-.1,0-.3,0-.6.1-.3.6-.8.9-1.5.9s-1.1.3-1.5.8c-.7.2-1.5.3-2.4.5-.9.2-1.6.5-2.1,1-.3,0-.5,0-.5,0-.9.6-2.1,1-3.6,1.2-1.5.2-2.7.6-3.8,1.2-.7-.2-1.3,0-2,.6-.8.1-1.6.3-2.5.4-.9.2-1.8.3-2.7.5-.9.2-1.8.3-2.7.3-.9,0-1.8,0-2.7,0-.2-.1-.3-.1-.3,0s0,.2-.2.1c-.8-.2-1.6-.4-2.3-.6-.7-.2-1.4-.4-2.1-.7-.7-.3-1.3-.6-1.8-1-.5-.4-1-1-1.4-1.8-.1-.1-.2-.1-.2,0,0,0-.1,0-.2,0-.8-.5-1.5-1.2-2-2.1-.5-.9-1.1-1.7-1.8-2.4,0-.6,0-1.2-.3-1.6-.3-.4-.7-.7-1.1-.8.1-.6.1-1.2,0-1.8,0-.6-.2-1.3-.3-1.9-.1-.7-.2-1.3-.3-2-.1-.7-.1-1.2,0-1.8-.1-.1-.2-.1-.3,0,0,0-.2,0-.3,0Z"/>
    <path d="M880.4,290.1c.1-.1.3-.3.5-.6.2-.3.4-.5.6-.8.2-.3.4-.5.6-.7.2-.2.3-.3.3-.3.7-1,1.4-1.9,2.1-2.7.7-.8,1.4-1.7,2.1-2.7.9-.6,1.5-1.5,2-2.5.5-1.1.9-1.8,1.4-2.3,0-.1,0-.2-.1-.2,0,0-.2,0-.2-.1.1-.3.2-.5.3-.6,0-.1.2-.2.5-.2h.2c.6-.9,1.5-1.3,2.5-1.5,1-.1,2-.4,2.9-.8,0,0,.1.1.3.3.9,0,1.8.2,2.7.5.9.3,1.7.7,2.4,1.2h0c.1,0,.1,0,0-.2,0-.1,0-.2,0-.2.3.3.8.6,1.5.9.7.3,1.2.5,1.5.5h.6c.1,0,.5.1,1.1.4.6.3,1,.5,1.2.8.2,0,.3,0,.3,0,.1.4.5.6,1,.6s.3,0,.3,0c0,.2.2.6.7,1.1.5.5,1,1,1.6,1.5.6.5,1.3,1.1,2.3,1.8,1.1,1,2,2.1,2.8,3.3s1.2,2.5,1.2,4,0,.4,0,.6c0,.2,0,.4,0,.6v.7c0,1.5-.3,2.8-1,3.8-.7,1.1-1.4,2-2.3,2.8-.1.4-.3.7-.6.8-.3.1-.5.3-.6.7h0c-.2,0-.6.2-1.2.7-.6.5-1.2,1.1-1.8,1.7-.6.6-1.2,1.2-1.6,1.7-.5.5-.6.7-.5.6-.2.3-.6.7-1.1,1.1-.5.4-1.1.8-1.8,1.2-.7.4-1.3.8-2.1,1.2-.7.4-1.4.7-2.1.9-1.3.6-2.5,1.4-3.8,2.2s-2.4,1.2-3.3,1.2-.4,0-.5,0c0,.1-.1.2-.2.3,0,0-.2.1-.2.3-.1,0-.2,0-.2-.1,0,0-.1,0-.2,0-1.1.4-2.3.6-3.6.6s-1.5,0-2.2-.3c-.7-.2-1.2-.5-1.6-.9h-.3c-.6,0-1.1-.2-1.5-.5-.4-.3-.8-.7-1.2-1.1-.3-.4-.7-.8-1.1-1.2-.4-.4-.8-.8-1.2-1.1-.3-.6-.5-1.2-.6-1.6-.1-.4-.4-1-.9-1.6v-.3c0-.3,0-.6,0-.9,0-.3,0-.6,0-.9.1-.2.2-.4.3-.6,0-.1,0-.4,0-.6v-2.3c0-.3,0-.6,0-.9,0-.3,0-.6,0-.9,0-.5,0-.9.2-1.2v-.3c0-1,.3-2,.8-3,.5-1.1,1-2,1.5-2.9,0,0,0,0,0-.1,0,0,0,0,0-.1v-.2ZM891.7,300.2c.7-.3,1.3-.6,1.9-.8.6-.3,1.2-.6,1.7-1.2h.2c.3,0,.5,0,.6-.3.1-.3.4-.4.6-.4h.2c.1-.2.5-.6,1.2-1,.7-.5,1.4-.9,2.1-1.5.8-.5,1.5-1,2.2-1.5.7-.5,1.2-.9,1.5-1.3,0,0,.2-.2.6-.4.3-.2.6-.5,1-.9.3-.3.7-.7.9-1.2.3-.5.4-1,.4-1.5s-.2-1-.5-1.4c-.3-.4-.7-.8-1.1-1.1-.4-.3-.9-.7-1.3-1-.5-.3-.8-.6-1-1-1.1,1.1-2.2,2.3-3.2,3.5-1.1,1.2-2.3,2.7-3.8,4.5-1.1,1.3-2.1,2.6-3,3.9-.9,1.3-1.7,2.6-2.4,3.9h.3c.3,0,.5,0,.5.3,0,.2.2.3.4.4Z"/>
    <path d="M914.7,303.8c.5-1.5.9-3.1,1.4-4.5.5-1.5.9-3.1,1.3-4.7.2-.3.3-.8.4-1.2,0-.5.3-.9.6-1.2,0-.2,0-.3,0-.5,0-.1,0-.3,0-.5.5-.5.8-1,1-1.8.2-.7.4-1.5.6-2.3.4-.5.7-1.1.9-1.8.2-.7.4-1.4.6-2.2.3-.5.5-.9.6-1.4.1-.5.3-1,.5-1.5,0-.1,0-.3.1-.5,0-.2,0-.4.2-.5.3-.6.6-1.2,1-1.8.4-.5.6-1.2.6-2,.2,0,.4-.2.4-.5,0-.3.1-.5.3-.6,0,0,0-.1,0-.2s0-.1,0-.2c0,0,0-.1,0-.3.2.1.4.2.6.3.2,0,.4,0,.7-.3,0,.2.2.3.5.3.6-.1,1.3,0,2,0,.7.1,1.2.5,1.5,1.1.1,0,.2,0,.2-.2.1,0,.2.1.1.3,0,.1,0,.2,0,.3,0,.3,0,.5.3.7.2.2.4.4.5.8,0,.3.1.8.2,1.3,0,.5.1,1.1.3,1.6,0,.1,0,.2.2.3,0,.2,0,.5,0,.9,0,.3,0,.6,0,.7,0,.5,0,1-.2,1.6-.1.6,0,1.1.2,1.3-.2.6-.4,1.1-.6,1.5-.1.4-.3.9-.4,1.4.5-.3.8-.7,1.2-1.2.3-.5.7-1,1.2-1.5.1-.1.3-.3.6-.5.3-.2.4-.4.6-.7.3-.3.7-.7.9-1.2.3-.4.6-.8.9-1.1,0-.1.1-.2.2-.2s.1,0,.1,0c.5-.5,1-1.1,1.3-1.9.4-.7.9-1.3,1.5-1.5,0,0,.1-.1.2-.2,0,0,0-.2,0-.3.4-.2.8-.4,1.1-.8.3-.3.6-.7.9-1.1.3-.4.6-.8.9-1.1.3-.3.7-.5,1.2-.6.3-.1.6-.2.9-.2s.6,0,1-.2c.4.3.8.4,1.3.3.5,0,.8.1,1.1.6.1.1.2.1.2,0,0-.1,0-.2.2,0,.3.2.7.4.9.7.3.3.6.6,1,.9.2-.1.5-.1.9,0,.3.6.7,1.1,1.1,1.5.5.4.8,1,.9,1.8.1.1.2.3.2.5,0,.2,0,.3.2.4,0,.1,0,.2,0,.2s-.1,0-.1.2c.3.8.4,1.6.3,2.3,0,.7-.2,1.5-.4,2.3.1.1.2.2.3.3,0,0,0,.2,0,.3,0,0-.2,0-.4,0-.1,1.1-.3,2.1-.6,2.9-.3.8-.5,1.7-.6,2.8-.1.1-.2.3-.3.6,0,.3-.1.5-.3.7,0,.1,0,.2,0,.2s0,0,0,.3c-.2.3-.4.7-.4,1.4,0,.6-.2,1.2-.4,1.6-.2,1.2-.4,2.4-.8,3.6-.4,1.2-.7,2.4-1,3.6v1c0,.3,0,.7-.2,1,0,.3-.1.5-.3.7-.1.2-.2.4-.3.7-.1.3-.2.5-.2.6s0,.3,0,.3c0,0-.1.2-.2.3,0,.1-.2.4-.4.6,0,.2,0,.3,0,.4,0,0,0,.2,0,.4-.2,0-.3-.1-.3-.3-.1.1-.1.3,0,.6,0,.3,0,.5,0,.6-.2.3-.3.3-.4,0-.1-.3-.3-.3-.5-.1-.2.1-.3.3-.3.6,0,.3-.2.5-.3.5,0,.7-.1,1.2-.4,1.7-.3.4-.4,1-.5,1.8-.3,0-.8,0-1.4-.2-.6-.2-1.1-.2-1.4.1-.5-1.1-.8-2.1-1.2-3-.3-.8-.6-2-.7-3.5,0-.6,0-1.2,0-2,0-.7.2-1.5.3-2.3.1-.8.3-1.5.3-2.3,0-.8.1-1.5.1-2.2-.2-.7-.3-1.6-.3-2.5s0-1.8-.3-2.7c-.2,0-.4,0-.8,0-.4,0-.6.1-.6.2-.3.4-.7.8-1,1.1-.3.3-.6.7-.9,1.1-.1.2-.2.3-.3.3-.2.2-.3.3-.5.5-.2.2-.3.3-.5.3-.7,1-1.3,1.8-1.9,2.6-.6.8-1.3,1.6-2.1,2.4-.3.2-.7.4-.9.8-.3.4-.6.8-.9,1.3-.3.5-.6,1-.8,1.4-.3.5-.6.8-.9,1-.2.2-.5.4-.7.6-.2.2-.4.5-.5.8-.1,0-.2,0-.2,0,0,0-.1,0-.2,0-.3.6-1,1.3-1.8,1.9-.9.6-1.5,1.3-1.9,1.9-.2,0-.3,0-.4,0-.1,0-.2.3-.3.8-.1.5-.2.7-.3.9-.3-.2-.5-.2-.6,0,0,.2-.3.2-.6.1-.3-.1-.7-.1-.9,0-.3.1-.6.2-.9,0-.3,0-.5.2-.6.4,0,.2-.1.4-.1.7-.3,0-.6.1-.8.3-.3.1-.4.4-.6.8-.4,0-.7-.3-.8-.9.2.3.3.3.3,0s0-.2-.2-.3c-.3.1-.4.4-.3.8,0,.4,0,.7-.3.9-.1-.2-.2-.6-.2-1-.3,0-.6.3-.9.6-.3,0-.6-.1-.6-.3,0-.2-.2-.3-.5-.3-.1-.2-.2-.5-.2-.9s0-.8,0-1.2c0-.4,0-.9,0-1.3s0-.8,0-1.2c.2-1.1.3-2.3.5-3.6.2-1.3.4-2.5.7-3.5,0,0,.1,0,.2,0Z"/>
    <path d="M939.4,337.6c.1-.3.2-.5.3-.7,0-.2.2-.5.3-.9h.2c0-.4.2-.7.3-1,.1-.3.3-.6.5-.9,0-.4,0-.7,0-.9,0-.2.2-.4.3-.7.2-.6.3-1.1.3-1.5.3-.3.5-.7.7-1.1.2-.4.3-.8.4-1.1.1-.3.2-.7.3-1,.1-.3.3-.7.4-1.1.2-.2.3-.2.3,0,0-.1.1-.3.1-.5,0-.2,0-.3.1-.3,0-.5,0-1,.4-1.7h0l.3-.8c.1-.1.2-.2.2-.2s0,0,.1-.2v-.3c-.1,0-.2-.1-.3-.2,0,0-.2-.2-.3-.3.7-.2,1.1-.5,1.1-.7v-.3c.4-.5.6-1,.6-1.4,0-.4.3-.9.6-1.6.3-1,.7-2,1.1-3,.4-1,.7-1.6,1-1.9,0-.4,0-.8.3-1.1h0l.4-1.1h0c.1-.2.2-.5.3-.9.1-.3.2-.7.3-.9l2.1-4.4c0,0,0,0,0-.1s0,0,0-.1c.1-.2.2-.4.3-.6.1-.3.2-.6.3-.9v-.3c0,0,.6-1.1.6-1.1h0c.1-.2.2-.5.3-.8.1-.3.2-.5.2-.6l.4-.7c.2-.3.3-.7.3-1-.1,0-.2,0-.3.2-.3.2-.6.4-.8.5-.3,0-.6,0-1-.5v-.2c-.3,0-.5,0-.7,0-.2,0-.4,0-.6,0-.3,0-.6,0-.9,0-.3,0-.4,0-.5,0,0,0-.1,0-.2,0-.2,0-.4,0-.6,0-.2,0-.4,0-.6,0-.7-.1-1.4-.2-2.1-.3-.6-.1-1.1-.3-1.3-.6-.5-.6-.7-1-.8-1.3,0-.3-.2-.6-.3-1,0-.3,0-.6,0-1,.1-.4.3-.6.7-.6h.2c0,0-.2,0-.2,0,0,0,.1,0,.1,0s0,0,0-.4c.5,0,1-.2,1.3-.3.4-.1.8-.3,1.2-.5l1.5-.4c.3-.1.6-.2.7-.2.2,0,.4-.1.7-.4l-.4-.4c.8-.5,1.5-.8,2.2-1,.7-.2,1.3-.5,2-.8.3-.1.8-.3,1.4-.5.6-.2.9-.3.8-.3l.9-.4c.3-.1.5-.2.7-.3.2,0,.4-.2.5-.4h.3c0,0,.1-.1.2-.2,0,0,.1,0,.2,0h0c.2-.3.3-.4.4-.4.1,0,.2,0,.3,0l1.1-2.2c.1-.1.2-.2.2-.3,0-.1,0-.2.1-.3h0s0,0,0-.1,0,0,0-.1c0-.4,0-.7.2-.8v.2c.2-.5.4-.8.6-.9.1-.2.2-.3.3-.5.1-.2.2-.4.3-.7.2,0,.3-.2.3-.4l.6-1.2c.2-.3.4-.8.6-1.3.2-.5.4-1.1.6-1.7.2-.6.4-1.1.6-1.6.2-.5.3-.8.4-1l.3-.2c.1-.3.3-.7.4-1,.5-.9.8-1.9,1.1-2.9h0s0-.1,0-.2c0,0,0-.1,0-.2.3-.3.5-.7.5-1.1.3-.3.6-.9.9-1.5.3-.7.5-1.3.8-1.8l.4-.9c.1-.3.3-.6.4-.9.2-.3.4-.7.7-1.1.2-.3.4-.7.6-1,.2-.3.3-.7.5-1,.3-.5.6-.9.9-1.3.3-.4.5-.8.7-1.2.2-.6.4-1,.6-1.3.2-.3.3-.6.5-.9v.2c0,0,0-.3,0-.3.1-.1.2-.2.4-.3.1-.1.2-.3,0-.5.3-.4.7-.9,1.1-1.4.4-.5.8-1.1,1.3-1.8h0c0,0,.5-.7.5-.7l.7-.9c.1-.2.2-.4.3-.6,0-.2.2-.4.5-.5,0-.3.1-.6.3-.9l.2.2v-.3c.5,0,.7,0,.8,0,.1,0,.2-.1.3-.2,0,0,.2,0,.5,0h-.2c0,0,0,0,0-.1s0,0,0,0c.1,0,.3,0,.5,0,.2,0,.4-.1.5-.3.3,0,.8,0,1.4.3.2,0,.3,0,.4,0,.1,0,.2,0,.3,0,0,0,.2,0,.3,0s.3,0,.4.1c.2,0,.3.2.4.2,0,0,0,0,0,.1,0,0,.2,0,.8,0l.3.3.8.3c-.2,0-.2-.1.2-.3.2.3.4.5.4.5h0c.2,0,.4.1.6.3,0-.2,0-.5.2-.7.2.8.4,1.2.6,1.3l.8.8c.1.1.2.3.3.5.1.2.1.4,0,.5.2-.2.3-.3.4-.3v1.8c0,.4,0,.8,0,1.1-.3.7-.5,1.2-.6,1.5,0,.3-.1.6-.2.9l-.7,2.3v.2c0,0-.4.5-.4.5l-.2.3c0,0,0,.1,0,.2,0,0,0,.2,0,.3-.3.4-.6,1-.9,1.8h0c-.1.2-.2.5-.3.8,0,.3-.2.6-.4.9,0,.2-.1.6-.3,1h0c0,.1-.1.2-.1.4,0,.1,0,.4,0,.6h-.4c-.1.6-.3,1-.5,1.3-.2.3-.5.6-.8.9s-.5.5-.8.7c-.2.2-.4.4-.5.7-.3-.1-.7-.1-.9,0-.3-.5-.6-.7-.8-.7-.3-.2-.7-.5-.9-.7-.3-.2-.5-.5-.6-.8h-.2c0,0,.2,0,.2,0-.1.1-.3.2-.4.2l-1.2,1.9h0c0,0-1.1,2.1-1.1,2.1h0c0,.2-.2.5-.4.9-.2.3-.4.7-.5.9l-1.3,2.6h0c-1.1,2.2-1.8,3.7-1.9,4.7h-.3c0,.2,0,.2,0,.2,0,0,0,0-.1.1-.4.8-.7,1.5-1,2.1-.3.6-.4,1-.5,1.3h0c0,.1,0,.2-.2.2l-.8,1.5h0c0,0,0,.1,0,.2s0,.1,0,.3l.7-.3c0,.4,0,.7,0,.9,0,0,.3,0,.6-.2.3-.1.7-.2,1.1-.2s.2,0,.3,0c0,0,.1,0,.3,0,.6-.1,1.3-.2,2-.3s1.3,0,2,0,.6,0,.8,0c.3,0,.6,0,.9-.1.1,0,.3,0,.4,0,.2,0,.4-.2.7-.5.2.6.4.9.6.9.2,0,.4,0,.6,0v.8s0,0,0,0,0,0,0,0h0l-.2.2c0,0-.1.1-.1.2,0,0,0,.2-.1.2.1.2.2.4.2.5,0,0,0,.2,0,.2s0,.1,0,.3c0,.1,0,.2,0,.3l-.3.2c-.2.1-.3.2-.5.4-.2.1-.3.3-.3.4,0,0,0,.1,0,.2s0,0-.2,0h0c-.2.3-.3.4-.5.6-.1.1-.2.3-.3.5-.3.3-.5.5-.7.5-.2,0-.4.1-.6.2,0,0-.1,0-.2,0,0,0-.1,0-.2,0l-.3.2h.3c-.2,0-.4.1-.6.3-.2.1-.4.2-.8.3-.1-.1-.3-.1-.5,0h-.3c-.5.3-.8.4-1,.4v.3c0,0-.1,0-.3,0-.1,0-.2,0-.3,0h0-.1s0,0,.1.2c-.8.1-1.5.3-2.1.4-.6.2-1.1.3-1.7.5-.8.3-1.9.6-3.3.8-.1,0-.3.1-.5.2-.2,0-.3.1-.4.2l-.4.3c0,.1,0,.2,0,.3,0,0,0,.2,0,.2l-.3.3c0,.2-.1.3-.4.4h0l-.3.9h0c-.1.4-.2.8-.3.9v-.2l-.3.6-.3.7h0c-.1.1-.2.3-.3.6-.1.3-.3.5-.4.7h0c0,0-.7,1.1-.7,1.1l-.6,1.1-.4.9c0,.4-.1.7-.4,1v-.2.2c0,.2-.2.5-.5,1-.3.5-.5,1-.8,1.6-.3.6-.6,1.1-.9,1.6-.3.5-.5.8-.6,1,0,0,.1-.1.3-.2.1,0,.2,0,.3,0-.3.6-.8,1.5-1.2,2.7-.5,1.3-1,2.6-1.5,4.1-.7,1.8-1.3,3.5-1.9,5.2s-1.3,3.1-2.2,4.2c0,0,0-.1,0-.2-.5.7-.9,1.3-1.4,1.8v.7c-.1.1-.3.2-.5.4-.2.1-.6.3-1.1.5.2-1.3.3-2,.4-2.2h0c-.1.2-.2.3-.4.5-.1.1-.3.3-.4.6,0,0,0,0,0,0s0,0,0,0l-.2.3c0,.2-.1.3-.2.5,0,.2-.1.3-.3.3-.1.3-.2.4-.4.4-.1,0-.3-.1-.4-.2,0,0,0,0,0,0,0,.2-.2.6-.5,1-.1.1-.1.2,0,.3-.1,0-.2.1-.1.2,0,0,0,.1-.1.3,0,.4-.3.8-.8,1.1h0c0,0-.8.6-.8.6-.1.1-.3.2-.5.4-.2.1-.5.3-.9.4-.2.2-.3.4-.3.6v.7c0,0-.2.1-.5.3h0c0,.2,0,.3,0,.3,0,.5-.2.8-.3,1-.2.2-.4.5-.6.8-.2.2-.4.5-.6.8-.2.3-.3.6-.4.9-.2.1-.2.2-.2.3,0,0,0,.2,0,.3-.1.2-.3.4-.5.6-.2.2-.6.4-1,.5v-.3c-.4,0-.7,0-.8,0l-.3-.2c-.1-.5-.1-.9,0-1.2.1-.4.3-.7.4-1h0Z"/>
    <path d="M1019.1,292.1c0,0-.1,0-.1,0s0,0-.1,0c.2.3.6.4,1,0,.4-.3.8-.4,1.2-.4,0,.1,0,.2,0,.2,0,0,0,0,0,.1.1.2.2.2.3,0,0-.1.2-.1.3,0,0,.2,0,.3-.1.3-.1,0-.2,0-.2,0-.1,0-.2.1-.2.2s0,.1-.2.1c0,.2,0,.5,0,.7.2,0,.5,0,.7,0,0,.2,0,.5,0,.9-.3.2-.5.4-.6.6-.1.2-.4.4-.6.6-.1,0-.2,0-.2,0s0-.1-.2-.1v.3c-.3,0-.4,0-.5.1,0,.1-.1.3-.2.5.2,0,.3,0,.3-.1s.2-.2.3-.3c0,.1,0,.2.2.2.1,0,.2.1.2.2-.2,0-.3,0-.3,0,0,0-.2,0-.3,0,0,0,0,0,0,.1,0,0,0,.1,0,.2-.2,0-.3,0-.3.1s0,.3,0,.4c-.5,0-.8.1-1.1.3-.3.2-.6.3-1,.3-.1.2-.3.3-.6.3s-.4.1-.6.4c-.1,0-.2,0-.2,0,0,0,0,0-.1,0-.2.3-.4.5-.7.5-.3,0-.5.2-.7.3h0c-.1.3-.3.6-.5.8-.2.2-.4.2-.6,0-.1.2-.3.4-.5.6-.2.1-.4.3-.5.5.1,0,.3,0,.5-.2.2-.2.4-.1.5,0-.3.3-.6.5-1,.7-.4.2-.8.3-1.2.4,0,.2,0,.3,0,.2,0,0,0,0,0,0-.1.1-.2.2-.3.2-.1,0-.2.2-.2.5-.6-.1-.8.1-.8.7-.1,0-.2,0-.3-.2-.8.6-1.7,1.2-2.6,1.6-.9.5-1.8,1-2.7,1.5-.6,0-1.2.3-1.7.9-.9.3-1.7.6-2.4,1.1-.8.4-1.5.9-2.3,1.3,0,.1,0,.1,0,0,0,0,.1,0,.2,0-.6.5-1.3.9-2.1,1.2-.8.3-1.5.7-2.1,1.2-.7,0-1.4.2-2.1.5-.6.3-1.3.5-1.9.6-.1,0-.3,0-.5,0-.2,0-.4,0-.6,0-.5.1-1.1.1-1.9,0-.8,0-1.5-.1-2.1-.3-.1,0-.2-.1-.4-.2-.1,0-.3-.2-.5-.3,0,0-.1,0-.2,0,0,0-.2,0-.2,0-.1,0-.2-.2-.3-.3-.1-.2-.3-.3-.5-.4-.3-.2-.6-.4-.9-.6-.3-.2-.6-.4-.9-.5,0-.1,0-.2,0-.2,0,0,0,0,0-.2-.2,0-.3,0-.3,0,0-.1,0-.2,0-.3,0,0,0-.1,0-.2-.1,0-.2,0-.1,0,0,0,0,.1,0,0-.5-.6-.9-1.3-1.2-2-.3-.7-.7-1.3-1.2-1.8-.1-.9-.4-1.5-.9-2,0,0,0,0,0,.1,0,0,0,.1,0,.1-.6-.9-.8-2-.8-3.4,0-1.4.3-2.7.7-3.8.2-.2.3-.5.4-.8.1-.3.3-.5.6-.6.6-1.6,1.4-3,2.4-4.1,1-1.1,1.9-2.2,2.8-3.2.2-.2.4-.4.6-.6.2-.2.4-.4.6-.7.2-.2.4-.5.8-.8.3-.3.6-.6.9-.9.3-.3.6-.6,1-.9.6-.5,1-.9,1.4-1.4.4-.5.8-.9,1.4-1.2,0-.1,0-.2,0-.2s0,0,0-.2c.4-.2.8-.4,1.1-.6.3-.3.6-.6.9-1.1.5,0,.8,0,1-.4.2-.3.4-.6.7-.8.2-.1.4-.2.6-.3.2,0,.4-.2.6-.3.2-.2.4-.4.6-.5.9-.6,1.7-1.1,2.6-1.6.9-.5,1.8-1,2.7-1.4.6-.3,1.3-.6,2-1,.7-.4,1.4-.7,2.2-.9.2,0,.3,0,.3-.2.1,0,.2,0,.4,0,.1,0,.3-.2.4-.2.5-.2.9-.3,1.4-.5.5-.1,1-.3,1.4-.4.5,0,1,0,1.6,0,.6,0,1.1.2,1.6.5,0,.2,0,.3,0,.3h-.2c.2.2.5.3.8.5.3.2.5.5.6.9.1.1.3.2.5.3.2.5.4.8.7.9-.1,0-.1,0,0,.1,0,0,0,0,0,.1.2.2.4.4.4.6,0,.2.1.4.3.7.1.3.3.5.4.7.2.2.3.4.4.7.1.2.2.4.2.6s0,.4.2.5c0,.3,0,.5,0,.6.2.1.4.3.4.5,0,.2,0,.4,0,.6,0,.2-.1.4-.1.6,0,.2,0,.5.1.7,0,.1,0,.2-.1.3s-.1.2,0,.4c-.5.5-.9,1-1.2,1.6-.3.6-.7,1.1-1.1,1.6-.1,0-.2.1-.2.2,0,0-.1.1-.2.2-.2.3-.4.5-.6.8-.2.2-.4.5-.7.7-.1.1-.2.2-.4.3-.1,0-.3.2-.4.4-.1.1-.3.2-.4.4-.2.1-.3.3-.4.4-.3.1-.6.2-1,.4-.4.1-.6.4-.8.6-.9.5-1.8,1.1-2.7,1.6-.9.6-1.8,1.1-2.7,1.5-.3.1-.5.2-.8.2-.2,0-.4.2-.6.4-.3,0-.5.1-.8.3-.2.2-.5.3-.9.4-.2,0-.3,0-.3.3h-.3c-.6.3-1.2.6-1.8.8-.6.2-1.2.4-1.8.6-.2,0-.3,0-.3,0-.3,0-.5.1-.6.3-.1.1-.4.1-.6,0-.1.1-.2.2-.3.3-.5,0-.9,0-1.3.2-.4.1-.8.1-1.3,0-.1,0-.2,0-.2,0s0,.1-.2.2c-.3-.1-.6-.2-.9-.2s-.5-.1-.6-.4c-.1,0-.2,0-.3,0-.1,0-.3,0-.4-.1-.5.5-.9.9-1.4,1.5-.5.5-.9,1.1-1.2,1.8,0,0,0,0,0,0s0,0,0,0c0,.2-.2.4-.3.5-.1,0-.2.3-.2.7-.3.2-.5.5-.6.9,0,.5-.2.8-.5,1.1.6,0,1.3,0,2-.3.7-.2,1.4-.3,2-.3.1,0,.2-.1.2-.2s0-.2.2-.2c.4,0,.7,0,.9-.1.2-.1.5-.2.9-.2s.1-.1.3-.3c.3,0,.6,0,1-.2.4-.2.7-.3,1-.5.6,0,1.2-.2,1.8-.5.6-.3,1.2-.5,1.8-.6.3-.3.7-.5,1.2-.5s.8-.2,1-.6c.5-.1.9-.2,1.3-.3.4,0,.8-.3,1.2-.6,0,0,0,0,0,0s0,0,.2,0v-.2c.3-.2.7-.4,1.2-.4.5,0,.8-.3,1.1-.7.8,0,1.5-.2,2.1-.6h0c0,0,0,0,0,0s0,0,0,0,0,0,.1,0c0,0,0-.1.2-.2.8-.2,1.6-.5,2.4-.9.8-.4,1.7-.8,2.7-1.3.1.1.2.1.3,0,.1,0,.3,0,.4,0,.5-.3.9-.5,1.4-.5.5,0,.9-.2,1.5-.3.3-.1.7-.3,1-.4.3-.2.7-.3,1.1-.3s.9-.1,1.3-.4c.4-.3.8-.5,1.3-.6.2,0,.5,0,.7,0,.3,0,.5,0,.6,0,0,.2,0,.3-.2.3s-.2,0-.2.3c-.3-.1-.6,0-.9.2-.2.3-.5.3-.9.2,0,.1-.1.2-.2.2s0,0,0,.2ZM996.5,288.7c.2-.3.4-.3.7-.1.3.2.5.2.7,0,0,.2,0,.3,0,.3s.1,0,.2-.1.2-.2.3-.3c0,0,.2-.1.2-.1,0,0,.1,0,.2,0,0,0,.2,0,.2,0,.3,0,.6-.1.8-.5.2-.4.4-.6.7-.5.2-.3.5-.4.7-.4s.5-.2.6-.5c.3,0,.8-.1,1.3-.3.5-.2,1.2-.7,2-1.4.1-.2.3-.7.7-1.3.3-.6.6-1,.8-1.1-.1-.1-.3-.1-.5,0-.2,0-.4.1-.6.3-.2.1-.4.2-.6.3-.2,0-.3.1-.4,0-.1.1-.4.3-.8.6-.4.3-.7.5-.8.5-.4,0-.7.3-1,.6-.3.4-.6.5-.9.4-.1.2-.3.4-.4.6-.2.2-.4.2-.6,0-.1.1-.2.2-.3.3-.1.1-.3.2-.5.2s0,0,0,.1c0,0,0,.1,0,.1-.2,0-.3,0-.4.1,0,.1-.2.2-.3.2,0,0,0,0,0,0v.2c-.3.3-.7.5-1.1.7-.4.2-.7.5-1,1h-.2v.3c.1,0,.2,0,.2,0,0,0,0,0,.2,0Z"/>
    <path d="M1015,309.8c0,0-.1,0-.2-.2,0-.2,0-.4,0-.6v-.8c0-.3,0-.5,0-.6.1-.4.3-.7.5-.9.2-.2.4-.4.5-.6,0-.2.1-.4.2-.7,0-.3,0-.4,0-.4.3-.5.5-1,.8-1.5.2-.6.4-.9.6-1.1.6-1.2,1.1-2.7,1.7-4.4.5-1.7,1.1-3.2,1.7-4.3.5-.9.9-1.8,1.3-2.8.4-.9.7-1.9,1-3,.3-.1.5-.5.6-1.2s.4-1.2.9-1.5c.6-2.2,1.3-4.2,2.1-6.1.8-1.9,1.4-3.9,1.9-5.9.3,0,.5,0,.6.3,0-.3.2-.5.5-.6.3,0,.6,0,.7,0,.2.2.2.3,0,.3,0,.1,0,.2.2.1.1,0,.2,0,.1.3.1,0,.2,0,.3-.1.1,0,.2-.1.2-.3.2.3.4.4.6.3.2,0,.4,0,.5.4.1,0,.1,0,0-.1,0,0-.1,0,0-.2.3.1.7.3,1.1.6.4.3.8.5,1.2.6.4.6.7,1.2.8,1.8.1.6.4,1.1.8,1.6-.1.6-.2,1.2-.4,1.8-.1.6-.3,1.2-.5,1.8,0,.2.1.2.2,0,0-.3.2-.3.2,0,.3-.5.8-.8,1.3-1.2.5-.3,1.1-.7,1.6-1.2-.1-.2,0-.5.4-.7.4-.2.7-.5.8-.7.3-.5.7-1,1-1.6.3-.6.7-1.1,1-1.6l.8-.8c.2-.2.4-.5.6-.7.3-.2.5-.5.7-.8.2-.3.4-.5.7-.5-.1-.3,0-.5.3-.8.3-.2.6-.4.8-.6,0,.2,0,.3,0,.3,0,0,0,.2,0,.4,0,.1.2.1.3,0,.1-.1.2-.3.2-.4.2.2.3.3.5.3s.2.2.2.7c.2,0,.4,0,.5,0,.1-.1,0,0,0,.2.1,0,.2,0,.4-.2.1-.1.2,0,.2.3.1,0,.2,0,.3,0,0,0,.1,0,.3,0,.1.5.3.7.7.8.3,0,.5.2.5.5.3,0,.5,0,.5-.1,0,0,.1,0,.3.1,0,.2,0,.4.3.6.2.2.2.3-.2.2.1.1.2.2.3.2,0,0,0,.1,0,.2,0-.1.1-.2.3-.1.1,0,.2,0,.3-.1,0,.1.2.2.3.2.1,0,.2.1.3.2-.1.6.1.9.7,1,0,.2,0,.3-.3.5-.2.1-.2.3,0,.5,0,0,0-.1.1-.2,0,0,0-.2.1-.2,0,0,0,.2,0,.7,0,.5-.1.9-.3,1.2.1,0,.2,0,.2.3,0,.2,0,.4-.1.5.1,0,.2,0,.3,0,0,.3-.2.8-.6,1.5-.4.7-.6,1.3-.7,1.8-.2.2-.5.6-.7,1.1-.2.5-.3.9-.3,1.2,0,0,0,0,0,0-.3.7-.6,1.4-.9,2.3-.2.8-.6,1.6-1,2.2,0,0,0,0,0-.3-.2,0-.2.2-.1.4,0,.2.2.3.2.3-.1.1-.2.3-.1.6,0,.3,0,.3-.3.2.2.3.2.5,0,.6s-.2.3,0,.6c-.1-.1-.2-.1-.3,0,0,.1-.2.1-.2,0-.3.6-.5,1.4-.3,2.3-.2-.1-.4-.1-.4,0,0,.1-.2.1-.3,0,.1.2.1.4,0,.4-.1,0-.2,0-.3,0,0,0,0,0,0,0,0,.2,0,.2-.1,0-.1-.1-.2,0-.3,0v-.3c-.4.2-.8.1-1.1-.1-.3-.3-.5-.2-.6,0-.1-.2-.2-.6-.2-1.1-.3.3-.5.4-.6.2,0-.2-.3-.3-.6-.2-.1-.2-.2-.4-.3-.6-.1-.1-.2-.3-.3-.4,0,.2,0,.3-.3.3-.2-.6-.4-.9-.6-1-.2-.1-.4-.5-.7-1.1-.6.4-1.1.9-1.5,1.4-.5.5-1,1-1.6,1.4v-.2c-.1,0-.1.1,0,.2.1,0,.1.2,0,.4-.1,0-.2,0-.3.3-.1.2-.2.3-.3.5-.1.1-.2.3-.4.3-.1,0-.3,0-.4,0,0,0,0,.1,0,.3-.5.6-1,1.3-1.5,2-.5.7-1,1.3-1.5,1.7-.1,0-.1,0,0,0,0,0,0,.1,0,.2-.6.8-1.3,1.8-2,3-.7,1.2-1.3,2.2-1.7,3,0,0-.1.2-.3.5-.1.3-.2.5-.3.6-.1,0-.1,0,0,0,0,0,0,0,0,.3-.2.3-.4.7-.7,1.1-.3.5-.6.8-.9,1.1-.3.3-.6.6-.9.9-.3.3-.6.6-.9.9-.2.4-.4.8-.6,1.3-.2.5-.5.9-.8,1.3-.2.3-.4.7-.8,1.2-.3.5-.5,1.1-.3,1.6-.5,0-1-.1-1.5-.2-.6,0-1.1,0-1.5.2,0-.1-.1-.3-.2-.6,0-.3-.1-.5-.3-.8-.1,0-.2.1-.3.3,0,.1-.1.1-.3,0,0-.3-.1-.4-.3-.4s-.3-.1,0-.3c-.3,0-.5,0-.6-.3-.1-.3-.3-.3-.4-.2-.1-.3-.2-.5-.2-.6,0-.1,0-.3,0-.5-.2-.1-.3-.1-.3,0s-.2,0-.4,0c0-.5,0-.7-.2-.8-.1,0-.3-.2-.4-.4v.3c-.2-.1-.4-.3-.4-.6,0-.3,0-.5.2-.7Z"/>
    <path d="M1085.5,292.1c0,0-.1,0-.1,0s0,0-.1,0c.2.3.6.4,1,0,.4-.3.8-.4,1.2-.4,0,.1,0,.2,0,.2,0,0,0,0,0,.1.1.2.2.2.3,0,0-.1.2-.1.3,0,0,.2,0,.3-.1.3-.1,0-.2,0-.2,0-.1,0-.2.1-.2.2s0,.1-.2.1c0,.2,0,.5,0,.7.2,0,.5,0,.7,0,0,.2,0,.5,0,.9-.3.2-.5.4-.6.6-.1.2-.4.4-.6.6-.1,0-.2,0-.2,0s0-.1-.2-.1v.3c-.3,0-.4,0-.5.1,0,.1,0,.3-.2.5.2,0,.3,0,.3-.1,0,0,.2-.2.3-.3,0,.1,0,.2.2.2.1,0,.2.1.2.2-.2,0-.3,0-.3,0,0,0-.2,0-.3,0,0,0,0,0,0,.1s0,.1,0,.2c-.2,0-.3,0-.3.1s0,.3,0,.4c-.5,0-.8.1-1.1.3-.3.2-.6.3-1,.3-.1.2-.3.3-.6.3s-.4.1-.6.4c-.1,0-.2,0-.2,0,0,0,0,0-.1,0-.2.3-.4.5-.7.5-.3,0-.5.2-.7.3h0c-.1.3-.3.6-.5.8-.2.2-.4.2-.6,0-.1.2-.3.4-.5.6-.2.1-.4.3-.5.5.1,0,.3,0,.5-.2.2-.2.4-.1.5,0-.3.3-.6.5-1,.7-.4.2-.8.3-1.2.4,0,.2,0,.3,0,.2,0,0,0,0,0,0-.1.1-.2.2-.3.2-.1,0-.2.2-.2.5-.6-.1-.8.1-.8.7-.1,0-.2,0-.3-.2-.8.6-1.7,1.2-2.6,1.6-.9.5-1.8,1-2.7,1.5-.6,0-1.2.3-1.7.9-.9.3-1.7.6-2.4,1.1-.8.4-1.5.9-2.3,1.3,0,.1,0,.1,0,0s.1,0,.2,0c-.6.5-1.3.9-2.1,1.2-.8.3-1.5.7-2.1,1.2-.7,0-1.4.2-2.1.5-.6.3-1.3.5-1.9.6-.1,0-.3,0-.5,0-.2,0-.4,0-.6,0-.5.1-1.1.1-1.9,0-.8,0-1.5-.1-2.1-.3-.1,0-.2-.1-.4-.2-.1,0-.3-.2-.5-.3,0,0-.1,0-.2,0,0,0-.2,0-.2,0-.1,0-.2-.2-.3-.3-.1-.2-.3-.3-.5-.4-.3-.2-.6-.4-.9-.6-.3-.2-.6-.4-.9-.5,0-.1,0-.2,0-.2,0,0,0,0,0-.2-.2,0-.3,0-.3,0,0-.1,0-.2,0-.3,0,0,0-.1,0-.2-.1,0-.2,0-.1,0,0,0,0,.1,0,0-.5-.6-.9-1.3-1.2-2-.3-.7-.7-1.3-1.2-1.8-.1-.9-.4-1.5-.9-2,0,0,0,0,0,.1,0,0,0,.1,0,.1-.6-.9-.8-2-.8-3.4,0-1.4.3-2.7.7-3.8.2-.2.3-.5.4-.8.1-.3.3-.5.6-.6.6-1.6,1.4-3,2.4-4.1,1-1.1,1.9-2.2,2.8-3.2.2-.2.4-.4.6-.6.2-.2.4-.4.6-.7.2-.2.4-.5.8-.8.3-.3.6-.6.9-.9.3-.3.6-.6,1-.9.6-.5,1-.9,1.4-1.4.4-.5.8-.9,1.4-1.2,0-.1,0-.2,0-.2s0,0,0-.2c.4-.2.8-.4,1.1-.6.3-.3.6-.6.9-1.1.5,0,.8,0,1-.4.2-.3.4-.6.7-.8.2-.1.4-.2.6-.3.2,0,.4-.2.6-.3.2-.2.4-.4.6-.5.9-.6,1.7-1.1,2.6-1.6.9-.5,1.8-1,2.7-1.4.6-.3,1.3-.6,2-1,.7-.4,1.4-.7,2.2-.9.2,0,.3,0,.3-.2.1,0,.2,0,.4,0,.1,0,.3-.2.4-.2.5-.2.9-.3,1.4-.5.5-.1,1-.3,1.4-.4.5,0,1,0,1.6,0,.6,0,1.1.2,1.6.5,0,.2,0,.3,0,.3h-.2c.2.2.5.3.8.5.3.2.5.5.6.9.1.1.3.2.5.3.2.5.4.8.7.9-.1,0-.1,0,0,.1,0,0,0,0,0,.1.2.2.4.4.4.6,0,.2.1.4.3.7.1.3.3.5.4.7s.3.4.4.7c.1.2.2.4.2.6s0,.4.2.5c0,.3,0,.5,0,.6.2.1.4.3.4.5,0,.2,0,.4,0,.6,0,.2-.1.4-.1.6,0,.2,0,.5.1.7,0,.1,0,.2-.1.3,0,0-.1.2,0,.4-.5.5-.9,1-1.2,1.6-.3.6-.7,1.1-1.1,1.6-.1,0-.2.1-.2.2,0,0,0,.1-.2.2-.2.3-.4.5-.6.8-.2.2-.4.5-.7.7-.1.1-.2.2-.4.3-.1,0-.3.2-.4.4-.1.1-.3.2-.4.4-.2.1-.3.3-.4.4-.3.1-.6.2-1,.4-.4.1-.6.4-.8.6-.9.5-1.8,1.1-2.7,1.6-.9.6-1.8,1.1-2.7,1.5-.3.1-.5.2-.8.2-.2,0-.4.2-.6.4-.3,0-.5.1-.8.3-.2.2-.5.3-.9.4-.2,0-.3,0-.3.3h-.3c-.6.3-1.2.6-1.8.8-.6.2-1.2.4-1.8.6-.2,0-.3,0-.3,0-.3,0-.5.1-.6.3-.1.1-.4.1-.6,0-.1.1-.2.2-.3.3-.5,0-.9,0-1.3.2-.4.1-.8.1-1.3,0-.1,0-.2,0-.2,0s0,.1-.2.2c-.3-.1-.6-.2-.9-.2s-.5-.1-.6-.4c-.1,0-.2,0-.3,0-.1,0-.3,0-.4-.1-.5.5-.9.9-1.4,1.5-.5.5-.9,1.1-1.2,1.8,0,0,0,0,0,0s0,0,0,0c0,.2-.2.4-.3.5-.1,0-.2.3-.2.7-.3.2-.5.5-.6.9,0,.5-.2.8-.5,1.1.6,0,1.3,0,2-.3.7-.2,1.4-.3,2-.3.1,0,.2-.1.2-.2s0-.2.2-.2c.4,0,.7,0,.9-.1.2-.1.5-.2.9-.2s.1-.1.3-.3c.3,0,.6,0,1-.2.4-.2.7-.3,1-.5.6,0,1.2-.2,1.8-.5.6-.3,1.2-.5,1.8-.6.3-.3.7-.5,1.2-.5s.8-.2,1-.6c.5-.1.9-.2,1.3-.3.4,0,.8-.3,1.2-.6,0,0,0,0,0,0s0,0,.2,0v-.2c.3-.2.7-.4,1.2-.4.5,0,.8-.3,1.1-.7.8,0,1.5-.2,2.1-.6h0c0,0,0,0,0,0s0,0,0,0,0,0,.1,0c0,0,0-.1.2-.2.8-.2,1.6-.5,2.4-.9.8-.4,1.7-.8,2.7-1.3.1.1.2.1.3,0,.1,0,.3,0,.4,0,.5-.3.9-.5,1.4-.5.5,0,.9-.2,1.5-.3.3-.1.7-.3,1-.4.3-.2.7-.3,1.1-.3s.9-.1,1.3-.4c.4-.3.8-.5,1.3-.6.2,0,.5,0,.7,0,.3,0,.5,0,.6,0,0,.2,0,.3-.2.3s-.2,0-.2.3c-.3-.1-.6,0-.9.2-.2.3-.5.3-.9.2,0,.1-.1.2-.2.2s0,0,0,.2ZM1062.9,288.7c.2-.3.4-.3.7-.1.3.2.5.2.7,0,0,.2,0,.3,0,.3s.1,0,.2-.1l.3-.3c0,0,.2-.1.2-.1,0,0,.1,0,.2,0,0,0,.2,0,.2,0,.3,0,.6-.1.8-.5.2-.4.4-.6.7-.5.2-.3.5-.4.7-.4s.5-.2.6-.5c.3,0,.8-.1,1.3-.3.5-.2,1.2-.7,2-1.4.1-.2.3-.7.7-1.3.3-.6.6-1,.8-1.1-.1-.1-.3-.1-.5,0-.2,0-.4.1-.6.3-.2.1-.4.2-.6.3-.2,0-.3.1-.4,0-.1.1-.4.3-.8.6-.4.3-.7.5-.8.5-.4,0-.7.3-1,.6-.3.4-.6.5-.9.4-.1.2-.3.4-.4.6-.2.2-.4.2-.6,0-.1.1-.2.2-.3.3-.1.1-.3.2-.5.2s0,0,0,.1c0,0,0,.1,0,.1-.2,0-.3,0-.4.1,0,.1-.2.2-.3.2,0,0,0,0,0,0v.2c-.3.3-.7.5-1.1.7-.4.2-.7.5-1,1h-.2v.3c.1,0,.2,0,.2,0,0,0,0,0,.2,0Z"/>
    <path d="M1083.8,303.8c.5-1.5.9-3.1,1.4-4.5.5-1.5.9-3.1,1.3-4.7.2-.3.3-.8.4-1.2,0-.5.3-.9.6-1.2,0-.2,0-.3,0-.5,0-.1,0-.3,0-.5.5-.5.8-1,1-1.8.2-.7.4-1.5.6-2.3.4-.5.7-1.1.9-1.8.2-.7.4-1.4.6-2.2.3-.5.5-.9.6-1.4.1-.5.3-1,.5-1.5,0-.1,0-.3.1-.5,0-.2,0-.4.2-.5.3-.6.6-1.2,1-1.8.4-.5.6-1.2.6-2,.2,0,.4-.2.4-.5,0-.3.1-.5.3-.6,0,0,0-.1,0-.2s0-.1,0-.2c0,0,0-.1,0-.3.2.1.4.2.6.3.2,0,.4,0,.7-.3,0,.2.2.3.5.3.6-.1,1.3,0,2,0,.7.1,1.2.5,1.5,1.1.1,0,.2,0,.2-.2.1,0,.2.1.1.3,0,.1,0,.2,0,.3,0,.3,0,.5.3.7.2.2.4.4.5.8,0,.3.1.8.2,1.3,0,.5.1,1.1.3,1.6,0,.1,0,.2.2.3,0,.2,0,.5,0,.9,0,.3,0,.6,0,.7,0,.5,0,1-.2,1.6-.1.6,0,1.1.2,1.3-.2.6-.4,1.1-.6,1.5s-.3.9-.4,1.4c.5-.3.8-.7,1.2-1.2.3-.5.7-1,1.2-1.5.1-.1.3-.3.6-.5.3-.2.4-.4.6-.7.3-.3.7-.7.9-1.2.3-.4.6-.8.9-1.1,0-.1.1-.2.2-.2s.1,0,.1,0c.5-.5,1-1.1,1.3-1.9.4-.7.9-1.3,1.5-1.5l.2-.2c0,0,0-.2,0-.3.4-.2.8-.4,1.1-.8.3-.3.6-.7.9-1.1.3-.4.6-.8.9-1.1.3-.3.7-.5,1.2-.6.3-.1.6-.2.9-.2s.6,0,1-.2c.4.3.8.4,1.3.3.5,0,.8.1,1.1.6.1.1.2.1.2,0,0-.1,0-.2.2,0,.3.2.7.4.9.7.3.3.6.6,1,.9.2-.1.5-.1.9,0,.3.6.7,1.1,1.1,1.5.5.4.8,1,.9,1.8.1.1.2.3.2.5,0,.2,0,.3.2.4,0,.1,0,.2,0,.2s-.1,0-.1.2c.3.8.4,1.6.3,2.3,0,.7-.2,1.5-.4,2.3.1.1.2.2.3.3,0,0,0,.2,0,.3,0,0-.2,0-.4,0-.1,1.1-.3,2.1-.6,2.9-.3.8-.5,1.7-.6,2.8-.1.1-.2.3-.3.6,0,.3-.1.5-.3.7,0,.1,0,.2,0,.2s0,0,0,.3c-.2.3-.4.7-.4,1.4,0,.6-.2,1.2-.4,1.6-.2,1.2-.4,2.4-.8,3.6-.4,1.2-.7,2.4-1,3.6v1c0,.3,0,.7-.2,1,0,.3-.1.5-.3.7-.1.2-.2.4-.3.7-.1.3-.2.5-.2.6s0,.3,0,.3c0,0-.1.2-.2.3,0,.1-.2.4-.4.6,0,.2,0,.3,0,.4,0,0,0,.2,0,.4-.2,0-.3-.1-.3-.3-.1.1-.1.3,0,.6,0,.3,0,.5,0,.6-.2.3-.3.3-.4,0-.1-.3-.3-.3-.5-.1-.2.1-.3.3-.3.6,0,.3-.2.5-.3.5,0,.7-.1,1.2-.4,1.7-.3.4-.4,1-.5,1.8-.3,0-.8,0-1.4-.2-.6-.2-1.1-.2-1.4.1-.5-1.1-.8-2.1-1.2-3-.3-.8-.6-2-.7-3.5,0-.6,0-1.2,0-2,0-.7.2-1.5.3-2.3s.3-1.5.3-2.3.1-1.5.1-2.2c-.2-.7-.3-1.6-.3-2.5s0-1.8-.3-2.7c-.2,0-.4,0-.8,0-.4,0-.6.1-.6.2-.3.4-.7.8-1,1.1-.3.3-.6.7-.9,1.1-.1.2-.2.3-.3.3l-.5.5c-.2.2-.3.3-.5.3-.7,1-1.3,1.8-1.9,2.6-.6.8-1.3,1.6-2.1,2.4-.3.2-.7.4-.9.8-.3.4-.6.8-.9,1.3-.3.5-.6,1-.8,1.4-.3.5-.6.8-.9,1-.2.2-.5.4-.7.6-.2.2-.4.5-.5.8-.1,0-.2,0-.2,0,0,0-.1,0-.2,0-.3.6-1,1.3-1.8,1.9-.9.6-1.5,1.3-1.9,1.9-.2,0-.3,0-.4,0-.1,0-.2.3-.3.8-.1.5-.2.7-.3.9-.3-.2-.5-.2-.6,0,0,.2-.3.2-.6.1-.3-.1-.7-.1-.9,0-.3.1-.6.2-.9,0-.3,0-.5.2-.6.4,0,.2-.1.4-.1.7-.3,0-.6.1-.8.3-.3.1-.4.4-.6.8-.4,0-.7-.3-.8-.9.2.3.3.3.3,0s0-.2-.2-.3c-.3.1-.4.4-.3.8,0,.4,0,.7-.3.9-.1-.2-.2-.6-.2-1-.3,0-.6.3-.9.6-.3,0-.6-.1-.6-.3,0-.2-.2-.3-.5-.3-.1-.2-.2-.5-.2-.9s0-.8,0-1.2c0-.4,0-.9,0-1.3s0-.8,0-1.2c.2-1.1.3-2.3.5-3.6.2-1.3.4-2.5.7-3.5,0,0,.1,0,.2,0Z"/>
    <path d="M1150.1,275.7c.5.1.9.1,1.5,0,.5,0,1,0,1.5,0,.2,0,.3-.1.4-.3,0-.2.2-.4.2-.6.2,0,.3,0,.4-.2s0-.2,0-.3c.3-.3.6-.8.9-1.2.3-.5.6-.9.9-1.2.3-.1.6-.2.9-.3.3,0,.6-.2.9-.3.1,0,.2,0,.2.1s0,.1,0,.1c.2-.5.4-.6.7-.4.3.2.6.2.8,0,.2.3.4.4.8.5.4,0,.7.1,1,.2.2,0,.3-.1.4-.3,0-.1.3-.1.6,0,.1.1.2.2.3.3s.2.1.4.1c.1.1.1.2,0,.2,0,0,0,0,0,.2.1.1.2.2.4.3.1,0,.3.1.5.1.1.2.3.4.6.6.3.2.6.3.9.5.1.4.2.8.3,1.1.1.3.2.7.3,1.2,0,.2.1.3.3.3-.1.1-.2.2-.2.3s0,.2-.3.3c0,.3,0,.6,0,1.1-.1.4-.2.8-.2,1-.2.3-.4.6-.5,1,0,.4-.2.7-.3.9-.3,1.1-.6,2.1-1.1,3.1-.4,1-.8,2-1.1,3-.2.3-.3.6-.3.9s-.2.6-.5.9c0,0,0,.1,0,.3s-.2.2-.3.2c-.2.7-.6,1.3-1,1.8-.4.5-.8,1.1-1.2,1.6h0c0,0,0,0,0,0,0,.2,0,.3-.1.4,0,0-.2.2-.2.3-.3-.1-.5-.1-.7,0-.2,0-.4,0-.7,0-.4,0-.8,0-1.1,0-.3,0-.6-.2-.9-.3-.1-.3-.3-.5-.6-.6-.3,0-.5-.3-.6-.6,0,0-.1,0-.3,0-.1,0-.2,0-.2,0-.2-.4-.4-.8-.8-1.1-.3-.3-.6-.7-.7-1.2-.4-.1-.6-.4-.6-.9,0-.2,0-.3.1-.3,0,0,0-.2,0-.5-.3.1-.5.2-.7.4-.2.1-.4.2-.7.2-.2.2-.5.4-.9.5-1.8,1.2-3.6,2.4-5.4,3.6-1.9,1.2-3.6,2.5-5.1,4.1,0,0-.1,0-.2,0-.3.3-.6.6-.9.9-.3.3-.7.6-1.1.9-.1.2-.2.5-.4.7-.1.3-.4.4-.6.6-.5.9-1.1,1.7-1.8,2.5-.7.7-1.2,1.5-1.7,2.3,0,.1.1.2.3.1.2,0,.4-.1.4-.3.3.1.6.2.9.1.3,0,.6,0,.8-.2.6,0,1.3-.1,2-.2.7,0,1.3-.2,1.9-.4.8,0,1.6-.1,2.3-.4.7-.3,1.5-.5,2.2-.6,0,0,0,0,.1,0,0,0,0,0,.2,0,1.3-.3,2.5-.6,3.8-1,1.3-.4,2.5-.8,3.6-1.3.4,0,.7,0,1-.1.3-.1.5-.2.8-.1.1-.1.2-.2.3-.2s.1,0,.2-.2c.3,0,.5,0,.8,0,.2,0,.4-.2.6-.3.6-.3,1.3-.5,2-.7.7-.2,1.3-.5,2-.8.4-.1.8-.2,1.2-.3s.8-.2,1.2-.3l.3-.3c0,0,.1,0,.3,0,.1,0,.3,0,.4,0,.3-.1.6-.2.9-.4.3-.1.6,0,.8.3.2-.2.5-.3.7-.3.2,0,.5-.2.8-.3.1.3.3.6.6.7.3.1.4.4.4.7-.4.2-.8.3-1.1.5-.3.1-.7.3-1.2.4,0,.1,0,.2,0,.3,0,0,0,.1,0,.3.5.1.9,0,1.2-.3.3-.3.6-.3,1-.2-.2.2-.5.3-.7.3-.2,0-.5.2-.8.3,0,.1,0,.2,0,.2s0,0,0,.2c-.1,0-.2,0-.3,0,0,0-.1,0-.3,0,0,.1,0,.2,0,.2,0,0,0,.1,0,.2-.5.1-.8.3-1.1.6s-.7.5-1.1.7c-.3,0-.5,0-.8.1-.2,0-.4.2-.6.4-1,.2-1.8.4-2.4.8s-1.3.7-2,1c0,0,0,0,.1,0,0,0,0,0,.2,0,0,.1,0,.2-.1.1,0,0-.2,0-.2.1.3.1.5,0,.7,0,.2-.2.4-.3.7-.3,0,.4-.1.6-.5.7-.4,0-.6.2-.6.3-.2,0-.3,0-.5.2-.2.1-.3.1-.5,0-.1.1-.2.2-.4.3-.1,0-.2.1-.3.2-.3.2-.7.5-.9.7-.3.2-.6.4-.9.5-.1.1-.2.2-.4.2-.1,0-.2.1-.3.3-.5.2-.9.4-1.4.7-.5.3-.9.5-1.3.7-1,.5-2,.9-2.8,1.3-.6.5-1.3.9-2.1,1.2-.7.3-1.5.6-2.2.9-.1,0-.2.1-.2.2,0,0-.1.1-.2.3-.7,0-1.3.2-2,.5-.6.3-1.3.5-2.1.6-.2,0-.4,0-.6,0-.2,0-.3,0-.5,0-.5,0-1.1,0-1.8.2-.7.1-1.2.3-1.8.4-.2,0-.3,0-.5,0-.2,0-.3-.1-.4-.3-.5,0-.9,0-1.3,0s-.8-.1-1.1-.3c-.6.2-1,.2-1.4-.2s-.8-.5-1.3-.6c0-.1,0-.2,0-.2,0,0,0-.1,0-.2-.8.1-1.4,0-1.7-.6-.3-.5-.8-.9-1.3-1.2-.5-.8-1-1.7-1.4-2.6-.4-.9-.6-1.9-.6-3-.1-.2-.2-.4-.2-.4.2-.5.3-1.1,0-1.7-.2-.6,0-1.1.3-1.5-.2-.1-.3-.3-.3-.5.2-.5.5-.9.7-1.3.2-.4.5-.9.7-1.5h.2c0-.2.1-.3.3-.3,0-.2,0-.3,0-.3,0,0,0-.1,0-.3.3-.3.5-.6.6-.8.1-.3.3-.6.6-.9.1-.1.2-.2.4-.3.1,0,.2-.1.3-.3.3-.3.6-.7.9-1.1.3-.4.6-.7.9-1,0-.1,0-.2,0-.3s0-.1.2-.3c.1,0,.2-.1.3-.2.1,0,.2-.2.3-.2.2-.3.5-.7.9-1.1.5-.5,1-.9,1.5-1.3.5-.4,1.1-.9,1.6-1.3v-.3c.5-.3.9-.6,1.3-.9.4-.3.8-.6,1.2-1,.1,0,.2-.1.3-.2.1,0,.2-.2.3-.2,1.1-1,2.4-1.9,3.7-2.6,1.3-.7,2.6-1.6,3.8-2.5.6-.2,1-.5,1.4-.9.4-.4.8-.8,1.3-1,0-.1,0-.2,0-.2s0,0,.1-.2h0c.1,0,.2-.1.3-.2,0,0,.2,0,.3,0,.6-.4,1.3-.7,2.1-.9.8-.2,1.4-.6,1.8-1.2Z"/>
    <path d="M1199.6,292.1c0,0-.1,0-.1,0s0,0-.1,0c.2.3.6.4,1,0,.4-.3.8-.4,1.2-.4,0,.1,0,.2,0,.2,0,0,0,0,0,.1.1.2.2.2.3,0,0-.1.2-.1.3,0,0,.2,0,.3-.1.3-.1,0-.2,0-.2,0-.1,0-.2.1-.2.2s0,.1-.2.1c0,.2,0,.5,0,.7.2,0,.5,0,.7,0,0,.2,0,.5,0,.9-.3.2-.5.4-.6.6-.1.2-.4.4-.6.6-.1,0-.2,0-.2,0s0-.1-.2-.1v.3c-.3,0-.4,0-.5.1,0,.1,0,.3-.2.5.2,0,.3,0,.3-.1,0,0,.2-.2.3-.3,0,.1,0,.2.2.2.1,0,.2.1.2.2-.2,0-.3,0-.3,0,0,0-.2,0-.3,0,0,0,0,0,0,.1s0,.1,0,.2c-.2,0-.3,0-.3.1s0,.3,0,.4c-.5,0-.8.1-1.1.3-.3.2-.6.3-1,.3-.1.2-.3.3-.6.3s-.4.1-.6.4c-.1,0-.2,0-.2,0,0,0,0,0-.1,0-.2.3-.4.5-.7.5-.3,0-.5.2-.7.3h0c-.1.3-.3.6-.5.8-.2.2-.4.2-.6,0-.1.2-.3.4-.5.6-.2.1-.4.3-.5.5.1,0,.3,0,.5-.2.2-.2.4-.1.5,0-.3.3-.6.5-1,.7-.4.2-.8.3-1.2.4,0,.2,0,.3,0,.2,0,0,0,0,0,0-.1.1-.2.2-.3.2-.1,0-.2.2-.2.5-.6-.1-.8.1-.8.7-.1,0-.2,0-.3-.2-.8.6-1.7,1.2-2.6,1.6-.9.5-1.8,1-2.7,1.5-.6,0-1.2.3-1.7.9-.9.3-1.7.6-2.4,1.1-.8.4-1.5.9-2.3,1.3,0,.1,0,.1,0,0s.1,0,.2,0c-.6.5-1.3.9-2.1,1.2-.8.3-1.5.7-2.1,1.2-.7,0-1.4.2-2.1.5-.6.3-1.3.5-1.9.6-.1,0-.3,0-.5,0-.2,0-.4,0-.6,0-.5.1-1.1.1-1.9,0-.8,0-1.5-.1-2.1-.3-.1,0-.2-.1-.4-.2-.1,0-.3-.2-.5-.3,0,0-.1,0-.2,0,0,0-.2,0-.2,0-.1,0-.2-.2-.3-.3-.1-.2-.3-.3-.5-.4-.3-.2-.6-.4-.9-.6-.3-.2-.6-.4-.9-.5,0-.1,0-.2,0-.2,0,0,0,0,0-.2-.2,0-.3,0-.3,0,0-.1,0-.2,0-.3,0,0,0-.1,0-.2-.1,0-.2,0-.1,0,0,0,0,.1,0,0-.5-.6-.9-1.3-1.2-2-.3-.7-.7-1.3-1.2-1.8-.1-.9-.4-1.5-.9-2,0,0,0,0,0,.1,0,0,0,.1,0,.1-.6-.9-.8-2-.8-3.4,0-1.4.3-2.7.7-3.8.2-.2.3-.5.4-.8.1-.3.3-.5.6-.6.6-1.6,1.4-3,2.4-4.1,1-1.1,1.9-2.2,2.8-3.2.2-.2.4-.4.6-.6.2-.2.4-.4.6-.7.2-.2.4-.5.8-.8.3-.3.6-.6.9-.9.3-.3.6-.6,1-.9.6-.5,1-.9,1.4-1.4.4-.5.8-.9,1.4-1.2,0-.1,0-.2,0-.2s0,0,0-.2c.4-.2.8-.4,1.1-.6.3-.3.6-.6.9-1.1.5,0,.8,0,1-.4.2-.3.4-.6.7-.8.2-.1.4-.2.6-.3.2,0,.4-.2.6-.3.2-.2.4-.4.6-.5.9-.6,1.7-1.1,2.6-1.6.9-.5,1.8-1,2.7-1.4.6-.3,1.3-.6,2-1,.7-.4,1.4-.7,2.2-.9.2,0,.3,0,.3-.2.1,0,.2,0,.4,0,.1,0,.3-.2.4-.2.5-.2.9-.3,1.4-.5.5-.1,1-.3,1.4-.4.5,0,1,0,1.6,0,.6,0,1.1.2,1.6.5,0,.2,0,.3,0,.3h-.2c.2.2.5.3.8.5.3.2.5.5.6.9.1.1.3.2.5.3.2.5.4.8.7.9-.1,0-.1,0,0,.1,0,0,0,0,0,.1.2.2.4.4.4.6,0,.2.1.4.3.7.1.3.3.5.4.7s.3.4.4.7c.1.2.2.4.2.6s0,.4.2.5c0,.3,0,.5,0,.6.2.1.4.3.4.5,0,.2,0,.4,0,.6,0,.2-.1.4-.1.6,0,.2,0,.5.1.7,0,.1,0,.2-.1.3,0,0-.1.2,0,.4-.5.5-.9,1-1.2,1.6-.3.6-.7,1.1-1.1,1.6-.1,0-.2.1-.2.2,0,0,0,.1-.2.2-.2.3-.4.5-.6.8-.2.2-.4.5-.7.7-.1.1-.2.2-.4.3-.1,0-.3.2-.4.4-.1.1-.3.2-.4.4-.2.1-.3.3-.4.4-.3.1-.6.2-1,.4-.4.1-.6.4-.8.6-.9.5-1.8,1.1-2.7,1.6-.9.6-1.8,1.1-2.7,1.5-.3.1-.5.2-.8.2-.2,0-.4.2-.6.4-.3,0-.5.1-.8.3-.2.2-.5.3-.9.4-.2,0-.3,0-.3.3h-.3c-.6.3-1.2.6-1.8.8-.6.2-1.2.4-1.8.6-.2,0-.3,0-.3,0-.3,0-.5.1-.6.3-.1.1-.4.1-.6,0-.1.1-.2.2-.3.3-.5,0-.9,0-1.3.2-.4.1-.8.1-1.3,0-.1,0-.2,0-.2,0s0,.1-.2.2c-.3-.1-.6-.2-.9-.2s-.5-.1-.6-.4c-.1,0-.2,0-.3,0-.1,0-.3,0-.4-.1-.5.5-.9.9-1.4,1.5-.5.5-.9,1.1-1.2,1.8,0,0,0,0,0,0s0,0,0,0c0,.2-.2.4-.3.5-.1,0-.2.3-.2.7-.3.2-.5.5-.6.9,0,.5-.2.8-.5,1.1.6,0,1.3,0,2-.3.7-.2,1.4-.3,2-.3.1,0,.2-.1.2-.2s0-.2.2-.2c.4,0,.7,0,.9-.1.2-.1.5-.2.9-.2s.1-.1.3-.3c.3,0,.6,0,1-.2.4-.2.7-.3,1-.5.6,0,1.2-.2,1.8-.5.6-.3,1.2-.5,1.8-.6.3-.3.7-.5,1.2-.5s.8-.2,1-.6c.5-.1.9-.2,1.3-.3.4,0,.8-.3,1.2-.6,0,0,0,0,0,0s0,0,.2,0v-.2c.3-.2.7-.4,1.2-.4.5,0,.8-.3,1.1-.7.8,0,1.5-.2,2.1-.6h0c0,0,0,0,0,0s0,0,0,0,0,0,.1,0c0,0,0-.1.2-.2.8-.2,1.6-.5,2.4-.9.8-.4,1.7-.8,2.7-1.3.1.1.2.1.3,0,.1,0,.3,0,.4,0,.5-.3.9-.5,1.4-.5.5,0,.9-.2,1.5-.3.3-.1.7-.3,1-.4.3-.2.7-.3,1.1-.3s.9-.1,1.3-.4c.4-.3.8-.5,1.3-.6.2,0,.5,0,.7,0,.3,0,.5,0,.6,0,0,.2,0,.3-.2.3s-.2,0-.2.3c-.3-.1-.6,0-.9.2-.2.3-.5.3-.9.2,0,.1-.1.2-.2.2s0,0,0,.2ZM1177,288.7c.2-.3.4-.3.7-.1.3.2.5.2.7,0,0,.2,0,.3,0,.3s.1,0,.2-.1l.3-.3c0,0,.2-.1.2-.1,0,0,.1,0,.2,0,0,0,.2,0,.2,0,.3,0,.6-.1.8-.5.2-.4.4-.6.7-.5.2-.3.5-.4.7-.4s.5-.2.6-.5c.3,0,.8-.1,1.3-.3.5-.2,1.2-.7,2-1.4.1-.2.3-.7.7-1.3.3-.6.6-1,.8-1.1-.1-.1-.3-.1-.5,0-.2,0-.4.1-.6.3-.2.1-.4.2-.6.3-.2,0-.3.1-.4,0-.1.1-.4.3-.8.6-.4.3-.7.5-.8.5-.4,0-.7.3-1,.6-.3.4-.6.5-.9.4-.1.2-.3.4-.4.6-.2.2-.4.2-.6,0-.1.1-.2.2-.3.3-.1.1-.3.2-.5.2s0,0,0,.1c0,0,0,.1,0,.1-.2,0-.3,0-.4.1,0,.1-.2.2-.3.2,0,0,0,0,0,0v.2c-.3.3-.7.5-1.1.7-.4.2-.7.5-1,1h-.2v.3c.1,0,.2,0,.2,0,0,0,0,0,.2,0Z"/>
  </g>
</svg>