<?xml version="1.0" encoding="UTF-8"?>
<svg id="_レイヤー_1" xmlns="http://www.w3.org/2000/svg" version="1.1" viewBox="0 0 520 140">
  <!-- Generator: Adobe Illustrator 29.0.0, SVG Export Plug-In . SVG Version: 2.1.0 Build 186)  -->
  <defs>
    <style>
      .st0 {
        fill: #fff;
      }

      .st1 {
        fill: none;
        stroke: #fff;
        stroke-miterlimit: 10;
        stroke-width: .6px;
      }
    </style>
  </defs>
  <path class="st0" d="M356.5-21.7h9.6s28.3,0,28.3,0c11.8,0,21.5,9.7,21.5,21.5h0c0,11.8-9.7,21.5-21.5,21.5h-89s0,0,0,0h-9.6c-5.9,0-10.8,4.8-10.8,10.8,0,5.9,4.8,10.8,10.8,10.8h9.6s1.9,0,1.9,0c11.8,0,21.5,9.7,21.5,21.5h0c0,11.8-9.7,21.5-21.5,21.5h-130.7c-11.8,0-21.5-9.7-21.5-21.5h0c0-11.8,9.7-21.5,21.5-21.5h58.7s0,0,0,0h2.5c5.9,0,10.8-4.8,10.8-10.8,0-5.9-4.8-10.8-10.8-10.8h-2.5s-15.6,0-15.6,0c-11.8,0-21.5-9.7-21.5-21.5h0c0-11.8,9.7-21.5,21.5-21.5h76.3s0,0,0,0h2.5s58,0,58,0Z"/>
  <g>
    <polyline class="st1" points="458.9 91 378.2 91 356.3 112.9 307.4 112.9 293.5 99 274.8 99"/>
    <circle class="st0" cx="458.9" cy="91" r="2"/>
    <circle class="st0" cx="274.8" cy="99" r="2"/>
  </g>
  <g>
    <polyline class="st1" points="430.2 99.1 383.7 99.1 360.2 120.8 307.5 120.8"/>
    <circle class="st0" cx="430.2" cy="99.1" r="2"/>
    <circle class="st0" cx="307.5" cy="120.8" r="2"/>
  </g>
  <g>
    <polyline class="st1" points="513 107.1 387.7 107.1 365.9 128.9 329.5 128.9"/>
    <path class="st0" d="M513,105c1.1,0,2,.9,2,2s-.9,2-2,2-2-.9-2-2,.9-2,2-2Z"/>
    <circle class="st0" cx="329.5" cy="128.9" r="2"/>
  </g>
  <g>
    <line class="st1" x1="326.5" y1="104.7" x2="348.5" y2="104.7"/>
    <circle class="st0" cx="326.5" cy="104.7" r="2"/>
    <circle class="st0" cx="348.5" cy="104.7" r="2"/>
  </g>
  <g>
    <line class="st1" x1="326.5" y1="96.7" x2="348.5" y2="96.7"/>
    <circle class="st0" cx="326.5" cy="96.7" r="2"/>
    <circle class="st0" cx="348.5" cy="96.7" r="2"/>
  </g>
  <g>
    <line class="st1" x1="326.5" y1="88.6" x2="348.5" y2="88.6"/>
    <circle class="st0" cx="326.5" cy="88.6" r="2"/>
    <circle class="st0" cx="348.5" cy="88.6" r="2"/>
  </g>
  <g>
    <polyline class="st1" points="384.4 41.9 393.2 50.6 439.3 50.6 463.7 75 510.4 75"/>
    <path class="st0" d="M383,43.3c-.8-.8-.8-2.1,0-2.9.8-.8,2.1-.8,2.9,0,.8.8.8,2.1,0,2.9-.8.8-2.1.8-2.9,0Z"/>
    <circle class="st0" cx="510.4" cy="75" r="2"/>
  </g>
  <g>
    <polyline class="st1" points="501 83.1 457.8 83.1 433.7 58.9 384.7 58.9 374.9 68.6"/>
    <circle class="st0" cx="501" cy="83.1" r="2"/>
    <path class="st0" d="M373.5,67.2c-.8.8-.8,2.1,0,2.9.8.8,2.1.8,2.9,0,.8-.8.8-2.1,0-2.9-.8-.8-2.1-.8-2.9,0Z"/>
  </g>
  <g>
    <polyline class="st1" points="376.8 132.6 394.2 115.2 494.5 115.2"/>
    <path class="st0" d="M378.2,134.1c-.8.8-2.1.8-2.9,0-.8-.8-.8-2.1,0-2.9.8-.8,2.1-.8,2.9,0,.8.8.8,2.1,0,2.9Z"/>
    <circle class="st0" cx="494.5" cy="115.2" r="2"/>
  </g>
  <g>
    <polyline class="st1" points="388.9 32.2 399.2 42.5 476.8 42.5"/>
    <circle class="st0" cx="388.9" cy="32.2" r="2" transform="translate(-1.3 27) rotate(-4)"/>
    <path class="st0" d="M476.8,44.5c1.1,0,2-.9,2-2s-.9-2-2-2-2,.9-2,2,.9,2,2,2Z"/>
  </g>
  <g>
    <rect class="st0" x="436.4" y="30.4" width="4.2" height="4.2"/>
    <rect class="st0" x="444.1" y="30.4" width="4.2" height="4.2"/>
    <rect class="st0" x="451.8" y="30.4" width="4.2" height="4.2"/>
    <rect class="st0" x="459.5" y="30.4" width="4.2" height="4.2"/>
    <rect class="st0" x="467.2" y="30.4" width="4.2" height="4.2"/>
  </g>
  <g>
    <line class="st1" x1="132.4" y1="82.3" x2="109.9" y2="82.3"/>
    <circle class="st0" cx="132.4" cy="82.3" r="2"/>
    <circle class="st0" cx="109.9" cy="82.3" r="2"/>
  </g>
  <g>
    <line class="st1" x1="132.4" y1="74.3" x2="109.9" y2="74.3"/>
    <circle class="st0" cx="132.4" cy="74.3" r="2"/>
    <circle class="st0" cx="109.9" cy="74.3" r="2"/>
  </g>
  <g>
    <line class="st1" x1="132.4" y1="66" x2="109.9" y2="66"/>
    <circle class="st0" cx="132.4" cy="66" r="2"/>
    <circle class="st0" cx="109.9" cy="66" r="2"/>
  </g>
  <g>
    <polyline class="st1" points="50.4 21.5 75.9 21.5 104.3 50.1 137.4 50.1"/>
    <circle class="st0" cx="50.4" cy="21.5" r="2"/>
    <path class="st0" d="M137.4,52.1c1.1,0,2-.9,2-2s-.9-2-2-2-2,.9-2,2,.9,2,2,2Z"/>
  </g>
  <g>
    <polyline class="st1" points="18.6 29.6 71 29.6 99.6 58.2 146.4 58.2"/>
    <circle class="st0" cx="18.6" cy="29.6" r="2"/>
    <path class="st0" d="M146.4,60.2c1.1,0,2-.9,2-2s-.9-2-2-2-2,.9-2,2,.9,2,2,2Z"/>
  </g>
  <g>
    <polyline class="st1" points="50.9 37.6 66.8 37.6 96.3 66.8 96.3 88"/>
    <circle class="st0" cx="50.9" cy="37.6" r="2"/>
    <path class="st0" d="M94.2,88c0,1.1.9,2,2,2s2-.9,2-2-.9-2-2-2-2,.9-2,2Z"/>
  </g>
  <g>
    <polyline class="st1" points="6 34.7 17.1 45.7 51.2 45.7"/>
    <path class="st0" d="M4.6,36.1c-.8-.8-.8-2.1,0-2.9.8-.8,2.1-.8,2.9,0,.8.8.8,2.1,0,2.9-.8.8-2.1.8-2.9,0Z"/>
    <path class="st0" d="M51.2,47.8c1.1,0,2-.9,2-2s-.9-2-2-2-2,.9-2,2,.9,2,2,2Z"/>
  </g>
  <g>
    <polyline class="st1" points="404.8 34.3 431.1 7.9 472.8 7.9"/>
    <path class="st0" d="M406.2,35.7c-.8.8-2.1.8-2.9,0-.8-.8-.8-2.1,0-2.9.8-.8,2.1-.8,2.9,0,.8.8.8,2.1,0,2.9Z"/>
    <circle class="st0" cx="472.8" cy="7.9" r="2"/>
  </g>
  <g>
    <polyline class="st1" points="122.2 42.1 109.2 42.1 80.8 13.5 34.5 13.5"/>
    <circle class="st0" cx="122.2" cy="42.1" r="2"/>
    <path class="st0" d="M34.5,11.5c-1.1,0-2,.9-2,2s.9,2,2,2,2-.9,2-2-.9-2-2-2Z"/>
  </g>
</svg>