<?xml version="1.0" encoding="UTF-8"?>
<svg id="_レイヤー_1" data-name="レイヤー_1" xmlns="http://www.w3.org/2000/svg" version="1.1" viewBox="0 0 100 100">
  <!-- Generator: Adobe Illustrator 29.0.0, SVG Export Plug-In . SVG Version: 2.1.0 Build 186)  -->
  <defs>
    <style>
      .st0 {
        fill: #fff;
      }
    </style>
  </defs>
  <path class="st0" d="M78.6,0H21.4C9.6,0,0,9.6,0,21.4v57.2c0,14,13.3,24.3,26.8,20.7,35.2-9.5,63-37.2,72.5-72.5,3.6-13.5-6.7-26.8-20.7-26.8ZM59.6,6c1.7,0,3,1.3,3,3s-.8,2.3-1.9,2.8v5.7L21.8,56.4c.1.3.2.7.2,1,0,1.7-1.3,3-3,3s-3-1.3-3-3,1.3-3,3-3,.9.1,1.2.3L58.4,16.6v-4.8c-1.1-.5-1.8-1.5-1.8-2.8s1.3-3,3-3ZM9.8,17.7c1.4,0,2.5.9,2.9,2.1h18.1c.4-1.2,1.5-2.1,2.9-2.1s3,1.3,3,3-1.3,3-3,3-2.1-.6-2.6-1.5H12.4c-.5.9-1.5,1.5-2.6,1.5-1.7,0-3-1.3-3-3s1.3-3,3-3ZM9.8,29.3c1.4,0,2.5.9,2.9,2.1h18.1c.4-1.2,1.5-2.1,2.9-2.1s3,1.3,3,3-1.3,3-3,3-2.1-.6-2.6-1.5H12.4c-.5.9-1.5,1.5-2.6,1.5-1.7,0-3-1.3-3-3s1.3-3,3-3ZM9.8,65.2c1.3,0,2.4.8,2.8,2h10.4l44.5-44.5c-.2-.4-.3-.8-.3-1.3,0-1.7,1.3-3,3-3s3,1.3,3,3-1.3,3-3,3-.6,0-.9-.2l-45.3,45.3h-11.5c-.5,1-1.5,1.7-2.7,1.7s-3-1.3-3-3,1.3-3,3-3ZM48.4,79.2l-4-4,4-4,4,4-4,4ZM55.8,71.8l-4-4,4-4,4,4-4,4ZM63.3,64.3l-4-4,4-4,4,4-4,4ZM70.8,56.8l-4-4,4-4,4,4-4,4ZM78.2,49.4l-4-4,4-4,4,4-4,4ZM82.2,11.8v14.7l-53.8,53.8H12.4c-.5.9-1.5,1.6-2.6,1.6-1.7,0-3-1.3-3-3s1.3-3,3-3,2.5.9,2.8,2.1h14.9l52.4-52.4v-13.7c-1.1-.4-1.9-1.5-1.9-2.8s1.3-3,3-3,3,1.3,3,3-.7,2.3-1.8,2.7Z"/>
</svg>