<?xml version="1.0" encoding="UTF-8"?>
<svg id="_レイヤー_1" data-name="レイヤー_1" xmlns="http://www.w3.org/2000/svg" version="1.1" viewBox="0 0 266.6 88.7">
  <!-- Generator: Adobe Illustrator 29.0.1, SVG Export Plug-In . SVG Version: 2.1.0 Build 192)  -->
  <defs>
    <style>
      .st0 {
        fill: #a86b11;
      }

      .st1 {
        fill: #ededee;
      }

      .st2 {
        fill: #e68f24;
      }

      .st3 {
        fill: #555;
      }
    </style>
  </defs>
  <g>
    <circle class="st1" cx="44.7" cy="44.3" r="43.8"/>
    <path class="st3" d="M17.2,49.8c-1.3-1.4-2.1-3.6-2.1-6.5s.7-5.1,2.1-6.5c1.1-1.1,2.6-1.7,4.3-1.7s3.2.6,4.3,1.7c1.4,1.4,2.1,3.6,2.1,6.5s-.7,5.1-2.1,6.5c-1.1,1.1-2.6,1.7-4.3,1.7s-3.2-.6-4.3-1.7ZM18.6,43.3c0,3.5,1,5.2,2.9,5.2s2.9-1.8,2.9-5.2-1-5.2-2.9-5.2-2.9,1.8-2.9,5.2Z"/>
    <path class="st3" d="M63.6,49.8c-1.3-1.4-2.1-3.6-2.1-6.5s.7-5.1,2.1-6.5c1.1-1.1,2.6-1.7,4.3-1.7s3.2.6,4.3,1.7c1.4,1.4,2.1,3.6,2.1,6.5s-.7,5.1-2.1,6.5c-1.1,1.1-2.6,1.7-4.3,1.7s-3.2-.6-4.3-1.7ZM65.1,43.3c0,3.5,1,5.2,2.9,5.2s2.9-1.8,2.9-5.2-1-5.2-2.9-5.2-2.9,1.8-2.9,5.2Z"/>
    <g>
      <circle class="st2" cx="44.7" cy="48.7" r="13.9"/>
      <path class="st0" d="M54.6,50.9h-19.7c-1.2,0-2.2-1-2.2-2.2s1-2.2,2.2-2.2h19.7c1.2,0,2.2,1,2.2,2.2s-1,2.2-2.2,2.2Z"/>
    </g>
  </g>
  <g>
    <path class="st3" d="M142.1,64.7s-9.4.3-12.2,0c-4.2-.4-7.5-1.3-9.9-3.8-2.4-2.5-3.6-5.8-3.6-10h38.6v-6.9c0-8.7-2.3-15.7-7-21.1-4.9-5.6-11.5-8.4-19.9-8.4s-14.6,2.7-19.4,8.2c-5,5.7-7.5,13.5-7.5,23.3,0,21.1,9.5,31.6,28.6,31.6s12.3,0,12.3,0v-13ZM117.8,33.7c1.9-4.3,5.3-6.4,10.3-6.4s8.4,2.1,10.3,6.4c.9,1.9,1.3,4.1,1.4,6.6h-23.5c0-2.5.6-4.7,1.4-6.6Z"/>
    <path class="st3" d="M238.5,14.5c-.9,0-10.9,0-11.7,0v13.1c.6,0,10.4,0,11,0,7.6,0,11.5,3.2,11.5,9.7v3.1h-14.5c-6.9,0-12.1,1.7-15.7,5-3.6,3.4-5.4,7.6-5.4,12.9s1.7,10.4,5.2,14c3.5,3.6,8.7,5.3,15.6,5.3s11.2-2,15.2-5.9v5.3h15.1v-40.7c0-14.5-8.8-21.8-26.3-21.8ZM249.3,54.3c0,3.2-.5,5.5-1.4,6.9-1.7,2.6-5.2,3.9-10.5,3.9s-8.8-2.4-8.8-7.1,2.9-7,8.6-7h12.1v3.3Z"/>
    <path class="st3" d="M190.4,39.4l-9.7-.9c-4.3-.4-6.4-2.2-6.4-5.3s2.9-5.9,8.8-5.9,25,0,25,0v-12.7s-22.3,0-24.7,0c-6.6,0-12.2,1.7-16.6,5-4.8,3.6-7.2,8.5-7.2,14.7,0,10.4,6,16.1,18,17.3l9.7.9c4.3.4,6.5,2.3,6.5,5.7s-3.6,6.4-10.9,6.4-22.2,0-22.2,0v13.2s20.2,0,21.9,0c7.7,0,13.9-1.7,18.6-5,5.1-3.6,7.6-8.6,7.6-15.2,0-10.9-6.1-16.9-18.4-18.1Z"/>
  </g>
</svg>