<svg id="レイヤー_1" data-name="レイヤー 1" xmlns="http://www.w3.org/2000/svg" viewBox="0 0 283.02 108.26"><defs><style>.cls-1{fill:#005eae;}</style></defs><path class="cls-1" d="M168.57,451.59H157.84v-2.95h6.36v-3.35h3.17v3.35h5.78v1.82a27.42,27.42,0,0,1-4.23,4.59,29.5,29.5,0,0,1,6.64,3.56l-2.07,2.63a45.7,45.7,0,0,0-6.12-3.94v7.85h-3.06v-6.74a28.83,28.83,0,0,1-6.58,2.72l-2-2.92A23.82,23.82,0,0,0,168.57,451.59Z" transform="translate(-155.71 -357.51)"/><path class="cls-1" d="M177.83,451.41l2.68-.93a23,23,0,0,1,2.61,6l-2.73,1.07A28.46,28.46,0,0,0,177.83,451.41Zm12.8-1.46,2.92.78a29.64,29.64,0,0,1-1,5.66q-1.89,7.14-11.29,8.66l-1.59-2.88a14.44,14.44,0,0,0,5.12-1.1,8.3,8.3,0,0,0,4.88-5.35A26.27,26.27,0,0,0,190.63,450Zm-7.4.33,2.61-.85a30.78,30.78,0,0,1,2.2,6.13l-2.65,1.08A33.83,33.83,0,0,0,183.23,450.28Z" transform="translate(-155.71 -357.51)"/><path class="cls-1" d="M198.86,464.68V445.61h3.37v5.57a53.31,53.31,0,0,1,10.89,4.54l-1.89,3a49.64,49.64,0,0,0-9-4.33v10.3Z" transform="translate(-155.71 -357.51)"/><path class="cls-1" d="M216.37,456.08v-9.15h17.37a39.18,39.18,0,0,1-.72,8.45q-1.76,8.88-13.65,9.45l-1.68-3.24q7.77-.13,10.45-3.54,1.94-2.28,2-8.06H219.66v6.09Z" transform="translate(-155.71 -357.51)"/><path class="cls-1" d="M236.84,456.84v-3.2h16.7v3.2Z" transform="translate(-155.71 -357.51)"/><path class="cls-1" d="M263.09,445.42l3.58.19a19,19,0,0,1-.75,2.28h8.76q-.62,7.11-3.89,11.31-3.09,4-11.18,5.93l-2-3c3.93-.75,6.81-1.83,8.64-3.26q3.52-2.53,4.51-8h-6.34a20.12,20.12,0,0,1-5.59,6.62l-2.14-2.6a17.51,17.51,0,0,0,4.33-4.63A20.9,20.9,0,0,0,263.09,445.42Z" transform="translate(-155.71 -357.51)"/><path class="cls-1" d="M278.85,447.15h7.74v-2h3.28v2h7.36v2.78h-15.4v3.77a35.38,35.38,0,0,1-.48,6.32,18.69,18.69,0,0,1-1.85,5.08L277,463a13.54,13.54,0,0,0,1.83-6.84ZM283,454l2.55,1.1a36.85,36.85,0,0,1-1.83,9.17l-2.49-1.6A26.13,26.13,0,0,0,283,454Zm2.88-2.24L288,450a17.31,17.31,0,0,1,5,3.65L290.9,456A21.15,21.15,0,0,0,285.92,451.8Zm.18,2.29H289v7.5c0,.45.16.67.48.67.82,0,1.26-.12,1.34-.39a14.26,14.26,0,0,0,.2-2.43l2.51.92a12.5,12.5,0,0,1-.36,3.72,1.52,1.52,0,0,1-1,.82,12.68,12.68,0,0,1-2.74.2,6.46,6.46,0,0,1-2.72-.34c-.36-.19-.54-.7-.54-1.5Zm6.19,1.53,2.61-1.08a25.44,25.44,0,0,1,2.79,8l-2.86,1.32A29.8,29.8,0,0,0,292.29,455.62Z" transform="translate(-155.71 -357.51)"/><path class="cls-1" d="M301.92,445.92h18V462.8a3.06,3.06,0,0,1-.38,1.83,2.87,2.87,0,0,1-2.27.69c-.51,0-1.42,0-2.73-.07l-1.1-2.92h1l1.34,0c.78,0,1.18-.3,1.18-.9v-2.84h-4.94v6.13h-3v-6.13h-4.31a12.13,12.13,0,0,1-2.28,6.83l-2.42-2a12.77,12.77,0,0,0,1.84-7.13Zm3,5.16h4.21v-2.52h-4.21Zm0,5h4.21v-2.5h-4.21Zm7.17-5H317v-2.52h-4.94Zm0,5H317v-2.5h-4.94Z" transform="translate(-155.71 -357.51)"/><path class="cls-1" d="M322.71,462a27.15,27.15,0,0,0,2.71-2v-4.59H323v-2.92h5.29v7.77A3.82,3.82,0,0,0,330,461.8a12.81,12.81,0,0,0,4.55.5q5,0,9.21-.34l-1.44,3.25c-1.56,0-3,0-4.26,0q-7.05,0-8.48-.6a6.33,6.33,0,0,1-2.72-2.45,29.33,29.33,0,0,1-2.53,3Zm.52-15.06,2.24-1.79a44,44,0,0,1,3.51,3.67l-2.31,2.08A27.73,27.73,0,0,0,323.23,446.9Zm5.82,1.05v-2.33h12.57v1.44q-1.89,1.41-4.17,3h5v9.57a1.67,1.67,0,0,1-1.08,1.82,6.45,6.45,0,0,1-1.87.21l-1,0-.74-2.35c.54,0,.91,0,1.13,0q.78,0,.78-.48v-.7h-2.59v3.24h-2.52v-3.24h-2.37v3.37h-2.63V450h2.66l-1.46-.93,1.37-1.15Zm3.17,5.19h2.37V452h-2.37Zm0,3.06h2.37v-1.15h-2.37Zm.64-8.25c.88.5,1.67,1,2.32,1.43l1.75-1.43Zm4.23,8.25h2.61v-1.15h-2.61Zm0-3.06h2.59V452h-2.59Z" transform="translate(-155.71 -357.51)"/><path class="cls-1" d="M348.63,445.11l3,.2a29.73,29.73,0,0,1-1.5,4.93v15.12h-2.77v-10a14.28,14.28,0,0,1-1.15,1.77l-1.3-3A20,20,0,0,0,348.63,445.11Zm2.54,6.21v-2.41H365.9v2.41Zm.38,13.9V457.9h13.17v7.39h-2.79v-.77h-7.64v.7Zm.74-17.1v-2.19H364.1v2.19Zm0,6.07V452H364.1v2.16Zm0,2.86v-2.14H364.1v2.14Zm2,5.09h7.64v-2h-7.64Z" transform="translate(-155.71 -357.51)"/><path class="cls-1" d="M371.69,448.73h-2.94v-2.87h8.51v2.87h-2.64a33.44,33.44,0,0,1-1.64,4.09h4.28V463.1h-4.41v1.61h-2.59v-7c-.57.59-1,1.08-1.31,1.46l-1.18-3.26A18,18,0,0,0,371.69,448.73Zm1.16,11.65h1.88v-5h-1.88Zm6.65-3.76h-1.67v-2.88h1.73v-5h-1.69v-2.86h10.35v2.89h-1.51v5h1.91v2.88h-1.91v8.74H384v-8.74h-1.87a17.7,17.7,0,0,1-.7,5.31,10.59,10.59,0,0,1-2.41,3.6l-2.29-1.89a6.62,6.62,0,0,0,2.36-3.28A16.05,16.05,0,0,0,379.5,456.62Zm2.66-2.88H384v-5h-1.82Z" transform="translate(-155.71 -357.51)"/><path class="cls-1" d="M397,449.48h-2.57v2.19h-3V447h8.09v-1.85h3.13V447h8.13v4.3h-3v-1.83H405v2.42c0,.5.09.82.28.93a3.88,3.88,0,0,0,1.53.17c.86,0,1.35-.11,1.48-.3a5,5,0,0,0,.16-1.09l2.81.64a6.32,6.32,0,0,1-.38,2.46c-.28.48-1.55.72-3.79.72a15,15,0,0,1-4.28-.33c-.46-.23-.68-.79-.68-1.69v-3.93h-2.26c-.08,2.46-.89,4.21-2.39,5.25a12.08,12.08,0,0,1-5.17,1.33l-1.47-2.56a14.1,14.1,0,0,0,4.76-.8C396.47,452.2,396.94,451.13,397,449.48Zm1,9.6h-6v-2.52h6.23v-1.94h3v1.94h6l0,.76,0,1.65c0,1.2-.06,1.9-.06,2.11a3.43,3.43,0,0,0,.11,1.17c.07.18.28.26.62.26s.74-.52.74-1.56c0-.45,0-.8,0-1l2.68.78a12,12,0,0,1-.37,3.47,1.68,1.68,0,0,1-1.16,1,11.49,11.49,0,0,1-2.25.16c-1.83,0-2.86-.25-3.08-.75a8.24,8.24,0,0,1-.23-2.59q0-.43,0-2.34v-.54h-3.11q-.92,5.57-8.4,6.68l-1.78-2.56a15.84,15.84,0,0,0,4.42-1.15A4.87,4.87,0,0,0,398,459.08Z" transform="translate(-155.71 -357.51)"/><path class="cls-1" d="M414.58,450.46h8.57v9h-2.73v-1.07h-3.11a12.66,12.66,0,0,1-2.21,7l-2.24-2a9.22,9.22,0,0,0,1.72-5.36Zm-1-1.89v-2.73h10.15v2.73Zm3.77,7.38h3.08V453h-3.08Zm14.32-10.84,1.93,2.58a38.94,38.94,0,0,1-6.25,1.54v3h6.39v2.84h-2v10.36h-2.81V455.06h-1.65a19.68,19.68,0,0,1-.6,5.5,11,11,0,0,1-3.19,5l-2.06-2.18a8.15,8.15,0,0,0,2.63-3.85,17.48,17.48,0,0,0,.51-4.22v-8.2A32.63,32.63,0,0,0,431.66,445.11Z" transform="translate(-155.71 -357.51)"/><path class="cls-1" d="M250.87,366.4l-18.18,63.93H210.38L189.62,389.2,178,430.33H156.63l18.18-63.93h21.93l21.36,40,11.22-40Z" transform="translate(-155.71 -357.51)"/><path class="cls-1" d="M285.21,425.15c-1.34,1.18-.24.61-3.39,2.08-5.17,2.42-11.37,3.07-16.95,3.16-12.94.2-25.34-4.92-21.46-17.91,3.59-11.93,19.34-12.45,34.4-13.14,13.2-.6,13.45-1.66,15.66-3.32,2-1.53,2-8-7.12-8-10,0-12.84,3.5-13.71,6.45l-21-.15c2.2-6,4.61-11.79,18.5-15.24,5.87-1.48,13.33-1.31,19.33-1.31,9.3,0,18.91,1.37,23.69,5.51s3.67,8.89,1.18,17.37l-4.47,15.2c-2.38,8.08-2.45,9.26-2,13.61H286.45Zm-2.83-17c-9.79.62-15.65,1.7-17,6.33-.32,1.09.75,5.74,7.76,5.74,6.15,0,10.53-1.78,13-4.34,2.67-2.76,3.6-6.41,4.19-8.88A33.82,33.82,0,0,1,282.38,408.1Z" transform="translate(-155.71 -357.51)"/><path class="cls-1" d="M381.73,389.23c-.37-10.27-10.45-10.71-13.8-10.71A28,28,0,0,0,352,384.4c-3.53,3.25-6.41,7.55-7.65,14.8-.42,2.52-1.22,10.26,4.45,15.23,3.12,2.75,6.62,3.17,11.58,3.17,2.56,0,12.58,0,18.13-11.31l22.44-.16c-6.17,21.28-24.79,25.21-46,24.9-24.33-.34-36-14.33-33-33.35,3.09-19.9,21.26-32.9,44.63-32.9,13,0,36.37,1.66,37.85,24.45Z" transform="translate(-155.71 -357.51)"/><path class="cls-1" d="M438.73,357.51l-17.68,63.33a.7.7,0,0,0,.38.81h8.68l-2.47,8.69s-14.77.51-18.13-1.48c-3.68-2.05-4.68-6.74-4.74-11.24-.1-2.76,12.24-45.69,12.24-45.69s.67-1.44,0-1.44l-4.6,0,3.24-13Z" transform="translate(-155.71 -357.51)"/></svg>