<?xml version="1.0" encoding="utf-8"?>
<!-- Generator: Adobe Illustrator 27.2.0, SVG Export Plug-In . SVG Version: 6.00 Build 0)  -->
<svg version="1.1" id="レイヤー_1" xmlns="http://www.w3.org/2000/svg" xmlns:xlink="http://www.w3.org/1999/xlink" x="0px"
	 y="0px" viewBox="0 0 147 147.4" style="enable-background:new 0 0 147 147.4;" xml:space="preserve">
<style type="text/css">
	.st0{fill:#FFFFFF;}
	.st1{fill:url(#SVGID_1_);}
</style>
<path class="st0" d="M120.5,147.4l-0.4,0c-8.3-0.5-24.5-1.6-26-1.7c-1.5,0-18.8,0.8-29.4,1.3l-0.3,0l-13.4-1.3l-35.6,1.3l-12.8-1
	l-2.5-23.9l0-50.2l0.7-28.9L0,5.4l12.2-5l61.1,0l40.4,1.7L134.9,0L147,3.8l-1.6,22c0.1,2.9,1,28.6,1,31.9c0,3.4-0.3,38.7-0.3,39
	c0,5.4,0,12.4,0.1,17.8l-0.4,0.1l0.4-0.1v0l0.1,0l-0.1,0c0,0,0,0,0,0l0.1,0l0,0.2l-0.1,0c0,4.1,0.1,7.3,0.2,8.2
	c0.2,0.9,0.3,3.8-0.3,17.4l-0.2,4.3L120.5,147.4z M94,144.7c1.6,0.1,17.8,1.1,26.1,1.7l0.4,0l24.4-2.8l0.2-3.4
	c0.4-10.1,0.5-15.7,0.3-17.2c-0.2-2.2-0.3-16.7-0.3-26.3c0-0.4,0.3-35.7,0.3-39c0-3.3-0.9-29-1-31.9l1.5-21.3L134.8,1l-21.2,2
	L73.2,1.4l-61,0L1,6.1l0.7,37L1.1,72l0,50.1l2.4,23.1l11.9,1l35.6-1.3l13.4,1.3l0.3,0C75.1,145.6,92.5,144.8,94,144.7z M145.8,114.7
	l0.3-0.1L145.8,114.7z M120.3,138.4c-16-1-25.6-1.6-26.3-1.6c-0.7,0-11.4,0.5-29.5,1.3l-13.4-1.3l-35.6,1.3l-4.8-0.4l-1.6-15.8
	l0-49.8l0.7-29L9.1,11.4l4.8-2h59l40.9,1.7L134,9.1l3.5,1.1l-1.1,15.4l0,0.2c0.3,9.9,1,29.3,1,31.9c0,3.3-0.3,38.7-0.3,39
	c0,8.6,0,15.1,0.1,19.7l0.3,0c0,0.1,0,0.2,0.1,0.3l-0.3,0.1c0.1,4.3,0.2,6.8,0.3,7.6c0.1,1.3-0.1,7.1-0.2,11.6l0,0.4L120.3,138.4z
	 M94.1,135.7c1,0,16.9,1,26.3,1.7l15.9-1.8c0.2-5.7,0.3-10.1,0.2-11.1c-0.2-1.1-0.4-5.2-0.4-27.8c0-0.3,0.3-35.7,0.3-39
	c0-2.6-0.7-21.9-1-31.8l0-0.2l1.1-14.7l-2.6-0.8l-20,1.9l-41-1.7l-58.9,0L10.1,12l0.6,31l0,0.1l-0.7,28.9v49.7l1.5,14.9l3.9,0.3
	l35.7-1.3l13.4,1.3C75.1,136.6,93.1,135.7,94.1,135.7z"/>
<g>
	<linearGradient id="SVGID_1_" gradientUnits="userSpaceOnUse" x1="40.9761" y1="93.5322" x2="22.5472" y2="111.9612">
		<stop  offset="0" style="stop-color:#3DAB4A"/>
		<stop  offset="0.2367" style="stop-color:#DDA322"/>
		<stop  offset="0.5697" style="stop-color:#E52A6E"/>
		<stop  offset="0.8201" style="stop-color:#E45289"/>
		<stop  offset="1" style="stop-color:#9B6EAC"/>
	</linearGradient>
	<path class="st1" d="M44.2,102.5c0.1,2.9,0.6,6.2-0.9,8.4c-2.4,3.5-7.7,5.2-12.2,5.3c-7.4,0.1-13.5-5.8-13.6-13.1
		c-0.1-7.4,5.8-13.5,13.1-13.6S44.1,95.1,44.2,102.5z"/>
	<path class="st0" d="M138.8,98.3c-1.1-0.5-2.4,0-2.9,1.1l-0.2,0.4c0,0-0.1,0.1-0.2,0.3c-0.1,0.2-0.2,0.6-0.5,1
		c-0.4,0.9-1.4,2.1-2.9,3.4c-1.5,1.3-3.7,2.7-6.3,3.9c-2.7,1.1-5.9,1.9-9.5,2.1c-0.4,0-0.8,0-1.3,0c-0.4,0-0.8,0-1.4,0
		c-0.5,0-1-0.1-1.6-0.1l-0.4,0c0.3,0,0.1,0,0.1,0l0,0l-0.1,0l-0.2,0l-0.7-0.1c-0.5-0.1-0.9-0.1-1.4-0.2c-0.5-0.1-0.9-0.2-1.4-0.3
		c-0.5-0.1-1-0.2-1.4-0.4c-0.5-0.2-0.9-0.3-1.4-0.5l-0.7-0.2l-0.7-0.3c-0.5-0.2-0.9-0.4-1.4-0.6c-0.9-0.5-1.8-0.9-2.7-1.5
		c-1.8-1.1-3.4-2.5-5-4c-1.5-1.5-2.9-3.3-4.1-5.1c-0.1-0.2-0.3-0.5-0.4-0.7L90,96.1l-0.1-0.3c-0.1-0.2-0.2-0.3-0.3-0.7l-0.2-0.4
		c0,0,0,0,0,0l0-0.1l0-0.1l-0.1-0.2c-0.4-1.2-0.8-2.3-1.2-3.5c-1.6-4.8-2.8-9.8-3.9-14.9C83,70.8,82,65.5,81,60.4
		c-1-5.2-2.3-10.5-4.1-15.5c-0.4-1.3-1-2.6-1.5-3.8c-0.3-0.6-0.5-1.1-0.8-1.7l-0.4-0.8L74,38.1l-0.1-0.2l-0.1-0.2l-0.1-0.1
		c-1.4-2.6-3.1-4.7-4.9-6.6c-1.6-1.7-3.4-3.2-5.2-4.4l1.8-6c0.3-1-0.1-2.1-1.1-2.6c-1.1-0.6-2.5-0.2-3.1,0.9l-2.6,4.9
		c-0.6-0.3-1.3-0.6-1.9-0.8c-1.1-0.4-2.2-0.8-3.2-1c-0.8-0.2-1.5-0.3-2.3-0.4l-0.9-5.6c-0.2-1-1-1.8-2.1-1.9
		c-1.2-0.1-2.3,0.9-2.4,2.1l-0.3,5.3c-0.5,0.1-1,0.1-1.5,0.2c-0.9,0.2-1.6,0.4-2.3,0.5l-0.5,0.1l-0.3,0.1c-0.2,0.1-0.4,0.1-0.6,0.2
		c-0.4,0.1-0.8,0.3-1.2,0.5c-1.5,0.7-2.8,1.5-3.9,2.2c-2.2,1.6-3.5,3.1-4.4,4.2c-0.4,0.5-0.8,1-1,1.2c-0.2,0.3-0.3,0.4-0.3,0.4
		c-0.6,0.9-0.5,2.1,0.3,2.9c0.9,0.9,2.3,0.8,3.2-0.1c0,0,0.1-0.1,0.3-0.4c0.2-0.2,0.5-0.5,0.9-0.9c0.8-0.8,2.1-1.8,3.9-2.8
		c0.9-0.5,1.9-0.9,3-1.3c0.3-0.1,0.6-0.1,0.9-0.2l0.4-0.1l0.1,0c0,0,0.1,0,0,0l0.1,0l0.1,0c0.7-0.1,1.6-0.2,2.3-0.3
		c0.6,0,1.2,0,1.9,0c0.4,0,0.7,0.1,1.1,0.1c0.4,0,0.7,0.1,1.1,0.2c0.8,0.2,1.5,0.3,2.3,0.6c0.8,0.2,1.5,0.6,2.3,0.9
		c1.5,0.7,3.1,1.6,4.6,2.8c1.5,1.1,3,2.5,4.3,4c1.3,1.5,2.5,3.2,3.3,4.9c0.2,0.5,0.4,1,0.7,1.5c0.2,0.5,0.5,1.1,0.7,1.7
		c0.4,1,0.8,2,1.1,3.1c1.4,4.5,2.4,9.4,3.4,14.5c0,0.2,0.1,0.4,0.1,0.6c0,0.1-0.1,0.3-0.1,0.4c-0.2,0.6-0.4,1.5-0.7,2.3
		c-0.3,0.9-0.6,1.9-1,3c-0.4,1.1-0.8,2.3-1.2,3.5c-0.9,2.5-2,5.3-3.2,8.4c-1.2,3.1-2.5,6.5-4,9.9c-0.4,0.9-0.8,1.7-1.2,2.6
		c-0.4,0.8-0.9,1.7-1.3,2.6c-0.2,0.4-0.5,0.8-0.7,1.3c-0.3,0.4-0.5,0.8-0.8,1.2c-0.5,0.7-1.2,1.7-1.9,2.4c-2.5,3.2-5.4,6.3-8.8,8.6
		c-1.7,1.2-3.5,2.2-5.5,3c-1,0.4-2,0.8-3,1.1c-0.5,0.2-1,0.3-1.5,0.4l-0.4,0.1l-0.2,0l0,0l-0.1,0c-0.3,0.1-0.5,0.1-0.7,0.1
		c-4,0.4-8.3-0.4-11.5-2.5l-0.6-0.4c-0.2-0.1-0.4-0.3-0.6-0.5l-0.6-0.5l-0.5-0.5l-0.5-0.5l-0.5-0.6c-0.3-0.4-0.5-0.7-0.7-1.1
		c-1-1.6-1.6-3.4-1.8-5.2c-0.2-1.8,0.1-3.5,0.8-4.9l0.3-0.5l0,0l0,0l0.1-0.2l0.2-0.3c0.1-0.2,0.3-0.4,0.4-0.6l0.4-0.4
		c0.2-0.3,0.5-0.5,0.8-0.8c0.3-0.3,0.7-0.5,1-0.7c2.8-1.7,6.2-2,9.1-1.5c1.4,0.3,2.8,0.7,3.9,1.3c0.3,0.1,0.6,0.3,0.8,0.5l0.2,0.1
		l0.1,0.1l0,0l0.4,0.3c0.3,0.2,0.6,0.5,0.8,0.7c0.2,0.2,0.4,0.4,0.6,0.6c1.5,1.7,2.4,3.6,2.9,5.3c0.5,1.7,0.6,3.1,0.6,4
		c0,0.5,0,0.8,0,1c0,0.2,0,0.3,0,0.3l0,0.1c0,0,0,0,0,0c0,1.2,0.9,2.3,2.2,2.3c1.2,0,2.3-0.9,2.3-2.2c0,0,0-0.2,0-0.5
		c0-0.3,0-0.8,0-1.4c-0.1-1.2-0.3-2.9-0.9-5c-0.6-2.1-1.7-4.7-3.9-7c-0.3-0.3-0.6-0.6-0.9-0.9c-0.3-0.3-0.6-0.5-0.9-0.7l-0.4-0.3
		l-0.2-0.1l-0.1,0L39,90.6l-0.3-0.2c-0.4-0.2-0.7-0.5-1.1-0.7c-1.6-0.8-3.3-1.4-5.2-1.7c-3.7-0.6-8.1-0.3-12,2.1
		c-0.5,0.3-1,0.6-1.4,1c-0.4,0.4-0.9,0.7-1.3,1.2L17,93.1c-0.2,0.2-0.3,0.4-0.4,0.6L16.4,94l-0.1,0.2l-0.1,0.1c0,0-0.2,0.3-0.1,0.2
		l0,0.1l-0.4,0.8c-1.1,2.2-1.4,4.8-1.2,7.2c0.3,2.4,1,4.8,2.3,6.9c0.3,0.5,0.7,1.1,1.1,1.6l0.5,0.6l0.1,0.1l0.1,0.1l0.2,0.2l0.3,0.3
		l0.7,0.7l0.7,0.6c0.5,0.4,1,0.8,1.5,1.1c2.1,1.4,4.4,2.3,6.9,2.9c2.4,0.5,4.8,0.7,7.4,0.5c0.4,0,0.8-0.1,1-0.1l0.1,0l0.2,0l0.2-0.1
		l0.4-0.1c0.6-0.1,1.2-0.3,1.7-0.5c1.1-0.3,2.3-0.7,3.4-1.2c2.2-0.9,4.4-2,6.3-3.4c3.9-2.7,7.1-6,9.8-9.4c0.7-0.9,1.3-1.6,2-2.5
		c0.3-0.5,0.7-0.9,1-1.4c0.3-0.5,0.6-0.9,0.9-1.4c1.1-1.8,2.2-3.6,3.1-5.3c1.9-3.4,3.7-6.8,5-9.9c1.2-2.7,2.1-5.3,2.9-7.7
		c0.2,1,0.4,1.9,0.6,2.9c1.2,5.3,2.5,10.7,4.4,15.9c0.5,1.3,1,2.6,1.5,3.9l0.3,0.6l0.2,0.4c0.1,0.3,0.3,0.7,0.5,1.1l0.3,0.6l0.3,0.5
		c0.2,0.3,0.4,0.7,0.6,1c1.7,2.5,3.5,4.7,5.6,6.6c1,1,2.1,1.9,3.2,2.7c1.1,0.8,2.3,1.6,3.5,2.2c1.2,0.7,2.4,1.2,3.6,1.8
		c0.6,0.2,1.2,0.5,1.9,0.7l0.9,0.3l0.9,0.3c0.6,0.2,1.2,0.3,1.9,0.5c0.6,0.2,1.2,0.2,1.9,0.4c0.6,0.1,1.2,0.2,1.8,0.3
		c0.6,0.1,1.2,0.1,1.8,0.2l0.9,0.1l0.6,0l0.4,0c0.5,0,1.1,0,1.6,0c0.5,0,1.2-0.1,1.7-0.1c0.6-0.1,1.2-0.1,1.8-0.2
		c4.5-0.6,8.3-2,11.5-3.6c3.2-1.7,5.7-3.8,7.5-5.7c1.8-2,2.9-3.9,3.4-5.3c0.3-0.7,0.4-1.3,0.5-1.7c0.1-0.4,0.2-0.6,0.2-0.6
		C140.3,99.9,139.8,98.8,138.8,98.3z"/>
</g>
<path class="st0" d="M6.1,145.6l-4.5-10.8l0-60.8l1.7-40.4l-2-21.1L4.6,1.7l20.9,1.5c2.7-0.1,28.7-1,31.9-1c3.3,0,37.6,0.3,39,0.3
	c11.5,0,24.5-0.1,26.3-0.3c0.7-0.1,3.3-0.3,17.1,0.3l3,0.1l2.7,23.9l0,0.3c-0.7,9.9-1.6,25.1-1.7,26.1c0,1,0.8,18.2,1.3,29.5l0,0.3
	l-1.3,13.3l1.3,35.6l-0.9,11.4l-22.6,2.3h-50l-29-0.7L6.1,145.6z M42.7,137.9L42.7,137.9l29.1,0.7l49.7,0l16.3-1.7l0.4-5.2L136.9,96
	l1.3-13.3c-0.2-5.3-1.3-28.6-1.3-29.6c0-1,1.1-18.4,1.7-26.3l-2-17.4c-5.8-0.2-11.4-0.4-12.6-0.3c-0.8,0.1-4.4,0.4-27.6,0.4
	c-0.4,0-35.7-0.3-39-0.3c-3.2,0-31.6,1-31.9,1l-0.2,0L9.6,9.1l-1.3,4l2,20.2L8.6,74.1v59.2l2.1,5.2L42.7,137.9z M124.2,9.1
	c0,0-0.1,0-0.2,0C124.1,9.2,124.2,9.2,124.2,9.1z M122.7,2.3c0,0-0.1,0-0.1,0C122.6,2.3,122.6,2.3,122.7,2.3z"/>
<g>
	<path class="st0" d="M24,134.5c0,0-0.1,0.1-0.1,0.2c-0.1,0.1-0.1,0.2-0.2,0.2c0-0.1-0.1-0.1-0.1-0.2c-0.1-0.1-0.2-0.1-0.2-0.2
		c-0.1-0.1-0.2-0.1-0.2-0.2c-0.1,0-0.1-0.1-0.2-0.1l0,0c0,0-0.1,0-0.1,0c0,0,0,0,0,0v0c0,0.1,0,0.2,0.1,0.3c0,0.1,0.1,0.2,0.1,0.2
		c0,0.1,0,0.1,0,0.2s-0.1,0.1-0.2,0.2h-0.5c-0.3,0-0.5,0-0.7-0.1c-0.2-0.1-0.4-0.2-0.7-0.2c-0.2-0.1-0.4-0.1-0.5-0.1
		c-0.1,0-0.2,0-0.3-0.1c-0.1,0-0.2-0.1-0.3-0.1s-0.2-0.1-0.4-0.3c0,0,0,0-0.1,0c0,0,0,0.1,0,0.1c0,0,0,0.1,0.1,0.1
		c-0.1,0.2-0.2,0.3-0.4,0.3c-0.2,0-0.3,0.1-0.5,0.1s-0.4,0-0.5,0c-0.2,0-0.3,0-0.5,0.1c0,0-0.1,0-0.1,0.1c-0.1,0-0.1,0.1-0.1,0.1h0
		h0L17,135c0,0,0-0.1,0-0.1c0-0.1,0-0.1,0-0.1c0,0,0-0.1,0-0.1c0,0,0-0.1,0-0.1c0,0-0.1,0-0.1,0c0,0-0.1,0-0.1,0c0,0,0,0-0.1,0.1
		c-0.1,0.1-0.1,0.1-0.1,0.1c-0.1,0-0.1,0-0.2-0.1c0-0.1-0.1-0.1-0.1-0.2c0-0.1,0-0.2-0.1-0.3c0-0.1,0-0.2,0-0.2c0-0.1,0-0.2,0-0.3
		c0-0.1,0.1-0.2,0.1-0.3c0-0.1,0-0.1,0-0.2c0-0.1,0-0.1-0.1-0.2l-0.1-2.1c0,0,0.1-0.1,0.1-0.2c0-0.1,0.1-0.2,0.1-0.2v-0.1v-0.1
		c-0.2-0.8-0.3-1.7-0.4-2.5c0-0.1,0-0.3,0.1-0.4c0-0.1,0.1-0.2,0.1-0.4c0.1-0.1,0.1-0.2,0.1-0.4c0-0.1,0.1-0.2,0.1-0.4
		c0-0.1,0-0.2-0.1-0.2c0-0.1-0.1-0.1-0.1-0.2c0-0.1,0-0.2,0-0.2c0-0.1,0-0.1,0-0.2v-0.1c-0.1-0.2-0.2-0.4-0.3-0.6s-0.1-0.4-0.1-0.7
		c0-0.1,0-0.2,0-0.3c0-0.1,0-0.2,0.1-0.4c0-0.1,0.1-0.2,0.1-0.3c0.1-0.1,0.1-0.1,0.3-0.1c0,0,0.1,0,0.1,0.1c0.1,0,0.1-0.1,0.2-0.2
		c0.1-0.1,0.1-0.2,0.1-0.2l0.1,0.2c0.1-0.1,0.2-0.2,0.4-0.2c0.1,0,0.2,0,0.2,0c0.1,0,0.1,0,0.2,0.1c0.1,0,0.1,0.1,0.2,0.1
		c0.1,0,0.1,0.1,0.2,0.1c0.2,0.1,0.3,0.1,0.4,0.1s0.2,0,0.2,0s0.1,0.1,0.1,0.2c0,0.1,0,0.2,0.1,0.5v0.2c-0.1,0-0.2,0-0.2,0.1
		c0,0.1-0.1,0.1-0.1,0.2c0,0,0,0-0.1,0s0,0,0,0v0v-0.1c0,0,0,0,0.1-0.1s0,0,0-0.1c0,0,0,0,0,0v-0.1v0c0,0-0.1,0-0.1-0.1
		c0,0-0.1-0.1-0.1-0.1c0,0-0.1,0-0.1,0.1s0,0.1,0,0.1c0,0,0,0.1,0,0.1c0,0.1-0.1,0.1-0.1,0.1c0,0-0.1,0.1-0.1,0.1
		c-0.1,0-0.1,0.1-0.1,0.1c0,0.1,0,0.2,0.1,0.3s0.1,0.1,0.2,0.2c0.1,0.1,0.1,0.1,0.2,0.2c0.1,0.1,0.1,0.1,0.1,0.2l0.1,1.4
		c0,0,0,0.1-0.1,0.1c0,0.1-0.1,0.1-0.1,0.1l-0.1,0.8c0,0,0,0,0,0.1s0,0,0,0.1s0,0.1,0,0.2c0,0.1,0,0.2,0.1,0.3v0.1c0,0-0.1,0-0.2,0
		s-0.1,0-0.2,0s-0.1,0-0.2,0.1c-0.1,0-0.1,0.1-0.1,0.2c0,0.1,0,0.2,0.1,0.2c0.1,0.1,0.1,0.1,0.2,0.2c0.1,0.1,0.1,0.1,0.2,0.2
		c0.1,0.1,0.1,0.1,0.1,0.2c-0.1,0-0.1,0-0.2-0.1c0-0.1-0.1-0.1-0.2-0.1c0,0,0,0-0.1,0.1c0,0-0.1,0.1-0.1,0.2c0,0.1-0.1,0.1-0.1,0.2
		s-0.1,0.1-0.1,0.1c0,0,0,0.1,0.1,0.1c0,0,0,0.1,0.1,0.1l0.6,0c0,0-0.1,0.1-0.2,0.1c-0.1,0.1-0.1,0.1-0.1,0.2c0,0.2,0.1,0.3,0.2,0.5
		s0.2,0.3,0.2,0.5c0,0.3-0.2,0.4-0.5,0.4c0,0,0,0,0,0s0.1,0,0.1,0c0.1,0,0.1,0.1,0.2,0.2c0,0.1,0.1,0.2,0.1,0.2
		c0,0.1,0.1,0.2,0.1,0.2c0,0.1,0.1,0.1,0.2,0.1c0,0.1-0.1,0.1-0.2,0.2s-0.2,0.1-0.2,0.2v0.1c0.1,0.1,0.2,0.2,0.4,0.2
		c0.2,0,0.3,0.1,0.5,0.1c0,0,0.1,0,0.1,0c0,0,0.1,0,0.1,0l1.4,0l0.1,0l0.1,0c0,0,0.1,0,0.1,0c0.1,0,0.1,0,0.2,0s0.2,0,0.2,0
		s0.1,0,0.1,0c0,0,0.1,0,0.1,0c0.1,0,0.1,0,0.2,0s0.1,0,0.2,0s0.1,0,0.1,0c0-0.1,0-0.1,0.1-0.2c0.1,0,0.1,0,0.2,0
		c0.2,0,0.3,0,0.4,0.1c0.1,0.1,0.3,0.1,0.4,0.1c0,0,0.1,0,0.2,0s0.2,0,0.3,0.1s0.2,0,0.3,0.1c0.1,0,0.2,0,0.2,0l0.1,0.1
		c0,0.1,0,0.3,0,0.5c0,0.2,0,0.4,0.1,0.5c0,0,0.1-0.1,0.1-0.1c0,0,0-0.1,0-0.1c0,0,0-0.1,0-0.1s0,0,0.1,0c0.1,0,0.1,0.1,0.2,0.2
		c0,0.1,0,0.2,0,0.2c0,0.1,0,0.2-0.1,0.3s-0.1,0.2-0.1,0.4c0,0.1,0,0.2,0.1,0.3c0,0.1,0.1,0.2,0.2,0.3c0,0.1,0,0.1-0.1,0.1
		c-0.1,0-0.2,0-0.3-0.2c-0.1-0.1-0.2-0.2-0.2-0.3c-0.1-0.1-0.1-0.2-0.2-0.3C24.1,134.6,24,134.5,24,134.5z M16.7,126.7L16.7,126.7
		L16.7,126.7L16.7,126.7z M17.7,124.3C17.7,124.3,17.7,124.3,17.7,124.3C17.7,124.4,17.7,124.4,17.7,124.3c0,0.1,0,0.2,0,0.2
		c0,0,0,0,0,0c0,0,0-0.1,0-0.1C17.8,124.4,17.7,124.4,17.7,124.3z M17.9,132.7c0,0.1,0,0.1,0,0.2s0,0.1,0.1,0.1h0c0,0,0,0,0,0
		c0,0,0-0.1,0.1-0.2c0-0.1,0-0.2,0-0.2c0,0,0,0,0,0c0,0-0.1,0-0.1,0H18c0,0-0.1,0-0.1,0.1C17.9,132.7,17.9,132.7,17.9,132.7z
		 M18,127.2C17.9,127.2,17.9,127.2,18,127.2c-0.1,0.2,0,0.2,0,0.2C18,127.4,18,127.4,18,127.2C18,127.2,18,127.2,18,127.2z
		 M18.3,123.3C18.2,123.3,18.2,123.3,18.3,123.3c-0.1,0.2,0,0.2,0,0.2C18.3,123.5,18.3,123.4,18.3,123.3
		C18.3,123.3,18.3,123.3,18.3,123.3z M21.2,133.9L21.2,133.9l0.1,0C21.3,133.9,21.3,133.9,21.2,133.9
		C21.3,133.9,21.3,133.9,21.2,133.9c0-0.1,0-0.1,0-0.1L21.2,133.9C21.2,133.8,21.2,133.9,21.2,133.9L21.2,133.9z M21.8,134.1
		c0,0.1,0,0.1,0.1,0.2c0.1,0,0.1,0,0.2,0V134c0,0-0.1,0-0.2,0C21.9,134,21.8,134.1,21.8,134.1L21.8,134.1z M22.9,133.3
		c0,0.1,0,0.2,0.1,0.2c0.1,0,0.2-0.1,0.2-0.1s0.1-0.1,0.1-0.2c0-0.1,0-0.1-0.1-0.1s-0.1,0-0.2,0c-0.1,0-0.1,0-0.2,0.1
		S22.9,133.2,22.9,133.3z M23.8,133.5C23.8,133.5,23.8,133.5,23.8,133.5C23.8,133.6,23.8,133.6,23.8,133.5
		C23.8,133.6,23.9,133.5,23.8,133.5C23.9,133.5,23.8,133.5,23.8,133.5z M23.8,134.2H24v-0.1L23.8,134.2L23.8,134.2z M24,133.5
		c0.1,0,0.1-0.1,0.1-0.2H24V133.5z"/>
	<path class="st0" d="M34.2,134.7c-0.1,0-0.2,0-0.3,0c-0.1,0-0.3-0.1-0.4-0.1c-0.1-0.1-0.3-0.1-0.4-0.2c-0.1-0.1-0.2-0.1-0.2-0.2
		v-0.1c0-0.2-0.1-0.3-0.2-0.4c-0.1-0.1-0.2-0.2-0.2-0.2s-0.2-0.1-0.2-0.2S32,133.1,32,133c0,0,0-0.1,0-0.1c0,0,0-0.1,0-0.1
		c0,0,0-0.1,0-0.1c0,0-0.1,0-0.1,0c0,0,0,0,0,0.1c0,0.1,0,0.1,0,0.1c0,0.1-0.1,0.1-0.1,0.2c-0.1,0.1-0.2,0.1-0.2,0.2
		c-0.1,0.1-0.2,0.1-0.2,0.2c-0.1,0.1-0.1,0.1-0.1,0.2v0.1c0,0,0.1,0,0.1-0.1c0.1,0,0.1,0,0.1,0c0,0,0,0,0,0s0,0,0,0.1v0c0,0,0,0,0,0
		c0,0.1,0,0.1,0,0.1c0,0-0.1,0-0.1,0s-0.1,0-0.1,0c0,0,0,0.1,0,0.1c0,0,0,0-0.1,0.1c0,0.1-0.1,0.1-0.1,0.1c0,0,0,0-0.1,0
		c-0.1,0-0.1,0-0.1,0c-0.1-0.1-0.1-0.1-0.1-0.1c0,0-0.1,0-0.2,0c0,0.1-0.1,0.1-0.2,0.2c-0.1,0-0.2,0.1-0.3,0.1s-0.2,0.1-0.3,0.1
		c-0.1,0-0.1,0.1-0.1,0.2h-1c0,0.1,0,0.1-0.1,0.1c0,0-0.1,0-0.1,0c-0.3,0-0.6-0.1-0.8-0.2c-0.3-0.1-0.4-0.3-0.4-0.6
		c0-0.1,0-0.2,0-0.3c0-0.1,0-0.2,0.1-0.3c0,0-0.1,0-0.1-0.1c-0.1,0-0.1,0-0.1,0c0,0-0.1,0-0.1,0c-0.1,0-0.1,0-0.1,0.1
		c0,0,0,0.1,0.1,0.1c0,0.1,0,0.1,0,0.1c0,0,0,0,0,0.1c0,0,0,0,0,0.1c-0.1,0-0.2,0-0.3-0.1c-0.1-0.1-0.1-0.2-0.1-0.3
		c0-0.1,0-0.2,0-0.4c0-0.1,0-0.2,0-0.3c0,0,0,0,0-0.1c0,0-0.1-0.1-0.1-0.2c0-0.1-0.1-0.1-0.1-0.2c0,0,0-0.1,0-0.1c0,0,0-0.1,0-0.2
		s0-0.2-0.1-0.3c0-0.1,0-0.2-0.1-0.3c0-0.1,0-0.1,0-0.2c0,0,0.1,0,0.1-0.1c0,0,0.1-0.1,0.1-0.1v0c0-0.1,0-0.2,0-0.2
		c0-0.1,0-0.1,0-0.2c0-0.1,0-0.1,0.1-0.2c0-0.1,0.1-0.1,0.2-0.1h0.1c0,0,0,0,0.1,0.1c0,0,0,0.1,0,0.1l0.2-0.1c0-0.1-0.1-0.1-0.2-0.1
		s-0.1,0-0.2-0.1s-0.1,0-0.2-0.1c-0.1,0-0.1-0.1-0.1-0.2c0,0,0-0.1,0.1-0.1s0.1,0,0.1,0c0,0,0.1,0,0.1,0c0,0,0.1-0.1,0.1-0.1h0.5
		v-0.2l-0.4-0.2v-0.1c0-0.2,0-0.4,0.1-0.5c0.1-0.1,0.2-0.2,0.3-0.2s0.2-0.1,0.3-0.1c0.1,0,0.2-0.1,0.2-0.1c0,0,0,0-0.1,0
		c0,0-0.1,0-0.1-0.1l0,0c0-0.1,0-0.2,0.1-0.2c0.1,0,0.1-0.1,0.2-0.1c0.1,0,0.2,0,0.3-0.1s0.2,0,0.2-0.1c0,0,0,0,0-0.1
		c0,0,0-0.1,0-0.1c0,0,0.1-0.1,0.2-0.1c0.1-0.1,0.1-0.1,0.1-0.1v-0.1v-0.1l-0.2-0.2v-0.1v0c0,0,0-0.1,0.1-0.1c0,0,0.1-0.1,0.1-0.1
		l0,0l0,0c0,0,0,0,0.1,0.1c0,0,0,0,0,0.1h0.7c0,0,0,0.1,0,0.1s0,0.1,0.1,0.1c0.2,0,0.3,0,0.4-0.1s0.2-0.2,0.2-0.2
		c0.1-0.1,0.2-0.2,0.3-0.2c0.1-0.1,0.2-0.1,0.4-0.1c0,0,0.1,0,0.2,0.1c0.1,0.1,0.3,0.2,0.4,0.3c0.2,0.1,0.3,0.2,0.4,0.3
		c0.1,0.1,0.2,0.2,0.3,0.2c0.1,0,0.1,0.1,0.2,0.2c0,0.1,0.1,0.2,0.1,0.3c0,0.1,0.1,0.2,0.1,0.3c0,0.1,0,0.2,0,0.2
		c0.1,0,0.1,0,0.2,0.1c0,0.1,0.1,0.1,0.1,0.2c0,0.1,0.1,0.1,0.1,0.2c0,0,0.1,0.1,0.2,0.1c0,0,0,0.1,0,0.2c0,0.1,0,0.1,0.1,0.2
		c0,0.1,0.1,0.2,0.1,0.2c0,0.1,0,0.1,0,0.2v0.1v0.1l0,0c0,0,0,0,0.1,0v0.1c0,0,0,0,0,0.1c-0.1,0-0.2,0-0.3-0.1
		c-0.1,0-0.2-0.1-0.3-0.1c0,0,0,0.1,0,0.2c0,0.1,0.1,0.2,0.1,0.2h0.7c0,0,0,0,0,0.1s0,0.1-0.1,0.2c0,0.1-0.1,0.1-0.1,0.2
		c0,0.1,0,0.1,0,0.1l0.2,0.6c0,0.1,0.1,0.1,0.2,0.1c0.1,0,0.1,0,0.1,0.1c0,0,0,0.1-0.1,0.1c-0.1,0.1-0.1,0.1-0.1,0.2
		c0,0.1,0,0.1,0.1,0.1c0,0,0.1,0.1,0.1,0.1c0,0,0.1,0.1,0.1,0.1c0,0,0.1,0.1,0,0.1l-0.1,0.4c0,0,0,0.1,0.1,0.1c0,0,0.1,0.1,0.2,0.1
		c0.1,0,0.1,0.1,0.2,0.1c0.1,0,0.1,0.1,0.1,0.1c0,0,0,0,0,0c0,0,0,0,0,0c0,0.1,0,0.2,0.1,0.3c0,0.1,0,0.2,0.1,0.2
		c0,0,0.1,0.1,0.2,0.1c0.1,0,0.3,0.1,0.4,0.2c0.1,0.1,0.3,0.1,0.4,0.2c0.1,0.1,0.2,0.1,0.3,0.2c-0.1,0-0.2,0.1-0.2,0.1
		c0,0.1,0,0.1,0,0.2c0,0.1,0,0.1,0,0.2s0,0.1-0.1,0.2c0,0.1-0.1,0.1-0.3,0.1s-0.4,0.1-0.7,0.1c-0.1,0-0.1,0-0.2-0.1
		c0,0-0.1-0.1-0.1-0.1c0,0,0-0.1-0.1-0.1C34.3,134.8,34.2,134.8,34.2,134.7z M27.4,132.2c0.1,0.1,0.1,0.2,0.2,0.3s0.1,0.2,0.2,0.3
		c0.1,0,0.2,0.1,0.3,0.1c0.1,0,0.1,0,0.2,0c0.1,0,0.1,0,0.2,0c0.1,0,0.1,0,0.2,0c0.1,0,0.2,0,0.2,0c0,0,0.1,0,0.1-0.1
		s0.1-0.1,0.1-0.1s0.1-0.1,0.2-0.1c0,0,0.1,0,0.2,0c0.1,0,0.2,0,0.2,0c0.1-0.1,0.3-0.2,0.4-0.4c0.1-0.2,0.2-0.4,0.2-0.5
		c0-0.1,0.1-0.1,0.2-0.1s0.1,0,0.2-0.1v0v0c0,0,0,0-0.1-0.1s-0.1-0.1-0.1-0.1c0,0,0-0.1,0.1-0.1c0.1-0.1,0.1-0.1,0.1-0.1
		c0.1-0.3,0.2-0.7,0.2-1.1c0.1-0.4,0.1-0.8,0.1-1.1c0-0.2,0-0.3-0.1-0.4c-0.1-0.1-0.2-0.2-0.3-0.2c-0.1,0-0.2-0.1-0.4-0.1
		c-0.1,0-0.3,0-0.4,0c0,0-0.1,0-0.3,0.1c-0.1,0.1-0.3,0.2-0.4,0.2c-0.1,0.1-0.3,0.2-0.4,0.2c-0.1,0.1-0.2,0.1-0.2,0.1
		c0,0,0,0.1,0,0.2c0,0.1,0,0.1-0.1,0.2c0,0-0.1,0-0.1,0c0,0,0,0-0.1,0c0,0,0,0,0,0l-0.3,0.3c0,0,0,0,0,0v0c0,0.1,0,0.1,0.1,0.1
		s0.1,0.1,0.1,0.2c0,0.1,0,0.2,0,0.2c0,0.1,0,0.1,0,0.2c0,0.1,0,0.1-0.1,0.2c0,0.1-0.1,0.2-0.1,0.3c0,0.2-0.1,0.3-0.2,0.3
		c-0.1,0.1-0.2,0.1-0.3,0.2s-0.2,0.1-0.3,0.1c-0.1,0-0.1,0.1-0.1,0.1c0,0.1,0,0.2,0.1,0.2s0.1,0.1,0.2,0.1c0.1,0,0.2,0,0.2,0
		s0.1,0.1,0.2,0.1c0,0-0.1,0.1-0.2,0.1C27.6,132.2,27.5,132.2,27.4,132.2z M28.5,133.3C28.5,133.3,28.5,133.2,28.5,133.3
		C28.4,133.2,28.4,133.3,28.5,133.3C28.4,133.3,28.4,133.3,28.5,133.3C28.5,133.3,28.5,133.3,28.5,133.3z M28.7,133.1
		C28.6,133.1,28.6,133.1,28.7,133.1c-0.1,0.1,0,0.2,0,0.2C28.7,133.3,28.7,133.2,28.7,133.1C28.7,133.1,28.7,133.1,28.7,133.1z
		 M28.8,128.5L28.8,128.5L28.8,128.5L28.8,128.5L28.8,128.5z M29.5,133.1c0,0,0.1-0.1,0.1-0.1c0.1,0,0.1-0.1,0.1-0.2h-0.2V133.1z
		 M30.3,126.8C30.3,126.8,30.3,126.8,30.3,126.8C30.3,126.8,30.2,126.8,30.3,126.8C30.3,126.8,30.3,126.8,30.3,126.8
		C30.3,126.8,30.3,126.8,30.3,126.8z M30.2,132.9L30.2,132.9L30.2,132.9L30.2,132.9L30.2,132.9z M30.3,133.1
		C30.3,133.1,30.3,133.1,30.3,133.1c-0.1,0.1,0,0.2,0,0.2C30.4,133.3,30.4,133.2,30.3,133.1C30.4,133.1,30.4,133.1,30.3,133.1z
		 M30.5,131.9c0,0.1,0,0.1,0.1,0.1c0.1,0,0.1,0,0.2,0h0.1l-0.1-0.3c0,0-0.1,0-0.2,0.1C30.5,131.8,30.5,131.8,30.5,131.9z
		 M30.6,126.9C30.6,126.9,30.5,126.9,30.6,126.9c-0.1,0.1,0,0.2,0,0.2C30.6,127,30.7,127,30.6,126.9
		C30.7,126.9,30.6,126.9,30.6,126.9z M31.6,132.6h0.2v-0.2h-0.2V132.6z"/>
	<path class="st0" d="M37.8,134.2c0,0,0-0.1,0-0.2c0-0.1,0-0.2,0-0.2s0-0.1-0.1-0.1c-0.1-0.1-0.1-0.1-0.1-0.1c0,0,0-0.1,0.1-0.1
		l0.1-0.1v-0.2c0-0.3-0.1-0.6-0.2-0.8c-0.1-0.3-0.2-0.6-0.3-0.9c-0.1-0.4-0.1-0.8-0.1-1.2c0-0.4-0.1-0.8-0.1-1.2v-1.2
		c0-0.1,0-0.3,0.1-0.4c0-0.1,0.1-0.2,0.2-0.3c0.1,0.1,0.1,0.2,0.2,0.3c0.1,0.1,0.2,0.2,0.3,0.2c0,0,0.1,0,0.1-0.1
		c0.1-0.1,0.1-0.1,0.2-0.1h0.1c0.1,0,0.2,0,0.3,0.1c0.1,0.1,0.2,0.1,0.3,0.2c0,0.1,0,0.2,0,0.3c0,0.2,0,0.3,0,0.5s0,0.3,0.1,0.5
		s0.1,0.3,0.2,0.4c0,0,0,0,0,0h0.1c0,0,0.1,0,0.1,0c0.1,0,0.1-0.1,0.1-0.1c0-0.1-0.1-0.2-0.2-0.4c-0.1-0.1-0.2-0.2-0.2-0.4
		c0,0,0-0.1,0.1-0.2c0-0.1,0.1-0.1,0.2-0.2c0.1-0.1,0.1-0.1,0.2-0.2c0.1,0,0.1-0.1,0.1-0.1l0,0h0c0,0,0,0,0,0s0,0,0,0h0
		c0.1,0,0.1,0,0.1-0.1c0,0,0-0.1,0-0.2s0-0.1,0-0.2c0-0.1,0-0.1,0-0.2c0,0,0.1-0.1,0.2-0.1c0.1-0.1,0.2-0.1,0.2-0.2h0.1
		c0.1,0,0.1,0,0.1,0.1c0,0.1,0.1,0.1,0.2,0.1c0.2,0,0.3-0.1,0.4-0.2c0.1-0.1,0.2-0.2,0.3-0.4c0.1-0.1,0.1-0.3,0.2-0.4
		s0.1-0.2,0.2-0.2c0.1,0,0.2,0,0.3,0.1c0.1,0,0.2,0.1,0.3,0.2c0.1,0.1,0.2,0.1,0.3,0.2s0.2,0.1,0.2,0.1c0,0,0.1,0,0.3,0
		c0.1,0,0.2,0,0.2,0c0,0,0.1,0,0.1,0.1c0.1,0.1,0.2,0.1,0.2,0.2c0.1,0.1,0.2,0.2,0.2,0.2c0.1,0.1,0.1,0.1,0.1,0.1l0.1,1.2l-0.1,0.1
		c0.1,0.1,0.2,0.2,0.3,0.3c0.1,0.1,0.1,0.2,0.1,0.3c0,0.1,0,0.2-0.1,0.2c0,0-0.1,0.1-0.1,0.3c0,0.1,0,0.3,0.1,0.4
		c0,0.1,0.1,0.3,0.1,0.4v0.1c0,0,0,0-0.1,0.1c0,0,0,0-0.1,0c0,0,0,0.1,0,0.1c0,0.1,0,0.1,0.1,0.1c0.1,0,0.2,0,0.3-0.1
		c0.1,0,0.1-0.1,0.1-0.2c0-0.1,0-0.1-0.1-0.2c0,0-0.1-0.1-0.1-0.1c0,0,0-0.1,0.1-0.2c0.1-0.1,0.2-0.2,0.3-0.3
		c0.1-0.1,0.2-0.2,0.3-0.3c0.1-0.1,0.2-0.2,0.2-0.2c0-0.1,0.1-0.2,0.3-0.3c0.1-0.2,0.3-0.3,0.4-0.5s0.3-0.3,0.5-0.4s0.3-0.2,0.4-0.2
		h0.1c0,0,0,0,0.1,0.1s0.1,0.1,0.1,0.1c0.1,0,0.1,0,0.2-0.1s0.2-0.1,0.2-0.2c0.1-0.1,0.1-0.2,0.2-0.3c0.1-0.1,0.1-0.2,0.1-0.3
		c0,0,0.1,0.1,0.2,0.1c0.1,0,0.2,0.1,0.2,0.1c0,0,0,0.1,0,0.1l0,0c0,0,0.1,0,0.1,0c0,0,0.1-0.1,0.1-0.1v0l0,0H49
		c0-0.3,0-0.5,0.1-0.6c0.1-0.1,0.3-0.2,0.6-0.3c0.1,0,0.2,0.1,0.3,0.2c0.1,0.1,0.2,0.2,0.3,0.3c0.1,0.1,0.2,0.2,0.2,0.3
		c0.1,0.1,0.1,0.1,0.2,0.1c0,0,0.1,0,0.1-0.1c0,0,0.1-0.1,0.1-0.1H51c0.1,0,0.1,0,0.2,0.1c0,0.1,0.1,0.2,0.1,0.3
		c0,0.1,0.1,0.3,0.1,0.4c0,0.1,0,0.2,0,0.3c0,0.3,0,0.6-0.1,0.9s-0.1,0.6-0.1,0.9c0,0,0,0.1,0.1,0.1l0.1,0.1c0,0-0.1,0.1-0.1,0.1
		c0,0.1-0.1,0.1-0.1,0.1l0,0c0,0,0,0,0,0c0,0,0,0,0,0c0,0,0,0.1,0.1,0.1c0,0,0.1,0.1,0.1,0.1c0,0,0,0.1,0,0.1s0,0.1,0,0.1v0.5
		c0,0.1,0,0.2,0,0.3c0,0.1,0,0.2,0,0.3c0,0.1,0,0.2,0.1,0.3c0,0.1,0.1,0.2,0.1,0.4c0,0,0,0.1,0.1,0.2c0.1,0.1,0.1,0.1,0.1,0.1
		c0,0,0,0.1,0,0.1c0,0.1-0.1,0.1-0.1,0.1c0,0,0,0.1,0,0.2c0,0.1,0,0.2,0,0.2c0,0.1,0,0.3,0.1,0.3c0.1,0.1,0.1,0.2,0.2,0.2
		c0.1,0.1,0.1,0.1,0.2,0.2c0.1,0.1,0.1,0.1,0.1,0.2h-0.1c0,0-0.1-0.1-0.2-0.1s-0.2-0.1-0.2-0.1c0,0-0.1,0-0.2,0.1
		c-0.1,0-0.2,0.1-0.2,0.1H51c-0.2,0-0.4-0.1-0.5-0.4c-0.2-0.3-0.3-0.6-0.4-1c-0.1-0.4-0.2-0.8-0.3-1.3c-0.1-0.5-0.1-0.9-0.2-1.3
		c-0.1-0.4-0.1-0.7-0.2-1c-0.1-0.3-0.1-0.4-0.2-0.4h-0.1c0,0-0.1,0.1-0.3,0.2c-0.1,0.1-0.2,0.2-0.3,0.3c0,0-0.1,0.1-0.2,0.2
		s-0.2,0.2-0.2,0.2h-0.1c-0.1,0-0.1,0-0.2,0c0,0-0.1,0-0.2,0c0,0.1,0,0.3,0,0.4c0,0.1,0,0.2,0,0.3c0,0.1,0,0.2-0.1,0.3
		c0,0.1-0.1,0.2-0.2,0.3h0h-0.1c0,0,0-0.1-0.1-0.2c0-0.1,0-0.1-0.1-0.2v-0.1c0-0.1,0-0.1-0.1-0.1c0,0-0.1,0-0.1,0c0,0-0.1,0-0.1,0.1
		v0.5l0.2,0.1c0,0,0,0,0,0.1c0,0,0,0-0.1,0c0,0-0.1,0-0.1-0.1c0,0-0.1,0-0.1-0.1c-0.1,0-0.1,0-0.2,0.1c-0.1,0.1-0.1,0.1-0.1,0.2
		c0,0,0,0,0,0c0,0,0,0,0,0c0,0,0.1,0,0.1,0c0.1,0,0.1,0,0.2,0.1l0,0l0,0c0,0.2-0.1,0.4-0.2,0.4c-0.2,0-0.3,0.1-0.5,0.1
		c0-0.1,0-0.2-0.1-0.3c0-0.1-0.1-0.1-0.2-0.1c-0.1,0-0.2,0.1-0.3,0.2c-0.1,0.1-0.1,0.3-0.1,0.4c0,0.1,0,0.2,0.1,0.3
		c0.1,0.1,0.1,0.2,0.1,0.3c0,0.3-0.1,0.5-0.2,0.6c-0.1,0.1-0.3,0.2-0.5,0.2c-0.2,0-0.4,0.1-0.5,0.2c-0.2,0.1-0.3,0.2-0.4,0.4h-0.1
		h-0.1c0,0,0,0-0.1-0.1s-0.1-0.1-0.1-0.1H44c0,0,0,0-0.1,0.1c0,0-0.1,0-0.1,0.1h0h-0.1l-0.1-0.1l0-0.1c0,0,0-0.1,0-0.1
		c0,0,0-0.1,0.1-0.1c0,0,0,0,0-0.1c0,0,0,0,0-0.1c0-0.2,0-0.4,0-0.6c0-0.2,0-0.5,0-0.7c0-0.2-0.1-0.5-0.1-0.7c0-0.2-0.1-0.4-0.2-0.5
		c-0.1-0.1-0.1-0.2-0.2-0.3c0-0.1-0.1-0.2-0.1-0.2c0-0.1-0.1-0.2-0.1-0.3c0-0.1,0-0.2,0-0.4v-0.5c0,0,0,0,0.1-0.1
		c0-0.1,0.1-0.1,0.1-0.1c0-0.1,0-0.2-0.1-0.3c0-0.1-0.1-0.2-0.1-0.2h-0.3c0-0.1,0.1-0.1,0.1-0.2c0-0.1,0-0.1,0-0.2V129
		c0,0-0.1,0-0.1,0.1c0,0-0.1,0-0.1,0c0,0-0.1,0-0.1-0.1s0-0.1-0.1-0.2c0-0.1-0.1-0.1-0.1-0.2c0-0.1-0.1-0.1-0.1-0.1
		c-0.1,0-0.2,0-0.3,0.1s-0.2,0.2-0.3,0.4s-0.2,0.3-0.3,0.5s-0.2,0.2-0.2,0.3c0,0-0.1,0.1-0.1,0.2C41,130,41,130,41,130.1
		c0,0-0.1,0-0.2,0.1c-0.1,0-0.1,0-0.2,0.1v0v0.1c0,0,0.1,0,0.1,0.1c0,0,0.1,0,0.1,0.1l-0.4,0.4c0.1,0,0.1,0,0.2,0
		c0.1,0,0.1,0.1,0.1,0.1c0,0.1,0,0.2-0.1,0.2c-0.1,0-0.1,0.1-0.1,0.2c0,0.1,0,0.1,0.1,0.1c0.1,0,0.1,0,0.1,0.1v0
		c0,0.1-0.1,0.1-0.2,0.2c-0.1,0.1-0.2,0.2-0.2,0.3c0,0.1,0,0.1,0.1,0.2c0,0.1,0.1,0.1,0.1,0.2c0,0.3-0.1,0.6-0.3,0.7
		s-0.4,0.2-0.7,0.2c0,0,0,0.1,0,0.2c0,0.1,0,0.2,0,0.3c0,0.1,0,0.2,0,0.3c0,0.1,0,0.2,0,0.2c0,0,0,0.1,0,0.1s0,0.1,0,0.2
		c0,0.1,0,0.1-0.1,0.2c0,0-0.1,0.1-0.1,0.1h0c0,0-0.1,0-0.1,0c-0.1,0-0.1,0-0.1,0h0c-0.1,0-0.2,0-0.3,0.1c-0.1,0.1-0.2,0.1-0.2,0.1
		h-0.1c-0.2,0-0.4-0.1-0.5-0.2c-0.1-0.1-0.1-0.3-0.1-0.5V134.2z M38,128.7c0,0.3,0,0.5,0,0.7c0,0.2,0,0.3,0.1,0.3c0,0,0-0.1,0-0.2
		c0-0.1,0-0.3,0-0.4s0-0.3-0.1-0.4S38,128.7,38,128.7z M38.2,134.5C38.2,134.4,38.1,134.5,38.2,134.5c0,0.2,0,0.2,0,0.2
		C38.2,134.6,38.2,134.6,38.2,134.5C38.2,134.5,38.2,134.5,38.2,134.5z M38.4,134c0,0.1,0,0.2,0.1,0.2c0,0.1,0.1,0.1,0.2,0.1
		c0.1,0,0.1-0.1,0.1-0.2c0-0.1,0-0.2,0-0.2c0,0,0,0,0-0.1c0-0.1,0-0.1,0-0.1c0,0-0.1,0-0.2,0.1s-0.1,0-0.1,0
		C38.5,133.9,38.4,133.9,38.4,134C38.4,133.9,38.4,134,38.4,134z M39.7,131.2h0.1v-0.1h-0.1V131.2z M39.9,128.7c0,0.1,0,0.3,0.1,0.4
		c0,0.2,0.1,0.3,0.2,0.3c0,0,0.1-0.1,0.2-0.1c0.1-0.1,0.2-0.1,0.2-0.1c0,0-0.1,0-0.1,0c-0.1,0-0.1,0-0.1,0c0-0.1,0-0.2-0.1-0.3
		C40.1,128.7,40,128.7,39.9,128.7z M40.4,127.9c0,0.1,0,0.1,0,0.2c0,0.1,0,0.1,0.1,0.2c0,0,0,0,0-0.1c0,0,0,0,0-0.1v0V128
		c0,0,0-0.1,0-0.2c0-0.1,0-0.2,0-0.2c-0.1,0-0.1,0.1-0.1,0.1C40.4,127.8,40.4,127.8,40.4,127.9z M41.2,127.8
		C41.1,127.8,41.1,127.9,41.2,127.8c0,0.1,0,0.1,0,0.2c0,0,0,0.1,0.1,0.1c0,0,0.1,0.1,0.1,0.1c0,0,0-0.1,0-0.2
		C41.3,127.9,41.2,127.8,41.2,127.8z M41.3,127.7h0.1v-0.1h-0.1V127.7z M44.4,131.4c0,0,0,0.1-0.1,0.2c0,0,0,0.1-0.1,0.1
		c0.2,0,0.3,0.1,0.4,0.1c0.1,0,0.2,0,0.4,0.1l-0.4-0.6C44.5,131.3,44.5,131.3,44.4,131.4C44.4,131.4,44.4,131.4,44.4,131.4z
		 M44.3,130.4C44.3,130.4,44.3,130.5,44.3,130.4c0,0.1,0,0.1,0,0.1C44.4,130.5,44.4,130.5,44.3,130.4z M45,130.9
		C45,130.9,45.1,131,45,130.9c0.1,0.1,0.1,0.2,0,0.2C44.9,131.1,44.9,131.1,45,130.9C44.9,131,44.9,130.9,45,130.9z M46.5,129.2
		C46.5,129.2,46.5,129.2,46.5,129.2c-0.1,0.2,0,0.2,0,0.2C46.6,129.4,46.6,129.4,46.5,129.2C46.6,129.2,46.6,129.2,46.5,129.2z
		 M46.7,130.2C46.7,130.2,46.7,130.2,46.7,130.2C46.7,130.2,46.7,130.3,46.7,130.2C46.8,130.2,46.8,130.2,46.7,130.2
		C46.8,130.2,46.8,130.2,46.7,130.2z M46.9,128.8C46.9,128.8,46.9,128.8,46.9,128.8c0,0.1,0,0.2,0,0.2c0,0.1,0.1,0.1,0.1,0.2
		c0,0,0.1,0.1,0.1,0.1c0.1-0.1,0.1-0.1,0.1-0.2c0-0.1,0-0.1,0-0.2c0-0.1-0.1-0.1-0.2-0.1S47,128.7,46.9,128.8z M47.1,130.6
		C47.2,130.5,47.1,130.5,47.1,130.6c-0.1-0.1-0.1,0-0.1,0C47,130.6,47.1,130.6,47.1,130.6C47.1,130.6,47.1,130.6,47.1,130.6z
		 M48.3,129.5C48.3,129.5,48.3,129.5,48.3,129.5c-0.1,0.1,0,0.2,0,0.2C48.4,129.7,48.4,129.6,48.3,129.5
		C48.4,129.5,48.4,129.5,48.3,129.5z M49.2,129.5c0,0-0.1,0-0.1,0s-0.1,0-0.2,0c-0.1,0-0.1,0-0.1,0c0,0,0,0,0,0c0,0,0,0,0.1,0
		c0.1,0,0.1,0,0.2,0S49.1,129.5,49.2,129.5C49.2,129.5,49.2,129.5,49.2,129.5z M50.7,129.3c0.1,0,0.2,0,0.3,0c0.1,0,0.1-0.1,0.1-0.1
		c0-0.1,0-0.1-0.1-0.2c-0.1,0-0.2-0.1-0.3-0.1c0,0,0,0,0,0.1c0,0,0,0.1,0,0.2C50.7,129.1,50.7,129.2,50.7,129.3
		C50.7,129.2,50.7,129.3,50.7,129.3z M50.9,131.4C50.9,131.4,50.9,131.5,50.9,131.4c0.1,0.2,0.1,0.2,0.1,0.2v-0.4
		C51,131.3,51,131.3,50.9,131.4C50.9,131.4,50.9,131.4,50.9,131.4z M51.4,134.6L51.4,134.6L51.4,134.6L51.4,134.6z"/>
	<path class="st0" d="M54,135.6C54,135.6,54,135.6,54,135.6c0.1-0.1,0.1-0.1,0.1-0.1c-0.2-0.1-0.3-0.2-0.4-0.5
		c-0.1-0.2-0.1-0.4-0.2-0.6c0-0.2,0-0.3,0.1-0.4c0.1-0.1,0.1-0.3,0.1-0.4c0-0.1-0.1-0.2-0.1-0.4c0-0.1-0.1-0.2-0.1-0.4
		c0-0.2,0-0.4,0.1-0.6c0.1-0.2,0.1-0.4,0.1-0.6c0-0.1,0-0.1-0.1-0.2c0,0-0.1-0.1-0.1-0.2c0-0.1,0-0.2,0-0.3c0-0.1,0-0.2,0-0.4
		c0-0.1,0-0.2,0-0.4s0-0.2,0-0.3c0,0,0,0,0-0.1c0-0.1-0.1-0.1-0.1-0.2c0-0.1-0.1-0.1-0.1-0.2c0-0.1-0.1-0.1-0.1-0.1v0
		c0,0,0-0.1,0.1-0.2c0-0.1,0.1-0.2,0.1-0.3c0-0.1,0.1-0.3,0.1-0.4c0-0.1,0-0.3,0-0.4c0-0.5-0.1-1.1-0.2-1.6s-0.1-1-0.2-1.6
		c0-0.1,0-0.2,0-0.3s0-0.3,0-0.4c0-0.1,0-0.3,0-0.4c0-0.1,0-0.2,0-0.2l0-0.6c0.2,0,0.2,0,0.3,0c0,0,0-0.1,0-0.2c0,0,0-0.1,0-0.1
		c0,0,0-0.1,0-0.1c0,0,0-0.1,0-0.1c0-0.1,0-0.1,0-0.2c0-0.1,0-0.2,0-0.2c0-0.1,0-0.1,0-0.1c0,0,0,0,0-0.1v0
		c-0.1-0.2-0.1-0.4-0.2-0.6c0-0.2-0.1-0.4,0-0.5c0-0.1,0.1-0.2,0.3-0.2s0.4,0,0.7,0.1c0,0,0.1-0.1,0.1-0.2c0-0.1,0-0.1,0-0.2
		c0-0.1,0-0.1,0-0.2s0-0.1,0.1-0.1c0,0,0.1,0,0.1,0.1c0.1,0,0.1,0.1,0.2,0.1c0.1,0,0.1,0.1,0.1,0.1s0.1,0.1,0.1,0.1
		c0.1,0.2,0.2,0.4,0.2,0.5s0.1,0.3,0.1,0.5c0,0.2,0,0.3,0,0.5s0,0.4,0,0.6c0,0,0.1,0.1,0.1,0.2s0.1,0.2,0.1,0.2v0.1c0,0,0,0.1,0,0.1
		c0,0-0.1,0.1-0.1,0.1l0.1,0.8l-0.2-0.2c-0.1,0-0.1,0-0.1,0.1c0,0,0,0.1,0,0.1v0.1c0,0,0,0,0,0c0,0,0,0,0.1,0s0.1,0,0.1,0
		c0.1,0.1,0.1,0.2,0.2,0.4c0,0.1,0.1,0.3,0.1,0.4c0,0.1,0.1,0.2,0.2,0.3c0.1,0.1,0.2,0.1,0.4,0.1c0.2,0,0.3,0,0.4,0s0.1,0,0.2,0
		s0.1,0,0.1,0.1c0,0.1,0,0.1,0.1,0.3H57c0.1,0,0.1,0,0.1-0.1c0-0.1,0.1-0.1,0.1-0.2c0,0.1,0.1,0.2,0.2,0.2s0.2,0,0.3,0
		c0.2,0,0.3-0.1,0.4-0.2c0.1-0.1,0.3-0.2,0.5-0.2h0.1c0,0,0,0,0,0c0,0,0.1,0,0.1,0s0.1,0,0.1,0c0.1,0.1,0.2,0.2,0.2,0.2
		c0,0.1,0,0.2,0.1,0.3c0,0.1,0.1,0.1,0.1,0.1c0,0,0.1,0,0.2,0c0,0,0,0,0.1,0.1c0.1,0.1,0.1,0.1,0.2,0.2c0.1,0.1,0.1,0.2,0.2,0.3
		c0.1,0.1,0.1,0.1,0.2,0.2c0.1,0,0.1,0.1,0.1,0.1s0,0.1,0,0.2c0,0.2,0,0.3,0,0.5c0,0.1,0,0.3,0,0.5c0,0.1,0,0.2,0,0.2
		c0,0,0.1,0,0.1,0l0-0.4c0.1,0,0.1,0,0.2,0s0.1,0,0.2,0.1c0,0.2,0.1,0.4,0.1,0.5c0,0.1,0,0.3,0.1,0.5c0,0,0,0.1,0,0.2
		c0,0.1,0,0.1,0,0.2c-0.3,0-0.4,0.2-0.4,0.4c0,0.2,0.2,0.3,0.4,0.3c-0.1,0.1-0.2,0.2-0.3,0.2c0,0-0.1,0-0.1,0c0,0-0.1-0.1-0.1-0.1
		c0,0-0.1-0.1-0.2-0.1c-0.1,0-0.1,0-0.2,0h-0.1c0,0.2,0.1,0.4,0.2,0.6c0.1,0.2,0.2,0.4,0.3,0.6c0-0.1,0.1-0.1,0.1-0.1
		c0.1,0,0.1,0,0.2,0l0,0.2c-0.2,0-0.3,0-0.4,0s-0.2,0-0.3,0c0,0.2,0,0.3,0,0.5s-0.1,0.2-0.1,0.3c0,0.1-0.1,0.2-0.1,0.3
		c0,0.1,0,0.2,0,0.4c0,0,0,0,0,0c0,0-0.1,0-0.1,0c-0.1,0-0.1,0-0.1,0l-0.1,0.1l0,0c0,0,0,0.1,0.1,0.2c0,0.1,0.1,0.1,0.1,0.1
		c0,0-0.1,0-0.1,0c0,0-0.1,0-0.1,0c-0.1,0-0.2,0-0.2-0.1c-0.1,0-0.1-0.1-0.2-0.2c-0.1-0.1-0.1-0.1-0.2-0.1c-0.1,0-0.2-0.1-0.3-0.1
		c0,0.1,0,0.2,0,0.3s0,0.2,0,0.2c0,0.1,0,0.2,0,0.2c0,0.1,0,0.2-0.1,0.4c0,0.1,0,0.2-0.1,0.2c0,0-0.1,0-0.1,0.1c0,0-0.1,0-0.1,0
		c0,0-0.1,0-0.1,0.1c0,0-0.1,0.1-0.1,0.2c0,0.1-0.1,0.2-0.1,0.3c0,0.1-0.1,0.2-0.1,0.2c0,0.1-0.1,0.1-0.2,0.1l0-0.2l-0.3,0
		c0,0,0,0.1,0.1,0.2c0,0.1,0,0.1,0,0.2c0,0,0,0-0.1,0c-0.1,0-0.1,0-0.1,0c0,0,0,0-0.1,0.1c-0.1,0-0.1,0-0.1,0c0,0-0.1,0-0.2,0
		c-0.1,0-0.2,0-0.2,0s-0.2,0-0.3,0c-0.1,0-0.1,0-0.2,0l-0.2,0.4c0-0.1-0.1-0.1-0.1-0.1s-0.1,0-0.1,0c0,0-0.1,0-0.1,0
		c0,0,0-0.1,0-0.2c-0.1,0.1-0.2,0.1-0.4,0.2c-0.2,0.1-0.3,0.1-0.4,0.1c0,0.1,0,0.2-0.1,0.3c0,0.1-0.1,0.2-0.2,0.2
		c-0.1,0-0.2,0-0.4-0.1C54.1,135.9,54,135.8,54,135.6z M54,135C53.9,135,53.9,135,54,135c-0.1,0.1-0.1,0.2,0,0.2
		C54,135.2,54.1,135.1,54,135C54.1,135,54,135,54,135z M54.3,134.8c0,0.1,0.1,0.2,0.2,0.2c0.1,0,0.2,0,0.2,0V135l0,0v0
		c0,0,0,0-0.1-0.1c0,0-0.1-0.1-0.1-0.1c0,0,0-0.1,0-0.1c0-0.1,0-0.1,0.1-0.1h-0.1c0,0-0.1,0.1-0.2,0.1
		C54.4,134.8,54.3,134.8,54.3,134.8z M54.4,135.4c0,0.1,0.1,0.1,0.2,0.1l0-0.2C54.4,135.3,54.4,135.4,54.4,135.4z M54.6,121h0.1
		H54.6L54.6,121L54.6,121z M54.8,134.4c0,0.1,0,0.2,0.1,0.4c0.1,0.1,0.1,0.2,0.3,0.2c0.1,0,0.1,0,0.1-0.1c0-0.1,0-0.2,0-0.2
		c0-0.1,0-0.2,0-0.3c0-0.1,0-0.1,0.1-0.2c0,0,0,0,0.1,0c0.1,0,0.1,0.1,0.2,0.1c0.1,0,0.2,0.1,0.2,0.1c0.1,0,0.1,0,0.1,0
		c0-0.2-0.1-0.4-0.2-0.5c-0.1-0.1-0.3-0.1-0.5-0.1c-0.1,0-0.3,0.1-0.4,0.2C54.9,134.2,54.8,134.3,54.8,134.4z M55,122.8
		C54.9,122.8,54.9,122.8,55,122.8c-0.1,0.2-0.1,0.2,0,0.2C55,123,55,123,55,122.8C55,122.8,55,122.8,55,122.8z M55.1,125.8
		C55.1,125.8,55.1,125.8,55.1,125.8C55,125.8,55,125.8,55.1,125.8C55,125.8,55,125.9,55.1,125.8C55,125.9,55.1,125.8,55.1,125.8z
		 M55.6,133.1c-0.1,0-0.1,0.1-0.2,0.2c-0.1,0.1-0.1,0.1-0.1,0.2c0,0,0,0,0.1,0c0.1,0,0.1,0,0.2,0c0.1,0,0.1,0,0.2,0
		c0.1,0,0.1-0.1,0.1-0.1c0,0,0-0.1,0-0.2c0-0.1,0-0.2,0-0.2c0,0,0,0,0.1,0c0,0,0.1,0,0.1,0c0.1,0,0.1,0,0.2,0s0.1,0,0.1,0
		c0,0,0.1-0.1,0.1-0.2c0.1-0.1,0.1-0.1,0.1-0.2c0,0,0.1,0,0.1,0c0,0,0.1,0,0.1,0c0,0.2,0,0.2,0,0.3c0,0,0,0.1,0,0.2
		c0,0.1,0,0.1,0.1,0.1c0,0,0.1,0,0.2,0.1c0.1,0,0.1,0,0.2,0c0.1,0,0.1,0,0.1,0c0-0.2-0.1-0.3-0.1-0.4c-0.1-0.1-0.1-0.2-0.1-0.3
		c0-0.1,0-0.2,0.2-0.3c0.1-0.1,0.3-0.2,0.5-0.4c0.2-0.2,0.4-0.3,0.6-0.5c0.2-0.2,0.4-0.4,0.6-0.6c0.2-0.2,0.3-0.5,0.5-0.7
		c0.1-0.3,0.2-0.5,0.1-0.8c0-0.1,0-0.2-0.1-0.2s-0.1-0.1-0.1-0.1c0,0-0.1-0.1-0.1-0.1c0,0-0.1-0.1-0.1-0.1c0-0.1-0.1-0.2,0-0.2
		c0,0,0.1-0.1,0.2-0.1c0.1,0,0.1-0.1,0.2-0.1s0.1-0.1,0.1-0.2c0-0.2-0.1-0.3-0.2-0.4c-0.1-0.1-0.3-0.2-0.5-0.2
		c-0.2,0-0.4-0.1-0.6-0.1s-0.3,0-0.4,0c0,0.1,0,0.1,0.1,0.2c0,0.1,0.1,0.1,0.1,0.2v0.1c0,0,0,0-0.1-0.1c0,0,0,0-0.1,0
		c-0.1,0-0.2-0.1-0.3-0.1c-0.1,0-0.1-0.1-0.2-0.1c0,0-0.1-0.1-0.1-0.1c0,0-0.1-0.1-0.2-0.2l0,0c-0.1,0-0.2,0-0.3,0
		c-0.1,0-0.3,0-0.4,0.1c-0.1,0-0.3,0.1-0.4,0.1c-0.1,0-0.2,0.1-0.2,0.2c0,0,0,0.1-0.1,0.2c0,0.1-0.1,0.2-0.1,0.3
		c-0.1,0.1-0.1,0.2-0.1,0.3c0,0.1-0.1,0.1-0.1,0.2c0,0,0,0.1,0,0.2c0,0.1,0,0.2,0,0.3c0,0.1,0,0.2,0,0.3c0,0.1,0,0.2,0,0.2
		c0,0.1,0,0.2,0,0.4s0,0.4,0,0.6c0,0.2,0,0.4,0,0.6s0,0.3-0.1,0.3l-0.1-0.1v-0.1v0c0,0,0,0,0-0.1c0-0.1,0-0.1,0-0.1c0,0,0,0,0-0.1
		c0,0,0,0-0.1,0c-0.1,0-0.1,0.1-0.1,0.1c0,0.1,0,0.1,0,0.2s0,0.2,0,0.2c0,0.1,0,0.1,0,0.2c0,0,0,0.1,0,0.2c0,0.1,0,0.2,0,0.3
		c0,0.1,0,0.2,0,0.3c0,0.1,0,0.2,0,0.2c0,0.1,0,0.2,0.1,0.2C55.4,133,55.5,133.1,55.6,133.1z M55.3,125.8h0.1v-0.1L55.3,125.8z
		 M55.3,129.3l0.1-0.1L55.3,129.3L55.3,129.3z M55.3,123.1c0,0-0.1,0-0.1,0.1c0,0.1,0,0.1,0.1,0.1C55.4,123.3,55.4,123.3,55.3,123.1
		C55.4,123.2,55.4,123.1,55.3,123.1z M55.5,126.7c0,0-0.1,0,0,0.1s0,0.1,0.1,0.1C55.6,126.8,55.6,126.8,55.5,126.7
		C55.6,126.7,55.5,126.7,55.5,126.7z M56.2,134.4C56.2,134.4,56.1,134.4,56.2,134.4c0,0.1,0,0.1,0,0.1
		C56.2,134.5,56.2,134.5,56.2,134.4C56.2,134.4,56.2,134.4,56.2,134.4z M57,134l0.2,0c0,0,0,0,0,0c0,0,0,0-0.1,0h0H57V134z
		 M57.3,126C57.3,125.9,57.3,126,57.3,126c0,0.1,0,0.1,0,0.1C57.4,126.1,57.4,126,57.3,126C57.4,126,57.4,126,57.3,126z M57.5,132.5
		C57.4,132.5,57.4,132.5,57.5,132.5C57.5,132.6,57.5,132.6,57.5,132.5C57.5,132.6,57.5,132.6,57.5,132.5
		C57.5,132.5,57.5,132.5,57.5,132.5z M57.5,127.2C57.5,127.2,57.5,127.2,57.5,127.2c0,0.1,0.1,0.2,0.1,0.2c0.1,0,0.1-0.1,0.1-0.2
		c0-0.1,0-0.1,0-0.2c0,0-0.1,0-0.1,0C57.5,127.1,57.5,127.1,57.5,127.2z M57.8,133.5l0.1-0.1l-0.1-0.1L57.8,133.5z M58.2,133.8
		L58.2,133.8l0.1-0.2h-0.1V133.8z M58.9,132.1c0.3,0.1,0.6,0.1,1,0.1c0,0,0-0.1,0-0.2c0-0.1,0-0.2-0.1-0.3c0-0.1-0.1-0.2-0.1-0.3
		c0-0.1-0.1-0.1-0.1-0.1l0,0c0,0,0,0,0,0s0,0,0,0c0,0-0.1,0.1-0.1,0.2c-0.1,0.1-0.1,0.2-0.1,0.3c-0.1,0-0.1,0-0.2,0
		S58.8,132,58.9,132.1L58.9,132.1z M59,126.8c0.1,0,0.1-0.1,0.1-0.1c0-0.1,0-0.1,0-0.2l-0.1,0L59,126.8z M59.1,127.2
		C59.1,127.2,59.2,127.2,59.1,127.2l0.1,0.1h0.1c0,0,0.1-0.1,0.1-0.2c0-0.1,0.1-0.1,0.1-0.2c0,0,0,0,0-0.1s0,0,0.1,0
		c0,0,0,0-0.1-0.1c0,0,0,0-0.1,0l0,0c0,0,0,0,0,0s0,0,0,0h0c0,0-0.1,0.1-0.1,0.1c0,0.1-0.1,0.1-0.1,0.1
		C59.2,127.1,59.2,127.1,59.1,127.2C59.2,127.1,59.2,127.2,59.1,127.2z M59.6,131c0,0,0,0.1,0.1,0.1c0,0,0.1,0.1,0.2,0.2
		c0.1,0.1,0.2,0.1,0.3,0.1c0-0.1-0.1-0.2-0.2-0.3C59.9,131,59.8,131,59.6,131z M59.7,127.6c0,0-0.1,0-0.1,0.1c0,0.1,0,0.1,0.1,0.1
		C59.8,127.8,59.8,127.8,59.7,127.6C59.8,127.6,59.8,127.6,59.7,127.6z M59.8,126.9C59.7,126.9,59.7,126.9,59.8,126.9
		C59.7,126.9,59.7,127,59.8,126.9C59.8,126.9,59.8,126.9,59.8,126.9C59.8,126.9,59.8,126.9,59.8,126.9z M59.9,129.1
		c0,0.2,0.1,0.3,0.3,0.2h0.1C60.2,129.2,60.1,129.1,59.9,129.1z"/>
	<path class="st0" d="M71.5,128.4C71.5,128.5,71.5,128.5,71.5,128.4C71.6,128.5,71.6,128.5,71.5,128.4l0.1,0.1c0.1,0,0.1,0,0.1-0.1
		c0-0.1,0-0.2,0-0.2c0,0.1,0.1,0.2,0.1,0.3c0,0.1,0,0.2,0,0.3c0,0.1,0,0.2,0,0.3c0,0.1,0,0.3,0.1,0.5c-0.1,0-0.1,0-0.1,0.1
		c0,0.1,0,0.2,0,0.3c0,0.1,0.1,0.2,0.1,0.3c0,0.1,0,0.2,0,0.2v0.1c0,0,0,0.1,0.1,0.2c0,0.1,0.1,0.2,0.1,0.3c0,0.1,0.1,0.2,0.1,0.3
		c0,0.1,0,0.1,0.1,0.2c0,0.1,0.1,0.2,0.2,0.4c0.1,0.2,0.3,0.4,0.4,0.6c0.2,0.2,0.3,0.4,0.5,0.5s0.3,0.2,0.4,0.2h0c0,0,0.1,0,0.1-0.1
		c0.1,0,0.1-0.1,0.1-0.1h0c0,0,0,0,0,0c0,0,0,0,0,0l0,0h0c0,0,0,0,0,0.1c0,0,0,0.1,0,0.1c0,0,0.1,0,0.1,0s0.1,0,0.1,0.1v0.1v0.1
		c0,0,0,0,0.1,0.1s0.1,0,0.1,0v0.1c0,0,0,0-0.1,0.1c0,0-0.1,0.1-0.1,0.1c0,0,0,0.1,0,0.2s0,0.2,0,0.2c0,0-0.1,0.1-0.1,0.1
		c-0.1,0.1-0.1,0.1-0.1,0.1c0,0,0,0.1,0,0.1c0,0.1,0,0.1,0,0.1c-0.1,0-0.1,0-0.2-0.1c-0.1-0.1-0.1-0.1-0.2-0.1c0,0,0,0,0,0
		s0,0.1,0,0.1s0,0.1,0,0.1h-0.1c0,0-0.1-0.1-0.1-0.1c-0.1-0.1-0.1-0.1-0.1-0.1c-0.1,0-0.2,0-0.3,0s-0.2,0-0.3,0s-0.2-0.1-0.2-0.1
		c-0.1-0.1-0.1-0.2-0.1-0.4c0,0-0.1,0-0.1,0c0,0-0.1,0-0.1,0s0,0,0,0c0-0.3,0-0.4-0.1-0.5c-0.1-0.1-0.1-0.1-0.2-0.1s-0.2,0-0.2,0
		c-0.1,0-0.1-0.1-0.1-0.3c-0.1,0-0.1,0-0.1,0c0,0,0,0-0.1,0.1v-0.4c0,0,0,0,0,0c0,0,0,0-0.1,0l-0.2,0.3c0,0,0-0.1,0-0.2
		c0-0.1,0-0.1,0-0.2v-0.1c0,0,0,0,0,0s0,0,0,0l-0.2,0.1v-0.1c0-0.1,0-0.1,0-0.1c0,0,0-0.1,0-0.1c0-0.1-0.1-0.2-0.2-0.3
		s-0.2-0.2-0.2-0.2c0,0.1-0.1,0.1-0.1,0.2c-0.1,0.1-0.1,0.1-0.2,0.2c0,0-0.1,0-0.1,0s-0.1,0-0.2,0.1c-0.1,0-0.2,0-0.2,0.1
		s-0.1,0-0.2,0c-0.1,0-0.1,0-0.1,0.1c0,0,0,0.1-0.1,0.1c0,0-0.1,0.1-0.1,0.1s-0.1,0.1-0.2,0.1c-0.1,0-0.1,0-0.1-0.1
		c-0.1,0.1-0.1,0.2-0.1,0.2s0,0.1,0,0.2H69c0,0-0.1,0.1-0.2,0.2c-0.1,0.1-0.2,0.1-0.3,0.2s-0.3,0.1-0.4,0.2c-0.1,0-0.2,0.1-0.3,0.1
		c0,0-0.1,0-0.1,0c0,0-0.1,0-0.1,0c0,0,0,0.1,0,0.1c0,0.1,0,0.1,0,0.1l0,0l-0.1,0c0,0,0,0-0.1,0c0,0-0.1,0-0.1,0v0.3h0
		c0,0-0.1,0-0.1,0c-0.1,0-0.1,0-0.2-0.1c-0.1,0-0.1-0.1-0.1-0.2c0-0.1,0-0.1,0.1-0.1c0,0,0.1-0.1,0.1-0.1c0-0.1,0-0.1,0-0.2
		s0-0.1-0.1-0.1c-0.1,0-0.1,0-0.2,0.1c0,0.1-0.1,0.2-0.1,0.2c0,0.1,0,0.2,0,0.3c0,0.1,0,0.1,0,0.2c0,0-0.1,0-0.2,0s-0.1,0-0.2,0
		s-0.2,0-0.2,0s-0.1,0-0.2,0c0,0-0.1,0-0.1,0c0,0-0.1,0-0.1,0c0-0.1,0-0.3-0.1-0.4s-0.2-0.2-0.3-0.2c0,0.2,0,0.3,0.1,0.5
		c0.1,0.1,0.1,0.3,0.1,0.4c0,0,0,0,0,0.1c0,0,0,0.1,0,0.1c-0.1-0.2-0.2-0.3-0.3-0.3c-0.1,0-0.2-0.2-0.2-0.3c0,0,0,0,0,0
		c0,0,0,0-0.1,0h-0.1c0,0-0.1,0-0.1,0.1s0,0.1,0,0.1c0,0,0,0.1,0,0.1c0,0,0,0.1,0,0.1c-0.1,0-0.2,0-0.2-0.1c0-0.1-0.1-0.1-0.1-0.2
		c0-0.1,0-0.1-0.1-0.2c0,0-0.1,0-0.2,0c0,0.1-0.1,0.2-0.1,0.3c0,0.1,0,0.2-0.1,0.3h-0.1c0,0-0.1-0.1-0.1-0.2
		c-0.1-0.1-0.1-0.1-0.2-0.1h0c0,0,0,0.1,0,0.1s0,0.1,0,0.1c-0.1,0-0.3-0.1-0.4-0.3c-0.1-0.2-0.2-0.3-0.2-0.4c0.1,0,0.1,0,0.2,0
		c0.1,0,0.1-0.1,0.1-0.1c0-0.1,0-0.3-0.1-0.4c-0.1-0.1-0.1-0.2-0.1-0.3c0-0.1,0-0.1,0-0.1c0,0,0-0.1,0-0.1c0-0.1-0.1-0.2-0.2-0.2
		c-0.1,0-0.1,0-0.1,0.1c0,0.1-0.1,0.1-0.1,0.1c0,0,0,0,0,0s0,0,0,0c-0.1-0.2-0.1-0.4-0.2-0.5s-0.1-0.3-0.1-0.5c0-0.2,0-0.4,0-0.5
		c0-0.1,0.1-0.3,0.1-0.6c0,0,0-0.1,0.1-0.1s0.1,0,0.1,0c0,0,0.1,0,0.1,0c0,0,0-0.1,0-0.1h-0.2c0-0.1,0-0.2,0.1-0.3
		c0.1,0,0.1-0.1,0.2-0.1c0.1,0,0.1-0.1,0.2-0.1c0.1,0,0.1-0.1,0.1-0.2v0c0,0,0,0,0,0c0,0,0,0,0,0c0-0.1,0.1-0.2,0.1-0.3
		c0-0.1,0.1-0.2,0.1-0.3c0-0.1,0.1-0.2,0.2-0.3s0.2-0.1,0.3-0.2c0,0,0.1,0,0.1,0c0.1,0,0.1,0,0.1,0c0,0,0.1-0.1,0.1-0.1s0-0.1,0-0.2
		c0-0.1,0.1-0.1,0.1-0.1c0.1,0,0.2-0.1,0.3-0.1c0,0,0,0,0,0c0,0,0,0,0,0c0,0,0,0,0,0l0,0c0,0,0,0,0,0c0,0,0,0,0,0c0,0,0,0,0,0l0,0
		c0.1,0,0.1,0,0.1,0.1c0,0,0.1,0.1,0.2,0.1c0.1,0,0.2-0.1,0.3-0.2c0.1-0.1,0.1-0.2,0.2-0.2l0,0c0,0,0,0,0.1,0c0,0,0.1,0,0.1,0
		s0,0,0.1,0c0,0,0.1,0,0.1,0h0c0,0,0,0,0,0s0,0,0,0l0,0L66,128c0.1,0,0.2-0.1,0.2-0.2c0-0.1,0-0.2-0.1-0.2c-0.1,0-0.1-0.1-0.1-0.3
		c0.1,0,0.2,0,0.2-0.1c0.1,0,0.1-0.1,0.2-0.1c0.1,0,0.3,0,0.4,0.1c0.1,0.1,0.3,0.1,0.4,0.1h0c0-0.1,0-0.2,0-0.2
		c0.1-0.1,0.1-0.1,0.2-0.1s0.2,0,0.3,0c0.1,0,0.2,0,0.2,0c0,0,0.1,0,0.1,0c0,0,0.1,0,0.1,0c0-0.1,0-0.2,0-0.2c0.1,0,0.1,0,0.2,0
		c0.1,0,0.2,0,0.3,0.1c0.1,0.1,0.2,0.1,0.3,0.1c0-0.1,0-0.3,0-0.4c0-0.1,0-0.2,0.1-0.3c0,0,0,0,0.1-0.1c0,0,0.1-0.1,0.1-0.1v-0.1
		c0-0.2,0-0.3,0-0.4s0-0.3,0-0.4v-0.5l0.1-0.1v-0.1l-0.1-0.2v0c0-0.1,0-0.2,0-0.3c0-0.1,0.1-0.2,0.1-0.3c0-0.1,0.1-0.2,0.1-0.3
		c0-0.1,0.1-0.2,0.1-0.3c0,0,0,0,0-0.1c0,0,0-0.1,0-0.1c0,0,0-0.1,0-0.1v-0.1c0-0.3,0.1-0.6,0.2-0.8c0.1-0.2,0.2-0.5,0.3-0.8
		c0.1,0.1,0.2,0.2,0.3,0.2c0-0.1,0.1-0.2,0.1-0.3c0.1-0.1,0.1-0.1,0.3-0.1h0c0.2,0.2,0.3,0.4,0.5,0.6c0.2,0.2,0.3,0.4,0.4,0.7
		l0.1,0.3c0,0,0,0.1,0.1,0.2c0,0.1,0.1,0.2,0.1,0.2c0,0,0,0.1,0,0.1c0,0.1-0.1,0.1-0.1,0.1c-0.1,0-0.2,0.1-0.2,0.2s0.1,0.2,0.1,0.3
		s0.1,0.3,0.2,0.4c0.1,0.2,0.1,0.3,0,0.5c0,0-0.1,0-0.1-0.1c0,0,0-0.1-0.1-0.1c0,0,0-0.1,0-0.1s0,0,0-0.1c0-0.1,0-0.1,0.1-0.1v-0.1
		c0-0.1,0-0.1,0-0.2c0-0.1-0.1-0.1-0.1-0.1c0,0-0.1,0-0.1,0.1c0,0.1-0.1,0.1-0.1,0.2c0,0.1-0.1,0.1-0.1,0.2c0,0.1,0,0.1,0,0.1
		c0,0.1,0,0.1,0.1,0.1s0.2,0,0.2,0l0.1,0.5l-0.2,0.1c0,0,0.1,0.1,0.1,0.1c0,0.1,0.1,0.1,0.1,0.1c0,0,0,0,0,0s0,0,0,0.1
		c0,0,0,0,0,0.1c0,0,0,0,0,0c0,0,0,0-0.1,0l0,0c0,0.1,0,0.2,0,0.3c0,0.1-0.1,0.1-0.1,0.2c0,0.1-0.1,0.1-0.1,0.2c0,0.1,0,0.1,0,0.2
		c-0.1,0-0.2,0-0.2-0.1c-0.1,0-0.1,0-0.1,0.2c0,0.1,0,0.2,0.1,0.2c0,0.1,0.1,0.1,0.2,0.1c0.1,0,0.1,0.1,0.2,0.1
		c0.1,0,0.1,0.1,0.1,0.2c0,0,0,0.1,0,0.1c0,0.1,0,0.1,0.1,0.2c0,0.1,0,0.1,0,0.2c0,0.1,0,0.1,0,0.1c0,0,0,0.1,0.1,0.1
		c0,0,0.1,0,0.1-0.1l0.1,0.2C71.6,128.2,71.5,128.3,71.5,128.4z M62.7,131.8L62.7,131.8L62.7,131.8L62.7,131.8L62.7,131.8z
		 M63,130.3L63,130.3l0.1-0.2H63V130.3z M63.2,134.1L63.2,134.1L63.2,134.1L63.2,134.1z M63.6,129C63.6,129,63.5,129,63.6,129
		C63.5,129,63.5,129,63.6,129C63.5,129.1,63.5,129.1,63.6,129z M63.9,131.6c0,0.1,0.1,0.2,0.2,0.3c0.1,0.1,0.2,0.2,0.3,0.2l0.3,0.4
		c0.1,0.1,0.2,0.1,0.3,0.2c0.2,0,0.3,0.1,0.4,0.1c0,0,0.1,0,0.2,0c0.1,0,0.2,0,0.2,0c0.2,0,0.4,0,0.5,0s0.3-0.1,0.5-0.1
		c0.1,0,0.3-0.1,0.5-0.2c0.2-0.1,0.3-0.2,0.6-0.2c0,0,0.1-0.1,0.2-0.1c0.1-0.1,0.2-0.1,0.3-0.2c0.1-0.1,0.2-0.1,0.3-0.1
		c0.1,0,0.1-0.1,0.2,0l0.6-0.6h0.2v0.4h0.2c0,0,0,0,0,0s0,0,0,0l-0.1-0.2v0c0,0,0-0.1,0.1-0.2c0-0.1,0.1-0.1,0.1-0.1l0,0h0l0.1,0.1
		l0.2,0.2c0.1-0.1,0.2-0.2,0.2-0.3c0-0.1,0-0.1-0.1-0.2s-0.2-0.1-0.2-0.1c0,0,0-0.1,0.1-0.1c0-0.1,0.1-0.1,0.1-0.1v-0.1
		c0,0,0-0.1,0-0.1c0-0.1,0-0.1,0-0.2c0-0.1,0-0.1-0.1-0.2s-0.1-0.1-0.1-0.1c0,0,0,0-0.1,0.1c0,0.1-0.1,0.1-0.1,0.1h-0.2
		c0-0.1,0-0.2-0.1-0.4c0-0.2-0.1-0.2-0.2-0.2c-0.1,0-0.2,0.1-0.2,0.2l-0.2-0.3c0,0,0,0,0,0s0,0,0,0c0.1,0,0.1-0.1,0.1-0.1
		c0,0,0.1,0,0.1-0.1c0,0,0-0.1,0-0.1c0,0,0-0.1,0-0.2c-0.1,0-0.2,0.1-0.3,0.2c0,0.1-0.1,0.2-0.2,0.3c0-0.2-0.1-0.3-0.1-0.3
		c-0.1-0.1-0.1-0.1-0.2-0.2s-0.1-0.1-0.2-0.1c-0.1,0-0.1-0.1-0.1-0.1c0,0.1-0.1,0.2-0.1,0.2c0,0,0,0,0,0.1c0,0,0,0.1,0,0.1v0
		c0,0,0,0,0,0c-0.1,0-0.1,0-0.2,0s-0.2,0-0.2,0h-0.1c0,0,0,0-0.1,0.1c0,0-0.1,0-0.1,0l-0.2-0.2l0,0l0,0l-0.3,0.2
		c-0.2,0-0.4,0.1-0.7,0.1s-0.5,0-0.8,0.1s-0.5,0.1-0.7,0.2c-0.2,0.1-0.4,0.3-0.5,0.5c0,0,0,0.1,0,0.1c0,0.1,0,0.1,0,0.1
		c-0.1,0.1-0.1,0.2-0.3,0.4c-0.1,0.1-0.2,0.2-0.2,0.4c0,0.1,0,0.2,0,0.2c0,0.1,0,0.1,0,0.2c0,0.1,0,0.1,0,0.2
		C63.9,131.4,63.9,131.5,63.9,131.6z M66.9,128.3c0,0.1,0.1,0.2,0.2,0.2C67.1,128.3,67,128.3,66.9,128.3z M67.2,127.9L67.2,127.9
		L67.2,127.9L67.2,127.9L67.2,127.9z M67.3,133.7L67.3,133.7L67.3,133.7L67.3,133.7z M67.4,128.4c0,0,0.1-0.1,0.1-0.1
		c0-0.1,0-0.1,0-0.1h-0.1V128.4z M67.7,133.4C67.7,133.4,67.7,133.4,67.7,133.4C67.7,133.4,67.7,133.4,67.7,133.4
		C67.8,133.4,67.8,133.4,67.7,133.4C67.8,133.4,67.8,133.4,67.7,133.4z M68.3,127.2C68.3,127.2,68.2,127.3,68.3,127.2
		c-0.1,0.1,0,0.2,0,0.2C68.3,127.4,68.4,127.4,68.3,127.2C68.4,127.3,68.3,127.2,68.3,127.2z M68.4,128.1c0.1,0,0.1-0.1,0.1-0.2
		h-0.1V128.1z M68.5,133.2C68.5,133.2,68.5,133.2,68.5,133.2c-0.1,0.1,0,0.2,0,0.2C68.6,133.4,68.6,133.3,68.5,133.2
		C68.6,133.2,68.6,133.2,68.5,133.2z M69.3,131.8L69.3,131.8L69.3,131.8L69.3,131.8z M69.6,126.3c0,0,0,0.1,0,0.1
		c0,0.1,0,0.1,0.1,0.1l0.2-0.2c0-0.1-0.1-0.1-0.1-0.1C69.7,126.3,69.7,126.3,69.6,126.3z M69.8,127.1v-0.2V127.1L69.8,127.1z
		 M69.8,132.2C69.8,132.2,69.8,132.3,69.8,132.2c-0.1,0.1,0,0.2,0,0.2C69.9,132.4,69.9,132.4,69.8,132.2
		C69.9,132.3,69.9,132.2,69.8,132.2z M70.5,124.5c0,0.1,0,0.1,0.1,0.2c0.1,0.1,0.1,0.1,0.2,0.1h0c0,0,0,0,0,0l0-0.1l0-0.1v-0.1
		c0,0,0-0.1,0-0.2c0-0.1,0-0.2,0-0.2c0,0,0,0,0,0s0,0,0,0l0,0L70.5,124.5L70.5,124.5z M70.5,127.1L70.5,127.1L70.5,127.1L70.5,127.1
		z M70.6,121.5C70.6,121.5,70.6,121.5,70.6,121.5C70.6,121.6,70.6,121.6,70.6,121.5C70.7,121.6,70.7,121.6,70.6,121.5z M71.3,132.1
		C71.2,132.1,71.2,132.2,71.3,132.1c-0.1,0.1,0,0.2,0,0.2C71.3,132.3,71.3,132.3,71.3,132.1C71.3,132.2,71.3,132.1,71.3,132.1z
		 M71.4,127.8c-0.1,0-0.1,0.1-0.1,0.1s0,0.1,0,0.1h0.1V127.8z M71.4,128.2C71.3,128.2,71.3,128.2,71.4,128.2c-0.1,0.1,0,0.2,0,0.2
		C71.4,128.4,71.4,128.3,71.4,128.2C71.4,128.2,71.4,128.2,71.4,128.2z M71.6,129.8L71.6,129.8L71.6,129.8L71.6,129.8L71.6,129.8z
		 M71.8,128.1L71.8,128.1C71.8,128.2,71.8,128.2,71.8,128.1L71.8,128.1z M72.7,133.8L72.7,133.8l-0.1-0.1L72.7,133.8z M72.8,134.1
		c0,0.1,0,0.2,0.1,0.2s0.2,0.1,0.3,0.1c0.1,0,0.1,0,0.2,0c0,0,0.1-0.1,0.1-0.2c0-0.1,0-0.1-0.1-0.2c0,0-0.1-0.1-0.2-0.1
		c-0.1,0-0.1,0-0.2-0.1c-0.1,0-0.1-0.1-0.2-0.2c0,0,0,0.1,0,0.2C72.8,133.9,72.8,134,72.8,134.1L72.8,134.1z"/>
	<path class="st0" d="M83.2,134.7c-0.1,0-0.2,0-0.3,0c-0.1,0-0.3-0.1-0.4-0.1s-0.3-0.1-0.4-0.2c-0.1-0.1-0.2-0.1-0.2-0.2v-0.1
		c0-0.2-0.1-0.3-0.2-0.4c-0.1-0.1-0.2-0.2-0.2-0.2c-0.1-0.1-0.2-0.1-0.2-0.2c-0.1-0.1-0.1-0.1-0.2-0.2c0,0,0-0.1,0-0.1
		c0,0,0-0.1,0-0.1c0,0,0-0.1,0-0.1c0,0-0.1,0-0.1,0c0,0,0,0,0,0.1c0,0.1,0,0.1,0,0.1c0,0.1-0.1,0.1-0.1,0.2
		c-0.1,0.1-0.2,0.1-0.2,0.2c-0.1,0.1-0.2,0.1-0.2,0.2c-0.1,0.1-0.1,0.1-0.1,0.2v0.1c0,0,0.1,0,0.1-0.1c0.1,0,0.1,0,0.1,0
		c0,0,0,0,0,0s0,0,0,0.1v0c0,0,0,0,0,0c0,0.1,0,0.1,0,0.1s-0.1,0-0.1,0s-0.1,0-0.1,0s0,0.1,0,0.1c0,0,0,0-0.1,0.1
		c0,0.1-0.1,0.1-0.1,0.1c0,0,0,0-0.1,0s-0.1,0-0.1,0c-0.1-0.1-0.1-0.1-0.1-0.1c0,0-0.1,0-0.2,0c0,0.1-0.1,0.1-0.2,0.2
		c-0.1,0-0.2,0.1-0.3,0.1c-0.1,0-0.2,0.1-0.3,0.1c-0.1,0-0.1,0.1-0.1,0.2h-1c0,0.1,0,0.1-0.1,0.1s-0.1,0-0.1,0
		c-0.3,0-0.6-0.1-0.8-0.2c-0.3-0.1-0.4-0.3-0.4-0.6c0-0.1,0-0.2,0-0.3c0-0.1,0-0.2,0.1-0.3c0,0-0.1,0-0.1-0.1s-0.1,0-0.1,0
		s-0.1,0-0.1,0c-0.1,0-0.1,0-0.1,0.1c0,0,0,0.1,0.1,0.1c0,0.1,0,0.1,0,0.1c0,0,0,0,0,0.1c0,0,0,0,0,0.1c-0.1,0-0.2,0-0.3-0.1
		c-0.1-0.1-0.1-0.2-0.1-0.3c0-0.1,0-0.2,0-0.4c0-0.1,0-0.2,0-0.3c0,0,0,0,0-0.1c0,0-0.1-0.1-0.1-0.2c0-0.1-0.1-0.1-0.1-0.2
		c0,0,0-0.1,0-0.1c0,0,0-0.1,0-0.2s0-0.2-0.1-0.3c0-0.1,0-0.2-0.1-0.3c0-0.1,0-0.1,0-0.2c0,0,0.1,0,0.1-0.1s0.1-0.1,0.1-0.1v0
		c0-0.1,0-0.2,0-0.2c0-0.1,0-0.1,0-0.2c0-0.1,0-0.1,0.1-0.2c0-0.1,0.1-0.1,0.2-0.1h0.1c0,0,0,0,0.1,0.1s0,0.1,0,0.1l0.2-0.1
		c0-0.1-0.1-0.1-0.2-0.1c-0.1,0-0.1,0-0.2-0.1c-0.1,0-0.1,0-0.2-0.1c-0.1,0-0.1-0.1-0.1-0.2c0,0,0-0.1,0.1-0.1s0.1,0,0.1,0
		c0,0,0.1,0,0.1,0c0,0,0.1-0.1,0.1-0.1h0.5v-0.2l-0.4-0.2v-0.1c0-0.2,0-0.4,0.1-0.5c0.1-0.1,0.2-0.2,0.3-0.2c0.1,0,0.2-0.1,0.3-0.1
		s0.2-0.1,0.2-0.1c0,0,0,0-0.1,0c0,0-0.1,0-0.1-0.1l0,0c0-0.1,0-0.2,0.1-0.2c0.1,0,0.1-0.1,0.2-0.1c0.1,0,0.2,0,0.3-0.1
		c0.1,0,0.2,0,0.2-0.1c0,0,0,0,0-0.1c0,0,0-0.1,0-0.1c0,0,0.1-0.1,0.2-0.1c0.1-0.1,0.1-0.1,0.1-0.1v-0.1v-0.1l-0.2-0.2v-0.1v0
		c0,0,0-0.1,0.1-0.1c0,0,0.1-0.1,0.1-0.1l0,0l0,0c0,0,0,0,0.1,0.1c0,0,0,0,0,0.1H78c0,0,0,0.1,0,0.1s0,0.1,0.1,0.1
		c0.2,0,0.3,0,0.4-0.1c0.1-0.1,0.2-0.2,0.2-0.2c0.1-0.1,0.2-0.2,0.3-0.2c0.1-0.1,0.2-0.1,0.4-0.1c0,0,0.1,0,0.2,0.1
		c0.1,0.1,0.3,0.2,0.4,0.3c0.2,0.1,0.3,0.2,0.4,0.3c0.1,0.1,0.2,0.2,0.3,0.2c0.1,0,0.1,0.1,0.2,0.2c0,0.1,0.1,0.2,0.1,0.3
		c0,0.1,0.1,0.2,0.1,0.3c0,0.1,0,0.2,0,0.2c0.1,0,0.1,0,0.2,0.1c0,0.1,0.1,0.1,0.1,0.2c0,0.1,0.1,0.1,0.1,0.2c0,0,0.1,0.1,0.2,0.1
		c0,0,0,0.1,0,0.2c0,0.1,0,0.1,0.1,0.2s0.1,0.2,0.1,0.2c0,0.1,0,0.1,0,0.2v0.1v0.1l0,0c0,0,0,0,0.1,0v0.1c0,0,0,0,0,0.1
		c-0.1,0-0.2,0-0.3-0.1c-0.1,0-0.2-0.1-0.3-0.1c0,0,0,0.1,0,0.2s0.1,0.2,0.1,0.2h0.7c0,0,0,0,0,0.1s0,0.1-0.1,0.2
		c0,0.1-0.1,0.1-0.1,0.2c0,0.1,0,0.1,0,0.1l0.2,0.6c0,0.1,0.1,0.1,0.2,0.1c0.1,0,0.1,0,0.1,0.1c0,0,0,0.1-0.1,0.1
		c-0.1,0.1-0.1,0.1-0.1,0.2c0,0.1,0,0.1,0.1,0.1c0,0,0.1,0.1,0.1,0.1c0,0,0.1,0.1,0.1,0.1s0.1,0.1,0,0.1l-0.1,0.4c0,0,0,0.1,0.1,0.1
		c0,0,0.1,0.1,0.2,0.1c0.1,0,0.1,0.1,0.2,0.1c0.1,0,0.1,0.1,0.1,0.1c0,0,0,0,0,0c0,0,0,0,0,0c0,0.1,0,0.2,0.1,0.3
		c0,0.1,0,0.2,0.1,0.2c0,0,0.1,0.1,0.2,0.1c0.1,0,0.3,0.1,0.4,0.2c0.1,0.1,0.3,0.1,0.4,0.2c0.1,0.1,0.2,0.1,0.3,0.2
		c-0.1,0-0.2,0.1-0.2,0.1s0,0.1,0,0.2c0,0.1,0,0.1,0,0.2s0,0.1-0.1,0.2c0,0.1-0.1,0.1-0.3,0.1s-0.4,0.1-0.7,0.1
		c-0.1,0-0.1,0-0.2-0.1s-0.1-0.1-0.1-0.1c0,0,0-0.1-0.1-0.1C83.3,134.8,83.3,134.8,83.2,134.7z M76.5,132.2c0.1,0.1,0.1,0.2,0.2,0.3
		c0.1,0.1,0.1,0.2,0.2,0.3c0.1,0,0.2,0.1,0.3,0.1c0.1,0,0.1,0,0.2,0c0.1,0,0.1,0,0.2,0c0.1,0,0.1,0,0.2,0c0.1,0,0.2,0,0.2,0
		c0,0,0.1,0,0.1-0.1s0.1-0.1,0.1-0.1c0,0,0.1-0.1,0.2-0.1c0,0,0.1,0,0.2,0c0.1,0,0.2,0,0.2,0c0.1-0.1,0.3-0.2,0.4-0.4
		s0.2-0.4,0.2-0.5c0-0.1,0.1-0.1,0.2-0.1c0.1,0,0.1,0,0.2-0.1v0v0c0,0,0,0-0.1-0.1c-0.1,0-0.1-0.1-0.1-0.1c0,0,0-0.1,0.1-0.1
		c0.1-0.1,0.1-0.1,0.1-0.1c0.1-0.3,0.2-0.7,0.2-1.1c0.1-0.4,0.1-0.8,0.1-1.1c0-0.2,0-0.3-0.1-0.4c-0.1-0.1-0.2-0.2-0.3-0.2
		c-0.1,0-0.2-0.1-0.4-0.1s-0.3,0-0.4,0c0,0-0.1,0-0.3,0.1c-0.1,0.1-0.3,0.2-0.4,0.2c-0.1,0.1-0.3,0.2-0.4,0.2
		c-0.1,0.1-0.2,0.1-0.2,0.1c0,0,0,0.1,0,0.2c0,0.1,0,0.1-0.1,0.2c0,0-0.1,0-0.1,0c0,0,0,0-0.1,0c0,0,0,0,0,0l-0.3,0.3c0,0,0,0,0,0v0
		c0,0.1,0,0.1,0.1,0.1s0.1,0.1,0.1,0.2c0,0.1,0,0.2,0,0.2c0,0.1,0,0.1,0,0.2c0,0.1,0,0.1-0.1,0.2c0,0.1-0.1,0.2-0.1,0.3
		c0,0.2-0.1,0.3-0.2,0.3c-0.1,0.1-0.2,0.1-0.3,0.2c-0.1,0-0.2,0.1-0.3,0.1c-0.1,0-0.1,0.1-0.1,0.1c0,0.1,0,0.2,0.1,0.2
		c0.1,0,0.1,0.1,0.2,0.1c0.1,0,0.2,0,0.2,0c0.1,0,0.1,0.1,0.2,0.1c0,0-0.1,0.1-0.2,0.1C76.6,132.2,76.5,132.2,76.5,132.2z
		 M77.5,133.3C77.5,133.3,77.5,133.2,77.5,133.3C77.4,133.2,77.4,133.3,77.5,133.3C77.4,133.3,77.5,133.3,77.5,133.3
		C77.5,133.3,77.5,133.3,77.5,133.3z M77.7,133.1C77.6,133.1,77.6,133.1,77.7,133.1c-0.1,0.1,0,0.2,0,0.2S77.8,133.2,77.7,133.1
		C77.8,133.1,77.7,133.1,77.7,133.1z M77.8,128.5L77.8,128.5L77.8,128.5L77.8,128.5L77.8,128.5z M78.5,133.1c0,0,0.1-0.1,0.1-0.1
		c0.1,0,0.1-0.1,0.1-0.2h-0.2V133.1z M79.4,126.8C79.4,126.8,79.4,126.8,79.4,126.8C79.3,126.8,79.3,126.8,79.4,126.8
		C79.3,126.8,79.3,126.8,79.4,126.8C79.3,126.8,79.4,126.8,79.4,126.8z M79.3,132.9L79.3,132.9L79.3,132.9L79.3,132.9L79.3,132.9z
		 M79.4,133.1C79.3,133.1,79.3,133.1,79.4,133.1c-0.1,0.1,0,0.2,0,0.2C79.4,133.3,79.4,133.2,79.4,133.1
		C79.4,133.1,79.4,133.1,79.4,133.1z M79.5,131.9c0,0.1,0,0.1,0.1,0.1c0.1,0,0.1,0,0.2,0h0.1l-0.1-0.3c0,0-0.1,0-0.2,0.1
		C79.6,131.8,79.5,131.8,79.5,131.9z M79.6,126.9C79.6,126.9,79.6,126.9,79.6,126.9c-0.1,0.1,0,0.2,0,0.2
		C79.7,127,79.7,127,79.6,126.9C79.7,126.9,79.7,126.9,79.6,126.9z M80.6,132.6h0.2v-0.2h-0.2V132.6z"/>
	<path class="st0" d="M104.6,126.2c-0.1,0-0.2,0-0.2,0.1c-0.1,0-0.1,0.1-0.1,0.3h-0.1c0,0,0,0,0-0.1s0,0-0.1,0l0,0
		c-0.2,0-0.3,0.1-0.3,0.3c0,0,0,0,0,0c0,0,0,0,0,0c0-0.1,0.1-0.1,0.2-0.1c0.1,0,0.2,0,0.2,0v0.1c0,0,0,0,0,0.1c0,0.1,0,0.1-0.1,0.1
		v0v0.1c0,0,0.1,0,0.1,0.1c0.1,0.1,0.1,0.1,0.1,0.1v0.1v0c0,0,0,0,0,0c0,0.1,0,0.1-0.1,0.2c0,0.1-0.1,0.1-0.1,0.2l-0.2-0.1
		c0,0,0,0,0,0.1s0,0.1,0,0.1c0,0.1,0,0.1,0,0.2c0,0,0.1,0,0.1,0.1s0.1,0,0.1,0c0,0,0.1,0.1,0.1,0.1c0,0,0,0,0,0.1s0,0-0.1,0
		c-0.2,0.1-0.2,0.3-0.2,0.5c0,0,0,0,0,0.1c0,0,0,0,0.1,0.1v0c0,0,0,0,0,0s0,0,0,0c0,0.1,0,0.2-0.1,0.3c-0.1,0.1-0.1,0.1-0.1,0.2
		c0,0.1,0,0.2,0.1,0.3c0.1,0.1,0.1,0.2,0.1,0.3c0,0,0,0.1,0,0.1s0,0.1,0,0.1c0,0.1,0,0.1,0,0.2c0,0.1,0,0.2-0.1,0.3
		c0,0.1,0,0.2,0,0.2c0,0.1,0,0.1,0,0.1h-0.2v0.7c0.1,0,0.1,0,0.2,0.1c0,0.1,0.1,0.2,0.1,0.3c0,0,0,0,0,0.1c0,0,0,0,0,0.1v0
		c0,0,0-0.1-0.1-0.1c0,0,0-0.1-0.1-0.1c0,0,0,0-0.1,0c0,0.1,0,0.2,0,0.3c0,0.1,0.1,0.1,0.2,0.1c0,0.1,0,0.3,0,0.5c0,0.2,0,0.4,0,0.7
		c0,0.2-0.1,0.4-0.1,0.6c-0.1,0.2-0.2,0.3-0.4,0.3v-0.2h-0.1l-0.2,0.4c-0.1-0.1-0.2-0.2-0.4-0.2s-0.3-0.1-0.4-0.1
		c-0.1,0-0.2,0-0.3,0.1s-0.2,0.1-0.3,0.2c0,0,0-0.1,0-0.2c0-0.1,0-0.2,0-0.2c0,0,0,0-0.1-0.1c0,0-0.1-0.1-0.1-0.1
		c0,0-0.1-0.1-0.2-0.2c0,0-0.1,0-0.1,0.1s-0.1,0.1-0.1,0.1c0,0,0,0-0.1-0.1c0,0-0.1-0.1-0.1-0.1l0.1-0.1v-0.5H101v-0.2
		c-0.1,0-0.2,0-0.2,0s-0.1,0-0.1,0c0,0-0.1,0-0.1,0s0-0.1,0-0.1s0-0.1,0-0.1s0,0-0.1,0c-0.1,0-0.1,0.1-0.1,0.2s0,0.2,0,0.3
		c0,0,0,0-0.1-0.1c0-0.1,0-0.1,0-0.1v-0.9c0,0,0-0.1-0.1-0.1c0,0-0.1,0-0.2,0c-0.1,0-0.1-0.1-0.2-0.1c-0.1-0.1-0.1-0.2-0.1-0.4h0
		v0.8l-0.1,0.1c-0.1-0.1-0.1-0.2-0.2-0.3c0-0.1-0.1-0.2-0.1-0.3c0-0.1,0-0.1,0.1-0.2c0.1-0.1,0.1-0.2,0.2-0.3
		c0.1-0.1,0.1-0.2,0.2-0.2c0.1-0.1,0.1-0.1,0.1-0.1l-0.3-0.4v0.6c-0.1,0-0.1,0-0.2,0.1s-0.1,0.1-0.1,0.2l-0.1-0.2v-0.8
		c0-0.1,0-0.1-0.1-0.1c-0.1,0-0.1,0-0.1,0c-0.1,0-0.2,0-0.3,0.1c-0.1,0-0.1,0.2,0,0.4l-0.3-0.1v0c0-0.1,0.1-0.2,0.2-0.3
		c0.1-0.1,0.2-0.2,0.2-0.3c0,0-0.1-0.1-0.1-0.1s-0.1-0.1-0.2-0.1c-0.1,0-0.1-0.1-0.2-0.1c-0.1,0-0.1-0.1-0.2-0.1v0.4
		c-0.1-0.1-0.2-0.2-0.3-0.3c-0.1-0.1-0.2-0.2-0.3-0.3l-0.1,0.2c0,0,0,0-0.1,0c0,0-0.1,0-0.1,0l-0.4,1.1v0.1c0,0.1,0,0.2,0,0.2
		c0,0.1,0,0.1,0,0.2c0,0.1,0,0.1,0,0.2s-0.1,0.1-0.2,0.2c0,0.3,0.1,0.7,0.1,1c0.1,0.3,0.1,0.7,0.1,1c0,0.3,0,0.5-0.1,0.7
		c0,0.2-0.2,0.4-0.4,0.5v0v0l0.1-0.2c0,0,0,0,0-0.1s0-0.1,0-0.1c-0.1,0-0.2,0-0.2,0c0,0-0.1,0-0.1,0c0,0,0,0,0,0c0,0,0,0,0,0
		c0,0.2,0,0.4-0.1,0.5c0,0.2-0.2,0.3-0.4,0.3h-0.1c0-0.1-0.1-0.3-0.2-0.4c-0.1-0.1-0.1-0.2-0.2-0.3c0-0.1-0.1-0.2-0.1-0.3
		c0-0.1,0-0.2,0-0.4c0-0.2,0-0.3,0.1-0.4c0-0.1,0.1-0.2,0.1-0.3c0-0.2,0-0.5-0.1-0.7c-0.1-0.3-0.1-0.5-0.1-0.8c0-0.1,0-0.2,0.1-0.3
		c0-0.1,0.1-0.2,0.1-0.3s0-0.3,0-0.5s0-0.4-0.1-0.7c0-0.2-0.1-0.4-0.1-0.6s-0.1-0.3-0.1-0.4h0.1c0-0.1,0-0.2-0.1-0.3
		c0-0.1-0.1-0.2-0.1-0.3c0-0.1,0-0.1,0.1-0.1s0.1,0,0.1-0.1c0-0.1,0-0.2-0.1-0.2c-0.1,0-0.1-0.1-0.1-0.3c0-0.1,0-0.2,0.1-0.3
		s0.1-0.2,0.1-0.3c0-0.1,0-0.1-0.1-0.2c-0.1,0-0.1-0.1-0.2-0.2c0-0.2,0-0.4-0.1-0.6c-0.1-0.2-0.1-0.3-0.1-0.5c0-0.1,0-0.1,0-0.1
		s0.1,0,0.1,0s0.1,0,0.1,0c0,0,0-0.1,0-0.1v-0.1c0,0,0,0,0-0.1c0,0,0-0.1,0-0.1c0,0,0-0.1,0.1-0.1c0-0.1,0.1-0.2,0.1-0.3
		s0.1-0.2,0.1-0.2c0-0.1,0.1-0.1,0.1-0.1c0.1,0,0.1,0.1,0.1,0.2s0.1,0.1,0.2,0.1c0.1,0,0.3,0,0.4-0.1c0.1-0.1,0.2-0.1,0.3-0.1h0.2
		c0,0-0.1,0-0.1,0.1c0,0.1,0,0.2,0,0.2c0,0,0.1,0.1,0.1,0.1c0,0,0.1,0.1,0.1,0.1s0,0.1,0,0.1c0,0.1,0,0.1-0.1,0.2c0,0,0,0.1,0.1,0.1
		l0.1,0l0.1,0c0,0,0,0,0.1,0c0,0,0,0,0,0.1l0.1,0.3c0,0.1,0.1,0.1,0.1,0.1s0.1,0,0.2,0.1c0.1,0.1,0.1,0.2,0.2,0.3
		c0.1,0.1,0.1,0.4,0.1,0.7c0,0,0.1,0,0.1-0.1c0,0,0-0.1,0-0.1c0-0.1,0-0.1,0-0.2s0-0.1,0.1-0.1c0,0,0.1,0,0.1,0.1
		c0,0.1,0.1,0.2,0.1,0.2c0,0.1,0.1,0.2,0.1,0.3c0,0.1,0,0.2,0,0.2c0,0,0.1,0,0.2,0c0.1,0,0.2,0,0.2,0.1c0.1,0,0.1,0.1,0.2,0.1
		c0.1,0.1,0.1,0.1,0.1,0.2l0,0l0,0c0,0,0,0,0,0v0.1c0.2,0,0.3,0,0.3,0c0.1,0,0.1,0.1,0.1,0.1c0,0.1,0,0.1,0,0.2c0,0.1,0,0.2,0.1,0.3
		c0.1,0,0.2,0,0.4,0.1c0.1,0.1,0.3,0.3,0.4,0.5s0.2,0.4,0.3,0.6c0.1,0.2,0.1,0.3,0,0.4l0.2-0.2c0.1,0.1,0.1,0.1,0.2,0.2
		c0.1,0.1,0.1,0.2,0.2,0.3s0.1,0.2,0.2,0.3c0,0.1,0.1,0.2,0.1,0.3c0.1,0,0.2,0,0.3,0c0.1,0,0.1,0.1,0.2,0.2c0.1,0.1,0.1,0.1,0.2,0.2
		c0.1,0.1,0.1,0.1,0.2,0.1v0v0c0,0,0-0.1,0-0.1c0-0.1,0-0.1,0-0.2c0-0.1,0-0.1,0-0.2h-0.1c0,0,0-0.1,0-0.1c0-0.1,0.1-0.1,0.1-0.2
		c0-0.1,0.1-0.1,0.1-0.2s0.1-0.1,0.1-0.1V130c0,0,0,0,0-0.1c0,0,0-0.1,0-0.1s0-0.1,0-0.2s0-0.1,0-0.2v-0.2c0-0.2,0-0.4,0-0.6
		s0-0.4,0-0.6v-0.1c0,0,0-0.1,0-0.2c0-0.1,0-0.2,0-0.2c0,0,0-0.1,0.1-0.1c0,0,0.1,0,0.1,0c0,0,0.1,0,0.1,0c0,0,0-0.1,0.1-0.2
		c0-0.1,0-0.2,0-0.3c0-0.1,0-0.2,0-0.3c0-0.1,0-0.2,0-0.2v0c-0.1-0.1-0.1-0.2-0.2-0.2c-0.1-0.1-0.1-0.2-0.1-0.3c0,0,0-0.1,0-0.1
		c0,0,0.1,0,0.1-0.1s0.1,0,0.1-0.1c0,0,0-0.1,0-0.2h0.2c0-0.2,0-0.5,0-0.7c0-0.2,0-0.4,0-0.7v-0.1l0.1-0.2c0.1,0,0.1,0.1,0.1,0.2
		c0,0.1,0,0.2,0,0.2h0.1c0-0.2,0-0.3-0.1-0.5s-0.1-0.3-0.1-0.5c0-0.1,0-0.2,0.1-0.3s0.2-0.1,0.3-0.1c0.1,0,0.2,0,0.2,0.1
		s0,0.1,0.1,0.2s0,0.1,0,0.2c0,0.1,0,0.1,0.1,0.1v0.8c0,0,0,0,0.1,0.1c0.1,0.1,0.1,0.1,0.2,0.1h0c0.1,0,0.2,0,0.2-0.1s0-0.1,0-0.2
		s0-0.1,0-0.2s0-0.1,0.1-0.2l0,0l0,0c0,0,0,0.1,0.1,0.2c0,0.1,0,0.2,0.1,0.3c0,0.1,0.1,0.2,0.1,0.3c0,0.1,0.1,0.1,0.1,0.2l-0.4,0.5
		v0.2c0,0,0.1,0.1,0.2,0.1c0.1,0,0.2,0.1,0.3,0.1L104.6,126.2z M95,130.1C95,130.1,95,130.1,95,130.1C95,130.2,95,130.2,95,130.1
		C95.1,130.1,95.1,130.1,95,130.1z M95.1,134.8C95.1,134.8,95.1,134.8,95.1,134.8C95.1,134.8,95.1,134.9,95.1,134.8
		C95.1,134.8,95.1,134.8,95.1,134.8z M95.2,125.5C95.2,125.5,95.2,125.5,95.2,125.5C95.2,125.6,95.2,125.6,95.2,125.5
		C95.3,125.6,95.3,125.5,95.2,125.5C95.3,125.5,95.3,125.5,95.2,125.5z M96.4,134C96.3,134,96.3,134,96.4,134
		c-0.1,0.1-0.1,0.2,0,0.2C96.4,134.2,96.4,134.1,96.4,134C96.4,134,96.4,134,96.4,134z M96.4,131.1c0.1,0,0.1-0.1,0.1-0.2h-0.1
		V131.1z M96.6,129.9C96.6,129.9,96.6,129.9,96.6,129.9C96.6,129.9,96.5,129.9,96.6,129.9C96.5,130,96.6,130,96.6,129.9
		C96.6,130,96.6,130,96.6,129.9z M96.6,130.5h0.1v-0.2h-0.1V130.5z M96.7,129.1L96.7,129.1l0.1-0.1L96.7,129.1z M96.7,129.5
		c0,0,0,0.1,0,0.1s0,0.1,0.1,0.1v-0.4c-0.1,0-0.1,0-0.1,0.1C96.7,129.5,96.7,129.5,96.7,129.5z M97.4,129.4c0,0.1,0,0.2,0,0.3
		s0.1,0.2,0.2,0.2c0,0,0.1,0,0.1-0.1c0-0.1,0-0.2-0.1-0.3s-0.1-0.2-0.2-0.3c0,0-0.1,0.1-0.1,0.1S97.4,129.3,97.4,129.4z M97.6,128.6
		C97.6,128.5,97.6,128.6,97.6,128.6C97.6,128.6,97.6,128.6,97.6,128.6C97.6,128.6,97.6,128.6,97.6,128.6
		C97.6,128.6,97.6,128.6,97.6,128.6z M97.6,128L97.6,128l0.1-0.2c0,0,0,0,0,0S97.6,128,97.6,128L97.6,128L97.6,128z M98.2,129.9
		L98.2,129.9L98.2,129.9L98.2,129.9z M98.6,130C98.6,130,98.6,130,98.6,130c0,0.1,0,0.1,0,0.1C98.6,130.1,98.6,130.1,98.6,130
		C98.6,130,98.6,130,98.6,130z M99.6,130.7C99.5,130.7,99.5,130.7,99.6,130.7c-0.1,0.1-0.1,0.2,0,0.2
		C99.6,130.9,99.6,130.8,99.6,130.7C99.6,130.7,99.6,130.7,99.6,130.7z M99.6,130.4C99.6,130.4,99.5,130.4,99.6,130.4
		C99.5,130.5,99.6,130.5,99.6,130.4C99.6,130.5,99.6,130.4,99.6,130.4z M99.8,130.9C99.7,130.9,99.7,131,99.8,130.9
		c-0.1,0.1-0.1,0.2,0,0.2C99.8,131.1,99.9,131.1,99.8,130.9C99.9,131,99.8,130.9,99.8,130.9z M100.5,131.5c0,0-0.1,0-0.2,0.1
		c-0.1,0.1-0.1,0.1-0.1,0.2h0.3V131.5z M101.7,134.2L101.7,134.2l0.1-0.2h-0.1V134.2z M102.1,134.4L102.1,134.4l0.2-0.1L102.1,134.4
		L102.1,134.4z M102.2,129.5C102.1,129.5,102.1,129.5,102.2,129.5c0,0.1,0,0.1,0,0.1C102.2,129.7,102.2,129.6,102.2,129.5
		C102.2,129.5,102.2,129.5,102.2,129.5z M102.5,126.9C102.4,126.9,102.4,126.9,102.5,126.9c-0.1,0.1,0,0.2,0,0.2
		C102.5,127,102.5,127,102.5,126.9C102.5,126.9,102.5,126.9,102.5,126.9z M102.5,132.3C102.4,132.3,102.4,132.3,102.5,132.3
		c-0.1,0.1,0,0.2,0,0.2C102.5,132.5,102.5,132.5,102.5,132.3C102.5,132.3,102.5,132.3,102.5,132.3z M102.5,134.1
		c0,0.2,0,0.3,0.1,0.3c0,0,0.1,0.1,0.3,0.1c0-0.1,0-0.2-0.1-0.2C102.7,134.1,102.6,134.1,102.5,134.1z M102.6,130.7
		C102.6,130.7,102.5,130.7,102.6,130.7c-0.1,0.1,0,0.2,0,0.2C102.7,130.9,102.7,130.8,102.6,130.7
		C102.7,130.7,102.7,130.7,102.6,130.7z M102.7,129.3C102.7,129.3,102.6,129.4,102.7,129.3c-0.1,0.1,0,0.2,0,0.2
		C102.7,129.5,102.7,129.5,102.7,129.3C102.7,129.4,102.7,129.3,102.7,129.3z M103.1,134.4C103,134.4,103,134.5,103.1,134.4
		c-0.1,0.2,0,0.2,0,0.2C103.1,134.6,103.1,134.6,103.1,134.4C103.1,134.5,103.1,134.4,103.1,134.4z M103.1,128.2
		C103.1,128.2,103,128.2,103.1,128.2C103,128.3,103.1,128.3,103.1,128.2C103.1,128.3,103.1,128.3,103.1,128.2
		C103.1,128.2,103.1,128.2,103.1,128.2z M103.1,123.8C103.1,123.8,103.1,123.8,103.1,123.8c0,0.1,0,0.2,0,0.2
		C103.2,124,103.2,123.9,103.1,123.8C103.2,123.8,103.2,123.8,103.1,123.8z M103.2,128.8h0.1H103.2L103.2,128.8z M103.3,129.2
		C103.3,129.2,103.3,129.2,103.3,129.2c0,0.1,0,0.2,0,0.2C103.3,129.3,103.3,129.3,103.3,129.2C103.3,129.2,103.3,129.2,103.3,129.2
		z M103.3,129.5l0.1-0.1h-0.1V129.5z M103.5,127.2c0,0,0,0,0,0.1s0,0.1,0,0.1c0,0,0.1,0,0.1-0.1S103.6,127.2,103.5,127.2z
		 M103.9,128.3C103.9,128.3,103.9,128.3,103.9,128.3c0,0.1,0,0.1,0,0.1C103.9,128.5,103.9,128.4,103.9,128.3
		C103.9,128.3,103.9,128.3,103.9,128.3z M104,127.4C104,127.4,104,127.4,104,127.4C103.9,127.4,103.9,127.4,104,127.4
		C103.9,127.4,103.9,127.4,104,127.4C104,127.4,104,127.4,104,127.4z M104,130.1C103.9,130.1,103.9,130.1,104,130.1
		c0,0.1,0,0.2,0,0.2C104,130.2,104,130.2,104,130.1C104,130.1,104,130.1,104,130.1z M104,125.3c0.1-0.1,0.2-0.2,0.2-0.4H104V125.3z
		 M104,127h0.1H104L104,127z"/>
	<path class="st0" d="M109.5,134.6c0,0-0.1,0-0.1,0c-0.1,0-0.1,0-0.1,0c0,0,0,0,0,0.1c0,0,0,0-0.1,0h-0.4l-0.1,0.2
		c0-0.2-0.1-0.3-0.3-0.4c-0.2,0-0.3-0.1-0.5-0.1c0,0-0.1,0-0.1,0c0,0-0.1,0-0.1,0.1V134l0,0c0,0,0,0,0-0.1c0,0-0.1,0-0.1,0
		c-0.1,0-0.1-0.1-0.2-0.1c-0.1,0-0.1-0.1-0.2-0.1c-0.1,0-0.1-0.1-0.1-0.1c-0.1,0-0.1-0.1-0.1-0.2c0-0.1,0-0.2-0.1-0.2
		c-0.1,0-0.1,0-0.1,0.1c0,0,0,0.1,0,0.2c0,0.1,0,0.1,0,0.2s0,0.1-0.1,0.1c0,0-0.1,0-0.2-0.1c-0.1,0-0.2-0.1-0.2-0.1v0
		c0,0,0.1-0.1,0.1-0.1c0,0-0.1-0.1-0.1-0.1c-0.1,0-0.1-0.1-0.1-0.1c-0.1,0-0.1,0-0.1,0.1s0,0.1,0,0.1c0,0,0,0.1,0,0.1s0,0.1-0.1,0.1
		c0,0-0.1,0-0.2,0c-0.1,0-0.1-0.1-0.1-0.1c0.1,0,0.1,0,0.1-0.1c0-0.1,0-0.1,0-0.1c0-0.2,0-0.3-0.1-0.4c-0.1-0.1-0.2-0.2-0.3-0.3
		c0,0,0,0,0,0c0,0,0,0,0-0.1c0.1,0,0.2-0.1,0.3-0.2s0.1-0.2,0.1-0.3c0,0,0-0.1,0-0.2c0-0.1,0-0.2,0-0.3c0-0.1,0-0.2,0-0.3
		c0-0.1,0-0.2,0-0.2c0-0.1,0-0.2,0.1-0.3c0.1-0.1,0.1-0.2,0.1-0.3c0,0,0,0,0,0s0,0,0,0v0c0,0,0,0-0.1-0.1c0-0.1-0.1-0.1-0.1-0.1l0,0
		v0l0,0c0-0.1,0.1-0.2,0.1-0.4c0-0.1,0.1-0.3,0.2-0.4c0,0,0,0,0,0c0,0,0,0,0,0s0,0,0,0c0.2-0.1,0.3-0.2,0.3-0.3
		c0.1-0.1,0.1-0.3,0.2-0.4c0,0,0,0.1,0.1,0.1c0,0,0.1,0,0.1,0h0.1l-0.2-0.4l0.8-0.2c0-0.2,0-0.3,0.1-0.4c0.1-0.1,0.2-0.1,0.3-0.1
		c0.1,0,0.2,0,0.3-0.1c0.1,0,0.2-0.1,0.3-0.2h0.7v-0.2l-0.1,0c0,0,0,0-0.1,0c0,0-0.1,0-0.1-0.1l0.1-0.1h0.8l0.1-0.2
		c0,0.2,0,0.3,0,0.4c0,0.1,0.1,0.2,0.1,0.3c0,0.1,0.1,0.2,0.1,0.3c0,0.1,0,0.2,0,0.4v0.1l-0.5,0.5l0,0c-0.1,0-0.1,0-0.1-0.1
		c0-0.1,0-0.1-0.1-0.1c-0.1,0-0.2,0-0.2,0.1c0,0.1,0,0.2,0,0.3c-0.1,0-0.1,0-0.2,0c0,0-0.1,0.1-0.1,0.1c0,0-0.1,0.1-0.1,0.2
		s-0.1,0.1-0.2,0.2l-0.2,0.1c0,0,0,0.1-0.1,0.2c-0.1,0.1-0.1,0.2-0.1,0.2c0,0.1-0.1,0.1-0.1,0.1c-0.1,0-0.1,0-0.2,0
		c-0.1,0-0.1,0-0.1,0s-0.1,0.1-0.1,0.1c0,0.1,0,0.1,0,0.2c0,0.1,0,0.2,0,0.2c0,0.2,0,0.3-0.1,0.4c-0.1,0.1-0.1,0.1-0.2,0.2v0.1
		c0,0.2,0,0.3,0,0.4c0,0.1,0.1,0.1,0.1,0.2c0,0,0.1,0.1,0.2,0.1c0.1,0,0.1,0.1,0.2,0.2c0,0.1,0.1,0.2,0.1,0.4c0,0.2,0.1,0.2,0.2,0.3
		c0.2,0.1,0.4,0.1,0.6,0.2c0.2,0.1,0.4,0.1,0.6,0.2c0.3,0.1,0.6,0.1,1,0.1s0.7,0,1,0c0.2,0,0.3,0,0.4,0c0.1,0,0.2-0.1,0.2-0.1
		c0.1-0.1,0.1-0.1,0.2-0.2c0-0.1,0.1-0.2,0.2-0.3c0.1,0.1,0.1,0.2,0.1,0.2s0.1,0,0.2,0c0-0.1,0-0.1,0-0.2c0-0.1,0-0.2,0.1-0.3
		c0-0.1,0.1-0.2,0.1-0.3c0.1-0.1,0.2-0.1,0.3-0.1c0,0.1,0,0.2,0.1,0.2s0.1,0,0.2,0c0-0.2,0-0.2,0-0.3c0,0,0-0.1-0.1-0.3h0
		c0.1,0,0.2,0,0.3,0.1c0.1,0.1,0.1,0.1,0.1,0.2c0,0.1,0.1,0.1,0.1,0.2s0.1,0.1,0.1,0.1l0,0c0-0.1,0-0.2,0.1-0.3c0-0.1,0-0.2,0-0.3
		c0-0.1,0-0.1-0.1-0.2s-0.1-0.1-0.1-0.1c0,0-0.1-0.1-0.1-0.1c0,0-0.1-0.1-0.1-0.2c0,0,0-0.1,0.1-0.2c0.1-0.1,0.1-0.2,0.1-0.3
		c0-0.1,0-0.2-0.1-0.3c-0.1-0.1-0.1-0.2-0.2-0.4c0,0-0.1,0-0.2,0c-0.1-0.1-0.1-0.1-0.2-0.2c-0.1-0.1-0.2-0.2-0.2-0.2
		c-0.1-0.1-0.2-0.1-0.2-0.2c-0.1,0-0.2,0-0.3,0c-0.2,0-0.3,0-0.5-0.1s-0.3-0.1-0.5-0.1c-0.1-0.1-0.2-0.1-0.2-0.2V128
		c0,0,0-0.1-0.1-0.1s-0.1-0.1-0.1-0.1l0,0c0,0,0,0,0,0s0,0,0,0s0,0,0,0.1c0,0,0,0.1,0,0.1c0,0,0,0,0.1,0.1c0,0.1,0.1,0.1,0.1,0.1
		c0,0,0,0-0.1,0.1c0,0.1-0.1,0.1-0.1,0.1l-0.1,0.1c0,0,0-0.1,0-0.1c0-0.1,0-0.1-0.1-0.1c0,0,0,0.1,0,0.2c0,0.1-0.1,0.1-0.1,0.2
		c-0.1,0-0.1-0.1-0.2-0.3s-0.1-0.3-0.1-0.5c0-0.2,0-0.3,0-0.5c0-0.1,0-0.2,0-0.3c0.2,0,0.3,0,0.3-0.1c0,0,0.1-0.2,0.2-0.3
		c0,0,0.1,0.1,0.1,0.1c0,0.1,0,0.2,0,0.2c0,0.1,0,0.1,0,0.2c0,0,0,0.1,0,0.1c0,0,0.1,0.1,0.1,0.1c0.1,0,0.1-0.1,0.2-0.2
		c0-0.1,0.1-0.1,0.1-0.2c0,0.1,0.1,0.1,0.1,0.1c0,0,0,0.1,0,0.1s0,0.1,0,0.1c0,0,0,0.1,0,0.1c0.1,0,0.2,0,0.2,0c0,0,0.1,0,0.3,0
		c0-0.1,0-0.2,0-0.3c0-0.1-0.1-0.1-0.2-0.1v0c0,0,0.1,0,0.1,0c0,0,0.1,0,0.1,0s0.1,0,0.1,0h0.1h0c0,0,0,0.1,0.1,0.2
		c0,0.1,0.1,0.2,0.2,0.2c0.1,0,0.1,0,0.1-0.1c0-0.1,0-0.1,0.1-0.2l0.1,0c0.1,0,0.2,0,0.2,0.1c0.1,0.1,0.1,0.2,0.1,0.2l0.2-0.2
		c0.1,0.1,0.2,0.1,0.2,0.3c0,0.1,0.1,0.2,0.2,0.2c0.1,0,0.2,0.1,0.3,0.1s0.3,0.1,0.4,0.2c0.1,0.1,0.3,0.2,0.4,0.3
		c0.1,0.1,0.2,0.2,0.2,0.3v1.3h0.1l0.5-0.5c-0.1,0-0.1-0.1-0.2-0.3c-0.1-0.1-0.1-0.2-0.1-0.3V129c0,0,0,0,0-0.1c0,0,0-0.1,0-0.1l0,0
		c0,0,0.1,0,0.1,0.1c0,0.1,0.1,0.1,0.1,0.2c0,0.1,0,0.1,0.1,0.2s0,0.1,0,0.1s0,0,0,0h0c0.1,0,0.1,0,0.1-0.1c0-0.1,0-0.1,0-0.2h0.2
		c0,0.2,0.1,0.4,0.2,0.6c0.1,0.2,0.1,0.3,0.1,0.6c0,0.1,0,0.2,0,0.3c0,0.1,0,0.1-0.1,0.2c0,0.1-0.1,0.1-0.1,0.2
		c0,0.1-0.1,0.2-0.2,0.3c0,0.1,0.1,0.1,0.2,0.1c0.1,0,0.1,0.1,0.1,0.1s0,0.1-0.1,0.1c-0.1,0-0.2,0-0.2,0c-0.1,0-0.2,0.1-0.2,0.1
		c-0.1,0.1-0.1,0.2-0.1,0.3c0,0,0,0.1,0,0.1c0,0,0.1,0,0.1,0s0.1,0,0.1,0c0,0,0,0,0,0.1c0,0,0,0,0,0c-0.1,0-0.2,0.1-0.3,0.1
		c-0.1,0-0.1,0-0.1,0c0,0-0.1,0-0.1,0s-0.1,0-0.2,0c0,0,0,0.1,0,0.3s0,0.2,0,0.3c0,0,0,0,0,0.1c0,0,0,0.1,0,0.1c0,0,0,0,0,0.1
		c0,0.1,0,0.1,0,0.1c0-0.1,0-0.1-0.1-0.2c0-0.1-0.1-0.2-0.2-0.2c-0.1,0-0.1,0-0.1,0s0,0.1,0,0.1c0,0.1,0,0.2,0.1,0.2
		s0.1,0.1,0.1,0.2c0,0.1,0,0.1-0.1,0.2c0,0-0.1,0.1-0.2,0.1c-0.1,0-0.1,0.1-0.2,0.1c-0.1,0-0.1,0.1-0.1,0.2l-0.2-0.3v0.5
		c0,0,0,0-0.1,0c0,0-0.1,0-0.1,0h-0.1v-0.5H113c0,0,0,0.1-0.1,0.2s-0.1,0.2-0.1,0.3c-0.1,0.1-0.1,0.2-0.2,0.2
		c-0.1,0.1-0.1,0.1-0.2,0.1c-0.1,0-0.1,0-0.2-0.1c0-0.1-0.1-0.1-0.1-0.2h0c-0.1,0-0.2,0-0.2,0.1c0,0-0.1,0.1-0.1,0.1
		s-0.1,0.1-0.1,0.2c0,0.1-0.1,0.1-0.1,0.1h0c-0.1,0-0.1,0-0.1-0.1c0-0.1,0-0.2,0-0.3c0-0.1,0-0.2-0.1-0.3c0-0.1-0.1-0.1-0.2-0.1
		c0,0,0,0.1,0,0.2c0,0.1,0,0.2,0,0.3c0,0.1,0,0.2,0,0.3c0,0.1,0,0.2-0.1,0.2c0,0-0.1,0-0.1-0.1c0,0,0-0.1,0-0.1c0-0.1,0-0.1,0-0.1v0
		v0c0-0.1-0.1-0.2-0.1-0.3c0-0.1-0.1-0.2-0.1-0.2h-0.1c0,0-0.1,0.1-0.2,0.2c-0.1,0.1-0.2,0.2-0.3,0.3c0,0.1-0.1,0.1-0.1,0.2
		c-0.1,0.1-0.1,0.2-0.1,0.2c-0.1,0-0.1,0-0.1-0.1c0-0.1,0-0.1-0.1-0.2c0-0.1-0.1-0.1-0.1-0.2C109.8,134.6,109.7,134.6,109.5,134.6z
		 M105.7,129.7C105.7,129.7,105.7,129.7,105.7,129.7C105.7,129.8,105.7,129.8,105.7,129.7C105.7,129.8,105.7,129.7,105.7,129.7
		C105.7,129.7,105.7,129.7,105.7,129.7z M106.3,129.5L106.3,129.5c0.2-0.1,0.2-0.2,0.3-0.4c0.1-0.1,0.1-0.3,0.1-0.4
		c0,0-0.1,0-0.1,0.1c-0.1,0.1-0.1,0.1-0.2,0.2c-0.1,0.1-0.2,0.2-0.3,0.3C106.1,129.5,106.2,129.5,106.3,129.5z M107.7,133.7
		L107.7,133.7L107.7,133.7L107.7,133.7z M108.2,127.6L108.2,127.6l0.1-0.3h-0.1V127.6z M108.5,127.6h0.1c0,0,0-0.1,0-0.1
		s0-0.1-0.1-0.1h0V127.6z M108.9,134.2L108.9,134.2v-0.1l0,0c0,0,0,0,0,0s0,0,0,0h0L108.9,134.2z M109.7,133.9c-0.1,0-0.2,0-0.2,0.1
		c0,0.1,0,0.2,0,0.3v0.1c0.1,0,0.2-0.1,0.2-0.2C109.7,134.1,109.7,134,109.7,133.9z M110.1,127.6L110.1,127.6L110.1,127.6
		L110.1,127.6z M110.1,127.8C110.1,127.8,110.2,127.8,110.1,127.8c0.1,0.1,0.1,0.1,0.1,0.2v-0.2L110.1,127.8L110.1,127.8z
		 M110.3,128.3h0.1c0,0,0-0.1,0-0.1s-0.1-0.1-0.1-0.1V128.3z M110.3,134.2C110.3,134.3,110.3,134.3,110.3,134.2
		c0.1,0.1,0.1,0.1,0.1,0.1h0.1c0.2,0,0.3-0.1,0.4-0.2c0.1-0.1,0.1-0.3,0.1-0.4c-0.1,0-0.3,0-0.4,0.1
		C110.4,133.9,110.3,134,110.3,134.2L110.3,134.2z M111.7,134.5C111.7,134.5,111.7,134.6,111.7,134.5c-0.1,0.1,0,0.2,0,0.2
		C111.8,134.7,111.8,134.7,111.7,134.5C111.8,134.6,111.8,134.5,111.7,134.5z M113.7,130C113.6,130,113.6,130,113.7,130
		c-0.1,0.1,0,0.2,0,0.2C113.7,130.2,113.8,130.1,113.7,130C113.8,130,113.7,130,113.7,130z M113.8,130.2
		C113.7,130.2,113.7,130.2,113.8,130.2c-0.1,0.1,0,0.2,0,0.2C113.8,130.3,113.8,130.3,113.8,130.2
		C113.8,130.2,113.8,130.2,113.8,130.2z M113.8,130.3c0,0,0,0,0,0.1c0,0.1,0,0.1,0,0.1l0,0.1c0.1,0,0.1,0,0.1-0.1
		C113.9,130.5,113.9,130.4,113.8,130.3C113.9,130.3,113.9,130.3,113.8,130.3z M113.8,130.9L113.8,130.9L113.8,130.9L113.8,130.9z
		 M113.8,129.6L113.8,129.6L113.8,129.6L113.8,129.6L113.8,129.6z M113.9,132.8h0.2c0-0.1-0.1-0.1-0.1-0.1c0,0-0.1,0-0.1,0
		C114,132.7,114,132.7,113.9,132.8C114,132.7,114,132.7,113.9,132.8L113.9,132.8L113.9,132.8z M114.1,128.7
		C114,128.7,114,128.8,114.1,128.7c-0.1,0.1,0,0.1,0,0.1C114.1,128.9,114.2,128.9,114.1,128.7C114.2,128.8,114.1,128.7,114.1,128.7z
		 M114.1,129C114,129,114,129,114.1,129c-0.1,0.1,0,0.2,0,0.2C114.1,129.1,114.2,129.1,114.1,129C114.2,129,114.1,129,114.1,129z
		 M114.2,129.9L114.2,129.9L114.2,129.9L114.2,129.9L114.2,129.9z M114.2,132.8C114.2,132.8,114.2,132.9,114.2,132.8
		c0,0.1,0,0.1,0,0.1C114.3,133,114.3,132.9,114.2,132.8C114.3,132.9,114.3,132.8,114.2,132.8z M114.3,130.2
		C114.3,130.2,114.3,130.2,114.3,130.2c-0.1,0.1,0,0.2,0,0.2C114.4,130.3,114.4,130.3,114.3,130.2
		C114.4,130.2,114.4,130.2,114.3,130.2z M114.4,131.1C114.4,131.1,114.4,131.2,114.4,131.1C114.4,131.2,114.4,131.2,114.4,131.1
		c0.1,0.1,0.1,0.1,0.1,0.1v0v-0.1C114.5,131.2,114.5,131.2,114.4,131.1C114.4,131.1,114.4,131.1,114.4,131.1L114.4,131.1z
		 M115.1,130.2L115.1,130.2L115.1,130.2L115.1,130.2L115.1,130.2z"/>
	<path class="st0" d="M119.7,134.7c0,0-0.1,0-0.1,0.1c-0.1,0-0.1,0.1-0.1,0.1c-0.1,0-0.2,0-0.4-0.1c-0.1-0.1-0.3-0.2-0.4-0.2
		c-0.1,0-0.1,0-0.1,0c0,0,0,0.1-0.1,0.1c0,0,0,0.1-0.1,0.1s-0.1,0-0.2,0v-0.3c0,0,0,0-0.1,0c0,0-0.1,0-0.1,0c0,0-0.1-0.1-0.1-0.1
		c0-0.1-0.1-0.2-0.1-0.2c0-0.1-0.1-0.2-0.1-0.2c0-0.1-0.1-0.1-0.1-0.1c0,0,0-0.1,0-0.1c0,0,0-0.1,0.1-0.1c-0.1,0-0.2,0-0.3,0
		c-0.1,0-0.2-0.1-0.2-0.1c-0.1-0.3-0.1-0.7-0.2-0.9s-0.1-0.6-0.1-0.9c0-0.2,0-0.4,0-0.6c0-0.2,0-0.4,0.1-0.6c0,0,0-0.1,0.1-0.2
		c0.1-0.1,0.1-0.2,0.1-0.2v-0.1c0-0.1,0-0.2,0-0.3c0-0.1,0-0.2,0-0.4c0-0.1,0-0.1,0-0.3s0-0.2,0-0.4c0-0.1,0-0.2,0.1-0.3
		c0-0.1,0.1-0.2,0.1-0.2v-5c0.1-0.1,0.1-0.2,0.1-0.2c0-0.1,0-0.1-0.1-0.2s-0.1-0.1-0.1-0.2c0-0.1,0.1-0.1,0.2-0.2
		c0.1-0.1,0.2-0.1,0.3-0.1c0.1,0,0.1,0,0.1,0.1c0,0.1,0,0.1,0.1,0.1c0.1,0,0.1-0.1,0.2-0.2c0-0.1,0-0.2,0-0.2c0.1,0,0.2,0,0.3,0.1
		c0.1,0,0.2,0.1,0.2,0.3c0,0.1,0,0.1,0,0.2s-0.1,0.1-0.1,0.2c0,0,0,0,0,0.1s0,0,0.1,0c0,0,0,0,0.1,0c0,0,0.1,0,0.1-0.1v0.1
		c0.1,0,0.2,0,0.2,0c0.1,0,0.1,0,0.1-0.1v-0.1c0,0,0-0.1,0-0.1c0-0.1,0-0.1,0-0.2c0-0.1,0-0.1,0-0.2l-0.2-0.1c0,0,0.1-0.1,0.1-0.1h0
		c0.2,0,0.3,0.1,0.3,0.2c0,0.1,0,0.3,0,0.4c0.1,0,0.2,0,0.2-0.1c0,0,0.1-0.1,0.1-0.1c0,0,0-0.1,0.1-0.1s0.1-0.1,0.1-0.1
		c0,0,0,0,0.1,0.1c0,0.1,0.1,0.2,0.1,0.3s0.1,0.2,0.1,0.3c0,0.1,0.1,0.2,0.1,0.2c0,0.1,0,0.3-0.1,0.4c-0.1,0.2-0.1,0.3-0.1,0.5
		c0,0,0,0.1,0,0.1s0,0-0.1,0s0,0-0.1,0s0,0-0.1,0c0,0-0.1,0.1-0.1,0.2c0,0.1-0.1,0.2-0.1,0.3c0,0.1-0.1,0.2-0.1,0.3
		c0,0.1,0,0.1,0,0.2c0,0,0,0.1,0.1,0.1c0,0.1,0.1,0.1,0.1,0.1v0.1v0c0,0,0,0.1-0.1,0.2c0,0.1,0,0.1,0,0.2c0,0,0,0.1,0.1,0.1
		c0,0,0,0.1,0.1,0.1c0,0-0.1,0.1-0.1,0.2c0,0.1-0.1,0.2-0.1,0.2c0,0,0.1,0.1,0.1,0.1s0.1,0,0.1,0.1c0,0,0.1,0.1,0.1,0.1
		c0,0.1,0.1,0.1,0.1,0.3c0,0.1,0,0.2,0,0.2c0,0.1,0,0.1,0,0.2c0,0.1,0,0.1,0,0.1c0,0,0,0.1,0,0.1c0,0,0.1,0,0.2,0s0.2,0,0.3,0
		c0.1,0,0.2,0,0.3,0c0.1,0,0.1,0,0.2,0h0.1c0.1,0,0.1,0,0.1,0s0-0.1,0-0.2h0.2c0.1,0,0.2,0,0.2,0.1c0,0,0.1,0.1,0.1,0.1h0
		c0,0,0,0,0,0s0,0,0.1-0.1c0-0.1,0.1-0.1,0.1-0.1h0c0.1,0,0.1,0,0.2,0.1c0,0,0.1,0.1,0.1,0.1s0.1,0.1,0.1,0.1c0,0,0.1,0.1,0.2,0.1
		c0.1,0,0.1,0,0.2-0.1c0,0,0-0.1,0.1-0.1s0-0.1,0.1-0.1c0,0,0.1-0.1,0.2-0.1c0,0.2,0,0.3,0,0.4c0,0.1-0.1,0.1-0.1,0.1
		s-0.1,0.1-0.1,0.1c0,0,0,0.1,0,0.2v0.2c0,0,0,0.1,0.1,0.1c0,0.1,0.1,0.1,0.1,0.1c0,0,0,0.1,0,0.1c0,0.1,0,0.1-0.1,0.2
		c0,0.1-0.1,0.1-0.1,0.2c0,0-0.1,0.1-0.1,0c0,0-0.1,0-0.1-0.1c0-0.1-0.1-0.1-0.1-0.1h-0.1h0c0,0,0,0,0,0c0,0,0,0,0,0v0.1v0
		c0,0,0,0.1,0,0.2c0,0.1,0,0.1,0,0.2v0.1v0.1c0,0-0.1,0-0.1,0c-0.1,0-0.1,0-0.1,0h-0.1c-0.1,0-0.1,0-0.2,0.1c0,0.1-0.1,0.1-0.1,0.2
		c0,0.1-0.1,0.1-0.1,0.2c0,0.1-0.1,0.1-0.2,0.1c-0.1,0-0.3,0-0.4-0.1c-0.1-0.1-0.2-0.1-0.4-0.1c0,0-0.1,0-0.1,0c0,0-0.1,0-0.1,0.1
		c0,0,0-0.1,0-0.1c0-0.1,0-0.1,0.1-0.1l0.1-0.1c0-0.1-0.1-0.1-0.1-0.2c-0.1-0.1-0.1-0.1-0.2-0.2c-0.1,0-0.1-0.1-0.1-0.2
		c0-0.1-0.1-0.1-0.1-0.2c0-0.1,0-0.2,0.1-0.3c0-0.1,0.1-0.2,0.2-0.2l0.1,0c0,0,0.1,0,0.1,0l0,0l0,0c0-0.1,0-0.2-0.1-0.3
		c-0.1-0.1-0.2-0.2-0.3-0.2h-0.1c0,0,0.1,0,0.1,0.1c0.1,0,0.1,0.1,0.1,0.1v0c0,0-0.1,0.1-0.2,0.2c-0.1,0.1-0.2,0.2-0.3,0.3
		c0,0.2-0.1,0.3-0.2,0.3c-0.1,0.1-0.1,0.1-0.2,0.2c-0.1,0-0.1,0.1-0.1,0.2c0,0.1-0.1,0.2-0.1,0.3h0c-0.1,0-0.2-0.1-0.3-0.1
		c-0.1,0-0.1,0-0.1,0c0,0,0,0-0.1-0.1s-0.1-0.1-0.1-0.2h0c0,0,0,0,0,0c-0.1,0-0.2,0.1-0.2,0.2c0,0,0,0.1,0.1,0.2
		c0,0.1,0.1,0.1,0.2,0.2c0.1,0.1,0.1,0.1,0.2,0.1c0.1,0,0.1,0,0.2,0c-0.1,0.2-0.2,0.3-0.3,0.3c-0.1,0.1-0.2,0.1-0.3,0.3
		c0,0,0,0.1,0.1,0.1s0.1,0,0.1,0c0,0,0.1,0,0.1,0s0.1,0,0.1,0.1c0,0,0,0,0,0.1s0,0.1,0,0.1c0,0,0.1,0,0.1,0c0.1,0.2,0.1,0.3,0.1,0.4
		s0,0.3,0,0.5h0.2c0,0,0,0.1,0,0.1c0,0.1,0,0.1-0.1,0.1v0.8c-0.1,0-0.1,0-0.2,0.1c0,0,0,0.1,0,0.1s0,0.1,0,0.1s0,0.1,0,0.1
		c0.1,0,0.2,0,0.2-0.1c0.1,0,0.2-0.1,0.2-0.1c0,0.2,0.1,0.3,0.3,0.5s0.3,0.3,0.5,0.3c0,0,0,0,0.1,0s0.1,0,0.1,0c0,0,0.1,0,0.2,0
		c0.1,0,0.2,0,0.3,0c0.1,0,0.2,0,0.3,0c0.1,0,0.2,0,0.2,0c0.1,0,0.2,0,0.3,0c0.1,0,0.1,0,0.1,0.2c0.1,0,0.2,0,0.3,0
		c0.1,0,0.2,0,0.3,0c0,0,0.1,0,0.2,0c0.1,0,0.1,0,0.1,0.1c0,0,0,0,0,0.1l0,0.1c0,0,0,0.1,0,0.2c0,0.1,0,0.2,0,0.2l-0.1,0.1
		c0,0,0,0,0,0s0,0,0,0c0,0-0.1,0-0.2,0.1c-0.1,0-0.2,0.1-0.2,0.1c-0.1,0.1-0.2,0.1-0.2,0.2c0,0-0.1,0.1-0.1,0.1c0,0-0.1,0.1-0.1,0.1
		c-0.1,0-0.2,0-0.3,0c0,0-0.1,0-0.1,0c-0.1,0-0.1,0-0.1,0l-0.1-0.1l-0.2,0.2l0.1,0.1c0,0-0.1,0-0.1,0c-0.1,0-0.1,0-0.1,0h-0.1h0
		c-0.1,0-0.1,0-0.2-0.1c-0.1,0-0.2-0.1-0.2-0.1c-0.1,0-0.2,0-0.2-0.1c-0.1,0-0.1,0-0.1,0c0,0,0-0.1-0.1-0.1
		C119.8,134.8,119.8,134.7,119.7,134.7L119.7,134.7L119.7,134.7z M117.5,131.5h0.1v-0.2L117.5,131.5z M117.6,123.5
		c0,0.1,0.1,0.1,0.2,0.1c0.1,0,0.1,0,0.2,0s0.1,0,0.2,0v-0.3c-0.1,0-0.2,0-0.3,0.1C117.8,123.4,117.7,123.5,117.6,123.5z
		 M117.8,131.4c0,0.1,0,0.1,0,0.1s0,0.1,0,0.1c0.1,0,0.2,0,0.2-0.1c0-0.1,0-0.1,0-0.2s0-0.1,0-0.2c0-0.1-0.1-0.2-0.1-0.2
		c-0.1,0-0.1,0-0.1,0.1C117.8,131.3,117.8,131.3,117.8,131.4z M118.2,122.5c-0.1,0-0.2,0-0.3,0.1c-0.1,0.1-0.1,0.2-0.1,0.3
		c0.2,0,0.3,0,0.3-0.1C118.2,122.8,118.2,122.7,118.2,122.5z M118.2,123.9c-0.1,0-0.1,0.1-0.1,0.1s0,0.1,0,0.1l0,0.1L118.2,123.9
		L118.2,123.9z M118.1,127.2c0,0.1,0,0.2,0.1,0.2c0.1,0.1,0.1,0.1,0.2,0.1c0-0.1,0-0.1-0.1-0.2C118.2,127.2,118.2,127.2,118.1,127.2
		z M118.2,131L118.2,131v-0.2V131L118.2,131z M118.2,125.6C118.2,125.6,118.1,125.6,118.2,125.6
		C118.1,125.7,118.2,125.7,118.2,125.6C118.2,125.7,118.2,125.6,118.2,125.6z M118.3,131.9c-0.1,0-0.2,0.1-0.2,0.2
		C118.3,132.2,118.3,132.1,118.3,131.9z M118.2,126.8L118.2,126.8L118.2,126.8L118.2,126.8z M118.2,130.4
		C118.3,130.3,118.2,130.3,118.2,130.4C118.2,130.3,118.2,130.3,118.2,130.4C118.2,130.4,118.2,130.4,118.2,130.4
		C118.2,130.4,118.2,130.4,118.2,130.4z M118.2,131.3L118.2,131.3L118.2,131.3L118.2,131.3L118.2,131.3z M118.2,133.7h0.1V133
		l-0.1,0.1V133.7z M118.3,122.3C118.3,122.3,118.2,122.3,118.3,122.3c-0.1,0.1-0.1,0.2,0,0.2C118.4,122.5,118.4,122.5,118.3,122.3
		C118.4,122.3,118.4,122.3,118.3,122.3z M118.4,123.6L118.4,123.6c0.2,0.1,0.2,0.2,0.3,0.3c0,0.1,0.1,0.2,0.2,0.2l0.2-0.2l0.2,0.2
		l0.2-0.2c0-0.1-0.1-0.1-0.2-0.1c-0.1,0-0.2,0-0.2,0c0-0.1,0-0.1,0.1-0.2s0.1-0.1,0.1-0.1c0,0,0.1-0.1,0.1-0.2
		c0-0.1,0.1-0.1,0.1-0.2c-0.1,0-0.2,0-0.3,0.1c-0.1,0-0.2,0.1-0.3,0.1c-0.1,0-0.1,0-0.1-0.1c0,0-0.1,0.1-0.2,0.2
		C118.4,123.5,118.3,123.5,118.4,123.6L118.4,123.6z M118.4,124.4C118.4,124.3,118.4,124.3,118.4,124.4
		C118.4,124.4,118.4,124.5,118.4,124.4C118.4,124.4,118.5,124.4,118.4,124.4C118.5,124.4,118.4,124.4,118.4,124.4z M118.5,124.9
		l0.1-0.1h-0.2L118.5,124.9z M118.4,132.4h0.3c0,0,0-0.1,0-0.1c0,0,0,0-0.1-0.1L118.4,132.4z M119.3,124.5c-0.1,0-0.2,0.1-0.2,0.1
		c-0.1,0.1-0.2,0.1-0.3,0.2c-0.1,0.1-0.1,0.2-0.2,0.2c-0.1,0.1-0.1,0.2-0.1,0.3c0,0,0.1,0,0.2-0.1c0.1-0.1,0.2-0.2,0.3-0.3
		c0.1-0.1,0.2-0.2,0.3-0.3C119.2,124.5,119.3,124.5,119.3,124.5L119.3,124.5z M118.5,125.7h0.1H118.5L118.5,125.7z M118.6,131.5
		c0,0.1,0,0.1,0.1,0.2c0.1,0,0.1,0.1,0.2,0.1c0,0,0-0.1,0-0.2c0-0.1-0.1-0.2-0.1-0.2h0C118.7,131.3,118.6,131.3,118.6,131.5
		C118.6,131.4,118.6,131.4,118.6,131.5z M118.7,125.5L118.7,125.5L118.7,125.5L118.7,125.5z M118.7,127.1c0.1,0,0.1,0,0.2,0.1
		c0.1,0.1,0.1,0.1,0.2,0.1l0.1-0.1c0,0,0,0,0.1-0.1s0.1-0.1,0.1-0.1c0.1-0.1,0.1-0.2,0.2-0.3c0-0.1,0-0.2-0.1-0.2
		c-0.1-0.1-0.1-0.1-0.2-0.1c0,0-0.1,0-0.2,0c-0.1,0-0.2,0-0.2,0c-0.1,0-0.1,0-0.2,0.1c-0.1,0-0.1,0.1-0.1,0.1c0,0.1,0,0.1,0,0.1
		c0,0,0,0,0.1,0s0.1,0,0.1,0c0,0,0,0,0,0.1v0.1l-0.1,0C118.8,127.1,118.8,127.1,118.7,127.1z M118.7,128.1
		C118.8,128.1,118.8,128.2,118.7,128.1c0.1,0.1,0.1,0.1,0.1,0.1l0,0l0,0c0,0,0,0,0.1,0s0,0,0.1,0v-0.1v0c0-0.1-0.1-0.1-0.1-0.1l0,0
		c0,0,0,0,0,0C118.8,128,118.8,128,118.7,128.1L118.7,128.1L118.7,128.1z M118.9,128.5C118.9,128.5,118.9,128.5,118.9,128.5
		C118.9,128.5,118.9,128.5,118.9,128.5l0.1,0.1h0.1C119,128.5,118.9,128.5,118.9,128.5L118.9,128.5
		C118.9,128.4,118.9,128.5,118.9,128.5z M119,134.4C119,134.4,118.9,134.4,119,134.4c-0.1,0.1-0.1,0.2,0,0.2
		C119.1,134.5,119.1,134.5,119,134.4C119.1,134.4,119.1,134.4,119,134.4z M119,129C119,129,119,129,119,129
		C119,129.1,119,129.1,119,129C119,129,119.1,129,119,129C119.1,129,119,129,119,129z M119,132.2C119,132.2,119,132.2,119,132.2
		C119,132.3,119,132.3,119,132.2C119,132.3,119.1,132.3,119,132.2C119.1,132.3,119,132.2,119,132.2z M119.1,125.7
		C119.1,125.7,119,125.8,119.1,125.7c-0.1,0.1-0.1,0.2,0,0.2C119.2,125.9,119.2,125.9,119.1,125.7
		C119.2,125.8,119.2,125.7,119.1,125.7z M119.3,125.5C119.3,125.5,119.3,125.4,119.3,125.5c-0.1,0-0.2,0-0.1,0
		C119.1,125.5,119.1,125.5,119.3,125.5C119.2,125.5,119.2,125.5,119.3,125.5z M119.2,128.8v-0.2V128.8L119.2,128.8z M119.2,124.3
		C119.2,124.3,119.1,124.3,119.2,124.3c-0.1,0.1,0,0.2,0,0.2C119.2,124.5,119.2,124.4,119.2,124.3
		C119.2,124.3,119.2,124.3,119.2,124.3z M119.3,127.6c0,0,0,0.1,0.1,0.2c0,0.1,0.1,0.1,0.2,0.1c0.1,0,0.1,0,0.1-0.1
		c0-0.1,0-0.1,0-0.2c0-0.1,0-0.1,0-0.2c0,0-0.1-0.1-0.2-0.1C119.3,127.4,119.3,127.5,119.3,127.6z M119.3,133.4h0.1v-0.1
		L119.3,133.4z M119.3,128.2C119.3,128.3,119.4,128.3,119.3,128.2c0.1,0.1,0.1,0.2,0.1,0.3c0,0.1,0.1,0.1,0.1,0.1h0.1
		c0-0.1,0-0.2-0.1-0.3C119.6,128.3,119.5,128.2,119.3,128.2L119.3,128.2z M119.6,134C119.6,134,119.6,134.1,119.6,134
		c-0.1,0.1,0,0.2,0,0.2C119.7,134.2,119.7,134.2,119.6,134C119.7,134.1,119.7,134,119.6,134z M119.9,123c0,0-0.1,0.1-0.2,0.1
		c-0.1,0.1-0.1,0.1-0.1,0.2v0.1c0.1-0.1,0.1-0.1,0.2-0.2S119.9,123.1,119.9,123z M120.2,133.8C120.2,133.8,120.2,133.8,120.2,133.8
		c-0.1,0.1,0,0.2,0,0.2C120.3,133.9,120.3,133.9,120.2,133.8C120.3,133.8,120.3,133.8,120.2,133.8z M120.7,128.3
		c0,0.1,0.1,0.2,0.2,0.2v-0.1c0,0,0-0.1,0-0.1c0-0.1,0-0.1,0-0.1C120.7,128.1,120.7,128.2,120.7,128.3z M120.7,129h0.1
		c0-0.1,0-0.1-0.1-0.2V129z M121.2,128.1C121.1,128.1,121.1,128.2,121.2,128.1c-0.1,0.1-0.1,0.2,0,0.2
		C121.2,128.3,121.2,128.3,121.2,128.1C121.2,128.2,121.2,128.1,121.2,128.1z M121.4,134.5c-0.1,0-0.2,0.1-0.2,0.2l0,0
		c0.1,0,0.1,0,0.1-0.1C121.4,134.6,121.4,134.6,121.4,134.5z M121.4,133.7C121.4,133.7,121.4,133.7,121.4,133.7
		c-0.1,0.2,0,0.2,0,0.2C121.5,133.9,121.5,133.8,121.4,133.7C121.5,133.7,121.5,133.7,121.4,133.7z M121.5,128.6L121.5,128.6
		L121.5,128.6c0.1,0,0.1,0,0.1,0s0,0,0,0l0,0c0,0,0-0.1,0-0.1c0-0.1,0-0.1-0.1-0.1L121.5,128.6z M121.8,128.9L121.8,128.9v-0.2
		V128.9z M122.1,128.2L122.1,128.2L122.1,128.2C122.2,128.2,122.2,128.2,122.1,128.2l0.1,0c0,0,0,0,0,0s0,0,0,0c0,0,0-0.1,0.1-0.1
		H122L122.1,128.2z"/>
	<path class="st0" d="M128.9,135c0,0,0,0.1-0.1,0.1c0,0.1,0,0.1,0,0.1c0,0,0-0.1-0.1-0.1c0,0-0.1,0-0.2,0c-0.1,0-0.2,0-0.2,0
		c0,0-0.1,0-0.2-0.1c-0.1,0-0.2-0.1-0.2-0.1c0,0,0,0-0.1,0l-0.1,0h0h0l0,0c0,0,0,0,0,0l0,0l0,0c0,0,0-0.1,0-0.1c0-0.1,0-0.1-0.1-0.1
		c0,0-0.1,0-0.2-0.1c-0.1,0-0.1,0-0.2,0v-0.2l-0.3,0.2c0,0,0,0-0.1,0c0,0-0.1-0.1-0.1-0.1c0,0,0-0.1,0-0.1c0-0.1,0-0.1-0.1-0.1
		c-0.1,0-0.1,0.1-0.1,0.1c0,0,0,0.1,0,0.1c0,0,0,0.1,0,0.1s-0.1,0-0.2,0c-0.2,0-0.3,0-0.4-0.1c-0.1-0.1-0.1-0.1-0.1-0.2
		c0-0.1,0-0.2,0-0.2c0-0.1,0-0.1-0.1-0.2c0,0-0.1,0-0.2,0c-0.1,0-0.2,0-0.2,0l0.1-0.2c-0.1,0-0.2,0-0.3-0.1
		c-0.1-0.1-0.2-0.1-0.2-0.2c-0.1-0.1-0.1-0.2-0.2-0.3c-0.1-0.1-0.1-0.2-0.2-0.3c0,0,0-0.1-0.1-0.1c0-0.1-0.1-0.1-0.1-0.2
		c-0.2-0.2-0.2-0.3-0.3-0.5c0-0.1-0.1-0.3-0.1-0.5l0,0l0,0c0,0,0-0.1,0-0.3c0-0.1,0-0.2,0-0.3v-0.1c0-0.1,0-0.2,0-0.2
		c0-0.1,0-0.2,0-0.2v-0.1c0,0,0,0,0-0.1s0-0.1,0-0.1v-0.3c0,0,0-0.1,0-0.3c0-0.1,0-0.3,0.1-0.4c0-0.1,0.1-0.3,0.1-0.4
		c0-0.1,0.1-0.2,0.2-0.2c0,0.1,0,0.1,0,0.2c0,0,0,0.1,0,0.1c0,0,0.1,0,0.2,0s0.2,0,0.2-0.1c0,0,0-0.1,0.1-0.1c0-0.1,0-0.1,0-0.1h0.1
		v0.2c0,0,0.1,0,0.1,0c0,0,0.1,0,0.1,0l0,0l0,0c0,0,0.1,0,0.2,0c0.1,0,0.1,0,0.1,0v-0.1c0-0.1,0-0.2-0.1-0.4
		c-0.1-0.1-0.1-0.2-0.1-0.4c0.1,0,0.1,0,0.2,0c0.1,0,0.1,0,0.2,0c0.1,0,0.1,0,0.1-0.1c0-0.1-0.1-0.1-0.1-0.1c-0.1,0-0.1,0-0.2,0l0,0
		c0,0,0-0.1,0.1-0.2c0-0.1,0.1-0.1,0.1-0.2c0,0,0,0,0.1,0c0.1,0,0.1,0,0.1,0s0.1,0,0.2,0s0.2,0.1,0.2,0.1c0,0,0,0,0,0.1
		c0,0,0,0.1,0,0.1v0.1c0.1,0,0.2,0,0.3,0c0.1,0,0.2-0.1,0.3-0.2c0,0,0-0.1,0.1-0.2s0.1-0.2,0.1-0.2c0,0.1,0.1,0.2,0.2,0.2
		c0,0,0.1,0,0.1,0c0.1,0,0.1,0,0.1-0.1c0,0,0-0.1,0-0.1l0-0.1h-0.2c0,0,0,0,0.1,0s0,0,0-0.1c0,0,0-0.1,0-0.1s0-0.1-0.1-0.1
		c0,0,0,0,0,0l0,0c0,0,0,0,0.1,0.1c0.1,0,0.1,0.1,0.1,0.1c0,0,0.1,0,0.2,0s0.2,0,0.2,0.1c0,0.1,0,0.2,0.1,0.3s0.1,0.2,0.1,0.3
		c0,0,0,0,0,0c0,0,0,0,0,0v-0.1l0,0h0c0,0,0,0,0.1,0.1c0,0,0.1,0.1,0.1,0.1h0h0c0,0,0.1,0,0.2,0c0.1,0,0.1,0,0.2,0v0
		c0-0.1,0-0.1-0.1-0.1c-0.1,0-0.1,0-0.2-0.1l0,0c0,0,0,0,0,0c0,0,0-0.1,0.1-0.1s0-0.1,0.1-0.1c0,0,0.1,0,0.1,0.1
		c0.1,0,0.1,0.1,0.1,0.1h0c0.1,0,0.2,0,0.2-0.1c0-0.1,0.1-0.2,0.2-0.2c0,0,0.1,0.1,0.1,0.1c0,0.1,0.1,0.1,0.1,0.1c0,0,0,0,0,0.1
		c0,0,0,0.1,0,0.1l0,0l0,0c0,0,0,0,0.1,0c0,0,0,0,0,0v-0.6l0.1-0.1c0,0.1,0,0.3,0,0.4s0.1,0.3,0.1,0.4l0.1-0.1v-0.7c0,0,0,0,0,0
		s0,0,0,0c0,0,0,0,0,0c0,0,0.1,0,0.1,0.1c0,0,0,0.1,0.1,0.2c0,0.1,0,0.2,0,0.2h0h0.1c0,0,0,0,0.1-0.1c0,0,0.1-0.1,0.1-0.1h0.6
		c0,0,0,0.1-0.1,0.1c0,0.1,0,0.1,0,0.2c0,0,0,0,0,0.1s0,0,0,0.1c0,0,0.1,0,0.2,0.1c0.1,0,0.2,0,0.2,0c0,0,0,0.1-0.1,0.1
		c0,0-0.1,0-0.1,0s-0.1,0-0.2,0s-0.1,0.1-0.1,0.2c0,0,0-0.1,0-0.2c0-0.1,0-0.1-0.1-0.2c0,0,0-0.1,0-0.1c0,0,0-0.1,0-0.1
		c0-0.1-0.1-0.1-0.1-0.1c0,0-0.1,0-0.1,0c0,0.2,0,0.3,0.1,0.4c0,0.1,0.1,0.2,0.1,0.4h-0.1l0,0.1l0.2,0.2c0,0,0,0,0,0c0,0,0,0,0,0
		v-0.1l0-0.1c0,0,0,0,0-0.1c0,0,0,0,0,0l0,0h0.1c0.1,0,0.1,0,0.2,0.1c0,0.1,0,0.2,0,0.2c0-0.1,0.1-0.2,0.1-0.2c0.1,0,0.2,0,0.3,0
		v0.3c0.1,0,0.2,0,0.3,0c0,0,0.1,0,0.2,0.1c0,0,0,0-0.1,0s-0.1,0-0.1,0v0.1c0,0.1,0.1,0.2,0.2,0.2c0.1,0,0.2,0,0.3,0c0,0,0,0,0,0
		c0,0,0,0.1,0,0.1s0,0.1,0,0.1c0,0,0,0-0.1,0c0,0,0,0-0.1,0c0,0,0,0-0.1,0l-0.1,0l-0.1,0c0,0,0,0-0.1,0s-0.1,0-0.1,0
		c0.1,0.1,0.2,0.3,0.4,0.4c-0.1,0.1-0.1,0.1-0.2,0.1c-0.1,0-0.1,0-0.2,0c0,0,0,0,0,0.1v0c0,0,0,0.1,0.1,0.1c0,0,0,0.1,0.1,0.1
		c0,0,0,0.1,0.1,0.1c0.1,0.1,0.1,0.1,0.1,0.1c0,0,0,0.1-0.1,0.2c0,0.1-0.1,0.1-0.1,0.1c0-0.1-0.1-0.1-0.1-0.1c0,0,0,0-0.1,0
		s0,0-0.1,0.1c0,0,0.1,0,0.1,0.1s0,0.1,0,0.1c0,0.1,0,0.1-0.1,0.2s-0.1,0-0.1,0.1c-0.1,0-0.1,0-0.2,0c-0.1,0-0.1,0-0.2,0
		c-0.1,0-0.1,0.1-0.1,0.1c0,0.1,0,0.1-0.1,0.1c0-0.1-0.1-0.1-0.1-0.1c0,0-0.1,0-0.1,0c-0.1,0-0.2,0-0.2,0.1c0,0.1-0.1,0.1-0.2,0.1
		l-0.1-0.1c0,0-0.1,0-0.1-0.1c0,0-0.1-0.1-0.1-0.1l-0.1,0.1l0.1,0.1c0,0.1-0.1,0.1-0.1,0.2c0,0.1,0,0.1,0,0.2c0,0.1,0,0.1-0.1,0.2
		c0,0.1-0.1,0.1-0.2,0.1c0-0.1,0-0.2,0-0.2c0-0.1-0.1-0.1-0.2-0.1c-0.1,0-0.1,0-0.1,0.1c0,0-0.1,0.1-0.1,0.2c0,0,0,0,0-0.1
		s0,0,0-0.1c0,0,0,0,0-0.1s0,0,0,0s0,0,0-0.1c0-0.1,0-0.1,0-0.1c0,0,0-0.1-0.1-0.1s-0.1,0-0.1,0c-0.1,0-0.1,0-0.2,0.1
		s-0.2,0.1-0.2,0.2c0,0,0,0,0,0c0,0,0,0,0.1,0.1c0.1,0,0.1,0.1,0.1,0.1c0,0,0,0.1,0,0.2c0,0.1,0,0.2,0,0.2c0,0,0,0,0,0.1l0,0.1v0
		c0,0,0,0,0,0c-0.1,0.1-0.2,0.1-0.2,0.1c-0.1,0-0.1,0.1-0.2,0.1c-0.1,0-0.1,0-0.1,0c0-0.1,0-0.2,0.1-0.2c0.1,0,0.1-0.1,0.1-0.2
		c0-0.1,0-0.1-0.1-0.1c0,0-0.1,0-0.2,0c0,0,0,0.1,0,0.1s0,0.1,0,0.1c0,0,0,0.1-0.1,0.2c0,0,0,0.1-0.1,0.2h0c0,0,0-0.1,0-0.2
		c0-0.1-0.1-0.1-0.2-0.1c0,0-0.1,0-0.3,0s-0.2,0.1-0.3,0.1c0,0,0,0-0.1,0l-0.1,0h-0.1c0-0.1-0.1-0.2-0.2-0.3c0,0,0,0-0.1,0v0.3
		c-0.1,0-0.1,0-0.2-0.1s-0.1-0.1-0.2-0.1c0,0,0,0.1,0,0.2c0,0.1,0,0.1,0,0.2c0,0,0,0.1,0.1,0.1c0,0.1,0.1,0.1,0.1,0.1l0.1,0
		c0.1,0,0.1,0,0.2,0c0.2,0,0.3,0.1,0.5,0.1s0.3,0.1,0.4,0.1c0.1,0,0.3,0.1,0.4,0.1s0.3,0.1,0.4,0.1c0,0,0.1,0,0.2,0.1
		c0.1,0,0.1,0,0.1,0.1c0,0,0,0,0,0.1s0,0.1,0,0.1c0,0,0.1,0,0.1,0c0.1,0,0.1,0,0.2,0h0.1c0.1,0,0.1,0,0.2,0c0.1,0,0.1,0,0.2,0
		c0.1,0,0.2,0,0.3,0c0.1,0,0.2,0,0.4,0c0,0.1,0,0.2,0.1,0.2s0.1,0,0.2,0c0.1,0,0.2,0,0.2,0s0.1,0,0.1,0c0,0,0.1,0,0.1,0s0,0,0,0.1
		c0,0,0,0.1,0,0.1s0,0,0.1,0c0.1,0,0.1,0,0.1-0.1c0-0.1,0-0.1,0.1-0.1c0,0,0,0,0,0c0,0,0,0,0,0c0,0,0.1,0,0.1,0s0.1,0,0.1,0
		c0,0,0.1,0,0.1,0c0,0,0.1,0.1,0.1,0.1c0,0.1,0,0.1,0.1,0.1h0l0.4-0.3h0.6l-0.1,0.1c0,0.1,0.1,0.1,0.2,0.1c0.1,0,0.2,0.1,0.3,0.1
		l-0.2,0.1c0,0.1,0,0.2,0,0.2c0,0.1,0,0.1,0,0.2c0,0.1,0,0.1,0,0.2c0,0.1,0,0.1,0,0.1s0,0-0.1,0v0.1h0.2v0.4h0c0,0,0,0,0,0
		c0,0,0,0,0,0s0,0,0,0c0,0-0.1-0.1-0.1-0.1c-0.1,0-0.1-0.1-0.1-0.1l0,0c0,0.1,0,0.1,0,0.1s0,0,0,0c0,0,0,0,0,0s0,0,0,0.1
		c0,0.1,0,0.1-0.1,0.1c0,0-0.1,0.1-0.2,0.1h-0.1c0,0-0.1,0-0.2,0c-0.1,0-0.2,0-0.2,0h0h0l0,0c0,0,0,0,0,0c0,0-0.1,0-0.1,0
		s-0.1,0-0.1,0V135c-0.2,0-0.4,0.1-0.6,0.2v-0.3c0,0,0,0,0,0h0c0,0,0,0,0,0.1c0,0.1,0,0.1,0,0.1h-0.3l-0.1,0.1c0,0,0,0-0.1-0.1
		c0,0-0.1,0-0.1,0c0,0-0.1,0-0.1,0c0,0,0-0.1,0-0.1c0,0,0.1-0.1,0.1-0.1c0,0,0,0-0.1,0c-0.1,0-0.1,0-0.1,0l0,0l0,0c0,0-0.1,0-0.1,0
		c-0.1,0-0.1,0-0.1,0v-0.2c0,0,0,0,0,0.1c0,0,0,0,0,0h0h0c0,0,0,0-0.1,0c0,0,0,0,0-0.1h0h-0.1c-0.1,0-0.1,0.1-0.1,0.2
		c0,0.1,0,0.1-0.1,0.2s0,0.1-0.1,0.2s-0.1,0.1-0.1,0.1c-0.1,0-0.1,0-0.1-0.1s0-0.1,0-0.1c0,0,0-0.1,0-0.1S129.1,135,128.9,135
		L128.9,135z M124.2,129.1C124.2,129.1,124.1,129.1,124.2,129.1c-0.1,0.1,0,0.1,0,0.1C124.2,129.2,124.2,129.2,124.2,129.1
		C124.2,129.1,124.2,129.1,124.2,129.1z M124.8,129.7C124.8,129.7,124.8,129.7,124.8,129.7c-0.1,0.1,0,0.1,0,0.1
		C124.8,129.8,124.8,129.8,124.8,129.7C124.8,129.7,124.8,129.7,124.8,129.7z M124.9,129.3c0,0-0.1,0.1-0.1,0.2
		C124.9,129.5,124.9,129.5,124.9,129.3L124.9,129.3z M124.9,130.5C124.9,130.5,124.9,130.5,124.9,130.5
		C124.8,130.5,124.8,130.5,124.9,130.5C124.8,130.5,124.8,130.6,124.9,130.5C124.9,130.6,124.9,130.5,124.9,130.5z M125.2,128.9
		c-0.1,0-0.1,0-0.1,0.1c0,0.1,0,0.1,0,0.2c0,0,0.1,0,0.2-0.1c0.1,0,0.1-0.1,0.1-0.1v0C125.3,128.9,125.2,128.9,125.2,128.9
		C125.2,128.9,125.2,128.9,125.2,128.9z M125.2,129.1C125.2,129.1,125.2,129.1,125.2,129.1c0,0.1,0,0.2,0,0.2
		C125.2,129.3,125.2,129.2,125.2,129.1C125.2,129.2,125.2,129.1,125.2,129.1z M125.7,131.2C125.7,131.2,125.7,131.3,125.7,131.2
		c0,0.1,0,0.1,0,0.1c0,0,0,0,0.1,0.1s0.1,0.1,0.1,0.1c0,0,0.1-0.1,0.1-0.1c0-0.1,0-0.1,0-0.2c0-0.1,0-0.2,0-0.2c0-0.1,0-0.1,0-0.2
		c0-0.1,0-0.1,0-0.1c0,0,0.1-0.1,0.1-0.1h0c0,0,0,0,0.1,0.1s0.1,0.1,0.1,0.1h0h0c0,0,0,0,0.1,0l0.1,0c0,0,0.1,0,0.2,0
		c0.1,0,0.1,0,0.1,0c0,0,0-0.1,0-0.1c0-0.1,0-0.1,0-0.1c0,0,0,0,0.1,0c0.1,0,0.1,0,0.2,0h0.1h0c0,0,0,0,0.1,0c0.1,0,0.1,0,0.1,0
		c0.1,0,0.2,0,0.3-0.1c0.1-0.1,0.2-0.1,0.3-0.2c0,0.1,0.1,0.2,0.1,0.2c0,0,0.1,0.1,0.2,0.1c0,0,0.1,0,0.2,0c0.1,0,0.1,0,0.2-0.1
		l0.1-0.5c0.1,0,0.1-0.1,0.3-0.1c0.1,0,0.2-0.1,0.3-0.1h0c0,0,0.1,0,0.1,0.1c0.1,0,0.1,0.1,0.1,0.1h0h0c0,0,0,0,0,0s0,0,0-0.1
		c0,0,0-0.1,0-0.2c0-0.1,0-0.2,0-0.2c0,0,0.1,0,0.2,0c0.1,0,0.2,0,0.2,0c0,0,0.1,0,0.2,0c0,0,0.1,0,0.1,0v-0.6c0,0,0,0.1,0.1,0.1
		c0,0,0.1,0.1,0.2,0.1c0,0,0.1,0.1,0.1,0.1l0.1-0.1c-0.1-0.2-0.2-0.3-0.2-0.4c0-0.1-0.1-0.2-0.3-0.4c-0.1,0-0.2-0.1-0.3-0.2
		c-0.1-0.1-0.2-0.1-0.3-0.1c-0.1,0-0.2,0-0.3,0.1c-0.1,0.1-0.2,0.1-0.3,0.2c-0.1,0.1-0.2,0.1-0.3,0.2c-0.1,0.1-0.3,0.1-0.4,0.1h-0.1
		c0,0-0.1,0-0.2-0.1c-0.1,0-0.1-0.1-0.1-0.1h0h0c0,0,0,0,0,0.1c0,0.1,0,0.1,0,0.1l-0.1,0.1c0,0,0,0-0.1,0c0,0,0,0-0.1,0h0
		c0,0,0,0-0.1,0.1c0,0-0.1,0.1-0.1,0.1c0,0-0.1,0-0.1,0c-0.1,0-0.1,0-0.1,0c0,0,0,0,0,0.1c0,0.1,0,0.1,0,0.1s0,0,0,0c0,0,0,0,0,0
		l-0.1-0.1c-0.3,0.2-0.5,0.5-0.6,0.9c-0.1,0-0.1,0-0.2,0c0,0.1-0.1,0.1-0.1,0.2c0,0,0,0.1,0,0.1c0,0.1,0,0.1,0,0.1h-0.1l-0.1-0.3
		c0,0,0,0,0,0.1c0,0,0,0.1,0,0.1c0,0.1,0,0.2,0,0.2c0,0.1,0,0.1,0,0.2c0,0,0,0,0,0s0,0,0,0v0.1c0,0,0,0-0.1,0.1c-0.1,0-0.1,0-0.1,0
		v0.5h-0.2v0.1c0.1,0,0.1,0,0.2,0C125.5,131.2,125.6,131.2,125.7,131.2z M125.5,131.6C125.5,131.6,125.5,131.6,125.5,131.6
		C125.4,131.6,125.4,131.6,125.5,131.6C125.4,131.6,125.4,131.6,125.5,131.6C125.5,131.6,125.5,131.6,125.5,131.6z M125.4,128.2
		C125.4,128.2,125.4,128.3,125.4,128.2C125.5,128.3,125.5,128.3,125.4,128.2c0.1,0.1,0.1,0.1,0.2,0.1c0.1,0,0.1,0,0.2,0
		c0-0.1,0-0.2-0.1-0.2h0c0,0-0.1,0-0.1,0S125.4,128.2,125.4,128.2z M125.6,128.4C125.6,128.4,125.6,128.5,125.6,128.4
		c-0.1,0.1,0,0.1,0,0.1C125.7,128.6,125.7,128.6,125.6,128.4C125.7,128.5,125.7,128.4,125.6,128.4z M125.7,127.4
		c0,0.1,0,0.2,0.1,0.2c0.1,0,0.1,0.1,0.2,0.1c0-0.1,0-0.2-0.1-0.2C125.9,127.5,125.8,127.4,125.7,127.4z M125.8,132
		C125.8,132,125.8,132,125.8,132c0,0.1,0,0.1,0,0.1C125.9,132.2,125.9,132.1,125.8,132C125.9,132,125.9,132,125.8,132z M126,131.2
		C125.9,131.2,125.9,131.2,126,131.2c-0.1,0.1,0,0.2,0,0.2S126,131.3,126,131.2C126,131.2,126,131.2,126,131.2z M126,128
		C126,128,126,128,126,128c0.1,0.1,0.1,0,0.2,0c0-0.1,0-0.1,0-0.1c0,0-0.1,0-0.1,0S126,127.9,126,128L126,128z M126,129.1
		C126,129.1,126,129.1,126,129.1L126,129.1L126,129.1C126,129.1,126,129,126,129.1C126,129,126,129,126,129.1L126,129.1L126,129.1z
		 M126.3,134C126.2,134,126.2,134,126.3,134l-0.1,0.1v0c0.1,0,0.1,0,0.2-0.1c0.1,0,0.1-0.1,0.1-0.2c0,0,0,0,0,0s0,0,0,0v0
		c0,0-0.1-0.1-0.1-0.1s-0.1-0.1-0.1-0.1l-0.1,0.1l0,0v0c0,0,0,0,0,0C126.1,133.9,126.1,133.9,126.3,134
		C126.2,134,126.2,134,126.3,134z M126.2,134.3C126.1,134.3,126.1,134.3,126.2,134.3c-0.1,0.1,0,0.1,0,0.1S126.2,134.4,126.2,134.3
		C126.2,134.3,126.2,134.3,126.2,134.3z M126.2,128.4L126.2,128.4l0.1-0.2h-0.1V128.4z M126.3,130.9
		C126.3,130.9,126.3,130.9,126.3,130.9C126.2,130.9,126.2,130.9,126.3,130.9C126.2,130.9,126.2,131,126.3,130.9
		C126.2,131,126.2,130.9,126.3,130.9z M126.3,134.4C126.2,134.4,126.2,134.4,126.3,134.4C126.2,134.5,126.2,134.5,126.3,134.4
		C126.3,134.5,126.3,134.5,126.3,134.4z M126.3,128C126.3,128,126.3,128,126.3,128C126.3,128,126.2,128,126.3,128
		C126.3,128,126.3,128.1,126.3,128C126.3,128.1,126.3,128,126.3,128z M126.3,133.6h0.1v-0.1L126.3,133.6L126.3,133.6z M126.4,134.5
		C126.5,134.5,126.5,134.5,126.4,134.5C126.4,134.5,126.4,134.5,126.4,134.5C126.4,134.5,126.4,134.5,126.4,134.5
		C126.4,134.5,126.4,134.5,126.4,134.5z M126.5,134.2C126.5,134.2,126.5,134.2,126.5,134.2c-0.1,0.1,0,0.2,0,0.2
		S126.6,134.3,126.5,134.2C126.6,134.2,126.6,134.2,126.5,134.2z M126.5,132.6L126.5,132.6L126.5,132.6L126.5,132.6L126.5,132.6z
		 M126.6,127.6C126.6,127.6,126.5,127.6,126.6,127.6c-0.1,0.1,0,0.1,0,0.1C126.6,127.8,126.6,127.7,126.6,127.6
		C126.6,127.6,126.6,127.6,126.6,127.6z M126.7,127.7C126.6,127.7,126.6,127.7,126.7,127.7c-0.1,0.1,0,0.1,0,0.1
		S126.7,127.8,126.7,127.7C126.7,127.7,126.7,127.7,126.7,127.7z M126.7,128.6C126.7,128.6,126.7,128.6,126.7,128.6
		c-0.1,0.1,0,0.1,0,0.1C126.8,128.7,126.8,128.7,126.7,128.6C126.8,128.6,126.8,128.6,126.7,128.6z M126.7,133.9h0.1l0,0
		C126.8,133.9,126.8,133.9,126.7,133.9L126.7,133.9C126.8,133.9,126.7,133.9,126.7,133.9L126.7,133.9z M126.9,127.6c0,0,0,0.1,0,0.1
		c0,0,0,0.1,0,0.1h0h0l0.2-0.1v0c0-0.1,0-0.1-0.1-0.2c0-0.1-0.1-0.1-0.2-0.1c0,0,0,0.1-0.1,0.1C126.9,127.6,126.9,127.6,126.9,127.6
		z M127.2,133.9c-0.1,0-0.1,0-0.2,0c0,0-0.1,0.1-0.1,0.1h0.2V133.9z M127.4,133.9C127.4,133.9,127.4,133.9,127.4,133.9
		c0,0.1,0,0.1,0,0.2l0,0.1h0.1v-0.4C127.4,133.7,127.4,133.8,127.4,133.9z M127.4,127.6C127.4,127.6,127.4,127.6,127.4,127.6
		c0,0.1,0,0.1,0,0.1C127.5,127.8,127.5,127.7,127.4,127.6C127.5,127.6,127.5,127.6,127.4,127.6z M127.4,128.4
		C127.4,128.4,127.4,128.4,127.4,128.4c0,0.1,0,0.1,0,0.1C127.5,128.5,127.5,128.5,127.4,128.4C127.5,128.4,127.5,128.4,127.4,128.4
		z M127.5,127.2c-0.1,0-0.1,0-0.1,0.1h0.1V127.2z M127.5,128.3c0-0.1,0-0.1,0.1-0.2s0-0.1,0-0.2c0,0,0-0.1,0-0.1c0,0,0-0.1-0.1-0.1
		V128.3z M127.7,131.7L127.7,131.7L127.7,131.7L127.7,131.7z M127.9,133.4C127.9,133.4,127.8,133.4,127.9,133.4
		c-0.1,0.1,0,0.1,0,0.1C127.9,133.5,128,133.5,127.9,133.4C128,133.4,127.9,133.4,127.9,133.4z M128,131.4
		C128,131.4,128,131.4,128,131.4C127.9,131.4,127.9,131.4,128,131.4C127.9,131.5,127.9,131.5,128,131.4z M128,134.6
		C128,134.6,128,134.6,128,134.6C127.9,134.6,127.9,134.6,128,134.6C127.9,134.7,127.9,134.7,128,134.6z M128,127.8
		c0,0.1,0.1,0.1,0.1,0.2c0,0.1,0.1,0.1,0.2,0.1c0,0,0.1,0,0.1,0s0.1,0,0.1-0.1c0,0,0,0,0,0s0,0,0,0s0,0-0.1,0c-0.1,0-0.1,0-0.1,0
		c0,0,0,0,0-0.1c0,0,0-0.1,0-0.1h0L128,127.8L128,127.8C128,127.8,128,127.8,128,127.8z M128.2,133.7
		C128.2,133.7,128.2,133.6,128.2,133.7c-0.1,0-0.1,0-0.1,0C128.1,133.7,128.1,133.7,128.2,133.7
		C128.2,133.7,128.2,133.7,128.2,133.7z M128.4,133.8c0,0,0.1,0,0.1-0.1L128.4,133.8L128.4,133.8z M128.7,130.2L128.7,130.2
		L128.7,130.2L128.7,130.2L128.7,130.2z M128.8,130.7L128.8,130.7L128.8,130.7L128.8,130.7z M128.7,129.7c0,0,0,0.1,0,0.2
		c0,0.1,0,0.1,0.1,0.2c0,0.1,0.1,0.1,0.1,0.2c0,0.1,0.1,0.1,0.1,0.1l0,0l0,0l0,0c0,0,0-0.1,0-0.2c0-0.1,0-0.2,0-0.2
		c-0.1,0-0.1,0-0.2,0.1c0-0.1-0.1-0.1-0.1-0.2S128.8,129.7,128.7,129.7z M129,127.3c0,0,0,0.1,0,0.1s0,0.1,0.1,0.1
		c0,0,0.1,0,0.1-0.1v0c0,0,0-0.1-0.1-0.1C129.1,127.3,129.1,127.3,129,127.3z M129.1,130.5L129.1,130.5L129.1,130.5L129.1,130.5
		L129.1,130.5z M129.2,133.7c0.1,0.1,0.2,0.1,0.3,0.2c0,0,0,0,0.1,0l0,0c0,0,0-0.1,0-0.2c0-0.1,0-0.1,0-0.2c-0.1,0-0.1,0-0.2,0.1
		C129.3,133.7,129.3,133.7,129.2,133.7z M129.2,134.9L129.2,134.9c0.1-0.1,0.1-0.1,0-0.1V134.9z M129.4,134.1c0,0.1,0,0.1,0,0.2
		s0.1,0.1,0.1,0.1h0.1c0-0.1,0-0.1-0.1-0.2C129.5,134.1,129.5,134.1,129.4,134.1z M129.5,130.6c0,0,0,0.1,0,0.2c0,0.1,0,0.1,0.1,0.1
		c0.1,0,0.1-0.1,0.1-0.1c0-0.1,0-0.1,0-0.2H129.5z M129.6,131.1V131V131.1L129.6,131.1z M129.5,129.4
		C129.5,129.4,129.5,129.4,129.5,129.4C129.6,129.4,129.6,129.4,129.5,129.4l0.1,0.1c0-0.1,0.1-0.1,0.2-0.2c0.1,0,0.2,0,0.2,0
		c0,0-0.1-0.1-0.1-0.1s-0.1,0-0.1,0c0,0-0.1,0-0.2,0C129.6,129.3,129.5,129.3,129.5,129.4z M130.1,129.5
		C130.1,129.5,130,129.5,130.1,129.5c-0.1,0.1-0.2,0.1-0.2,0.1h0.2L130.1,129.5z M130,127.6h0.1v-0.1L130,127.6L130,127.6z
		 M130.1,134.8C130.1,134.8,130.1,134.9,130.1,134.8c0,0.1,0,0.2,0,0.2C130.1,135,130.2,135,130.1,134.8
		C130.2,134.9,130.1,134.8,130.1,134.8z M130.3,130.6L130.3,130.6L130.3,130.6L130.3,130.6z M130.3,129.8
		C130.3,129.8,130.3,129.8,130.3,129.8c0,0.1,0,0.1,0,0.1C130.4,130,130.4,129.9,130.3,129.8C130.4,129.8,130.4,129.8,130.3,129.8z
		 M130.4,129.5C130.4,129.5,130.4,129.5,130.4,129.5C130.3,129.5,130.3,129.5,130.4,129.5C130.3,129.6,130.3,129.6,130.4,129.5
		C130.4,129.6,130.4,129.6,130.4,129.5z M130.3,130.4L130.3,130.4L130.3,130.4L130.3,130.4L130.3,130.4z M130.6,130.6
		C130.6,130.5,130.6,130.5,130.6,130.6C130.5,130.5,130.5,130.5,130.6,130.6C130.5,130.6,130.5,130.6,130.6,130.6
		C130.6,130.6,130.6,130.6,130.6,130.6z M130.5,130.2L130.5,130.2L130.5,130.2L130.5,130.2z M130.6,129.1
		C130.6,129.1,130.5,129.1,130.6,129.1c-0.1,0.1,0,0.1,0,0.1C130.6,129.2,130.6,129.2,130.6,129.1
		C130.6,129.1,130.6,129.1,130.6,129.1z M130.6,129.3c0,0.1,0,0.2,0.1,0.3c0.1,0.1,0.1,0.2,0.1,0.3c0,0,0.1-0.1,0.1-0.1v0v0
		c0,0,0-0.1,0-0.1c0-0.1,0-0.1,0-0.1c0-0.1,0-0.1,0-0.2S130.8,129.3,130.6,129.3z M130.9,130.3C130.8,130.3,130.8,130.3,130.9,130.3
		c-0.1,0.1,0,0.1,0,0.1C130.9,130.4,130.9,130.4,130.9,130.3C130.9,130.3,130.9,130.3,130.9,130.3z M130.9,128.6
		C130.9,128.6,130.9,128.6,130.9,128.6c0,0.1,0,0.2,0,0.1S131,128.7,130.9,128.6C131,128.6,130.9,128.6,130.9,128.6z M131,128.3
		C131,128.3,130.9,128.3,131,128.3c-0.1,0.1,0,0.1,0,0.1C131,128.4,131,128.4,131,128.3C131,128.3,131,128.3,131,128.3z
		 M131.3,129.5L131.3,129.5l-0.2-0.1L131.3,129.5z M131.4,133.9c-0.1,0-0.2,0-0.2,0.1C131.3,134,131.3,134,131.4,133.9L131.4,133.9z
		 M131.3,128.5C131.3,128.5,131.3,128.5,131.3,128.5c-0.1,0.1,0,0.2,0,0.2C131.4,128.7,131.4,128.6,131.3,128.5
		C131.4,128.5,131.4,128.5,131.3,128.5z M131.4,128.6C131.4,128.6,131.4,128.6,131.4,128.6c-0.1,0.1,0,0.1,0,0.1
		S131.5,128.7,131.4,128.6C131.5,128.6,131.5,128.6,131.4,128.6z M131.7,134.2C131.7,134.2,131.7,134.2,131.7,134.2L131.7,134.2
		c0.1,0.1,0.1,0.1,0.2,0c0,0,0.1-0.1,0.1-0.1l-0.1-0.1h0h0C131.8,134.1,131.8,134.1,131.7,134.2
		C131.7,134.1,131.7,134.1,131.7,134.2L131.7,134.2L131.7,134.2z M131.8,134.8L131.8,134.8L131.8,134.8L131.8,134.8z M131.9,133.9
		C131.9,133.9,131.8,133.9,131.9,133.9c-0.1,0.1,0,0.1,0,0.1S131.9,134,131.9,133.9C131.9,133.9,131.9,133.9,131.9,133.9z
		 M132.1,133.9C132.1,133.9,132,134,132.1,133.9c-0.1,0.1,0,0.1,0,0.1C132.1,134.1,132.1,134.1,132.1,133.9
		C132.1,134,132.1,133.9,132.1,133.9z M132.6,134.9c-0.1,0-0.1,0-0.1,0.1h0L132.6,134.9C132.5,135,132.5,135,132.6,134.9
		C132.6,134.9,132.6,134.9,132.6,134.9L132.6,134.9z"/>
</g>
</svg>
