<?xml version="1.0" encoding="utf-8"?>
<!-- Generator: Adobe Illustrator 27.2.0, SVG Export Plug-In . SVG Version: 6.00 Build 0)  -->
<svg version="1.1" id="レイヤー_1" xmlns="http://www.w3.org/2000/svg" xmlns:xlink="http://www.w3.org/1999/xlink" x="0px"
	 y="0px" viewBox="0 0 540 450" style="enable-background:new 0 0 540 450;" xml:space="preserve">
<g>
	<path d="M115.7,103.5l4.1-0.7l-1-5.6l3.5-11.7l-4.1,0.7l-2,7.5l-0.2,0l-4.5-6.3l-4.1,0.7l7.3,9.8L115.7,103.5z M101.6,145.8
		c14.7-2.6,29.3-5.2,44.1-7.8c6.3-1.1,9.5-5.6,8.4-11.9c-1.4-7.7-2.7-15.5-4.1-23.2c-1.3-7.6-2.7-15.3-4-22.8
		c-1.3-6.6-5.7-9.7-12.3-8.5c-14.6,2.6-29.2,5.1-43.7,7.7c-6.5,1.1-9.7,5.7-8.5,12.1c2.7,15.4,5.4,30.7,8.1,46.1
		C90.7,143.9,95.2,146.9,101.6,145.8z M133.8,73.2c5.7-1,9.4,1.6,10.5,7.3c2.5,14,4.9,28.1,7.4,42.1c0.1,0.6,1.2,6,1,6.1
		c-2.7-2-5.4-2.7-8-5c-1.9-1.3-2.2-4.1-2.9-8c-1.9-10.8-3.9-21.7-5.9-32.7c-1-5.7-4.9-8.5-10.6-7.4c-8.4,1.4-16.6,2.9-25,4.3
		c-1.4,0.2-2.8,0.2-4.2,0.2C108.8,77.6,121.3,75.4,133.8,73.2z M93.9,90.1c-0.7-4,1.4-7.2,5.3-8c9.2-1.7,18.3-3.3,27.6-4.9
		c4.1-0.6,7.1,1.7,7.8,5.8c2,11.5,4.1,23.1,6.1,34.7c0.7,4.2-1.4,7.4-5.8,8.1c-8.9,1.6-17.7,3.1-26.6,4.7c-4.3,0.8-7.4-1.3-8.2-5.9
		c-1-5.7-2-11.4-3.1-17C95.9,101.8,94.9,95.9,93.9,90.1z M131.5,163.4l-5.3,0.9l-1.1-6.4l-4.1,0.7l2.9,16.3l4.1-0.7l-1.1-6.5
		l5.3-0.9l1.1,6.5l4.1-0.7l-2.9-16.3l-4.1,0.7L131.5,163.4z M162.8,173.5c-1.3-7.6-2.7-15.3-4-22.8c-1.3-6.6-5.7-9.7-12.3-8.5
		c-14.6,2.6-29.2,5.1-43.7,7.7c-6.5,1.1-9.7,5.7-8.5,12.1c2.7,15.4,5.4,30.7,8.1,46.1c1.1,6.4,5.7,9.4,12,8.3
		c14.7-2.6,29.3-5.2,44.1-7.8c6.3-1.1,9.5-5.6,8.4-11.9C165.5,189.1,164.2,181.4,162.8,173.5z M153.3,188.4c0.7,4.2-1.4,7.4-5.8,8.1
		c-8.9,1.6-17.7,3.1-26.6,4.7c-4.3,0.8-7.4-1.3-8.2-5.9c-1-5.7-2-11.4-3.1-17c-1-5.8-2.1-11.7-3.1-17.5c-0.7-4,1.4-7.2,5.3-8
		c9.2-1.7,18.3-3.3,27.6-4.9c4.1-0.6,7.1,1.7,7.8,5.8C149.3,165.2,151.3,176.9,153.3,188.4z M165.6,199.3c-2.7-2-5.4-2.7-8-5
		c-1.9-1.3-2.2-4.1-2.9-8c-1.9-10.8-3.9-21.7-5.9-32.7c-1-5.7-4.9-8.5-10.6-7.4c-8.4,1.4-16.6,2.9-25,4.3c-1.4,0.2-2.8,0.2-4.2,0.2
		c12.6-2.7,25-4.9,37.6-7.1c5.7-1,9.4,1.6,10.5,7.3c2.5,14,4.9,28.1,7.4,42.1C164.6,193.7,165.8,199.2,165.6,199.3z M159,212.8
		c-14.6,2.6-29.2,5.1-43.7,7.7c-6.5,1.1-9.7,5.7-8.5,12.1c2.7,15.4,5.4,30.7,8.1,46.1c1.1,6.4,5.7,9.4,12,8.3
		c14.7-2.6,29.3-5.2,44.1-7.8c6.3-1.1,9.5-5.6,8.4-11.9c-1.4-7.7-2.7-15.5-4.1-23.2c-1.3-7.6-2.7-15.3-4-22.8
		C170,214.8,165.6,211.6,159,212.8z M165.8,259c0.7,4.2-1.4,7.4-5.8,8.1c-8.9,1.6-17.7,3.1-26.6,4.7c-4.3,0.8-7.4-1.3-8.2-5.9
		c-1-5.7-2-11.4-3.1-17c-1-5.8-2.1-11.7-3.1-17.5c-0.7-4,1.4-7.2,5.3-8c9.2-1.7,18.3-3.3,27.6-4.9c4.1-0.6,7.1,1.7,7.8,5.8
		C161.7,235.8,163.8,247.5,165.8,259z M178.1,269.9c-2.7-2-5.4-2.7-8-5c-1.9-1.3-2.2-4.1-2.9-8c-1.9-10.8-3.9-21.7-5.9-32.7
		c-1-5.7-4.9-8.5-10.6-7.4c-8.4,1.4-16.6,2.9-25,4.3c-1.4,0.2-2.8,0.2-4.2,0.2c12.6-2.7,25-4.9,37.6-7.1c5.7-1,9.4,1.6,10.5,7.3
		c2.5,14,4.9,28.1,7.4,42.1C177.1,264.4,178.3,269.8,178.1,269.9z M144.6,236.3L144.6,236.3l-7-7.8l-4.3,0.8l2.9,16.3l3.9-0.7
		l-1.7-9.6l0.1,0l7.4,8.5l3.8-0.7l-2.9-16.3l-3.9,0.7L144.6,236.3L144.6,236.3z M380.9,96.6c14.7-2.6,29.3-5.2,44.1-7.8
		c6.3-1.1,9.5-5.6,8.4-11.9c-1.4-7.7-2.7-15.5-4.1-23.2c-1.3-7.6-2.7-15.3-4-22.8c-1.3-6.6-5.7-9.7-12.3-8.5
		c-14.6,2.6-29.2,5.1-43.7,7.7c-6.5,1.1-9.7,5.7-8.5,12.1c2.7,15.4,5.4,30.7,8.1,46.1C370,94.6,374.5,97.7,380.9,96.6z M413.2,23.9
		c5.7-1,9.4,1.6,10.5,7.3c2.5,14,4.9,28.1,7.4,42.1c0.1,0.6,1.2,6,1,6.1c-2.7-2-5.4-2.7-8-5c-1.9-1.3-2.2-4.1-2.9-8
		c-1.9-10.8-3.9-21.7-5.9-32.7c-1-5.7-4.9-8.5-10.6-7.4c-8.4,1.4-16.6,2.9-25,4.3c-1.4,0.2-2.8,0.2-4.2,0.2
		C388.2,28.4,400.7,26.1,413.2,23.9z M373.3,40.8c-0.7-4,1.4-7.2,5.3-8c9.2-1.7,18.3-3.3,27.6-4.9c4.1-0.6,7.1,1.7,7.8,5.8
		c2,11.5,4.1,23.1,6.1,34.7c0.7,4.2-1.4,7.4-5.8,8.1c-8.9,1.6-17.7,3.1-26.6,4.7c-4.3,0.8-7.4-1.3-8.2-5.9c-1-5.7-2-11.4-3.1-17
		C375.3,52.6,374.3,46.7,373.3,40.8z M394.5,48.9l3.6-0.6c1.1-0.2,2-0.4,2.6-0.9c0.6-0.4,1.1-0.9,1.3-1.4c0.2-0.5,0.4-1.2,0.4-1.9
		c0-0.7,0-1.4-0.2-2.3c-0.2-0.9-0.4-1.7-0.6-2.3c-0.2-0.7-0.6-1.2-1-1.7c-0.5-0.4-1-0.6-1.7-0.8c-0.7-0.1-1.5-0.1-2.6,0.1l-7.9,1.4
		l2.9,16.3l4.1-0.7L394.5,48.9L394.5,48.9z M393.1,41l2.2-0.4c0.6-0.1,1-0.2,1.3-0.1c0.3,0,0.6,0.1,0.7,0.2c0.2,0.2,0.4,0.3,0.4,0.6
		c0.1,0.3,0.2,0.7,0.3,1.3c0.1,0.5,0.2,0.9,0.1,1.2c0.1,0.3,0,0.6-0.2,0.7c-0.2,0.2-0.3,0.4-0.6,0.4c-0.3,0.2-0.8,0.2-1.4,0.3
		l-2.1,0.4L393.1,41z M425.9,92.9c-14.6,2.6-29.2,5.1-43.7,7.7c-6.5,1.1-9.7,5.7-8.5,12.1c2.7,15.4,5.4,30.7,8.1,46.1
		c1.1,6.4,5.7,9.4,12,8.3c14.7-2.6,29.3-5.2,44.1-7.8c6.3-1.1,9.5-5.6,8.4-11.9c-1.4-7.7-2.7-15.5-4.1-23.2
		c-1.3-7.6-2.7-15.3-4-22.8C436.9,94.8,432.5,91.7,425.9,92.9z M432.7,139.1c0.7,4.2-1.4,7.4-5.8,8.1c-8.9,1.6-17.7,3.1-26.6,4.7
		c-4.3,0.8-7.4-1.3-8.2-5.9c-1-5.7-2-11.4-3.1-17c-1-5.8-2.1-11.7-3.1-17.5c-0.7-4,1.4-7.2,5.3-8c9.2-1.7,18.3-3.3,27.6-4.9
		c4.1-0.6,7.1,1.7,7.8,5.8C428.6,116,430.7,127.6,432.7,139.1z M445,150c-2.7-2-5.4-2.7-8-5c-1.9-1.3-2.2-4.1-2.9-8
		c-1.9-10.8-3.9-21.7-5.9-32.7c-1-5.7-4.9-8.5-10.6-7.4c-8.4,1.4-16.6,2.9-25,4.3c-1.4,0.2-2.8,0.2-4.2,0.2
		c12.6-2.7,25-4.9,37.6-7.1c5.7-1,9.4,1.6,10.5,7.3c2.5,14,4.9,28.1,7.4,42.1C444.1,144.4,445.2,149.9,445,150z M414.6,123.7
		l1.5-0.3l0.1,0.4c0.1,0.4,0.1,0.8,0.1,1c-0.1,0.2-0.1,0.4-0.4,0.6c-0.2,0.1-0.6,0.2-1.1,0.3l0.3,1.5c0.9-0.2,1.7-0.4,2.2-0.6
		c0.6-0.2,0.9-0.6,1.2-0.9c0.2-0.3,0.4-0.9,0.3-1.5c0-0.6-0.1-1.3-0.3-2.2l-0.5-2.6l-4,0.7L414.6,123.7L414.6,123.7z M401.4,126.1
		l4-0.7l-0.6-3.4l-4,0.7L401.4,126.1z M413.1,115.1l4-0.7l-0.6-3.4l-4,0.7L413.1,115.1z M399.9,117.4l4-0.7l-0.6-3.4l-4,0.7
		L399.9,117.4z M410.1,197.7l2.7-0.5l2.9-16.5l-2.7,0.5L410.1,197.7z M426.2,194.5l3.7-0.7l-0.6-3.2l-3.7,0.7L426.2,194.5z
		 M429.7,179.1c-0.4-0.2-1-0.3-1.6-0.3c-0.6,0-1.3,0-2,0.2c-0.5,0.1-1,0.2-1.5,0.3c-0.5,0.1-1.1,0.3-1.6,0.4c-0.5,0.2-1,0.3-1.3,0.4
		l0.5,2.7c0.2,0,0.5-0.2,0.8-0.2c0.3-0.1,0.6-0.1,0.9-0.3c0.3-0.1,0.6-0.1,0.9-0.3c0.3-0.1,0.6-0.1,0.8-0.1c0.5-0.1,0.9-0.2,1.2-0.1
		c0.3-0.1,0.5,0.1,0.7,0.3s0.3,0.5,0.4,0.9s0.1,0.7,0.1,0.9c-0.1,0.2-0.1,0.3-0.2,0.4c-0.1,0.1-0.4,0.3-0.6,0.4l-0.7,0.3
		c-0.3,0.2-0.5,0.4-0.8,0.6c-0.2,0.2-0.3,0.5-0.4,0.9c0,0.3-0.1,0.8,0,1.4l0.3,1.5l3.2-0.6l-0.1-0.7c-0.1-0.3-0.1-0.5-0.1-0.7
		s0-0.3,0-0.4s0.2-0.2,0.3-0.2c0.1-0.1,0.3-0.2,0.6-0.3l0.6-0.4c0.3-0.2,0.6-0.3,0.7-0.5c0.3-0.2,0.4-0.5,0.6-0.7
		c0.1-0.3,0.2-0.6,0.2-1.1c0-0.4,0-0.9-0.1-1.5c-0.1-0.8-0.4-1.5-0.7-2C430.6,179.8,430.2,179.4,429.7,179.1z M438.3,163.5
		c-14.6,2.6-29.2,5.1-43.7,7.7c-6.5,1.1-9.7,5.7-8.5,12.1c2.7,15.4,5.4,30.7,8.1,46.1c1.1,6.4,5.7,9.4,12,8.3
		c14.7-2.6,29.3-5.2,44.1-7.8c6.3-1.1,9.5-5.6,8.4-11.9c-1.4-7.7-2.7-15.5-4.1-23.2c-1.3-7.6-2.7-15.3-4-22.8
		C449.4,165.5,444.9,162.3,438.3,163.5z M445.2,209.7c0.7,4.2-1.4,7.4-5.8,8.1c-8.9,1.6-17.7,3.1-26.6,4.7c-4.3,0.8-7.4-1.3-8.2-5.9
		c-1-5.7-2-11.4-3.1-17c-1-5.8-2.1-11.7-3.1-17.5c-0.7-4,1.4-7.2,5.3-8c9.2-1.7,18.3-3.3,27.6-4.9c4.1-0.6,7.1,1.7,7.8,5.8
		C441.1,186.6,443.1,198.2,445.2,209.7z M457.5,220.7c-2.7-2-5.4-2.7-8-5c-1.9-1.3-2.2-4.1-2.9-8c-1.9-10.8-3.9-21.7-5.9-32.7
		c-1-5.7-4.9-8.5-10.6-7.4c-8.4,1.4-16.6,2.9-25,4.3c-1.4,0.2-2.8,0.2-4.2,0.2c12.6-2.7,25-4.9,37.6-7.1c5.7-1,9.4,1.6,10.5,7.3
		c2.5,14,4.9,28.1,7.4,42.1C456.6,215.1,457.6,220.5,457.5,220.7z M176.9,65.8c0.3,0.6,0.8,1,1.3,1.2c0.5,0.2,1.2,0.4,2.1,0.3
		c0.9-0.1,1.8-0.1,3.1-0.3c1.3-0.2,2.2-0.5,3-0.7c0.8-0.3,1.4-0.7,1.8-1c0.4-0.4,0.7-0.9,0.8-1.6c0.1-0.6,0.2-1.3,0.1-2.3
		c-0.1-0.9-0.2-1.9-0.4-3.1l-1.6-9l-4.1,0.7l1.7,9.8c0.1,0.8,0.2,1.4,0.3,1.9c0.1,0.5,0,0.8-0.1,1.1c-0.2,0.2-0.3,0.5-0.6,0.6
		c-0.3,0.2-0.8,0.2-1.4,0.3c-0.6,0.1-1,0.2-1.4,0.1c-0.3,0-0.6-0.1-0.8-0.4c-0.2-0.2-0.3-0.6-0.5-1c-0.2-0.5-0.3-1.1-0.4-1.9
		l-1.7-9.8l-4.1,0.7l1.6,9c0.2,1.2,0.4,2.3,0.6,3C176.3,64.5,176.6,65.3,176.9,65.8z M167,109.5c14.7-2.6,29.3-5.2,44.1-7.8
		c6.3-1.1,9.5-5.6,8.4-11.9c-1.4-7.7-2.7-15.5-4.1-23.2c-1.3-7.6-2.7-15.3-4-22.8c-1.2-6.5-5.6-9.7-12.3-8.5
		c-14.6,2.6-29.2,5.1-43.7,7.7c-6.5,1.1-9.7,5.7-8.5,12.1c2.7,15.4,5.4,30.7,8.1,46.1C156.1,107.6,160.6,110.6,167,109.5z
		 M199.3,36.9c5.7-1,9.4,1.6,10.5,7.3c2.5,14,4.9,28.1,7.4,42.1c0.1,0.6,1.2,6,1,6.1c-2.7-2-5.4-2.7-8-5c-1.9-1.3-2.2-4.1-2.9-8
		c-1.9-10.8-3.9-21.7-5.9-32.7c-1-5.7-4.9-8.5-10.6-7.4c-8.4,1.4-16.6,2.9-25,4.3c-1.4,0.2-2.8,0.2-4.2,0.2
		C174.3,41.3,186.7,39.1,199.3,36.9z M159.3,53.8c-0.7-4,1.4-7.2,5.3-8c9.2-1.7,18.3-3.3,27.6-4.9c4.1-0.6,7.1,1.7,7.8,5.8
		c2,11.5,4.1,23.1,6.1,34.7c0.7,4.2-1.4,7.4-5.8,8.1c-8.9,1.6-17.7,3.1-26.6,4.7c-4.3,0.8-7.4-1.3-8.2-5.9c-1-5.7-2-11.4-3.1-17
		C161.3,65.5,160.3,59.6,159.3,53.8z M194,131.3c0.1,0.8,0.2,1.4,0.2,1.8c0,0.4-0.1,0.8-0.2,1.1s-0.4,0.4-0.9,0.6s-1.1,0.3-2,0.4
		l0.5,3c1.5-0.3,2.7-0.5,3.5-0.7c0.9-0.3,1.6-0.5,2.1-0.9c0.5-0.3,0.8-0.7,1-1.4c0.2-0.5,0.2-1.3,0.1-2.3c-0.1-0.9-0.3-2.1-0.5-3.5
		l-1.6-9l-4.1,0.7L194,131.3L194,131.3z M228.3,137.2c-1.3-7.6-2.7-15.3-4-22.8c-1.3-6.6-5.7-9.7-12.3-8.5
		c-14.6,2.6-29.2,5.1-43.7,7.7c-6.5,1.1-9.7,5.7-8.5,12.1c2.7,15.4,5.4,30.7,8.1,46.1c1.1,6.4,5.7,9.4,12,8.3
		c14.7-2.6,29.3-5.2,44.1-7.8c6.3-1.1,9.5-5.6,8.4-11.9C231,152.7,229.7,145.1,228.3,137.2z M218.8,152c0.7,4.2-1.4,7.4-5.8,8.1
		c-8.9,1.6-17.7,3.1-26.6,4.7c-4.3,0.8-7.4-1.3-8.2-5.9c-1-5.7-2-11.4-3.1-17c-1-5.8-2.1-11.7-3.1-17.5c-0.7-4,1.4-7.2,5.3-8
		c9.2-1.7,18.3-3.3,27.6-4.9c4.1-0.6,7.1,1.7,7.8,5.8C214.7,128.9,216.8,140.5,218.8,152z M231,163c-2.7-2-5.4-2.7-8-5
		c-1.9-1.3-2.2-4.1-2.9-8c-1.9-10.8-3.9-21.7-5.9-32.7c-1-5.7-4.9-8.5-10.6-7.4c-8.4,1.4-16.6,2.9-25,4.3c-1.4,0.2-2.8,0.2-4.2,0.2
		c12.6-2.7,25-4.9,37.6-7.1c5.7-1,9.4,1.6,10.5,7.3c2.5,14,4.9,28.1,7.4,42.1C230.1,157.4,231.2,162.9,231,163z M224.3,176.5
		c-14.6,2.6-29.2,5.1-43.7,7.7c-6.5,1.1-9.7,5.7-8.5,12.1c2.7,15.4,5.4,30.7,8.1,46.1c1.1,6.4,5.7,9.4,12,8.3
		c14.7-2.6,29.3-5.2,44.1-7.8c6.3-1.1,9.5-5.6,8.4-11.9c-1.4-7.7-2.7-15.5-4.1-23.2c-1.3-7.6-2.7-15.3-4-22.8
		C235.5,178.5,231,175.3,224.3,176.5z M231.3,222.7c0.7,4.2-1.4,7.4-5.8,8.1c-8.9,1.6-17.7,3.1-26.6,4.7c-4.3,0.8-7.4-1.3-8.2-5.9
		c-1-5.7-2-11.4-3.1-17c-1-5.8-2.1-11.7-3.1-17.5c-0.7-4,1.4-7.2,5.3-8c9.2-1.7,18.3-3.3,27.6-4.9c4.1-0.6,7.1,1.7,7.8,5.8
		C227.2,199.5,229.2,211.1,231.3,222.7z M243.5,233.6c-2.7-2-5.4-2.7-8-5c-1.9-1.3-2.2-4.1-2.9-8c-1.9-10.8-3.9-21.7-5.9-32.7
		c-1-5.7-4.9-8.5-10.6-7.4c-8.4,1.4-16.6,2.9-25,4.3c-1.4,0.2-2.8,0.2-4.2,0.2c12.6-2.7,25-4.9,37.6-7.1c5.7-1,9.4,1.6,10.5,7.3
		c2.5,14,4.9,28.1,7.4,42.1C242.6,228.1,243.6,233.5,243.5,233.6z M207.4,201.5l-0.2,0l-5-9.2l-5.6,1l2.9,16.3l4-0.7l-1.9-10.6
		l0.2,0l5.4,10l2.8-0.5l1.7-11.3l0.2,0l1.9,10.6l3.8-0.7l-2.9-16.3l-5.7,1L207.4,201.5z M307.5,84.7c14.7-2.6,29.3-5.2,44.1-7.8
		c6.3-1.1,9.5-5.6,8.4-11.9c-1.4-7.7-2.7-15.5-4.1-23.2c-1.3-7.6-2.7-15.3-4-22.8c-1.3-6.6-5.7-9.7-12.3-8.5
		c-14.6,2.6-29.2,5.1-43.7,7.7c-6.5,1.1-9.7,5.7-8.5,12.1c2.7,15.4,5.4,30.7,8.1,46.1C296.5,82.8,301.1,85.9,307.5,84.7z
		 M339.8,12.1c5.7-1,9.4,1.6,10.5,7.3c2.5,14,4.9,28.1,7.4,42.1c0.1,0.6,1.2,6,1,6.1c-2.7-2-5.4-2.7-8-5c-1.9-1.3-2.2-4.1-2.9-8
		c-1.9-10.8-3.9-21.7-5.9-32.7c-1-5.7-4.9-8.5-10.6-7.4c-8.4,1.4-16.6,2.9-25,4.3c-1.4,0.2-2.8,0.2-4.2,0.2
		C314.6,16.6,327.2,14.3,339.8,12.1z M299.7,29c-0.7-4,1.4-7.2,5.3-8c9.2-1.7,18.3-3.3,27.6-4.9c4.1-0.6,7.1,1.7,7.8,5.8
		c2,11.5,4.1,23.1,6.1,34.7c0.7,4.2-1.4,7.4-5.8,8.1c-8.9,1.6-17.7,3.1-26.6,4.7c-4.3,0.8-7.4-1.3-8.2-5.9c-1-5.7-2-11.4-3.1-17
		C301.8,40.8,300.7,34.8,299.7,29z M316.7,40.9c0.3,0.7,0.8,1.1,1.4,1.4c0.6,0.3,1.3,0.5,2.2,0.4c0.9,0,2-0.2,3.4-0.4
		s2.4-0.5,3.3-0.8c0.9-0.4,1.5-0.7,1.9-1.2c0.4-0.5,0.7-1,0.8-1.8c0.1-0.7,0.1-1.5,0-2.4c-0.1-1-0.3-2.1-0.5-3.4
		c-0.2-1.3-0.4-2.5-0.7-3.3c-0.3-1-0.5-1.7-0.8-2.3c-0.3-0.7-0.8-1.1-1.4-1.4c-0.6-0.3-1.3-0.5-2.2-0.4c-0.9,0-2,0.2-3.4,0.4
		c-1.4,0.2-2.4,0.5-3.3,0.8c-0.9,0.4-1.5,0.7-1.9,1.2c-0.4,0.5-0.7,1-0.8,1.8c-0.1,0.7-0.1,1.5,0,2.4c0.1,1,0.3,2.1,0.5,3.4
		c0.2,1.3,0.4,2.5,0.7,3.3C316.1,39.4,316.4,40.2,316.7,40.9z M319,31.9c-0.1-0.7-0.1-1.2-0.1-1.5c0-0.4,0.1-0.7,0.4-0.9
		c0.2-0.2,0.4-0.4,0.8-0.5s0.8-0.1,1.4-0.2c0.6-0.1,1-0.2,1.4-0.2s0.6,0,0.9,0.1c0.2,0.2,0.5,0.3,0.6,0.7c0.2,0.4,0.4,0.9,0.5,1.4
		c0.1,0.7,0.3,1.5,0.4,2.5c0.2,1,0.3,1.9,0.4,2.5c0.1,0.7,0.1,1.2,0.1,1.5c0,0.4-0.2,0.7-0.4,0.9c-0.2,0.2-0.4,0.4-0.8,0.5
		s-0.8,0.1-1.4,0.2s-1,0.2-1.4,0.2s-0.7,0-0.9-0.1c-0.2-0.2-0.5-0.3-0.6-0.7s-0.4-0.9-0.5-1.4c-0.1-0.7-0.3-1.5-0.4-2.5
		C319.1,33.4,319,32.5,319,31.9z M352.3,81.1c-14.6,2.6-29.2,5.1-43.7,7.7c-6.5,1.1-9.7,5.7-8.5,12.1c2.7,15.4,5.4,30.7,8.1,46.1
		c1.1,6.4,5.7,9.4,12,8.3c14.7-2.6,29.3-5.2,44.1-7.8c6.3-1.1,9.5-5.6,8.4-11.9c-1.4-7.7-2.7-15.5-4.1-23.2
		c-1.3-7.6-2.7-15.3-4-22.8C363.4,83,359,79.9,352.3,81.1z M359.3,127.3c0.7,4.2-1.4,7.4-5.8,8.1c-8.9,1.6-17.7,3.1-26.6,4.7
		c-4.3,0.8-7.4-1.3-8.2-5.9c-1-5.7-2-11.4-3.1-17c-1-5.8-2.1-11.7-3.1-17.5c-0.7-4,1.4-7.2,5.3-8c9.2-1.7,18.3-3.3,27.6-4.9
		c4.1-0.6,7.1,1.7,7.8,5.8C355.2,104.1,357.2,115.8,359.3,127.3z M371.4,138.2c-2.7-2-5.4-2.7-8-5c-1.9-1.3-2.2-4.1-2.9-8
		c-1.9-10.8-3.9-21.7-5.9-32.7c-1-5.7-4.9-8.5-10.6-7.4c-8.4,1.4-16.6,2.9-25,4.3c-1.4,0.2-2.8,0.2-4.2,0.2
		c12.6-2.7,25-4.9,37.6-7.1c5.7-1,9.4,1.6,10.5,7.3c2.5,14,4.9,28.1,7.4,42.1C370.6,132.6,371.6,138.1,371.4,138.2z M333.1,96.5
		l-4.1,0.7l2.9,16.3l10.5-1.9l-0.6-3.3l-6.4,1.1L333.1,96.5z M364.8,151.7c-14.6,2.6-29.2,5.1-43.7,7.7c-6.5,1.1-9.7,5.7-8.5,12.1
		c2.7,15.4,5.4,30.7,8.1,46.1c1.1,6.4,5.7,9.4,12,8.3c14.7-2.6,29.3-5.2,44.1-7.8c6.3-1.1,9.5-5.6,8.4-11.9
		c-1.4-7.7-2.7-15.5-4.1-23.2c-1.3-7.6-2.7-15.3-4-22.8C375.9,153.7,371.5,150.5,364.8,151.7z M371.7,197.9c0.7,4.2-1.4,7.4-5.8,8.1
		c-8.9,1.6-17.7,3.1-26.6,4.7c-4.3,0.8-7.4-1.3-8.2-5.9c-1-5.7-2-11.4-3.1-17c-1-5.8-2.1-11.7-3.1-17.5c-0.7-4,1.4-7.2,5.3-8
		c9.2-1.7,18.3-3.3,27.6-4.9c4.1-0.6,7.1,1.7,7.8,5.8C367.6,174.8,369.7,186.4,371.7,197.9z M383.9,208.8c-2.7-2-5.4-2.7-8-5
		c-1.9-1.3-2.2-4.1-2.9-8c-1.9-10.8-3.9-21.7-5.9-32.7c-1-5.7-4.9-8.5-10.6-7.4c-8.4,1.4-16.6,2.9-25,4.3c-1.4,0.2-2.8,0.2-4.2,0.2
		c12.6-2.7,25-4.9,37.6-7.1c5.7-1,9.4,1.6,10.5,7.3c2.5,14,4.9,28.1,7.4,42.1C383,203.3,384.1,208.7,383.9,208.8z M336.6,179.9
		l4-0.7l-0.6-3.4l-4,0.7L336.6,179.9z M349.3,174.8l6.6,1.1l-5.8,3.3l0.5,2.8l8.9-5.2l-0.5-2.8l-10.2-1.9L349.3,174.8z M233.9,78.1
		c14.7-2.6,29.3-5.2,44.1-7.8c6.3-1.1,9.5-5.6,8.4-11.9c-1.4-7.7-2.7-15.5-4.1-23.2c-1.3-7.6-2.7-15.3-4-22.8
		c-1.3-6.6-5.7-9.7-12.3-8.5c-14.6,2.6-29.2,5.1-43.7,7.7c-6.5,1.1-9.7,5.7-8.5,12.1c2.7,15.4,5.4,30.7,8.1,46.1
		C223,76.2,227.5,79.2,233.9,78.1z M266.2,5.5c5.7-1,9.4,1.6,10.5,7.3c2.5,14,4.9,28.1,7.4,42.1c0.1,0.6,1.2,6,1,6.1
		c-2.7-2-5.4-2.7-8-5c-1.9-1.3-2.2-4.1-2.9-8c-1.9-10.8-3.9-21.7-5.9-32.7c-1-5.7-4.9-8.5-10.6-7.4c-8.4,1.4-16.6,2.9-25,4.3
		c-1.4,0.2-2.8,0.2-4.2,0.2C241.2,9.9,253.6,7.7,266.2,5.5z M226.1,22.4c-0.7-4,1.4-7.2,5.3-8c9.2-1.7,18.3-3.3,27.6-4.9
		c4.1-0.6,7.1,1.7,7.8,5.8c2,11.5,4.1,23.1,6.1,34.7c0.7,4.2-1.4,7.4-5.8,8.1c-8.9,1.6-17.7,3.1-26.6,4.7c-4.3,0.8-7.4-1.3-8.2-5.9
		c-1-5.7-2-11.4-3.1-17C228.2,34.1,227.1,28.2,226.1,22.4z M249.3,18.7l-4.1,0.7l2.9,16.3l4.1-0.7L249.3,18.7z M267.9,88.4l-4.4,0.8
		l-3.3,7.3l-1.2,0.2l-1.1-6.5l-4.1,0.7l2.9,16.3l4.1-0.7l-1.2-6.8l1.2-0.2l5.5,6l4.6-0.8l-7.1-7.6L267.9,88.4z M278.8,74.5
		c-14.6,2.6-29.2,5.1-43.7,7.7c-6.5,1.1-9.7,5.7-8.5,12.1c2.7,15.4,5.4,30.7,8.1,46.1c1.1,6.4,5.7,9.4,12,8.3
		c14.7-2.6,29.3-5.2,44.1-7.8c6.3-1.1,9.5-5.6,8.4-11.9c-1.4-7.7-2.7-15.5-4.1-23.2c-1.3-7.6-2.7-15.3-4-22.8
		C289.9,76.4,285.5,73.3,278.8,74.5z M285.7,120.7c0.7,4.2-1.4,7.4-5.8,8.1c-8.9,1.6-17.7,3.1-26.6,4.7c-4.3,0.8-7.4-1.3-8.2-5.9
		c-1-5.7-2-11.4-3.1-17c-1-5.8-2.1-11.7-3.1-17.5c-0.7-4,1.4-7.2,5.3-8c9.2-1.7,18.3-3.3,27.6-4.9c4.1-0.6,7.1,1.7,7.8,5.8
		C281.6,97.5,283.7,109.1,285.7,120.7z M297.9,131.6c-2.7-2-5.4-2.7-8-5c-1.9-1.3-2.2-4.1-2.9-8c-1.9-10.8-3.9-21.7-5.9-32.7
		c-1-5.7-4.9-8.5-10.6-7.4c-8.4,1.4-16.6,2.9-25,4.3c-1.4,0.2-2.8,0.2-4.2,0.2c12.6-2.7,25-4.9,37.6-7.1c5.7-1,9.4,1.6,10.5,7.3
		c2.5,14,4.9,28.1,7.4,42.1C297,126,298.1,131.5,297.9,131.6z M291.2,145.1c-14.6,2.6-29.2,5.1-43.7,7.7c-6.5,1.1-9.7,5.7-8.5,12.1
		c2.7,15.4,5.4,30.7,8.1,46.1c1.1,6.4,5.7,9.4,12,8.3c14.7-2.6,29.3-5.2,44.1-7.8c6.3-1.1,9.5-5.6,8.4-11.9
		c-1.4-7.7-2.7-15.5-4.1-23.2c-1.3-7.6-2.7-15.3-4-22.8C302.3,147.1,297.9,143.9,291.2,145.1z M298.1,191.3c0.7,4.2-1.4,7.4-5.8,8.1
		c-8.9,1.6-17.7,3.1-26.6,4.7c-4.3,0.8-7.4-1.3-8.2-5.9c-1-5.7-2-11.4-3.1-17c-1-5.8-2.1-11.7-3.1-17.5c-0.7-4,1.4-7.2,5.3-8
		c9.2-1.7,18.3-3.3,27.6-4.9c4.1-0.6,7.1,1.7,7.8,5.8C294.1,168.1,296.1,179.7,298.1,191.3z M310.3,202.2c-2.7-2-5.4-2.7-8-5
		c-1.9-1.3-2.2-4.1-2.9-8c-1.9-10.8-3.9-21.7-5.9-32.7c-1-5.7-4.9-8.5-10.6-7.4c-8.4,1.4-16.6,2.9-25,4.3c-1.4,0.2-2.8,0.2-4.2,0.2
		c12.6-2.7,25-4.9,37.6-7.1c5.7-1,9.4,1.6,10.5,7.3c2.5,14,4.9,28.1,7.4,42.1C309.5,196.7,310.5,202.1,310.3,202.2z M276.4,171.7
		l10.2,1.9l-0.5-2.8l-6.7-1.1l5.9-3.3l-0.5-2.8l-8.9,5.2L276.4,171.7z M263,173.3l1.5-0.3l0.1,0.4c0.1,0.4,0.1,0.8,0.1,1
		c-0.1,0.2-0.1,0.4-0.4,0.6c-0.2,0.1-0.6,0.2-1.1,0.3l0.3,1.5c0.9-0.2,1.7-0.4,2.2-0.6c0.6-0.2,0.9-0.6,1.2-0.9
		c0.2-0.3,0.4-0.9,0.3-1.5c0-0.6-0.1-1.3-0.3-2.2l-0.5-2.6l-4,0.7L263,173.3L263,173.3z M481.2,58.6l-2.8,0.5l2.3,12.8l2.8-0.5
		L481.2,58.6z M470.9,72.2c0.2,0.4,0.5,0.6,0.8,0.8c0.3,0.1,0.9,0.3,1.4,0.3c0.5,0,1.2,0,2.1-0.2c0.4-0.1,0.8-0.1,1.2-0.2
		s0.8-0.2,1.2-0.3c0.4-0.1,0.7-0.2,0.9-0.3l-0.3-2c-0.3,0.1-0.6,0.1-0.9,0.3c-0.3,0.1-0.6,0.1-0.9,0.3c-0.3,0.1-0.6,0.1-0.8,0.1
		c-0.5,0.1-1,0.2-1.3,0.1c-0.3,0.1-0.5,0-0.7-0.1c-0.2-0.1-0.2-0.3-0.4-0.4c0-0.2-0.2-0.6-0.3-1l5.3-0.9l-0.1-0.7
		c-0.1-0.7-0.2-1.3-0.4-1.8c-0.1-0.5-0.3-0.9-0.4-1.2c-0.2-0.4-0.4-0.6-0.7-0.8c-0.3-0.1-0.8-0.3-1.3-0.3c-0.5,0-1.1,0-1.9,0.1
		c-1,0.2-1.7,0.4-2.2,0.7s-0.9,0.7-1.1,1c-0.2,0.4-0.2,1-0.2,1.5c0,0.6,0.1,1.3,0.3,2.1c0.1,0.7,0.2,1.3,0.4,1.8
		C470.4,71.4,470.6,71.9,470.9,72.2z M472.4,67c-0.1-0.3,0-0.4,0.1-0.6c0.1-0.1,0.2-0.2,0.4-0.3c0.2,0,0.4-0.2,0.8-0.2
		c0.3-0.1,0.5-0.1,0.6,0c0.2,0,0.3,0,0.4,0.1c0.1,0.1,0.2,0.3,0.3,0.6c0.1,0.3,0.2,0.6,0.3,1l-2.7,0.5
		C472.5,67.6,472.5,67.3,472.4,67z M466.2,74.3c0.7-0.2,1.1-0.5,1.5-0.9s0.6-0.7,0.6-1.2c0.1-0.5,0.1-1,0-1.7
		c-0.1-0.7-0.2-1.5-0.3-2.5c-0.2-1-0.3-1.8-0.5-2.4c-0.1-0.7-0.4-1.2-0.6-1.6c-0.3-0.5-0.6-0.7-1-0.9c-0.4-0.2-1-0.3-1.7-0.3
		c-0.7,0-1.5,0.1-2.6,0.3l-4.1,0.7l2.1,11.9l4.1-0.7C464.7,74.7,465.5,74.5,466.2,74.3z M462.1,72.8l-1.3-7.3l1.1-0.2
		c0.5-0.1,0.9-0.2,1.2-0.2c0.3-0.1,0.5,0,0.7,0.1c0.2,0.1,0.3,0.2,0.5,0.5s0.2,0.6,0.3,1.1s0.2,1.1,0.3,1.8c0.1,0.7,0.2,1.3,0.3,1.8
		c0.1,0.5,0,0.8,0.1,1.1c0,0.3-0.1,0.4-0.3,0.7c-0.2,0.1-0.4,0.3-0.7,0.3c-0.3,0.1-0.7,0.1-1.2,0.2
		C463.1,72.6,462.1,72.8,462.1,72.8z M456.6,118.1c14.7-2.6,29.3-5.2,44.1-7.8c6.3-1.1,9.5-5.6,8.4-11.9c-1.4-7.7-2.7-15.5-4.1-23.2
		c-1.3-7.6-2.7-15.3-4-22.8c-1.3-6.6-5.7-9.7-12.3-8.5c-14.6,2.6-29.2,5.1-43.7,7.7c-6.5,1.1-9.7,5.7-8.5,12.1
		c2.7,15.4,5.4,30.7,8.1,46.1C445.6,116.2,450.2,119.3,456.6,118.1z M488.9,45.5c5.7-1,9.4,1.6,10.5,7.3c2.5,14,4.9,28.1,7.4,42.1
		c0.1,0.6,1.2,6,1,6.1c-2.7-2-5.4-2.7-8-5c-1.9-1.3-2.2-4.1-2.9-8c-1.9-10.8-3.9-21.7-5.9-32.7c-1-5.7-4.9-8.5-10.6-7.4
		c-8.4,1.4-16.6,2.9-25,4.3c-1.4,0.2-2.8,0.2-4.2,0.2C463.8,50,476.3,47.8,488.9,45.5z M448.9,62.4c-0.7-4,1.4-7.2,5.3-8
		c9.2-1.7,18.3-3.3,27.6-4.9c4.1-0.6,7.1,1.7,7.8,5.8c2,11.5,4.1,23.1,6.1,34.7c0.7,4.2-1.4,7.4-5.8,8.1c-8.9,1.6-17.7,3.1-26.6,4.7
		c-4.3,0.8-7.4-1.3-8.2-5.9c-1-5.7-2-11.4-3.1-17C450.9,74.2,449.9,68.3,448.9,62.4z M501.5,114.5c-14.6,2.6-29.2,5.1-43.7,7.7
		c-6.5,1.1-9.7,5.7-8.5,12.1c2.7,15.4,5.4,30.7,8.1,46.1c1.1,6.4,5.7,9.4,12,8.3c14.7-2.6,29.3-5.2,44.1-7.8
		c6.3-1.1,9.5-5.6,8.4-11.9c-1.4-7.7-2.7-15.5-4.1-23.2c-1.3-7.6-2.7-15.3-4-22.8C512.5,116.4,508.2,113.3,501.5,114.5z
		 M508.3,160.7c0.7,4.2-1.4,7.4-5.8,8.1c-8.9,1.6-17.7,3.1-26.6,4.7c-4.3,0.8-7.4-1.3-8.2-5.9c-1-5.7-2-11.4-3.1-17
		c-1-5.8-2.1-11.7-3.1-17.5c-0.7-4,1.4-7.2,5.3-8c9.2-1.7,18.3-3.3,27.6-4.9c4.1-0.6,7.1,1.7,7.8,5.8
		C504.2,137.6,506.3,149.2,508.3,160.7z M520.6,171.6c-2.7-2-5.4-2.7-8-5c-1.9-1.3-2.2-4.1-2.9-8c-1.9-10.8-3.9-21.7-5.9-32.7
		c-1-5.7-4.9-8.5-10.6-7.4c-8.4,1.4-16.6,2.9-25,4.3c-1.4,0.2-2.8,0.2-4.2,0.2c12.6-2.7,25-4.9,37.6-7.1c5.7-1,9.4,1.6,10.5,7.3
		c2.5,14,4.9,28.1,7.4,42.1C519.7,166,520.8,171.5,520.6,171.6z M482.1,127.4l-0.2,0.1l-0.2-0.1l0.1,0.3l-6.8,8.5l1,5.8l4.9-6.1
		l2.1,11.7l4.8-0.9l-2.1-11.8l6.7,4.1l-1-5.8l-9.3-5.7L482.1,127.4L482.1,127.4z M506.6,207.5l-8.5-6.8l-5.8,1l6.1,4.9l-11.7,2.1
		l0.9,4.8l11.7-2.1l-4.1,6.7l5.8-1l5.7-9.3l0.3-0.1l-0.1-0.2l0.1-0.2L506.6,207.5L506.6,207.5z M513.9,185.1
		c-14.6,2.6-29.2,5.1-43.7,7.7c-6.5,1.1-9.7,5.7-8.5,12.1c2.7,15.4,5.4,30.7,8.1,46.1c1.1,6.4,5.7,9.4,12,8.3
		c14.7-2.6,29.3-5.2,44.1-7.8c6.3-1.1,9.5-5.6,8.4-11.9c-1.4-7.7-2.7-15.5-4.1-23.2c-1.3-7.6-2.7-15.3-4-22.8
		C525,187.1,520.6,183.9,513.9,185.1z M520.8,231.3c0.7,4.2-1.4,7.4-5.8,8.1c-8.9,1.6-17.7,3.1-26.6,4.7c-4.3,0.8-7.4-1.3-8.2-5.9
		c-1-5.7-2-11.4-3.1-17c-1-5.8-2.1-11.7-3.1-17.5c-0.7-4,1.4-7.2,5.3-8c9.2-1.7,18.3-3.3,27.6-4.9c4.1-0.6,7.1,1.7,7.8,5.8
		C516.7,208.2,518.7,219.8,520.8,231.3z M533.1,242.3c-2.7-2-5.4-2.7-8-5c-1.9-1.3-2.2-4.1-2.9-8c-1.9-10.8-3.9-21.7-5.9-32.7
		c-1-5.7-4.9-8.5-10.6-7.4c-8.4,1.4-16.6,2.9-25,4.3c-1.4,0.2-2.8,0.2-4.2,0.2c12.6-2.7,25-4.9,37.6-7.1c5.7-1,9.4,1.6,10.5,7.3
		c2.5,14,4.9,28.1,7.4,42.1C532.2,236.7,533.3,242.2,533.1,242.3z M218.2,280.1c-14.6,2.6-29.2,5.1-43.7,7.7
		c-6.5,1.1-9.7,5.7-8.5,12.1c2.7,15.4,5.4,30.7,8.1,46.1c1.1,6.4,5.7,9.4,12,8.3c14.7-2.6,29.3-5.2,44.1-7.8
		c6.3-1.1,9.5-5.6,8.4-11.9c-1.4-7.7-2.7-15.5-4.1-23.2c-1.3-7.6-2.7-15.3-4-22.8C229.2,282,224.8,278.9,218.2,280.1z M225.1,326.3
		c0.7,4.2-1.4,7.4-5.8,8.1c-8.9,1.6-17.7,3.1-26.6,4.7c-4.3,0.8-7.4-1.3-8.2-5.9c-1-5.7-2-11.4-3.1-17c-1-5.8-2.1-11.7-3.1-17.5
		c-0.7-4,1.4-7.2,5.3-8c9.2-1.7,18.3-3.3,27.6-4.9c4.1-0.6,7.1,1.7,7.8,5.8C221,303.2,223,314.8,225.1,326.3z M237.3,337.3
		c-2.7-2-5.4-2.7-8-5c-1.9-1.3-2.2-4.1-2.9-8c-1.9-10.8-3.9-21.7-5.9-32.7c-1-5.7-4.9-8.5-10.6-7.4c-8.4,1.4-16.6,2.9-25,4.3
		c-1.4,0.2-2.8,0.2-4.2,0.2c12.6-2.7,25-4.9,37.6-7.1c5.7-1,9.4,1.6,10.5,7.3c2.5,14,4.9,28.1,7.4,42.1
		C236.4,331.6,237.4,337.1,237.3,337.3z M284.4,240.7c-14.6,2.6-29.2,5.1-43.7,7.7c-6.5,1.1-9.7,5.7-8.5,12.1
		c2.7,15.4,10,56.7,12.7,72c1.1,6.4,5.7,9.4,12,8.3c14.7-2.6,29.3-5.2,44.1-7.8c6.3-1.1,9.5-5.6,8.4-11.9
		c-1.4-7.7-7.3-41.4-8.7-49.1c-1.3-7.6-2.7-15.3-4-22.8C295.5,242.7,291.1,239.5,284.4,240.7z M295.9,312.8c0.7,4.2-1.4,7.4-5.8,8.1
		c-8.9,1.6-17.7,3.1-26.6,4.7c-4.3,0.8-7.4-1.3-8.2-5.9c-1-5.7-6.6-37.3-7.7-42.9c-1-5.8-2.1-11.7-3.1-17.5c-0.7-4,1.4-7.2,5.3-8
		c9.2-1.7,18.3-3.3,27.6-4.9c4.1-0.6,7.1,1.7,7.8,5.8C287.3,263.8,293.9,301.3,295.9,312.8z M308.1,323.8c-2.7-2-5.4-2.7-8-5
		c-1.9-1.3-2.2-4.1-2.9-8c-1.9-10.8-8.5-47.7-10.4-58.6c-1-5.7-4.9-8.5-10.6-7.4c-8.4,1.4-16.6,2.9-25,4.3c-1.4,0.2-2.8,0.2-4.2,0.2
		c12.6-2.7,25-4.9,37.6-7.1c5.7-1,9.4,1.6,10.5,7.3c2.5,14,9.5,54.1,12,68.1C307.2,318.2,308.3,323.6,308.1,323.8z M132.9,311.2
		c-5-5.9-9.9-11.9-14.9-17.8c-4.3-5-9.7-5.6-14.9-1.2c-11.3,9.5-22.6,19-34,28.5c-5,4.2-5.6,9.7-1.4,14.8c10,11.9,37,44.1,47,56
		c4.1,5,9.7,5.4,14.6,1.2c11.4-9.5,22.8-19.2,34.3-28.8c4.9-4.1,5.3-9.6,1.3-14.5C160,343.5,138,317.3,132.9,311.2z M148.1,358.9
		c-6.9,5.8-13.8,11.6-20.7,17.4c-3.5,2.8-7.1,2.6-10-1c-3.7-4.4-24.4-29-28.1-33.3c-3.8-4.5-7.6-9.1-11.4-13.6
		c-2.6-3.1-2.4-7,0.6-9.5c7.1-6.1,14.1-12,21.4-18c3.2-2.5,7-2,9.6,1.1c7.6,8.9,32,38.1,39.6,47.1
		C151.8,352.2,151.4,356.1,148.1,358.9z M155.8,352c-2.3-0.2-4-2.4-6.5-5.4c-7.1-8.4-31.2-37-38.3-45.5c-3.7-4.4-8.5-4.9-12.9-1.1
		c-6.6,5.4-13,10.9-19.6,16.2c-1.1,0.9-2.4,1.6-3.4,2.3c9.5-8.7,19.3-16.8,29-25c4.4-3.7,9-3.3,12.8,1c9.1,10.9,35.2,42,44.4,52.9
		c0.4,0.4,4.1,4.7,3.9,4.8C161.8,352,159,352.6,155.8,352z M78.6,357.7c-5-5.9-9.9-11.9-14.9-17.8c-4.3-5-9.7-5.6-14.9-1.2
		c-11.3,9.5-22.6,19-34,28.5c-5,4.2-5.6,9.7-1.4,14.8c10,11.9,37,44.1,47,56c4.1,5,9.7,5.4,14.6,1.2c11.4-9.5,22.8-19.1,34.3-28.7
		c4.9-4.1,5.3-9.6,1.3-14.5C105.7,389.9,83.7,363.8,78.6,357.7z M93.9,405.3c-6.9,5.8-13.8,11.6-20.7,17.4c-3.5,2.8-7.1,2.6-10-1
		c-3.7-4.4-24.4-29-28.1-33.3c-3.8-4.5-7.6-9.1-11.4-13.6c-2.6-3.1-2.4-7,0.6-9.5c7.1-6.1,14.1-12,21.4-18c3.2-2.5,7-2,9.6,1.1
		c7.6,8.9,32,38.1,39.6,47.1C97.5,398.7,97.2,402.5,93.9,405.3z M101.5,398.5c-2.3-0.2-4-2.4-6.5-5.4c-7.1-8.4-31.2-37-38.3-45.5
		c-3.7-4.4-8.5-4.9-12.9-1.1c-6.6,5.4-13,10.9-19.6,16.2c-1.1,0.9-2.4,1.6-3.4,2.3c9.5-8.7,19.3-16.8,29-25c4.4-3.7,9-3.3,12.8,1
		c9.1,10.9,35.2,42,44.4,52.9c0.4,0.4,4.1,4.7,3.9,4.8C107.5,398.4,104.8,399.1,101.5,398.5z"/>
</g>
</svg>
