<?xml version="1.0" encoding="utf-8"?>
<!-- Generator: Adobe Illustrator 27.2.0, SVG Export Plug-In . SVG Version: 6.00 Build 0)  -->
<svg version="1.1" id="レイヤー_1" xmlns="http://www.w3.org/2000/svg" xmlns:xlink="http://www.w3.org/1999/xlink" x="0px"
	 y="0px" viewBox="0 0 260 260" style="enable-background:new 0 0 260 260;" xml:space="preserve">
<style type="text/css">
	.st0{fill:url(#SVGID_1_);}
</style>
<g>
	<path d="M214.1,0H45.9C20.6,0,0,20.6,0,45.9v168.2C0,239.4,20.6,260,45.9,260h168.2c25.3,0,45.9-20.6,45.9-45.9V45.9
		C260,20.6,239.4,0,214.1,0z M207.5,29.4H61.2c-9.1,0-21,9.8-21,18.9v159.1l-22.6,22.3V45.9c0-15.6,12.7-28.3,28.3-28.3H218
		L207.5,29.4z"/>
</g>
<g>
	<g>
		<linearGradient id="SVGID_1_" gradientUnits="userSpaceOnUse" x1="51.3849" y1="136.2767" x2="235.3203" y2="136.2767">
			<stop  offset="0" style="stop-color:#39B54A"/>
			<stop  offset="0.2367" style="stop-color:#E7A915"/>
			<stop  offset="0.5697" style="stop-color:#F92174"/>
			<stop  offset="0.8201" style="stop-color:#F55393"/>
			<stop  offset="1" style="stop-color:#D067FF"/>
		</linearGradient>
		<path class="st0" d="M170.9,172.2l20.5,11.5l10.9-3.8l-14.6-8.3L170.9,172.2z M203.1,79.3l2.7-8.5l-19.5,9.3v7.3L203.1,79.3z
			 M129.8,114.9l55.5-27v-8.5l21-10l1.3-4L156.1,90l-0.4-0.9l52.3-24.9l1.2-3.7l26.2-12.6l-2.3-4.5L118,98.6l4.6-10.3L115,75.7
			l12.6-28.2l-6.6-4.2L51.4,198.3l9.5,14.7l-6.3,14.1l4.7,2.1l48-106.6l-2.5,12.4l64.5,36.2l18.8-0.7l15,8.5l-0.4,0.8l5.7-2
			l-51.8-27.4l0.5-0.9l52.7,27.8l0.1,0l15.8,8.7l2.4-4.4L127.1,125L129.8,114.9z"/>
	</g>
</g>
</svg>
