<?xml version="1.0" encoding="utf-8"?>
<!-- Generator: Adobe Illustrator 27.2.0, SVG Export Plug-In . SVG Version: 6.00 Build 0)  -->
<svg version="1.1" id="レイヤー_1" xmlns="http://www.w3.org/2000/svg" xmlns:xlink="http://www.w3.org/1999/xlink" x="0px"
	 y="0px" viewBox="0 0 350 70" style="enable-background:new 0 0 350 70;" xml:space="preserve">
<path d="M35.4,20.9c0.1,0.2,0,0.2,0,0.3c-0.1,0-0.1,0.1-0.2,0.2c0.8,0.8,1.5,1.5,2.1,2.2c0.2,0.6,0.4,1.2,0.5,1.8
	c0.1,0.6,0.3,1.2,0.6,1.7c-0.1,0.6-0.1,1.2-0.2,1.6c-0.1,0.4,0,0.9,0.2,1.4c-0.1,0.7-0.3,1.4-0.5,2c-0.2,0.7-0.3,1.3-0.2,1.9
	c-0.3,0.1-0.5,0.3-0.4,0.7c0,0.4,0,0.7-0.1,1c0.5-0.1,0.9-0.4,1.2-0.8c0.3-0.4,0.6-0.8,1-1.1c0.3-0.4,0.6-0.8,1-1.1
	c0.4-0.5,0.8-1,1.1-1.4c0.3-0.4,0.7-0.9,1.2-1.4c0.3-0.3,0.5-0.5,0.8-0.8c0.3-0.3,0.5-0.6,0.6-1.1c0.9-0.9,1.8-1.8,2.5-2.9
	c0.7-1,1.6-1.9,2.6-2.7c0.3-0.6,0.6-1.2,1.1-1.6c0.4-0.5,0.9-0.9,1.4-1.3c0.2-0.7,0.5-1.2,0.9-1.6c0.4-0.4,0.9-0.8,1.3-1.2
	c0.5-1.2,1.2-2.2,2.2-2.9c0.9-0.7,1.7-1.6,2.4-2.6c0.4-0.1,0.6-0.3,0.8-0.5c0.2-0.3,0.4-0.4,0.7-0.5c0.1-0.3,0.2-0.5,0.4-0.8
	c0.2-0.3,0.5-0.5,0.8-0.6c0.1-0.3,0.3-0.6,0.5-0.7c0.2-0.2,0.4-0.4,0.5-0.7c0.1,0,0.2,0,0.2-0.1c0-0.1,0.1-0.1,0.3,0
	c0.6-0.9,1.3-1.6,2.1-2c0.8-0.5,1.5-1.1,2.1-1.8c0.4-0.2,0.9-0.3,1.3-0.4C68.7,3,69.1,3,69.3,2.9c0.7,0,1.4-0.1,1.9-0.4
	c0.5,0.2,1.1,0.3,1.6,0.5s1,0.3,1.4,0.5c0.2,0.2,0.3,0.3,0.5,0.5c0.2,0.2,0.4,0.3,0.6,0.4c0.1,0.4,0.3,0.6,0.5,0.7
	c0.2,0,0.4,0.2,0.5,0.4c0.4,0.6,0.5,1.2,0.4,1.9c-0.1,0.7,0.1,1.3,0.5,1.8c-0.3,0.5-0.4,1.1-0.5,1.7c-0.1,0.6-0.1,1.2-0.2,1.7
	c-0.3,0.4-0.5,0.9-0.8,1.4c-0.3,0.5-0.4,1.1-0.3,1.6c-0.8,1.6-1.5,3.1-2.3,4.8c-0.8,1.6-1.5,3.2-2.1,4.9c-0.3,0.4-0.5,0.8-0.8,1.2
	C70,27,69.8,27.5,69.7,28h-0.2c-0.1,0.7-0.4,1.3-0.7,1.8c-0.4,0.5-0.7,1.1-0.8,1.8c-0.1,0.1-0.2,0.1-0.2,0.2c0,0.1-0.1,0.2-0.2,0.2
	c-0.1,0.8-0.4,1.6-0.8,2.3c-0.4,0.7-0.8,1.5-1.1,2.3c-0.4,0.7-0.8,1.5-1,2.4c-0.3,0.9-0.7,1.7-1.2,2.3c-0.2,0.6-0.4,1.1-0.6,1.6
	c-0.2,0.5-0.5,1-0.7,1.5c-0.2,0.5-0.5,1-0.7,1.5c-0.2,0.5-0.4,1.1-0.5,1.7c-0.4,0.4-0.8,1-1,1.7c-0.3,0.7-0.4,1.3-0.5,1.9
	c-0.1,0.2-0.2,0.3-0.3,0.4c-0.1,0.1-0.2,0.2-0.3,0.4c-0.1,0.7-0.3,1.2-0.7,1.7c-0.4,0.4-0.7,0.9-0.8,1.4c-0.1,0.1-0.1,0.1,0,0.3
	c0,0.1,0,0.2,0,0.4c-0.2,0.6-0.4,1.1-0.8,1.5c-0.4,0.4-0.7,0.9-0.9,1.5c-0.5,1.2-1,2.4-1.7,3.4c-0.7,1-1.3,2.1-1.8,3.3
	c-0.3,0-0.4,0.1-0.5,0.2s-0.2,0.2-0.5,0.2C51,65.7,51,65.6,51,65.5c0.1-0.1,0.1-0.2,0.1-0.4c-0.1,0-0.1,0-0.3,0
	c-0.1,0-0.2-0.1-0.4-0.2c-0.1,0.2-0.2,0.3-0.4,0.4c-0.2,0.1-0.4,0.2-0.5,0.4c-0.3,0-0.4-0.1-0.3-0.2c-0.2,0.3-0.4,0.4-0.6,0.5
	c-0.2,0.1-0.4,0.3-0.4,0.7c-0.6,0.2-0.8,0.5-0.6,1.2c-0.2,0.2-0.5,0.3-0.9,0.3c-0.2-0.2-0.2-0.4-0.2-0.7c-0.2-0.2-0.4-0.3-0.8-0.3
	c-0.2-0.1-0.2,0-0.2,0.1c0,0.1-0.1,0.2-0.2,0.2c-0.1,0-0.2-0.1-0.2-0.2c0-0.1-0.1-0.2-0.3-0.1c-0.1-0.8,0-1.5,0.2-1.9
	c0.2-0.4,0.3-1,0.3-1.6c0.1-0.2,0.1-0.2,0.2-0.2c0.1,0.1,0.1,0,0.2-0.1c0-0.2-0.1-0.2-0.2-0.2c-0.1,0-0.1,0-0.1-0.1
	c0.1-1.1,0.3-2.2,0.6-3.2c0.3-1,0.4-2,0.3-3c-0.1-0.3,0-0.6,0.1-0.9c0.1-0.4,0.2-0.8,0.2-1.2c0-1.8,0.3-3.4,0.9-4.8
	c0.1-0.1,0.1-0.2,0-0.3c0-0.1,0-0.2,0-0.3c0.1-0.2,0.1-0.5,0.2-0.9c0.1-0.4,0-0.6-0.1-0.7c0.6-1.3,0.9-2.6,1.1-4
	c0.1-1.4,0.4-2.7,0.9-4c-0.8,1-1.6,2.2-2.4,3.4c-0.8,1.2-1.8,2.3-2.9,3.2c0.1,0.1,0.1,0.2,0,0.2c-0.1,0.1-0.1,0.1-0.1,0.2
	c-0.4,0.4-0.9,0.8-1.4,1.2c-0.5,0.4-0.8,1-0.8,1.6c-0.4,0.2-0.8,0.5-1.2,0.9c-0.4,0.4-0.6,0.8-0.7,1.3c-0.3-0.2-0.5-0.1-0.6,0.3
	c-0.2,0.3-0.3,0.6-0.5,0.8c-0.2,0.3-0.5,0.6-1,1c-0.5,0.4-0.9,0.7-1.2,1.1c-0.1,0.4-0.2,0.7-0.2,0.7c-0.3,0.4-0.6,0.6-0.9,0.7
	c-0.3,0.1-0.6,0.3-0.8,0.7c-0.6,0.2-1.2,0.4-1.8,0.5c-0.6,0.1-1.1,0.3-1.6,0.5c-0.4,0.1-0.8,0.1-1.1-0.1c-0.3-0.2-0.6-0.3-1.1-0.4
	c-0.4-0.2-0.6-0.3-0.6-0.3c-0.1-0.1-0.2-0.3-0.5-0.6c-0.3-0.3-0.5-0.5-0.8-0.8c-0.3-0.3-0.5-0.6-0.7-0.9c-0.6,0.1-1,0.1-1.3,0
	c-0.3-0.1-0.6-0.2-0.9-0.4c-0.1-0.7-0.3-1.3-0.5-1.8c-0.2-0.5-0.4-1.1-0.7-1.8c-0.2-0.1-0.3,0-0.4,0.2c-0.1,0.2-0.3,0.2-0.4,0.1
	c-0.1-0.2-0.1-0.5-0.1-0.9c0-0.4-0.1-0.7-0.1-1.1c0-0.4-0.1-0.8-0.2-1.1c-0.1-0.4-0.2-0.6-0.4-0.9c-0.1-1,0-2,0.3-2.8
	c0.2-0.8,0.5-1.7,0.7-2.7c-1.2,1-2.4,2.1-3.5,3.4c-1.2,1.3-2.4,2.5-3.6,3.5c-0.3,0.5-0.7,1-1.1,1.4c-0.4,0.4-0.8,0.8-1.4,1.1
	c-0.3,0.4-0.5,0.8-0.8,1.1c-0.3,0.3-0.7,0.6-1.2,0.9c-0.1,0.2-0.1,0.3-0.2,0.3c-0.1,0.1-0.2,0.2-0.2,0.4c-0.4-0.2-0.7-0.1-0.9,0.2
	c-0.2,0.3-0.4,0.6-0.5,1c-0.7,0.1-1.3,0.4-1.6,0.9c-0.4,0.5-0.9,0.8-1.6,1c-0.1,0.1-0.2,0.1-0.2,0.3c0,0.1-0.2,0.2-0.4,0.1
	c-0.2,0.1-0.2,0-0.2-0.1c0.1-0.1,0.1-0.2,0-0.4c-0.4,0.1-0.8,0.2-1.3,0.2c-0.4,0.1-0.8,0.1-1.1,0.2c-0.2-0.1-0.3-0.2-0.3-0.5
	c-0.5,0.2-0.9,0.1-1.4-0.1C1,57,0.7,56.7,0.3,56.3c0.2-0.6,0.2-1.1,0.1-1.6c-0.1-0.5,0.1-0.8,0.5-1.1c0-0.1,0-0.2,0.1-0.2
	c0.1-0.1,0.1-0.2,0-0.3c0.8-0.7,1.4-1.6,1.8-2.8c0.4-1.1,1.1-2,1.8-2.8c0-0.2,0-0.3,0.1-0.3c0.1-0.1,0-0.1-0.1-0.2
	c0.4-0.6,0.8-1.2,1.2-1.8c0.4-0.6,0.9-1.1,1.3-1.5c0.1-0.1,0.2-0.2,0.4-0.4c0.1-0.2,0.2-0.4,0.3-0.6C8,42.7,8,42.6,8.1,42.6
	c0.1,0,0.2,0,0.3-0.1C8.8,42,9.3,41.5,9.8,41c0.5-0.4,0.9-0.9,1.3-1.5c0.4-0.1,0.6-0.3,0.9-0.6c0.2-0.3,0.5-0.5,0.8-0.7
	c1.1-1.3,2.2-2.5,3.3-3.7c1.1-1.2,2.2-2.4,3.2-3.7c0.9-1.1,1.9-2.2,2.9-3.2c1.1-1,2.1-2,3.1-3c0.1-0.1,0.1-0.2,0.1-0.2
	c0,0,0-0.1,0-0.1c0.3-0.2,0.4-0.3,0.5-0.4c0.1-0.1,0.3-0.2,0.5-0.3c0.1-0.5,0.4-0.9,0.8-1.1c0.4-0.2,0.8-0.5,1-0.9
	c1.2-0.6,2.3-0.8,3.4-0.8C32.6,20.8,33.9,20.9,35.4,20.9z M3.5,57.3c0-0.3-0.1-0.4-0.3-0.4c0.1,0.1,0.1,0.2,0,0.2c0,0.1,0,0.1,0,0.2
	c0.1,0.1,0.2,0.1,0.2,0C3.4,57.3,3.4,57.3,3.5,57.3z M20.7,43.5c-0.1,0.1-0.2,0.2-0.4,0.3c-0.2,0.1-0.2,0.2-0.2,0.4
	c0.2-0.1,0.3-0.2,0.4-0.3C20.6,43.8,20.7,43.7,20.7,43.5z M51.8,64.5c-0.1-0.2,0-0.2,0.1-0.2c0.1,0,0.2-0.1,0.2-0.2
	c-0.1-0.1-0.2-0.1-0.3-0.2c-0.1-0.1-0.2-0.1-0.4,0v0.2c0.1,0.1,0.2,0.2,0.3,0.2C51.7,64.4,51.7,64.4,51.8,64.5z M69.5,40.2
	c0.3-0.3,0.5-0.7,0.6-1.3h0.2c0.1-0.2,0-0.2-0.2-0.2c-0.2,0.1-0.2,0-0.2-0.2c0.6-0.7,1.2-1.3,1.9-1.9c0.7-0.6,1.4-1.3,1.9-2.1
	c0.1-0.1,0.2,0,0.2,0c0,0.1,0,0.1,0.1,0c0.3-0.4,0.7-0.7,1.1-0.9c0.4-0.2,0.7-0.6,1-1.2h0.5c0.4-0.4,0.8-0.7,1.2-0.9
	c0.4-0.2,0.8-0.5,1.1-0.8c0.6-0.1,1.1-0.3,1.4-0.7c0.4-0.4,0.9-0.6,1.6-0.6c0.1,0.1,0.2,0,0.2,0c0-0.1,0-0.1,0.1-0.2
	c0.6-0.1,1.2-0.2,2-0.3c0.8-0.1,1.6-0.2,2.4-0.4c0.2,0,0.2,0,0.3,0c0,0,0.1,0,0.3,0.1h1.3c0.4,0,0.8,0.1,1.3,0.3
	c0.4,0.2,0.8,0.3,1.2,0.3c0.1,0,0.2,0,0.2-0.1c0-0.1,0.1-0.1,0.1-0.1c0.5,0.1,0.9,0.4,1.2,0.8c0.4,0.4,0.8,0.6,1.2,0.5
	c0.4-1,0.8-2.1,1.2-3.1c0.4-1,0.9-1.9,1.4-2.7h0.3c0.1-0.2,0.2-0.3,0.3-0.4c0.1-0.1,0.1-0.2,0.2-0.4c0.4-0.1,0.8-0.4,1.2-0.9
	c0.4-0.5,0.8-0.6,1.4-0.5c0,0.1,0,0.2-0.1,0.2c-0.1,0-0.1,0.1-0.2,0.2c0.2,0.2,0.4,0.2,0.7,0.1c0.2,0.1,0.5,0.2,0.7,0.4
	c0.3,0.2,0.6,0.2,0.9,0c0,0.2,0,0.3,0.1,0.4c0.1,0.1,0.1,0.2,0.2,0.3c0.3-0.2,0.5-0.1,0.7,0.2c0.2,0.3,0.5,0.2,0.8-0.1
	c0.2,0.2,0.4,0.4,0.6,0.6c0.2,0.2,0.4,0.3,0.7,0.4c0.3,0.8,0.7,1.5,1.1,2.2c0.4,0.7,0.7,1.5,0.9,2.5c0.1,0.4,0,0.7,0,1
	c-0.1,0.3-0.1,0.6,0,1c0,0.2,0,0.3-0.1,0.3c-0.1,0.1-0.1,0.1-0.2,0.2c0.1,0.3,0.1,0.6-0.1,1c-0.2,0.3-0.2,0.7-0.2,1.1
	c-0.3,0.6-0.5,1.2-0.7,1.9c-0.2,0.7-0.4,1.4-0.5,2.2c0,0.1-0.1,0.2-0.2,0.2c-0.3,1.5-0.7,3-1.1,4.5c-0.4,1.5-0.9,2.9-1.4,4.3
	c-0.1,0.1-0.1,0.3-0.2,0.5c-0.1,0.2-0.1,0.4-0.1,0.5c-0.1,0.2-0.1,0.3,0,0.5c0,0.2,0,0.3,0,0.3c-0.1,0.3-0.2,0.6-0.4,0.9
	c-0.2,0.3-0.2,0.7-0.2,1.1c-0.5,1.5-0.9,3-1.2,4.5c-0.3,1.6-0.7,3.1-1.1,4.8c-0.2,0.5-0.4,1-0.7,1.5c-0.3,0.5-0.5,1-0.7,1.4
	c-0.4,0.2-0.7,0.4-0.9,0.7c-0.2,0.3-0.4,0.6-0.9,0.7c0.1-0.3,0-0.4-0.2-0.4c-0.2,0-0.5,0-0.7-0.1c0.4,0,0.5-0.2,0.4-0.7
	c-0.2-0.2-0.4-0.5-0.4-0.8c-0.1-0.3-0.2-0.4-0.5-0.1c-0.1,0.1-0.2,0-0.2,0c0-0.1-0.1-0.1-0.1-0.2c-0.1,0.1-0.1,0.1,0,0.2
	c0.1,0.1,0.1,0.2,0,0.3c-0.4-0.2-0.7-0.5-1-1c-0.3-0.5-0.7-0.8-1.2-0.7c-0.1,0-0.1-0.1,0-0.2c0-0.1,0-0.2,0-0.2
	c-0.1,0.1-0.1,0.2,0,0.2c0.1,0,0.1,0.1,0,0.2c-0.2,0.1-0.2,0-0.3-0.2c0-0.2-0.1-0.5-0.1-0.7c-0.1-0.1-0.2-0.1-0.2,0
	c0,0.1,0,0.1-0.1,0c-0.3-1.5-0.5-3-0.7-4.5c-0.2-1.5-0.3-3.1-0.2-4.8c-0.1-0.2-0.2-0.2-0.2-0.1c-0.1,0.1-0.1,0.2-0.2,0.4
	c-0.4,0.4-0.9,0.7-1.5,1.1c-0.6,0.4-1.1,0.8-1.5,1.2c-0.1,0.2-0.2,0.3-0.4,0.5c-0.2,0.2-0.4,0.4-0.7,0.5c-0.1,0.1-0.1,0.2-0.1,0.3
	c0,0.1,0,0.1-0.1,0.2c-1.5,0.8-2.9,1.7-4.2,2.8c-1.3,1.1-2.8,1.9-4.4,2.5c-0.1,0.1-0.1,0.2-0.1,0.3c0,0.1-0.1,0.2-0.1,0.4
	c-0.4-0.1-0.9,0-1.4,0.1c-0.5,0.1-1,0.2-1.4,0.4c0.1,0.1,0.3,0.2,0.5,0.2c0.1,0.4-0.1,0.6-0.3,0.6c-0.3,0-0.4,0.1-0.5,0.4
	c-0.4-0.2-0.7-0.3-0.9-0.3c-0.3-0.5-0.7-0.8-1-1.1c-0.4-0.3-0.7-0.5-1.1-0.8c-0.4-0.2-0.7-0.5-1.1-0.7c-0.4-0.2-0.8-0.5-1.1-0.9
	v-0.4c-0.1-0.1-0.2-0.1-0.3,0c-0.7-1.1-1.3-2.4-1.8-3.8c-0.5-1.5-0.9-3-1.1-4.7c-0.1-0.2-0.1-0.3,0-0.4c0.1,0,0.1-0.1,0.2-0.1
	c-0.1-0.8-0.1-1.4,0-2c0.1-0.5,0.2-1.1,0.4-1.8c0.1-0.2,0.1-0.3,0.3-0.5c0.1-0.2,0.2-0.3,0.4-0.5c0.1-0.3,0.2-0.5,0.3-0.7
	c0.1-0.3,0.2-0.4,0.3-0.5c0.1-0.1,0.2-0.1,0.3-0.2c0.3-0.4,0.6-0.8,0.9-1.3c0.3-0.4,0.5-0.8,0.9-1.1h0.3
	C68.9,40.8,69.2,40.5,69.5,40.2z M73.6,51.7c-0.1,0.1-0.2,0.1-0.3,0.2c-0.1,0.1-0.1,0.2,0,0.2c0-0.1,0.1-0.1,0.2-0.1
	C73.6,52,73.7,51.9,73.6,51.7z M74.6,50.8c0.2,0.1,0.3,0.1,0.3,0.1c0.2-0.2,0.4-0.3,0.7-0.4c0.2-0.1,0.5-0.2,0.9-0.4
	c0.3-0.4,0.6-0.7,1-0.9c0.4-0.2,0.8-0.4,1.1-0.7c0.9-0.5,1.8-1,2.7-1.5c0.8-0.5,1.6-1,2.5-1.6c0.8-0.5,1.6-1,2.4-1.5
	c0.8-0.5,1.6-0.9,2.5-1.2c0.2-0.4,0.4-0.6,0.7-0.7c0.3-0.1,0.6-0.3,1.1-0.5c0.2-0.9,0.3-1.7,0.5-2.6c0.2-0.8,0.3-1.6,0.4-2.4
	c-0.3,0.1-0.6,0.2-0.9,0.4c-0.3,0.2-0.5,0.3-0.8,0.5c-0.1,0-0.1,0,0,0.1c0,0.1,0,0.1,0,0.2c-0.6,0.2-1.2,0.5-1.8,1
	c-0.5,0.5-1.1,0.9-1.7,1c-0.3,0.3-0.6,0.5-0.9,0.8c-0.3,0.3-0.6,0.5-1.1,0.6c-0.3,0.4-0.5,0.7-0.8,0.9c-0.3,0.3-0.6,0.4-1,0.5
	c-1.4,1.1-2.6,2.3-3.8,3.7c-1.2,1.4-2.4,2.6-3.7,3.7c-0.1,0.3-0.3,0.5-0.5,0.7c-0.2,0.2-0.4,0.4-0.6,0.6c0.2-0.1,0.4-0.2,0.5-0.2
	C74.4,51.1,74.5,51,74.6,50.8z M109.4,61.8c-0.1,0.1-0.1,0.1,0,0.1c0.1,0,0.1,0.1,0,0.2c-0.4-0.1-0.7-0.2-0.9-0.5
	c-0.2-0.3-0.4-0.5-0.6-0.7c-0.1-0.7-0.2-1.2-0.4-1.6c0-0.1,0.1-0.2,0.2-0.2c-0.1-0.1-0.1-0.1-0.2-0.1c-0.1,0-0.1,0-0.2-0.1
	c-0.1-1-0.2-1.9-0.4-2.6c-0.1-0.7-0.2-1.6-0.1-2.7c0-0.1,0.1-0.1,0.2-0.2c-0.1-0.9,0-1.7,0.2-2.5c0.2-0.8,0.4-1.5,0.5-2.3
	c0.2-0.3,0.4-0.7,0.5-1.2c0.1-0.5,0.2-0.9,0.2-1.3h0.1c0.2-0.8,0.4-1.6,0.7-2.2c0.3-0.6,0.6-1.3,0.8-1.9c0-0.1,0-0.2-0.1-0.2
	c-0.1,0-0.1-0.1,0-0.2c0.3-0.6,0.6-1.2,0.8-1.9c0.2-0.6,0.4-1.2,0.7-1.8c-0.3-0.1-0.5-0.1-0.7-0.1c-0.1,0-0.4,0-0.7,0
	c-0.3-0.2-0.6-0.2-1.1-0.1c-0.5,0.1-0.8,0.1-1.1,0.1c-0.6,0.1-1.1-0.1-1.6-0.3c-0.5-0.3-1.1-0.5-1.6-0.7c0-0.1,0-0.2,0-0.2
	c0,0,0-0.1,0-0.2c-0.1-0.1-0.2-0.2-0.3-0.2c-0.1,0-0.2-0.1-0.2-0.2c0.1-0.3,0.1-0.5-0.2-0.6c-0.2-0.1-0.4-0.3-0.5-0.5
	c-0.1,0-0.2,0-0.2,0.1c-0.1,0.1-0.1,0.1-0.2,0c0.1-0.3,0.1-0.4-0.2-0.4c-0.2,0-0.4-0.1-0.5-0.1c-0.1-0.1-0.1-0.2,0-0.2
	c0.1-0.1,0.1-0.1,0.1-0.2c-0.2-0.1-0.3-0.1-0.4,0c-0.1,0.1-0.3,0.2-0.6,0.2c0.1-0.1,0.1-0.2,0.2-0.2c0.1,0,0.1-0.1,0.2-0.2
	c-0.2-0.2-0.3-0.2-0.5-0.2c-0.1-0.4-0.1-0.7,0-0.9c0.3,0,0.4,0,0.4,0.1c0.1-0.2,0.1-0.3,0.1-0.4c0-0.1,0-0.3,0-0.5
	c0.3,0.2,0.6,0.3,0.9,0.3c0.3,0.1,0.6-0.1,0.7-0.5c0.3,0.2,0.5,0.2,0.6,0c0.1-0.1,0.3-0.2,0.6-0.2c0.1,0,0.2,0,0.2-0.1
	c0-0.1,0-0.1,0.1-0.2c0.6-0.1,1.1-0.2,1.5-0.3c0.4-0.1,0.9-0.2,1.4-0.4c0.4,0,0.8,0,1.1-0.1c0.3-0.1,0.6-0.2,0.9-0.3
	c0.3-0.1,0.6-0.2,0.9-0.3c0.3-0.1,0.7-0.1,1.1,0c0.4-0.5,0.8-0.7,1.3-0.7c0.4,0,0.9-0.1,1.4-0.3c0.4-0.8,0.7-1.6,1-2.5
	c0.3-0.9,0.7-1.6,1.1-2.4c-0.1-0.1-0.1-0.2,0-0.3c0.1-0.1,0.1-0.2,0.1-0.3c0.4-0.6,0.8-1.2,1-1.8c0.3-0.6,0.6-1.3,1-1.9
	c0.1-0.2,0.2-0.3,0.2-0.5c0.1-0.2,0.1-0.4,0.2-0.6c0.1-0.2,0.2-0.3,0.4-0.4c0.2-0.1,0.3-0.3,0.4-0.6c0.2-0.3,0.3-0.6,0.4-0.9
	c0.1-0.3,0.2-0.6,0.4-0.9c0-0.1,0-0.1,0.1,0c0.1,0,0.1,0,0.1,0c0.1-0.1,0.1-0.1,0-0.2c0-0.1,0-0.1,0-0.2c0.1-0.1,0.1-0.2,0.2-0.3
	c0.1-0.1,0.2-0.2,0.2-0.4c0.1-0.2,0.2-0.3,0.2-0.5c0-0.2,0.1-0.3,0.2-0.5c0.1-0.2,0.3-0.5,0.5-0.8c0.1-0.3,0.2-0.5,0.3-0.8
	c0.1-0.3,0.2-0.4,0.4-0.5c0.1-0.4,0.2-0.6,0.3-0.8c0.2-0.2,0.3-0.5,0.3-0.8c0.2-0.2,0.3-0.4,0.5-0.6c0.2-0.3,0.3-0.5,0.5-0.8
	c0.3-0.8,0.7-1.6,1.2-2.3c0.2-0.4,0.4-0.8,0.5-1.2c0.1-0.4,0.3-0.8,0.6-1.1c-0.1-0.2-0.1-0.4,0-0.5c0.1-0.1,0.1-0.2,0.2-0.3V2.9
	c0.4-0.4,0.8-0.7,1.2-0.9c0.2-0.2,0.3-0.3,0.4-0.4c0.1-0.1,0.3-0.2,0.6-0.4c0.1,0.2,0.1,0.3,0,0.4c-0.1,0-0.1,0.1-0.2,0.2
	c0.2,0.1,0.3,0.2,0.4,0.2c0.1,0,0.2,0,0.4,0c0.1-0.2,0.2-0.3,0.4-0.4c0.1-0.1,0.2-0.2,0.3-0.4c0.1,0,0.2,0.1,0.3,0.2
	c0.1,0.1,0.1,0.2,0,0.4c0.1,0.1,0.2,0.1,0.2,0c0-0.1,0.1-0.1,0.2-0.1c0.1,0,0.2,0.1,0.2,0.2c0,0.1,0.1,0.2,0.2,0.2
	c0.3,0,0.5-0.1,0.6-0.2c0.1-0.1,0.3-0.2,0.5-0.2c-0.1-0.1-0.1-0.2-0.1-0.3c0-0.1,0-0.2,0.1-0.3c0.4,0.1,0.8,0.3,1.1,0.7
	c0.3,0.3,0.7,0.5,1.1,0.5c0.2,0.4,0.5,0.7,0.8,0.9c0.3,0.2,0.6,0.4,0.9,0.6c0,0.6,0.2,1.1,0.6,1.3c-0.1,0.4,0,0.7,0,0.9
	c0.1,0.2,0,0.4-0.1,0.7c0.1,0.1,0.1,0.2,0.1,0.3c0,0.1,0,0.2,0,0.4c-0.3,0.8-0.5,1.6-0.8,2.4c-0.3,0.8-0.7,1.5-1.2,2.1
	c0,0.4-0.1,0.8-0.2,1.1c-0.2,0.3-0.4,0.6-0.6,0.9c-0.2,0.3-0.5,0.5-0.7,0.9c-0.2,0.3-0.3,0.7-0.4,1.1c-0.3,0.6-0.7,1.2-1.1,1.8
	c0.1,0.4,0,0.7-0.3,0.9c-0.2,0.2-0.4,0.5-0.4,0.9c-0.1,0-0.1,0-0.1,0c0,0-0.1,0-0.2,0c-0.5,1.1-1,2.1-1.7,3c-0.7,0.9-1.2,1.9-1.6,3
	c-0.1,0.1-0.2,0.2-0.3,0.3c-0.1,0.1-0.1,0.3-0.2,0.5c0.7,0.1,1.3,0.1,1.8,0.1c0.5-0.1,1-0.1,1.4-0.2c0.3-0.1,0.5-0.1,0.8,0
	c0.3,0,0.5,0,0.8,0c1.2-0.1,2.6-0.2,4.2-0.2s3.2-0.1,4.9-0.1c0.1,0.1,0.1,0.1,0,0.2c0,0.1,0,0.2,0.1,0.3c0.1,0,0.2-0.1,0.2-0.2
	c0.1-0.1,0.1-0.1,0.2,0c0.1,0.4,0,0.7-0.2,0.9c-0.2,0.2-0.5,0.4-0.7,0.6c0.3,0.1,0.5,0.2,0.6,0.2c0,0.1,0,0.2,0.1,0.2
	c0.1,0,0.1,0.1,0,0.2c-0.1,0.1-0.2,0.1-0.2,0.1c-0.1-0.1-0.1-0.1-0.2-0.1c-0.2,0.5-0.5,0.8-0.9,0.9c-0.5,0.1-0.9,0.2-1.3,0.4
	c0.1-0.1,0-0.2-0.2-0.2c-0.2,0-0.3,0.1-0.3,0.2c-0.1,0.2-0.2,0.2-0.4,0.2c0,0.2,0,0.2,0,0.3c0,0,0,0.1,0.1,0.1
	c0.1-0.1,0.2-0.1,0.3-0.2c0.1-0.1,0.2-0.2,0.4-0.2c0,0.2,0,0.2-0.1,0.2c-0.1,0-0.1,0.1-0.1,0.2c0,0.1,0.1,0.1,0.2,0.1
	c0.1,0,0.2,0,0.3,0c-0.1,0.1-0.1,0.2-0.1,0.3c0,0.1-0.1,0.1-0.1,0.2c-0.3,0.2-0.6,0.3-0.9,0.4c-0.3,0.1-0.5,0.3-0.7,0.5
	c-0.4,0.1-0.7,0.2-1,0.2c-0.3,0.1-0.6,0.2-0.9,0.3c-0.3-0.1-0.5,0-0.8,0.2c-0.3,0.2-0.6,0.4-1,0.5c-0.1,0-0.2,0-0.3,0
	c-0.1,0-0.2,0-0.3,0c-0.5,0.1-1,0.3-1.5,0.5c-0.5,0.2-1.1,0.3-1.7,0.3c-0.1,0-0.1,0,0,0.1c0,0.1,0,0.1,0,0.2
	c-1.2-0.1-2.4,0.1-3.5,0.4c-1.1,0.3-2.3,0.6-3.4,0.9c-0.3,0.6-0.5,1.1-0.8,1.4c-0.3,0.4-0.4,0.9-0.5,1.4c-0.2,0.4-0.4,0.7-0.6,1.1
	c-0.2,0.4-0.3,0.8-0.4,1.1c-0.2,0.5-0.5,0.9-0.7,1.3c-0.3,0.4-0.5,1-0.6,1.6c-0.6,0.7-1,1.5-1.2,2.3c-0.3,0.9-0.6,1.7-0.9,2.6
	c-0.1,0.4-0.2,0.9-0.3,1.5c-0.2,0.6-0.3,1.1-0.5,1.6c-0.2,0.9-0.5,1.9-0.8,2.8c-0.3,1-0.5,1.9-0.6,2.8c-0.1,0.5-0.2,0.9-0.2,1.3
	c-0.1,0.4-0.1,0.8-0.2,1.2c0,0.2-0.1,0.3-0.2,0.3c-0.1,0.1,0,0.2,0,0.2c0.1,0,0.1,0.1,0.1,0.2c-0.7,0.9-1.2,1.9-1.6,3
	c-0.1,0.1-0.2,0.1-0.3,0.1c-0.1,0.1-0.1,0.2-0.1,0.3c0.1,0.1,0,0.2-0.1,0.4c-0.2,0-0.3-0.1-0.4-0.2c-0.1-0.2-0.1-0.3-0.2-0.4
	c-0.2,0.3-0.1,0.5,0.2,0.6c-0.2,0.1-0.4,0.1-0.5,0c0,0.1,0,0.2,0.1,0.3c0.1,0.1,0,0.1-0.1,0.2c-0.2,0-0.2-0.1-0.2-0.3
	c0-0.2,0-0.4,0-0.5c-0.1,0.2-0.2,0.3-0.2,0.4c-0.2,0-0.3-0.2-0.2-0.5c-0.3,0-0.4,0.1-0.4,0.2c-0.2-0.2-0.3-0.4-0.4-0.6
	c-0.1-0.2-0.1-0.4-0.2-0.7l-0.1-0.1c-0.1,0-0.1,0-0.1,0.1c-0.1-0.1-0.1-0.2-0.1-0.2C109.5,62,109.5,61.9,109.4,61.8z M103.2,34.3
	c-0.2,0-0.2,0.1-0.2,0.2C103.1,34.5,103.2,34.4,103.2,34.3z M104.6,35.8c0-0.1-0.1-0.2-0.3-0.3C104.3,35.6,104.4,35.7,104.6,35.8z
	 M106.8,37.5c0-0.1-0.1-0.2-0.2-0.2c-0.1,0-0.2,0-0.2,0.1c0.1,0.1,0.1,0.1,0.2,0.1C106.8,37.6,106.8,37.6,106.8,37.5z M160.4,18.4
	c0.1,0.1,0.2,0.1,0.2,0c0.1-0.1,0.2-0.2,0.3-0.1c0,0.1,0,0.1-0.1,0.2c0.1,0,0.2,0,0.2-0.1c0.1-0.1,0.1-0.1,0.2-0.2
	c0.1,0.1,0.1,0.2,0,0.2c-0.1,0.1-0.1,0.1,0,0.2c0,0.1-0.1,0.2-0.2,0.2c-0.1,0-0.1,0.1,0,0.2c0.1,0.1,0.2,0,0.3-0.2
	c0.1-0.2,0.2-0.2,0.3-0.2c0,0.2,0,0.4-0.1,0.5c0.3-0.1,0.5-0.3,0.6-0.5c0.1-0.3,0.3-0.4,0.5-0.4c0.1,0.1,0.1,0.2,0.2,0.3
	c0.1,0.1,0.1,0.2,0.2,0.3c0.1-0.1,0.1-0.1,0.3-0.1c0.1,0,0.3,0,0.4-0.1c0.2,0.1,0.4,0.1,0.4-0.1c0.1-0.2,0.2-0.2,0.4-0.2
	c0.1,0.1,0.1,0.2-0.1,0.5c0.1,0.1,0.2,0,0.3,0c0.1-0.1,0.1-0.2,0.2-0.3c0.2,0.3,0.4,0.5,0.7,0.7c0.3,0.2,0.6,0.4,0.9,0.7
	c0.1,0,0.1,0,0-0.1c0-0.1,0-0.1,0.1-0.1c0.1,0.4,0.2,0.7,0.3,0.7c0.2,0.6,0.3,1,0.5,1.4c0.2,0.4,0.3,0.8,0.3,1.2
	c-0.1,0.2-0.1,0.4-0.1,0.6c0,0.2-0.1,0.4-0.1,0.5c-0.2,0.6-0.3,1.2-0.4,1.7c-0.1,0.5-0.1,1,0.1,1.5c0.2,0.7,0.3,1.4,0.2,2.1
	c-0.1,0-0.2,0-0.2,0c0,0,0,0-0.1,0c0,0.7-0.1,1.3-0.4,1.9c-0.2,0.6-0.5,1.1-0.7,1.7c-0.3,0.7-0.5,1.3-0.6,2
	c-0.1,0.7-0.4,1.3-0.7,1.9c0,0.1,0,0.2,0,0.2c0,0,0,0.1,0,0.2c-0.2,0.1-0.2,0.3-0.2,0.5c0,0.2-0.1,0.4-0.2,0.5
	c-0.1,0-0.2-0.1-0.3-0.2c-0.4,0.1-0.7,0.3-0.9,0.7c-0.2,0.4-0.5,0.6-0.9,0.7c0.1-0.2,0-0.2,0-0.1c-0.1,0.1-0.1,0.1-0.1,0
	c-0.1-0.1-0.2,0-0.2,0c0,0.1,0,0.1-0.1,0.1c-0.2,0-0.3-0.1-0.3-0.3c-0.1,0.1-0.2,0.1-0.2,0c0-0.1-0.1-0.1-0.2,0
	c-0.1,0.1-0.1,0-0.1-0.1c0-0.1,0-0.2-0.1-0.2c-0.3,0.1-0.5,0.1-0.7-0.2c-0.2-0.2-0.4-0.3-0.7-0.3c-0.2-0.3-0.5-0.4-0.9-0.5
	c-0.4-0.1-0.7-0.2-0.9-0.5c-0.1-0.3-0.2-0.5-0.4-0.6c-0.1-0.1-0.2-0.3-0.4-0.4c-0.1-0.4-0.2-0.7-0.3-0.8c-0.2-0.1-0.2-0.3-0.2-0.6
	c-0.3-0.2-0.4-0.3-0.5-0.5c-0.1-0.2-0.2-0.4-0.3-0.7c0.1-0.2,0.1-0.4,0.1-0.6c-0.1-0.3-0.1-0.4-0.2-0.5c0.2-0.3,0.2-0.6,0.2-0.9
	c-0.4,0.1-0.7,0.2-1.1,0.4c-0.3,0.1-0.7,0.2-1.1,0.4c-0.8,0.6-1.6,1.1-2.3,1.6c-0.8,0.5-1.5,1.1-2,1.8c-0.1,0-0.1,0-0.1,0
	c0,0,0,0-0.1,0c-0.5,0.6-1,1.1-1.4,1.7c-0.4,0.5-0.9,1.1-1.4,1.5c0.1,0.2,0.1,0.3,0,0.3c0.9,0.7,2.2,1.1,4,1.2
	c0.1,0.1,0.2,0.1,0.4,0c0.1,0,0.3,0,0.4,0c0.2,0.1,0.5,0.1,0.8,0.2c0.3,0.1,0.7,0.1,1.1,0.1c0.5,0.1,1.1,0.1,1.6,0.1
	c0.5,0,1.1,0.1,1.6,0.2c0.6,0.1,1.2,0.2,1.8,0.3c0.6,0.1,1.3,0.2,1.9,0.3c0.1,0,0.2,0,0.2-0.1c0.1-0.1,0.1-0.1,0.2-0.1
	c0.1,0.1,0.2,0.1,0.3,0.2c0.1,0.1,0.2,0.1,0.3,0.1c0.3,0.1,0.5,0.1,0.9,0.1c0.3-0.1,0.6-0.1,0.9-0.2c0.9-0.1,1.5,0.1,1.7,0.5
	c0.4-0.1,0.7-0.1,1.1,0c0.4,0.1,0.7,0.1,1.1,0.2c0.1,0.1,0.2,0.1,0.4,0c0.1-0.1,0.2-0.1,0.4,0c0.2,0.1,0.3,0.1,0.4,0.3
	c0.1,0.1,0.3,0.2,0.5,0.3c0.1,0.1,0.1,0.1,0.2,0c0.1,0,0.1,0,0.1,0c0.4,0.2,0.8,0.4,1.1,0.5c0.3,0.2,0.6,0.3,0.8,0.5
	c0.1,0.3,0.3,0.5,0.5,0.6c0.2,0.1,0.3,0.2,0.4,0.4c0,0.1,0,0,0,0c0-0.1,0.1-0.1,0.1,0c-0.2,0.5-0.2,1.1,0.1,1.9
	c0.1,0.1,0.1,0.2,0.2,0.3c0,0.1,0,0.2,0,0.3c0,0.2,0.1,0.3,0.2,0.3c-0.1,0.4-0.1,0.8-0.3,1.1c-0.1,0.3-0.2,0.7-0.4,1
	c-0.2,0-0.3,0-0.4,0.1c-0.1,0.1-0.3,0.1-0.5,0.1c-0.4,0.5-0.8,0.8-1.3,1c-0.5,0.2-1,0.5-1.4,0.9c-0.6,0.2-1,0.4-1.2,0.5
	c-1.4,0.5-2.8,1-4.2,1.5c-1.4,0.5-2.8,1-4.3,1.3c-0.1,0-0.1,0.1-0.1,0.2c0,0.1,0,0.2-0.1,0.2c-0.2,0-0.2-0.1-0.2-0.2
	c-0.8,0.4-1.5,0.7-2.3,0.9c-0.8,0.2-1.5,0.4-2.4,0.7c-0.1,0-0.1,0.1-0.1,0.2c-1.8,0.5-3.5,1.1-5.1,1.8c-0.6,0.2-1.1,0.4-1.5,0.6
	c-0.4,0.2-0.9,0.3-1.5,0.3c0,0.1,0,0.1,0,0.1c0,0,0,0.1,0,0.2c-0.3,0-0.4,0-0.5-0.1c-0.6,0.1-1.1,0.2-1.6,0.4
	c-0.5,0.1-0.9,0.3-1.4,0.4c-0.2,0.1-0.3,0.1-0.5,0.2c-0.2,0.1-0.3,0.2-0.5,0.3c-0.4,0.1-0.8,0.1-1.2,0.1c-0.4,0-0.7,0.1-1.1,0.4
	c-0.6-0.1-1.1,0-1.7,0.1c-0.6,0.1-1.2,0.2-1.9,0.1c0-0.3,0.1-0.4,0.2-0.5c0.1-0.1,0.2-0.2,0.2-0.3c0.1,0.1,0.2,0.1,0.4,0.1
	c0.2,0,0.3-0.1,0.3-0.2c0.1-0.1,0.1-0.2,0.1-0.3c-0.1-0.1-0.1-0.2-0.1-0.3c-0.2,0-0.3,0-0.5,0c-0.2,0-0.4,0.1-0.5,0.2
	c-0.1,0.1-0.2,0.1-0.3,0.3c-0.1,0.1-0.2,0.2-0.4,0.1c0-0.1,0-0.2,0.1-0.4c0.1-0.1,0.2-0.2,0.3-0.4h-0.1v-0.2c-0.1,0.1-0.2,0.1-0.2,0
	c-0.1-0.1-0.1,0-0.2,0.1c-0.1-0.1-0.1-0.1-0.1-0.2c0.1-0.1,0.1-0.1,0-0.2C133,60,133,60,133,60.1c0.1,0.1,0.1,0.2,0.1,0.3
	c-0.3,0.1-0.4,0.1-0.5,0c-0.1-0.1-0.1-0.1-0.2,0c-0.1-0.2-0.1-0.4,0.1-0.6c0.2-0.2,0.2-0.4,0-0.6c-0.1,0.1-0.2,0.1-0.3,0.2
	c-0.1,0.1-0.2,0.1-0.3,0c-0.1-0.2,0-0.4,0-0.7c0.1-0.2,0.1-0.5,0-0.7c0.1-0.1,0.2-0.2,0.3-0.4c0.1-0.1,0.2-0.2,0.3-0.2
	c-0.1-0.4,0-0.6,0.3-0.7c0.2-0.1,0.3-0.3,0.3-0.5c0.3-0.1,0.5-0.2,0.6-0.3c0.1-0.1,0.3-0.1,0.6,0c0.8-0.4,1.5-0.7,2.2-0.9
	c0.7-0.2,1.4-0.4,2.1-0.8c-0.1-0.2-0.1-0.2-0.2-0.1c-0.1,0.1-0.1,0.1-0.2,0.1c0.8-0.6,1.8-1,2.8-1.4c1-0.4,1.9-0.8,2.7-1.4
	c0.1,0.1,0.2,0.1,0.2,0c0-0.1,0.1,0,0.1,0.1c0.5-0.3,1-0.5,1.5-0.6c0.5-0.2,1-0.4,1.3-0.9c0.1,0,0.2,0,0.4-0.1
	c0.1-0.1,0.2-0.1,0.4-0.1c0.7-0.5,1.4-0.9,2.2-1.2c0.8-0.4,1.6-0.8,2.3-1.2c-0.1-0.1-0.2-0.2-0.3-0.2c-0.1,0-0.1,0-0.2,0
	c-0.1,0-0.1,0-0.2,0c-0.2-0.1-0.5-0.1-0.7-0.1c-0.3,0-0.6,0-0.8,0c-0.3-0.1-0.5-0.1-0.8-0.2c-0.3-0.1-0.6-0.2-0.8-0.3
	c-0.3-0.1-0.5-0.1-0.7-0.1c-0.2,0-0.5,0-0.7-0.1c-0.3-0.2-0.6-0.3-0.9-0.4c-0.4-0.1-0.7-0.1-0.9-0.2c-0.4-0.6-0.8-1-1.4-1.2
	c-0.6-0.2-1-0.6-1.3-1.2c-0.8-0.3-1.3-0.7-1.4-1.3c-0.2-0.6-0.5-1.2-0.8-1.8c-0.1,0-0.1,0.1-0.1,0.2c0.1,0.1,0,0.2-0.1,0.3
	c-0.2-0.4-0.3-1-0.2-1.6c0.1-0.7,0.2-1.2,0.2-1.6c0.1-0.3,0.2-0.5,0.2-0.7c0-0.2,0.1-0.5,0.3-0.7c-0.3-0.3-0.4-0.4-0.5-0.5
	c-0.1-0.3,0-0.4,0.1-0.5c0.1-0.1,0.3-0.2,0.5-0.4c0.3-0.4,0.4-0.8,0.5-1.4c0.4-0.3,0.6-0.6,0.9-1c0.2-0.4,0.4-0.7,0.7-1.1
	c0,0.1,0,0.1,0.1,0.1c0.5-0.4,1.1-0.9,1.6-1.3c0.5-0.5,1.1-0.9,1.6-1.4c0.4-0.1,0.7-0.3,1-0.6c0.6-0.4,1.1-0.9,1.6-1.4
	c0.5-0.5,1-0.9,1.6-1.2c0.1-0.1,0.1-0.2,0.3-0.2c0.1,0,0.2-0.1,0.2-0.4c0.5-0.1,1-0.3,1.4-0.7c0.4-0.4,1-0.6,1.7-0.8
	c0.1,0,0.2-0.1,0.3-0.4c0.7-0.1,1.4-0.4,2.1-0.7c0.7-0.4,1.4-0.5,2.1-0.2c0.1-0.3,0.1-0.5,0-0.6c0-0.1,0-0.4,0-0.7
	c0.1-0.1,0.2-0.1,0.3,0c0.2-0.3,0.5-0.6,0.7-0.8c0.3-0.2,0.5-0.6,0.7-1.1c0.2,0,0.3-0.1,0.4-0.2c0.1-0.2,0.2-0.3,0.3-0.4L160.4,18.4
	z M133.1,58.7c0.1-0.2,0-0.2-0.1-0.2c-0.1,0-0.2,0.1-0.2,0.2C132.9,58.6,133,58.7,133.1,58.7z M139,53.9c-0.2,0-0.3,0.1-0.3,0.3
	C138.9,54.2,139,54.1,139,53.9z M193.7,60.9v0.4c-0.1-0.2-0.2-0.4-0.3-0.5c-0.1-0.1-0.3-0.2-0.5-0.2c-0.1,0-0.1,0.1-0.1,0.2
	c0.1,0.1,0,0.2-0.1,0.2c-0.3,0-0.4-0.1-0.5-0.3c-0.1-0.2-0.2-0.3-0.4-0.4c-0.1-0.1-0.1-0.2,0-0.2c-0.4-0.1-0.7-0.2-0.9-0.4
	c-0.2-0.2-0.4-0.5-0.5-0.9c-0.1-0.3-0.3-0.7-0.4-1.1c-0.1-0.4-0.3-0.7-0.5-1.1c0.1-0.1,0.1-0.2,0-0.3c-0.1-0.1-0.1-0.2,0-0.3
	c-0.3-0.4-0.4-0.9-0.4-1.5c0-0.7-0.2-1.2-0.4-1.7c0-0.1,0-0.1,0.1,0c0.1,0.1,0.1,0.1,0.1,0c-0.1-0.1-0.3,0-0.5,0.2
	c-0.2,0.3-0.4,0.5-0.5,0.6c-0.7,0.4-1.3,1-1.8,1.7c-0.1,0-0.2,0-0.2,0.1c0,0.1-0.1,0.1-0.2,0.1c-0.1,0.1-0.1,0.1-0.1,0.2
	c0,0.1-0.1,0.1-0.1,0.2c-0.3,0.1-0.5,0.3-0.7,0.5c-0.2,0.2-0.4,0.4-0.7,0.5c-0.3,0.3-0.6,0.5-1,0.7c-0.4,0.2-0.7,0.5-1,0.7
	c-0.3,0.2-0.5,0.4-0.6,0.7c-0.1,0.2-0.3,0.4-0.6,0.6c-0.3,0.1-0.6,0.2-1.1,0.4c-0.3,0.2-0.5,0.4-0.8,0.7c-0.3,0.3-0.6,0.6-0.9,0.7
	c-0.1,0.1-0.2,0.2-0.4,0.4c-0.2,0.1-0.3,0.2-0.5,0.4c-0.1,0.1-0.2,0.1-0.4,0.2c-0.1,0.1-0.2,0.1-0.3,0.1c-0.3,0.2-0.5,0.3-0.7,0.4
	c-0.2,0.1-0.4,0.2-0.7,0.2c-0.3-0.1-0.6-0.1-0.9-0.2c-0.3-0.1-0.5-0.2-0.8-0.3c-0.3,0.1-0.5,0-0.7-0.1c-0.2-0.1-0.5-0.2-0.8-0.1
	c0-0.2-0.1-0.4-0.2-0.5c-0.1-0.1-0.3-0.2-0.4-0.4c-0.2-0.1-0.3-0.2-0.4-0.4c-0.1-0.2-0.2-0.4-0.2-0.6c-0.1,0.1-0.2,0.1-0.2,0
	c0-0.1-0.1-0.1-0.1,0c-0.1-0.1-0.2-0.2-0.3-0.2c-0.1,0-0.1-0.1-0.1-0.2c-0.1,0-0.1,0.1-0.2,0.2c-0.4-0.4-0.7-0.8-1-1.3
	c-0.3-0.4-0.6-0.9-1-1.3c-0.2-0.4-0.2-0.9-0.2-1.4c0-0.5,0.1-1,0.2-1.4c0.1-0.1,0.1-0.1,0.1,0c0,0.1,0,0.1,0,0.1
	c0.1-1.7,0.4-3.1,0.9-4.3c0.5-1.2,1.1-2.4,1.7-3.6c0-0.3,0.1-0.4,0.2-0.5c0.2-0.1,0.2-0.3,0.2-0.5h0.2c0.3-1,0.6-1.9,1.1-2.7
	c0.5-0.8,0.9-1.7,1.4-2.7c0.5-1,1.1-2.1,1.6-3.3c0.1-0.1,0.2-0.3,0.2-0.5c0.1-0.2,0.1-0.4,0.2-0.6c0.1-0.3,0.2-0.6,0.4-0.7
	c0.2-0.2,0.3-0.5,0.3-0.9c0.4-0.4,0.7-0.9,0.8-1.6s0.4-1.2,0.8-1.7c-0.1-0.3-0.1-0.5,0.1-0.6c0.2-0.1,0.3-0.3,0.4-0.4
	c0.1,0.1,0.1,0.1,0,0.1c-0.1,0,0,0.1,0.1,0.2c0.3-0.1,0.5-0.1,0.8-0.1c0.3,0,0.5-0.1,0.7-0.4c0.1,0,0.1,0,0.1,0.1c0,0.1,0,0.1,0,0.2
	c0.2-0.2,0.3-0.1,0.4,0.2l0.2-0.2c0.9,0.3,1.8,0.5,2.6,0.8c0.9,0.3,1.6,0.8,2.1,1.6c0.1,0,0.2,0,0.2,0c0,0,0.1,0,0.1,0
	c0,0.3,0,0.5,0.1,0.6c0.1,0.2,0.1,0.3,0.1,0.5v1.1c0,0.6,0,1.1-0.1,1.6c-0.1,0.5-0.2,0.9-0.5,1.3c-0.1,0.1-0.2,0.1-0.2,0.1
	c0,0-0.1,0.1-0.2,0.2v0.5c-0.1,0.1-0.1,0.2-0.2,0.4c-0.1,0.2-0.1,0.3-0.2,0.4c-0.5,1.2-1.2,2.4-2.2,3.7c-0.1,0.4-0.3,0.8-0.5,1.1
	c-0.2,0.3-0.4,0.6-0.5,1.1c-0.1,0.1-0.2,0.2-0.3,0.4c-0.1,0.2-0.1,0.4-0.2,0.5V46c-0.1,0.2-0.2,0.3-0.4,0.5
	c-0.2,0.2-0.3,0.4-0.4,0.6c-0.1,0.1-0.1,0.1-0.1,0.2c0,0.1,0,0.1-0.1,0.2l-0.2,0.3c0,0.1,0,0.1,0.1,0.1c0.1,0,0.1,0,0.1,0.1
	c1.1-0.9,2.2-1.8,3.2-2.8c1-1,1.9-2,2.7-3.2c0.1,0.1,0.2,0.1,0.2,0.1c0-0.1,0.1-0.1,0.2-0.1c1-1.2,2-2.4,3-3.5c1-1.1,2-2.2,3-3.3
	c0.1-0.5,0.4-0.9,0.7-1.2c0.4-0.3,0.7-0.6,0.8-1c0.2-0.1,0.4-0.3,0.6-0.5c0.2-0.2,0.3-0.4,0.2-0.6c0.2-0.2,0.4-0.4,0.7-0.6
	c0.2-0.2,0.4-0.4,0.4-0.7c0.4-0.1,0.7-0.4,0.9-0.7c0.2-0.4,0.4-0.6,0.7-0.7c0.1-0.2,0.2-0.4,0.2-0.6c0.1-0.2,0.1-0.3,0.2-0.4
	c-0.1-0.1-0.1-0.2,0-0.2c0.1,0,0.1-0.1,0.1-0.3l0.2-0.2c0-0.1,0-0.2,0-0.3c0-0.1,0.1-0.2,0.2-0.2v-0.3c0.3,0.1,0.6,0,0.8-0.2
	c0.2-0.2,0.5-0.3,0.9-0.2c0,0.2-0.1,0.3-0.2,0.3c0.3,0.1,0.5,0.2,0.7,0.2c0.1,0.1,0.1,0.2,0.2,0.2c0.1,0.1,0.1,0.2,0.2,0.4
	c0.1,0.1,0.1,0.1,0,0.1c-0.1-0.1-0.1-0.1-0.2-0.1c0,0.1,0.1,0.2,0.2,0.3c-0.1,0.2-0.2,0.3-0.3,0.4c0.2,0.1,0.3,0.1,0.5-0.1
	c0.2-0.2,0.4-0.2,0.7-0.1c0.3,0.2,0.6,0.5,0.9,0.8c0.3,0.3,0.6,0.4,1,0.3c0.1,0.2,0.1,0.3,0.2,0.4c0.1,0.1,0.1,0.1,0.2,0.2
	c-0.1,0.1-0.1,0.2,0,0.2c0.1,0,0.1,0.1,0.1,0.2c0.3,0.1,0.4,0.3,0.4,0.7c0,0.4,0.1,0.7,0.2,0.9c0,0.3-0.1,0.5-0.3,0.9
	c-0.2,0.3-0.2,0.6,0,0.9c-0.2,0.4-0.4,0.8-0.5,1.1s-0.3,0.6-0.5,0.9c-0.4,1.2-0.9,2.4-1.5,3.5c-0.6,1.1-1.1,2.3-1.5,3.5
	c-0.1,0-0.1,0-0.1,0.1c0,0.1,0,0.1-0.1,0c-0.1,0.5-0.3,0.8-0.5,1.1c-0.2,0.3-0.3,0.6-0.4,1.1c-0.1,0-0.1,0-0.1,0.1
	c0,0.1,0,0.1-0.1,0.1c0.1,0.2,0,0.5-0.3,0.8c-0.2,0.3-0.4,0.6-0.4,0.9c-0.4,1.2-0.7,2.4-0.9,3.7c-0.2,1.3-0.5,2.7-0.8,4.2
	c-0.1,0-0.1,0-0.2,0.1c0.1,0.9,0,1.8-0.2,2.5c-0.2,0.8-0.2,1.6-0.1,2.5c-0.1,0-0.1,0-0.1-0.1c0-0.1-0.1-0.1-0.2,0
	c-0.1,0.2-0.1,0.4,0.1,0.6c0.2,0.2,0.2,0.5,0.1,0.9c-0.1,0.1-0.2,0.1-0.4,0.1c-0.2,0-0.3,0.1-0.3,0.2c-0.3-0.1-0.5,0.1-0.6,0.3
	c-0.2-0.1-0.4-0.2-0.5-0.3c-0.1-0.1-0.2-0.2-0.4-0.2c-0.1,0-0.1,0.1-0.1,0.2c0.1,0.1,0,0.2-0.1,0.2c-0.2-0.1-0.3-0.2-0.3-0.3
	C193.8,61.2,193.8,61,193.7,60.9z M180.4,48.2c-0.1,0.1-0.2,0-0.3-0.1c0.1,0.2,0.1,0.2,0.1,0.3c0,0-0.1,0.1-0.2,0.2
	c0.1,0.1,0.2,0.1,0.2-0.1C180.2,48.3,180.3,48.2,180.4,48.2z M248.5,25.2c0.1,0.1,0.2,0.1,0.2,0c0-0.1,0.1-0.1,0.2,0
	c0.1,0.3,0.2,0.5,0.2,0.6c0.2,0.3,0.3,0.5,0.4,0.9c0.1,0.3,0.2,0.7,0.2,1c0,0.2-0.1,0.4-0.2,0.6c-0.1,0.2-0.1,0.4-0.1,0.5
	c0,0.1,0,0.2,0.1,0.3c0.1,0.1,0.1,0.1,0,0.2c0,0.2,0,0.5-0.1,0.8c-0.1,0.3-0.1,0.6-0.2,0.9c-0.1,0.3-0.2,0.6-0.4,1
	c-0.1,0.4-0.2,0.8-0.4,1.2c0,0.6-0.1,1.1-0.4,1.7c-0.3,0.6-0.5,1.1-0.8,1.7c-0.1,0.2-0.2,0.4-0.2,0.7c0,0.2-0.1,0.5-0.1,0.7
	c-0.1,0.2-0.2,0.4-0.3,0.5c-0.1,0.1-0.2,0.3-0.2,0.4c-0.1,0.2-0.1,0.4-0.1,0.7c0,0.2-0.1,0.4-0.4,0.5c0,0.5-0.1,0.8-0.4,1.1
	c-0.2,0.3-0.4,0.6-0.6,1c-0.1,0.1-0.1,0.1,0,0.2c0.1,0.1,0.1,0.1,0,0.2c-0.1,0.1-0.1,0.2-0.1,0.2c0,0-0.1,0.1-0.1,0.2
	c-0.1,0.2-0.2,0.3-0.2,0.5c0,0.2,0,0.3-0.1,0.4c-0.1,0.2-0.2,0.4-0.4,0.5c-0.2,0.2-0.3,0.4-0.3,0.6c-0.1,0.5-0.2,0.9-0.4,1.2
	s-0.3,0.7-0.4,1.2c-0.1,0.1-0.2,0.1-0.2,0.3c0,0.1-0.1,0.2-0.2,0.2c0.1,0.3,0,0.5-0.1,0.7c-0.1,0.1-0.2,0.3-0.2,0.5
	c0.1,0.3,0.1,0.5,0,0.7c-0.1,0.2-0.2,0.4-0.3,0.6c-0.1,0.3-0.1,0.6-0.1,0.9c0,0.4,0,0.7-0.1,1.1c-0.1,0.3-0.1,0.5-0.2,0.8
	c-0.1,0.3-0.1,0.5,0.1,0.7c-0.1,0.1-0.1,0.2-0.1,0.3c0,0.1,0,0.2-0.1,0.3c-0.1,0.3-0.1,0.6-0.2,1c-0.1,0.4-0.2,0.7-0.4,0.8
	c0.1-0.3,0.1-0.5,0.1-0.6c0-0.1,0-0.3,0-0.6c-0.2,0.4-0.3,0.8-0.4,1.2c-0.1,0.4-0.2,0.8-0.1,1.2c-0.1,0.1-0.1,0.2-0.1,0.3
	c0,0.1-0.1,0.1-0.2,0.2c0.2,0.6,0.1,1.3-0.2,2.1c-0.3,0.8-0.4,1.5-0.3,2.1c0.1,0.3,0.2,0.5,0.3,0.7c0.2,0.2,0.2,0.5,0.1,0.9
	c-0.2,0.2-0.3,0.3-0.4,0.5c0,0.2-0.1,0.5-0.1,0.8c-0.2-0.1-0.3,0-0.4,0.1c-0.1,0.1-0.3,0.2-0.5,0.2c-0.4-0.3-0.6-0.6-0.8-1
	c-0.2-0.4-0.5-0.7-0.8-0.9c-0.1-0.4-0.2-0.6-0.4-0.7c-0.2-0.1-0.4-0.4-0.5-0.7c-0.1-0.1-0.1-0.2,0-0.3c0-0.1,0-0.2,0-0.3
	c-0.1-0.2-0.2-0.3-0.3-0.4c-0.1-0.1-0.2-0.2-0.3-0.3c-0.2-0.4-0.4-0.9-0.4-1.3c-0.1-0.5-0.2-1-0.4-1.6c0-0.1,0-0.2,0-0.2
	c0,0-0.1-0.1-0.1-0.2c-0.1-0.6-0.2-1.3-0.4-2.1c-0.2-0.9-0.2-1.6-0.1-2.2c-0.1-0.2-0.1-0.3-0.2-0.4c0.3-1.1,0.4-2.4,0.3-3.7
	c-0.1-1.3,0.1-2.6,0.4-3.8c0.1-0.3,0.2-0.5,0.3-0.6c0.1-0.2,0.2-0.4,0.3-0.6c0-0.1,0-0.2,0-0.4c0-0.2,0-0.4,0-0.5
	c0.1-0.4,0.1-0.8,0.2-1c0.1-0.3,0.1-0.5,0.2-0.8c-0.5,0.4-1,0.8-1.5,1.3c-0.5,0.5-1,1-1.6,1.4c-0.3,0.3-0.5,0.5-0.6,0.7
	c-0.2,0.2-0.4,0.4-0.6,0.5c-0.2,0.2-0.4,0.4-0.6,0.5c-0.2,0.1-0.4,0.3-0.6,0.5c-0.7,0.7-1.5,1.4-2.3,2.1c-0.8,0.7-1.6,1.4-2.3,2.1
	c-0.3,0.2-0.5,0.4-0.7,0.6c-0.2,0.2-0.5,0.4-0.8,0.4c-0.3,0.2-0.5,0.3-0.8,0.5c-0.3,0.2-0.6,0.3-0.8,0.5c-0.1-0.2-0.3-0.3-0.5-0.3
	c-0.3,0-0.4,0-0.5-0.2c-0.3,0.1-0.6,0.1-1,0.3c-0.4,0.1-0.6,0-0.6-0.3c-0.5,0.2-0.9,0.2-1.2-0.2c-0.3-0.3-0.7-0.6-1-0.8
	c-0.1-0.3-0.2-0.6-0.2-0.9c-0.1-0.3-0.1-0.5-0.1-0.8c0-0.1,0-0.1,0-0.1c0,0,0.1,0,0.1-0.1c-0.2-0.2-0.2-0.5-0.2-0.7
	c0-0.3,0.1-0.6,0.1-0.9c0.1-0.3,0.1-0.7,0.1-1c0-0.3,0-0.6-0.2-0.9c-0.6,0.7-1.2,1.3-1.8,1.9c-0.6,0.6-1.2,1.2-1.8,1.9
	c-0.1,0.1-0.2,0.2-0.3,0.4c-0.1,0.2-0.2,0.3-0.4,0.4c-0.1,0.1-0.2,0.2-0.3,0.3c-0.1,0.1-0.2,0.2-0.3,0.3c-0.6,0.5-1.2,1.1-1.8,1.7
	c-0.6,0.6-1.3,1.1-2,1.6c-0.1,0-0.2,0-0.2,0c0,0-0.1,0-0.2,0c-0.2,0.3-0.4,0.5-0.8,0.7c0,0.1,0,0.2-0.1,0.2c-0.1,0-0.1,0.1,0,0.3
	c-0.4,0.4-0.8,0.9-1.2,1.4c-0.4,0.5-0.8,1.1-1.2,1.7c-0.1,0.1-0.2,0.2-0.3,0.2c-0.1,0.1-0.2,0.1-0.3,0.2c-0.2,0.4-0.4,0.8-0.7,1.2
	c-0.2,0.4-0.6,0.5-1.1,0.1c-0.1-0.1-0.2,0-0.3,0.1c-0.1,0.1-0.2,0.1-0.3,0c0.3-0.2,0.5-0.3,0.7-0.4c0.2-0.1,0.5-0.2,0.7-0.4
	c-0.2-0.3-0.4-0.4-0.8-0.3c-0.4,0.1-0.6,0.1-0.8,0.2c0-0.1,0-0.1,0-0.1c0,0,0.1,0,0.2,0c0-0.1,0-0.2-0.1-0.3c-0.1-0.1-0.1-0.2,0-0.3
	c-0.4-0.1-0.7-0.3-1.1-0.6c-0.4-0.3-0.7-0.6-0.9-0.8c-0.1,0-0.1,0-0.1,0.1c0.1,0.1,0,0.1-0.2,0.1c-0.2,0-0.2-0.1-0.1-0.2
	c0.1-0.2,0.1-0.3,0-0.5c-0.3-0.1-0.4-0.4-0.5-0.7c-0.1-0.4-0.2-0.7-0.3-1.1c-0.1-0.1-0.1-0.2-0.2-0.3c-0.1-0.1-0.1-0.1-0.2-0.1
	c-0.1,0.3-0.1,0.6,0,0.9c0.1,0.3,0.1,0.5,0,0.8c-0.2-0.1-0.2-0.2-0.2-0.4c0-0.2,0-0.4,0-0.6c0.1-0.1,0-0.1-0.1-0.1
	c-0.1,0.1-0.2,0-0.2-0.2c-0.2-0.6-0.2-1.2-0.1-1.9c0.1-0.7,0.2-1.4,0.3-1.9c0-0.1,0.1-0.1,0.3-0.1c0.4-0.9,0.9-1.7,1.6-2.3
	c0.6-0.6,1.2-1.3,1.9-2c-0.1-0.2,0-0.3,0-0.4c0.1,0,0.1-0.1,0-0.4c0.3-0.1,0.5-0.2,0.6-0.4c0.1-0.2,0.3-0.3,0.6-0.4h0.1h0.1
	c0.2-0.2,0.4-0.5,0.5-0.9c0.1-0.4,0.2-0.8,0.4-1.2c0.1-0.4,0.2-0.8,0.3-1.2c0.1-0.4,0.3-0.8,0.5-1c0.2,0,0.3-0.1,0.4-0.3
	c0.1-0.2,0.2-0.3,0.4-0.2c0.3-0.3,0.6-0.6,0.9-1c0.3-0.4,0.5-0.7,0.9-1.1c0.1-0.1,0.1-0.2,0.2-0.2c0.1,0,0.1,0,0.2-0.1
	c0.1-0.1,0.2-0.2,0.2-0.3c0-0.1,0.1-0.2,0.1-0.3c0.2-0.1,0.3-0.2,0.4-0.3c0.1-0.2,0.2-0.3,0.3-0.4c0.1-0.1,0.2-0.2,0.4-0.3
	c0.3-0.2,0.5-0.4,0.6-0.6c0.1-0.2,0.3-0.4,0.5-0.6c0.1-0.2,0.2-0.3,0.4-0.4c0.1-0.1,0.2-0.2,0.4-0.3c0.5-0.6,1.1-1.1,1.7-1.7
	c0.6-0.5,1.2-1.1,1.8-1.5c0.4-0.3,0.8-0.5,1.1-0.9c0.3-0.3,0.7-0.6,1.1-0.9c0.1-0.1,0.2-0.1,0.3-0.2c0.1-0.1,0.2-0.2,0.3-0.2
	c0.2-0.2,0.5-0.3,0.8-0.3c0.3-0.1,0.6-0.1,0.9-0.2c0.3-0.1,0.6-0.2,0.9-0.4c0.3-0.2,0.5-0.2,0.8-0.2c0.1-0.1,0.2-0.1,0.3-0.2
	c0.1-0.1,0.2-0.1,0.3-0.2c0.2,0,0.5,0,0.7,0c0.3,0,0.5,0.1,0.6,0.4c1,0.2,1.8,0.5,2.3,1.2c0.5,0.6,1.1,1.2,1.8,1.6
	c0.1,0.5,0.2,1,0.3,1.5c0.1,0.5,0.1,0.9-0.1,1.4c0.1,0.1,0.2,0.2,0.2,0.2c-0.1,0.4-0.2,0.8-0.2,1.2c0,0.4,0,0.9,0.1,1.3
	c1.1-0.9,2-1.8,2.8-2.8c0.8-1,1.8-1.8,3-2.6c0-0.1,0-0.2,0.1-0.2c0.1-0.1,0.1-0.2,0.1-0.3c0.3-0.2,0.6-0.4,0.9-0.6
	c0.3-0.2,0.6-0.5,0.9-0.8c0.4-0.1,0.7-0.3,1-0.5c0.3-0.3,0.6-0.5,0.9-0.6c0.3-0.3,0.6-0.5,0.9-0.8c0.3-0.3,0.6-0.6,0.8-0.9
	c1-0.7,2-1.5,2.9-2.2c0.9-0.7,2-1.2,3.3-1.4c0.1,0.1,0.2,0.1,0.2,0.2c0.1,0.1,0.1,0.1,0.2,0.2c0.4,0,0.7,0,0.9-0.1
	c0.1,0.1,0.1,0.2,0.1,0.2c-0.1,0-0.1,0.1-0.1,0.2c0.3,0.2,0.6,0.3,0.9,0.5c0.3,0.2,0.7,0.2,1.1,0.1c0.1,0.1,0.2,0.2,0.3,0.4
	c0.1,0.2,0.2,0.2,0.3,0.2c-0.1,0.2,0,0.3,0.2,0.4C248.3,24.9,248.4,25,248.5,25.2z M250,40c0.1-0.1,0.3-0.3,0.5-0.5
	c0.2-0.2,0.4-0.5,0.6-0.7c0.2-0.3,0.4-0.5,0.5-0.7c0.2-0.2,0.3-0.3,0.3-0.3c0.6-0.9,1.3-1.7,1.9-2.5c0.7-0.8,1.3-1.6,1.9-2.5
	c0.8-0.6,1.4-1.3,1.8-2.3c0.4-1,0.8-1.6,1.2-2.1c0-0.1,0-0.2-0.1-0.2c-0.1,0-0.1-0.1-0.2-0.1c0.1-0.3,0.2-0.5,0.2-0.6
	c0.1-0.1,0.2-0.2,0.5-0.2h0.2c0.6-0.8,1.3-1.2,2.3-1.3s1.8-0.3,2.7-0.7c0.1,0,0.1,0.1,0.2,0.3c0.8,0,1.6,0.1,2.5,0.4
	c0.9,0.3,1.6,0.6,2.1,1.1h0.1c0.1,0,0.1-0.1,0.1-0.2c-0.1-0.1,0-0.2,0.1-0.2c0.3,0.3,0.7,0.5,1.4,0.8c0.7,0.3,1.1,0.4,1.3,0.4h0.5
	c0.1,0,0.4,0.1,1,0.4c0.5,0.3,0.9,0.5,1.1,0.7c0.2,0,0.2,0,0.2-0.1c0.1,0.4,0.4,0.5,0.9,0.5c0.2,0,0.3,0,0.3-0.1
	c0,0.2,0.2,0.5,0.7,1c0.4,0.4,0.9,0.9,1.4,1.3c0.5,0.4,1.2,1,2.1,1.6c1,0.9,1.8,1.9,2.5,3c0.7,1.1,1.1,2.3,1.1,3.7
	c0,0.2,0,0.4-0.1,0.6c-0.1,0.2-0.1,0.4-0.1,0.5v0.6c0,1.4-0.3,2.5-0.9,3.5c-0.6,1-1.3,1.8-2.1,2.5c-0.1,0.4-0.3,0.6-0.6,0.7
	c-0.3,0.1-0.5,0.3-0.6,0.6l-0.1-0.1c-0.2,0-0.5,0.2-1.1,0.7c-0.5,0.5-1.1,1-1.7,1.6c-0.6,0.5-1.1,1.1-1.5,1.5
	c-0.4,0.5-0.6,0.7-0.5,0.5c-0.2,0.3-0.5,0.7-1,1c-0.5,0.4-1,0.7-1.6,1.1c-0.6,0.4-1.2,0.7-1.9,1.1c-0.6,0.3-1.3,0.6-1.9,0.8
	c-1.1,0.6-2.3,1.2-3.5,2c-1.2,0.8-2.2,1.1-3,1.1c-0.2,0-0.4,0-0.5-0.1c-0.1,0.1-0.1,0.2-0.2,0.2c-0.1,0.1-0.1,0.1-0.2,0.2
	c-0.1-0.1-0.2-0.1-0.2-0.1c0,0-0.1,0-0.2,0c-1,0.4-2.1,0.5-3.3,0.5c-0.7,0-1.4-0.1-2-0.2c-0.6-0.2-1.1-0.4-1.5-0.8h-0.3
	c-0.5,0-1-0.1-1.4-0.4c-0.4-0.3-0.7-0.6-1.1-1c-0.3-0.4-0.6-0.7-1-1.1c-0.3-0.4-0.7-0.7-1.1-1c-0.3-0.6-0.5-1.1-0.6-1.4
	c-0.1-0.4-0.4-0.9-0.8-1.4v-0.3c0-0.3,0-0.5-0.1-0.8c-0.1-0.3-0.1-0.6-0.1-0.8c0.1-0.2,0.2-0.4,0.2-0.5c0.1-0.1,0.1-0.3,0.1-0.6
	v-1.3v-0.8c0-0.3,0-0.5,0-0.8c0-0.3,0-0.6,0-0.8c0-0.5,0.1-0.8,0.2-1.1v-0.3c0-0.9,0.2-1.8,0.7-2.8c0.5-1,0.9-1.8,1.4-2.6
	c0-0.1,0-0.1,0-0.1c0,0,0-0.1,0-0.1V40z M260.3,49.2c0.6-0.3,1.2-0.5,1.8-0.7c0.5-0.2,1.1-0.6,1.5-1.1l0.2,0.1
	c0.3,0,0.5-0.1,0.6-0.4c0.1-0.2,0.3-0.4,0.6-0.4h0.2c0.1-0.2,0.5-0.5,1.1-0.9c0.6-0.4,1.2-0.9,1.9-1.3c0.7-0.5,1.4-0.9,2-1.4
	c0.6-0.5,1.1-0.9,1.4-1.2c0.1-0.1,0.2-0.2,0.5-0.4c0.3-0.2,0.6-0.5,0.9-0.8c0.3-0.3,0.6-0.7,0.9-1.1c0.3-0.4,0.4-0.9,0.4-1.4
	c0-0.5-0.1-0.9-0.4-1.2c-0.3-0.4-0.6-0.7-1-1c-0.4-0.3-0.8-0.6-1.2-0.9c-0.4-0.3-0.7-0.6-0.9-0.9c-1,1-2,2.1-2.9,3.2
	c-1,1.1-2.1,2.4-3.5,4.1c-1,1.2-1.9,2.4-2.8,3.6c-0.9,1.2-1.6,2.4-2.1,3.5h0.2c0.3,0,0.4,0.1,0.5,0.2C260,49,260.1,49.1,260.3,49.2z
	 M286.4,61.8c-0.1,0.1-0.1,0.1,0,0.1c0.1,0,0.1,0.1,0,0.2c-0.4-0.1-0.7-0.2-0.9-0.5c-0.2-0.3-0.4-0.5-0.6-0.7
	c-0.1-0.7-0.2-1.2-0.4-1.6c0-0.1,0.1-0.2,0.2-0.2c-0.1-0.1-0.1-0.1-0.2-0.1c-0.1,0-0.1,0-0.2-0.1c-0.1-1-0.2-1.9-0.4-2.6
	c-0.1-0.7-0.2-1.6-0.1-2.7c0-0.1,0.1-0.1,0.2-0.2c-0.1-0.9,0-1.7,0.2-2.5c0.2-0.8,0.4-1.5,0.5-2.3c0.2-0.3,0.4-0.7,0.5-1.2
	c0.1-0.5,0.2-0.9,0.2-1.3h0.1c0.2-0.8,0.4-1.6,0.7-2.2c0.3-0.6,0.6-1.3,0.8-1.9c0-0.1,0-0.2-0.1-0.2c-0.1,0-0.1-0.1,0-0.2
	c0.3-0.6,0.6-1.2,0.8-1.9c0.2-0.6,0.4-1.2,0.7-1.8c-0.3-0.1-0.5-0.1-0.7-0.1c-0.1,0-0.4,0-0.7,0c-0.3-0.2-0.6-0.2-1.1-0.1
	c-0.5,0.1-0.8,0.1-1.1,0.1c-0.6,0.1-1.1-0.1-1.6-0.3c-0.5-0.3-1.1-0.5-1.6-0.7c0-0.1,0-0.2,0-0.2c0,0,0-0.1,0-0.2
	c-0.1-0.1-0.2-0.2-0.3-0.2c-0.1,0-0.2-0.1-0.2-0.2c0.1-0.3,0.1-0.5-0.2-0.6c-0.2-0.1-0.4-0.3-0.5-0.5c-0.1,0-0.2,0-0.2,0.1
	c-0.1,0.1-0.1,0.1-0.2,0c0.1-0.3,0.1-0.4-0.2-0.4c-0.2,0-0.4-0.1-0.5-0.1c-0.1-0.1-0.1-0.2,0-0.2c0.1-0.1,0.1-0.1,0.1-0.2
	c-0.2-0.1-0.3-0.1-0.4,0c-0.1,0.1-0.3,0.2-0.6,0.2c0.1-0.1,0.1-0.2,0.2-0.2c0.1,0,0.1-0.1,0.2-0.2c-0.2-0.2-0.3-0.2-0.5-0.2
	c-0.1-0.4-0.1-0.7,0-0.9c0.3,0,0.4,0,0.4,0.1c0.1-0.2,0.1-0.3,0.1-0.4c0-0.1,0-0.3,0-0.5c0.3,0.2,0.6,0.3,0.9,0.3
	c0.3,0.1,0.6-0.1,0.7-0.5c0.3,0.2,0.5,0.2,0.6,0c0.1-0.1,0.3-0.2,0.6-0.2c0.1,0,0.2,0,0.2-0.1c0-0.1,0-0.1,0.1-0.2
	c0.6-0.1,1.1-0.2,1.5-0.3c0.4-0.1,0.9-0.2,1.4-0.4c0.4,0,0.8,0,1.1-0.1c0.3-0.1,0.6-0.2,0.9-0.3c0.3-0.1,0.6-0.2,0.9-0.3
	c0.3-0.1,0.7-0.1,1.1,0c0.4-0.5,0.8-0.7,1.3-0.7c0.4,0,0.9-0.1,1.4-0.3c0.4-0.8,0.7-1.6,1-2.5c0.3-0.9,0.7-1.6,1.1-2.4
	c-0.1-0.1-0.1-0.2,0-0.3c0.1-0.1,0.1-0.2,0.1-0.3c0.4-0.6,0.8-1.2,1-1.8c0.3-0.6,0.6-1.3,1-1.9c0.1-0.2,0.2-0.3,0.2-0.5
	c0.1-0.2,0.1-0.4,0.2-0.6c0.1-0.2,0.2-0.3,0.4-0.4c0.2-0.1,0.3-0.3,0.4-0.6c0.2-0.3,0.3-0.6,0.4-0.9c0.1-0.3,0.2-0.6,0.4-0.9
	c0-0.1,0-0.1,0.1,0c0.1,0,0.1,0,0.1,0c0.1-0.1,0.1-0.1,0-0.2c0-0.1,0-0.1,0-0.2c0.1-0.1,0.1-0.2,0.2-0.3c0.1-0.1,0.2-0.2,0.2-0.4
	c0.1-0.2,0.2-0.3,0.2-0.5c0-0.2,0.1-0.3,0.2-0.5c0.1-0.2,0.3-0.5,0.5-0.8c0.1-0.3,0.2-0.5,0.3-0.8c0.1-0.3,0.2-0.4,0.4-0.5
	c0.1-0.4,0.2-0.6,0.3-0.8c0.2-0.2,0.3-0.5,0.3-0.8c0.2-0.2,0.3-0.4,0.5-0.6c0.2-0.3,0.3-0.5,0.5-0.8c0.3-0.8,0.7-1.6,1.2-2.3
	c0.2-0.4,0.4-0.8,0.5-1.2c0.1-0.4,0.3-0.8,0.6-1.1c-0.1-0.2-0.1-0.4,0-0.5c0.1-0.1,0.1-0.2,0.2-0.3V2.9c0.4-0.4,0.8-0.7,1.2-0.9
	c0.2-0.2,0.3-0.3,0.4-0.4c0.1-0.1,0.3-0.2,0.6-0.4c0.1,0.2,0.1,0.3,0,0.4c-0.1,0-0.1,0.1-0.2,0.2c0.2,0.1,0.3,0.2,0.4,0.2
	c0.1,0,0.2,0,0.4,0c0.1-0.2,0.2-0.3,0.4-0.4c0.1-0.1,0.2-0.2,0.3-0.4c0.1,0,0.2,0.1,0.3,0.2c0.1,0.1,0.1,0.2,0,0.4
	c0.1,0.1,0.2,0.1,0.2,0c0-0.1,0.1-0.1,0.2-0.1c0.1,0,0.2,0.1,0.2,0.2c0,0.1,0.1,0.2,0.2,0.2c0.3,0,0.5-0.1,0.6-0.2
	c0.1-0.1,0.3-0.2,0.5-0.2c-0.1-0.1-0.1-0.2-0.1-0.3c0-0.1,0-0.2,0.1-0.3c0.4,0.1,0.8,0.3,1.1,0.7c0.3,0.3,0.7,0.5,1.1,0.5
	c0.2,0.4,0.5,0.7,0.8,0.9c0.3,0.2,0.6,0.4,0.9,0.6c0,0.6,0.2,1.1,0.6,1.3c-0.1,0.4,0,0.7,0,0.9c0.1,0.2,0,0.4-0.1,0.7
	c0.1,0.1,0.1,0.2,0.1,0.3c0,0.1,0,0.2,0,0.4c-0.3,0.8-0.5,1.6-0.8,2.4c-0.3,0.8-0.7,1.5-1.2,2.1c0,0.4-0.1,0.8-0.2,1.1
	s-0.4,0.6-0.6,0.9c-0.2,0.3-0.5,0.5-0.7,0.9c-0.2,0.3-0.3,0.7-0.4,1.1c-0.3,0.6-0.7,1.2-1.1,1.8c0.1,0.4,0,0.7-0.3,0.9
	c-0.2,0.2-0.4,0.5-0.4,0.9c-0.1,0-0.1,0-0.1,0c0,0-0.1,0-0.2,0c-0.5,1.1-1,2.1-1.7,3c-0.7,0.9-1.2,1.9-1.6,3
	c-0.1,0.1-0.2,0.2-0.3,0.3c-0.1,0.1-0.1,0.3-0.2,0.5c0.7,0.1,1.3,0.1,1.8,0.1c0.5-0.1,1-0.1,1.4-0.2c0.3-0.1,0.5-0.1,0.8,0
	c0.3,0,0.5,0,0.8,0c1.2-0.1,2.6-0.2,4.2-0.2c1.6-0.1,3.2-0.1,4.9-0.1c0.1,0.1,0.1,0.1,0,0.2c0,0.1,0,0.2,0.1,0.3
	c0.1,0,0.2-0.1,0.2-0.2c0.1-0.1,0.1-0.1,0.2,0c0.1,0.4,0,0.7-0.2,0.9c-0.2,0.2-0.5,0.4-0.7,0.6c0.3,0.1,0.5,0.2,0.6,0.2
	c0,0.1,0,0.2,0.1,0.2c0.1,0,0.1,0.1,0,0.2c-0.1,0.1-0.2,0.1-0.2,0.1c-0.1-0.1-0.1-0.1-0.2-0.1c-0.2,0.5-0.5,0.8-0.9,0.9
	c-0.5,0.1-0.9,0.2-1.3,0.4c0.1-0.1,0-0.2-0.2-0.2c-0.2,0-0.3,0.1-0.3,0.2c-0.1,0.2-0.2,0.2-0.4,0.2c0,0.2,0,0.2,0,0.3
	c0,0,0,0.1,0.1,0.1c0.1-0.1,0.2-0.1,0.3-0.2c0.1-0.1,0.2-0.2,0.4-0.2c0,0.2,0,0.2-0.1,0.2c-0.1,0-0.1,0.1-0.1,0.2
	c0,0.1,0.1,0.1,0.2,0.1c0.1,0,0.2,0,0.3,0c-0.1,0.1-0.1,0.2-0.1,0.3c0,0.1-0.1,0.1-0.1,0.2c-0.3,0.2-0.6,0.3-0.9,0.4
	c-0.3,0.1-0.5,0.3-0.7,0.5c-0.4,0.1-0.7,0.2-1,0.2c-0.3,0.1-0.6,0.2-0.9,0.3c-0.3-0.1-0.5,0-0.8,0.2c-0.3,0.2-0.6,0.4-1,0.5
	c-0.1,0-0.2,0-0.3,0c-0.1,0-0.2,0-0.3,0c-0.5,0.1-1,0.3-1.5,0.5c-0.5,0.2-1.1,0.3-1.7,0.3c-0.1,0-0.1,0,0,0.1c0,0.1,0,0.1,0,0.2
	c-1.2-0.1-2.4,0.1-3.5,0.4c-1.1,0.3-2.3,0.6-3.4,0.9c-0.3,0.6-0.5,1.1-0.8,1.4c-0.3,0.4-0.4,0.9-0.5,1.4c-0.2,0.4-0.4,0.7-0.6,1.1
	c-0.2,0.4-0.3,0.8-0.4,1.1c-0.2,0.5-0.5,0.9-0.7,1.3c-0.3,0.4-0.5,1-0.6,1.6c-0.6,0.7-1,1.5-1.2,2.3c-0.3,0.9-0.6,1.7-0.9,2.6
	c-0.1,0.4-0.2,0.9-0.3,1.5c-0.2,0.6-0.3,1.1-0.5,1.6c-0.2,0.9-0.5,1.9-0.8,2.8c-0.3,1-0.5,1.9-0.6,2.8c-0.1,0.5-0.2,0.9-0.2,1.3
	c-0.1,0.4-0.1,0.8-0.2,1.2c0,0.2-0.1,0.3-0.2,0.3c-0.1,0.1,0,0.2,0,0.2c0.1,0,0.1,0.1,0.1,0.2c-0.7,0.9-1.2,1.9-1.6,3
	c-0.1,0.1-0.2,0.1-0.3,0.1c-0.1,0.1-0.1,0.2-0.1,0.3c0.1,0.1,0,0.2-0.1,0.4c-0.2,0-0.3-0.1-0.4-0.2c-0.1-0.2-0.1-0.3-0.2-0.4
	c-0.2,0.3-0.1,0.5,0.2,0.6c-0.2,0.1-0.4,0.1-0.5,0c0,0.1,0,0.2,0.1,0.3c0.1,0.1,0,0.1-0.1,0.2c-0.2,0-0.2-0.1-0.2-0.3
	c0-0.2,0-0.4,0-0.5c-0.1,0.2-0.2,0.3-0.2,0.4c-0.2,0-0.3-0.2-0.2-0.5c-0.3,0-0.4,0.1-0.4,0.2c-0.2-0.2-0.3-0.4-0.4-0.6
	c-0.1-0.2-0.1-0.4-0.2-0.7l-0.1-0.1c-0.1,0-0.1,0-0.1,0.1c-0.1-0.1-0.1-0.2-0.1-0.2C286.5,62,286.5,61.9,286.4,61.8z M280.2,34.3
	c-0.2,0-0.2,0.1-0.2,0.2C280.1,34.5,280.2,34.4,280.2,34.3z M281.6,35.8c0-0.1-0.1-0.2-0.3-0.3C281.3,35.6,281.4,35.7,281.6,35.8z
	 M283.9,37.5c0-0.1-0.1-0.2-0.2-0.2c-0.1,0-0.2,0-0.2,0.1c0.1,0.1,0.1,0.1,0.2,0.1C283.8,37.6,283.9,37.6,283.9,37.5z M314.3,40
	c0.1-0.1,0.3-0.3,0.5-0.5c0.2-0.2,0.4-0.5,0.6-0.7c0.2-0.3,0.4-0.5,0.5-0.7c0.2-0.2,0.3-0.3,0.3-0.3c0.6-0.9,1.3-1.7,1.9-2.5
	c0.7-0.8,1.3-1.6,1.9-2.5c0.8-0.6,1.4-1.3,1.8-2.3c0.4-1,0.8-1.6,1.2-2.1c0-0.1,0-0.2-0.1-0.2c-0.1,0-0.1-0.1-0.2-0.1
	c0.1-0.3,0.2-0.5,0.2-0.6c0.1-0.1,0.2-0.2,0.5-0.2h0.2c0.6-0.8,1.3-1.2,2.3-1.3s1.8-0.3,2.7-0.7c0.1,0,0.1,0.1,0.2,0.3
	c0.8,0,1.6,0.1,2.5,0.4c0.9,0.3,1.6,0.6,2.1,1.1h0.1c0.1,0,0.1-0.1,0.1-0.2c-0.1-0.1,0-0.2,0.1-0.2c0.3,0.3,0.7,0.5,1.4,0.8
	c0.7,0.3,1.1,0.4,1.3,0.4h0.5c0.1,0,0.4,0.1,1,0.4c0.5,0.3,0.9,0.5,1.1,0.7c0.2,0,0.2,0,0.2-0.1c0.1,0.4,0.4,0.5,0.9,0.5
	c0.2,0,0.3,0,0.3-0.1c0,0.2,0.2,0.5,0.7,1c0.4,0.4,0.9,0.9,1.4,1.3c0.5,0.4,1.2,1,2.1,1.6c1,0.9,1.8,1.9,2.5,3
	c0.7,1.1,1.1,2.3,1.1,3.7c0,0.2,0,0.4-0.1,0.6c-0.1,0.2-0.1,0.4-0.1,0.5v0.6c0,1.4-0.3,2.5-0.9,3.5c-0.6,1-1.3,1.8-2.1,2.5
	c-0.1,0.4-0.3,0.6-0.6,0.7c-0.3,0.1-0.5,0.3-0.6,0.6l-0.1-0.1c-0.2,0-0.5,0.2-1.1,0.7c-0.5,0.5-1.1,1-1.7,1.6
	c-0.6,0.5-1.1,1.1-1.5,1.5c-0.4,0.5-0.6,0.7-0.5,0.5c-0.2,0.3-0.5,0.7-1,1c-0.5,0.4-1,0.7-1.6,1.1c-0.6,0.4-1.2,0.7-1.9,1.1
	c-0.7,0.3-1.3,0.6-1.9,0.8c-1.1,0.6-2.3,1.2-3.5,2s-2.2,1.1-3,1.1c-0.2,0-0.4,0-0.5-0.1c-0.1,0.1-0.1,0.2-0.2,0.2
	c-0.1,0.1-0.1,0.1-0.2,0.2c-0.1-0.1-0.2-0.1-0.2-0.1c0,0-0.1,0-0.2,0c-1,0.4-2.1,0.5-3.3,0.5c-0.7,0-1.4-0.1-2-0.2
	c-0.6-0.2-1.1-0.4-1.5-0.8H318c-0.5,0-1-0.1-1.4-0.4c-0.4-0.3-0.7-0.6-1.1-1c-0.3-0.4-0.6-0.7-1-1.1c-0.3-0.4-0.7-0.7-1.1-1
	c-0.3-0.6-0.5-1.1-0.6-1.4c-0.1-0.4-0.4-0.9-0.8-1.4v-0.3c0-0.3,0-0.5-0.1-0.8c-0.1-0.3-0.1-0.6-0.1-0.8c0.1-0.2,0.2-0.4,0.2-0.5
	c0.1-0.1,0.1-0.3,0.1-0.6v-1.3v-0.8c0-0.3,0-0.5,0-0.8c0-0.3,0-0.6,0-0.8c0-0.5,0.1-0.8,0.2-1.1v-0.3c0-0.9,0.2-1.8,0.7-2.8
	c0.5-1,0.9-1.8,1.4-2.6c0-0.1,0-0.1,0-0.1c0,0,0-0.1,0-0.1V40z M324.6,49.2c0.6-0.3,1.2-0.5,1.8-0.7c0.5-0.2,1.1-0.6,1.5-1.1
	l0.2,0.1c0.3,0,0.5-0.1,0.6-0.4c0.1-0.2,0.3-0.4,0.6-0.4h0.2c0.1-0.2,0.5-0.5,1.1-0.9c0.6-0.4,1.2-0.9,1.9-1.3
	c0.7-0.5,1.4-0.9,2-1.4c0.6-0.5,1.1-0.9,1.4-1.2c0.1-0.1,0.2-0.2,0.5-0.4c0.3-0.2,0.6-0.5,0.9-0.8c0.3-0.3,0.6-0.7,0.9-1.1
	c0.3-0.4,0.4-0.9,0.4-1.4c0-0.5-0.1-0.9-0.4-1.2c-0.3-0.4-0.6-0.7-1-1c-0.4-0.3-0.8-0.6-1.2-0.9c-0.4-0.3-0.7-0.6-0.9-0.9
	c-1,1-2,2.1-2.9,3.2c-1,1.1-2.1,2.4-3.5,4.1c-1,1.2-1.9,2.4-2.8,3.6c-0.9,1.2-1.6,2.4-2.1,3.5h0.2c0.3,0,0.4,0.1,0.5,0.2
	C324.3,49,324.4,49.1,324.6,49.2z"/>
</svg>
