<?xml version="1.0" encoding="utf-8"?>
<!-- Generator: Adobe Illustrator 27.2.0, SVG Export Plug-In . SVG Version: 6.00 Build 0)  -->
<svg version="1.1" id="Layer_1" xmlns="http://www.w3.org/2000/svg" xmlns:xlink="http://www.w3.org/1999/xlink" x="0px" y="0px"
	 viewBox="0 0 309.9 35.6" style="enable-background:new 0 0 309.9 35.6;" xml:space="preserve">
<style type="text/css">
	.st0{fill:#F7EC13;}
</style>
<g>
	<path class="st0" d="M0,35V0h9.7l5.7,18c1.3,4.2,2.3,7.8,3.1,10.7h0.1c0.3-1.4,0.8-3.1,1.4-5.1s1.1-3.9,1.6-5.6l5.7-18h9.6v35h-5.9
		V14.5c0-1,0-2.4,0.1-4.1c0-1.8,0.1-3.3,0.1-4.7H31c-1.4,4.7-2.3,7.9-2.8,9.4l-6.5,20H15L8.6,14.9c-0.1-0.2-0.5-1.7-1.3-4.3l-1.5-5
		H5.7c0.1,4.5,0.2,7.5,0.2,9V35H0z"/>
	<path class="st0" d="M54.6,35.6c-2.6,0-4.9-0.5-6.8-1.6c-1.9-1-3.4-2.6-4.4-4.5c-1-2-1.5-4.3-1.5-7c0-2.5,0.5-4.8,1.6-6.8
		c1-2,2.5-3.5,4.4-4.7s4.2-1.7,6.8-1.7c2.6,0,4.8,0.6,6.7,1.7c1.9,1.1,3.4,2.7,4.4,4.7c1,2,1.6,4.2,1.6,6.8c0,2.6-0.5,4.9-1.6,6.9
		s-2.5,3.5-4.5,4.6S57.1,35.6,54.6,35.6z M54.6,31.2c2.3,0,3.9-0.7,4.9-2.1c1-1.4,1.5-3.6,1.5-6.6s-0.5-5.2-1.5-6.6
		c-1-1.4-2.6-2.1-4.9-2.1c-2.3,0-3.9,0.7-4.9,2.1c-1,1.4-1.5,3.6-1.5,6.6c0,2,0.2,3.7,0.6,4.9c0.4,1.3,1.1,2.2,2.1,2.9
		C51.8,30.9,53,31.2,54.6,31.2z"/>
	<path class="st0" d="M91.9,12c0.9,0.9,1.5,2,1.7,3.3c0.3,1.3,0.4,2.8,0.4,4.7V35h-6V20.4c0-1.4-0.1-2.4-0.2-3.2
		c-0.2-0.7-0.5-1.4-1.1-1.9c-0.5-0.5-1.1-0.8-1.6-1c-0.6-0.2-1.3-0.2-2.1-0.2c-0.9,0-1.7,0.2-2.5,0.6c-0.8,0.4-1.5,1.1-2.1,2.2
		c-0.6,1.1-0.9,2.5-0.9,4.4V35h-5.9V10h5.9v3.7c0.6-1.5,1.6-2.6,2.9-3.3c1.3-0.7,2.8-1.1,4.7-1.1c1.6,0,2.9,0.2,4.1,0.6
		C90.1,10.4,91.1,11.1,91.9,12z"/>
	<path class="st0" d="M109,35.6c-2,0-3.9-0.3-5.5-0.9c-1.7-0.6-3-1.6-4-2.8c-1-1.3-1.5-2.9-1.6-4.8l5.6-0.6c0,1.6,0.5,2.8,1.5,3.7
		c1,0.8,2.4,1.3,4.1,1.3c1.7,0,2.9-0.3,3.8-0.9c0.9-0.6,1.3-1.4,1.3-2.4c0-0.6-0.2-1.1-0.7-1.5c-0.4-0.4-1-0.7-1.7-0.9
		s-1.7-0.5-3-0.8l-1.5-0.4c-1.8-0.5-3.3-1-4.5-1.5c-1.2-0.5-2.2-1.3-3-2.3s-1.2-2.3-1.2-3.8c0-1.7,0.5-3.1,1.4-4.2
		c0.9-1.1,2.1-1.9,3.6-2.5c1.5-0.5,3.1-0.8,4.9-0.8c3,0,5.5,0.6,7.4,1.9c1.9,1.3,3,3.3,3.3,6.1l-5.5,0.9c-0.1-1.5-0.5-2.7-1.5-3.4
		c-0.9-0.8-2.2-1.1-3.7-1.1c-1.2,0-2.2,0.2-3,0.7c-0.8,0.5-1.2,1.2-1.2,2.1c0,0.6,0.2,1.1,0.7,1.5c0.4,0.4,1,0.7,1.8,1
		c0.7,0.2,1.8,0.5,3.1,0.8c2.2,0.5,4,1,5.3,1.4s2.4,1.2,3.4,2.3c0.9,1,1.4,2.5,1.4,4.3c0,2.8-1,4.8-3,6.1
		C114.6,35,112.1,35.6,109,35.6z"/>
	<path class="st0" d="M133,35.3c-2.5,0-4.3-0.5-5.6-1.6c-1.3-1-1.9-2.7-1.9-5v-14h-3.6V10h3.6v-7h5.8v7h5.1v4.7h-5.1v13.5
		c0,0.7,0.2,1.2,0.6,1.5c0.4,0.3,1.1,0.4,2,0.4c0.6,0,1.4-0.1,2.3-0.2l0.1,5.1C135.3,35.2,134.2,35.3,133,35.3z"/>
	<path class="st0" d="M147.9,35.6c-1.6,0-3-0.3-4.3-0.8c-1.3-0.6-2.4-1.4-3.1-2.5c-0.8-1.1-1.2-2.5-1.2-4.1c0-1.7,0.4-3.1,1.2-4.1
		c0.8-1,1.9-1.8,3.2-2.3c1.3-0.5,2.8-1,4.6-1.3l7.5-1.4c0-1,0-1.7-0.1-2.3c-0.1-0.6-0.3-1.1-0.6-1.5c-0.3-0.5-0.8-0.8-1.5-1
		c-0.7-0.2-1.5-0.3-2.5-0.3c-1.7,0-3,0.4-3.8,1.1c-0.8,0.7-1.2,1.9-1.2,3.6l-5.8-0.8c0.1-2.9,1.2-5,3.1-6.3c1.9-1.3,4.6-2,8.1-2
		c3.2,0,5.7,0.7,7.5,2.1c1.7,1.4,2.6,3.5,2.6,6.2v12.9c0,1.5,0.3,3,0.9,4.3V35h-5.9c-0.2-1.1-0.3-2.3-0.3-3.5
		c-0.7,1.3-1.7,2.3-3.1,3C151.6,35.2,149.9,35.6,147.9,35.6z M149.2,31.2c2.1,0,3.7-0.5,4.9-1.5c1.1-1,1.7-2.4,1.7-4.2v-2.3
		l-6.5,1.4c-1.3,0.3-2.3,0.7-2.9,1.2c-0.7,0.5-1,1.3-1,2.4c0,1,0.4,1.8,1.1,2.3C147.1,30.9,148,31.2,149.2,31.2z"/>
	<path class="st0" d="M180.6,9.4c0.2,0,0.5,0,1.1,0l-0.1,5.4c-0.3,0-0.7-0.1-1.2-0.1c-1.7,0-3.1,0.3-4.2,0.8c-1.1,0.5-2,1.4-2.6,2.7
		s-0.9,3.1-0.9,5.3V35h-5.9V10h5.9v4.5c0.4-1.5,1.4-2.7,2.8-3.6S178.6,9.5,180.6,9.4z"/>
	<path class="st0" d="M190.7,35h-5.9V0h5.9V35z"/>
	<path class="st0" d="M203.6,35.6c-1.6,0-3-0.3-4.3-0.8c-1.3-0.6-2.4-1.4-3.1-2.5c-0.8-1.1-1.2-2.5-1.2-4.1c0-1.7,0.4-3.1,1.2-4.1
		c0.8-1,1.9-1.8,3.2-2.3c1.3-0.5,2.8-1,4.6-1.3l7.5-1.4c0-1,0-1.7-0.1-2.3c-0.1-0.6-0.3-1.1-0.6-1.5c-0.3-0.5-0.8-0.8-1.5-1
		c-0.7-0.2-1.5-0.3-2.5-0.3c-1.7,0-3,0.4-3.8,1.1c-0.8,0.7-1.2,1.9-1.2,3.6l-5.8-0.8c0.1-2.9,1.2-5,3.1-6.3c1.9-1.3,4.6-2,8.1-2
		c3.2,0,5.7,0.7,7.5,2.1c1.7,1.4,2.6,3.5,2.6,6.2v12.9c0,1.5,0.3,3,0.9,4.3V35h-5.9c-0.2-1.1-0.3-2.3-0.3-3.5
		c-0.7,1.3-1.7,2.3-3.1,3C207.3,35.2,205.6,35.6,203.6,35.6z M204.9,31.2c2.1,0,3.7-0.5,4.9-1.5c1.1-1,1.7-2.4,1.7-4.2v-2.3
		l-6.5,1.4c-1.3,0.3-2.3,0.7-2.9,1.2c-0.7,0.5-1,1.3-1,2.4c0,1,0.4,1.8,1.1,2.3C202.9,30.9,203.8,31.2,204.9,31.2z"/>
	<path class="st0" d="M236,9.4c2.2,0,4.1,0.5,5.8,1.6c1.7,1.1,3,2.6,3.9,4.6c0.9,2,1.4,4.3,1.4,6.9c0,2.7-0.5,5-1.4,7
		c-1,2-2.3,3.5-4,4.6s-3.7,1.6-5.9,1.6c-1.6,0-3-0.4-4.4-1.1c-1.3-0.7-2.3-1.7-3.1-3V35h-5.9V0h5.9v13.1c0.8-1.2,1.9-2.1,3.2-2.8
		C233,9.7,234.4,9.4,236,9.4z M234.5,31.3c2.3,0,3.9-0.7,4.8-2.1c0.9-1.4,1.4-3.6,1.4-6.6s-0.5-5.2-1.4-6.6c-1-1.4-2.6-2.1-4.9-2.1
		c-2.2,0-3.8,0.8-4.7,2.3c-0.9,1.6-1.4,3.7-1.4,6.5c0,2.8,0.5,5,1.6,6.5C230.9,30.5,232.4,31.3,234.5,31.3z"/>
	<path class="st0" d="M281.3,6.5h-6.5V0h6.5V6.5z M281.3,35h-6.5v-6.5h6.5V35z M303.4,6.5V0h6.5v6.5H303.4z M309.9,35h-6.5v-6.5h6.5
		V35z"/>
</g>
</svg>
