<?xml version="1.0" encoding="utf-8"?>
<!-- Generator: Adobe Illustrator 27.2.0, SVG Export Plug-In . SVG Version: 6.00 Build 0)  -->
<svg version="1.1" id="レイヤー_1" xmlns="http://www.w3.org/2000/svg" xmlns:xlink="http://www.w3.org/1999/xlink" x="0px"
	 y="0px" viewBox="0 0 220 40" style="enable-background:new 0 0 220 40;" xml:space="preserve">
<style type="text/css">
	.st0{fill:#FFFFFF;}
</style>
<g id="pNi8W3_00000132807518876915506840000003823629967851778438_">
	
		<image style="overflow:visible;" width="375" height="68" id="pNi8W3_00000126302078937217688600000017633206877335431317_" xlink:href="49F0C25E09721717.png"  transform="matrix(0.5815 0 0 0.5815 0.9257 0.5974)">
	</image>
</g>
<rect x="1" y="5.3" class="st0" width="9.6" height="0.7"/>
<path class="st0" d="M14.7,6.1v2.8H14V6.2l-0.6,0.1c-0.1,1.9-0.5,3.5-1.2,4.5l-0.6-0.4c0.4-0.7,0.7-1.6,0.9-2.7
	c0.1-0.4,0.1-0.9,0.1-1.3l-0.7,0.1l-0.1-0.7c0.2,0,0.4,0,0.8-0.1V2.3h1.2C14,2,14.1,1.6,14.2,1l0.8,0.1c-0.1,0.2-0.2,0.6-0.4,1.1
	h1.6v3c0.2,0,0.3-0.1,0.4-0.1v0.6c-0.1,0-0.2,0-0.4,0.1v3.9c0,0.2-0.1,0.4-0.3,0.6c-0.2,0.2-0.4,0.3-0.7,0.3H14L13.9,10H15
	c0.3,0,0.5-0.2,0.5-0.5V6C15.2,6,15,6.1,14.7,6.1 M15.5,5.3V2.9h-2.1v2.7C14.1,5.5,14.8,5.4,15.5,5.3 M14.3,5l-0.5-1.4l0.6-0.2
	L15,4.8L14.3,5z M16.5,10.2c1-0.2,1.8-0.6,2.5-1c-0.8-0.8-1.4-1.7-1.5-2.7h-0.5V5.7h4.9c0,1.3-0.5,2.5-1.5,3.4
	c0.6,0.4,1.2,0.7,2,0.9l-0.5,0.7c-0.9-0.3-1.6-0.7-2.1-1.1c-0.9,0.6-1.8,1-2.8,1.2L16.5,10.2z M20.4,5c-0.4-0.1-0.7-0.3-0.7-0.7V2
	h-1.5v0.4c0,1.3-0.4,2.3-1.3,2.9l-0.5-0.4C16.8,4.6,17,4.3,17.2,4c0.2-0.4,0.3-0.9,0.3-1.5V1.4h3.1v2.7c0,0.2,0.1,0.3,0.3,0.3h0.3
	c0.2,0,0.3-0.1,0.4-0.4c0-0.1,0-0.4,0-0.9l0.7,0.1v1.1c0,0.2-0.1,0.4-0.2,0.5C21.9,4.9,21.7,5,21.5,5C21.1,5,20.7,5,20.4,5
	 M19.5,8.6c0.7-0.6,1.1-1.4,1.2-2.3h-2.6C18.4,7.3,18.8,8,19.5,8.6"/>
<path class="st0" d="M24.8,10.8V6.5c-0.5,0.4-1,0.7-1.6,1.1l-0.3-0.7c0.7-0.4,1.4-0.9,2-1.5c0.7-0.7,1.2-1.5,1.4-2.2h-3V2.6h1.6V1.2
	h0.8v1.5h1.4l0.2,0.1c-0.2,1-0.7,2-1.5,2.9c0.4,0.4,0.9,0.7,1.5,1.1l-0.4,0.6c-0.3-0.2-0.7-0.5-1.2-0.9v4.3H24.8z M26.6,10.5V9.8h3
	V5h-2.3V4.3h2.3V1.2h0.8v3.1H33V5h-2.6v4.8h3v0.7H26.6z"/>
<path class="st0" d="M34.6,1.5h9.3v9.1h-9.3V1.5z M35.4,9.9h7.8V2.1h-7.8V9.9z M38.5,8.5h1.2c0.2,0,0.4,0,0.5-0.1
	c0.1-0.1,0.2-0.2,0.2-0.4V4.8h-4.3V4.1h4.3V2.8h0.8v1.3h1.1v0.7h-1.1v3.4c0,0.3-0.1,0.6-0.4,0.8c-0.2,0.2-0.5,0.3-0.8,0.3h-1.5
	L38.5,8.5z M38.2,7.7c-0.5-0.7-0.9-1.3-1.4-1.9l0.6-0.4C38,6,38.5,6.6,38.9,7.3L38.2,7.7z"/>
<path class="st0" d="M46.9,6.1c-0.4-0.5-1-1.1-1.7-1.8l0.5-0.5C46.4,4.4,47,5,47.5,5.6L46.9,6.1z M46,10.5l-0.6-0.4
	c0.2-0.4,0.5-0.9,0.9-1.7c0.3-0.7,0.5-1.3,0.7-1.8l0.7,0.3c-0.1,0.5-0.3,1.1-0.6,1.8C46.6,9.4,46.3,10,46,10.5 M47.3,3.6
	c-0.4-0.5-1-1.1-1.7-1.8L46,1.4c0.7,0.6,1.4,1.1,1.8,1.7L47.3,3.6z M48,10.6l-0.2-0.7c0.3,0,0.7,0,1.2-0.1c0.5-1.1,1-2.3,1.4-3.6
	h-2.3V5.6h3.2V3.4h-2.8V2.8h2.8V1.1h0.9v1.6H55v0.7h-2.9v2.1h3.4v0.7h-4.2c-0.5,1.3-1,2.5-1.5,3.5c1.9-0.1,3.2-0.3,4-0.4
	c-0.4-0.7-0.8-1.4-1.2-1.9l0.7-0.3c0.7,0.9,1.3,1.9,2,3.1l-0.8,0.3c-0.1-0.2-0.2-0.4-0.3-0.6C53.2,10.1,51.2,10.3,48,10.6"/>
<path class="st0" d="M61.6,5.7c-0.2,0.7-0.5,1.3-0.8,2c-0.4,0.6-0.9,1.2-1.6,1.7c-0.7,0.5-1.4,0.9-2.1,1.2L56.7,10
	c1.2-0.5,2.1-1.2,2.8-2c1-1.2,1.6-2.5,1.6-3.9V1.4h0.9v2.8c0.1,0.7,0.3,1.4,0.8,2.3c0.5,0.9,1.1,1.6,1.8,2.1
	c0.8,0.6,1.5,1.1,2.1,1.3l-0.5,0.7c-1.6-0.8-2.8-1.8-3.6-3.1C62.1,7,61.8,6.4,61.6,5.7"/>
<path class="st0" d="M1,19.3h18.6v19.3H1V19.3z M4.4,27.2h11.7V22H4.4V27.2z M16.1,29.9H4.4v5.8h11.7V29.9z"/>
<path class="st0" d="M29.1,32.9c-1.6,1.4-3.1,2.6-4.6,3.5L22.8,34c1.5-1,3-2.1,4.4-3.4c2.1-2.1,3.7-4,4.7-5.7h-8v-2.8h9v-4h3.2v4h9
	v2.8h-8.2c1,1.6,2.2,3,3.6,4.4c1.6,1.6,3.5,3,5.6,4.2l-2,2.8c-2-1.3-4-2.8-5.8-4.6c-0.4-0.4-0.8-0.9-1.3-1.6
	c-0.4-0.5-0.7-1.1-1.1-1.6v4.4h3.5v2.7h-3.5v3.8h-3.2v-3.8h-3.8V32.9z M32.9,28.5c-0.6,0.9-1.1,1.5-1.2,1.7c-0.5,0.7-1,1.2-1.4,1.6
	c-0.4,0.4-0.8,0.8-1.2,1.1h3.7V28.5z"/>
<path class="st0" d="M57.1,30.6H53v7.6h-3.6V19.4l8.9,0c2,0,3.5,0.5,4.5,1.5c1,0.9,1.4,2.2,1.4,3.9c0,1.3-0.3,2.4-0.9,3.3
	c-0.6,1-1.6,1.7-2.7,2.1l4.6,7.7v0.4h-3.9L57.1,30.6z M57.7,22H53v5.9h4.4c1,0,1.8-0.2,2.3-0.7c0.6-0.5,0.9-1.3,0.9-2.3
	c0-0.9-0.3-1.6-0.9-2.1C59.2,22.3,58.5,22,57.7,22"/>
<path class="st0" d="M80.6,38.3h-2.9l-0.1-1c-1.3,0.9-2.7,1.4-4.3,1.4c-2.3,0-3.8-0.4-4.8-1.3c-0.8-0.8-1.2-2.1-1.2-4l0-8.4h3.1
	l0,8.4c0,1.8,0.9,2.6,2.8,2.6c1,0,1.9-0.2,2.7-0.6c0.7-0.4,1.3-0.9,1.5-1.5V25h3.2L80.6,38.3z"/>
<path class="st0" d="M91.5,38.6c-1.9,0-3.3-0.5-4.3-1.5L87,38.3h-2.7V18.9h3.2v6.8c1.3-0.8,2.8-1.2,4.4-1.2c2,0,3.7,0.7,4.9,2
	c1.2,1.3,1.8,3,1.7,5.2C98.4,36.2,96,38.4,91.5,38.6 M91.4,27.1c-1.9,0-3.2,0.6-4,1.9v5.1c0.2,0.5,0.7,0.9,1.4,1.3
	c0.7,0.4,1.5,0.5,2.4,0.5c2.6,0,3.9-1.4,3.9-4.3c0-1.4-0.4-2.6-1.1-3.4C93.4,27.5,92.5,27.1,91.4,27.1"/>
<polygon class="st0" points="107.2,40.6 103.9,40.6 106.1,36.1 100,25 103.6,25 107.8,33.1 111.8,25 115.4,25 "/>
<path class="st0" d="M132.7,37.3c-0.7,0.3-2.2,0.5-4.4,0.6l-0.5-2.5c1.6-0.1,2.6-0.2,3-0.3c0.5-0.1,1-0.4,1.6-0.8
	c1.3-0.9,1.9-2.4,1.9-4.5c0-3.3-1.9-5-5.6-5.3c0,1-0.1,2.6-0.3,4.7c-0.3,2.8-1,4.9-2.2,6.5c-0.9,1.2-2.3,1.8-4.2,1.8
	c-1.4,0-2.5-0.6-3.2-1.8c-0.8-1.2-1.1-2.8-1-4.7c0-1.2,0.4-2.4,1-3.6c0.6-1.2,1.4-2.2,2.4-3.1c1.8-1.6,4.2-2.4,7-2.3
	c3.4,0.1,5.9,1,7.5,2.7c1.2,1.3,1.8,3.1,1.7,5.3c0,2-0.5,3.5-1.3,4.7C135.3,35.8,134.2,36.7,132.7,37.3 M123.2,26
	c-1.6,1.3-2.5,2.9-2.6,4.9c0,0.3,0,0.5,0,0.7c0,2,0.5,3,1.5,3.1c0.1,0,0.3,0,0.4,0c0.9,0,1.6-0.5,2.2-1.5c0.5-1,0.9-2.6,1.1-4.8
	c0-0.2,0.1-1.5,0.2-3.9C125,24.8,124.1,25.3,123.2,26"/>
<path class="st0" d="M158.2,27.5h-13v-1.4c-1.4,0.9-2.7,1.6-3.9,2l-1.5-2.5c1.7-0.7,3.6-1.8,5.6-3.2c2.2-1.6,3.7-3.1,4.5-4.4h3.3
	c0.9,1.2,2.2,2.4,3.9,3.7c1.6,1.2,3.7,2.4,6.5,3.5l-1.8,2.9c-1.1-0.4-2.3-1-3.5-1.8V27.5z M158,38.1c-3.6,0.4-8.9,0.8-15.9,1.2
	l-0.4-2.9c0.7,0,1.5,0,2.4-0.1c0.8-1.2,1.6-2.6,2.3-4.1h-5.1v-2.8h20.8v2.8h-4.6c1.3,1.3,2.8,3.3,4.6,5.9l-3.3,1.1
	C158.5,39,158.3,38.6,158,38.1 M147.3,24.9h8.7c-1.8-1.3-3.2-2.7-4.3-4C150.6,22.2,149.1,23.5,147.3,24.9 M147.6,36.2
	c2-0.1,4.9-0.3,8.5-0.6c-0.5-0.6-1.3-1.5-2.2-2.7c0-0.1,0.1-0.1,0.1-0.2l1.1-0.5h-5C149.5,33.2,148.7,34.5,147.6,36.2"/>
<g>
	<path class="st0" d="M171.2,38.8h3.4c1.2,0,2.4-0.9,2.8-2l4.2-11.2c0.4-1.1-0.1-2-1.2-2c-1,0-2.4,0.8-3,1.8L170.2,37
		C169.6,38,170,38.8,171.2,38.8"/>
	<path class="st0" d="M203.4,38.8h5.3c1.2,0,1.8-0.9,1.5-2l-6.4-22.5c-0.3-1.1-1.4-2-2.5-2c-1,0-1.8,0.9-1.7,2.1l1.6,22.3
		C201.2,37.9,202.2,38.8,203.4,38.8"/>
	<path class="st0" d="M214.8,38.8h3.4c1.2,0,1.5-0.8,0.8-1.7l-8.8-11.8c-0.7-0.9-1.7-1.7-2.2-1.7c-0.5,0-0.6,0.9-0.2,2l4.2,11.2
		C212.3,37.9,213.6,38.8,214.8,38.8"/>
	<path class="st0" d="M180.7,38.8h1.5c1.2,0,2.4-0.9,2.7-2l6.4-22.5c0.3-1.1-0.3-2-1.3-2c-1,0-2.2,0.9-2.6,2l-8.1,22.6
		C178.9,37.9,179.5,38.8,180.7,38.8"/>
	<path class="st0" d="M188.2,38.8h3.4c1.2,0,2.2-0.9,2.4-2.1L199.1,3c0.2-1.2-0.5-2.1-1.6-2.1c-1,0-2.1,0.9-2.4,2l-8.5,33.8
		C186.4,37.9,187.1,38.8,188.2,38.8"/>
</g>
</svg>
