<?xml version="1.0" encoding="utf-8"?>
<!-- Generator: Adobe Illustrator 27.2.0, SVG Export Plug-In . SVG Version: 6.00 Build 0)  -->
<svg version="1.1" id="レイヤー_1" xmlns="http://www.w3.org/2000/svg" xmlns:xlink="http://www.w3.org/1999/xlink" x="0px"
	 y="0px" viewBox="0 0 543.2 174.5" style="enable-background:new 0 0 543.2 174.5;" xml:space="preserve">
<style type="text/css">
	.st0{fill:#FFFFFF;}
</style>
<g>
	<g>
		<path class="st0" d="M342.8,71.4c0,8-6.9,11.5-13.8,11.5s-14.3-4-14.3-11.5V9c-7.4,0-14.9,0-22.3,0v63.6
			c0,20.1,17.8,32.1,36.7,32.1c18.9,0,36.7-12,36.7-32.1V9c-7.4,0-15.5,0-22.9,0V71.4z"/>
		<path class="st0" d="M44.3,45.7c-8.6-1.1-15.5-2.3-14.9-9.2c0.6-12,25.8-12.6,25.8,0h22.9c0.6-40.7-72.2-40.7-71.6,0
			c0,20.1,14.3,26.9,33.8,28.6c9.2,1.1,17.2,2.3,17.2,8.6c0,11.5-29.2,10.9-29.2-1.1c-8,0-14.9,0-22.9,0C4.8,113.8,81,113.3,81,73.7
			C81,50.8,62.7,47.4,44.3,45.7z"/>
		<path class="st0" d="M151.5,71.4c0,8-6.9,11.5-13.8,11.5c-6.9,0-14.3-4-14.3-11.5V9c-7.4,0-14.9,0-22.3,0v63.6
			c0,20.1,17.8,32.1,36.7,32.1s36.7-12,36.7-32.1V9c-7.4,0-15.5,0-22.9,0V71.4z"/>
		<path class="st0" d="M268.9,9H199v21.2h34.4l-37.8,71h73.9c0-8,0-13.2,0-21.2h-38.4L268.9,9z"/>
		<path class="st0" d="M431.1,9c-13.2,0-26.9,0-40.7,0v92.2h23.5V74.3h12l16,26.9H470l-19.5-32.7C474,52.5,467.2,9,431.1,9z
			 M431.1,53.1h-16.6c0-7.4,0-15.5,0-22.9h16.6C444.2,30.2,443.7,53.1,431.1,53.1z"/>
		<path class="st0" d="M536.5,29.6c0-8,0-20.6,0-20.6h-45.8v20.6h11.5v51h-11.5v20.6h45.8c0-8,0-13.2,0-20.6H525v-51L536.5,29.6z"/>
	</g>
	<g>
		<path class="st0" d="M197.6,166.2h2.5c0.1,0,0.3-0.1,0.3-0.2l10.3-16.9l5.6,19.3c0.1,0.1,0.2,0.2,0.3,0.2h10.8
			c0.1,0,0.2-0.1,0.2-0.2l-11.4-36.2c-0.1-0.1-0.2-0.2-0.3-0.2h-4.1c-0.1,0-0.3,0.1-0.3,0.2l-13.9,21.5l-13.9-21.5
			c-0.1-0.1-0.2-0.2-0.3-0.2h-4.1c-0.1,0-0.3,0.1-0.3,0.2l-11.4,36.2c-0.1,0.1,0.1,0.2,0.2,0.2h10.8c0.1,0,0.2-0.1,0.3-0.2l5.6-19.3
			l10.3,16.9c0.1,0.1,0.2,0.2,0.3,0.2H197.6z"/>
		<path class="st0" d="M168,148.2c0-0.1-0.1-0.2-0.2-0.2h-1.4h-10.7H137c-1.6,0-3,1.3-3,3c0,1.6,1.3,3,3,3h18.3
			c-2.2,5.8-9.6,10-18.3,10c-10.5,0-19-6.1-19-13.5c0-7.5,8.5-13.6,19-13.6c5.7,0,10.8,1.8,14.3,4.7c0,0,0,0,0.1,0.1h0.1h12.6
			c0.1,0,0.2-0.1,0.2-0.2c0-0.1,0-0.1-0.1-0.1c-5.4-5.7-15.5-9.6-27.3-9.6c-17.2,0-31.3,8.4-31.3,18.8s14,18.8,31.3,18.8
			c17.2,0,31.3-8.4,31.3-18.8C168.2,149.6,168.2,148.9,168,148.2"/>
		<path class="st0" d="M258.1,131.6c-17.2,0-31.3,8.4-31.3,18.8c0,10.4,14,18.8,31.3,18.8c17.2,0,31.3-8.4,31.3-18.8
			C289.4,140,275.4,131.6,258.1,131.6 M258.1,163.9c-10.5,0-19-6.1-19-13.5c0-7.5,8.5-13.6,19-13.6c10.5,0,19,6.1,19,13.6
			C277.2,157.8,268.6,163.9,258.1,163.9"/>
		<path class="st0" d="M421.2,168.1c0,0.3,0.2,0.6,0.5,0.6h6.5c0.3,0,0.6-0.3,0.6-0.6l1.1-15c0-0.3-0.2-0.6-0.5-0.6H423
			c-0.3,0-0.6,0.3-0.6,0.6L421.2,168.1z"/>
		<path class="st0" d="M459,152.5c-0.3,0-0.6,0.3-0.5,0.6l1.1,15c0,0.3,0.3,0.6,0.6,0.6h6.5c0.3,0,0.9-0.3,0.9-0.6l-1.5-15
			c0-0.3-0.3-0.6-0.6-0.6H459z"/>
		<path class="st0" d="M465.9,145.1c0.3,0,0.6-0.3,0.6-0.6v-6.3c0-0.3-0.3-0.6-0.6-0.6h-17.5c-0.3,0-0.6-0.3-0.6-0.6v-4.4
			c0-0.3-0.3-0.6-0.6-0.6H441c-0.3,0-0.6,0.3-0.6,0.6v4.4c0,0.3-0.3,0.6-0.6,0.6h-17.4c-0.3,0-0.6,0.3-0.6,0.6v6.3
			c0,0.3,0.3,0.6,0.6,0.6h17.4c0.3,0,0.6,0.3,0.6,0.6V168c0,0.3,0.3,0.6,0.6,0.6h6.3c0.3,0,0.6-0.3,0.6-0.6v-22.3
			c0-0.3,0.3-0.6,0.6-0.6H465.9z"/>
		<path class="st0" d="M470.1,140.8c0,0.3,0.3,0.6,0.6,0.6h4.4c0.3,0,0.6-0.3,0.6-0.6v-8.6c0-0.3-0.3-0.6-0.6-0.6h-4.4
			c-0.3,0-0.6,0.3-0.6,0.6V140.8z"/>
		<path class="st0" d="M478.7,140.8c0,0.3,0.3,0.6,0.6,0.6h4.4c0.3,0,0.6-0.3,0.6-0.6v-8.6c0-0.3-0.3-0.6-0.6-0.6h-4.4
			c-0.3,0-0.6,0.3-0.6,0.6V140.8z"/>
		<path class="st0" d="M299.1,157.7c-0.2,0.2-0.2,0.4,0,0.6l4.7,4.7c0.2,0.2,0.4,0.2,0.6,0l17.1-17.1c0.2-0.2,0.4-0.2,0.6,0
			l22.3,22.3c0.2,0.2,0.4,0.2,0.6,0l4.7-4.7c0.2-0.2,0.2-0.4,0-0.6L322,135.3c-0.2-0.2-0.4-0.2-0.6,0L299.1,157.7z"/>
		<path class="st0" d="M344.8,142.6c3,0,5.5-2.5,5.5-5.5c0-3-2.5-5.5-5.5-5.5s-5.5,2.5-5.5,5.5C339.3,140.1,341.8,142.6,344.8,142.6
			"/>
		<path class="st0" d="M362,168.3c0,0.2,0.1,0.4,0.3,0.4h7.2c0.2,0,0.4-0.2,0.5-0.4l3.9-32.5c0-0.2-0.1-0.4-0.3-0.4h-7.2
			c-0.2,0-0.4,0.2-0.5,0.4L362,168.3z"/>
		<path class="st0" d="M391.4,135.3c-0.2,0-0.3,0.2-0.3,0.4l4,32.5c0,0.2,0.2,0.4,0.5,0.4h7.2c0.2,0,0.3-0.2,0.3-0.4l-4-32.5
			c0-0.2-0.2-0.4-0.5-0.4H391.4z"/>
		<path class="st0" d="M409.6,131.6c-3,0-5.5,2.5-5.5,5.5c0,3,2.5,5.5,5.5,5.5c3,0,5.5-2.5,5.5-5.5
			C415.1,134.1,412.7,131.6,409.6,131.6"/>
		<path class="st0" d="M55.7,138.9v13.2h0.1c0.2-0.3,0.5-0.6,0.9-1c0.3-0.3,0.8-0.6,1.3-0.9s1.1-0.5,1.8-0.7
			c0.7-0.2,1.4-0.3,2.3-0.3c1.3,0,2.6,0.2,3.7,0.7c1.1,0.5,2.1,1.2,2.9,2.1c0.8,0.9,1.4,1.9,1.9,3.2s0.7,2.5,0.7,3.8
			s-0.2,2.7-0.6,3.9c-0.5,1.2-1,2.3-1.8,3.2c-0.8,0.9-1.8,1.6-2.9,2.1c-1.1,0.5-2.4,0.8-3.8,0.8c-1.3,0-2.6-0.3-3.7-0.9
			c-1.1-0.6-2.1-1.4-2.7-2.5h-0.2v2.8H51v-29.5L55.7,138.9L55.7,138.9z M66.5,159c0-0.7-0.1-1.4-0.3-2.2c-0.2-0.7-0.6-1.4-1-1.9
			c-0.5-0.6-1-1-1.7-1.4c-0.7-0.3-1.5-0.5-2.4-0.5c-0.9,0-1.6,0.2-2.3,0.6c-0.7,0.3-1.3,0.9-1.7,1.4c-0.5,0.6-0.9,1.2-1.1,1.9
			c-0.2,0.7-0.3,1.4-0.3,2.2s0.1,1.4,0.3,2.2c0.2,0.7,0.6,1.4,1.1,1.9c0.5,0.6,1.1,1,1.7,1.4c0.7,0.3,1.4,0.5,2.3,0.5
			c0.9,0,1.7-0.2,2.4-0.6c0.7-0.3,1.3-0.9,1.7-1.4c0.5-0.6,0.7-1.2,1-1.9C66.4,160.5,66.5,159.7,66.5,159"/>
		<path class="st0" d="M73.3,149.7h5.2l5.2,13.6h0.1l4.6-13.6h4.9l-8.9,22.7c-0.3,0.9-0.7,1.6-1.1,2.3s-0.9,1.2-1.4,1.7
			c-0.6,0.5-1.2,0.8-1.9,1c-0.7,0.2-1.6,0.3-2.7,0.3c-0.4,0-0.8,0-1.2-0.1c-0.4-0.1-0.8-0.1-1.2-0.2l0.4-4.1
			c0.3,0.1,0.6,0.2,0.9,0.2c0.3,0.1,0.6,0.1,0.9,0.1c0.5,0,0.9-0.1,1.3-0.2c0.3-0.1,0.6-0.3,0.9-0.6c0.2-0.2,0.5-0.6,0.6-0.9
			s0.4-0.8,0.6-1.3l0.9-2.4L73.3,149.7z"/>
	</g>
</g>
</svg>
