<?xml version="1.0" encoding="utf-8"?>
<!-- Generator: Adobe Illustrator 27.2.0, SVG Export Plug-In . SVG Version: 6.00 Build 0)  -->
<svg version="1.1" id="レイヤー_1" xmlns="http://www.w3.org/2000/svg" xmlns:xlink="http://www.w3.org/1999/xlink" x="0px"
	 y="0px" viewBox="0 0 210 90" style="enable-background:new 0 0 210 90;" xml:space="preserve">
<g>
	<path d="M195,0C174.9,0,34.5,0,14.3,0C5.4,0,0,5.3,0,14.2c0,21.2,0,40.5,0,61.7C0,84.7,5.4,90,14.2,90c20.3,0,160.8,0,181.2,0
		c8.7,0,13.9-5.3,14.1-13.9c0-10.7,0-19.3,0-30.1c0-10.5,0-21,0-31.6C209.4,5.3,204.2,0,195,0z M193.3,61.5c0,5.8-3.7,9.5-9.6,9.5
		c-12.2,0-144.8,0-157,0c-6.1,0-9.6-3.6-9.6-9.7c0-7.9,0-13.8-0.1-21.5c0-8,0-16.2,0-24.2c0-5.5,3.6-9.3,8.9-9.5
		c12.8-0.1,145.6-0.1,158.3,0c5.5,0.1,9.1,3.9,9.1,9.6C193.3,31.6,193.3,45.6,193.3,61.5z M207.2,79.1c-3.2-3.3-6.6-5-9.5-8.5
		c-2.2-2.2-2-6-2-11.4c0-15-0.1-28.1-0.1-43.1c0-7.9-4.6-12.5-12.5-12.4c-11.6-0.1-143.3,0-154.9-0.1c-1.8,0-3.8-0.4-5.7-0.7
		c17.5-0.7,155-0.7,172.4-0.7c7.9,0,12.2,4.3,12.4,12.2c0,19.3,0,36.8,0,56.1C207.3,71.4,207.4,79,207.2,79.1z M62.1,42.4H45.4V39
		l-9,5.9l9,5.9v-3.5h15.9h2.9c1.6,0,2.9-1.3,2.9-2.9v-2.9V29.9h-5V42.4z M83.5,48.4V29.2H97v3.7h-8.6v3.9h7.3v3.7h-7.3v4.1H97v3.7
		H83.5z M102.3,48.4V29.2h5l6.2,10.3h0.1V29.2h4.6v19.2h-4.6l-6.7-11.3H107v11.3H102.3z M128,48.4V33.1h-5.3v-3.9h15.4v3.9h-5.3
		v15.3H128z M142.5,48.4V29.2H156v3.7h-8.6v3.9h7.3v3.7h-7.3v4.1h8.6v3.7H142.5z M161.3,48.4V29.2h9.5c1.2,0,2.3,0.1,3,0.4
		c0.8,0.3,1.4,0.7,1.8,1.2c0.4,0.5,0.7,1.2,0.8,2c0.1,0.8,0.2,1.7,0.2,2.6c0,0.7-0.1,1.5-0.2,2.2c-0.1,0.7-0.3,1.4-0.7,2
		c-0.4,0.6-0.9,1.1-1.7,1.4l2.9,7.4h-5.1l-2.7-7.7l1.2,0.7c-0.2,0.1-0.3,0.1-0.5,0.1c-0.2,0-0.4,0-0.7,0h-3.1v6.8H161.3z M166.2,38
		h2.8c0.6,0,1.1,0,1.5-0.1c0.4-0.1,0.7-0.2,0.9-0.4c0.2-0.2,0.3-0.4,0.4-0.8c0.1-0.3,0.1-0.8,0.1-1.3c0-0.5,0-1-0.1-1.3
		c0-0.3-0.2-0.6-0.3-0.8c-0.2-0.2-0.5-0.3-0.8-0.4s-0.9-0.1-1.6-0.1h-2.8V38z"/>
</g>
</svg>
