<?xml version="1.0" encoding="utf-8"?>
<!-- Generator: Adobe Illustrator 27.2.0, SVG Export Plug-In . SVG Version: 6.00 Build 0)  -->
<svg version="1.1" id="レイヤー_1" xmlns="http://www.w3.org/2000/svg" xmlns:xlink="http://www.w3.org/1999/xlink" x="0px"
	 y="0px" viewBox="0 0 540 450" style="enable-background:new 0 0 540 450;" xml:space="preserve">
<g>
	<g>
		<path d="M416.3,88.6l4.4,0.8l-2.3,13l4.1,0.7l2.3-13l4.5,0.8l0.6-3.3l-13.1-2.3L416.3,88.6L416.3,88.6z M392.7,137.6
			c14.8,2.6,29.3,5.2,44,7.8c6.4,1.1,10.9-2,12-8.3c2.7-15.3,5.4-30.7,8.1-46c1.1-6.5-2.1-10.9-8.5-12.1
			c-14.6-2.6-29.2-5.1-43.6-7.7c-6.7-1.2-11,2-12.3,8.5c-1.3,7.6-2.7,15.3-4,22.8c-1.4,7.8-2.7,15.5-4.1,23.2
			C383.2,132,386.4,136.5,392.7,137.6z M444.5,89.8c-1,5.8-2.1,11.7-3.1,17.5c-1.1,5.6-2.1,11.3-3.1,17c-0.8,4.4-3.8,6.5-8.2,5.8
			c-8.9-1.6-17.7-3.1-26.5-4.7c-4.2-0.7-6.5-3.9-5.8-8.1c2-11.5,4.1-23.1,6.1-34.7c0.7-4.1,3.8-6.4,7.8-5.7
			c9.3,1.5,18.2,3.1,27.5,4.8C443.1,82.5,445.2,85.8,444.5,89.8z M386.6,122.1c2.5-14,4.9-28.1,7.4-42.1c1.1-5.7,4.8-8.3,10.5-7.3
			c12.5,2.2,25,4.4,37.5,7.1c-1.4,0-2.8,0-4.2-0.2c-8.4-1.4-16.6-2.9-25-4.3c-5.7-1.1-9.6,1.7-10.6,7.4c-1.9,10.8-3.9,21.7-5.8,32.6
			c-0.7,3.9-1,6.7-2.9,8c-2.5,2.2-5.2,2.9-7.9,4.9C385.4,128.1,386.5,122.7,386.6,122.1z M379.9,208.1c14.8,2.6,29.3,5.2,44,7.8
			c6.4,1.1,10.9-2,12-8.3c2.7-15.3,5.4-30.7,8.1-46c1.1-6.5-2.1-10.9-8.5-12.1c-14.6-2.6-29.2-5.1-43.6-7.7c-6.7-1.2-11,2-12.3,8.5
			c-1.3,7.6-2.7,15.3-4,22.8c-1.4,7.8-2.7,15.5-4.1,23.2C370.5,202.6,373.7,207,379.9,208.1z M431.7,160.2c-1,5.8-2.1,11.7-3.1,17.5
			c-1.1,5.6-2.1,11.3-3.1,17c-0.8,4.4-3.8,6.5-8.2,5.8c-8.9-1.6-17.7-3.1-26.5-4.7c-4.2-0.7-6.5-3.9-5.8-8.1
			c2-11.5,4.1-23.1,6.1-34.7c0.7-4.1,3.8-6.4,7.8-5.8c9.3,1.5,18.2,3.1,27.5,4.8C430.3,153.1,432.3,156.3,431.7,160.2z M373.8,192.6
			c2.5-14,4.9-28.1,7.4-42.1c1.1-5.7,4.8-8.3,10.5-7.3c12.5,2.2,25,4.4,37.5,7.1c-1.4,0-2.8,0-4.2-0.2c-8.4-1.4-16.6-2.9-25-4.3
			c-5.7-1.1-9.6,1.7-10.6,7.4c-1.9,10.8-3.9,21.7-5.8,32.6c-0.7,3.9-1,6.7-2.9,8c-2.5,2.2-5.2,2.9-7.9,4.9
			C372.6,198.7,373.7,193.2,373.8,192.6z M409.2,166.8l2.4,0.4l-0.6,3.5c-0.2,0-0.3-0.1-0.6-0.1c-0.2,0-0.4-0.1-0.7-0.1
			c-0.2,0-0.4-0.1-0.6-0.1c-0.6-0.1-1.1-0.2-1.5-0.4c-0.4-0.2-0.7-0.3-0.9-0.6c-0.2-0.2-0.3-0.6-0.4-1c0-0.4,0-0.9,0-1.5
			c0.1-0.6,0.1-1.4,0.3-2.3c0.2-1,0.3-1.9,0.5-2.4c0.2-0.7,0.4-1.1,0.7-1.5c0.3-0.4,0.5-0.5,0.9-0.6c0.3-0.1,0.8-0.2,1.4-0.1
			c0.6,0.1,1.3,0.2,2.1,0.4c0.3,0.1,0.7,0.1,1.1,0.2c0.5,0.1,1,0.3,1.5,0.4s1.1,0.3,1.5,0.5l0.5-3c-0.6-0.2-1.1-0.4-1.7-0.6
			c-0.7-0.2-1.3-0.3-1.9-0.5c-0.7-0.1-1.3-0.3-1.9-0.4c-1.2-0.2-2.2-0.3-3.1-0.3c-0.9,0-1.6,0.1-2.2,0.4c-0.7,0.3-1.1,0.7-1.5,1.3
			c-0.4,0.5-0.8,1.4-1.1,2.2c-0.3,1-0.6,2-0.8,3.4c-0.2,1.3-0.3,2.5-0.4,3.5c-0.1,1,0,1.8,0.3,2.5c0.2,0.6,0.6,1.3,1,1.7
			c0.5,0.5,1.2,0.8,1.9,1.2c0.9,0.4,1.8,0.5,3,0.7c0.6,0.1,1.2,0.2,1.9,0.2c0.7,0.1,1.4,0.1,2,0.2c0.7,0,1.3,0,1.9,0l1.6-9.2
			l-6.1-1.1L409.2,166.8L409.2,166.8z M402.1,237.2c-0.3-0.4-0.9-0.7-1.6-1l0-0.1c0.7,0,1.3-0.2,1.7-0.4c0.4-0.2,0.8-0.6,1.2-1.1
			c0.3-0.5,0.5-1.1,0.6-1.9c0.2-0.9,0.1-1.7-0.1-2.4c-0.2-0.6-0.7-1.2-1.3-1.7c-0.6-0.4-1.5-0.8-2.5-0.9l-8.3-1.5l-2.9,16.3l8.3,1.5
			c0.9,0.2,1.7,0.2,2.3,0.1c0.6-0.1,1.2-0.3,1.6-0.6c0.5-0.3,0.7-0.7,1-1.2c0.3-0.6,0.5-1.1,0.6-1.7c0.1-0.8,0.2-1.5,0.1-2.1
			C402.7,238,402.5,237.5,402.1,237.2z M395.5,230.2l2.7,0.5c0.6,0.1,1,0.2,1.3,0.3c0.3,0.2,0.4,0.4,0.5,0.6c0,0.3,0.1,0.6,0,1.2
			c-0.1,0.5-0.2,0.8-0.4,1c-0.2,0.3-0.4,0.3-0.7,0.4c-0.3,0-0.7,0.1-1.3,0l-2.7-0.5L395.5,230.2z M398.4,240.5
			c-0.2,0.3-0.4,0.4-0.7,0.5c-0.3,0-0.7,0.1-1.3,0l-2.7-0.5l0.7-3.7l2.7,0.5c0.6,0.1,1,0.3,1.2,0.4c0.3,0.2,0.4,0.4,0.5,0.7
			c0,0.3,0.1,0.7,0,1.2C398.6,239.8,398.6,240.2,398.4,240.5z M367.4,278.7c14.8,2.6,29.3,5.2,44,7.8c6.4,1.1,10.9-2,12-8.3
			c2.7-15.3,5.4-30.7,8.1-46c1.1-6.5-2.1-10.9-8.5-12.1c-14.6-2.6-29.2-5.1-43.6-7.7c-6.7-1.2-11,2-12.3,8.5
			c-1.3,7.6-2.7,15.3-4,22.8c-1.4,7.8-2.7,15.5-4.1,23.2C358,273.1,361.2,277.6,367.4,278.7z M419.2,230.8c-1,5.8-2.1,11.7-3.1,17.5
			c-1.1,5.6-2.1,11.3-3.1,17c-0.8,4.4-3.8,6.5-8.2,5.8c-8.9-1.6-17.7-3.1-26.5-4.7c-4.2-0.7-6.5-3.9-5.8-8.1
			c2-11.5,4.1-23.1,6.1-34.7c0.7-4.1,3.8-6.4,7.8-5.7c9.3,1.5,18.2,3.1,27.5,4.8C417.8,223.6,419.9,226.8,419.2,230.8z M361.3,263.2
			c2.5-14,4.9-28.1,7.4-42.1c1.1-5.7,4.8-8.3,10.5-7.3c12.5,2.2,25,4.4,37.5,7.1c-1.4,0-2.8,0-4.2-0.2c-8.4-1.4-16.6-2.9-25-4.3
			c-5.7-1.1-9.6,1.7-10.6,7.4c-1.9,10.8-3.9,21.7-5.8,32.6c-0.7,3.9-1,6.7-2.9,8c-2.5,2.2-5.2,2.9-7.9,4.9
			C360.1,269.2,361.2,263.8,361.3,263.2z M169.3,29.7c-14.6-2.6-29.2-5.1-43.6-7.7c-6.7-1.2-11,2-12.3,8.5c-1.3,7.6-2.7,15.3-4,22.8
			c-1.4,7.8-2.7,15.5-4.1,23.2c-1,6.3,2.2,10.7,8.4,11.8c14.8,2.6,29.3,5.2,44,7.8c6.4,1.1,10.9-2,12-8.3c2.7-15.3,5.4-30.7,8.1-46
			C179,35.4,175.8,30.8,169.3,29.7z M123.3,33.6c-1.9,10.8-3.9,21.7-5.8,32.6c-0.7,3.9-1,6.7-2.9,8c-2.5,2.2-5.2,2.9-7.9,4.9
			c-0.2-0.1,0.9-5.5,1-6.1c2.5-14,4.9-28.1,7.4-42.1c1.1-5.7,4.8-8.3,10.5-7.3c12.5,2.2,25,4.4,37.5,7.1c-1.4,0-2.8,0-4.2-0.2
			c-8.4-1.4-16.6-2.9-25-4.3C128.2,25.1,124.3,27.8,123.3,33.6z M162.4,58.1c-1.1,5.6-2.1,11.3-3.1,17c-0.8,4.4-3.8,6.5-8.2,5.8
			c-8.9-1.6-17.7-3.1-26.5-4.7c-4.2-0.7-6.5-3.9-5.8-8.1c2-11.5,4.1-23.1,6.1-34.7c0.7-4.1,3.8-6.4,7.8-5.7
			c9.3,1.5,18.2,3.1,27.5,4.8c3.9,0.8,6,4,5.3,8C164.5,46.4,163.4,52.3,162.4,58.1z M147.1,53.7c0.6-0.3,1-0.7,1.4-1.4
			s0.7-1.4,0.8-2.3c0.3-1,0.5-2.1,0.7-3.3c0.2-1.3,0.4-2.5,0.5-3.4c0.1-1,0.1-1.8,0-2.4c-0.1-0.7-0.4-1.3-0.8-1.8
			c-0.4-0.5-1.1-0.9-1.9-1.2c-0.9-0.3-1.9-0.5-3.3-0.8s-2.5-0.3-3.4-0.4c-0.9-0.1-1.6,0.1-2.2,0.4s-1,0.7-1.4,1.4
			c-0.3,0.7-0.7,1.4-0.8,2.3c-0.3,1-0.5,2.1-0.7,3.3c-0.2,1.3-0.4,2.5-0.5,3.4c-0.1,1-0.1,1.8,0,2.4c0.1,0.7,0.4,1.3,0.8,1.8
			s1.1,0.9,1.9,1.2c0.9,0.4,1.9,0.5,3.3,0.8c0.6,0.1,1.2,0.2,1.7,0.2l1.3,2.9l4.4,0.8l0-0.1L147.1,53.7
			C147,53.7,147,53.7,147.1,53.7z M145.4,48.4c-0.1,0.7-0.3,1.2-0.5,1.4c-0.2,0.4-0.4,0.6-0.6,0.7c-0.2,0.2-0.5,0.2-0.9,0.1
			c-0.4-0.1-0.8-0.1-1.4-0.2c-0.6-0.1-1-0.2-1.4-0.2c-0.4-0.1-0.7-0.2-0.8-0.5c-0.2-0.2-0.3-0.5-0.4-0.9s0-0.9,0.1-1.5
			c0.1-0.7,0.3-1.5,0.4-2.5c0.2-1,0.3-1.9,0.4-2.5c0.1-0.7,0.3-1.2,0.5-1.4c0.2-0.4,0.3-0.7,0.6-0.7c0.2-0.2,0.5-0.2,0.9-0.1
			c0.4,0.1,0.8,0.1,1.4,0.2c0.6,0.1,1,0.2,1.4,0.2c0.4,0.1,0.6,0.2,0.8,0.5c0.2,0.2,0.3,0.5,0.4,0.9c0,0.4,0,0.9-0.1,1.5
			c-0.1,0.7-0.3,1.5-0.4,2.5C145.7,47,145.5,47.8,145.4,48.4z M156.6,100.2C142,97.6,127.5,95,113,92.5c-6.7-1.2-11,2-12.3,8.5
			c-1.3,7.6-2.7,15.3-4,22.8c-1.4,7.8-2.7,15.5-4.1,23.2c-1,6.3,2.2,10.7,8.4,11.8c14.8,2.6,29.3,5.2,44,7.8c6.4,1.1,10.9-2,12-8.3
			c2.7-15.3,5.4-30.7,8.1-46C166.3,105.8,163,101.3,156.6,100.2z M110.5,104c-1.9,10.8-3.9,21.7-5.8,32.6c-0.7,3.9-1,6.7-2.9,8
			c-2.5,2.2-5.2,2.9-7.9,4.9c-0.2-0.1,0.9-5.5,1-6.1c2.5-14,4.9-28.1,7.4-42.1c1.1-5.7,4.8-8.3,10.5-7.3c12.5,2.2,25,4.4,37.5,7.1
			c-1.4,0-2.8,0-4.2-0.2c-8.4-1.4-16.6-2.9-25-4.3C115.4,95.5,111.5,98.3,110.5,104z M149.6,128.6c-1.1,5.6-2.1,11.3-3.1,17
			c-0.8,4.4-3.8,6.5-8.2,5.8c-8.9-1.6-17.7-3.1-26.5-4.7c-4.2-0.7-6.5-3.9-5.8-8.1c2-11.5,4.1-23.1,6.1-34.7
			c0.7-4.1,3.8-6.4,7.8-5.8c9.3,1.5,18.2,3.1,27.5,4.8c3.9,0.8,6,4,5.3,8C151.6,116.9,150.6,122.8,149.6,128.6z M128.8,107.2
			l-8.1,15.4l4,0.7l1.6-3.1l5.8,1l0.4,3.4l4.1,0.7l-2.3-17.3L128.8,107.2z M127.8,117.4l3.1-6.2l0.2,0l0.8,6.8L127.8,117.4z
			 M124.9,182.3l0.5-3l-12.2-2.2l-0.6,3.2l7.1,1.3l-9.2,8.8l-0.5,3.1l12.5,2.2l0.6-3.2l-7.4-1.3L124.9,182.3z M144.2,170.8
			c-14.6-2.6-29.2-5.1-43.6-7.7c-6.7-1.2-11,2-12.3,8.5c-1.3,7.6-2.7,15.3-4,22.8c-1.4,7.8-2.7,15.5-4.1,23.2
			c-1,6.3,2.2,10.7,8.4,11.8c14.8,2.6,29.3,5.2,44,7.8c6.4,1.1,10.9-2,12-8.3c2.7-15.3,5.4-30.7,8.1-46
			C153.8,176.3,150.6,171.9,144.2,170.8z M98.1,174.6c-1.9,10.8-3.9,21.7-5.8,32.6c-0.7,3.9-1,6.7-2.9,8c-2.5,2.2-5.2,2.9-7.9,4.9
			c-0.2-0.1,0.9-5.5,1-6.1c2.5-14,4.9-28.1,7.4-42.1c1.1-5.7,4.8-8.3,10.5-7.3c12.5,2.2,25,4.4,37.5,7.1c-1.4,0-2.8,0-4.2-0.2
			c-8.4-1.4-16.6-2.9-25-4.3C102.9,166.1,99.1,168.9,98.1,174.6z M137.1,199.1c-1.1,5.6-2.1,11.3-3.1,17c-0.8,4.4-3.8,6.5-8.2,5.8
			c-8.9-1.6-17.7-3.1-26.5-4.7c-4.2-0.7-6.5-3.9-5.8-8.1c2-11.5,4.1-23.1,6.1-34.7c0.7-4.1,3.8-6.4,7.8-5.7
			c9.3,1.5,18.2,3.1,27.5,4.8c3.9,0.8,6,4,5.3,8C139.2,187.5,138.2,193.3,137.1,199.1z M362.4,60.1c0.4-0.4,0.7-1,0.9-1.6
			c0.2-0.6,0.3-1.3,0.4-1.9c0.2-0.9,0.2-1.6,0.2-2.3c0-0.7-0.2-1.3-0.4-1.8c-0.2-0.5-0.7-0.9-1.3-1.2c-0.7-0.3-1.4-0.6-2.5-0.7
			l-8.1-1.4l-2.9,16.3l4.1,0.7l1-5.8l2.7,0.5c0.1,0,0.1,0,0.2,0l1,6.2l4.3,0.8l-1.4-6.7C361.4,60.8,362,60.5,362.4,60.1z M359.4,57
			c-0.1,0.3-0.3,0.5-0.4,0.6c-0.2,0.2-0.4,0.2-0.7,0.2c-0.3,0-0.8,0-1.3-0.1l-2.4-0.4l0.8-4.3l2.4,0.4c0.6,0.1,1,0.2,1.4,0.3
			c0.3,0.2,0.6,0.3,0.6,0.4c0.2,0.2,0.1,0.4,0.2,0.7c-0.1,0.3,0,0.7-0.1,1.1C359.6,56.4,359.5,56.7,359.4,57z M327.3,101.3
			c14.8,2.6,29.3,5.2,44,7.8c6.4,1.1,10.9-2,12-8.3c2.7-15.3,5.4-30.7,8.1-46c1.1-6.5-2.1-10.9-8.5-12.1
			c-14.6-2.6-29.2-5.1-43.6-7.7c-6.7-1.2-11,2-12.3,8.5c-1.3,7.6-2.7,15.3-4,22.8c-1.4,7.8-2.7,15.5-4.1,23.2
			C317.9,95.8,321,100.2,327.3,101.3z M379.1,53.5c-1,5.8-2.1,11.7-3.1,17.5c-1.1,5.6-2.1,11.3-3.1,17c-0.8,4.4-3.8,6.5-8.2,5.8
			c-8.9-1.6-17.7-3.1-26.5-4.7c-4.2-0.7-6.5-3.9-5.8-8.1c2-11.5,4.1-23.1,6.1-34.7c0.7-4.1,3.8-6.4,7.8-5.7
			c9.3,1.5,18.2,3.1,27.5,4.8C377.7,46.3,379.8,49.5,379.1,53.5z M321.2,85.8c2.5-14,4.9-28.1,7.4-42.1c1.1-5.7,4.8-8.3,10.5-7.3
			c12.5,2.2,25,4.4,37.5,7.1c-1.4,0-2.8,0-4.2-0.2c-8.4-1.4-16.6-2.9-25-4.3c-5.7-1.1-9.6,1.7-10.6,7.4c-1.9,10.8-3.9,21.7-5.8,32.6
			c-0.7,3.9-1,6.7-2.9,8c-2.5,2.2-5.2,2.9-7.9,4.9C320,91.9,321.1,86.4,321.2,85.8z M314.6,171.9c14.8,2.6,29.3,5.2,44,7.8
			c6.4,1.1,10.9-2,12-8.3c2.7-15.3,5.4-30.7,8.1-46c1.1-6.5-2.1-10.9-8.5-12.1c-14.6-2.6-29.2-5.1-43.6-7.7c-6.7-1.2-11,2-12.3,8.5
			c-1.3,7.6-2.7,15.3-4,22.8c-1.4,7.8-2.7,15.5-4.1,23.2C305.1,166.2,308.2,170.8,314.6,171.9z M366.2,124c-1,5.8-2.1,11.7-3.1,17.5
			c-1.1,5.6-2.1,11.3-3.1,17c-0.8,4.4-3.8,6.5-8.2,5.8c-8.9-1.6-17.7-3.1-26.5-4.7c-4.2-0.7-6.5-3.9-5.8-8.1
			c2-11.5,4.1-23.1,6.1-34.7c0.7-4.1,3.8-6.4,7.8-5.7c9.3,1.5,18.2,3.1,27.5,4.8C364.9,116.8,367,120,366.2,124z M308.4,156.4
			c2.5-14,4.9-28.1,7.4-42.1c1.1-5.7,4.8-8.3,10.5-7.3c12.5,2.2,25,4.4,37.5,7.1c-1.4,0-2.8,0-4.2-0.2c-8.4-1.4-16.6-2.9-25-4.3
			c-5.7-1.1-9.6,1.7-10.6,7.4c-1.9,10.8-3.9,21.7-5.8,32.6c-0.7,3.9-1,6.7-2.9,8c-2.5,2.2-5.2,2.9-7.9,4.9
			C307.3,162.4,308.3,157,308.4,156.4z M337.3,136.1l4.1,0.7l1.1-6.1l5.9,1l0.6-3.2l-5.9-1l0.7-3.8l6.8,1.2l0.6-3.2l-10.9-1.9
			L337.3,136.1z M330.8,203.2l-0.2,0l-1.2-12.5l-4.2-0.7l2,17.2l5.4,1l7.8-15.5l-4.1-0.7L330.8,203.2z M302.1,242.4
			c14.8,2.6,29.3,5.2,44,7.8c6.4,1.1,10.9-2,12-8.3c2.7-15.3,5.4-30.7,8.1-46c1.1-6.5-2.1-10.9-8.5-12.1
			c-14.6-2.6-29.2-5.1-43.6-7.7c-6.7-1.2-11,2-12.3,8.5c-1.3,7.6-2.7,15.3-4,22.8c-1.4,7.8-2.7,15.5-4.1,23.2
			C292.6,236.9,295.8,241.3,302.1,242.4z M353.8,194.5c-1,5.8-2.1,11.7-3.1,17.5c-1.1,5.6-2.1,11.3-3.1,17c-0.8,4.4-3.8,6.5-8.2,5.8
			c-8.9-1.6-17.7-3.1-26.5-4.7c-4.2-0.7-6.5-3.9-5.8-8.1c2-11.5,4.1-23.1,6.1-34.7c0.7-4.1,3.8-6.4,7.8-5.8
			c9.3,1.5,18.2,3.1,27.5,4.8C352.4,187.3,354.5,190.6,353.8,194.5z M296,226.9c2.5-14,4.9-28.1,7.4-42.1c1.1-5.7,4.8-8.3,10.5-7.3
			c12.5,2.2,25,4.4,37.5,7.1c-1.4,0-2.8,0-4.2-0.2c-8.4-1.4-16.6-2.9-25-4.3c-5.7-1.1-9.6,1.7-10.6,7.4c-1.9,10.8-3.9,21.7-5.8,32.6
			c-0.7,3.9-1,6.7-2.9,8c-2.5,2.2-5.2,2.9-7.9,4.9C294.9,232.9,295.9,227.5,296,226.9z M242.8,17.9c-14.6-2.6-29.2-5.1-43.6-7.7
			c-6.7-1.2-11,2-12.3,8.5c-1.3,7.6-2.7,15.3-4,22.8c-1.4,7.8-2.7,15.5-4.1,23.2c-1,6.3,2.2,10.7,8.4,11.8c14.8,2.6,29.3,5.2,44,7.8
			c6.4,1.1,10.9-2,12-8.3c2.7-15.3,5.4-30.7,8.1-46C252.5,23.5,249.2,19,242.8,17.9z M196.6,21.7c-1.9,10.8-3.9,21.7-5.8,32.6
			c-0.7,3.9-1,6.7-2.9,8c-2.5,2.2-5.2,2.9-7.9,4.9c-0.2-0.1,0.9-5.5,1-6.1c2.5-14,4.9-28.1,7.4-42.1c1.1-5.7,4.8-8.3,10.5-7.3
			c12.5,2.2,25,4.4,37.5,7.1c-1.4,0-2.8,0-4.2-0.2c-8.4-1.4-16.6-2.9-25-4.3C201.6,13.3,197.6,16,196.6,21.7z M235.8,46.3
			c-1.1,5.6-2.1,11.3-3.1,17c-0.8,4.4-3.8,6.5-8.2,5.8c-8.9-1.6-17.7-3.1-26.5-4.7c-4.2-0.7-6.5-3.9-5.8-8.1
			c2-11.5,4.1-23.1,6.1-34.7c0.7-4.1,3.8-6.4,7.8-5.7c9.3,1.5,18.2,3.1,27.5,4.8c3.9,0.8,6,4,5.3,8
			C237.8,34.6,236.8,40.5,235.8,46.3z M220.9,38l-0.2,0L220,25.8l-4.2-0.7L211,36.2l-0.2,0l-0.3-12l-4.1-0.7l0.8,17l5.2,0.9l4.3-9.9
			l0.2,0l0.6,10.8l5.2,0.9l6.5-15.7l-4.1-0.7L220.9,38z M209.4,106c0-0.3-0.1-0.5-0.2-0.8c-0.1-0.4-0.4-0.9-0.6-1.1
			c-0.3-0.2-0.6-0.5-0.9-0.7c-0.4-0.2-0.8-0.3-1.1-0.4l-3.2-1c-0.5-0.2-0.8-0.2-1-0.4s-0.4-0.3-0.3-0.5c-0.1-0.2,0-0.5,0.1-0.9
			c0.1-0.3,0.1-0.6,0.2-0.8s0.3-0.4,0.5-0.4s0.5-0.1,0.9-0.1c0.4,0.1,0.9,0.1,1.5,0.2c0.5,0.1,1.1,0.2,1.6,0.3
			c0.6,0.1,1.1,0.3,1.7,0.4c0.5,0.1,1,0.3,1.4,0.3l0.5-3c-0.4-0.2-0.9-0.4-1.5-0.5c-0.6-0.2-1.3-0.3-1.9-0.5s-1.4-0.3-2-0.4
			c-0.9-0.2-1.7-0.2-2.5-0.2c-0.8,0-1.4,0.1-2.1,0.3c-0.6,0.2-1.1,0.6-1.5,1.3c-0.4,0.6-0.8,1.4-0.9,2.5c-0.1,0.7-0.2,1.3-0.2,1.9
			c0,0.6,0.1,1.1,0.2,1.6c0.1,0.4,0.5,0.8,0.8,1.2c0.4,0.3,0.9,0.6,1.5,0.8l3.3,1c0.4,0.1,0.7,0.2,0.9,0.4s0.4,0.3,0.4,0.4
			c0.1,0.1,0.1,0.3,0.1,0.5c0,0.2-0.1,0.5-0.1,0.8c0,0.2-0.1,0.4-0.1,0.6c0,0.2-0.1,0.3-0.2,0.5c-0.1,0.1-0.2,0.2-0.3,0.2
			c-0.2,0.1-0.5,0.1-0.9,0.1c-0.4,0-1-0.1-1.7-0.2c-0.4-0.1-0.9-0.2-1.4-0.2c-0.5-0.1-1.1-0.2-1.7-0.4c-0.6-0.1-1.2-0.3-1.8-0.4
			l-0.5,3.1c0.6,0.2,1.2,0.3,1.8,0.5s1.4,0.3,2.1,0.5c0.7,0.1,1.4,0.3,2.1,0.5c0.7,0.1,1.3,0.2,1.9,0.2s1.2,0,1.7-0.1
			c0.5-0.1,1-0.3,1.4-0.7s0.7-0.8,1-1.3s0.5-1.3,0.7-2.3c0.1-0.5,0.2-0.9,0.1-1.3C209.5,106.7,209.4,106.3,209.4,106z M230,88.4
			c-14.6-2.6-29.2-5.1-43.6-7.7c-6.7-1.2-11,2-12.3,8.5c-1.3,7.6-2.7,15.3-4,22.8c-1.4,7.8-2.7,15.5-4.1,23.2
			c-1,6.3,2.2,10.7,8.4,11.8c14.8,2.6,29.3,5.2,44,7.8c6.4,1.1,10.9-2,12-8.3c2.7-15.3,5.4-30.7,8.1-46
			C239.6,94,236.5,89.6,230,88.4z M183.9,92.3c-1.9,10.8-3.9,21.7-5.8,32.6c-0.7,3.9-1,6.7-2.9,8c-2.5,2.2-5.2,2.9-7.9,4.9
			c-0.2-0.1,0.9-5.5,1-6.1c2.5-14,4.9-28.1,7.4-42.1c1.1-5.7,4.8-8.3,10.5-7.3c12.5,2.2,25,4.4,37.5,7.1c-1.4,0-2.8,0-4.2-0.2
			c-8.4-1.4-16.6-2.9-25-4.3C188.8,83.8,184.9,86.6,183.9,92.3z M223,116.7c-1.1,5.6-2.1,11.3-3.1,17c-0.8,4.4-3.8,6.5-8.2,5.8
			c-8.9-1.6-17.7-3.1-26.5-4.7c-4.2-0.7-6.5-3.9-5.8-8.1c2-11.5,4.1-23.1,6.1-34.7c0.7-4.1,3.8-6.4,7.8-5.7
			c9.3,1.5,18.2,3.1,27.5,4.8c3.9,0.8,6,4,5.3,8C225.1,105.1,224.1,110.9,223,116.7z M217.5,158.9c-14.6-2.6-29.2-5.1-43.6-7.7
			c-6.7-1.2-11,2-12.3,8.5c-1.3,7.6-2.7,15.3-4,22.8c-1.4,7.8-2.7,15.5-4.1,23.2c-1,6.3,2.2,10.7,8.4,11.8c14.8,2.6,29.3,5.2,44,7.8
			c6.4,1.1,10.9-2,12-8.3c2.7-15.3,5.4-30.7,8.1-46C227.2,164.6,224,160.1,217.5,158.9z M171.5,162.8c-1.9,10.8-3.9,21.7-5.8,32.6
			c-0.7,3.9-1,6.7-2.9,8c-2.5,2.2-5.2,2.9-7.9,4.9c-0.2-0.1,0.9-5.5,1-6.1c2.5-14,4.9-28.1,7.4-42.1c1.1-5.7,4.8-8.3,10.5-7.3
			c12.5,2.2,25,4.4,37.5,7.1c-1.4,0-2.8,0-4.2-0.2c-8.4-1.4-16.6-2.9-25-4.3C176.4,154.3,172.5,157.1,171.5,162.8z M210.6,187.4
			c-1.1,5.6-2.1,11.3-3.1,17c-0.8,4.4-3.8,6.5-8.2,5.8c-8.9-1.6-17.7-3.1-26.5-4.7c-4.2-0.7-6.5-3.9-5.8-8.1
			c2-11.5,4.1-23.1,6.1-34.7c0.7-4.1,3.8-6.4,7.8-5.8c9.3,1.5,18.2,3.1,27.5,4.8c3.9,0.8,6,4,5.3,8
			C212.6,175.6,211.6,181.5,210.6,187.4z M200.3,167.9l-4.5-0.8l-3.9,4.4l-0.2,0l-2.2-5.5l-4.6-0.8l3.7,9.1l-6.7,7.3l4.5,0.8
			l4.1-4.6l0.2,0l2.2,5.7l4.6,0.8l-3.8-9.2L200.3,167.9z M260.5,70c14.8,2.6,29.3,5.2,44,7.8c6.4,1.1,10.9-2,12-8.3
			c2.7-15.3,5.4-30.7,8.1-46c1.1-6.5-2.1-10.9-8.5-12.1c-14.6-2.6-29.2-5.1-43.6-7.7c-6.7-1.2-11,2-12.3,8.5
			c-1.3,7.6-2.7,15.3-4,22.8c-1.4,7.8-2.7,15.5-4.1,23.2C251.1,64.4,254.2,68.9,260.5,70z M312.3,22.1c-1,5.8-2.1,11.7-3.1,17.5
			c-1.1,5.6-2.1,11.3-3.1,17c-0.8,4.4-3.8,6.5-8.2,5.8c-8.9-1.6-17.7-3.1-26.5-4.7c-4.2-0.7-6.5-3.9-5.8-8.1
			c2-11.5,4.1-23.1,6.1-34.7c0.7-4.1,3.8-6.4,7.8-5.7c9.3,1.5,18.2,3.1,27.5,4.8C310.9,15,313,18.2,312.3,22.1z M254.4,54.6
			c2.5-14,4.9-28.1,7.4-42.1c1.1-5.7,4.8-8.3,10.5-7.3c12.5,2.2,25,4.4,37.5,7.1c-1.4,0-2.8,0-4.2-0.2c-8.4-1.4-16.6-2.9-25-4.3
			c-5.7-1.1-9.6,1.7-10.6,7.4c-1.9,10.8-3.9,21.7-5.8,32.6c-0.7,3.9-1,6.7-2.9,8c-2.5,2.2-5.2,2.9-7.9,4.9
			C253.3,60.5,254.3,55,254.4,54.6z M282.9,34.2l11.4,2l0.6-3.2l-7.3-1.3l0.6-3.4l6.2,1.1l0.6-3.2l-6.2-1.1l0.6-3.3l7.3,1.3l0.6-3.2
			l-11.4-2L282.9,34.2z M247.8,140.5c14.8,2.6,29.3,5.2,44,7.8c6.4,1.1,10.9-2,12-8.3c2.7-15.3,5.4-30.7,8.1-46
			c1.1-6.5-2.1-10.9-8.5-12.1c-14.6-2.6-29.2-5.1-43.6-7.7c-6.7-1.2-11,2-12.3,8.5c-1.3,7.6-2.7,15.3-4,22.8
			c-1.4,7.8-2.7,15.5-4.1,23.2C238.3,134.9,241.5,139.4,247.8,140.5z M299.6,92.7c-1,5.8-2.1,11.7-3.1,17.5
			c-1.1,5.6-2.1,11.3-3.1,17c-0.8,4.4-3.8,6.5-8.2,5.8c-8.9-1.6-17.7-3.1-26.5-4.7c-4.2-0.7-6.5-3.9-5.8-8.1
			c2-11.5,4.1-23.1,6.1-34.7c0.7-4.1,3.8-6.4,7.8-5.8c9.3,1.5,18.2,3.1,27.5,4.8C298.2,85.4,300.3,88.6,299.6,92.7z M241.7,125
			c2.5-14,4.9-28.1,7.4-42.1c1.1-5.7,4.8-8.3,10.5-7.3c12.5,2.2,25,4.4,37.5,7.1c-1.4,0-2.8,0-4.2-0.2c-8.4-1.4-16.6-2.9-25-4.3
			c-5.7-1.1-9.6,1.7-10.6,7.4c-1.9,10.8-3.9,21.7-5.8,32.6c-0.7,3.9-1,6.7-2.9,8c-2.5,2.2-5.2,2.9-7.9,4.9
			C240.5,131,241.6,125.6,241.7,125z M284.2,92.9c-0.1-0.6-0.4-1.2-0.9-1.7c-0.4-0.5-1.2-0.8-2-1.2c-0.9-0.4-2-0.6-3.5-0.8l-5.7-1
			l-2.9,16.3l5.7,1c1.5,0.3,2.7,0.4,3.6,0.4c0.9,0,1.7-0.1,2.3-0.4c0.6-0.3,1-0.7,1.4-1.3c0.3-0.6,0.6-1.3,0.8-2.3s0.5-2.1,0.7-3.3
			c0.2-1.3,0.4-2.5,0.5-3.4C284.4,94.4,284.4,93.6,284.2,92.9z M279.1,100.3c-0.1,0.6-0.3,1.1-0.5,1.4c-0.2,0.4-0.4,0.5-0.6,0.7
			c-0.2,0.2-0.6,0.1-1,0.1c-0.4-0.1-0.9-0.1-1.6-0.2l-1.5-0.3l1.8-10l1.5,0.3c0.6,0.1,1.2,0.2,1.6,0.3c0.4,0.1,0.7,0.2,0.9,0.5
			c0.2,0.2,0.3,0.5,0.4,0.9c0,0.4,0.1,0.8-0.1,1.5c-0.1,0.6-0.2,1.4-0.4,2.4C279.5,99,279.3,99.8,279.1,100.3z M266.1,173.7
			c-0.7-0.1-1.3-0.2-1.8-0.4s-0.8-0.3-1-0.6c-0.3-0.2-0.4-0.6-0.4-1c0-0.4,0-0.9,0.1-1.5c0.1-0.6,0.2-1.4,0.4-2.4
			c0.2-1,0.3-1.8,0.4-2.4c0.1-0.6,0.3-1.1,0.5-1.4s0.4-0.6,0.7-0.8c0.3-0.1,0.6-0.2,1.2-0.2c0.5,0,1.1,0.1,1.8,0.2
			c0.2,0,0.5,0.1,0.8,0.1c0.3,0.1,0.7,0.1,1.1,0.3c0.4,0.1,0.9,0.3,1.3,0.3l0.5-3c-0.3-0.2-0.7-0.3-1.1-0.4c-0.5-0.2-1-0.3-1.5-0.4
			s-1-0.3-1.5-0.4c-1.2-0.2-2.3-0.3-3.1-0.3c-0.8,0.1-1.5,0.1-2.1,0.4c-0.6,0.3-1,0.7-1.5,1.4c-0.4,0.6-0.7,1.4-0.9,2.3
			c-0.3,1-0.5,2.1-0.7,3.3c-0.2,1.3-0.4,2.5-0.5,3.4c-0.1,1,0,1.8,0.1,2.5c0.2,0.7,0.5,1.3,0.9,1.7c0.4,0.5,1.1,0.9,1.8,1.1
			c0.8,0.3,1.8,0.6,3,0.8c0.5,0.1,1,0.2,1.5,0.3c0.5,0.1,1,0.1,1.5,0.2c0.5,0,0.9,0.1,1.3,0l0.5-3.1c-0.4,0-1-0.1-1.6-0.1
			C267.2,173.8,266.6,173.8,266.1,173.7z M291.4,210.4c2.7-15.3,5.4-30.7,8.1-46c1.1-6.5-2.1-10.9-8.5-12.1
			c-14.6-2.6-29.2-5.1-43.6-7.7c-6.7-1.2-11,2-12.3,8.5c-1.3,7.6-2.7,15.3-4,22.8c-1.4,7.8-2.7,15.5-4.1,23.2
			c-1,6.3,2.2,10.7,8.4,11.8c14.8,2.6,29.3,5.2,44,7.8C285.8,219.9,290.3,216.8,291.4,210.4z M244.9,156.1
			c-1.9,10.8-3.9,21.7-5.8,32.6c-0.7,3.9-1,6.7-2.9,8c-2.5,2.2-5.2,2.9-7.9,4.9c-0.2-0.1,0.9-5.5,1-6.1c2.5-14,4.9-28.1,7.4-42.1
			c1.1-5.7,4.8-8.3,10.5-7.3c12.5,2.2,25,4.4,37.5,7.1c-1.4,0-2.8,0-4.2-0.2c-8.4-1.4-16.6-2.9-25-4.3
			C249.9,147.7,245.9,150.4,244.9,156.1z M284.1,180.7c-1.1,5.6-2.1,11.3-3.1,17c-0.8,4.4-3.8,6.5-8.2,5.8
			c-8.9-1.6-17.7-3.1-26.5-4.7c-4.2-0.7-6.5-3.9-5.8-8.1c2-11.5,4.1-23.1,6.1-34.7c0.7-4.1,3.8-6.4,7.8-5.7
			c9.3,1.5,18.2,3.1,27.5,4.8c3.9,0.8,6,4,5.3,8C286.1,169,285.1,174.9,284.1,180.7z M71.5,65.6c-0.1-0.3-0.4-0.6-0.7-0.8
			c-0.4-0.3-0.8-0.3-1.3-0.4c-0.4-0.1-0.7-0.1-1.1-0.1c-0.3,0-0.6,0.1-1,0.2c-0.3,0.1-0.6,0.3-0.7,0.6l-0.2,0l0.1-1.1l-2.6-0.5
			l-1.5,8.8l2.8,0.5l0.8-4.5c0.1-0.4,0.1-0.8,0.3-1c0.1-0.3,0.2-0.5,0.3-0.6c0.1-0.2,0.2-0.3,0.4-0.2c0.2-0.1,0.4,0,0.7,0
			s0.5,0.1,0.7,0.2c0.2,0,0.3,0.2,0.4,0.3c0.1,0.1,0,0.3,0.1,0.6c-0.1,0.3-0.1,0.7-0.2,1.1l-0.8,4.6l2.8,0.5l1-5.5
			c0.1-0.6,0.2-1.1,0.2-1.5C71.7,66.3,71.7,65.9,71.5,65.6z M79.3,67.1L79.3,67.1c-0.2-0.3-0.4-0.6-0.7-0.8s-0.4-0.4-0.7-0.4
			c-0.3-0.2-0.6-0.2-1-0.3c-0.5-0.1-1-0.1-1.3,0c-0.4,0.1-0.8,0.3-1,0.5c-0.2,0.3-0.5,0.7-0.7,1.3c-0.2,0.6-0.4,1.3-0.6,2.2
			c-0.2,0.9-0.2,1.6-0.2,2.2s0.1,1.1,0.2,1.5c0.1,0.3,0.4,0.7,0.8,0.8c0.4,0.2,0.8,0.3,1.2,0.4c0.3,0.1,0.7,0.1,1,0.1
			c0.3,0,0.6-0.1,1-0.2c0.3-0.1,0.6-0.3,0.8-0.7l0.1,0l-0.1,1.1l2.7,0.5L83,62.7l-2.8-0.5L79.3,67.1L79.3,67.1z M78.5,71.6
			c-0.1,0.3-0.2,0.5-0.2,0.7c-0.1,0.2-0.3,0.4-0.5,0.4s-0.5,0-0.8,0c-0.3-0.1-0.6-0.1-0.8-0.2c-0.2,0-0.3-0.2-0.3-0.4
			c-0.1-0.1,0-0.4-0.1-0.7c0.1-0.3,0.1-0.7,0.2-1.3c0.1-0.5,0.2-1,0.2-1.3c0.1-0.3,0.2-0.5,0.3-0.7c0.1-0.1,0.2-0.2,0.4-0.2
			c0.2,0,0.4,0,0.8,0c0.4,0.1,0.6,0.1,0.8,0.2s0.2,0.3,0.3,0.6s0,0.4,0,0.7c-0.1,0.3-0.1,0.6-0.2,0.9C78.6,71,78.5,71.3,78.5,71.6z
			 M93.9,51.2c-14.6-2.6-29.2-5.1-43.6-7.7c-6.7-1.2-11,2-12.3,8.5c-1.3,7.6-2.7,15.3-4,22.8c-1.4,7.8-2.7,15.5-4.1,23.2
			c-1,6.3,2.2,10.7,8.4,11.8c14.8,2.6,29.3,5.2,44,7.8c6.4,1.1,10.9-2,12-8.3c2.7-15.3,5.4-30.7,8.1-46
			C103.5,56.9,100.3,52.3,93.9,51.2z M47.8,55.1c-1.9,10.8-3.9,21.7-5.8,32.6c-0.7,3.9-1,6.7-2.9,8c-2.5,2.2-5.2,2.9-7.9,4.9
			c-0.2-0.1,0.9-5.5,1-6.1c2.5-14,4.9-28.1,7.4-42.1c1.1-5.7,4.8-8.3,10.5-7.3c12.5,2.2,25,4.4,37.5,7.1c-1.4,0-2.8,0-4.2-0.2
			c-8.4-1.4-16.6-2.9-25-4.3C52.6,46.7,48.8,49.4,47.8,55.1z M86.8,79.6c-1.1,5.6-2.1,11.3-3.1,17c-0.8,4.4-3.8,6.5-8.2,5.8
			c-8.9-1.6-17.7-3.1-26.5-4.7c-4.2-0.7-6.5-3.9-5.8-8.1c2-11.5,4.1-23.1,6.1-34.7c0.7-4.1,3.8-6.4,7.8-5.8
			c9.3,1.5,18.2,3.1,27.5,4.8c3.9,0.8,6,4,5.3,8C88.9,67.9,87.8,73.8,86.8,79.6z M52.3,70.5l8.3,1.5l0.4-2.3l-5.3-0.9l0.5-2.6
			l4.5,0.8l0.4-2.3l-4.5-0.8l0.4-2.5l5.3,0.9l0.4-2.3l-8.3-1.5L52.3,70.5z M57,127l-0.2,0.1l-0.2-0.1l-0.1,0.3l-9.3,5.7l-1,5.8
			l6.7-4.1l-2.1,11.7l4.8,0.9l2.1-11.7l4.9,6.1l1-5.8l-6.8-8.5L57,127L57,127z M81,121.8c-14.6-2.6-29.2-5.1-43.6-7.7
			c-6.7-1.2-11,2-12.3,8.5c-1.3,7.6-2.7,15.3-4,22.8c-1.4,7.8-2.7,15.5-4.1,23.2c-1,6.3,2.2,10.7,8.4,11.8c14.8,2.6,29.3,5.2,44,7.8
			c6.4,1.1,10.9-2,12-8.3c2.7-15.3,5.4-30.7,8.1-46C90.8,127.4,87.5,122.9,81,121.8z M34.9,125.6c-1.9,10.8-3.9,21.7-5.8,32.6
			c-0.7,3.9-1,6.7-2.9,8c-2.5,2.2-5.2,2.9-7.9,4.9c-0.2-0.1,0.9-5.5,1-6.1c2.5-14,4.9-28.1,7.4-42.1c1.1-5.7,4.8-8.3,10.5-7.3
			c12.5,2.2,25,4.4,37.5,7.1c-1.4,0-2.8,0-4.2-0.2c-8.4-1.4-16.6-2.9-25-4.3C39.9,117.2,35.9,119.9,34.9,125.6z M74.1,150.2
			c-1.1,5.6-2.1,11.3-3.1,17c-0.8,4.4-3.8,6.5-8.2,5.8c-8.9-1.6-17.7-3.1-26.5-4.7c-4.2-0.7-6.5-3.9-5.8-8.1
			c2-11.5,4.1-23.1,6.1-34.7c0.7-4.1,3.8-6.4,7.8-5.7c9.3,1.5,18.2,3.1,27.5,4.8c3.9,0.8,6,4,5.3,8
			C76.1,138.5,75.1,144.4,74.1,150.2z M68.6,192.3c-14.6-2.6-29.2-5.1-43.6-7.7c-6.7-1.2-11,2-12.3,8.5c-1.3,7.6-2.7,15.3-4,22.8
			c-1.4,7.8-2.7,15.5-4.1,23.2c-1,6.3,2.2,10.7,8.4,11.8c14.8,2.6,29.3,5.2,44,7.8c6.4,1.1,10.9-2,12-8.3c2.7-15.3,5.4-30.7,8.1-46
			C78.3,198,75.1,193.4,68.6,192.3z M22.5,196.1c-1.9,10.8-3.9,21.7-5.8,32.6c-0.7,3.9-1,6.7-2.9,8c-2.5,2.2-5.2,2.9-7.9,4.9
			c-0.2-0.1,0.9-5.5,1-6.1c2.5-14,4.9-28.1,7.4-42.1c1.1-5.7,4.8-8.3,10.5-7.3c12.5,2.2,25,4.4,37.5,7.1c-1.4,0-2.8,0-4.2-0.2
			c-8.4-1.4-16.6-2.9-25-4.3C27.4,187.7,23.5,190.4,22.5,196.1z M61.6,220.7c-1.1,5.6-2.1,11.3-3.1,17c-0.8,4.4-3.8,6.5-8.2,5.8
			c-8.9-1.6-17.7-3.1-26.5-4.7c-4.2-0.7-6.5-3.9-5.8-8.1c2-11.5,4.1-23.1,6.1-34.7c0.7-4.1,3.8-6.4,7.8-5.7
			c9.3,1.5,18.2,3.1,27.5,4.8c3.9,0.8,6,4,5.3,8C63.7,209,62.7,214.9,61.6,220.7z M46,199.4l-4.8-0.9l-2.1,11.7l-4.9-6.1l-1,5.8
			l6.8,8.5l-0.1,0.3l0.2-0.1l0.2,0.1l0.1-0.3l9.3-5.7l1-5.8l-6.7,4.1L46,199.4L46,199.4z M363.9,287.1c-14.6-2.6-29.2-5.1-43.6-7.7
			c-6.7-1.2-11,2-12.3,8.5c-1.3,7.6-2.7,15.3-4,22.8c-1.4,7.8-2.7,15.5-4.1,23.2c-1,6.3,2.2,10.7,8.4,11.8c14.8,2.6,29.3,5.2,44,7.8
			c6.4,1.1,10.9-2,12-8.3c2.7-15.3,5.4-30.7,8.1-46C373.7,292.8,370.4,288.2,363.9,287.1z M317.8,291c-1.9,10.8-3.9,21.7-5.8,32.6
			c-0.7,3.9-1,6.7-2.9,8c-2.5,2.2-5.2,2.9-7.9,4.9c-0.2-0.1,0.9-5.5,1-6.1c2.5-14,4.9-28.1,7.4-42.1c1.1-5.7,4.8-8.3,10.5-7.3
			c12.5,2.2,25,4.4,37.5,7.1c-1.4,0-2.8,0-4.2-0.2c-8.4-1.4-16.6-2.9-25-4.3C322.8,282.5,318.8,285.2,317.8,291z M357,315.5
			c-1.1,5.6-2.1,11.3-3.1,17c-0.8,4.4-3.8,6.5-8.2,5.8c-8.9-1.6-17.7-3.1-26.5-4.7c-4.2-0.7-6.5-3.9-5.8-8.1
			c2-11.5,4.1-23.1,6.1-34.7c0.7-4.1,3.8-6.4,7.8-5.8c9.3,1.5,18.2,3.1,27.5,4.8c3.9,0.8,6,4,5.3,8C359,303.8,358,309.7,357,315.5z
			 M297.8,247.8c-14.6-2.6-29.2-5.1-43.6-7.7c-6.7-1.2-11,2-12.3,8.5c-1.3,7.6-2.7,15.3-4,22.8c-1.4,7.8-7.3,41.4-8.6,49
			c-1,6.3,2.2,10.7,8.4,11.8c14.8,2.6,29.3,5.2,44,7.8c6.4,1.1,10.9-2,12-8.3c2.7-15.3,10-56.6,12.7-71.9
			C307.5,253.4,304.2,249,297.8,247.8z M251.6,251.7c-1.9,10.8-8.5,47.6-10.4,58.5c-0.7,3.9-1,6.7-2.9,8c-2.5,2.2-5.2,2.9-7.9,4.9
			c-0.2-0.1,0.9-5.5,1-6.1c2.5-14,9.5-54,12-68c1.1-5.7,4.8-8.3,10.5-7.3c12.5,2.2,25,4.4,37.5,7.1c-1.4,0-2.8,0-4.2-0.2
			c-8.4-1.4-16.6-2.9-25-4.3C256.6,243.2,252.6,246,251.6,251.7z M290.8,276.1c-1.1,5.6-6.7,37.2-7.7,42.9c-0.8,4.4-3.8,6.5-8.2,5.8
			c-8.9-1.6-17.7-3.1-26.5-4.7c-4.2-0.7-6.5-3.9-5.8-8.1c2-11.5,8.6-49,10.7-60.5c0.7-4.1,3.8-6.4,7.8-5.7
			c9.3,1.5,18.2,3.1,27.5,4.8c3.9,0.8,6,4,5.3,8C292.8,264.5,291.8,270.4,290.8,276.1z M469.2,320c-11.3-9.5-22.6-19-34-28.5
			c-5.2-4.4-10.5-3.8-14.9,1.2c-5,5.9-9.9,11.9-14.9,17.8c-5.1,6.1-27,32.2-32,38.2c-4,5-3.5,10.3,1.3,14.4
			c11.5,9.6,22.8,19.2,34.2,28.8c5,4.1,10.5,3.8,14.6-1.2c10-11.9,36.9-44.1,46.9-55.9C474.8,329.7,474.2,324.2,469.2,320z
			 M460.4,327.5c-3.7,4.5-7.6,9.1-11.4,13.6c-3.7,4.3-24.4,28.9-28.1,33.3c-2.9,3.4-6.6,3.8-10,1c-6.9-5.8-13.8-11.6-20.6-17.3
			c-3.4-2.8-3.7-6.6-0.9-9.8c7.5-8.9,32-38.1,39.5-47.1c2.7-3.2,6.4-3.6,9.6-1.1c7.3,6,14.3,11.9,21.4,18
			C462.8,320.6,463,324.4,460.4,327.5z M459.7,315.5c-6.6-5.4-12.9-10.9-19.5-16.2c-4.4-3.8-9.2-3.3-12.9,1.1
			c-7.1,8.4-31.2,37-38.3,45.4c-2.6,3-4.2,5.3-6.5,5.4c-3.3,0.6-6,0-9.3,0.3c-0.1-0.2,3.5-4.4,3.9-4.8c9.1-10.9,35.2-41.9,44.3-52.8
			c3.8-4.4,8.2-4.7,12.8-1c9.7,8.2,19.5,16.3,29,24.9C462.1,317.1,460.8,316.4,459.7,315.5z M523.3,366.4c-11.3-9.5-22.6-19-34-28.5
			c-5.2-4.4-10.5-3.8-14.9,1.2c-5,5.9-9.9,11.9-14.9,17.8c-5.1,6.1-27,32.2-32,38.2c-4,5-3.5,10.3,1.3,14.4
			c11.5,9.6,22.8,19.2,34.2,28.8c5,4.1,10.5,3.8,14.6-1.2c10-11.9,36.9-44.1,46.9-55.9C528.9,376.1,528.4,370.6,523.3,366.4z
			 M514.6,373.9c-3.7,4.5-7.6,9.1-11.4,13.6c-3.7,4.3-24.4,28.9-28.1,33.3c-2.9,3.4-6.6,3.8-10,1c-6.9-5.8-13.8-11.6-20.6-17.3
			c-3.4-2.8-3.7-6.6-0.9-9.8c7.5-8.9,32-38.1,39.5-47.1c2.7-3.2,6.4-3.6,9.6-1.1c7.3,6,14.3,11.9,21.4,18
			C516.9,367,517.2,370.8,514.6,373.9z M513.9,361.9c-6.6-5.4-12.9-10.9-19.5-16.2c-4.4-3.8-9.2-3.3-12.9,1.1
			c-7.1,8.4-31.2,37-38.3,45.4c-2.6,3-4.2,5.3-6.5,5.4c-3.3,0.6-6,0-9.3,0.3c-0.1-0.2,3.5-4.4,3.9-4.8c9.1-10.9,35.2-41.9,44.3-52.8
			c3.8-4.4,8.2-4.7,12.8-1c9.7,8.2,19.5,16.3,29,24.9C516.2,363.5,514.9,362.8,513.9,361.9z"/>
	</g>
</g>
</svg>
