<?xml version="1.0" encoding="utf-8"?>
<!-- Generator: Adobe Illustrator 27.2.0, SVG Export Plug-In . SVG Version: 6.00 Build 0)  -->
<svg version="1.1" id="レイヤー_1" xmlns="http://www.w3.org/2000/svg" xmlns:xlink="http://www.w3.org/1999/xlink" x="0px"
	 y="0px" viewBox="0 0 550 400" style="enable-background:new 0 0 550 400;" xml:space="preserve">
<g>
	<g>
		<path d="M384.2,60.6h4.5v13.2h4.2V60.6h4.6v-3.4h-13.3V60.6z M369.5,113c15,0,29.8,0,44.7,0c6.5,0,10.4-3.9,10.4-10.3
			c0-15.5,0-31.2,0-46.7c0-6.6-4-10.4-10.5-10.4c-14.8,0-29.6,0-44.3,0c-6.8,0-10.5,3.9-10.6,10.5c0,7.7,0,15.5,0,23.2
			c0,7.9,0,15.7,0,23.6C359.2,109.1,363.1,113,369.5,113z M412.2,56.9c0,5.9,0,11.9,0,17.8c-0.1,5.7-0.1,11.5-0.1,17.3
			c0,4.5-2.6,7.1-7.1,7.1c-9,0-18,0-26.9,0c-4.3,0-7.1-2.7-7.1-7c0-11.7,0-23.5,0-35.2c0-4.2,2.6-7,6.7-7c9.4-0.1,18.5-0.1,27.9,0
			C409.6,50,412.2,52.8,412.2,56.9z M360.8,98.8c0-14.2,0-28.5,0-42.7c0.1-5.8,3.3-9,9.1-9c12.7,0,25.4,0,38.2,0.5
			c-1.4,0.2-2.8,0.5-4.2,0.5c-8.5,0.1-16.9,0-25.4,0.1c-5.8-0.1-9.2,3.3-9.2,9.1c0,11-0.1,22.1-0.1,33.1c0,4,0.2,6.8-1.5,8.4
			c-2.1,2.6-4.6,3.8-6.9,6.2C360.7,104.9,360.8,99.4,360.8,98.8z M369.1,184.6c15,0,29.8,0,44.7,0c6.5,0,10.4-3.9,10.4-10.3
			c0-15.5,0-31.2,0-46.7c0-6.6-4-10.4-10.5-10.4c-14.8,0-29.6,0-44.3,0c-6.8,0-10.5,3.9-10.6,10.5c0,7.7,0,15.5,0,23.2
			c0,7.9,0,15.7,0,23.6C358.9,180.8,362.8,184.6,369.1,184.6z M411.8,128.5c0,5.9,0,11.9,0,17.8c-0.1,5.7-0.1,11.5-0.1,17.3
			c0,4.5-2.6,7.1-7.1,7.1c-9,0-18,0-26.9,0c-4.3,0-7.1-2.7-7.1-7c0-11.7,0-23.5,0-35.2c0-4.2,2.6-7,6.7-7.1c9.4-0.1,18.5-0.1,27.9,0
			C409.2,121.7,411.8,124.5,411.8,128.5z M360.4,170.4c0-14.2,0-28.5,0-42.7c0.1-5.8,3.3-9,9.1-9c12.7,0,25.4,0,38.2,0.5
			c-1.4,0.2-2.8,0.5-4.2,0.5c-8.5,0.1-16.9,0-25.4,0.1c-5.8-0.1-9.2,3.3-9.2,9.1c0,11-0.1,22.1-0.1,33.1c0,4,0.2,6.8-1.5,8.4
			c-2.1,2.6-4.6,3.8-6.9,6.2C360.3,176.6,360.4,171,360.4,170.4z M390.8,138.9h2.4v3.6c-0.2,0-0.3,0-0.6,0c-0.2,0-0.4,0-0.7,0
			c-0.2,0-0.4,0-0.6,0c-0.6,0-1.1,0-1.5-0.1c-0.4-0.1-0.7-0.2-1-0.4c-0.2-0.2-0.4-0.5-0.6-0.9c-0.1-0.4-0.2-0.9-0.3-1.5
			c0-0.6-0.1-1.4-0.1-2.3c0-1,0-1.9,0.1-2.5c0.1-0.7,0.2-1.2,0.4-1.6c0.2-0.4,0.4-0.6,0.8-0.8c0.3-0.2,0.8-0.3,1.4-0.3
			c0.6,0,1.3,0,2.1,0c0.3,0,0.7,0,1.1,0c0.5,0,1,0.1,1.5,0.1c0.5,0,1.1,0.1,1.6,0.2v-3c-0.6-0.1-1.2-0.2-1.8-0.3
			c-0.7-0.1-1.3-0.1-2-0.2c-0.7,0-1.3-0.1-1.9-0.1c-1.2,0-2.2,0.1-3.1,0.2c-0.9,0.2-1.6,0.4-2.1,0.8c-0.6,0.4-1,0.9-1.3,1.5
			c-0.3,0.6-0.5,1.5-0.7,2.4c-0.1,1-0.2,2.1-0.2,3.5c0,1.3,0.1,2.5,0.2,3.5c0.1,1,0.3,1.8,0.7,2.4c0.3,0.6,0.8,1.2,1.3,1.5
			c0.6,0.4,1.3,0.6,2.1,0.8c0.9,0.2,1.9,0.2,3.1,0.2c0.6,0,1.2,0,1.9-0.1c0.7,0,1.4-0.1,2-0.2c0.7-0.1,1.3-0.2,1.9-0.3v-9.3h-6.2
			V138.9z M396.1,209.4c-0.4-0.3-1-0.5-1.7-0.7v-0.1c0.7-0.1,1.2-0.4,1.6-0.7c0.4-0.3,0.7-0.7,1-1.3c0.2-0.5,0.3-1.2,0.3-2
			c0-0.9-0.2-1.7-0.5-2.3c-0.3-0.6-0.9-1.1-1.6-1.4c-0.7-0.3-1.6-0.5-2.6-0.5h-8.4v16.6h8.4c0.9,0,1.7-0.1,2.3-0.3
			c0.6-0.2,1.1-0.5,1.5-0.9c0.4-0.4,0.6-0.8,0.8-1.4c0.2-0.6,0.3-1.2,0.3-1.8c0-0.8-0.1-1.5-0.3-2.1
			C396.8,210.1,396.5,209.7,396.1,209.4z M388.3,203.7h2.7c0.6,0,1,0,1.3,0.1c0.3,0.1,0.5,0.3,0.6,0.5c0.1,0.3,0.2,0.6,0.2,1.2
			c0,0.5-0.1,0.8-0.2,1.1c-0.1,0.3-0.3,0.4-0.6,0.5c-0.3,0.1-0.7,0.2-1.3,0.2h-2.7V203.7z M393,213.3c-0.1,0.3-0.3,0.5-0.6,0.6
			c-0.3,0.1-0.7,0.2-1.3,0.2h-2.7v-3.8h2.7c0.6,0,1,0.1,1.3,0.2c0.3,0.1,0.5,0.3,0.6,0.6c0.1,0.3,0.2,0.7,0.2,1.2
			C393.1,212.6,393.1,213,393,213.3z M369.1,256.3c15,0,29.8,0,44.7,0c6.5,0,10.4-3.9,10.4-10.3c0-15.5,0-31.2,0-46.7
			c0-6.6-4-10.4-10.5-10.4c-14.8,0-29.6,0-44.3,0c-6.8,0-10.5,3.9-10.6,10.5c0,7.7,0,15.5,0,23.2c0,7.9,0,15.7,0,23.6
			C358.9,252.4,362.8,256.3,369.1,256.3z M411.8,200.2c0,5.9,0,11.9,0,17.8c-0.1,5.7-0.1,11.5-0.1,17.3c0,4.5-2.6,7.1-7.1,7.1
			c-9,0-18,0-26.9,0c-4.3,0-7.1-2.7-7.1-7c0-11.7,0-23.5,0-35.2c0-4.2,2.6-7,6.7-7c9.4-0.1,18.5-0.1,27.9,0
			C409.2,193.3,411.8,196.1,411.8,200.2z M360.4,242.1c0-14.2,0-28.5,0-42.7c0.1-5.8,3.3-9,9.1-9c12.7,0,25.4,0,38.2,0.5
			c-1.4,0.2-2.8,0.5-4.2,0.5c-8.5,0.1-16.9,0-25.4,0.1c-5.8-0.1-9.2,3.3-9.2,9.1c0,11-0.1,22.1-0.1,33.1c0,4,0.2,6.8-1.5,8.4
			c-2.1,2.6-4.6,3.8-6.9,6.2C360.3,248.2,360.4,242.7,360.4,242.1z M130.8,45.5c-14.8,0-29.6,0-44.3,0c-6.8,0-10.5,3.9-10.6,10.5
			c0,7.7,0,15.5,0,23.2c0,7.9,0,15.7,0,23.6c0.1,6.4,4,10.2,10.3,10.2c15,0,29.8,0,44.7,0c6.5,0,10.4-3.9,10.4-10.3
			c0-15.5,0-31.2,0-46.7C141.3,49.4,137.4,45.5,130.8,45.5z M86.1,57.3c0,11-0.1,22.1-0.1,33.1c0,4,0.2,6.8-1.5,8.4
			c-2.1,2.6-4.6,3.8-6.9,6.2c-0.2-0.1-0.1-5.6-0.1-6.2c0-14.2,0-28.5,0-42.7c0.1-5.8,3.3-9,9.1-9c12.7,0,25.4,0,38.2,0.5
			c-1.4,0.2-2.8,0.5-4.2,0.5c-8.5,0.1-16.9,0-25.4,0.1C89.5,48.1,86.1,51.5,86.1,57.3z M128.9,74.7c-0.1,5.7-0.1,11.5-0.1,17.3
			c0,4.5-2.6,7.1-7.1,7.1c-9,0-18,0-26.9,0c-4.3,0-7.1-2.7-7.1-7c0-11.7,0-23.5,0-35.2c0-4.2,2.6-7,6.7-7c9.4-0.1,18.5-0.1,27.9,0
			c4,0.1,6.6,2.9,6.6,7C128.9,62.8,128.9,68.8,128.9,74.7z M113.1,73c0.5-0.4,0.9-0.9,1.1-1.6c0.2-0.7,0.4-1.5,0.4-2.4
			c0.1-1,0.1-2.1,0.1-3.4c0-1.3,0-2.5-0.1-3.4c-0.1-1-0.2-1.8-0.4-2.4c-0.2-0.7-0.6-1.2-1.1-1.6c-0.5-0.4-1.2-0.7-2.1-0.8
			s-2-0.2-3.4-0.2c-1.4,0-2.5,0.1-3.4,0.2s-1.6,0.4-2.1,0.8c-0.5,0.4-0.9,0.9-1.1,1.6c-0.2,0.7-0.4,1.5-0.4,2.4
			c-0.1,1-0.1,2.1-0.1,3.4c0,1.3,0,2.5,0.1,3.4c0.1,1,0.2,1.8,0.4,2.4c0.2,0.7,0.6,1.2,1.1,1.6c0.5,0.4,1.2,0.7,2.1,0.8
			c0.9,0.2,2,0.2,3.4,0.2c0.6,0,1.2,0,1.7-0.1l1.8,2.6h4.5v-0.1L113.1,73C113,73,113,73,113.1,73z M110.5,68.1
			c0,0.7-0.1,1.2-0.2,1.5c-0.1,0.4-0.3,0.7-0.5,0.8c-0.2,0.2-0.5,0.3-0.9,0.3c-0.4,0-0.8,0-1.4,0c-0.6,0-1,0-1.4,0
			c-0.4,0-0.7-0.1-0.9-0.3c-0.2-0.2-0.4-0.4-0.5-0.8c-0.1-0.4-0.2-0.9-0.2-1.5c0-0.7,0-1.5,0-2.5c0-1,0-1.9,0-2.5
			c0-0.7,0.1-1.2,0.2-1.5c0.1-0.4,0.2-0.7,0.5-0.8c0.2-0.2,0.5-0.3,0.9-0.3c0.4,0,0.8,0,1.4,0c0.6,0,1,0,1.4,0
			c0.4,0,0.6,0.1,0.9,0.3c0.2,0.2,0.4,0.4,0.5,0.8c0.1,0.4,0.2,0.9,0.2,1.5c0,0.7,0,1.5,0,2.5C110.5,66.6,110.5,67.5,110.5,68.1z
			 M130.5,117.1c-14.8,0-29.6,0-44.3,0c-6.8,0-10.5,3.9-10.6,10.5c0,7.7,0,15.5,0,23.2c0,7.9,0,15.7,0,23.6
			c0.1,6.4,4,10.2,10.3,10.2c15,0,29.8,0,44.7,0c6.5,0,10.4-3.9,10.4-10.3c0-15.5,0-31.2,0-46.7C141,121,137,117.1,130.5,117.1z
			 M85.8,128.9c0,11-0.1,22.1-0.1,33.1c0,4,0.2,6.8-1.5,8.4c-2.1,2.6-4.6,3.8-6.9,6.2c-0.2-0.1-0.1-5.6-0.1-6.2
			c0-14.2,0-28.5,0-42.7c0.1-5.8,3.3-9,9.1-9c12.7,0,25.4,0,38.2,0.5c-1.4,0.2-2.8,0.5-4.2,0.5c-8.5,0.1-16.9,0-25.4,0.1
			C89.1,119.7,85.8,123.1,85.8,128.9z M128.5,146.3c-0.1,5.7-0.1,11.5-0.1,17.3c0,4.5-2.6,7.1-7.1,7.1c-9,0-18,0-26.9,0
			c-4.3,0-7.1-2.7-7.1-7c0-11.7,0-23.5,0-35.2c0-4.2,2.6-7,6.7-7.1c9.4-0.1,18.5-0.1,27.9,0c4,0.1,6.6,2.9,6.6,7
			C128.5,134.4,128.5,140.4,128.5,146.3z M104.3,128.9l-5.3,16.6h4.1l1-3.3h5.9l1,3.3h4.2l-5.3-16.6H104.3z M105.1,139.1l2-6.6h0.2
			l2,6.6H105.1z M113.5,203.5v-3h-12.4v3.2h7.2l-7.5,10.3v3.1h12.7v-3.2H106L113.5,203.5z M130.5,188.8c-14.8,0-29.6,0-44.3,0
			c-6.8,0-10.5,3.9-10.6,10.5c0,7.7,0,15.5,0,23.2c0,7.9,0,15.7,0,23.6c0.1,6.4,4,10.2,10.3,10.2c15,0,29.8,0,44.7,0
			c6.5,0,10.4-3.9,10.4-10.3c0-15.5,0-31.2,0-46.7C141,192.6,137,188.8,130.5,188.8z M85.8,200.6c0,11-0.1,22.1-0.1,33.1
			c0,4,0.2,6.8-1.5,8.4c-2.1,2.6-4.6,3.8-6.9,6.2c-0.2-0.1-0.1-5.6-0.1-6.2c0-14.2,0-28.5,0-42.7c0.1-5.8,3.3-9,9.1-9
			c12.7,0,25.4,0,38.2,0.5c-1.4,0.2-2.8,0.5-4.2,0.5c-8.5,0.1-16.9,0-25.4,0.1C89.1,191.4,85.8,194.8,85.8,200.6z M128.5,217.9
			c-0.1,5.7-0.1,11.5-0.1,17.3c0,4.5-2.6,7.1-7.1,7.1c-9,0-18,0-26.9,0c-4.3,0-7.1-2.7-7.1-7c0-11.7,0-23.5,0-35.2
			c0-4.2,2.6-7,6.7-7c9.4-0.1,18.5-0.1,27.9,0c4,0.1,6.6,2.9,6.6,7C128.5,206.1,128.5,212,128.5,217.9z M326.2,41.9
			c0.3-0.5,0.5-1.1,0.6-1.7c0.1-0.6,0.1-1.3,0.1-1.9c0-0.9-0.1-1.6-0.2-2.3c-0.1-0.7-0.4-1.2-0.7-1.7c-0.3-0.5-0.9-0.8-1.5-1
			c-0.7-0.2-1.5-0.3-2.6-0.3h-8.2v16.6h4.2v-5.9h2.7c0.1,0,0.1,0,0.2,0l2.1,5.9h4.4l-2.5-6.4C325.4,42.8,325.9,42.4,326.2,41.9z
			 M322.7,39.4c0,0.3-0.2,0.5-0.3,0.7c-0.2,0.2-0.4,0.3-0.7,0.3c-0.3,0.1-0.8,0.1-1.3,0.1H318v-4.4h2.4c0.6,0,1,0,1.4,0.1
			c0.3,0.1,0.6,0.2,0.7,0.3c0.2,0.2,0.2,0.4,0.3,0.7c0,0.3,0.1,0.7,0.1,1.1C322.8,38.8,322.8,39.1,322.7,39.4z M298.8,88.6
			c15,0,29.8,0,44.7,0c6.5,0,10.4-3.9,10.4-10.3c0-15.5,0-31.2,0-46.7c0-6.6-4-10.4-10.5-10.4c-14.8,0-29.6,0-44.3,0
			c-6.8,0-10.5,3.9-10.6,10.5c0,7.7,0,15.5,0,23.2c0,7.9,0,15.7,0,23.6C288.6,84.8,292.4,88.6,298.8,88.6z M341.5,32.5
			c0,5.9,0,11.9,0,17.8c-0.1,5.7-0.1,11.5-0.1,17.3c0,4.5-2.6,7.1-7.1,7.1c-9,0-18,0-26.9,0c-4.3,0-7.1-2.7-7.1-7
			c0-11.7,0-23.5,0-35.2c0-4.2,2.6-7,6.7-7c9.4-0.1,18.5-0.1,27.9,0C338.9,25.7,341.5,28.5,341.5,32.5z M290.1,74.4
			c0-14.2,0-28.5,0-42.7c0.1-5.8,3.3-9,9.1-9c12.7,0,25.4,0,38.2,0.5c-1.4,0.2-2.8,0.5-4.2,0.5c-8.5,0.1-16.9,0-25.4,0.1
			c-5.8-0.1-9.2,3.3-9.2,9.1c0,11-0.1,22.1-0.1,33.1c0,4,0.2,6.8-1.5,8.4c-2.1,2.6-4.6,3.8-6.9,6.2C290,80.6,290.1,75,290.1,74.4z
			 M298.5,160.3c15,0,29.8,0,44.7,0c6.5,0,10.4-3.9,10.4-10.3c0-15.5,0-31.2,0-46.7c0-6.6-4-10.4-10.5-10.4c-14.8,0-29.6,0-44.3,0
			c-6.8,0-10.5,3.9-10.6,10.5c0,7.7,0,15.5,0,23.2c0,7.9,0,15.7,0,23.6C288.2,156.4,292.1,160.3,298.5,160.3z M341.1,104.2
			c0,5.9,0,11.9,0,17.8c-0.1,5.7-0.1,11.5-0.1,17.3c0,4.5-2.6,7.1-7.1,7.1c-9,0-18,0-26.9,0c-4.3,0-7.1-2.7-7.1-7
			c0-11.7,0-23.5,0-35.2c0-4.2,2.6-7,6.7-7c9.4-0.1,18.5-0.1,27.9,0C338.5,97.3,341.1,100.1,341.1,104.2z M289.8,146.1
			c0-14.2,0-28.5,0-42.7c0.1-5.8,3.3-9,9.1-9c12.7,0,25.4,0,38.2,0.5c-1.4,0.2-2.8,0.5-4.2,0.5c-8.5,0.1-16.9,0-25.4,0.1
			c-5.8-0.1-9.2,3.3-9.2,9.1c0,11-0.1,22.1-0.1,33.1c0,4,0.2,6.8-1.5,8.4c-2.1,2.6-4.6,3.8-6.9,6.2
			C289.7,152.2,289.8,146.7,289.8,146.1z M314.7,121.1h4.2v-6.2h6v-3.2h-6v-3.9h6.9v-3.2h-11.1V121.1z M319.9,188.3h-0.2l-3.4-12.1
			h-4.3l5,16.6h5.5l5-16.6h-4.2L319.9,188.3z M298.5,231.9c15,0,29.8,0,44.7,0c6.5,0,10.4-3.9,10.4-10.3c0-15.5,0-31.2,0-46.7
			c0-6.6-4-10.4-10.5-10.4c-14.8,0-29.6,0-44.3,0c-6.8,0-10.5,3.9-10.6,10.5c0,7.7,0,15.5,0,23.2c0,7.9,0,15.7,0,23.6
			C288.2,228.1,292.1,231.9,298.5,231.9z M341.1,175.8c0,5.9,0,11.9,0,17.8c-0.1,5.7-0.1,11.5-0.1,17.3c0,4.5-2.6,7.1-7.1,7.1
			c-9,0-18,0-26.9,0c-4.3,0-7.1-2.7-7.1-7c0-11.7,0-23.5,0-35.2c0-4.2,2.6-7,6.7-7.1c9.4-0.1,18.5-0.1,27.9,0
			C338.5,168.9,341.1,171.8,341.1,175.8z M289.8,217.7c0-14.2,0-28.5,0-42.7c0.1-5.8,3.3-9,9.1-9c12.7,0,25.4,0,38.2,0.5
			c-1.4,0.2-2.8,0.5-4.2,0.5c-8.5,0.1-16.9,0-25.4,0.1c-5.8-0.1-9.2,3.3-9.2,9.1c0,11-0.1,22.1-0.1,33.1c0,4,0.2,6.8-1.5,8.4
			c-2.1,2.6-4.6,3.8-6.9,6.2C289.7,223.8,289.8,218.3,289.8,217.7z M201.1,21.1c-14.8,0-29.6,0-44.3,0c-6.8,0-10.5,3.9-10.6,10.5
			c0,7.7,0,15.5,0,23.2c0,7.9,0,15.7,0,23.6c0.1,6.4,4,10.2,10.3,10.2c15,0,29.8,0,44.7,0c6.5,0,10.4-3.9,10.4-10.3
			c0-15.5,0-31.2,0-46.7C211.6,25,207.6,21.1,201.1,21.1z M156.3,32.9c0,11-0.1,22.1-0.1,33.1c0,4,0.2,6.8-1.5,8.4
			c-2.1,2.6-4.6,3.8-6.9,6.2c-0.2-0.1-0.1-5.6-0.1-6.2c0-14.2,0-28.5,0-42.7c0.1-5.8,3.3-9,9.1-9c12.7,0,25.4,0,38.2,0.5
			c-1.4,0.2-2.8,0.5-4.2,0.5c-8.5,0.1-16.9,0-25.4,0.1C159.7,23.7,156.3,27.1,156.3,32.9z M199.1,50.3C199,56,199,61.8,199,67.6
			c0,4.5-2.6,7.1-7.1,7.1c-9,0-18,0-26.9,0c-4.3,0-7.1-2.7-7.1-7c0-11.7,0-23.5,0-35.2c0-4.2,2.6-7,6.7-7c9.4-0.1,18.5-0.1,27.9,0
			c4,0.1,6.6,2.9,6.6,7C199.1,38.4,199.1,44.4,199.1,50.3z M183,44.7h-0.2L180,32.9h-4.3L173,44.7h-0.2l-2.4-11.8h-4.2l3.7,16.6h5.3
			l2.5-10.5h0.2l2.5,10.5h5.3l3.7-16.6h-4.2L183,44.7z M183.5,113.7c-0.1-0.3-0.2-0.5-0.3-0.8c-0.2-0.4-0.5-0.8-0.8-1
			c-0.3-0.2-0.7-0.4-1-0.5c-0.4-0.1-0.8-0.2-1.2-0.2l-3.3-0.4c-0.5-0.1-0.8-0.1-1-0.2c-0.2-0.1-0.4-0.2-0.4-0.4
			c-0.1-0.2-0.1-0.5-0.1-0.9c0-0.3,0-0.6,0.1-0.8c0.1-0.2,0.2-0.4,0.4-0.5c0.2-0.1,0.5-0.2,0.9-0.3c0.4,0,0.9-0.1,1.5-0.1
			c0.5,0,1.1,0,1.6,0c0.6,0,1.1,0.1,1.7,0.1c0.5,0,1,0.1,1.4,0.1v-3c-0.4-0.1-0.9-0.2-1.6-0.2c-0.6-0.1-1.3-0.1-2-0.2
			s-1.4-0.1-2-0.1c-0.9,0-1.7,0.1-2.5,0.2c-0.8,0.1-1.4,0.3-2,0.7c-0.6,0.3-1,0.8-1.3,1.5c-0.3,0.7-0.5,1.5-0.5,2.6
			c0,0.7,0,1.3,0.1,1.9c0.1,0.6,0.3,1.1,0.5,1.5c0.2,0.4,0.6,0.7,1,1c0.4,0.2,1,0.4,1.6,0.5l3.4,0.4c0.4,0,0.7,0.1,0.9,0.2
			c0.2,0.1,0.4,0.2,0.5,0.3c0.1,0.1,0.2,0.3,0.2,0.5c0,0.2,0,0.5,0,0.8c0,0.2,0,0.4,0,0.6c0,0.2,0,0.3-0.1,0.5
			c-0.1,0.1-0.2,0.2-0.3,0.3c-0.2,0.1-0.5,0.2-0.9,0.3c-0.4,0.1-1,0.1-1.7,0.1c-0.4,0-0.9,0-1.4,0c-0.5,0-1.1,0-1.7-0.1
			c-0.6,0-1.2-0.1-1.8-0.1v3.1c0.6,0.1,1.2,0.1,1.9,0.2c0.7,0.1,1.4,0.1,2.2,0.1c0.7,0,1.4,0.1,2.1,0.1c0.7,0,1.3,0,1.9-0.1
			c0.6-0.1,1.2-0.2,1.7-0.4c0.5-0.2,0.9-0.5,1.3-0.9s0.6-0.9,0.8-1.5c0.2-0.6,0.3-1.4,0.3-2.4c0-0.5,0-0.9-0.1-1.3
			C183.7,114.4,183.6,114,183.5,113.7z M200.7,92.8c-14.8,0-29.6,0-44.3,0c-6.8,0-10.5,3.9-10.6,10.5c0,7.7,0,15.5,0,23.2
			c0,7.9,0,15.7,0,23.6c0.1,6.4,4,10.2,10.3,10.2c15,0,29.8,0,44.7,0c6.5,0,10.4-3.9,10.4-10.3c0-15.5,0-31.2,0-46.7
			C211.2,96.6,207.3,92.8,200.7,92.8z M156,104.6c0,11-0.1,22.1-0.1,33.1c0,4,0.2,6.8-1.5,8.4c-2.1,2.6-4.6,3.8-6.9,6.2
			c-0.2-0.1-0.1-5.6-0.1-6.2c0-14.2,0-28.5,0-42.7c0.1-5.8,3.3-9,9.1-9c12.7,0,25.4,0,38.2,0.5c-1.4,0.2-2.8,0.5-4.2,0.5
			c-8.5,0.1-16.9,0-25.4,0.1C159.4,95.4,156,98.8,156,104.6z M198.8,121.9c-0.1,5.7-0.1,11.5-0.1,17.3c0,4.5-2.6,7.1-7.1,7.1
			c-9,0-18,0-26.9,0c-4.3,0-7.1-2.7-7.1-7c0-11.7,0-23.5,0-35.2c0-4.2,2.6-7,6.7-7c9.4-0.1,18.5-0.1,27.9,0c4,0.1,6.6,2.9,6.6,7
			C198.8,110.1,198.8,116,198.8,121.9z M200.7,164.4c-14.8,0-29.6,0-44.3,0c-6.8,0-10.5,3.9-10.6,10.5c0,7.7,0,15.5,0,23.2
			c0,7.9,0,15.7,0,23.6c0.1,6.4,4,10.2,10.3,10.2c15,0,29.8,0,44.7,0c6.5,0,10.4-3.9,10.4-10.3c0-15.5,0-31.2,0-46.7
			C211.2,168.3,207.3,164.4,200.7,164.4z M156,176.2c0,11-0.1,22.1-0.1,33.1c0,4,0.2,6.8-1.5,8.4c-2.1,2.6-4.6,3.8-6.9,6.2
			c-0.2-0.1-0.1-5.6-0.1-6.2c0-14.2,0-28.5,0-42.7c0.1-5.8,3.3-9,9.1-9c12.7,0,25.4,0,38.2,0.5c-1.4,0.2-2.8,0.5-4.2,0.5
			c-8.5,0.1-16.9,0-25.4,0.1C159.4,167,156,170.4,156,176.2z M198.8,193.6c-0.1,5.7-0.1,11.5-0.1,17.3c0,4.5-2.6,7.1-7.1,7.1
			c-9,0-18,0-26.9,0c-4.3,0-7.1-2.7-7.1-7c0-11.7,0-23.5,0-35.2c0-4.2,2.6-7,6.7-7.1c9.4-0.1,18.5-0.1,27.9,0c4,0.1,6.6,2.9,6.6,7
			C198.8,181.7,198.8,187.7,198.8,193.6z M185.3,176.2h-4.6l-3.1,5h-0.2l-3.1-5h-4.7l5.2,8.3l-5.3,8.3h4.6l3.2-5.2h0.2l3.2,5.2h4.7
			l-5.3-8.4L185.3,176.2z M227.6,69.4c15,0,29.8,0,44.7,0c6.5,0,10.4-3.9,10.4-10.3c0-15.5,0-31.2,0-46.7c0-6.6-4-10.4-10.5-10.4
			c-14.8,0-29.6,0-44.3,0c-6.8,0-10.5,3.9-10.6,10.5c0,7.7,0,15.5,0,23.2c0,7.9,0,15.7,0,23.6C217.4,65.5,221.2,69.4,227.6,69.4z
			 M270.3,13.2c0,5.9,0,11.9,0,17.8c-0.1,5.7-0.1,11.5-0.1,17.3c0,4.5-2.6,7.1-7.1,7.1c-9,0-18,0-26.9,0c-4.3,0-7.1-2.7-7.1-7
			c0-11.7,0-23.5,0-35.2c0-4.2,2.6-7,6.7-7c9.4-0.1,18.5-0.1,27.9,0C267.7,6.4,270.3,9.2,270.3,13.2z M218.9,55.2
			c0-14.2,0-28.5,0-42.7c0.1-5.8,3.3-9,9.1-9c12.7,0,25.4,0,38.2,0.5c-1.4,0.2-2.8,0.5-4.2,0.5c-8.5,0.1-16.9,0-25.4,0.1
			c-5.8-0.1-9.2,3.3-9.2,9.1c0,11-0.1,22.1-0.1,33.1c0,4,0.2,6.8-1.5,8.4c-2.1,2.6-4.6,3.8-6.9,6.2
			C218.8,61.3,218.9,55.7,218.9,55.2z M243.4,30.2H255V27h-7.4v-3.5h6.3v-3.2h-6.3v-3.4h7.4v-3.2h-11.6V30.2z M227.3,141
			c15,0,29.8,0,44.7,0c6.5,0,10.4-3.9,10.4-10.3c0-15.5,0-31.2,0-46.7c0-6.6-4-10.4-10.5-10.4c-14.8,0-29.6,0-44.3,0
			c-6.8,0-10.5,3.9-10.6,10.5c0,7.7,0,15.5,0,23.2c0,7.9,0,15.7,0,23.6C217,137.1,220.9,141,227.3,141z M270,84.9
			c0,5.9,0,11.9,0,17.8c-0.1,5.7-0.1,11.5-0.1,17.3c0,4.5-2.6,7.1-7.1,7.1c-9,0-18,0-26.9,0c-4.3,0-7.1-2.7-7.1-7
			c0-11.7,0-23.5,0-35.2c0-4.2,2.6-7,6.7-7.1c9.4-0.1,18.5-0.1,27.9,0C267.4,78,270,80.8,270,84.9z M218.6,126.8
			c0-14.2,0-28.5,0-42.7c0.1-5.8,3.3-9,9.1-9c12.7,0,25.4,0,38.2,0.5c-1.4,0.2-2.8,0.5-4.2,0.5c-8.5,0.1-16.9,0-25.4,0.1
			c-5.8-0.1-9.2,3.3-9.2,9.1c0,11-0.1,22.1-0.1,33.1c0,4,0.2,6.8-1.5,8.4c-2.1,2.6-4.6,3.8-6.9,6.2
			C218.5,132.9,218.6,127.4,218.6,126.8z M254.9,87.8c-0.2-0.6-0.6-1.1-1.2-1.5c-0.5-0.4-1.3-0.6-2.2-0.8c-0.9-0.2-2.1-0.2-3.6-0.2
			h-5.8v16.6h5.8c1.5,0,2.7-0.1,3.6-0.2c0.9-0.2,1.7-0.4,2.2-0.8c0.5-0.4,0.9-0.9,1.2-1.5c0.2-0.6,0.4-1.4,0.4-2.4s0.1-2.1,0.1-3.4
			s0-2.5-0.1-3.4C255.3,89.2,255.2,88.4,254.9,87.8z M251.2,96c0,0.6-0.1,1.1-0.2,1.5c-0.1,0.4-0.3,0.6-0.5,0.8
			c-0.2,0.2-0.6,0.2-1,0.3c-0.4,0-0.9,0.1-1.6,0.1h-1.5V88.5h1.5c0.6,0,1.2,0,1.6,0c0.4,0,0.7,0.1,1,0.3c0.2,0.2,0.4,0.4,0.5,0.8
			c0.1,0.4,0.2,0.8,0.2,1.5c0,0.6,0,1.4,0,2.4C251.3,94.6,251.3,95.4,251.2,96z M251.1,170.5c-0.7,0-1.3,0-1.8-0.1
			c-0.5-0.1-0.8-0.2-1.1-0.4c-0.3-0.2-0.5-0.5-0.6-0.9c-0.1-0.4-0.2-0.9-0.2-1.5c0-0.6,0-1.4,0-2.4c0-1,0-1.8,0-2.4s0.1-1.1,0.2-1.5
			c0.1-0.4,0.3-0.7,0.6-0.9c0.3-0.2,0.6-0.3,1.1-0.4c0.5-0.1,1.1-0.1,1.8-0.1c0.2,0,0.5,0,0.8,0c0.3,0,0.7,0,1.1,0.1
			c0.4,0,0.9,0.1,1.3,0.1v-3c-0.3-0.1-0.7-0.2-1.2-0.2c-0.5-0.1-1-0.1-1.5-0.1c-0.5,0-1-0.1-1.5-0.1c-1.2,0-2.3,0.1-3.1,0.2
			c-0.8,0.2-1.5,0.4-2,0.8c-0.5,0.4-0.9,0.9-1.2,1.6c-0.3,0.7-0.4,1.5-0.5,2.4c-0.1,1-0.1,2.1-0.1,3.4c0,1.3,0,2.5,0.1,3.4
			c0.1,1,0.3,1.8,0.5,2.4c0.3,0.7,0.7,1.2,1.2,1.5c0.5,0.4,1.2,0.7,2,0.8c0.8,0.2,1.9,0.3,3.1,0.3c0.5,0,1,0,1.5,0
			c0.5,0,1-0.1,1.5-0.1c0.5-0.1,0.9-0.1,1.3-0.2v-3.1c-0.4,0.1-1,0.1-1.6,0.2C252.2,170.4,251.6,170.5,251.1,170.5z M282.4,202.3
			c0-15.5,0-31.2,0-46.7c0-6.6-4-10.4-10.5-10.4c-14.8,0-29.6,0-44.3,0c-6.8,0-10.5,3.9-10.6,10.5c0,7.7,0,15.5,0,23.2
			c0,7.9,0,15.7,0,23.6c0.1,6.4,4,10.2,10.3,10.2c15,0,29.8,0,44.7,0C278.5,212.6,282.4,208.8,282.4,202.3z M227.2,156.9
			c0,11-0.1,22.1-0.1,33.1c0,4,0.2,6.8-1.5,8.4c-2.1,2.6-4.6,3.8-6.9,6.2c-0.2-0.1-0.1-5.6-0.1-6.2c0-14.2,0-28.5,0-42.7
			c0.1-5.8,3.3-9,9.1-9c12.7,0,25.4,0,38.2,0.5c-1.4,0.2-2.8,0.5-4.2,0.5c-8.5,0.1-16.9,0-25.4,0.1
			C230.6,147.7,227.2,151.1,227.2,156.9z M270,174.3c-0.1,5.7-0.1,11.5-0.1,17.3c0,4.5-2.6,7.1-7.1,7.1c-9,0-18,0-26.9,0
			c-4.3,0-7.1-2.7-7.1-7c0-11.7,0-23.5,0-35.2c0-4.2,2.6-7,6.7-7c9.4-0.1,18.5-0.1,27.9,0c4,0.1,6.6,2.9,6.6,7
			C270,162.4,270,168.4,270,174.3z M40.7,97.8c-0.2-0.3-0.5-0.5-0.8-0.7c-0.4-0.2-0.8-0.2-1.4-0.2c-0.4,0-0.7,0-1.1,0.1
			c-0.3,0.1-0.6,0.2-0.9,0.4c-0.3,0.2-0.5,0.4-0.6,0.7h-0.2l-0.1-1.1H33v8.9h2.8v-4.6c0-0.4,0-0.8,0.1-1c0-0.3,0.1-0.5,0.2-0.6
			c0.1-0.2,0.2-0.3,0.4-0.3c0.2-0.1,0.4-0.1,0.7-0.1c0.3,0,0.5,0,0.7,0.1c0.2,0,0.3,0.1,0.4,0.2c0.1,0.1,0.1,0.3,0.2,0.6
			c0,0.3,0,0.7,0,1.1v4.7h2.8v-5.6c0-0.6,0-1.1-0.1-1.5C41,98.5,40.9,98.1,40.7,97.8z M48.6,98h-0.1c-0.2-0.3-0.4-0.5-0.7-0.7
			c-0.3-0.2-0.5-0.3-0.8-0.3c-0.3-0.1-0.6-0.1-1-0.1c-0.5,0-1,0.1-1.3,0.2c-0.4,0.2-0.7,0.4-0.9,0.7c-0.2,0.3-0.4,0.8-0.5,1.4
			c-0.1,0.6-0.2,1.4-0.2,2.3c0,0.9,0.1,1.6,0.2,2.2c0.1,0.6,0.3,1.1,0.5,1.4c0.2,0.3,0.5,0.6,0.9,0.7s0.8,0.2,1.3,0.2
			c0.3,0,0.7,0,1-0.1s0.6-0.2,0.9-0.4c0.3-0.2,0.5-0.4,0.7-0.8h0.1l0.1,1.1h2.7V93h-2.8V98z M48.6,102.5c0,0.3-0.1,0.5-0.1,0.7
			c-0.1,0.2-0.2,0.4-0.4,0.5c-0.2,0.1-0.5,0.1-0.8,0.1c-0.3,0-0.6,0-0.8-0.1c-0.2,0-0.3-0.1-0.4-0.3c-0.1-0.1-0.1-0.4-0.2-0.7
			c0-0.3,0-0.7,0-1.3c0-0.5,0-1,0-1.3c0-0.3,0.1-0.5,0.2-0.7c0.1-0.1,0.2-0.2,0.4-0.3c0.2,0,0.4-0.1,0.8-0.1c0.4,0,0.6,0,0.8,0.1
			c0.2,0.1,0.3,0.3,0.4,0.5c0.1,0.2,0.1,0.4,0.1,0.7c0,0.3,0,0.6,0,0.9C48.6,101.9,48.6,102.2,48.6,102.5z M60.2,79.8
			c-14.8,0-29.6,0-44.3,0c-6.8,0-10.5,3.9-10.6,10.5c0,7.7,0,15.5,0,23.2c0,7.9,0,15.7,0,23.6c0.1,6.4,4,10.2,10.3,10.2
			c15,0,29.8,0,44.7,0c6.5,0,10.4-3.9,10.4-10.3c0-15.5,0-31.2,0-46.7C70.7,83.7,66.7,79.8,60.2,79.8z M15.5,91.6
			c0,11-0.1,22.1-0.1,33.1c0,4,0.2,6.8-1.5,8.4c-2.1,2.6-4.6,3.8-6.9,6.2c-0.2-0.1-0.1-5.6-0.1-6.2c0-14.2,0-28.5,0-42.7
			c0.1-5.8,3.3-9,9.1-9c12.7,0,25.4,0,38.2,0.5c-1.4,0.2-2.8,0.5-4.2,0.5c-8.5,0.1-16.9,0-25.4,0.1C18.8,82.5,15.5,85.8,15.5,91.6z
			 M58.2,109c-0.1,5.7-0.1,11.5-0.1,17.3c0,4.5-2.6,7.1-7.1,7.1c-9,0-18,0-26.9,0c-4.3,0-7.1-2.7-7.1-7c0-11.7,0-23.5,0-35.2
			c0-4.2,2.6-7,6.7-7.1c9.4-0.1,18.5-0.1,27.9,0c4,0.1,6.6,2.9,6.6,7C58.2,97.1,58.2,103.1,58.2,109z M22.6,106H31v-2.3h-5.4v-2.6
			h4.6v-2.3h-4.6v-2.5H31V94h-8.4V106z M37.1,160.8l-0.2,0.1l-0.2-0.1v0.3l-8.2,7.2v5.9l5.9-5.2v11.9h4.9v-11.9l5.9,5.2v-5.9
			l-8.2-7.2V160.8z M59.8,151.5c-14.8,0-29.6,0-44.3,0c-6.8,0-10.5,3.9-10.6,10.5c0,7.7,0,15.5,0,23.2c0,7.9,0,15.7,0,23.6
			c0.1,6.4,4,10.2,10.3,10.2c15,0,29.8,0,44.7,0c6.5,0,10.4-3.9,10.4-10.3c0-15.5,0-31.2,0-46.7C70.4,155.4,66.4,151.5,59.8,151.5z
			 M15.1,163.3c0,11-0.1,22.1-0.1,33.1c0,4,0.2,6.8-1.5,8.4c-2.1,2.6-4.6,3.8-6.9,6.2c-0.2-0.1-0.1-5.6-0.1-6.2
			c0-14.2,0-28.5,0-42.7c0.1-5.8,3.3-9,9.1-9c12.7,0,25.4,0,38.2,0.5c-1.4,0.2-2.8,0.5-4.2,0.5c-8.5,0.1-16.9,0-25.4,0.1
			C18.5,154.1,15.1,157.5,15.1,163.3z M57.9,180.7c-0.1,5.7-0.1,11.5-0.1,17.3c0,4.5-2.6,7.1-7.1,7.1c-9,0-18,0-26.9,0
			c-4.3,0-7.1-2.7-7.1-7c0-11.7,0-23.5,0-35.2c0-4.2,2.6-7,6.7-7c9.4-0.1,18.5-0.1,27.9,0c4,0.1,6.6,2.9,6.6,7
			C57.9,168.8,57.9,174.8,57.9,180.7z M59.8,223.1c-14.8,0-29.6,0-44.3,0c-6.8,0-10.5,3.9-10.6,10.5c0,7.7,0,15.5,0,23.2
			c0,7.9,0,15.7,0,23.6c0.1,6.4,4,10.2,10.3,10.2c15,0,29.8,0,44.7,0c6.5,0,10.4-3.9,10.4-10.3c0-15.5,0-31.2,0-46.7
			C70.4,227,66.4,223.1,59.8,223.1z M15.1,234.9c0,11-0.1,22.1-0.1,33.1c0,4,0.2,6.8-1.5,8.4c-2.1,2.6-4.6,3.8-6.9,6.2
			c-0.2-0.1-0.1-5.6-0.1-6.2c0-14.2,0-28.5,0-42.7c0.1-5.8,3.3-9,9.1-9c12.7,0,25.4,0,38.2,0.5c-1.4,0.2-2.8,0.5-4.2,0.5
			c-8.5,0.1-16.9,0-25.4,0.1C18.5,225.7,15.1,229.1,15.1,234.9z M57.9,252.3c-0.1,5.7-0.1,11.5-0.1,17.3c0,4.5-2.6,7.1-7.1,7.1
			c-9,0-18,0-26.9,0c-4.3,0-7.1-2.7-7.1-7c0-11.7,0-23.5,0-35.2c0-4.2,2.6-7,6.7-7c9.4-0.1,18.5-0.1,27.9,0c4,0.1,6.6,2.9,6.6,7
			C57.9,240.4,57.9,246.4,57.9,252.3z M38.8,234h-4.9v11.9l-5.9-5.2v5.9l8.2,7.2v0.3l0.2-0.1l0.2,0.1v-0.3l8.2-7.2v-5.9l-5.9,5.2
			V234z M367.1,265.2c-14.8,0-29.6,0-44.3,0c-6.8,0-10.5,3.9-10.6,10.5c0,7.7,0,15.5,0,23.2c0,7.9,0,15.7,0,23.6
			c0.1,6.4,4,10.2,10.3,10.2c15,0,29.8,0,44.7,0c6.5,0,10.4-3.9,10.4-10.3c0-15.5,0-31.2,0-46.7
			C377.7,269.1,373.7,265.2,367.1,265.2z M322.4,277c0,11-0.1,22.1-0.1,33.1c0,4,0.2,6.8-1.5,8.4c-2.1,2.6-4.6,3.8-6.9,6.2
			c-0.2-0.1-0.1-5.6-0.1-6.2c0-14.2,0-28.5,0-42.7c0.1-5.8,3.3-9,9.1-9c12.7,0,25.4,0,38.2,0.5c-1.4,0.2-2.8,0.5-4.2,0.5
			c-8.5,0.1-16.9,0-25.4,0.1C325.8,267.8,322.4,271.2,322.4,277z M365.2,294.4c-0.1,5.7-0.1,11.5-0.1,17.3c0,4.5-2.6,7.1-7.1,7.1
			c-9,0-18,0-26.9,0c-4.3,0-7.1-2.7-7.1-7c0-11.7,0-23.5,0-35.2c0-4.2,2.6-7,6.7-7.1c9.4-0.1,18.5-0.1,27.9,0c4,0.1,6.6,2.9,6.6,7
			C365.2,282.5,365.2,288.5,365.2,294.4z M295.2,238c-14.8,0-29.6,0-44.3,0c-6.8,0-10.5,3.9-10.6,10.5c0,7.7,0,15.5,0,23.2
			c0,7.9,0,42,0,49.8c0.1,6.4,4,10.2,10.3,10.2c15,0,29.8,0,44.7,0c6.5,0,10.4-3.9,10.4-10.3c0-15.5,0-57.5,0-73
			C305.7,241.8,301.7,238,295.2,238z M250.4,249.8c0,11-0.1,48.4-0.1,59.4c0,4,0.2,6.8-1.5,8.4c-2.1,2.6-4.6,3.8-6.9,6.2
			c-0.2-0.1-0.1-5.6-0.1-6.2c0-14.2,0-54.8,0-69c0.1-5.8,3.3-9,9.1-9c12.7,0,25.4,0,38.2,0.5c-1.4,0.2-2.8,0.5-4.2,0.5
			c-8.5,0.1-16.9,0-25.4,0.1C253.8,240.6,250.4,244,250.4,249.8z M293.2,267.1c-0.1,5.7-0.1,37.8-0.1,43.6c0,4.5-2.6,7.1-7.1,7.1
			c-9,0-18,0-26.9,0c-4.3,0-7.1-2.7-7.1-7c0-11.7,0-49.8,0-61.4c0-4.2,2.6-7,6.7-7c9.4-0.1,18.5-0.1,27.9,0c4,0.1,6.6,2.9,6.6,7
			C293.2,255.3,293.2,261.3,293.2,267.1z M476.5,279.3c-12.8-7.4-25.6-14.8-38.4-22.2c-5.9-3.4-11-1.9-14.5,3.8
			c-3.9,6.7-7.7,13.4-11.6,20.1c-4,6.9-21,36.4-24.9,43.2c-3.1,5.6-1.7,10.8,3.8,14c13,7.5,25.8,14.9,38.7,22.4
			c5.6,3.2,11,1.9,14.2-3.7c7.8-13.5,28.7-49.8,36.5-63.2C483.7,287.9,482.2,282.6,476.5,279.3z M469.2,288.2
			c-2.9,5.1-5.9,10.3-8.9,15.4c-2.9,4.9-19,32.7-21.9,37.7c-2.3,3.9-5.8,4.9-9.7,2.7c-7.8-4.5-15.6-9-23.3-13.5
			c-3.8-2.2-4.8-5.9-2.6-9.5c5.8-10.1,24.9-43.1,30.7-53.2c2.1-3.6,5.7-4.7,9.3-2.8c8.2,4.6,16.1,9.2,24.2,14
			C470.3,281,471.2,284.7,469.2,288.2z M466.4,276.5c-7.4-4.2-14.6-8.5-22-12.6c-5-3-9.6-1.7-12.5,3.3c-5.5,9.5-24.3,41.9-29.8,51.4
			c-2,3.4-3.2,5.9-5.5,6.5c-3.1,1.2-5.9,1-9.1,1.9c-0.1-0.2,2.7-4.9,3-5.4c7.1-12.3,27.4-47.4,34.5-59.7c3-5,7.3-6.1,12.4-3.2
			c11,6.4,22,12.7,32.9,19.5C469,277.7,467.6,277.2,466.4,276.5z M537.9,315.6c-12.8-7.4-25.6-14.8-38.4-22.2
			c-5.9-3.4-11-1.9-14.5,3.8c-3.9,6.7-7.7,13.4-11.6,20.1c-4,6.9-21,36.4-24.9,43.2c-3.1,5.6-1.7,10.8,3.8,14
			c13,7.5,25.8,14.9,38.7,22.4c5.6,3.2,11,1.9,14.2-3.7c7.8-13.5,28.7-49.8,36.5-63.2C545.1,324.2,543.6,318.9,537.9,315.6z
			 M530.6,324.5c-2.9,5.1-5.9,10.3-8.9,15.4c-2.9,4.9-19,32.7-21.9,37.7c-2.3,3.9-5.8,4.9-9.7,2.7c-7.8-4.5-15.6-9-23.3-13.5
			c-3.8-2.2-4.8-5.9-2.6-9.5c5.8-10.1,24.9-43.1,30.7-53.2c2.1-3.6,5.7-4.7,9.3-2.8c8.2,4.6,16.1,9.2,24.2,14
			C531.7,317.3,532.6,321,530.6,324.5z M527.8,312.8c-7.4-4.2-14.6-8.5-22-12.6c-5-3-9.6-1.7-12.5,3.3c-5.5,9.5-24.3,41.9-29.8,51.4
			c-2,3.4-3.2,5.9-5.5,6.5c-3.1,1.2-5.9,1-9.1,1.9c-0.1-0.2,2.7-4.9,3-5.4c7.1-12.3,27.4-47.4,34.5-59.7c3-5,7.3-6.1,12.4-3.2
			c11,6.4,22,12.7,32.9,19.5C530.4,314,529,313.5,527.8,312.8z"/>
	</g>
</g>
</svg>
