<?xml version="1.0" encoding="utf-8"?>
<!-- Generator: Adobe Illustrator 27.2.0, SVG Export Plug-In . SVG Version: 6.00 Build 0)  -->
<svg version="1.1" id="レイヤー_1" xmlns="http://www.w3.org/2000/svg" xmlns:xlink="http://www.w3.org/1999/xlink" x="0px"
	 y="0px" viewBox="0 0 550 400" style="enable-background:new 0 0 550 400;" xml:space="preserve">
<g>
	<path d="M156.5,73.8h4.2v-5.7l5.5-10.9H162l-3.3,7h-0.2l-3.3-7H151l5.5,10.9V73.8z M135.2,113c14.9,0,29.8,0,44.8,0
		c6.4,0,10.3-3.9,10.3-10.3c0-7.8,0-15.7,0-23.6c0-7.7,0-15.5,0-23.2c-0.1-6.7-3.9-10.5-10.6-10.5c-14.8,0-29.6,0-44.4,0
		c-6.6,0-10.5,3.9-10.5,10.4c0,15.6,0,31.2,0,46.8C124.8,109.2,128.7,113,135.2,113z M179.6,47.1c5.8,0,9,3.2,9.1,9
		c0,14.2,0,28.5,0,42.8c0,0.6,0.1,6.1-0.1,6.2c-2.3-2.4-4.8-3.6-7-6.3c-1.6-1.6-1.5-4.4-1.5-8.4c0-11-0.1-22.1-0.1-33.2
		c0-5.8-3.4-9.2-9.2-9.1c-8.5-0.1-16.9,0-25.4-0.1c-1.4,0-2.8-0.3-4.2-0.5C154.2,47.1,166.9,47.1,179.6,47.1z M137.3,56.8
		c0-4.1,2.6-6.9,6.6-7c9.4-0.1,18.6-0.1,28,0c4.1,0.1,6.7,2.9,6.7,7.1c0,11.7,0,23.5,0,35.2c0,4.3-2.7,7-7.1,7c-9,0-18,0-27,0
		c-4.4,0-7.1-2.6-7.1-7.2c0-5.8,0-11.6-0.1-17.3C137.3,68.7,137.3,62.7,137.3,56.8z M161.6,135.5h-5.4V129h-4.2v16.6h4.2V139h5.4
		v6.6h4.2V129h-4.2V135.5z M190.7,150.9c0-7.7,0-15.5,0-23.2c-0.1-6.7-3.9-10.5-10.6-10.5c-14.8,0-29.6,0-44.4,0
		c-6.6,0-10.5,3.9-10.5,10.4c0,15.6,0,31.2,0,46.8c0,6.5,4,10.3,10.4,10.3c14.9,0,29.8,0,44.8,0c6.4,0,10.3-3.9,10.3-10.3
		C190.7,166.7,190.7,158.9,190.7,150.9z M178.8,163.9c0,4.3-2.7,7-7.1,7c-9,0-18,0-27,0c-4.4,0-7.1-2.6-7.1-7.2
		c0-5.8,0-11.6-0.1-17.3c0-5.9,0-11.9,0-17.8c0-4.1,2.6-6.9,6.6-7c9.4-0.1,18.6-0.1,28,0c4.1,0.1,6.7,2.9,6.7,7.1
		C178.8,140.4,178.8,152.2,178.8,163.9z M189,176.8c-2.3-2.4-4.8-3.6-7-6.3c-1.6-1.6-1.5-4.4-1.5-8.4c0-11-0.1-22.1-0.1-33.2
		c0-5.8-3.4-9.2-9.2-9.1c-8.5-0.1-16.9,0-25.4-0.1c-1.4,0-2.8-0.3-4.2-0.5c12.9-0.5,25.5-0.5,38.3-0.5c5.8,0,9,3.2,9.1,9
		c0,14.2,0,28.5,0,42.8C189,171.1,189.2,176.7,189,176.8z M180.1,188.9c-14.8,0-29.6,0-44.4,0c-6.6,0-10.5,3.9-10.5,10.4
		c0,15.6,0,31.2,0,46.8c0,6.5,4,10.3,10.4,10.3c14.9,0,29.8,0,44.8,0c6.4,0,10.3-3.9,10.3-10.3c0-7.8,0-15.7,0-23.6
		c0-7.7,0-15.5,0-23.2C190.6,192.8,186.8,188.9,180.1,188.9z M178.8,235.6c0,4.3-2.7,7-7.1,7c-9,0-18,0-27,0c-4.4,0-7.1-2.6-7.1-7.2
		c0-5.8,0-11.6-0.1-17.3c0-5.9,0-11.9,0-17.8c0-4.1,2.6-6.9,6.6-7c9.4-0.1,18.6-0.1,28,0c4.1,0.1,6.7,2.9,6.7,7.1
		C178.8,212.1,178.8,223.9,178.8,235.6z M189,248.5c-2.3-2.4-4.8-3.6-7-6.3c-1.6-1.6-1.5-4.4-1.5-8.4c0-11-0.1-22.1-0.1-33.2
		c0-5.8-3.4-9.2-9.2-9.1c-8.5-0.1-16.9,0-25.4-0.1c-1.4,0-2.8-0.3-4.2-0.5c12.9-0.5,25.5-0.5,38.3-0.5c5.8,0,9,3.2,9.1,9
		c0,14.2,0,28.5,0,42.8C189,242.9,189.2,248.4,189,248.5z M161.9,209.6h-0.1l-5.4-8.9H152v16.6h4v-9.7h0.1l5.8,9.7h3.9v-16.6h-4
		V209.6z M418.9,113c14.9,0,29.8,0,44.8,0c6.4,0,10.3-3.9,10.3-10.3c0-7.8,0-15.7,0-23.6c0-7.7,0-15.5,0-23.2
		c-0.1-6.7-3.9-10.5-10.6-10.5c-14.8,0-29.6,0-44.4,0c-6.6,0-10.5,3.9-10.5,10.4c0,15.6,0,31.2,0,46.8
		C408.5,109.2,412.4,113,418.9,113z M463.3,47.1c5.8,0,9,3.2,9.1,9c0,14.2,0,28.5,0,42.8c0,0.6,0.1,6.1-0.1,6.2
		c-2.3-2.4-4.8-3.6-7-6.3c-1.6-1.6-1.5-4.4-1.5-8.4c0-11-0.1-22.1-0.1-33.2c0-5.8-3.4-9.2-9.2-9.1c-8.5-0.1-16.9,0-25.4-0.1
		c-1.4,0-2.8-0.3-4.2-0.5C437.9,47.1,450.6,47.1,463.3,47.1z M421,56.8c0-4.1,2.6-6.9,6.6-7c9.4-0.1,18.6-0.1,28,0
		c4.1,0.1,6.7,2.9,6.7,7.1c0,11.7,0,23.5,0,35.2c0,4.3-2.7,7-7.1,7c-9,0-18,0-27,0c-4.4,0-7.1-2.6-7.1-7.2c0-5.8,0-11.6-0.1-17.3
		C421,68.7,421,62.7,421,56.8z M440.5,68.4h3.7c1.1,0,2-0.1,2.7-0.4c0.7-0.3,1.2-0.7,1.5-1.2s0.6-1.1,0.7-1.8
		c0.1-0.7,0.2-1.4,0.2-2.3c0-0.9-0.1-1.7-0.2-2.4c-0.1-0.7-0.4-1.3-0.7-1.8c-0.4-0.5-0.9-0.8-1.5-1.1c-0.7-0.2-1.5-0.4-2.6-0.4h-8
		v16.6h4.2V68.4z M440.5,60.4h2.2c0.6,0,1,0,1.3,0.1c0.3,0.1,0.6,0.2,0.7,0.3c0.2,0.2,0.3,0.4,0.3,0.7c0,0.3,0.1,0.7,0.1,1.3
		c0,0.5,0,0.9-0.1,1.2c0,0.3-0.1,0.6-0.3,0.7c-0.2,0.2-0.4,0.3-0.7,0.3c-0.3,0.1-0.8,0.1-1.4,0.1h-2.1V60.4z M463.8,117.2
		c-14.8,0-29.6,0-44.4,0c-6.6,0-10.5,3.9-10.5,10.4c0,15.6,0,31.2,0,46.8c0,6.5,4,10.3,10.4,10.3c14.9,0,29.8,0,44.8,0
		c6.4,0,10.3-3.9,10.3-10.3c0-7.8,0-15.7,0-23.6c0-7.7,0-15.5,0-23.2C474.3,121,470.5,117.2,463.8,117.2z M462.5,163.9
		c0,4.3-2.7,7-7.1,7c-9,0-18,0-27,0c-4.4,0-7.1-2.6-7.1-7.2c0-5.8,0-11.6-0.1-17.3c0-5.9,0-11.9,0-17.8c0-4.1,2.6-6.9,6.6-7
		c9.4-0.1,18.6-0.1,28,0c4.1,0.1,6.7,2.9,6.7,7.1C462.5,140.4,462.5,152.2,462.5,163.9z M472.7,176.8c-2.3-2.4-4.8-3.6-7-6.3
		c-1.6-1.6-1.5-4.4-1.5-8.4c0-11-0.1-22.1-0.1-33.2c0-5.8-3.4-9.2-9.2-9.1c-8.5-0.1-16.9,0-25.4-0.1c-1.4,0-2.8-0.3-4.2-0.5
		c12.9-0.5,25.5-0.5,38.3-0.5c5.8,0,9,3.2,9.1,9c0,14.2,0,28.5,0,42.8C472.8,171.1,472.9,176.7,472.7,176.8z M447.3,145.6h1.5v0.4
		c0,0.4,0,0.8-0.1,1c-0.1,0.2-0.2,0.4-0.5,0.5c-0.2,0.1-0.6,0.1-1.1,0.1v1.5c0.9,0,1.7-0.1,2.3-0.2c0.6-0.1,1-0.4,1.3-0.7
		c0.3-0.3,0.5-0.8,0.6-1.4c0.1-0.6,0.1-1.3,0.1-2.2v-2.6h-4.1V145.6z M433.9,145.6h4.1v-3.5h-4.1V145.6z M447.3,136.8h4.1v-3.5h-4.1
		V136.8z M433.9,136.8h4.1v-3.5h-4.1V136.8z M430,217.7h2.7l5.7-15.8h-2.7L430,217.7z M446.5,217.3h3.8v-3.2h-3.8V217.3z
		 M452.6,202.8c-0.4-0.3-0.9-0.5-1.5-0.6c-0.6-0.1-1.3-0.2-2-0.2c-0.5,0-1,0-1.5,0c-0.5,0-1.1,0.1-1.6,0.1c-0.5,0.1-1,0.1-1.4,0.2
		v2.7c0.2,0,0.5-0.1,0.8-0.1c0.3,0,0.6,0,0.9-0.1c0.3,0,0.6,0,0.9-0.1c0.3,0,0.6,0,0.8,0c0.5,0,0.9,0,1.2,0.1c0.3,0,0.5,0.2,0.6,0.4
		c0.1,0.2,0.2,0.5,0.2,0.9c0,0.4,0,0.7-0.1,0.9c-0.1,0.2-0.2,0.3-0.3,0.4c-0.1,0.1-0.4,0.2-0.7,0.3l-0.7,0.2
		c-0.3,0.1-0.6,0.3-0.9,0.4c-0.2,0.2-0.4,0.4-0.5,0.8c-0.1,0.3-0.2,0.8-0.2,1.4v1.5h3.2v-0.7c0-0.3,0-0.5,0-0.7
		c0-0.2,0.1-0.3,0.1-0.4s0.2-0.2,0.3-0.2c0.1-0.1,0.3-0.1,0.6-0.2l0.7-0.3c0.3-0.1,0.6-0.2,0.8-0.4c0.3-0.2,0.5-0.4,0.7-0.6
		c0.2-0.3,0.3-0.6,0.4-1c0.1-0.4,0.2-0.9,0.2-1.5c0-0.8-0.1-1.5-0.3-2.1C453.3,203.6,453,203.1,452.6,202.8z M463.8,188.9
		c-14.8,0-29.6,0-44.4,0c-6.6,0-10.5,3.9-10.5,10.4c0,15.6,0,31.2,0,46.8c0,6.5,4,10.3,10.4,10.3c14.9,0,29.8,0,44.8,0
		c6.4,0,10.3-3.9,10.3-10.3c0-7.8,0-15.7,0-23.6c0-7.7,0-15.5,0-23.2C474.3,192.8,470.5,188.9,463.8,188.9z M462.5,235.6
		c0,4.3-2.7,7-7.1,7c-9,0-18,0-27,0c-4.4,0-7.1-2.6-7.1-7.2c0-5.8,0-11.6-0.1-17.3c0-5.9,0-11.9,0-17.8c0-4.1,2.6-6.9,6.6-7
		c9.4-0.1,18.6-0.1,28,0c4.1,0.1,6.7,2.9,6.7,7.1C462.5,212.1,462.5,223.9,462.5,235.6z M472.7,248.5c-2.3-2.4-4.8-3.6-7-6.3
		c-1.6-1.6-1.5-4.4-1.5-8.4c0-11-0.1-22.1-0.1-33.2c0-5.8-3.4-9.2-9.2-9.1c-8.5-0.1-16.9,0-25.4-0.1c-1.4,0-2.8-0.3-4.2-0.5
		c12.9-0.5,25.5-0.5,38.3-0.5c5.8,0,9,3.2,9.1,9c0,14.2,0,28.5,0,42.8C472.8,242.9,472.9,248.4,472.7,248.5z M223.3,47.3
		c0.2,0.6,0.6,1.1,1.1,1.4c0.5,0.3,1.1,0.6,2,0.7s1.8,0.2,3.1,0.2c1.3,0,2.3-0.1,3.1-0.2c0.8-0.2,1.5-0.4,2-0.7
		c0.5-0.3,0.9-0.8,1.1-1.4c0.2-0.6,0.4-1.3,0.5-2.2c0.1-0.9,0.1-1.9,0.1-3.1v-9.1h-4.2v10c0,0.8,0,1.4,0,1.9c0,0.5-0.1,0.8-0.3,1.1
		c-0.2,0.2-0.4,0.4-0.7,0.5c-0.3,0.1-0.8,0.1-1.4,0.1c-0.6,0-1,0-1.4-0.1c-0.3-0.1-0.6-0.2-0.7-0.5c-0.2-0.2-0.2-0.6-0.3-1.1
		s-0.1-1.1-0.1-1.9v-10h-4.2v9.1c0,1.2,0,2.3,0.1,3.1C222.9,45.9,223.1,46.7,223.3,47.3z M206,88.6c14.9,0,29.8,0,44.8,0
		c6.4,0,10.3-3.9,10.3-10.3c0-7.8,0-15.7,0-23.6c0-7.7,0-15.5,0-23.2C261,24.9,257.3,21,250.5,21c-14.8,0-29.6,0-44.4,0
		c-6.6,0-10.5,3.9-10.5,10.4c0,15.6,0,31.2,0,46.8C195.6,84.8,199.5,88.6,206,88.6z M250.4,22.7c5.8,0,9,3.2,9.1,9
		c0,14.2,0,28.5,0,42.8c0,0.6,0.1,6.1-0.1,6.2c-2.3-2.4-4.8-3.6-7-6.3c-1.6-1.6-1.5-4.4-1.5-8.4c0-11-0.1-22.1-0.1-33.2
		c0-5.8-3.4-9.2-9.2-9.1c-8.5-0.1-16.9,0-25.4-0.1c-1.4,0-2.8-0.3-4.2-0.5C225,22.7,237.6,22.7,250.4,22.7z M208,32.4
		c0-4.1,2.6-6.9,6.6-7c9.4-0.1,18.6-0.1,28,0c4.1,0.1,6.7,2.9,6.7,7.1c0,11.7,0,23.5,0,35.2c0,4.3-2.7,7-7.1,7c-9,0-18,0-27,0
		c-4.4,0-7.1-2.6-7.1-7.2c0-5.8,0-11.6-0.1-17.3C208,44.3,208,38.3,208,32.4z M228.8,114.8c0,0.8,0,1.4-0.1,1.8s-0.2,0.8-0.4,1
		c-0.2,0.2-0.5,0.3-1,0.4c-0.5,0.1-1.1,0.1-2,0.1v3c1.5,0,2.7,0,3.6-0.1s1.7-0.2,2.2-0.5c0.5-0.2,0.9-0.6,1.2-1.2
		c0.3-0.5,0.4-1.3,0.5-2.2c0.1-0.9,0.1-2.1,0.1-3.5v-9.1h-4.2V114.8z M261.5,126.5c0-7.7,0-15.5,0-23.2c-0.1-6.7-3.9-10.5-10.6-10.5
		c-14.8,0-29.6,0-44.4,0c-6.6,0-10.5,3.9-10.5,10.4c0,15.6,0,31.2,0,46.8c0,6.5,4,10.3,10.4,10.3c14.9,0,29.8,0,44.8,0
		c6.4,0,10.3-3.9,10.3-10.3C261.5,142.3,261.5,134.5,261.5,126.5z M249.6,139.5c0,4.3-2.7,7-7.1,7c-9,0-18,0-27,0
		c-4.4,0-7.1-2.6-7.1-7.2c0-5.8,0-11.6-0.1-17.3c0-5.9,0-11.9,0-17.8c0-4.1,2.6-6.9,6.6-7c9.4-0.1,18.6-0.1,28,0
		c4.1,0.1,6.7,2.9,6.7,7.1C249.6,116,249.6,127.8,249.6,139.5z M259.7,152.4c-2.3-2.4-4.8-3.6-7-6.3c-1.6-1.6-1.5-4.4-1.5-8.4
		c0-11-0.1-22.1-0.1-33.2c0-5.8-3.4-9.2-9.2-9.1c-8.5-0.1-16.9,0-25.4-0.1c-1.4,0-2.8-0.3-4.2-0.5c12.9-0.5,25.5-0.5,38.3-0.5
		c5.8,0,9,3.2,9.1,9c0,14.2,0,28.5,0,42.8C259.8,146.7,259.9,152.3,259.7,152.4z M250.8,164.5c-14.8,0-29.6,0-44.4,0
		c-6.6,0-10.5,3.9-10.5,10.4c0,15.6,0,31.2,0,46.8c0,6.5,4,10.3,10.4,10.3c14.9,0,29.8,0,44.8,0c6.4,0,10.3-3.9,10.3-10.3
		c0-7.8,0-15.7,0-23.6c0-7.7,0-15.5,0-23.2C261.4,168.4,257.6,164.5,250.8,164.5z M249.6,211.2c0,4.3-2.7,7-7.1,7c-9,0-18,0-27,0
		c-4.4,0-7.1-2.6-7.1-7.2c0-5.8,0-11.6-0.1-17.3c0-5.9,0-11.9,0-17.8c0-4.1,2.6-6.9,6.6-7c9.4-0.1,18.6-0.1,28,0
		c4.1,0.1,6.7,2.9,6.7,7.1C249.6,187.7,249.6,199.5,249.6,211.2z M259.7,224.1c-2.3-2.4-4.8-3.6-7-6.3c-1.6-1.6-1.5-4.4-1.5-8.4
		c0-11-0.1-22.1-0.1-33.2c0-5.8-3.4-9.2-9.2-9.1c-8.5-0.1-16.9,0-25.4-0.1c-1.4,0-2.8-0.3-4.2-0.5c12.9-0.5,25.5-0.5,38.3-0.5
		c5.8,0,9,3.2,9.1,9c0,14.2,0,28.5,0,42.8C259.8,218.5,259.9,224,259.7,224.1z M229.8,186.2h-0.2l-3.3-9.9h-5.7v16.6h4.1v-10.8h0.2
		l3.6,10.8h2.8l3.6-10.8h0.2v10.8h3.9v-16.6h-5.8L229.8,186.2z M348.6,88.6c14.9,0,29.8,0,44.8,0c6.4,0,10.3-3.9,10.3-10.3
		c0-7.8,0-15.7,0-23.6c0-7.7,0-15.5,0-23.2c-0.1-6.7-3.9-10.5-10.6-10.5c-14.8,0-29.6,0-44.4,0c-6.6,0-10.5,3.9-10.5,10.4
		c0,15.6,0,31.2,0,46.8C338.1,84.8,342.1,88.6,348.6,88.6z M393,22.7c5.8,0,9,3.2,9.1,9c0,14.2,0,28.5,0,42.8c0,0.6,0.1,6.1-0.1,6.2
		c-2.3-2.4-4.8-3.6-7-6.3c-1.6-1.6-1.5-4.4-1.5-8.4c0-11-0.1-22.1-0.1-33.2c0-5.8-3.4-9.2-9.2-9.1c-8.5-0.1-16.9,0-25.4-0.1
		c-1.4,0-2.8-0.3-4.2-0.5C367.5,22.7,380.2,22.7,393,22.7z M350.6,32.4c0-4.1,2.6-6.9,6.6-7c9.4-0.1,18.6-0.1,28,0
		c4.1,0.1,6.7,2.9,6.7,7.1c0,11.7,0,23.5,0,35.2c0,4.3-2.7,7-7.1,7c-9,0-18,0-27,0c-4.4,0-7.1-2.6-7.1-7.2c0-5.8,0-11.6-0.1-17.3
		C350.6,44.3,350.6,38.3,350.6,32.4z M365.3,47c0.2,0.7,0.6,1.2,1.1,1.6c0.5,0.4,1.2,0.7,2.1,0.8c0.9,0.2,2,0.2,3.4,0.2
		c1.4,0,2.5-0.1,3.4-0.2c0.9-0.2,1.6-0.4,2.1-0.8c0.5-0.4,0.9-0.9,1.1-1.6c0.2-0.7,0.4-1.5,0.4-2.4c0.1-1,0.1-2.1,0.1-3.4
		c0-1.3,0-2.5-0.1-3.4c-0.1-1-0.2-1.8-0.4-2.4c-0.2-0.7-0.6-1.2-1.1-1.6c-0.5-0.4-1.2-0.7-2.1-0.8c-0.9-0.2-2-0.2-3.4-0.2
		c-1.4,0-2.5,0.1-3.4,0.2c-0.9,0.2-1.6,0.4-2.1,0.8c-0.5,0.4-0.9,0.9-1.1,1.6c-0.2,0.7-0.4,1.5-0.4,2.4c-0.1,1-0.1,2.1-0.1,3.4
		c0,1.3,0,2.5,0.1,3.4C365,45.5,365.1,46.3,365.3,47z M369.1,38.6c0-0.7,0.1-1.2,0.2-1.5c0.1-0.4,0.2-0.7,0.5-0.8
		c0.2-0.2,0.5-0.3,0.9-0.3c0.4,0,0.8,0,1.4,0c0.6,0,1,0,1.4,0c0.4,0,0.6,0.1,0.9,0.3c0.2,0.2,0.4,0.4,0.5,0.8
		c0.1,0.4,0.2,0.9,0.2,1.5c0,0.7,0,1.5,0,2.5c0,1,0,1.9,0,2.5c0,0.7-0.1,1.2-0.2,1.5c-0.1,0.4-0.3,0.7-0.5,0.8
		c-0.2,0.2-0.5,0.3-0.9,0.3c-0.4,0-0.8,0-1.4,0c-0.6,0-1,0-1.4,0c-0.4,0-0.7-0.1-0.9-0.3c-0.2-0.2-0.4-0.4-0.5-0.8
		c-0.1-0.4-0.2-0.9-0.2-1.5c0-0.7,0-1.5,0-2.5C369,40.1,369,39.2,369.1,38.6z M393.4,92.8c-14.8,0-29.6,0-44.4,0
		c-6.6,0-10.5,3.9-10.5,10.4c0,15.6,0,31.2,0,46.8c0,6.5,4,10.3,10.4,10.3c14.9,0,29.8,0,44.8,0c6.4,0,10.3-3.9,10.3-10.3
		c0-7.8,0-15.7,0-23.6c0-7.7,0-15.5,0-23.2C404,96.6,400.2,92.8,393.4,92.8z M392.2,139.5c0,4.3-2.7,7-7.1,7c-9,0-18,0-27,0
		c-4.4,0-7.1-2.6-7.1-7.2c0-5.8,0-11.6-0.1-17.3c0-5.9,0-11.9,0-17.8c0-4.1,2.6-6.9,6.6-7c9.4-0.1,18.6-0.1,28,0
		c4.1,0.1,6.7,2.9,6.7,7.1C392.2,116,392.2,127.8,392.2,139.5z M402.3,152.4c-2.3-2.4-4.8-3.6-7-6.3c-1.6-1.6-1.5-4.4-1.5-8.4
		c0-11-0.1-22.1-0.1-33.2c0-5.8-3.4-9.2-9.2-9.1c-8.5-0.1-16.9,0-25.4-0.1c-1.4,0-2.8-0.3-4.2-0.5c12.9-0.5,25.5-0.5,38.3-0.5
		c5.8,0,9,3.2,9.1,9c0,14.2,0,28.5,0,42.8C402.4,146.7,402.5,152.3,402.3,152.4z M371.8,104.6h-4.2v16.6h10.7v-3.4h-6.5V104.6z
		 M393.4,164.5c-14.8,0-29.6,0-44.4,0c-6.6,0-10.5,3.9-10.5,10.4c0,15.6,0,31.2,0,46.8c0,6.5,4,10.3,10.4,10.3c14.9,0,29.8,0,44.8,0
		c6.4,0,10.3-3.9,10.3-10.3c0-7.8,0-15.7,0-23.6c0-7.7,0-15.5,0-23.2C404,168.4,400.2,164.5,393.4,164.5z M392.2,211.2
		c0,4.3-2.7,7-7.1,7c-9,0-18,0-27,0c-4.4,0-7.1-2.6-7.1-7.2c0-5.8,0-11.6-0.1-17.3c0-5.9,0-11.9,0-17.8c0-4.1,2.6-6.9,6.6-7
		c9.4-0.1,18.6-0.1,28,0c4.1,0.1,6.7,2.9,6.7,7.1C392.2,187.7,392.2,199.5,392.2,211.2z M402.3,224.1c-2.3-2.4-4.8-3.6-7-6.3
		c-1.6-1.6-1.5-4.4-1.5-8.4c0-11-0.1-22.1-0.1-33.2c0-5.8-3.4-9.2-9.2-9.1c-8.5-0.1-16.9,0-25.4-0.1c-1.4,0-2.8-0.3-4.2-0.5
		c12.9-0.5,25.5-0.5,38.3-0.5c5.8,0,9,3.2,9.1,9c0,14.2,0,28.5,0,42.8C402.4,218.5,402.5,224,402.3,224.1z M360.7,187.4h4.1v-3.5
		h-4.1V187.4z M374.1,184.6l6.3,2.2l-6.3,2.2v2.8l9.7-3.6v-2.8l-9.7-3.6V184.6z M277.3,69.3c14.9,0,29.8,0,44.8,0
		c6.4,0,10.3-3.9,10.3-10.3c0-7.8,0-15.7,0-23.6c0-7.7,0-15.5,0-23.2c-0.1-6.7-3.9-10.5-10.6-10.5c-14.8,0-29.6,0-44.4,0
		c-6.6,0-10.5,3.9-10.5,10.4c0,15.6,0,31.2,0,46.8C266.9,65.5,270.8,69.3,277.3,69.3z M321.7,3.4c5.8,0,9,3.2,9.1,9
		c0,14.2,0,28.5,0,42.8c0,0.6,0.1,6.1-0.1,6.2c-2.3-2.4-4.8-3.6-7-6.3c-1.6-1.6-1.5-4.4-1.5-8.4c0-11-0.1-22.1-0.1-33.2
		c0-5.8-3.4-9.2-9.2-9.1c-8.5-0.1-16.9,0-25.4-0.1c-1.4,0-2.8-0.3-4.2-0.5C296.3,3.4,308.9,3.4,321.7,3.4z M279.3,13.1
		c0-4.1,2.6-6.9,6.6-7c9.4-0.1,18.6-0.1,28,0c4.1,0.1,6.7,2.9,6.7,7.1c0,11.7,0,23.5,0,35.2c0,4.3-2.7,7-7.1,7c-9,0-18,0-27,0
		c-4.4,0-7.1-2.6-7.1-7.2c0-5.8,0-11.6-0.1-17.3C279.3,25,279.3,19,279.3,13.1z M302.8,13.5h-4.2v16.6h4.2V13.5z M309,85.3h-4.5
		l-4.5,6.6h-1.2v-6.6h-4.2v16.6h4.2V95h1.2l4.4,6.9h4.7l-5.7-8.7L309,85.3z M322.1,73.5c-14.8,0-29.6,0-44.4,0
		c-6.6,0-10.5,3.9-10.5,10.4c0,15.6,0,31.2,0,46.8c0,6.5,4,10.3,10.4,10.3c14.9,0,29.8,0,44.8,0c6.4,0,10.3-3.9,10.3-10.3
		c0-7.8,0-15.7,0-23.6c0-7.7,0-15.5,0-23.2C332.7,77.3,328.9,73.5,322.1,73.5z M320.9,120.2c0,4.3-2.7,7-7.1,7c-9,0-18,0-27,0
		c-4.4,0-7.1-2.6-7.1-7.2c0-5.8,0-11.6-0.1-17.3c0-5.9,0-11.9,0-17.8c0-4.1,2.6-6.9,6.6-7c9.4-0.1,18.6-0.1,28,0
		c4.1,0.1,6.7,2.9,6.7,7.1C320.9,96.7,320.9,108.5,320.9,120.2z M331,133.1c-2.3-2.4-4.8-3.6-7-6.3c-1.6-1.6-1.5-4.4-1.5-8.4
		c0-11-0.1-22.1-0.1-33.2c0-5.8-3.4-9.2-9.2-9.1c-8.5-0.1-16.9,0-25.4-0.1c-1.4,0-2.8-0.3-4.2-0.5c12.9-0.5,25.5-0.5,38.3-0.5
		c5.8,0,9,3.2,9.1,9c0,14.2,0,28.5,0,42.8C331.1,127.4,331.2,133,331,133.1z M322.1,145.2c-14.8,0-29.6,0-44.4,0
		c-6.6,0-10.5,3.9-10.5,10.4c0,15.6,0,31.2,0,46.8c0,6.5,4,10.3,10.4,10.3c14.9,0,29.8,0,44.8,0c6.4,0,10.3-3.9,10.3-10.3
		c0-7.8,0-15.7,0-23.6c0-7.7,0-15.5,0-23.2C332.7,149.1,328.9,145.2,322.1,145.2z M320.9,191.9c0,4.3-2.7,7-7.1,7c-9,0-18,0-27,0
		c-4.4,0-7.1-2.6-7.1-7.2c0-5.8,0-11.6-0.1-17.3c0-5.9,0-11.9,0-17.8c0-4.1,2.6-6.9,6.6-7c9.4-0.1,18.6-0.1,28,0
		c4.1,0.1,6.7,2.9,6.7,7.1C320.9,168.4,320.9,180.2,320.9,191.9z M331,204.8c-2.3-2.4-4.8-3.6-7-6.3c-1.6-1.6-1.5-4.4-1.5-8.4
		c0-11-0.1-22.1-0.1-33.2c0-5.8-3.4-9.2-9.2-9.1c-8.5-0.1-16.9,0-25.4-0.1c-1.4,0-2.8-0.3-4.2-0.5c12.9-0.5,25.5-0.5,38.3-0.5
		c5.8,0,9,3.2,9.1,9c0,14.2,0,28.5,0,42.8C331.1,199.2,331.2,204.7,331,204.8z M302.9,168.9l9.7,3.6v-2.8l-6.4-2.2l6.4-2.2v-2.8
		l-9.7,3.6V168.9z M289.4,168.1h1.5v0.4c0,0.4,0,0.8-0.1,1c-0.1,0.2-0.2,0.4-0.5,0.5c-0.2,0.1-0.6,0.1-1.1,0.1v1.5
		c0.9,0,1.7-0.1,2.3-0.2c0.6-0.1,1-0.4,1.3-0.7c0.3-0.3,0.5-0.8,0.6-1.4c0.1-0.6,0.1-1.3,0.1-2.2v-2.6h-4.1V168.1z M524.2,93h-2.8
		v13h2.8V93z M511.7,104.6c0.1,0.4,0.4,0.7,0.7,0.9c0.3,0.2,0.8,0.4,1.3,0.5c0.5,0.1,1.2,0.2,2.1,0.2c0.4,0,0.8,0,1.2,0
		c0.4,0,0.8-0.1,1.2-0.1c0.4,0,0.7-0.1,0.9-0.1v-2c-0.3,0-0.6,0-0.9,0.1c-0.3,0-0.6,0-0.9,0.1c-0.3,0-0.6,0-0.8,0
		c-0.5,0-1,0-1.3-0.1c-0.3,0-0.5-0.1-0.7-0.2s-0.2-0.3-0.3-0.5c0-0.2-0.1-0.6-0.1-1h5.4v-0.7c0-0.7,0-1.3-0.1-1.8
		c0-0.5-0.1-0.9-0.2-1.3c-0.1-0.4-0.3-0.7-0.6-0.9c-0.3-0.2-0.7-0.4-1.2-0.5c-0.5-0.1-1.1-0.2-1.9-0.2c-1,0-1.7,0.1-2.3,0.3
		c-0.6,0.2-1,0.5-1.3,0.8c-0.3,0.4-0.4,0.9-0.5,1.4c-0.1,0.6-0.1,1.3-0.1,2.1c0,0.7,0,1.3,0.1,1.8
		C511.4,103.8,511.5,104.3,511.7,104.6z M514.1,99.8c0-0.3,0.1-0.4,0.2-0.6c0.1-0.1,0.2-0.2,0.4-0.2c0.2,0,0.4-0.1,0.8-0.1
		c0.3,0,0.5,0,0.6,0.1c0.2,0,0.3,0.1,0.4,0.2c0.1,0.1,0.2,0.3,0.2,0.6c0,0.3,0.1,0.6,0.1,1h-2.7C514.1,100.4,514.1,100.1,514.1,99.8
		z M506.7,105.9c0.7-0.1,1.2-0.3,1.6-0.6c0.4-0.3,0.7-0.6,0.8-1.1c0.2-0.5,0.3-1,0.3-1.7c0-0.7,0.1-1.5,0.1-2.5c0-1,0-1.8-0.1-2.5
		c0-0.7-0.2-1.3-0.3-1.7c-0.2-0.5-0.5-0.8-0.8-1.1c-0.4-0.3-0.9-0.5-1.6-0.6c-0.7-0.1-1.5-0.2-2.6-0.2h-4.2V106h4.2
		C505.2,106,506,106,506.7,105.9z M502.9,103.7v-7.4h1.1c0.5,0,0.9,0,1.2,0c0.3,0,0.5,0.1,0.7,0.2c0.2,0.1,0.3,0.3,0.4,0.6
		c0.1,0.3,0.1,0.6,0.1,1.1c0,0.5,0,1.1,0,1.8c0,0.7,0,1.3,0,1.8s-0.1,0.8-0.1,1.1c-0.1,0.3-0.2,0.4-0.4,0.6
		c-0.2,0.1-0.4,0.2-0.7,0.2c-0.3,0-0.7,0-1.2,0H502.9z M489.7,147.4c14.9,0,29.8,0,44.8,0c6.4,0,10.3-3.9,10.3-10.3
		c0-7.8,0-15.7,0-23.6c0-7.7,0-15.5,0-23.2c-0.1-6.7-3.9-10.5-10.6-10.5c-14.8,0-29.6,0-44.4,0c-6.6,0-10.5,3.9-10.5,10.4
		c0,15.6,0,31.2,0,46.8C479.2,143.6,483.2,147.4,489.7,147.4z M534.1,81.5c5.8,0,9,3.2,9.1,9c0,14.2,0,28.5,0,42.8
		c0,0.6,0.1,6.1-0.1,6.2c-2.3-2.4-4.8-3.6-7-6.3c-1.6-1.6-1.5-4.4-1.5-8.4c0-11-0.1-22.1-0.1-33.2c0-5.8-3.4-9.2-9.2-9.1
		c-8.5-0.1-16.9,0-25.4-0.1c-1.4,0-2.8-0.3-4.2-0.5C508.6,81.5,521.3,81.5,534.1,81.5z M491.7,91.2c0-4.1,2.6-6.9,6.6-7
		c9.4-0.1,18.6-0.1,28,0c4.1,0.1,6.7,2.9,6.7,7.1c0,11.7,0,23.5,0,35.2c0,4.3-2.7,7-7.1,7c-9,0-18,0-27,0c-4.4,0-7.1-2.6-7.1-7.2
		c0-5.8,0-11.6-0.1-17.3C491.7,103.1,491.7,97.1,491.7,91.2z M534.5,151.6c-14.8,0-29.6,0-44.4,0c-6.6,0-10.5,3.9-10.5,10.4
		c0,15.6,0,31.2,0,46.8c0,6.5,4,10.3,10.4,10.3c14.9,0,29.8,0,44.8,0c6.4,0,10.3-3.9,10.3-10.3c0-7.8,0-15.7,0-23.6
		c0-7.7,0-15.5,0-23.2C545,155.4,541.3,151.6,534.5,151.6z M533.2,198.3c0,4.3-2.7,7-7.1,7c-9,0-18,0-27,0c-4.4,0-7.1-2.6-7.1-7.2
		c0-5.8,0-11.6-0.1-17.3c0-5.9,0-11.9,0-17.8c0-4.1,2.6-6.9,6.6-7c9.4-0.1,18.6-0.1,28,0c4.1,0.1,6.7,2.9,6.7,7.1
		C533.2,174.8,533.2,186.6,533.2,198.3z M543.4,211.2c-2.3-2.4-4.8-3.6-7-6.3c-1.6-1.6-1.5-4.4-1.5-8.4c0-11-0.1-22.1-0.1-33.2
		c0-5.8-3.4-9.2-9.2-9.1c-8.5-0.1-16.9,0-25.4-0.1c-1.4,0-2.8-0.3-4.2-0.5c12.9-0.5,25.5-0.5,38.3-0.5c5.8,0,9,3.2,9.1,9
		c0,14.2,0,28.5,0,42.8C543.5,205.5,543.6,211.1,543.4,211.2z M513.2,160.9l-0.2,0.1l-0.2-0.1v0.3l-8.2,7.2v5.9l5.9-5.2v11.9h4.9
		V169l5.9,5.2v-5.9l-8.2-7.2V160.9z M523.4,244.1l-7.2-8.2h-5.9l5.2,5.9h-11.9v4.9h11.9l-5.2,5.9h5.9l7.2-8.2h0.3l-0.1-0.2l0.1-0.2
		H523.4z M534.5,223.3c-14.8,0-29.6,0-44.4,0c-6.6,0-10.5,3.9-10.5,10.4c0,15.6,0,31.2,0,46.8c0,6.5,4,10.3,10.4,10.3
		c14.9,0,29.8,0,44.8,0c6.4,0,10.3-3.9,10.3-10.3c0-7.8,0-15.7,0-23.6c0-7.7,0-15.5,0-23.2C545,227.2,541.3,223.3,534.5,223.3z
		 M533.2,270c0,4.3-2.7,7-7.1,7c-9,0-18,0-27,0c-4.4,0-7.1-2.6-7.1-7.2c0-5.8,0-11.6-0.1-17.3c0-5.9,0-11.9,0-17.8
		c0-4.1,2.6-6.9,6.6-7c9.4-0.1,18.6-0.1,28,0c4.1,0.1,6.7,2.9,6.7,7.1C533.2,246.5,533.2,258.3,533.2,270z M543.4,282.9
		c-2.3-2.4-4.8-3.6-7-6.3c-1.6-1.6-1.5-4.4-1.5-8.4c0-11-0.1-22.1-0.1-33.2c0-5.8-3.4-9.2-9.2-9.1c-8.5-0.1-16.9,0-25.4-0.1
		c-1.4,0-2.8-0.3-4.2-0.5c12.9-0.5,25.5-0.5,38.3-0.5c5.8,0,9,3.2,9.1,9c0,14.2,0,28.5,0,42.8C543.5,277.3,543.6,282.9,543.4,282.9z
		 M226.7,265.5c-14.8,0-29.6,0-44.4,0c-6.6,0-10.5,3.9-10.5,10.4c0,15.6,0,31.2,0,46.8c0,6.5,4,10.3,10.4,10.3c14.9,0,29.8,0,44.8,0
		c6.4,0,10.3-3.9,10.3-10.3c0-7.8,0-15.7,0-23.6c0-7.7,0-15.5,0-23.2C237.3,269.3,233.5,265.5,226.7,265.5z M225.5,312.2
		c0,4.3-2.7,7-7.1,7c-9,0-18,0-27,0c-4.4,0-7.1-2.6-7.1-7.2c0-5.8,0-11.6-0.1-17.3c0-5.9,0-11.9,0-17.8c0-4.1,2.6-6.9,6.6-7
		c9.4-0.1,18.6-0.1,28,0c4.1,0.1,6.7,2.9,6.7,7.1C225.5,288.7,225.5,300.5,225.5,312.2z M235.6,325.1c-2.3-2.4-4.8-3.6-7-6.3
		c-1.6-1.6-1.5-4.4-1.5-8.4c0-11-0.1-22.1-0.1-33.2c0-5.8-3.4-9.2-9.2-9.1c-8.5-0.1-16.9,0-25.4-0.1c-1.4,0-2.8-0.3-4.2-0.5
		c12.9-0.5,25.5-0.5,38.3-0.5c5.8,0,9,3.2,9.1,9c0,14.2,0,28.5,0,42.8C235.7,319.4,235.8,325,235.6,325.1z M298.8,238.2
		c-14.8,0-29.6,0-44.4,0c-6.6,0-10.5,3.9-10.5,10.4c0,15.6,0,57.6,0,73.1c0,6.5,4,10.3,10.4,10.3c14.9,0,29.8,0,44.8,0
		c6.4,0,10.3-3.9,10.3-10.3c0-7.8,0-42,0-49.9c0-7.7,0-15.5,0-23.2C309.4,242.1,305.6,238.2,298.8,238.2z M297.6,311.2
		c0,4.3-2.7,7-7.1,7c-9,0-18,0-27,0c-4.4,0-7.1-2.6-7.1-7.2c0-5.8,0-37.9-0.1-43.6c0-5.9,0-11.9,0-17.8c0-4.1,2.6-6.9,6.6-7
		c9.4-0.1,18.6-0.1,28,0c4.1,0.1,6.7,2.9,6.7,7.1C297.6,261.4,297.6,299.5,297.6,311.2z M307.7,324.1c-2.3-2.4-4.8-3.6-7-6.3
		c-1.6-1.6-1.5-4.4-1.5-8.4c0-11-0.1-48.5-0.1-59.5c0-5.8-3.4-9.2-9.2-9.1c-8.5-0.1-16.9,0-25.4-0.1c-1.4,0-2.8-0.3-4.2-0.5
		c12.9-0.5,25.5-0.5,38.3-0.5c5.8,0,9,3.2,9.1,9c0,14.2,0,54.9,0,69.1C307.8,318.5,307.9,324,307.7,324.1z M137.3,281.3
		c-3.9-6.7-7.7-13.4-11.6-20.1c-3.4-5.7-8.6-7.2-14.5-3.8c-12.8,7.4-25.6,14.8-38.4,22.2c-5.7,3.3-7.2,8.6-3.9,14.3
		c7.8,13.5,28.8,49.9,36.6,63.3c3.2,5.6,8.6,7,14.2,3.7c12.9-7.4,25.8-14.9,38.8-22.4c5.5-3.2,6.9-8.5,3.8-14.1
		C158.4,317.8,141.3,288.2,137.3,281.3z M144,330.9c-7.8,4.5-15.6,9-23.4,13.5c-3.9,2.2-7.4,1.3-9.7-2.7c-2.9-5-19-32.8-21.9-37.7
		c-3-5.1-5.9-10.3-8.9-15.4c-2-3.5-1.2-7.3,2.2-9.3c8.1-4.8,16-9.4,24.2-14c3.6-1.9,7.2-0.8,9.3,2.8c5.9,10.1,24.9,43.1,30.8,53.3
		C148.8,325,147.8,328.7,144,330.9z M152.8,325.5c-2.2-0.6-3.5-3.1-5.5-6.5c-5.5-9.5-24.3-41.9-29.8-51.5c-2.9-5-7.5-6.3-12.5-3.3
		c-7.4,4.2-14.7,8.5-22.1,12.6c-1.2,0.7-2.6,1.2-3.8,1.7c10.9-6.9,21.9-13.2,32.9-19.6c5-2.9,9.4-1.7,12.4,3.2
		c7.1,12.3,27.4,47.5,34.5,59.8c0.3,0.5,3.2,5.3,3,5.4C158.7,326.5,155.9,326.6,152.8,325.5z M75.8,317.7
		c-3.9-6.7-7.7-13.4-11.6-20.1c-3.4-5.7-8.6-7.2-14.5-3.8c-12.8,7.4-25.6,14.8-38.4,22.2c-5.7,3.3-7.2,8.6-3.9,14.3
		c7.8,13.5,28.8,49.9,36.6,63.3c3.2,5.6,8.6,7,14.2,3.7C71.1,389.9,84,382.5,97,375c5.5-3.2,6.9-8.5,3.8-14.1
		C96.9,354.1,79.8,324.6,75.8,317.7z M82.6,367.2c-7.8,4.5-15.6,9-23.4,13.5c-3.9,2.2-7.4,1.3-9.7-2.7c-2.9-5-19-32.8-21.9-37.7
		c-3-5.1-5.9-10.3-8.9-15.4c-2-3.5-1.2-7.3,2.2-9.3c8.1-4.8,16-9.4,24.2-14c3.6-1.9,7.2-0.8,9.3,2.8c5.9,10.1,24.9,43.1,30.8,53.3
		C87.3,361.3,86.3,365,82.6,367.2z M91.3,361.8c-2.2-0.6-3.5-3.1-5.5-6.5c-5.5-9.5-24.3-41.9-29.8-51.5c-2.9-5-7.5-6.3-12.5-3.3
		c-7.4,4.2-14.7,8.5-22.1,12.6c-1.2,0.7-2.6,1.2-3.8,1.7c10.9-6.9,21.9-13.2,32.9-19.6c5-2.9,9.4-1.7,12.4,3.2
		c7.1,12.3,27.4,47.5,34.5,59.8c0.3,0.5,3.2,5.3,3,5.4C97.2,362.8,94.4,363,91.3,361.8z"/>
</g>
</svg>
