<?xml version="1.0" encoding="utf-8"?>
<!-- Generator: Adobe Illustrator 27.2.0, SVG Export Plug-In . SVG Version: 6.00 Build 0)  -->
<svg version="1.1" id="レイヤー_1" xmlns="http://www.w3.org/2000/svg" xmlns:xlink="http://www.w3.org/1999/xlink" x="0px"
	 y="0px" viewBox="0 0 490 350" style="enable-background:new 0 0 490 350;" xml:space="preserve">
<style type="text/css">
	.st0{clip-path:url(#SVGID_00000024002501382452338320000003223380053361181849_);}
</style>
<g>
	<g>
		<path id="SVGID_1_" d="M375,238.5c-10.8-2.7-17.1-17.1-21.6-20.7c-4.5-3.6-0.3-9.9-0.3-9.9c-3-5,0.2-10.3-6.7-10.3
			c-18.7-0.4-37.4-0.9-56-1.6c-0.7-1.9-1.2-3.5-1.8-5.1c-0.2,0.1-0.5,0.2-0.7,0.2c0.2,1.2,0.4,2.4,0.7,4.2
			c-27.4-0.9-53.8-7.9-81-10.5c-18.4,4.2-37.6,2.8-56.3,5.7c0.2-2,0.5-4.1,0.7-6.3c-0.3-0.1-0.6-0.1-0.9-0.2c-0.4,1.5-0.9,3-1.3,4.5
			c-0.7-3.9-2.6-9.8,3.2-10.3c7.2-0.7,14.4-2,21.5-2.9c7.9-1,15.8-1.9,23.6-2.9c8.8-1.1,17.6-3.2,26.4-0.1
			c15.7,4.2,31.9,6.5,47.9,9.3c7.9,1.2,15.7,3.1,24.1,1.8c13.5-1.4,26.9,1.1,40.6,2.7c0-3.1,0-5,0-6.9c2.1,5,7,4.1,11.5,4.8
			c0.6,0.1,1.7-0.3,1.7-0.5c0.3-4.5,3.3-2.1,5.2-2c2.6,0,5.2,0.4,7.9,0.6c0-0.3,0-0.7,0-1c-15.5-3.5-31.1-7-47.5-10.8
			c1.7-1,3.1-1.8,5.4-3.2c-5.3,1.4-8.7-2.3-13.8-1.2c-29.4,6.4-58.5-6.5-87-12.5c-1.8-0.4-3.5-2.1-5.1-1.9
			c-13.7,1.7-27.1,4-40.8,5.9c-0.3-1.6-0.4-2.7-0.6-4c-0.4,1.4-0.6,2.4-1.1,4.1c-0.6-1.5-0.9-2.3-1.4-3.4c-0.6,1.6-0.9,2.8-1.3,3.9
			c-0.2,0-0.4-0.1-0.7-0.1c-0.1-2.7-0.3-5.4-0.4-8.4c-1.2,3.3,1.4,7.6-3.7,10.3c0-3.9,0-7,0-10.1c-0.3,0-0.6,0-0.9,0
			c0,2.8,0,5.6,0,8.6c-3-2.2,1.6-7.9-4.8-9c4.2-0.9,8.4-1.9,12.6-2.8c8.6-1.4,17.3-2,26-3.1c5.7-0.7,11.5-2.8,17.1-2.2
			c11.1,1.4,22.1,4.6,33,7.1c8.1,2,17,2.7,24.2,6.5c18.1,8.8,35.3-2.9,55.4,5.3c3.6-6.2,9.9-2.9,14.9-4.3c0.3-3.6-1.6-7.7-5.5-6
			c1.1,0.7,2.1,1.5,3.1,2.2c-5.5-0.5-10.6-2-15.7-3.3c-4.3-1.1-8.9-1.6-9-8.5c-1.9,2.6-3,5.6-4.4,5.8c-7.9,1-15.2,5.3-23.9,1.5
			c-10.2-4.4-21.2-6.9-31.8-10.2c-6.2-2.1-12.6-3.7-18.7-6.1c6.6-1.5,11-7.7,16.6-11.5c0.6,0.8,1.9,2.6,1.9,2.6
			c4.4-2.8,4.1,1.8,5.3,3.5c3.9,4.1,9.3,20.8,16.2,14.8c-3.8-5.1-7.3-9.7-10.5-14.1c6.9-1.1,13.4-2.2,21.5-3.5
			c-3.1-5.9-6.9-7.3-13-8.1c2.6,1.4,5.2,2.8,7.8,4.1c-0.1,0.2-0.1,0.3-0.2,0.5c-5.8-1.6-9.9-3-16-5.2c1.7-0.6,2.6-0.9,3.4-1.2
			c-5.4-2.2-9.6-4.2-13.3-9.2c-4.7,5.6-12.6,12.2-16.2,18.8c-1.6,3.8-4.7,4.3-6.7,7.3c-3-1.3-6.1-4-8.9-3.7
			c-3.9,0.4-6.5-0.3-6.6-4.3c2.1,0.6,4.3,1.1,6.4,1.7c0.1-0.3,0.1-0.6,0.2-0.8c-4.8-1.7-9.5-3.3-14.7-5.1c-26,8.5-54.7,8.1-80.3,18
			c-7.5,4.4-15.6,1.6-22.8-1.8c0.3-0.3,0.6-0.6,0.9-1c-4.4-3.1-6.8-7.3-9-12.1c1.5-0.1,2.9-0.2,4.3-0.4c-5.9-0.5-4.6-5.9-5.8-9.5
			c-5.6,10.7-9.1,24.1-22.6,26.1c-1.6,0.1-3.1,1.5-4.6,2.3c1.9,6,7.2,3.3,10.5,5.2c9.5,5-1.5,14.8,14.2,11.8c4.4-0.8,9.2,0,13-2.8
			c-0.4-2.6-0.8-5.2-1.3-7.8c1.4-0.2,2.9-0.3,5-0.5c-0.7,3.7-0.9,7.1-0.9,10.1c-4.5,3.5-9.9,3.1-15.3,3.1
			c-6.4,0.3-12.9,0.4-19.2,1.1c-7.5,3.3-15.4,5.9-23.9,6c-1.7,7.6,6.9,4.4,11.4,6.6c6.9,3.9,0.9,9.4-3.2,12.4
			c0.9,0.2,1.7,0.4,2.5,0.5c1.3-1.1,2.6-2.3,4.7-4.1c-0.4,1.8-0.6,2.6-0.8,3.5c15.2-1.6,30.3-3.1,45.5-4.7c0.1,0.6,0.3,1.1,0.4,1.6
			c-15.4,5.4-32.3,3.5-48.4,5.3c-0.4,0-0.9-0.7-1.3-1.1c-5.2,1.8-10.4,3.5-17.1,5.8c6.1,2.8,13.9,6,9.5,13.2
			c-7.5,11.6-22.1,27.3-33.8,33.4c-3.4,1.9-68.7,2.4-68.7,2.4v110h470.3v-110C423.4,240.7,385.8,241.2,375,238.5z M314.9,170.9
			c-2.4,0.1-4.4,0.7-6,0.2c-8.8-3.9-13.8,9.3-22,2.8C298.9,167.1,310.2,165.7,314.9,170.9z M199.3,156.4c0,0.4,0.1,0.8,0.1,1.2
			c-11.3,1.5-22.6,2.9-33.9,4.4c0-0.3-0.1-0.7-0.1-1C176.7,159.4,188,157.9,199.3,156.4z M206.7,121.1c4.2-0.9,6,0.4,7.5,4.8
			c-7.3,1.7-14.2,3.2-21,4.8c-0.1-0.4-0.2-0.8-0.3-1.2c4.5-1.3,8.9-2.5,13.4-3.8c-0.1-0.5-0.2-1-0.4-1.6c-22.2,4-44.3,8-66.5,12
			c-0.1-0.4-0.2-0.8-0.3-1.2C161.5,129.8,184.2,126,206.7,121.1z M159.8,149.8c0,3.5,0,6.1,0,8.7c-0.2,0-0.4,0-0.6,0
			c-0.2-2-0.4-3.9-0.7-6.5c-0.8,4,0.8,8.7-4.5,8.6c-8.9,0.7-17.7,1.7-26.5,2.6c0-2.4,0-4.7,0-7.4
			C138.4,154.3,149.1,152.1,159.8,149.8z M127.2,163.5c-0.5,3.9,3.4,0.9,4.4,2.7c-4.7,0.5-9.3,1-13.9,1.5c-0.1-0.3-0.2-0.6-0.3-0.9
			C120.7,165.7,123.9,164.6,127.2,163.5z M130.1,181.3c0.2,1.1,0.4,2,0.7,3.3c2-5.4,5.7-6.3,9.2-3.1c3.8-1.5,5.5-1.3,4.6,3.2
			c-0.3-0.5-0.6-1-1.3-2.2c-0.6,3.4-1.2,6.3-1.7,9.5c-4.1-0.5-9.1,2.3-11.8-3.1c-2.1,3.3-5.2,1-8.8,0.4c-0.1,0.2-0.6,0.9-1.1,1.9
			c-0.3-1.2-0.5-2.1-0.8-3.1c-0.6,1.2-1.1,2.3-2.2,4.5c0.4-3.4,0.6-5.6,0.9-8.3c-2,0.4-3.5,0.7-5.1,1c-0.1-0.6-0.2-1.3-0.2-1.9
			C118.4,182.6,124.2,182,130.1,181.3z M128.1,109.8c0.2,2.3,0.3,4.8,0.5,7c6.9,0.7,12.5,4.1,18.9,4.5c5.2-0.2,10.4-2,15.6-3.2
			c0.9-0.2,2.4-1.1,2.4-1.3c-0.7-2.8,1.6-2.6,3-2.9c5.9-1.5,12.5-2.5,18.3-4.2c2.6,5.7,6.4,1.3,9.2,0.7c30-9.4,35.7,15.3,53.1-2.2
			c-4.7-2.2-9-4.4-13.3-6.2c-8.6-3.3-20.9-3.2-20.7-14.8c-2.1,1.2-4.1,3.1-6.7,2c0.6,1.1,1.3,2.1,2.1,3.6c-3.6,1.3-7.6,2.7-10.9,3.9
			c-2.1-7-9.1-8.7-12.1-12.8c4.7-0.4,9.6-0.1,14.1-1.3c5.6-1.5,10.9-2.9,16.1,1.3c0.8,10,7.4,4.8,14.1,6c20.4,7.3,17.8,10.7,40,2.9
			c0.3-4.9-1.5-6.6-8.9-7.5c1.7,1.3,2.9,2.2,4.1,3.1c-0.2,0.4-0.4,0.8-0.6,1.1c-6.7-3.2-13.6-7.3-20.3-10.2
			c-4.8,0.3-8.4-1.8-12.2-4.3c-3.3-2.3-7.5-3.2-11-5.3c-4.5-2.6-11.4-3.1-10.2-10.2c-22.5,8.8-45.9,14.5-69.5,20.3
			c0.4,1.7,1.1,4.4,1.5,5.9c6.9,2.4,12.7,4.4,18.2,6.3C155.4,106,141.7,108,128.1,109.8z M191.9,96.7c-10.2,2.9-20,5.7-31.2,8.9
			C172.3,92.7,175.6,83.4,191.9,96.7z M157.6,48.6c-3.7,9.5,11.9,5.3,12,13.7c14.1-4.4,28.1-8.8,42.2-12.9
			c9.5-1.7,27.8,11.9,37.9,15.7c1.7-6.2,6.9-4.9,11-6c0.4-1.2,0.7-2.3,1.1-3.6c-20.7-4-24.2-21.8-30.2-37.6
			c-4.6,4.2-4.8,12.1-11.7,14.6c-0.2,0.1-0.3,0.7-0.3,1.1c-5.3-9.4,0.8-10.4,7.1-14.7c3.9-3.8,5-7.9,0.5-11.7
			c-0.4,1.1-1.3,2.9-1.1,3c3.9,2.4,0.7,3.9-0.9,4.6c-9.9,4.7-19.8,8.8-30.5,11.4c0-3.3,0-5.5,0-7.7c-1.4,4.8-7.1,9.8-0.2,14.4
			c6.9-2.4,14-4.8,21.1-7.3c0.2,0.3,0.4,0.6,0.6,0.9c-1.8,2.2-3.6,4.4-5.4,6.6c-1.8-1.5-2.9-2.4-4.5-3.7c-0.1,2.2-0.2,3.8-0.3,5.7
			c-10.4,3.6-20.8,7.2-30.4,10.6c-1.2-1.6-2.2-2.9-3.3-4.4c-1.7,4.6-9.4,7-16.2,5.2C156.7,47.4,157.8,48.3,157.6,48.6z M225.2,32.5
			c7.6-5.1,11.7,7.1,13.8,12.7c-6.4-3.7-12.8-7.5-19.2-11.2C221.6,33.5,223.8,33.5,225.2,32.5z M282.3,141.7c3-4.2,6.1-8.4,8.6-11.9
			c7,3.5,12.4,6.9,18.2,11.6c-0.3,0.7-0.7,1.4-1,2.1c-8.3-1.6-14.7-9.9-22.2-2.2C285.1,142,283.9,142.2,282.3,141.7z M296,127.5
			c5,1.4,10,2.7,14.5,4C307.6,134.3,301.8,133,296,127.5z"/>
	</g>
	<g>
		<defs>
			<path id="SVGID_00000127045072322235486770000007255833752957586561_" d="M375,238.5c-10.8-2.7-17.1-17.1-21.6-20.7
				c-4.5-3.6-0.3-9.9-0.3-9.9c-3-5,0.2-10.3-6.7-10.3c-18.7-0.4-37.4-0.9-56-1.6c-0.7-1.9-1.2-3.5-1.8-5.1c-0.2,0.1-0.5,0.2-0.7,0.2
				c0.2,1.2,0.4,2.4,0.7,4.2c-27.4-0.9-53.8-7.9-81-10.5c-18.4,4.2-37.6,2.8-56.3,5.7c0.2-2,0.5-4.1,0.7-6.3
				c-0.3-0.1-0.6-0.1-0.9-0.2c-0.4,1.5-0.9,3-1.3,4.5c-0.7-3.9-2.6-9.8,3.2-10.3c7.2-0.7,14.4-2,21.5-2.9c7.9-1,15.8-1.9,23.6-2.9
				c8.8-1.1,17.6-3.2,26.4-0.1c15.7,4.2,31.9,6.5,47.9,9.3c7.9,1.2,15.7,3.1,24.1,1.8c13.5-1.4,26.9,1.1,40.6,2.7c0-3.1,0-5,0-6.9
				c2.1,5,7,4.1,11.5,4.8c0.6,0.1,1.7-0.3,1.7-0.5c0.3-4.5,3.3-2.1,5.2-2c2.6,0,5.2,0.4,7.9,0.6c0-0.3,0-0.7,0-1
				c-15.5-3.5-31.1-7-47.5-10.8c1.7-1,3.1-1.8,5.4-3.2c-5.3,1.4-8.7-2.3-13.8-1.2c-29.4,6.4-58.5-6.5-87-12.5
				c-1.8-0.4-3.5-2.1-5.1-1.9c-13.7,1.7-27.1,4-40.8,5.9c-0.3-1.6-0.4-2.7-0.6-4c-0.4,1.4-0.6,2.4-1.1,4.1c-0.6-1.5-0.9-2.3-1.4-3.4
				c-0.6,1.6-0.9,2.8-1.3,3.9c-0.2,0-0.4-0.1-0.7-0.1c-0.1-2.7-0.3-5.4-0.4-8.4c-1.2,3.3,1.4,7.6-3.7,10.3c0-3.9,0-7,0-10.1
				c-0.3,0-0.6,0-0.9,0c0,2.8,0,5.6,0,8.6c-3-2.2,1.6-7.9-4.8-9c4.2-0.9,8.4-1.9,12.6-2.8c8.6-1.4,17.3-2,26-3.1
				c5.7-0.7,11.5-2.8,17.1-2.2c11.1,1.4,22.1,4.6,33,7.1c8.1,2,17,2.7,24.2,6.5c18.1,8.8,35.3-2.9,55.4,5.3
				c3.6-6.2,9.9-2.9,14.9-4.3c0.3-3.6-1.6-7.7-5.5-6c1.1,0.7,2.1,1.5,3.1,2.2c-5.5-0.5-10.6-2-15.7-3.3c-4.3-1.1-8.9-1.6-9-8.5
				c-1.9,2.6-3,5.6-4.4,5.8c-7.9,1-15.2,5.3-23.9,1.5c-10.2-4.4-21.2-6.9-31.8-10.2c-6.2-2.1-12.6-3.7-18.7-6.1
				c6.6-1.5,11-7.7,16.6-11.5c0.6,0.8,1.9,2.6,1.9,2.6c4.4-2.8,4.1,1.8,5.3,3.5c3.9,4.1,9.3,20.8,16.2,14.8
				c-3.8-5.1-7.3-9.7-10.5-14.1c6.9-1.1,13.4-2.2,21.5-3.5c-3.1-5.9-6.9-7.3-13-8.1c2.6,1.4,5.2,2.8,7.8,4.1
				c-0.1,0.2-0.1,0.3-0.2,0.5c-5.8-1.6-9.9-3-16-5.2c1.7-0.6,2.6-0.9,3.4-1.2c-5.4-2.2-9.6-4.2-13.3-9.2
				c-4.7,5.6-12.6,12.2-16.2,18.8c-1.6,3.8-4.7,4.3-6.7,7.3c-3-1.3-6.1-4-8.9-3.7c-3.9,0.4-6.5-0.3-6.6-4.3c2.1,0.6,4.3,1.1,6.4,1.7
				c0.1-0.3,0.1-0.6,0.2-0.8c-4.8-1.7-9.5-3.3-14.7-5.1c-26,8.5-54.7,8.1-80.3,18c-7.5,4.4-15.6,1.6-22.8-1.8c0.3-0.3,0.6-0.6,0.9-1
				c-4.4-3.1-6.8-7.3-9-12.1c1.5-0.1,2.9-0.2,4.3-0.4c-5.9-0.5-4.6-5.9-5.8-9.5c-5.6,10.7-9.1,24.1-22.6,26.1
				c-1.6,0.1-3.1,1.5-4.6,2.3c1.9,6,7.2,3.3,10.5,5.2c9.5,5-1.5,14.8,14.2,11.8c4.4-0.8,9.2,0,13-2.8c-0.4-2.6-0.8-5.2-1.3-7.8
				c1.4-0.2,2.9-0.3,5-0.5c-0.7,3.7-0.9,7.1-0.9,10.1c-4.5,3.5-9.9,3.1-15.3,3.1c-6.4,0.3-12.9,0.4-19.2,1.1
				c-7.5,3.3-15.4,5.9-23.9,6c-1.7,7.6,6.9,4.4,11.4,6.6c6.9,3.9,0.9,9.4-3.2,12.4c0.9,0.2,1.7,0.4,2.5,0.5c1.3-1.1,2.6-2.3,4.7-4.1
				c-0.4,1.8-0.6,2.6-0.8,3.5c15.2-1.6,30.3-3.1,45.5-4.7c0.1,0.6,0.3,1.1,0.4,1.6c-15.4,5.4-32.3,3.5-48.4,5.3
				c-0.4,0-0.9-0.7-1.3-1.1c-5.2,1.8-10.4,3.5-17.1,5.8c6.1,2.8,13.9,6,9.5,13.2c-7.5,11.6-22.1,27.3-33.8,33.4
				c-3.4,1.9-68.7,2.4-68.7,2.4v110h544.4v-110C497.5,240.7,385.8,241.2,375,238.5z M314.9,170.9c-2.4,0.1-4.4,0.7-6,0.2
				c-8.8-3.9-13.8,9.3-22,2.8C298.9,167.1,310.2,165.7,314.9,170.9z M199.3,156.4c0,0.4,0.1,0.8,0.1,1.2
				c-11.3,1.5-22.6,2.9-33.9,4.4c0-0.3-0.1-0.7-0.1-1C176.7,159.4,188,157.9,199.3,156.4z M206.7,121.1c4.2-0.9,6,0.4,7.5,4.8
				c-7.3,1.7-14.2,3.2-21,4.8c-0.1-0.4-0.2-0.8-0.3-1.2c4.5-1.3,8.9-2.5,13.4-3.8c-0.1-0.5-0.2-1-0.4-1.6c-22.2,4-44.3,8-66.5,12
				c-0.1-0.4-0.2-0.8-0.3-1.2C161.5,129.8,184.2,126,206.7,121.1z M159.8,149.8c0,3.5,0,6.1,0,8.7c-0.2,0-0.4,0-0.6,0
				c-0.2-2-0.4-3.9-0.7-6.5c-0.8,4,0.8,8.7-4.5,8.6c-8.9,0.7-17.7,1.7-26.5,2.6c0-2.4,0-4.7,0-7.4
				C138.4,154.3,149.1,152.1,159.8,149.8z M127.2,163.5c-0.5,3.9,3.4,0.9,4.4,2.7c-4.7,0.5-9.3,1-13.9,1.5c-0.1-0.3-0.2-0.6-0.3-0.9
				C120.7,165.7,123.9,164.6,127.2,163.5z M130.1,181.3c0.2,1.1,0.4,2,0.7,3.3c2-5.4,5.7-6.3,9.2-3.1c3.8-1.5,5.5-1.3,4.6,3.2
				c-0.3-0.5-0.6-1-1.3-2.2c-0.6,3.4-1.2,6.3-1.7,9.5c-4.1-0.5-9.1,2.3-11.8-3.1c-2.1,3.3-5.2,1-8.8,0.4c-0.1,0.2-0.6,0.9-1.1,1.9
				c-0.3-1.2-0.5-2.1-0.8-3.1c-0.6,1.2-1.1,2.3-2.2,4.5c0.4-3.4,0.6-5.6,0.9-8.3c-2,0.4-3.5,0.7-5.1,1c-0.1-0.6-0.2-1.3-0.2-1.9
				C118.4,182.6,124.2,182,130.1,181.3z M128.1,109.8c0.2,2.3,0.3,4.8,0.5,7c6.9,0.7,12.5,4.1,18.9,4.5c5.2-0.2,10.4-2,15.6-3.2
				c0.9-0.2,2.4-1.1,2.4-1.3c-0.7-2.8,1.6-2.6,3-2.9c5.9-1.5,12.5-2.5,18.3-4.2c2.6,5.7,6.4,1.3,9.2,0.7c30-9.4,35.7,15.3,53.1-2.2
				c-4.7-2.2-9-4.4-13.3-6.2c-8.6-3.3-20.9-3.2-20.7-14.8c-2.1,1.2-4.1,3.1-6.7,2c0.6,1.1,1.3,2.1,2.1,3.6
				c-3.6,1.3-7.6,2.7-10.9,3.9c-2.1-7-9.1-8.7-12.1-12.8c4.7-0.4,9.6-0.1,14.1-1.3c5.6-1.5,10.9-2.9,16.1,1.3c0.8,10,7.4,4.8,14.1,6
				c20.4,7.3,17.8,10.7,40,2.9c0.3-4.9-1.5-6.6-8.9-7.5c1.7,1.3,2.9,2.2,4.1,3.1c-0.2,0.4-0.4,0.8-0.6,1.1
				c-6.7-3.2-13.6-7.3-20.3-10.2c-4.8,0.3-8.4-1.8-12.2-4.3c-3.3-2.3-7.5-3.2-11-5.3c-4.5-2.6-11.4-3.1-10.2-10.2
				c-22.5,8.8-45.9,14.5-69.5,20.3c0.4,1.7,1.1,4.4,1.5,5.9c6.9,2.4,12.7,4.4,18.2,6.3C155.4,106,141.7,108,128.1,109.8z
				 M191.9,96.7c-10.2,2.9-20,5.7-31.2,8.9C172.3,92.7,175.6,83.4,191.9,96.7z M157.6,48.6c-3.7,9.5,11.9,5.3,12,13.7
				c14.1-4.4,28.1-8.8,42.2-12.9c9.5-1.7,27.8,11.9,37.9,15.7c1.7-6.2,6.9-4.9,11-6c0.4-1.2,0.7-2.3,1.1-3.6
				c-20.7-4-24.2-21.8-30.2-37.6c-4.6,4.2-4.8,12.1-11.7,14.6c-0.2,0.1-0.3,0.7-0.3,1.1c-5.3-9.4,0.8-10.4,7.1-14.7
				c3.9-3.8,5-7.9,0.5-11.7c-0.4,1.1-1.3,2.9-1.1,3c3.9,2.4,0.7,3.9-0.9,4.6c-9.9,4.7-19.8,8.8-30.5,11.4c0-3.3,0-5.5,0-7.7
				c-1.4,4.8-7.1,9.8-0.2,14.4c6.9-2.4,14-4.8,21.1-7.3c0.2,0.3,0.4,0.6,0.6,0.9c-1.8,2.2-3.6,4.4-5.4,6.6c-1.8-1.5-2.9-2.4-4.5-3.7
				c-0.1,2.2-0.2,3.8-0.3,5.7c-10.4,3.6-20.8,7.2-30.4,10.6c-1.2-1.6-2.2-2.9-3.3-4.4c-1.7,4.6-9.4,7-16.2,5.2
				C156.7,47.4,157.8,48.3,157.6,48.6z M225.2,32.5c7.6-5.1,11.7,7.1,13.8,12.7c-6.4-3.7-12.8-7.5-19.2-11.2
				C221.6,33.5,223.8,33.5,225.2,32.5z M282.3,141.7c3-4.2,6.1-8.4,8.6-11.9c7,3.5,12.4,6.9,18.2,11.6c-0.3,0.7-0.7,1.4-1,2.1
				c-8.3-1.6-14.7-9.9-22.2-2.2C285.1,142,283.9,142.2,282.3,141.7z M296,127.5c5,1.4,10,2.7,14.5,4
				C307.6,134.3,301.8,133,296,127.5z"/>
		</defs>
		<clipPath id="SVGID_00000060734479463884483780000009269964899714240422_">
			<use xlink:href="#SVGID_00000127045072322235486770000007255833752957586561_"  style="overflow:visible;"/>
		</clipPath>
		
			<rect x="-51.6" y="-0.6" style="clip-path:url(#SVGID_00000060734479463884483780000009269964899714240422_);" width="546.5" height="515"/>
	</g>
</g>
</svg>
