<?xml version="1.0" encoding="utf-8"?>
<!-- Generator: Adobe Illustrator 27.2.0, SVG Export Plug-In . SVG Version: 6.00 Build 0)  -->
<svg version="1.1" id="レイヤー_1" xmlns="http://www.w3.org/2000/svg" xmlns:xlink="http://www.w3.org/1999/xlink" x="0px"
	 y="0px" viewBox="0 0 770 350" style="enable-background:new 0 0 770 350;" xml:space="preserve">
<g>
	<g>
		<path d="M753.1,239.7c-14.3-0.3-25.6-0.7-36.1,0.8c-22.9,3.3-13.3-2.8-20.3-2.8c-3.4,0-7.2,0.2-10.4,0.5c-1.1,0.1-1.6-0.6-2.7-0.6
			c-1.9,0-2.2,0.5-4.2,0.7c-1,0.1-1.8,0.9-2.7,0.5c-1-0.4,0.5-1.3,0.9-1.9c0.4-0.6,0.4-1.5-0.5-1.7c-0.4-0.1-1,0.2-1.3,0.9
			c-0.5,0.8-0.6,1.6-1.2,2.2c-0.6-0.8-1.1-1.5-1.3-2.4c-0.4-1.3-0.2-2.8-0.4-4.3c-0.5-3.3-0.7-6.7-1.6-9.8
			c-1.4-4.9-3.3-9.8-5.1-14.6c-0.5-1.4-0.3-2.6,0.4-3.8c1.4-2.3,2.5-4.6,3-7.2c0.8-4.4,1.8-8.8,2.7-13.3c0.1-0.4-0.3-1.2-0.7-1.5
			c-0.3-0.2-1-0.1-1.4,0.1c-1.5,0.8-1.7,2.3-2,3.8c-0.7,4-2.1,7.7-5.2,10.8c0-2.1,0-4.1,0-6.2c0-3,0.1-5.9-0.1-8.9
			c0-0.5-0.7-1.4-1.1-1.4c-0.6,0-1.4,0.5-1.6,1c-0.4,0.9-0.5,1.9-0.7,2.9c-0.3,1.9-0.4,3.8-0.8,5.6c-0.6,2.7-1.2,5.5-0.5,8.3
			c0.2,0.9,0.1,1.9,0,2.9c-0.4,3.5-1.3,6.9-3.6,9.7c-0.9,1.1-1.8,2.4-3.3,2.1c-2.3-0.4-4.6-1-6.9-1.7c-0.5-0.1-1.1-1-1.4-0.9
			c-1.8,0.5-3.6,1-5.2,1.8c-0.6,0.3-0.9,1.7-0.9,2.6c0,0.3,1.2,0.7,1.8,1c0.1,0.1,0.3,0.1,0.5,0.1c3.8,0.7,7.3,2.7,11.2,3.4
			c1.4,0.2,2.7,1.6,4,2.5c1.2,0.9,2.4,1.8,3.5,2.7c0.4,0.3,0.7,0.8,1.2,1.3c0.8-0.5,2.3,0.1,2.3,1.2c0,1.4-0.1,2.8-0.2,4.3
			c-0.1,0.9,0.1,1.8-1.2,2.3c-0.8,0.3-0.5,1.5,0.2,1.7c-0.2,1.5-0.4,3-0.6,4.6c-1.2-0.2-2.5-0.7-3.1-1.4c-0.6-0.7-2.4-1.4-2.9-0.2
			c-0.2,0.6-0.1,1.3,1.8,1.6c1.2,0.2,1,2-2,1.4c-1.4-0.3-2.1,1-3.9,0.5c-0.6-0.2-2.6-0.4-3.1-0.2c-1.5,0.6-2.5,1.1-3.1,1.1
			c-9.9,0.7-17.6-0.6-27.8,1.1c-1.5,0.2-1.7-0.4-3-0.6c-0.8-0.1-3.3,0.7-4.1,0.8c-7.8,0.6-9.8,0.4-14.9-0.2
			c-1.3-0.2-1.1-0.9-2.6-0.9c-1,0-2.1,0.5-2.7,0.7c-0.1,0-0.2,0-0.4,0c-1.1,0-0.9-1.1-0.4-1.6c1.1-1-0.3-1.7-1.5-0.7
			c-0.5,0.4-0.8,1.2-1.4,1.5c-0.4,0.3-1.2,0.3-1.6,0.1c-0.4-0.2-0.7-0.9-0.6-1.4c0.2-1.7,0.7-3.3,0.7-4.9c0.1-5,2.3-9.1,4.8-13.2
			c1.4-2.2,2.5-4.2,3.3-6.6c0.1-0.2,0.3,0.3,0.7,0.1c0.6-0.3,0.3-0.8,0.2-0.9c-0.2-0.7-0.2-1.4-0.1-1.7c0.5-1.2,1.1-2.2,1.9-3.3
			c1.7-2.4,3.3-4.8,4.9-7.3c0.8-1.2,0.6-2.2-0.5-3c-1.1-0.8-2.2-0.6-3.1,0.3c-1.2,1.2-2.2,2.6-3.3,4c-1,1.4-1.9,3-3,4.3
			c-1.1,1.3-2.1,0.1-3-0.4c-1-0.5-0.7-1.2-0.3-2.1c0.4-0.8,0.6-1.7,0.8-2.5c0-0.2-0.3-0.6-0.6-0.7c-0.2-0.1-0.6,0.1-0.8,0.3
			c-0.2,0.2-0.4,0.5-0.6,0.9c-0.5-1.3-1-2.4-1.3-3.5c-0.3-1.1-0.3-2.4-0.4-3.5c-0.1-0.6-0.3-1.3-0.3-1.9c0.2-1.9,0.6-3.9,0.9-5.8
			c0.1-0.7,0.4-1.4,0.3-2.1c-0.2-0.8-0.7-1.4-1.1-2.1c-0.5,0.4-1,0.8-1.6,1.3c-1.2-1-2.1-0.6-2.4,1.1c-0.3,1.5-0.4,3.1-0.9,4.6
			c-1.3,3.7-0.7,7.4-0.4,11.1c0.2,1.7,0.7,3.4,0.8,5.1c0.1,2.5,0,5-0.2,7.4c-0.1,1.9-0.2,3.9-0.9,5.6c-3,7-6.2,13.8-9.4,20.7
			c-0.1,0.2-0.3,0.3-0.6,0.4c-3.7-0.5-3.7-2.4-5.4-1.7c-1.7,0.7,0.4,1.7-0.4,2.3c-0.6,0.5-1.8,0.7-3.5,0.5
			c-8.7-1.2-16.7-1.3-21.8-1.9c-1.4-0.2-1.5-1.2-3.7-1.1c-3.4,0.2-4.6,0.6-7.9-0.3c-0.8-0.2-0.9-0.5-0.5-1c0.4-0.4,1-1.2,0.3-1.5
			c-0.5-0.3-1.2-0.3-1.5,0.6c-0.4,1.3-1.5,1.4-1.8,1.3c0,0-0.1,0-0.1,0c0-0.5,0-1-0.1-1.5c-0.4-3.6-0.1-7.4,0.1-11
			c0.1-2,0.8-4,1.1-6.1c0.5-3.1,1-6.1,2.7-8.8c0.5-0.7,0.9-1.6,1-2.4c0.1-1.1,0.2-2.4-0.4-3.3c-0.3-0.5-1.8-0.3-2.8-0.5
			c0,0.2-0.1,0.4-0.1,0.5c0.4,0.3,0.9,0.7,1.3,1c-0.9,2.7-2.2,4.2-3.9,4.2c0.1-0.8,0.3-1.5,0.3-2.2c0.1-2.4,0.9-4.9-0.2-7.3
			c-0.5-1.1-0.8-2.6-2.2-2.2c-1.6,0.4-0.6,1.9-0.4,2.9c0.4,2.3-0.5,4.3-1.4,6.3c-0.3-0.3-0.5-0.6-0.6-0.9c-0.9-3.1-1.7-6.2-2.6-9.2
			c-0.2-0.5-1.1-0.8-1.7-1.2c-0.3,0.7-0.8,1.3-0.9,2c-0.1,0.8,0.4,1.5,0.5,2.3c0.3,2.3,0.6,4.5,0.9,6.8c-0.2,0-0.4,0.1-0.6,0.1
			c-0.2-0.4-0.4-0.7-0.6-1.1c-1-2.1-1.8-4.2-2.9-6.2c-0.3-0.5-1.1-0.8-1.7-1.2c-0.2,0.7-0.6,1.3-0.7,2c0,0.7,0.3,1.3,0.5,2
			c0.7,3,1.7,5.9,1.8,8.9c0.3,4.5-3,6.3-6.9,4.1c-0.7-0.4-1.6-0.6-2.4-0.7c-1.2-0.1-1.5,0.9-0.9,1.6c1,1.2,2.2,2.2,3.4,3.1
			c0.1,0,0.2,0.3,0.2,0.8c0,0.8-0.3,2.2-0.5,2.8c-0.5,1.2,0.1,1.8,0.6,1.9c0.5,0,1-0.3,0.7-1.6c-0.1-0.6,0.1-1.7,0.4-2.2
			c0.2-0.4,0.4-0.5,0.5-0.4c0.9,0.5,1.7,1,2.5,1.6c3.5,2.5,4.8,5.9,3.9,10.1c-0.3,1.5-0.4,3-0.4,4.5c-2-0.1-3.2-0.9-3.6-1.9
			c-0.5-1.2-1.2-2.1-2.3-1.4c-1.4,0.9-0.2,2.1,0.7,2.5c0.7,0.3,0.5,1.1-0.7,1.3c-6.2,0.6-15.3-2-21.8-2.1c-9-0.1-16.8,1.9-26.7,2.2
			c-2.8,0.1-0.1-1.9-4.7-1.2c-2.3,0.3-5.8,1.3-8,1.6c-1.3,0.2-2.6-0.3-5.2-0.3c-1.1,0-0.3-0.4-1.6-0.6c-1-0.2-1.2,0.6-1.6,0.6
			c-1-0.1-1.6-0.3-2.1-0.6c-0.9-0.9,3-3.1,0.8-4.3c-2.1-1.1-1.9,4-3.9,4.5c0,0,0,0,0,0c-0.1-0.8-0.1-1.7-0.1-2.5c0-2.5,0-4.9,0-7.4
			c0-3.8,1.1-6.9,4.6-9c1.8-1.1,3.2-2.8,4.9-4c3.9-2.8,8.2-4.8,12.7-6.2c0.3-0.1,0.8,1.6,1,4.2c0.2,2.2-1,5.1,0.9,5.1
			c1.1,0,0.7-1.2,0.5-3.1c-0.4-3.8,0-6.9,0.6-7.5c0.4-0.4,0.7-0.6,1.1-1.1c0.2-0.3,0.3-0.4,0.6-0.5c0.2-0.1,0.3,0.8,0.3,2
			c0,0.7-0.3,1.7,0.6,1.7c1,0,0.5-1.4,0.4-2.3c-0.2-1.3,0.1-2.8,0.2-2.9c1.3-1.1,2.5-1.6,4-2.3c0.9-0.5,1.5-1.5,1.2-2.4
			c-0.6-1.9-2.7-2.8-5-2.3c-2.7,0.6-5.2,1.7-7.3,3.6c-0.2,0.2-0.5,0.3-0.8,0.4c-0.9,0.2-1.8,0.3-2.6,0.7c-4.8,1.9-8.6,0-11.4-3.2
			c-3.3-3.8-3.9-8.3-2.9-13c1.1-5.5,2.6-10.9,4-16.3c0.5-2.1,1.2-4.2,1.7-6.3c0.2-1,0-2.1-0.2-3.2c-0.1-0.7-2.1-1.9-2.5-1.6
			c-1,0.8-2.2,1.6-2.6,2.7c-2,5.1-3.7,10.2-5.5,15.3c-0.6,1.8-1.1,3.6-1.7,5.5c-0.3,1-0.9,1.7-2,1.6c-1.1-0.1-1-1.2-1.1-2
			c-0.2-1.7-0.2-3.5-0.3-5.2c-0.1-5.9,0.2-11.7,1.1-17.5c0.2-1.1,0.2-2.3-0.1-3.4c-0.4-1.3-2.3-2.2-3.5-1.8
			c-1.7,0.4-2.4,1.5-2.6,3.3c-0.3,2.7-0.6,5.3-1,8c-0.4,2.9-0.8,5.8-1,8.7c-0.2,1.9,0,3.8,0,5.6c0,1.7,0,3.4,0,5.1
			c-1.4,0.4-2-0.4-2.5-1.2c-1.1-1.8-2.2-3.6-3.3-5.4c-0.2-0.4-0.3-0.8-0.4-1.1c0.6,0,1.1,0,1.5,0c0-0.1,0-0.3,0-0.4
			c-0.6-0.1-1.1-0.3-1.8-0.4c0-0.1-0.1-0.4-0.1-0.5c0.4-0.3,0.7-0.5,1.2-0.9c-0.7-0.1-1.1-0.2-1.5-0.2c0.2-1.9-1.4-3.7-0.5-5.6
			c-1.1-1.8-0.4-3.7-0.5-5.7c-0.1-0.2-0.2-0.6-0.4-0.9c-0.6-0.7-1.1-1.8-1.8-2c-0.9-0.2-2.4,0.1-3,0.8c-0.7,0.7-0.9,2.1-0.9,3.2
			c0.1,3.4,0.2,6.9,0.6,10.3c0.2,1.8,0.7,3.7,1.3,5.4c1.1,3.3,2.3,6.6,3.4,9.8c0.4,1.1-0.1,1.7-1.2,1.3c-0.8-0.3-1.6-0.9-2.3-1.5
			c-1.4-1.2-2.7-2.4-3.9-3.7c-0.4-0.4-0.5-1-0.8-1.5c-0.3-0.5-0.9-1-1.1-1.6c-0.3-0.9-0.3-1.8-0.6-2.7c-0.1-0.6-0.4-1.2-0.7-1.6
			c-0.9-1.2-2.2-1.3-3.6-1.1c-1.4,3.8-0.9,6.8,0.7,9.5c1.5,2.7,3.4,5.2,5.4,7.5c2.5,2.9,4.2,6.2,5.2,9.9c0.7,2.8,1.7,5.5,2.5,8.3
			c0.9,3.3,2.8,6.2,3.4,9.7c0.3,1.8,0.6,3.7,0.5,5.5c0,2.2-1.2,2.6-1.2,3.1c0,0.9,0.5,1.3,1.1,1.1c-0.2,1.9-0.3,3.7-0.4,5.6
			c-0.9-0.6-1.4-1.7-1.4-2.4c0-1.1-0.7-1.7-1.5-1.4c-0.7,0.3-0.3,1.5,0.3,2.4c0.5,0.8,0.6,1.4,0.1,1.9c-0.1,0.1-0.6,0.3-1.8,0.4
			c-0.8,0-1.8-0.2-2.9-0.3c-1.6-0.2-1.5,0.6-2.7,0.7c-4.4,0.2-11.4,0-17.5,0.1c-4.2,0-7.5-0.7-11-0.4c-1.9,0.2-4.6,1.3-5.7,1.1
			c-1.6-0.2,0.9-1.2-0.2-1.8c-1.1-0.5-0.8,0.7-2.2,0.9c-0.2,0-0.3,0-0.4,0.1c3.4-3.9,8.5-10,10.8-14.3c0.5-0.9,0.8-1.4,1.2-2.4
			c0.1-0.3,0.3,0,0.5-0.2c0.4-0.2,0.2-0.6,0.2-0.8c-0.1-0.3,0-0.8,0.1-1.3c0.3-1.1,0.5-2.2,0.5-3.4c0-2.7-0.3-7.9-2.7-12.9
			c-2.1-4.3-4.8-7.4-4.8-7.4s0.5-0.4,0.6-0.9c-0.4-0.7-2.2-2.2-3.8-3.3c-0.8-0.6-4.3-1.9-4.3-1.9s-0.2-1.1-1.3-1.9
			c-1.1-0.8-0.7-0.6-1.8-1c-0.5-0.2-4.4-1.2-8.9-2.5c-0.2-1.8-0.6-2.3-3.1-3.6c-2.6-1.4-3.8-1.4-5.4-1.6c-1.6-0.2-1.9-0.1-1.9-0.1
			s-1.8-1-2.6-1.6c-0.8-0.6-3.8-0.8-4,0.2c-0.1,0.7-0.8,0.7-1.1,1.2l-0.1-0.3l-5.5-1.8c0,0-1.1,1.7-1.1,2.7c0,0-21.4-5.9-22.5-6.3
			c-0.7,0.7-1,1.2-1,1.2l-5.5-1.3l-3.9-0.3l3.4,1.7l5.8,1.3l0.2,1.1l22.6,5.9l-0.4,2.9c1.4,0.4,4.2,1.3,4.2,1.3
			c-1.6,1.2-2,2.6-1,4.8c1,2.2,2,2.2,1.2,4.2c-0.8,2-1,6.1-2.8,8.3c-1.8,2.2-2,5.1-1.8,7.5c0.2,2.4,0.8,4.8,0.6,7.4
			c-0.2,2.6,0,5.4-0.2,7.8c-0.1,1.2-0.8,5.6-1.5,9.9c-0.7-0.2-1.1-1.1-1.3-2c-0.1-0.6-0.8-1-1.3-0.9c-0.8,0.2-0.8,1.1-0.4,1.5
			c0.8,0.7,1.1,1.4,0.8,1.6c-1,0.7-2.2,0.6-3.7,0.4c-2-0.3-7.6-1.3-9.1-1.6c-9.7-1.5-11.7-1.3-16.6-1.3c-0.5,0,0-0.7-1-1.1
			c-0.8-0.2-1.4,0.3-1.8,0.4c-0.2-0.3-0.3-0.7-0.3-1.1c-0.2-4.2-1.6-8.1-3-12c-1.3-3.7-2.2-7.6-2.6-11.5c-0.4-3.4,0.2-6.9,0.3-10.4
			c0-0.4-0.3-1.1-0.5-1.1c-0.5,0-1.1,0.2-1.3,0.5c-0.3,0.4-0.5,1.1-0.6,1.7c-0.5,2.2-0.9,4.4-1.4,6.8c-1.7-1.2-3.1-2.3-4.5-3.2
			c-0.4-0.2-1,0-1.5,0c0.1,0.5,0,1.2,0.2,1.6c1,1.1,2.1,2.1,3.1,3.2c0.4,0.4,0.5,1,0.9,1.7c-2.5-0.8-4.6-1.5-6.8-2.2
			c-0.3-0.1-1,0.2-1.1,0.4c-0.1,0.4,0,1,0.3,1.3c0.3,0.3,0.8,0.4,1.2,0.6c2.5,0.9,4.9,2,5.5,3.7c-1.1,1-1.9,1.8-2.7,2.5
			c0.3,0.3,0.5,0.6,0.8,1c-1.4-0.2-2.8-0.4-4.2-0.5c-0.5,0-0.9,0.5-1.4,0.8c0.3,0.3,0.4,0.8,0.8,1c1.6,0.6,3.1,1.3,4.7,1.4
			c1.7,0.1,2.1,0.7,2.2,2.3c0.2,2.2,0.8,4.2,2.7,5.8c0.5,0.4,0.9,1.4,0.9,2.1c-0.2,1.3-0.4,2.5-0.6,3.7c-0.8-0.2-1-0.8-1.9-0.9
			c-0.2,0-1,0-0.6,0.7c0.3,0.7-0.4,0.7-0.9,0.7c-0.5,0-1.4-0.2-2-0.2c-0.7,0-1.4,0.4-2.1,0.4c-11.9,0.1-25.6,0.4-39.8,0.7
			c-0.1-0.4-0.3-0.8-0.5-1.2c-1.4-3.4-2.3-7-3.1-10.6c-0.5-2-0.4-4.1-0.7-6.1c-0.4-3.1-0.8-6.1,0-9.2c0.2-0.8,0.4-1.7,0.3-2.5
			c-0.2-1.1-0.5-2.4-1.3-3c-0.5-0.4-1.8,0.2-2.8,0.3c0,0.2,0,0.4,0.1,0.5c0.5,0.2,1,0.4,1.5,0.6c0,2.8-0.9,4.6-2.5,5.1
			c-0.1-0.8-0.2-1.5-0.3-2.2c-0.6-2.4-0.5-4.9-2.3-7c-0.8-0.9-1.5-2.3-2.8-1.5c-1.4,0.9,0,2,0.5,2.9c1,2.1,0.7,4.2,0.5,6.4
			c-0.4-0.2-0.7-0.4-0.8-0.7c-1.7-2.7-3.4-5.4-5.2-8.1c-0.3-0.5-1.3-0.5-2-0.7c-0.1,0.7-0.4,1.5-0.2,2.2c0.2,0.7,0.8,1.4,1.2,2.1
			c1,2.1,1.9,4.2,2.9,6.3c-0.2,0.1-0.3,0.2-0.5,0.3c-0.3-0.3-0.6-0.6-0.9-0.9c-1.5-1.7-3-3.5-4.6-5.1c-0.4-0.4-1.3-0.4-2-0.6
			c0,0.7-0.2,1.4-0.1,2.1c0.2,0.6,0.7,1.2,1,1.8c1.5,2.6,3.3,5.2,4.3,8c1.6,4.3-1.1,6.9-5.4,6c-0.8-0.2-1.7-0.1-2.5,0
			c-1.2,0.3-1.1,1.3-0.4,1.8c1.3,0.8,2.7,1.5,4.1,2c1.7,0.6,3.4,0.8,5.1,1.4c4.1,1.4,6.3,4.2,6.7,8.5c0,0.5,0.1,1,0.2,1.5
			c-10.9,0.2-21.9,0.5-32.6,0.7c-15.1,0.3-27.9-1-39.5-2.4c0.1-0.7,0.1-1.5,0.3-2.2c0.2-1.5,0.3-1.1,0.6-2.6c0.2-0.9,1.3-0.1,1.5-1
			c0.5-1.6-0.8-3.4-0.2-6.3c0.6-2.5,2.5-4.4,5.3-5.5c1.9-0.8,3.6-2.2,5.5-3.2c3-1.6,6.2-2.6,9.5-3.4c0.3-0.1,1.5,0.8,1,3.2
			c-0.3,1.4,1,2.2,1.3,2.1c0.4-0.1,1-0.1,1.3-1.6c0.3-1.5-2.1-3.7,0.5-4.4c1.6-0.4,3.4-0.5,4.6-1.7c1.8-1.8,4.2-2.4,6.4-3.2
			c0.9-0.3,1.7-1.3,1.5-2.2c-0.3-2-2.2-3.2-4.6-3c-2.8,0.2-5.4,0.9-7.8,2.3c-0.3,0.2-0.6,0.2-0.9,0.2c-0.9,0.1-1.8,0.1-2.7,0.2
			c-5.1,1.1-8.5-1.4-10.7-5c-2.7-4.3-2.5-8.9-0.8-13.3c2-5.2,4.4-10.3,6.6-15.4c0.9-2,1.9-3.9,2.7-6c0.4-1,0.4-2.1,0.4-3.2
			c0-0.7-1.8-2.2-2.2-1.9c-1.1,0.7-2.4,1.2-3,2.2c-2.8,4.7-5.3,9.5-7.9,14.2c-0.9,1.7-1.7,3.4-2.5,5.1c-0.5,1-1.2,1.5-2.2,1.3
			c-1.1-0.3-0.8-1.4-0.8-2.1c0.1-1.7,0.3-3.4,0.6-5.2c0.9-5.8,2.1-11.5,4-17.1c0.3-1.1,0.6-2.3,0.4-3.4c-0.1-1.3-1.9-2.5-3.2-2.4
			c-1.8,0.1-2.6,1.1-3.1,2.8c-0.7,2.6-1.5,5.2-2.3,7.8c-0.8,2.8-1.7,5.6-2.5,8.4c-0.5,1.8-0.6,3.7-0.9,5.6c-0.3,1.7-0.6,3.4-0.8,5
			c-1.4,0.2-1.9-0.7-2.3-1.6c-0.8-1.9-1.6-3.9-2.3-5.8c-0.2-0.4-0.2-0.8-0.2-1.2c0.6,0.1,1.1,0.2,1.5,0.3c0-0.1,0.1-0.2,0.1-0.4
			c-0.5-0.2-1-0.5-1.7-0.7c0-0.1,0-0.4,0-0.5c0.4-0.2,0.7-0.4,1.3-0.7c-0.7-0.2-1-0.3-1.5-0.5c0.6-1.9-0.7-3.8,0.5-5.6
			c-0.8-2,0.3-3.7,0.4-5.8c0-0.2-0.1-0.6-0.3-0.9c-0.4-0.8-0.8-2-1.5-2.2c-0.9-0.3-2.4-0.2-3.1,0.3c-0.8,0.6-1.2,1.9-1.4,3
			c-0.5,3.4-0.9,6.8-1.1,10.3c-0.1,1.8,0.1,3.7,0.4,5.6c0.5,3.4,1.2,6.8,1.8,10.2c0.2,1.1-0.3,1.6-1.3,1.1c-0.8-0.4-1.5-1.1-2.1-1.8
			c-1.1-1.4-2.2-2.8-3.3-4.3c-0.3-0.4-0.3-1.1-0.5-1.6c-0.2-0.6-0.7-1.1-0.8-1.7c-0.1-0.9,0-1.9-0.1-2.8c-0.1-0.6-0.2-1.2-0.4-1.7
			c-0.7-1.3-2-1.7-3.4-1.7c-2,3.5-1.9,6.5-0.9,9.5c1.1,2.9,2.5,5.7,4.1,8.3c2,3.3,3.2,6.8,3.5,10.6c0.3,2.9,0.8,5.7,1.1,8.6
			c0.4,3.4,1.8,6.6,1.8,10.2c0,3.3-0.3,6.6-1.2,9.7c-0.6,2.1-1.1,4.3-1.6,6.4c-7.9-0.7-15.6-1-23.4-0.2c-4.4,0.4-8.1,1.2-11.5,2.2
			c-0.3-1.3-0.6-2.5-0.9-3.8c-0.3-1-1.1-1.9-1.1-2.8c-0.2-4.2-1.6-8.1-3-12c-1.3-3.7-2.2-7.6-2.6-11.5c-0.4-3.4,0.2-6.9,0.3-10.4
			c0-0.4-0.3-1.1-0.5-1.1c-0.5,0-1.1,0.2-1.3,0.5c-0.3,0.4-0.5,1.1-0.6,1.7c-0.5,2.2-0.9,4.4-1.4,6.8c-1.7-1.2-3.1-2.3-4.5-3.2
			c-0.4-0.2-1,0-1.5,0c0.1,0.5,0,1.2,0.2,1.6c1,1.1,2.1,2.1,3.1,3.2c0.4,0.4,0.5,1,0.9,1.7c-2.5-0.8-4.6-1.5-6.8-2.2
			c-0.3-0.1-1,0.2-1.1,0.4c-0.1,0.4,0,1,0.3,1.3c0.3,0.3,0.8,0.4,1.2,0.6c2.5,0.9,4.9,2,5.5,3.7c-1.1,1-1.9,1.8-2.7,2.5
			c0.3,0.3,0.5,0.6,0.8,1c-1.4-0.2-2.8-0.4-4.2-0.5c-0.5,0-0.9,0.5-1.4,0.8c0.3,0.3,0.4,0.8,0.8,1c1.6,0.6,3.1,1.3,4.7,1.4
			c1.7,0.1,2.1,0.7,2.2,2.3c0.2,2.2,0.8,4.2,2.7,5.8c0.5,0.4,0.9,1.4,0.9,2.1c-0.6,4.2-1.3,8.5-2,12.7c-7.2,1.8-15.6,2.9-28.8,1.4
			c-16.4-1.8-51.4,0-51.4,0v110h773.9v-110C772.7,239.7,766.8,240,753.1,239.7z M397,188.6c-0.6-0.2-1.3-0.4-1.9-0.6
			c0.1-0.2,0.1-0.4,0.2-0.6c0.7,0.2,1.3,0.4,2,0.5C397.1,188.2,397.1,188.4,397,188.6z M122.8,180.9c-0.6-0.3-1.2-0.6-1.8-0.9
			c0.1-0.2,0.2-0.4,0.3-0.5c0.6,0.3,1.2,0.6,1.8,0.9C123,180.6,122.9,180.7,122.8,180.9z M140.7,213c-0.1,0.3-0.6,0.6-0.9,0.6
			c-0.9,0-1.9-1.1-1.7-1.8c0.1-0.3,0.4-0.4,0.6-0.6C139.9,211.5,140.9,212.3,140.7,213z M145.3,165.9c0.4,0.7,0.8,1.2,0.9,1.8
			c0,0.1-0.8,0.6-0.8,0.6c-0.5-0.4-0.9-1-1.3-1.5C144.4,166.6,144.7,166.4,145.3,165.9z M358.8,238.4c-1,0.6-0.3,1.3-0.7,1.4
			c-4.8,0.7-6.2,1.2-10.8,1.2c-0.6,0,0.4-0.7-0.9-0.9c-0.7-0.1-1.6,0.6-2.2,0.5c-0.4,0-1.2,0.1-1.7-0.4c-0.4-0.4,0-0.9,1.1-1.7
			c0.6-0.4,0.9-1.7,0-2c-1.7-0.7-2,0.5-2.4,1.6c-0.4,1.1-1.7,1.7-2.6,1.8c-1-5-2.2-11-2.7-12.4c-0.8-2.6-1.4-5.8-1-8.2
			c0.4-2.4-0.6-5.4,2.8-8.4c3.4-3,6.2-7.2,8.6-8.8c2.4-1.6,3.2-2.6,3.4-3.6c0.2-1-0.4-2-0.4-4.6c0-0.1,0-0.2,0-0.4
			c3.5,0.8,6.4,1.4,7.1,1.4l1.1-0.1l1.4-0.5c0,0,2.4,0.3,4.1,1.6c1.2,0.9,2.1,1.9,2.6,2.7c0.2-0.2,0.6-0.5,0.6-0.5s0,0,0.8,0.8
			s3.5,6.4,4.4,8s1.5,7.3,1.6,10.1c0.1,3-0.6,4.7-2.6,8.4c-1.9,3.5-6.9,9.7-10.2,13.6C359.7,238.7,359.3,238.1,358.8,238.4z
			 M416.8,170.2c0.5,0.6,0.9,1.1,1.2,1.6c0,0.1-0.7,0.8-0.7,0.7c-0.6-0.4-1-0.8-1.5-1.3C416,170.9,416.3,170.7,416.8,170.2z
			 M419,218.1c-0.9,0.1-2.1-0.8-2-1.5c0-0.3,0.4-0.5,0.5-0.6c1.4,0,2.4,0.7,2.3,1.4C419.8,217.6,419.3,218,419,218.1z M466.3,159.1
			l1.2-0.8l0.8,1.2l1.3-0.8l-0.8-1.2l1.2-0.8l-0.8-1.3l-1.2,0.8l-0.8-1.2l-1.3,0.8l0.8,1.2l-1.2,0.8L466.3,159.1z M469.5,154.2
			l1.4,2.2l0.3,0.5l-1,0.7l0.8,1.2l2.2-1.4l-1.1-1.7l-2.2-3.3l-2.2,1.4l0.8,1.2L469.5,154.2z M464.3,160.3l1.3,2l2.2-1.4l-0.8-1.2
			l-1,0.7l-0.4-0.7h0l-1.3-2l1-0.7l-0.8-1.2l-2.2,1.4L464.3,160.3L464.3,160.3z M457.6,156.8l0.5-0.3l6.6,10.2l-0.5,0.3l0.4,0.6
			c0.4,0.7,1.4,0.9,2,0.4l3-1.9l-0.3-0.5l1.9-1.2l0.3,0.5l1.6-1l-0.3-0.5l1.8-1.2l0.3,0.5l3-1.9c0.7-0.4,0.9-1.4,0.4-2l-0.4-0.6
			l-0.5,0.3l-6.6-10.2l0.5-0.3l-0.4-0.6c-0.4-0.7-1.4-0.9-2-0.4l-3,1.9l0.3,0.5l-1.7,1.1l-0.4-0.6l-1.6,1l0.4,0.5l-1.9,1.2l-0.3-0.5
			l-3,1.9c-0.7,0.4-0.9,1.4-0.4,2L457.6,156.8z M458.4,154.7l10.7-6.9c0.5-0.3,1.1-0.2,1.3,0.3l7,10.8c0.3,0.5,0.2,1.1-0.3,1.3
			l-10.7,6.9c-0.5,0.3-1.1,0.2-1.3-0.3l-7-10.8C457.8,155.6,457.9,155,458.4,154.7z M464.6,162.9l-0.1,0.3l-0.4,0.3l1.6,2.4l0.4-0.3
			l0.1-0.3l0.3-0.2l-1.6-2.4L464.6,162.9z M470.5,151.4l0.3,0l0.4-0.3l-1.6-2.4l-0.4,0.3l-0.3,0l-0.3,0.2l1.6,2.4L470.5,151.4z
			 M461,157.8l0.1-0.3l0.3-0.2l-1.6-2.4l-0.3,0.2l-0.1,0.3l-0.4,0.3l1.6,2.4L461,157.8z M466.5,163.7l0.6,0.9l7.5-4.9l-0.6-0.9
			L466.5,163.7z M475.6,159.3l0.3,0l0.4-0.3l-1.6-2.4l-0.4,0.3l-0.3,0l-0.3,0.2l1.6,2.4L475.6,159.3z M502.2,191.8L502.2,191.8
			l-0.2,0.6l-0.8-0.3l-0.4,0.9l1.7,0.7l0.5-1.3h0l1.1-2.5l-1.7-0.7l-0.4,0.9l0.8,0.3L502.2,191.8z M501.6,195.4l0.3-0.7l-5.7-2.4
			l-0.3,0.7L501.6,195.4z M493.8,194l2.3,1l0.1-0.3l1.4,0.6l-0.2,0.4l1.2,0.5l0.2-0.4l1.4,0.6l-0.1,0.3l2.3,1c0.5,0.2,1.1,0,1.3-0.5
			l0.2-0.4l-0.4-0.2l3.3-7.7l0.3,0.1l0.2-0.4c0.2-0.5,0-1.1-0.5-1.3l-2.3-1l-0.2,0.4L503,186l0.2-0.4l-1.2-0.5l-0.2,0.4l-1.4-0.6
			l0.2-0.4l-2.3-1c-0.5-0.2-1.1,0-1.3,0.5l-0.2,0.4l0.4,0.2l-3.3,7.7l-0.4-0.2l-0.2,0.4C493.1,193.2,493.3,193.8,493.8,194z
			 M493.8,192.7l3.5-8.2c0.1-0.3,0.5-0.5,0.9-0.4l8.1,3.4c0.3,0.1,0.5,0.5,0.4,0.9l-3.5,8.2c-0.1,0.3-0.5,0.5-0.9,0.4l-8.1-3.4
			C493.9,193.5,493.7,193.1,493.8,192.7z M497.7,186.8l0.3,0.1l0.8-1.8l-0.2-0.1l-0.2,0l-0.3-0.1l-0.8,1.8l0.3,0.1L497.7,186.8z
			 M498.8,191l-0.8-0.3l0.2-0.6l0.6-1.4l0.8,0.3l0.4-0.9l-1.7-0.7l-1,2.4l-0.6,1.4l1.7,0.7L498.8,191z M495.1,192.7l0.3,0.1l0.8-1.8
			l-0.2-0.1l-0.2,0l-0.3-0.1l-0.8,1.8l0.3,0.1L495.1,192.7z M503.1,193.9l-0.2-0.1l-0.8,1.8l0.3,0.1l0.1,0.2l0.3,0.1l0.8-1.8
			l-0.3-0.1L503.1,193.9z M504.9,190l0.3,0.1l0.8-1.8l-0.3-0.1l-0.1-0.2l-0.2-0.1l-0.8,1.8l0.3,0.1L504.9,190z M498.8,190.4l0.9,0.4
			l-0.4,0.9l1,0.4l0.4-0.9l0.9,0.4l0.4-1l-0.9-0.4l0.4-0.9l-1-0.4l-0.4,0.9l-0.9-0.4L498.8,190.4z M539,173.6l0.5,0.8l0.2,0.3
			l-0.4,0.3l0.3,0.5l0.9-0.6l-0.5-0.8l-0.8-1.3l-0.9,0.6l0.3,0.5L539,173.6z M539.4,172.5l0.1,0l0.2-0.1l-0.7-1l-0.2,0.1l-0.1,0
			l-0.1,0.1l0.7,1L539.4,172.5z M537.6,175.7l0.5-0.3l0.3,0.5l0.5-0.3l-0.3-0.5l0.5-0.3l-0.3-0.5l-0.5,0.3L538,174l-0.5,0.3l0.3,0.5
			l-0.5,0.3L537.6,175.7z M541.5,175.7l0.1,0l0.2-0.1l-0.7-1l-0.2,0.1l-0.1,0l-0.1,0.1l0.7,1L541.5,175.7z M537.7,177.6l0.3,0.4
			l3.1-2l-0.3-0.4L537.7,177.6z M534,174.7l0.2-0.1l2.7,4.2l-0.2,0.1l0.2,0.2c0.2,0.3,0.6,0.4,0.8,0.2l1.2-0.8l-0.1-0.2l0.8-0.5
			l0.1,0.2l0.7-0.4l-0.1-0.2l0.7-0.5l0.1,0.2l1.2-0.8c0.3-0.2,0.4-0.6,0.2-0.8l-0.2-0.2l-0.2,0.1l-2.7-4.2l0.2-0.1l-0.2-0.2
			c-0.2-0.3-0.6-0.4-0.8-0.2l-1.2,0.8l0.1,0.2l-0.7,0.5l-0.1-0.2l-0.7,0.4l0.1,0.2l-0.8,0.5l-0.1-0.2l-1.2,0.8
			c-0.3,0.2-0.4,0.6-0.2,0.8L534,174.7z M534.3,173.8l4.4-2.9c0.2-0.1,0.4-0.1,0.6,0.1l2.9,4.5c0.1,0.2,0.1,0.4-0.1,0.6l-4.4,2.9
			c-0.2,0.1-0.4,0.1-0.6-0.1l-2.9-4.5C534.1,174.2,534.2,174,534.3,173.8z M535.4,175.1l0-0.1l0.1-0.1l-0.7-1l-0.1,0.1l-0.1,0.1
			l-0.2,0.1l0.7,1L535.4,175.1z M537.3,177l0.9-0.6l-0.3-0.5l-0.4,0.3l-0.2-0.3l-0.5-0.8l0.4-0.3l-0.3-0.5l-0.9,0.6l0.8,1.3
			L537.3,177z M536.9,177.3l-0.1,0.1l-0.2,0.1l0.7,1l0.2-0.1l0-0.1l0.1-0.1l-0.7-1L536.9,177.3z M601.3,172.9l0.3-0.7l-5.2-2.2
			l-0.3,0.7L601.3,172.9z M598.7,168.9l-0.7-0.3l0.2-0.5l0.6-1.3l0.7,0.3l0.3-0.8l-1.5-0.6l-0.9,2.2l-0.5,1.3l1.5,0.6L598.7,168.9z
			 M595.4,170.4l0.2,0.1l0.7-1.7l-0.2-0.1l-0.2,0l-0.3-0.1l-0.7,1.7l0.3,0.1L595.4,170.4z M594.2,171.6l2,0.9l0.1-0.3l1.3,0.6
			l-0.1,0.3l1.1,0.5l0.1-0.3l1.2,0.5l-0.1,0.3l2,0.9c0.5,0.2,1,0,1.2-0.5l0.2-0.4l-0.4-0.2l3-7l0.3,0.1l0.2-0.4c0.2-0.5,0-1-0.5-1.2
			l-2-0.9l-0.2,0.4l-1.2-0.5l0.2-0.4l-1.1-0.5l-0.2,0.4l-1.3-0.6l0.2-0.4l-2-0.9c-0.5-0.2-1,0-1.2,0.5l-0.2,0.4l0.3,0.1l-3,7
			l-0.3-0.1l-0.2,0.4C593.5,170.8,593.8,171.4,594.2,171.6z M594.3,170.4l3.2-7.5c0.1-0.3,0.5-0.5,0.8-0.3l7.4,3.1
			c0.3,0.1,0.5,0.5,0.3,0.8l-3.2,7.5c-0.1,0.3-0.5,0.5-0.8,0.3l-7.4-3.1C594.3,171.1,594.1,170.7,594.3,170.4z M601.8,169.7
			l-0.2,0.4l-0.7-0.3l-0.3,0.8l1.5,0.6l0.6-1.3l0.9-2.1l-1.5-0.6l-0.3,0.8l0.7,0.3L601.8,169.7z M602.6,171.5l-0.2-0.1l-0.7,1.7
			l0.2,0.1l0.1,0.1l0.3,0.1l0.7-1.7l-0.3-0.1L602.6,171.5z M597.7,165l0.2,0.1l0.7-1.7l-0.2-0.1l-0.2,0l-0.3-0.1l-0.7,1.7l0.3,0.1
			L597.7,165z M604.3,167.9l0.3,0.1l0.7-1.7l-0.3-0.1l-0.1-0.2l-0.2-0.1l-0.7,1.7l0.2,0.1L604.3,167.9z M598.8,168.3l0.8,0.3
			l-0.3,0.8l0.9,0.4l0.3-0.8l0.8,0.3l0.4-0.9l-0.8-0.3l0.3-0.8l-0.9-0.4l-0.3,0.8l-0.8-0.3L598.8,168.3z M313,144.3l0.6,0.3
			l-0.3,0.6l0.7,0.3l0.3-0.6l0.6,0.3l0.3-0.7l-0.6-0.3l0.3-0.6l-0.7-0.3l-0.3,0.6l-0.6-0.3L313,144.3z M312.2,141.8l0.2,0.1l0.5-1.3
			l-0.2-0.1l-0.1,0l-0.2-0.1l-0.5,1.3l0.2,0.1L312.2,141.8z M315.3,145.4l-0.1,0.3l-0.5-0.2l-0.3,0.6l1.2,0.5l0.4-1l0.7-1.6
			l-1.2-0.5l-0.3,0.6l0.5,0.2L315.3,145.4z M316,146.8l-0.2-0.1l-0.5,1.3l0.2,0.1l0.1,0.1l0.2,0.1l0.5-1.3l-0.2-0.1L316,146.8z
			 M317.3,144l0.2,0.1l0.5-1.3l-0.2-0.1l-0.1-0.1l-0.2-0.1l-0.5,1.3l0.2,0.1L317.3,144z M309.5,146.9l1.6,0.7l0.1-0.2l1,0.4
			l-0.1,0.2l0.9,0.4l0.1-0.2l0.9,0.4l-0.1,0.2l1.6,0.7c0.4,0.2,0.8,0,0.9-0.4l0.1-0.3l-0.3-0.1l2.3-5.4l0.2,0.1l0.1-0.3
			c0.2-0.4,0-0.8-0.4-0.9l-1.6-0.7l-0.1,0.3l-0.9-0.4l0.1-0.3l-0.9-0.4l-0.1,0.3l-1-0.4l0.1-0.3l-1.6-0.7c-0.4-0.2-0.8,0-0.9,0.4
			l-0.1,0.3l0.2,0.1l-2.3,5.4l-0.2-0.1l-0.1,0.3C309,146.3,309.1,146.7,309.5,146.9z M309.5,146l2.4-5.8c0.1-0.2,0.4-0.4,0.6-0.3
			l5.7,2.4c0.2,0.1,0.4,0.4,0.3,0.6l-2.4,5.8c-0.1,0.2-0.4,0.4-0.6,0.3l-5.7-2.4C309.5,146.5,309.4,146.2,309.5,146z M313,144.8
			l-0.5-0.2l0.2-0.4l0.4-1l0.5,0.2l0.3-0.6l-1.2-0.5l-0.7,1.6h0l-0.4,1l1.2,0.5L313,144.8z M310.4,146l0.2,0.1l0.5-1.3l-0.2-0.1
			l-0.1,0l-0.2-0.1l-0.5,1.3l0.2,0.1L310.4,146z M315,147.9l0.2-0.5l-4-1.7l-0.2,0.5L315,147.9z M637.5,172.1l0.4,0l0.2-2.9l-0.4,0
			l-0.3,0.1l-0.5,0l-0.2,2.9l0.5,0L637.5,172.1z M649,173l0.5,0l0.2-2.9l-0.5,0l-0.3-0.2l-0.4,0l-0.2,2.9l0.4,0L649,173z
			 M638.1,162.8l0.4,0l0.2-2.9l-0.4,0l-0.3,0.1l-0.5,0l-0.2,2.9l0.5,0L638.1,162.8z M646.7,167.7l0,0.6l-1.2-0.1l-0.1,1.4l2.6,0.2
			l0.2-2.3l0.2-3.7l-2.6-0.2l-0.1,1.4l1.2,0.1L646.7,167.7z M649.6,163.7l0.5,0l0.2-2.9l-0.5,0l-0.3-0.2l-0.4,0l-0.2,2.9l0.4,0
			L649.6,163.7z M647.6,172.7l0.1-1.1l-8.9-0.6l-0.1,1.1L647.6,172.7z M641.6,168l-1.2-0.1l0.1-0.8l0.2-2.4l1.2,0.1l0.1-1.4
			l-2.6-0.2l-0.2,3.7l-0.2,2.3l2.6,0.2L641.6,168z M641.4,167.1l1.4,0.1l-0.1,1.4l1.5,0.1l0.1-1.4l1.4,0.1l0.1-1.5l-1.4-0.1l0.1-1.4
			l-1.5-0.1l-0.1,1.4l-1.4-0.1L641.4,167.1z M636.3,174.4l3.5,0.2l0-0.5l2.2,0.2l0,0.6l1.9,0.1l0-0.6l2.1,0.1l0,0.5l3.5,0.2
			c0.8,0.1,1.5-0.6,1.6-1.4l0-0.7l-0.6,0l0.8-12.1l0.5,0l0-0.7c0.1-0.8-0.6-1.5-1.4-1.6l-3.5-0.2l0,0.6l-2-0.1l0-0.7l-1.9-0.1l0,0.7
			l-2.2-0.2l0-0.6l-3.5-0.2c-0.8-0.1-1.5,0.6-1.6,1.4l0,0.7l0.6,0l-0.8,12.1l-0.6,0l0,0.7C634.9,173.7,635.5,174.4,636.3,174.4z
			 M636.6,159.8c0-0.5,0.5-0.9,1-0.9l12.7,0.9c0.5,0,0.9,0.5,0.9,1l-0.9,12.9c0,0.5-0.5,0.9-1,0.9l-12.7-0.9c-0.5,0-0.9-0.5-0.9-1
			L636.6,159.8z M183.1,153.8l0.1-0.3l0.3-0.2l-1.6-2.4l-0.3,0.2l-0.1,0.3l-0.4,0.3l1.6,2.4L183.1,153.8z M186.5,156.3l1.2,1.8
			l2.2-1.4l-0.8-1.2l-1,0.7l-0.4-0.7l-1.3-2l1-0.7l-0.8-1.2l-2.2,1.4L186.5,156.3L186.5,156.3z M179.7,152.7l0.5-0.3l6.6,10.2
			l-0.5,0.3l0.4,0.6c0.4,0.7,1.4,0.9,2,0.4l3-1.9l-0.3-0.5l1.9-1.2l0.3,0.5l1.6-1l-0.3-0.5l1.8-1.2l0.3,0.5l3-1.9
			c0.7-0.4,0.9-1.4,0.4-2l-0.4-0.6l-0.5,0.3l-6.6-10.2l0.5-0.3l-0.4-0.6c-0.4-0.7-1.4-0.9-2-0.4l-3,1.9l0.3,0.5l-1.7,1.1l-0.4-0.5
			l-1.6,1l0.4,0.5l-1.9,1.2l-0.3-0.5l-3,1.9c-0.7,0.4-0.9,1.4-0.4,2L179.7,152.7z M180.5,150.7l10.7-6.9c0.5-0.3,1.1-0.2,1.3,0.3
			l7,10.8c0.3,0.5,0.2,1.1-0.3,1.3l-10.7,6.9c-0.5,0.3-1.1,0.2-1.3-0.3l-7-10.8C179.9,151.6,180,151,180.5,150.7z M192.6,147.4
			l0.3,0l0.4-0.3l-1.6-2.4l-0.4,0.3l-0.3,0l-0.3,0.2l1.6,2.4L192.6,147.4z M188.4,155l1.2-0.8l0.8,1.2l1.3-0.8l-0.8-1.2l1.2-0.8
			l-0.8-1.3l-1.2,0.8l-0.8-1.2l-1.3,0.8l0.8,1.2l-1.2,0.8L188.4,155z M188.6,159.7l0.6,0.9l7.5-4.9l-0.6-0.9L188.6,159.7z
			 M186.7,158.9l-0.1,0.3l-0.4,0.3l1.6,2.4l0.4-0.3l0.1-0.3l0.3-0.2l-1.6-2.4L186.7,158.9z M197.7,155.2l0.3,0l0.4-0.3l-1.6-2.4
			l-0.4,0.3l-0.3,0l-0.3,0.2l1.6,2.4L197.7,155.2z M191.6,150.2l1.4,2.2l0.3,0.5l-1,0.7l0.8,1.2l2.2-1.4l-1.3-2l-2-3.1l-2.2,1.4
			l0.8,1.2L191.6,150.2z M215.9,190l2.3,1l0.1-0.3l1.4,0.6l-0.2,0.4l1.2,0.5l0.2-0.4l1.4,0.6l-0.1,0.3l2.3,1c0.5,0.2,1.1,0,1.3-0.5
			l0.2-0.4l-0.4-0.2l3.3-7.7l0.3,0.1l0.2-0.4c0.2-0.5,0-1.1-0.5-1.3l-2.3-1l-0.2,0.4l-1.3-0.6l0.2-0.4l-1.2-0.5l-0.2,0.4l-1.4-0.6
			l0.2-0.4l-2.3-1c-0.5-0.2-1.1,0-1.3,0.5l-0.2,0.4l0.4,0.2l-3.3,7.7l-0.4-0.2l-0.2,0.4C215.2,189.2,215.4,189.8,215.9,190z
			 M216,188.7l3.5-8.2c0.1-0.3,0.5-0.5,0.9-0.4l8.1,3.4c0.3,0.1,0.5,0.5,0.4,0.9l-3.5,8.2c-0.1,0.3-0.5,0.5-0.9,0.4l-8.1-3.4
			C216,189.4,215.8,189,216,188.7z M224.2,187.9l-0.2,0.4l-0.8-0.3l-0.4,0.9l1.7,0.7l0.6-1.5h0l1-2.3l-1.7-0.7l-0.4,0.9l0.8,0.3
			L224.2,187.9z M227.1,186l0.3,0.1l0.8-1.8l-0.3-0.1l-0.1-0.2l-0.2-0.1l-0.8,1.8l0.3,0.1L227.1,186z M220.9,186.3l0.9,0.4l-0.4,0.9
			l1,0.4l0.4-0.9l0.9,0.4l0.4-1l-0.9-0.4l0.4-0.9l-1-0.4l-0.4,0.9l-0.9-0.4L220.9,186.3z M225.2,189.9l-0.2-0.1l-0.8,1.8l0.3,0.1
			l0.1,0.2l0.3,0.1l0.8-1.8l-0.3-0.1L225.2,189.9z M217.2,188.7l0.3,0.1l0.8-1.8l-0.2-0.1l-0.2,0l-0.3-0.1l-0.8,1.8l0.3,0.1
			L217.2,188.7z M223.7,191.4l0.3-0.7l-5.7-2.4L218,189L223.7,191.4z M220.9,187l-0.8-0.3l0.2-0.5h0l0.7-1.5l0.8,0.3l0.4-0.9
			l-1.7-0.7l-1,2.3h0l-0.6,1.5l1.7,0.7L220.9,187z M219.8,182.8l0.3,0.1l0.8-1.8l-0.2-0.1l-0.2,0l-0.3-0.1l-0.8,1.8l0.3,0.1
			L219.8,182.8z M263.6,171.7l0.1,0l0.2-0.1l-0.7-1l-0.2,0.1l-0.1,0l-0.1,0.1l0.7,1L263.6,171.7z M261.1,169.6l0.5,0.8l0.2,0.3
			l-0.4,0.3l0.3,0.5l0.9-0.6l-0.5-0.7l-0.9-1.4l-0.9,0.6l0.3,0.5L261.1,169.6z M259.4,172.9l0.9-0.6l-0.3-0.5l-0.4,0.3l-0.2-0.3
			l-0.5-0.8l0.4-0.3l-0.3-0.5l-0.9,0.6l0.9,1.3L259.4,172.9z M259.7,171.6l0.5-0.3l0.3,0.5l0.5-0.3l-0.3-0.5l0.5-0.3l-0.3-0.5
			l-0.5,0.3l-0.3-0.5l-0.5,0.3l0.3,0.5l-0.5,0.3L259.7,171.6z M256.1,170.7l0.2-0.1l2.7,4.2l-0.2,0.1l0.2,0.2
			c0.2,0.3,0.6,0.4,0.8,0.2l1.2-0.8l-0.1-0.2l0.8-0.5l0.1,0.2l0.7-0.4l-0.1-0.2l0.7-0.5l0.1,0.2l1.2-0.8c0.3-0.2,0.4-0.6,0.2-0.8
			l-0.2-0.2l-0.2,0.1l-2.7-4.2l0.2-0.1l-0.2-0.2c-0.2-0.3-0.6-0.4-0.8-0.2l-1.2,0.8l0.1,0.2l-0.7,0.5l-0.1-0.2l-0.7,0.4l0.1,0.2
			l-0.8,0.5l-0.1-0.2l-1.2,0.8c-0.3,0.2-0.4,0.6-0.2,0.8L256.1,170.7z M256.5,169.8l4.4-2.9c0.2-0.1,0.4-0.1,0.6,0.1l2.9,4.5
			c0.1,0.2,0.1,0.4-0.1,0.6l-4.4,2.9c-0.2,0.1-0.4,0.1-0.6-0.1l-2.9-4.5C256.2,170.2,256.3,169.9,256.5,169.8z M257.5,171.1l0-0.1
			l0.1-0.1l-0.7-1l-0.1,0.1l-0.1,0.1l-0.2,0.1l0.7,1L257.5,171.1z M259.8,173.6l0.3,0.4l3.1-2l-0.3-0.4L259.8,173.6z M261.5,168.5
			l0.1,0l0.2-0.1l-0.7-1l-0.2,0.1l-0.1,0l-0.1,0.1l0.7,1L261.5,168.5z M259,173.2l-0.1,0.1l-0.2,0.1l0.7,1l0.2-0.1l0-0.1l0.1-0.1
			l-0.7-1L259,173.2z M284.9,129.4l0.2,0.1l0.7-1.7l-0.2-0.1l-0.2,0l-0.3-0.1l-0.7,1.7l0.3,0.1L284.9,129.4z M288.5,137.2l0.3-0.7
			l-5.2-2.2l-0.3,0.7L288.5,137.2z M282.6,134.8l0.2,0.1l0.7-1.7l-0.2-0.1l-0.2,0l-0.3-0.1l-0.7,1.7l0.3,0.1L282.6,134.8z
			 M281.4,136l2,0.9l0.1-0.3l1.3,0.6l-0.1,0.3l1.1,0.5l0.1-0.3l1.2,0.5l-0.1,0.3l2,0.9c0.5,0.2,1,0,1.2-0.5l0.2-0.4l-0.4-0.2l3-7
			l0.3,0.1l0.2-0.4c0.2-0.5,0-1-0.5-1.2l-2-0.9l-0.2,0.4l-1.2-0.5l0.2-0.4l-1.1-0.5l-0.2,0.4l-1.3-0.6l0.2-0.4l-2-0.9
			c-0.5-0.2-1,0-1.2,0.5l-0.2,0.4l0.3,0.1l-3,7l-0.3-0.1l-0.2,0.4C280.7,135.2,280.9,135.8,281.4,136z M281.4,134.8l3.2-7.5
			c0.1-0.3,0.5-0.5,0.8-0.3l7.4,3.1c0.3,0.1,0.5,0.5,0.3,0.8l-3.2,7.5c-0.1,0.3-0.5,0.5-0.8,0.3l-7.4-3.1
			C281.5,135.5,281.3,135.1,281.4,134.8z M285.9,132.7l0.8,0.3l-0.3,0.8l0.9,0.4l0.3-0.8l0.8,0.3l0.4-0.9l-0.8-0.3l0.3-0.8l-0.9-0.4
			l-0.3,0.8l-0.8-0.3L285.9,132.7z M285.9,133.2l-0.7-0.3l0.2-0.5l0-0.1l0,0l0.6-1.3l0.7,0.3l0.3-0.8l-1.5-0.6l-0.9,2.1l-0.6,1.3
			l1.5,0.6L285.9,133.2z M289.8,135.9l-0.2-0.1l-0.7,1.7l0.2,0.1l0.1,0.1l0.3,0.1l0.7-1.7l-0.3-0.1L289.8,135.9z M291.5,132.3
			l0.3,0.1l0.7-1.7l-0.3-0.1l-0.1-0.2l-0.2-0.1l-0.7,1.7l0.2,0.1L291.5,132.3z M288.9,134.1l-0.2,0.4l-0.7-0.3l-0.3,0.8l1.5,0.6
			l0.5-1.2l1-2.3l-1.5-0.6l-0.3,0.8l0.7,0.3L288.9,134.1z M85.6,181.3l0.2-0.5l-4-1.7l-0.2,0.5L85.6,181.3z M86.7,180.2l-0.2-0.1
			l-0.5,1.3l0.2,0.1l0.1,0.1l0.2,0.1l0.5-1.3l-0.2-0.1L86.7,180.2z M80.2,180.3l1.6,0.7l0.1-0.2l1,0.4l-0.1,0.2l0.9,0.4l0.1-0.2
			l0.9,0.4l-0.1,0.2l1.6,0.7c0.4,0.2,0.8,0,0.9-0.4l0.1-0.3L87,182l2.3-5.4l0.2,0.1l0.1-0.3c0.2-0.4,0-0.8-0.4-0.9l-1.6-0.7
			l-0.1,0.3l-0.9-0.4l0.1-0.3l-0.9-0.4l-0.1,0.3l-1-0.4l0.1-0.3l-1.6-0.7c-0.4-0.2-0.8,0-0.9,0.4l-0.1,0.3l0.2,0.1l-2.3,5.4
			l-0.2-0.1l-0.1,0.3C79.7,179.7,79.8,180.1,80.2,180.3z M80.2,179.4l2.4-5.8c0.1-0.2,0.4-0.4,0.6-0.3l5.7,2.4
			c0.2,0.1,0.4,0.4,0.3,0.6l-2.4,5.8c-0.1,0.2-0.4,0.4-0.6,0.3l-5.7-2.4C80.2,179.9,80.1,179.6,80.2,179.4z M83.7,178.2l-0.5-0.2
			l0.2-0.4l0.4-1l0.5,0.2l0.3-0.6l-1.2-0.5l-0.7,1.6h0l-0.4,1l1.2,0.5L83.7,178.2z M81.1,179.4l0.2,0.1l0.5-1.3l-0.2-0.1l-0.1,0
			l-0.2-0.1l-0.5,1.3l0.2,0.1L81.1,179.4z M88,177.4l0.2,0.1l0.5-1.3l-0.2-0.1l-0.1-0.1l-0.2-0.1l-0.5,1.3l0.2,0.1L88,177.4z
			 M86,178.8l-0.1,0.3l-0.5-0.2l-0.3,0.6l1.2,0.5l0.4-0.9l0-0.1l0,0l0.7-1.6l-1.2-0.5l-0.3,0.6l0.5,0.2L86,178.8z M83.7,177.7
			l0.6,0.3l-0.3,0.6l0.7,0.3l0.3-0.6l0.6,0.3l0.3-0.7l-0.6-0.3l0.3-0.6l-0.7-0.3l-0.3,0.6L84,177L83.7,177.7z M82.9,175.2l0.2,0.1
			l0.5-1.3l-0.2-0.1l-0.1,0l-0.2-0.1l-0.5,1.3l0.2,0.1L82.9,175.2z M363.5,163.1l1.4,0.1l-0.1,1.4l1.5,0.1l0.1-1.4l1.4,0.1l0.1-1.5
			l-1.4-0.1l0.1-1.4l-1.5-0.1l-0.1,1.4l-1.4-0.1L363.5,163.1z M369.7,168.7l0.1-1.1l-8.9-0.6l-0.1,1.1L369.7,168.7z M368.8,163.7
			l0,0.6l-1.2-0.1l-0.1,1.4l2.6,0.2l0.2-2.3l0.2-3.7l-2.6-0.2l-0.1,1.4l1.2,0.1L368.8,163.7z M363.7,164l-1.2-0.1l0.1-0.8l0.2-2.4
			l1.2,0.1l0.1-1.4l-2.6-0.2l-0.2,3.7l-0.2,2.3l2.6,0.2L363.7,164z M371.7,159.7l0.5,0l0.2-2.9l-0.5,0l-0.3-0.2l-0.4,0l-0.2,2.9
			l0.4,0L371.7,159.7z M371.1,169l0.5,0l0.2-2.9l-0.5,0l-0.3-0.2l-0.4,0l-0.2,2.9l0.4,0L371.1,169z M360.2,158.7l0.4,0l0.2-2.9
			l-0.4,0l-0.3,0.1l-0.5,0l-0.2,2.9l0.5,0L360.2,158.7z M359.6,168l0.4,0l0.2-2.9l-0.4,0l-0.3,0.1l-0.5,0l-0.2,2.9l0.5,0L359.6,168z
			 M358.4,170.4l3.5,0.2l0-0.5l2.2,0.2l0,0.6l1.9,0.1l0-0.6l2.1,0.1l0,0.5l3.5,0.2c0.8,0.1,1.5-0.6,1.6-1.4l0-0.7l-0.6,0l0.8-12.1
			l0.5,0l0-0.7c0.1-0.8-0.6-1.5-1.4-1.6l-3.5-0.2l0,0.6l-2-0.1l0-0.7l-1.9-0.1l0,0.7l-2.2-0.2l0-0.6l-3.5-0.2
			c-0.8-0.1-1.5,0.6-1.6,1.4l0,0.7l0.6,0l-0.8,12.1l-0.6,0l0,0.7C357,169.6,357.6,170.4,358.4,170.4z M358.7,155.8
			c0-0.5,0.5-0.9,1-0.9l12.7,0.9c0.5,0,0.9,0.5,0.9,1l-0.9,12.9c0,0.5-0.5,0.9-1,0.9l-12.7-0.9c-0.5,0-0.9-0.5-0.9-1L358.7,155.8z
			 M437.5,229.5c-1.2,0.9-2.6,4.5-2.6,6c1.5-2.4,3.8-4,4.2-4.9C439.6,229.6,438.7,228.6,437.5,229.5z M373.6,228.7
			c0,0-0.1,4.1-0.5,6c-0.4,2-0.7,3.3,0.2,3.4c0.5,0,0.8-0.8,0.8-1.4c0-1.3-0.4-1-0.4-2C373.8,232.9,373.6,228.7,373.6,228.7z
			 M562.9,171.2c2.6,1.1,5.2,2.2,7.8,3.2c1.1,0.5,2.1,0.1,2.5-1c0.6-1.4,1.1-2.7,1.7-4.1c0.6-1.3,1.1-2.7,1.7-4
			c0.5-1.2,0.1-2.1-1.1-2.6c-2.6-1.1-5.1-2.1-7.7-3.2c-1.1-0.5-2.1-0.1-2.6,1.1c-1.1,2.7-2.3,5.4-3.4,8.1
			C561.4,169.8,561.8,170.8,562.9,171.2z M575.4,163c1,0.4,1.3,1.2,0.9,2.2c-1,2.5-2.1,5-3.1,7.4c0,0.1-0.4,1.1-0.5,1.1
			c-0.2-0.6-0.6-1-0.8-1.6c-0.2-0.4,0.1-0.9,0.4-1.6c0.8-1.9,1.6-3.9,2.4-5.8c0.4-1,0.1-1.8-0.9-2.2c-1.5-0.6-2.9-1.2-4.4-1.9
			c-0.2-0.1-0.5-0.3-0.7-0.4C571,161.1,573.2,162,575.4,163z M564.8,167.7c0.4-1,0.8-2,1.2-3c0.4-1,0.9-2.1,1.3-3.1
			c0.3-0.7,1-1,1.6-0.7c1.6,0.7,3.2,1.3,4.9,2c0.7,0.3,1,1,0.7,1.7c-0.8,2-1.7,4.1-2.5,6.1c-0.3,0.7-1,1-1.7,0.7
			c-1.6-0.6-3.1-1.3-4.7-1.9C564.8,169.1,564.5,168.5,564.8,167.7z M532.1,203.5c0.2,0.7,0.7,1.1,1.4,0.9c1.7-0.4,3.3-0.7,5-1.1
			c0.7-0.2,1-0.7,0.9-1.4c-0.2-0.9-0.4-1.7-0.6-2.6c-0.2-0.9-0.4-1.7-0.6-2.6c-0.2-0.7-0.7-1.1-1.4-0.9c-1.7,0.4-3.3,0.7-5,1.1
			c-0.7,0.2-1.1,0.7-0.9,1.4C531.4,200,531.7,201.8,532.1,203.5z M536.9,196c0.6-0.1,1.1,0.1,1.2,0.8c0.3,1.6,0.7,3.2,1.1,4.8
			c0,0.1,0.2,0.7,0.1,0.7c-0.3-0.2-0.6-0.3-0.9-0.5c-0.2-0.1-0.3-0.5-0.4-0.9c-0.3-1.2-0.6-2.5-0.8-3.7c-0.1-0.6-0.6-0.9-1.2-0.8
			c-1,0.2-1.9,0.4-2.8,0.6c-0.2,0-0.3,0-0.5,0C534,196.6,535.5,196.3,536.9,196z M533,197.2c1-0.2,2.1-0.5,3.1-0.7
			c0.5-0.1,0.8,0.2,0.9,0.6c0.3,1.3,0.6,2.6,0.9,3.9c0.1,0.5-0.1,0.8-0.6,1c-1,0.2-2,0.4-3,0.7c-0.5,0.1-0.9-0.1-1-0.6
			c-0.1-0.6-0.3-1.3-0.4-1.9c-0.1-0.7-0.3-1.3-0.4-2C532.3,197.6,532.5,197.3,533,197.2z M464.6,184.8c-0.4-0.6-1-0.8-1.7-0.4
			c-1.4,0.9-2.8,1.8-4.3,2.7c-0.6,0.4-0.8,1-0.4,1.7c1,1.5,1.9,3,2.9,4.5c0.4,0.6,1,0.8,1.6,0.4c1.4-0.9,2.9-1.8,4.3-2.8
			c0.6-0.4,0.7-1,0.4-1.6c-0.5-0.8-1-1.5-1.5-2.3C465.5,186.3,465,185.6,464.6,184.8z M465.4,190.2c-0.9,0.6-1.7,1.1-2.6,1.7
			c-0.4,0.3-0.8,0.2-1.1-0.3c-0.4-0.6-0.7-1.1-1.1-1.7c-0.4-0.6-0.7-1.1-1.1-1.7c-0.3-0.4-0.2-0.8,0.2-1.1c0.9-0.6,1.8-1.2,2.7-1.7
			c0.4-0.2,0.8-0.1,1.1,0.3c0.7,1.1,1.4,2.3,2.2,3.4C465.9,189.5,465.8,189.9,465.4,190.2z M467.4,189.7c-0.4-0.1-0.7-0.1-1.1-0.2
			c-0.3-0.1-0.4-0.3-0.7-0.7c-0.7-1.1-1.4-2.1-2.1-3.2c-0.4-0.6-0.9-0.7-1.4-0.3c-0.8,0.5-1.6,1-2.5,1.6c-0.1,0.1-0.3,0.1-0.4,0.2
			c1.2-0.8,2.4-1.6,3.7-2.4c0.6-0.4,1.1-0.2,1.4,0.3c0.9,1.4,1.8,2.7,2.6,4.1C467.1,189.1,467.4,189.6,467.4,189.7z M376.7,190.9
			c1.6,0.5,3.3,1,4.9,1.4c0.7,0.2,1.2-0.1,1.5-0.8c0.3-0.9,0.5-1.7,0.8-2.6c0.3-0.8,0.5-1.7,0.8-2.5c0.2-0.7-0.1-1.3-0.8-1.5
			c-1.6-0.5-3.2-1-4.9-1.4c-0.7-0.2-1.3,0.1-1.5,0.8c-0.5,1.7-1,3.4-1.5,5.1C375.7,190.1,376,190.7,376.7,190.9z M383.7,185.1
			c0.6,0.2,0.9,0.6,0.7,1.3c-0.5,1.6-0.9,3.1-1.4,4.7c0,0.1-0.2,0.7-0.2,0.7c-0.2-0.3-0.4-0.6-0.6-0.9c-0.1-0.2,0-0.5,0.1-1
			c0.4-1.2,0.7-2.4,1.1-3.6c0.2-0.6-0.1-1.1-0.7-1.3c-0.9-0.3-1.9-0.5-2.8-0.8c-0.1,0-0.3-0.1-0.4-0.2
			C380.9,184.2,382.3,184.7,383.7,185.1z M377.6,188.6c0.2-0.6,0.4-1.3,0.5-1.9c0.2-0.6,0.4-1.3,0.6-2c0.1-0.4,0.5-0.7,0.9-0.6
			c1,0.3,2,0.6,3.1,0.9c0.4,0.1,0.6,0.5,0.5,1c-0.4,1.3-0.8,2.6-1.1,3.9c-0.1,0.5-0.5,0.7-1,0.5c-1-0.3-2-0.6-3-0.9
			C377.6,189.5,377.4,189.1,377.6,188.6z M246.2,201.1c1.7,0.1,3.4,0.3,5.1,0.4c0.7,0.1,1.2-0.3,1.3-1.1c0.1-0.9,0.2-1.8,0.2-2.7
			c0.1-0.9,0.2-1.8,0.2-2.6c0.1-0.8-0.3-1.2-1.1-1.3c-1.7-0.1-3.4-0.3-5.1-0.4c-0.7-0.1-1.2,0.3-1.3,1.1c-0.2,1.8-0.3,3.6-0.5,5.3
			C245.1,200.6,245.5,201.1,246.2,201.1z M251.9,194.1c0.7,0.1,1,0.5,0.9,1.1c-0.1,1.6-0.3,3.2-0.4,4.9c0,0.1,0,0.7-0.1,0.7
			c-0.2-0.3-0.5-0.5-0.7-0.8c-0.2-0.2-0.1-0.5-0.1-1c0.1-1.3,0.2-2.5,0.3-3.8c0.1-0.7-0.3-1.1-1-1.1c-1-0.1-1.9-0.2-2.9-0.3
			c-0.2,0-0.3-0.1-0.5-0.1C249,193.8,250.5,193.9,251.9,194.1z M246.8,196.8c0.1-0.7,0.1-1.4,0.2-2c0-0.5,0.4-0.8,0.8-0.7
			c1.1,0.1,2.1,0.2,3.2,0.3c0.5,0.1,0.7,0.4,0.7,0.9c-0.1,1.3-0.2,2.7-0.3,4c0,0.5-0.4,0.8-0.9,0.7c-1-0.1-2-0.2-3.1-0.3
			c-0.5,0-0.8-0.4-0.7-0.9C246.7,198.1,246.8,197.4,246.8,196.8z M165.2,188c1.2,2.5,2.5,5.1,3.7,7.6c0.5,1.1,1.5,1.4,2.5,0.9
			c2.4-1.2,4.8-2.4,7.3-3.6c1-0.5,1.4-1.4,0.9-2.5c-0.6-1.3-1.2-2.5-1.9-3.8c-0.6-1.3-1.2-2.5-1.8-3.8c-0.5-1.1-1.5-1.4-2.6-0.9
			c-2.4,1.2-4.8,2.4-7.2,3.5C165,186,164.7,187,165.2,188z M173.4,182.2c0.9-0.5,1.7-0.2,2.2,0.7c1.1,2.3,2.3,4.6,3.4,7
			c0,0.1,0.5,1,0.5,1c-0.6-0.2-1.1-0.2-1.6-0.5c-0.4-0.1-0.6-0.6-0.9-1.2c-0.9-1.8-1.8-3.6-2.7-5.4c-0.5-0.9-1.3-1.2-2.2-0.7
			c-1.4,0.7-2.8,1.3-4.1,2c-0.2,0.1-0.5,0.2-0.7,0.3C169.3,184.3,171.4,183.2,173.4,182.2z M167.8,185.5c1.5-0.8,3-1.5,4.5-2.2
			c0.7-0.3,1.3-0.1,1.6,0.6c0.9,1.9,1.9,3.8,2.8,5.7c0.3,0.7,0.1,1.3-0.6,1.7c-1.5,0.7-2.9,1.4-4.4,2.1c-0.7,0.4-1.4,0.1-1.7-0.6
			c-0.5-0.9-0.9-1.9-1.4-2.8c-0.5-1-0.9-1.9-1.4-2.9C167,186.5,167.2,185.9,167.8,185.5z M59.2,198.5c2.1,0.7,4.1,1.4,6.2,2.1
			c0.9,0.3,1.6,0,1.9-0.9c0.4-1.1,0.7-2.2,1.1-3.3c0.4-1.1,0.7-2.1,1.1-3.2c0.3-0.9,0-1.6-1-2c-2-0.7-4.1-1.4-6.1-2.1
			c-0.9-0.3-1.6,0-1.9,0.9c-0.7,2.1-1.5,4.3-2.2,6.4C57.9,197.5,58.3,198.2,59.2,198.5z M68.4,191.5c0.8,0.3,1.1,0.9,0.8,1.7
			c-0.7,2-1.3,3.9-2,5.9c0,0.1-0.3,0.9-0.3,0.9c-0.2-0.4-0.5-0.7-0.7-1.2c-0.1-0.3,0-0.7,0.2-1.2c0.5-1.5,1-3.1,1.6-4.6
			c0.3-0.8,0-1.4-0.8-1.7c-1.2-0.4-2.3-0.8-3.5-1.2c-0.2-0.1-0.4-0.2-0.5-0.3C64.9,190.3,66.6,190.9,68.4,191.5z M60.5,195.7
			c0.3-0.8,0.5-1.6,0.8-2.4c0.3-0.8,0.6-1.6,0.8-2.5c0.2-0.6,0.7-0.8,1.2-0.6c1.3,0.4,2.6,0.9,3.9,1.3c0.6,0.2,0.8,0.7,0.6,1.3
			c-0.6,1.6-1.1,3.2-1.7,4.8c-0.2,0.6-0.7,0.8-1.3,0.6c-1.2-0.4-2.5-0.8-3.7-1.3C60.5,196.8,60.2,196.3,60.5,195.7z"/>
	</g>
</g>
</svg>
