<?xml version="1.0" encoding="utf-8"?>
<!-- Generator: Adobe Illustrator 27.2.0, SVG Export Plug-In . SVG Version: 6.00 Build 0)  -->
<svg version="1.1" id="レイヤー_1" xmlns="http://www.w3.org/2000/svg" xmlns:xlink="http://www.w3.org/1999/xlink" x="0px"
	 y="0px" viewBox="0 0 2000 240" style="enable-background:new 0 0 2000 240;" xml:space="preserve">
<g>
	<path d="M1090.2,129.5c-3.9-1.1-8.2-2.2-12.4-3.4C1082.8,130.8,1087.8,131.9,1090.2,129.5z"/>
	<path d="M1069.3,137.9c6.4-6.6,11.9,0.5,19,1.9c0.3-0.6,0.6-1.2,0.9-1.8c-5-4-9.6-6.9-15.6-9.9c-2.2,3-4.8,6.6-7.4,10.2
		C1067.5,138.7,1068.6,138.5,1069.3,137.9z"/>
	<path d="M959.6,58.7c-3.2,8.2,10.2,4.5,10.3,11.7c12.1-3.7,24-7.5,36-11c8.1-1.4,23.8,10.2,32.4,13.4c1.5-5.3,5.9-4.2,9.4-5.1
		c0.3-1,0.6-2,1-3.1c-17.7-3.4-20.7-18.6-25.8-32.1c-4,3.6-4.1,10.3-10,12.5c-0.2,0.1-0.2,0.6-0.3,1c-4.5-8.1,0.7-8.9,6.1-12.6
		c3.4-3.3,4.3-6.7,0.4-10c-0.3,0.9-1.1,2.5-0.9,2.6c3.4,2.1,0.6,3.3-0.8,4c-8.4,4-16.9,7.6-26,9.7c0-2.8,0-4.7,0-6.6
		c-1.2,4.1-6.1,8.4-0.1,12.3c5.9-2,12-4.1,18-6.2c0.2,0.3,0.3,0.5,0.5,0.8c-1.5,1.9-3.1,3.8-4.6,5.6c-1.5-1.2-2.5-2.1-3.8-3.2
		c-0.1,1.9-0.2,3.3-0.3,4.8c-8.9,3.1-17.7,6.2-26,9c-1-1.4-1.8-2.5-2.8-3.8c-1.4,3.9-8,6-13.9,4.5C958.9,57.7,959.7,58.4,959.6,58.7
		z M1017.3,44.9c6.5-4.4,10,6.1,11.8,10.8c-5.5-3.2-10.9-6.4-16.4-9.6C1014.3,45.8,1016.2,45.8,1017.3,44.9z"/>
	<path d="M934.4,111c0.1,2,0.3,4.1,0.4,6c5.9,0.6,10.7,3.5,16.2,3.9c4.5-0.1,8.9-1.7,13.3-2.7c0.8-0.2,2.1-0.9,2-1.1
		c-0.6-2.4,1.4-2.2,2.6-2.5c5.1-1.3,10.7-2.1,15.6-3.6c2.2,4.8,5.5,1.1,7.9,0.6c25.6-8,30.5,13,45.4-1.9c-4-1.9-7.7-3.7-11.4-5.3
		c-7.3-2.8-17.9-2.8-17.7-12.6c-1.8,1.1-3.5,2.6-5.7,1.7c0.5,0.9,1.1,1.8,1.8,3.1c-3.1,1.1-6.5,2.3-9.3,3.3c-1.8-6-7.8-7.4-10.3-11
		c4-0.3,8.2-0.1,12.1-1.1c4.8-1.3,9.3-2.5,13.8,1.1c0.7,8.5,6.3,4.1,12.1,5.1c17.5,6.2,15.2,9.1,34.2,2.5c0.2-4.2-1.3-5.6-7.6-6.4
		c1.5,1.1,2.5,1.9,3.5,2.6c-0.2,0.3-0.4,0.6-0.5,1c-5.8-2.7-11.6-6.3-17.3-8.7c-4.1,0.3-7.2-1.5-10.4-3.7c-2.8-1.9-6.4-2.8-9.4-4.5
		c-3.8-2.2-9.7-2.7-8.8-8.7c-19.2,7.5-39.3,12.4-59.4,17.3c0.4,1.4,1,3.7,1.3,5c5.9,2,10.8,3.7,15.5,5.4
		C957.7,107.7,946,109.4,934.4,111z M988.9,99.8c-8.7,2.5-17.1,4.9-26.6,7.6C972.1,96.3,975,88.4,988.9,99.8z"/>
	<polygon points="620,156.9 620.5,157.7 620.7,158 620.3,158.3 620.6,158.8 621.5,158.2 621,157.4 620.1,156.1 619.2,156.7 
		619.5,157.2 	"/>
	<rect x="164.5" y="161.2" transform="matrix(0.3898 -0.9209 0.9209 0.3898 -49.9495 251.4133)" width="0.5" height="4.3"/>
	<polygon points="620.4,155.7 620.5,155.7 620.7,155.6 620,154.6 619.9,154.7 619.7,154.7 619.6,154.8 620.3,155.8 	"/>
	<polygon points="618.3,160.2 619.2,159.6 618.9,159.1 618.5,159.4 618.3,159.1 617.8,158.3 618.2,158 617.9,157.5 617,158.1 
		617.9,159.4 	"/>
	<polygon points="616.4,158.4 616.5,158.3 616.6,158.2 616,157.2 615.8,157.3 615.8,157.4 615.6,157.5 616.3,158.5 	"/>
	<polygon points="617.9,160.5 617.9,160.6 617.7,160.7 618.4,161.7 618.5,161.6 618.6,161.5 618.7,161.4 618.1,160.4 	"/>
	<path d="M643.9,154.5c2.6,1.1,5.2,2.2,7.8,3.2c1.1,0.5,2.1,0.1,2.5-1c0.6-1.4,1.1-2.7,1.7-4.1c0.6-1.3,1.1-2.7,1.7-4
		c0.5-1.2,0.1-2.1-1.1-2.6c-2.6-1.1-5.1-2.1-7.7-3.2c-1.1-0.5-2.1-0.1-2.6,1.1c-1.1,2.7-2.3,5.4-3.4,8.1
		C642.4,153,642.8,154,643.9,154.5z M656.4,146.2c1,0.4,1.3,1.2,0.9,2.2c-1,2.5-2.1,5-3.1,7.4c0,0.1-0.4,1.1-0.5,1.1
		c-0.2-0.6-0.6-1-0.8-1.6c-0.2-0.4,0.1-0.9,0.4-1.6c0.8-1.9,1.6-3.9,2.4-5.8c0.4-1,0.1-1.8-0.9-2.2c-1.5-0.6-2.9-1.2-4.4-1.9
		c-0.2-0.1-0.5-0.3-0.7-0.4C652,144.4,654.2,145.3,656.4,146.2z M645.8,150.9c0.4-1,0.8-2,1.2-3c0.4-1,0.9-2.1,1.3-3.1
		c0.3-0.7,1-1,1.6-0.7c1.6,0.7,3.2,1.3,4.9,2c0.7,0.3,1,1,0.7,1.7c-0.8,2-1.7,4.1-2.5,6.1c-0.3,0.7-1,1-1.7,0.7
		c-1.6-0.6-3.1-1.3-4.7-1.9C645.8,152.4,645.5,151.7,645.8,150.9z"/>
	<polygon points="622.5,159 622.6,159 622.8,158.9 622.1,157.9 622,158 621.8,158 621.7,158.1 622.4,159.1 	"/>
	<rect x="618.5" y="159.8" transform="matrix(0.8396 -0.5432 0.5432 0.8396 12.5842 362.6564)" width="3.7" height="0.5"/>
	<polygon points="618.6,158.9 619.1,158.6 619.4,159.1 620,158.7 619.6,158.2 620.1,157.9 619.8,157.4 619.3,157.7 619,157.2 
		618.5,157.6 618.8,158.1 618.3,158.4 	"/>
	<polygon points="579.8,173.6 580.7,174 580.3,174.9 581.3,175.3 581.7,174.4 582.6,174.8 583,173.8 582.1,173.4 582.4,172.5 
		581.5,172.1 581.1,173 580.2,172.7 	"/>
	<polygon points="583.1,175.2 583,175.6 582.2,175.3 581.8,176.2 583.5,176.9 584.1,175.4 585.1,173 583.4,172.3 583.1,173.2 
		583.8,173.6 	"/>
	<polygon points="579.8,174.2 579,173.9 579.2,173.3 579.9,171.9 580.6,172.2 581,171.3 579.3,170.6 578.3,173 577.7,174.4 
		579.4,175.1 	"/>
	<polygon points="585.9,173.2 586.3,173.4 587,171.5 586.7,171.4 586.6,171.2 586.4,171.1 585.6,173 585.8,173.1 	"/>
	<polygon points="578.7,170 578.9,170.1 579.7,168.3 579.4,168.2 579.2,168.2 578.9,168.1 578.1,169.9 578.5,170.1 	"/>
	<path d="M615,157.9l0.2-0.1l2.7,4.2l-0.2,0.1l0.2,0.2c0.2,0.3,0.6,0.4,0.8,0.2l1.2-0.8l-0.1-0.2l0.8-0.5l0.1,0.2l0.7-0.4l-0.1-0.2
		l0.7-0.5l0.1,0.2l1.2-0.8c0.3-0.2,0.4-0.6,0.2-0.8l-0.2-0.2l-0.2,0.1l-2.7-4.2l0.2-0.1l-0.2-0.2c-0.2-0.3-0.6-0.4-0.8-0.2l-1.2,0.8
		l0.1,0.2l-0.7,0.5l-0.1-0.2l-0.7,0.4l0.1,0.2l-0.8,0.5l-0.1-0.2l-1.2,0.8c-0.3,0.2-0.4,0.6-0.2,0.8L615,157.9z M615.3,157.1
		l4.4-2.9c0.2-0.1,0.4-0.1,0.6,0.1l2.9,4.5c0.1,0.2,0.1,0.4-0.1,0.6l-4.4,2.9c-0.2,0.1-0.4,0.1-0.6-0.1l-2.9-4.5
		C615.1,157.5,615.2,157.2,615.3,157.1z"/>
	<rect x="579.5" y="174" transform="matrix(0.3899 -0.9209 0.9209 0.3899 190.7237 642.0694)" width="0.8" height="6.2"/>
	<polygon points="164.7,161.4 164.1,161.2 164.3,160.8 164.7,159.7 165.3,160 165.5,159.3 164.4,158.8 163.6,160.6 163.2,161.5 
		164.4,162 	"/>
	<polygon points="584.1,177.2 583.8,177.1 583.1,178.9 583.3,179 583.4,179.2 583.7,179.3 584.5,177.5 584.2,177.3 	"/>
	<path d="M613.1,186.8c0.2,0.7,0.7,1.1,1.4,0.9c1.7-0.4,3.3-0.7,5-1.1c0.7-0.2,1-0.7,0.9-1.4c-0.2-0.9-0.4-1.7-0.6-2.6
		c-0.2-0.9-0.4-1.7-0.6-2.6c-0.2-0.7-0.7-1.1-1.4-0.9c-1.7,0.4-3.3,0.7-5,1.1c-0.7,0.2-1.1,0.7-0.9,1.4
		C612.4,183.3,612.7,185,613.1,186.8z M617.9,179.2c0.6-0.1,1.1,0.1,1.2,0.8c0.3,1.6,0.7,3.2,1.1,4.8c0,0.1,0.2,0.7,0.1,0.7
		c-0.3-0.2-0.6-0.3-0.9-0.5c-0.2-0.1-0.3-0.5-0.4-0.9c-0.3-1.2-0.6-2.5-0.8-3.7c-0.1-0.6-0.6-0.9-1.2-0.8c-1,0.2-1.9,0.4-2.8,0.6
		c-0.2,0-0.3,0-0.5,0C615,179.8,616.4,179.5,617.9,179.2z M614,180.4c1-0.2,2.1-0.5,3.1-0.7c0.5-0.1,0.8,0.2,0.9,0.6
		c0.3,1.3,0.6,2.6,0.9,3.9c0.1,0.5-0.1,0.8-0.6,1c-1,0.2-2,0.4-3,0.7c-0.5,0.1-0.9-0.1-1-0.6c-0.1-0.6-0.3-1.3-0.4-1.9
		c-0.1-0.7-0.3-1.3-0.4-2C613.3,180.9,613.5,180.5,614,180.4z"/>
	<polygon points="278.7,138.5 279,138.5 279.4,138.2 277.8,135.8 277.4,136 277.1,136 276.8,136.2 278.4,138.7 	"/>
	<polygon points="163.9,158.4 164.1,158.5 164.6,157.2 164.4,157.2 164.3,157.2 164.1,157.1 163.5,158.4 163.7,158.5 	"/>
	<polygon points="727.7,150.6 727.7,150.6 727.6,151.6 726.4,151.5 726.3,152.9 728.9,153.1 729.1,150.7 729.3,147.1 726.7,146.9 
		726.6,148.3 727.8,148.4 	"/>
	<polygon points="722.5,152.6 722.6,151.2 721.4,151.2 721.5,150.4 721.6,148 722.8,148 722.9,146.6 720.3,146.5 720.1,150.3 
		720.1,150.3 719.9,152.5 	"/>
	<polygon points="722.4,150.4 723.8,150.4 723.7,151.8 725.2,151.9 725.3,150.5 726.7,150.6 726.8,149.2 725.4,149.1 725.5,147.7 
		724,147.6 723.9,149 722.5,148.9 	"/>
	<polygon points="162.1,162.6 162.3,162.7 162.8,161.4 162.7,161.3 162.5,161.3 162.3,161.3 161.8,162.5 162,162.6 	"/>
	
		<rect x="723.6" y="150.6" transform="matrix(6.717178e-02 -0.9977 0.9977 6.717178e-02 520.797 867.1876)" width="1.1" height="8.9"/>
	<path d="M140.2,181.7c2.1,0.7,4.1,1.4,6.2,2.1c0.9,0.3,1.6,0,1.9-0.9c0.4-1.1,0.7-2.2,1.1-3.3c0.4-1.1,0.7-2.1,1.1-3.2
		c0.3-0.9,0-1.6-1-2c-2-0.7-4.1-1.4-6.1-2.1c-0.9-0.3-1.6,0-1.9,0.9c-0.7,2.1-1.5,4.3-2.2,6.4C138.9,180.7,139.3,181.4,140.2,181.7z
		 M149.4,174.7c0.8,0.3,1.1,0.9,0.8,1.7c-0.7,2-1.3,3.9-2,5.9c0,0.1-0.3,0.9-0.3,0.9c-0.2-0.4-0.5-0.7-0.7-1.2
		c-0.1-0.3,0-0.7,0.2-1.2c0.5-1.5,1-3.1,1.6-4.6c0.3-0.8,0-1.4-0.8-1.7c-1.2-0.4-2.3-0.8-3.5-1.2c-0.2-0.1-0.4-0.2-0.5-0.3
		C145.9,173.5,147.6,174.1,149.4,174.7z M141.5,178.9c0.3-0.8,0.5-1.6,0.8-2.4c0.3-0.8,0.6-1.6,0.8-2.5c0.2-0.6,0.7-0.8,1.2-0.6
		c1.3,0.4,2.6,0.9,3.9,1.3c0.6,0.2,0.8,0.7,0.6,1.3c-0.6,1.6-1.1,3.2-1.7,4.8c-0.2,0.6-0.7,0.8-1.3,0.6c-1.2-0.4-2.5-0.8-3.7-1.3
		C141.5,180,141.2,179.5,141.5,178.9z"/>
	<polygon points="730,156.2 730.5,156.3 730.6,153.4 730.2,153.4 729.9,153.2 729.5,153.2 729.3,156 729.7,156.1 	"/>
	<path d="M518.5,212.7c-1.2,0.9-2.6,4.5-2.6,6c1.5-2.4,3.8-4,4.2-4.9C520.6,212.9,519.7,211.8,518.5,212.7z"/>
	<path d="M454.5,211.9c0,0-0.1,4.1-0.5,6c-0.4,2-0.7,3.3,0.2,3.4c0.5,0,0.8-0.8,0.8-1.4c0-1.3-0.4-1-0.4-2
		C454.8,216.1,454.5,211.9,454.5,211.9z"/>
	<polygon points="718.5,155.3 718.9,155.3 719.1,152.5 718.7,152.4 718.4,152.6 717.9,152.5 717.8,155.4 718.3,155.5 	"/>
	<polygon points="730.6,146.9 731.1,147 731.3,144.1 730.8,144.1 730.5,143.9 730.2,143.9 730,146.7 730.4,146.8 	"/>
	<polygon points="719.1,146 719.5,146 719.7,143.2 719.3,143.1 719.1,143.3 718.6,143.2 718.4,146.1 718.9,146.2 	"/>
	<polygon points="679.7,152.1 679,151.8 679.2,151.3 679.8,150 680.5,150.2 680.8,149.4 679.3,148.8 678.4,151 678.4,151 
		677.9,152.3 679.4,152.9 	"/>
	<rect x="679.5" y="151.9" transform="matrix(0.3899 -0.9209 0.9209 0.3899 272.3445 720.4233)" width="0.7" height="5.6"/>
	<polygon points="678.7,148.3 678.9,148.4 679.6,146.7 679.4,146.6 679.2,146.6 679,146.5 678.2,148.2 678.5,148.3 	"/>
	<path d="M675.2,154.8l2,0.9l0.1-0.3l1.3,0.6l-0.1,0.3l1.1,0.5l0.1-0.3l1.2,0.5l-0.1,0.3l2,0.9c0.5,0.2,1,0,1.2-0.5l0.2-0.4L684,157
		l3-7l0.3,0.1l0.2-0.4c0.2-0.5,0-1-0.5-1.2l-2-0.9l-0.2,0.4l-1.2-0.5l0.2-0.4l-1.1-0.5l-0.2,0.4l-1.3-0.6l0.2-0.4l-2-0.9
		c-0.5-0.2-1,0-1.2,0.5l-0.2,0.4l0.3,0.1l-3,7l-0.3-0.1l-0.2,0.4C674.5,154.1,674.8,154.6,675.2,154.8z M675.3,153.6l3.2-7.5
		c0.1-0.3,0.5-0.5,0.8-0.3l7.4,3.1c0.3,0.1,0.5,0.5,0.3,0.8l-3.2,7.5c-0.1,0.3-0.5,0.5-0.8,0.3l-7.4-3.1
		C675.3,154.3,675.1,154,675.3,153.6z"/>
	<polygon points="676.4,153.7 676.7,153.8 677.4,152.1 677.1,152 677,152 676.7,151.9 676,153.6 676.3,153.7 	"/>
	<polygon points="683.6,154.7 683.4,154.7 682.7,156.3 682.9,156.4 683,156.6 683.3,156.7 684,155 683.7,154.9 	"/>
	<path d="M717.3,157.7l3.5,0.2l0-0.5l2.2,0.2l0,0.6l1.9,0.1l0-0.6l2.1,0.1l0,0.5l3.5,0.2c0.8,0.1,1.5-0.6,1.6-1.4l0-0.7l-0.6,0
		l0.8-12.1l0.5,0l0-0.7c0.1-0.8-0.6-1.5-1.4-1.6l-3.5-0.2l0,0.6l-2-0.1l0-0.7l-1.9-0.1l0,0.7l-2.2-0.2l0-0.6l-3.5-0.2
		c-0.8-0.1-1.5,0.6-1.6,1.4l0,0.7l0.6,0l-0.8,12.1l-0.6,0l0,0.7C715.9,156.9,716.5,157.6,717.3,157.7z M717.6,143
		c0-0.5,0.5-0.9,1-0.9l12.7,0.9c0.5,0,0.9,0.5,0.9,1l-0.9,12.9c0,0.5-0.5,0.9-1,0.9l-12.7-0.9c-0.5,0-0.9-0.5-0.9-1L717.6,143z"/>
	<polygon points="679.8,151.5 680.6,151.9 680.2,152.7 681.1,153 681.4,152.2 682.2,152.6 682.6,151.7 681.8,151.4 682.1,150.6 
		681.3,150.2 680.9,151 680.1,150.7 	"/>
	<path d="M161.2,163.5l1.6,0.7l0.1-0.2l1,0.4l-0.1,0.2l0.9,0.4l0.1-0.2l0.9,0.4l-0.1,0.2l1.6,0.7c0.4,0.2,0.8,0,0.9-0.4l0.1-0.3
		l-0.3-0.1l2.3-5.4l0.2,0.1l0.1-0.3c0.2-0.4,0-0.8-0.4-0.9l-1.6-0.7l-0.1,0.3l-0.9-0.4l0.1-0.3l-0.9-0.4l-0.1,0.3l-1-0.4l0.1-0.3
		l-1.6-0.7c-0.4-0.2-0.8,0-0.9,0.4l-0.1,0.3l0.2,0.1l-2.3,5.4l-0.2-0.1l-0.1,0.3C160.7,162.9,160.8,163.4,161.2,163.5z M161.2,162.6
		l2.4-5.8c0.1-0.2,0.4-0.4,0.6-0.3l5.7,2.4c0.2,0.1,0.4,0.4,0.3,0.6l-2.4,5.8c-0.1,0.2-0.4,0.4-0.6,0.3l-5.7-2.4
		C161.2,163.1,161.1,162.8,161.2,162.6z"/>
	<polygon points="682.8,152.8 682.6,153.3 681.9,153 681.6,153.8 683.1,154.5 683.6,153.1 684.5,151 683,150.4 682.7,151.2 
		683.4,151.5 	"/>
	<polygon points="685.3,151.2 685.6,151.3 686.3,149.6 686,149.5 685.9,149.4 685.7,149.3 685,150.9 685.2,151 	"/>
	<polygon points="164.7,161 165.3,161.2 165,161.8 165.7,162.1 166,161.5 166.6,161.8 166.9,161.1 166.3,160.8 166.5,160.2 
		165.9,159.9 165.6,160.6 165,160.3 	"/>
	<rect x="340.7" y="155.7" transform="matrix(0.8396 -0.5432 0.5432 0.8396 -29.7947 211.0603)" width="3.7" height="0.5"/>
	<polygon points="344.6,154.9 344.7,154.9 344.9,154.8 344.2,153.8 344.1,153.9 343.9,153.9 343.8,154 344.5,155 	"/>
	<polygon points="340,156.5 340,156.6 339.8,156.7 340.5,157.7 340.6,157.6 340.7,157.5 340.8,157.4 340.2,156.4 	"/>
	<polygon points="342.5,151.7 342.6,151.7 342.8,151.6 342.1,150.6 342,150.7 341.8,150.7 341.7,150.8 342.4,151.8 	"/>
	<rect x="269.2" y="140.4" transform="matrix(0.8396 -0.5432 0.5432 0.8396 -32.693 171.24)" width="8.9" height="1.1"/>
	<polygon points="340.4,156.2 341.4,155.6 341,155.1 340.6,155.4 340.4,155 339.9,154.2 340.3,154 340,153.5 339.1,154.1 
		339.9,155.4 	"/>
	<polygon points="342.1,152.8 342.6,153.6 342.8,154 342.4,154.2 342.7,154.7 343.6,154.1 343.1,153.4 342.2,152 341.3,152.6 
		341.6,153.1 	"/>
	<path d="M362.4,119.2l2,0.9l0.1-0.3l1.3,0.6l-0.1,0.3l1.1,0.5l0.1-0.3l1.2,0.5l-0.1,0.3l2,0.9c0.5,0.2,1,0,1.2-0.5l0.2-0.4
		l-0.4-0.2l3-7l0.3,0.1l0.2-0.4c0.2-0.5,0-1-0.5-1.2l-2-0.9l-0.2,0.4l-1.2-0.5l0.2-0.4l-1.1-0.5l-0.2,0.4l-1.3-0.6l0.2-0.4l-2-0.9
		c-0.5-0.2-1,0-1.2,0.5l-0.2,0.4l0.3,0.1l-3,7l-0.3-0.1l-0.2,0.4C361.7,118.5,361.9,119,362.4,119.2z M362.4,118l3.2-7.5
		c0.1-0.3,0.5-0.5,0.8-0.3l7.4,3.1c0.3,0.1,0.5,0.5,0.3,0.8l-3.2,7.5c-0.1,0.3-0.5,0.5-0.8,0.3l-7.4-3.1
		C362.4,118.7,362.3,118.3,362.4,118z"/>
	<polygon points="369.9,117.3 369.8,117.7 369.1,117.4 368.8,118.2 370.3,118.8 370.8,117.5 371.7,115.4 370.2,114.7 369.9,115.6 
		370.6,115.8 	"/>
	<polygon points="338.5,154.3 338.6,154.2 338.7,154.1 338.1,153.1 337.9,153.2 337.9,153.3 337.7,153.4 338.4,154.4 	"/>
	<polygon points="366.9,115.9 367.7,116.2 367.4,117.1 368.3,117.4 368.6,116.6 369.4,117 369.8,116.1 369,115.7 369.3,114.9 
		368.5,114.6 368.1,115.4 367.3,115 	"/>
	<polygon points="372.5,115.6 372.8,115.7 373.5,114 373.2,113.9 373.1,113.7 372.9,113.6 372.2,115.3 372.4,115.4 	"/>
	<polygon points="365.9,112.7 366.1,112.8 366.8,111.1 366.6,111 366.4,111 366.1,110.9 365.4,112.6 365.7,112.7 	"/>
	<polygon points="363.6,118 363.8,118.1 364.5,116.5 364.3,116.4 364.1,116.4 363.8,116.3 363.1,118 363.4,118.1 	"/>
	<polygon points="366.9,116.5 366.2,116.2 366.4,115.6 367,114.3 367.7,114.6 368,113.8 366.5,113.2 365.6,115.4 365,116.6 
		366.5,117.3 	"/>
	<polygon points="264.1,137 264.2,136.7 264.5,136.5 262.9,134.1 262.6,134.3 262.5,134.6 262.1,134.8 263.6,137.3 	"/>
	<rect x="366.7" y="116.3" transform="matrix(0.3898 -0.9209 0.9209 0.3898 114.2949 410.6257)" width="0.7" height="5.6"/>
	<path d="M337.1,153.9l0.2-0.1l2.7,4.2l-0.2,0.1l0.2,0.2c0.2,0.3,0.6,0.4,0.8,0.2l1.2-0.8l-0.1-0.2l0.8-0.5l0.1,0.2l0.7-0.4
		l-0.1-0.2l0.7-0.5l0.1,0.2l1.2-0.8c0.3-0.2,0.4-0.6,0.2-0.8l-0.2-0.2l-0.2,0.1l-2.7-4.2l0.2-0.1l-0.2-0.2c-0.2-0.3-0.6-0.4-0.8-0.2
		l-1.2,0.8l0.1,0.2l-0.7,0.5l-0.1-0.2l-0.7,0.4l0.1,0.2l-0.8,0.5l-0.1-0.2l-1.2,0.8c-0.3,0.2-0.4,0.6-0.2,0.8L337.1,153.9z
		 M337.5,153.1l4.4-2.9c0.2-0.1,0.4-0.1,0.6,0.1l2.9,4.5c0.1,0.2,0.1,0.4-0.1,0.6l-4.4,2.9c-0.2,0.1-0.4,0.1-0.6-0.1l-2.9-4.5
		C337.2,153.4,337.3,153.2,337.5,153.1z"/>
	<polygon points="301.9,170.2 301.1,169.9 301.3,169.3 302,167.8 302.7,168.2 303.1,167.3 301.4,166.6 300.4,169 299.8,170.4 
		301.5,171.1 	"/>
	<rect x="301.6" y="170" transform="matrix(0.3899 -0.9209 0.9209 0.3899 24.8878 383.7016)" width="0.8" height="6.2"/>
	<polygon points="306.2,173.1 306,173 305.2,174.9 305.4,175 305.5,175.1 305.9,175.3 306.6,173.4 306.3,173.3 	"/>
	<polygon points="308.1,169.2 308.4,169.3 309.2,167.5 308.8,167.4 308.7,167.2 308.5,167.1 307.7,168.9 307.9,169 	"/>
	<polygon points="300.8,166 301,166.1 301.8,164.3 301.6,164.2 301.3,164.2 301,164 300.2,165.9 300.6,166 	"/>
	<polygon points="268.7,141.4 270.9,140 270.1,138.8 269.1,139.5 268.7,138.8 267.4,136.8 268.4,136.1 267.6,135 265.4,136.4 
		267.4,139.5 	"/>
	<polygon points="301.9,169.6 302.8,170 302.4,170.9 303.4,171.3 303.8,170.4 304.7,170.7 305.1,169.8 304.2,169.4 304.5,168.5 
		303.6,168.1 303.2,169 302.3,168.6 	"/>
	<polygon points="298.2,171.9 298.5,172.1 299.3,170.2 299,170.1 298.8,170.1 298.5,170 297.7,171.8 298,172 	"/>
	<polygon points="305.3,171 305.1,171.6 304.3,171.2 303.9,172.1 305.6,172.8 306.1,171.5 307.2,169 305.5,168.3 305.2,169.2 
		305.9,169.5 	"/>
	<polygon points="370.8,119.1 370.6,119 369.9,120.7 370.1,120.8 370.2,120.9 370.5,121.1 371.2,119.4 370.9,119.3 	"/>
	<polygon points="269.4,138.3 270.6,137.5 271.3,138.7 272.6,137.9 271.8,136.7 273,135.9 272.2,134.7 271,135.4 270.3,134.3 
		269,135.1 269.8,136.2 268.6,137 	"/>
	<polygon points="576.1,176 576.4,176.1 577.2,174.2 576.9,174.1 576.7,174.2 576.4,174 575.6,175.9 575.9,176 	"/>
	<path d="M327.2,184.4c1.7,0.1,3.4,0.3,5.1,0.4c0.7,0.1,1.2-0.3,1.3-1.1c0.1-0.9,0.2-1.8,0.2-2.7c0.1-0.9,0.2-1.8,0.2-2.6
		c0.1-0.8-0.3-1.2-1.1-1.3c-1.7-0.1-3.4-0.3-5.1-0.4c-0.7-0.1-1.2,0.3-1.3,1.1c-0.2,1.8-0.3,3.6-0.5,5.3
		C326.1,183.8,326.5,184.3,327.2,184.4z M332.9,177.3c0.7,0.1,1,0.5,0.9,1.1c-0.1,1.6-0.3,3.2-0.4,4.9c0,0.1,0,0.7-0.1,0.7
		c-0.2-0.3-0.5-0.5-0.7-0.8c-0.2-0.2-0.1-0.5-0.1-1c0.1-1.3,0.2-2.5,0.3-3.8c0.1-0.7-0.3-1.1-1-1.1c-1-0.1-1.9-0.2-2.9-0.3
		c-0.2,0-0.3-0.1-0.5-0.1C330,177,331.5,177.2,332.9,177.3z M327.8,180c0.1-0.7,0.1-1.4,0.2-2c0-0.5,0.4-0.8,0.8-0.7
		c1.1,0.1,2.1,0.2,3.2,0.3c0.5,0.1,0.7,0.4,0.7,0.9c-0.1,1.3-0.2,2.7-0.3,4c0,0.5-0.4,0.8-0.9,0.7c-1-0.1-2-0.2-3.1-0.3
		c-0.5,0-0.8-0.4-0.7-0.9C327.7,181.3,327.8,180.7,327.8,180z"/>
	<polygon points="267.7,142.1 267.6,142.4 267.1,142.7 268.7,145.1 269.1,144.8 269.2,144.6 269.6,144.4 268,141.9 	"/>
	<polygon points="272.6,133.4 273.8,135.3 274.3,136.1 273.3,136.8 274.1,137.9 276.2,136.5 275.1,134.8 275.1,134.8 273,131.5 
		270.8,132.9 271.6,134.1 	"/>
	<polygon points="273.6,130.6 273.9,130.6 274.3,130.4 272.8,127.9 272.4,128.2 272,128.2 271.7,128.4 273.3,130.8 	"/>
	<path d="M296.9,173.2l2.3,1l0.1-0.3l1.4,0.6l-0.2,0.4l1.2,0.5l0.2-0.4l1.4,0.6l-0.1,0.3l2.3,1c0.5,0.2,1.1,0,1.3-0.5l0.2-0.4
		l-0.4-0.2l3.3-7.7l0.3,0.1l0.2-0.4c0.2-0.5,0-1.1-0.5-1.3l-2.3-1l-0.2,0.4l-1.3-0.6l0.2-0.4l-1.2-0.5l-0.2,0.4l-1.4-0.6l0.2-0.4
		l-2.3-1c-0.5-0.2-1.1,0-1.3,0.5l-0.2,0.4l0.4,0.2l-3.3,7.7l-0.4-0.2l-0.2,0.4C296.2,172.4,296.4,173,296.9,173.2z M296.9,171.9
		l3.5-8.2c0.1-0.3,0.5-0.5,0.9-0.4l8.1,3.4c0.3,0.1,0.5,0.5,0.4,0.9l-3.5,8.2c-0.1,0.3-0.5,0.5-0.9,0.4l-8.1-3.4
		C297,172.7,296.8,172.3,296.9,171.9z"/>
	<polygon points="340.7,154.9 341.2,154.5 341.5,155 342.1,154.7 341.8,154.2 342.2,153.9 341.9,153.4 341.4,153.7 341.1,153.2 
		340.6,153.5 340.9,154 340.4,154.3 	"/>
	<path d="M246.2,171.3c1.2,2.5,2.5,5.1,3.7,7.6c0.5,1.1,1.5,1.4,2.5,0.9c2.4-1.2,4.8-2.4,7.3-3.6c1-0.5,1.4-1.4,0.9-2.5
		c-0.6-1.3-1.2-2.5-1.9-3.8c-0.6-1.3-1.2-2.5-1.8-3.8c-0.5-1.1-1.5-1.4-2.6-0.9c-2.4,1.2-4.8,2.4-7.2,3.5
		C246,169.2,245.7,170.2,246.2,171.3z M254.4,165.5c0.9-0.5,1.7-0.2,2.2,0.7c1.1,2.3,2.3,4.6,3.4,7c0,0.1,0.5,1,0.5,1
		c-0.6-0.2-1.1-0.2-1.6-0.5c-0.4-0.1-0.6-0.6-0.9-1.2c-0.9-1.8-1.8-3.6-2.7-5.4c-0.5-0.9-1.3-1.2-2.2-0.7c-1.4,0.7-2.8,1.3-4.1,2
		c-0.2,0.1-0.5,0.2-0.7,0.3C250.3,167.5,252.4,166.5,254.4,165.5z M248.8,168.8c1.5-0.8,3-1.5,4.5-2.2c0.7-0.3,1.3-0.1,1.6,0.6
		c0.9,1.9,1.9,3.8,2.8,5.7c0.3,0.7,0.1,1.3-0.6,1.7c-1.5,0.7-2.9,1.4-4.4,2.1c-0.7,0.4-1.4,0.1-1.7-0.6c-0.5-0.9-0.9-1.9-1.4-2.8
		c-0.5-1-0.9-1.9-1.4-2.9C248,169.8,248.2,169.1,248.8,168.8z"/>
	<polygon points="167.7,163.4 167.5,163.4 167,164.7 167.1,164.7 167.2,164.9 167.4,164.9 168,163.7 167.8,163.6 	"/>
	<path d="M538.6,140l0.5-0.3l6.6,10.2l-0.5,0.3l0.4,0.6c0.4,0.7,1.4,0.9,2,0.4l3-1.9l-0.3-0.5l1.9-1.2l0.3,0.5l1.6-1l-0.3-0.5
		l1.8-1.2l0.3,0.5l3-1.9c0.7-0.4,0.9-1.4,0.4-2l-0.4-0.6l-0.5,0.3l-6.6-10.2l0.5-0.3l-0.4-0.6c-0.4-0.7-1.4-0.9-2-0.4l-3,1.9
		l0.3,0.5l-1.7,1.1l-0.4-0.5l-1.6,1l0.4,0.5L542,136l-0.3-0.5l-3,1.9c-0.7,0.4-0.9,1.4-0.4,2L538.6,140z M539.4,137.9L550,131
		c0.5-0.3,1.1-0.2,1.3,0.3l7,10.8c0.3,0.5,0.2,1.1-0.3,1.3l-10.7,6.9c-0.5,0.3-1.1,0.2-1.3-0.3l-7-10.8
		C538.8,138.8,538.9,138.2,539.4,137.9z"/>
	<path d="M545.6,168.1c-0.4-0.6-1-0.8-1.7-0.4c-1.4,0.9-2.8,1.8-4.3,2.7c-0.6,0.4-0.8,1-0.4,1.7c1,1.5,1.9,3,2.9,4.5
		c0.4,0.6,1,0.8,1.6,0.4c1.4-0.9,2.9-1.8,4.3-2.8c0.6-0.4,0.7-1,0.4-1.6c-0.5-0.8-1-1.5-1.5-2.3C546.5,169.6,546,168.8,545.6,168.1z
		 M546.4,173.4c-0.9,0.6-1.7,1.1-2.6,1.7c-0.4,0.3-0.8,0.2-1.1-0.3c-0.4-0.6-0.7-1.1-1.1-1.7c-0.4-0.6-0.7-1.1-1.1-1.7
		c-0.3-0.4-0.2-0.8,0.2-1.1c0.9-0.6,1.8-1.2,2.7-1.7c0.4-0.2,0.8-0.1,1.1,0.3c0.7,1.1,1.4,2.3,2.2,3.4
		C546.9,172.7,546.8,173.1,546.4,173.4z M548.4,172.9c-0.4-0.1-0.7-0.1-1.1-0.2c-0.3-0.1-0.4-0.3-0.7-0.7c-0.7-1.1-1.4-2.1-2.1-3.2
		c-0.4-0.6-0.9-0.7-1.4-0.3c-0.8,0.5-1.6,1-2.5,1.6c-0.1,0.1-0.3,0.1-0.4,0.2c1.2-0.8,2.4-1.6,3.7-2.4c0.6-0.4,1.1-0.2,1.4,0.3
		c0.9,1.4,1.8,2.7,2.6,4.1C548.1,172.4,548.4,172.9,548.4,172.9z"/>
	<polygon points="444.5,146.3 445.9,146.4 445.8,147.8 447.3,147.9 447.4,146.5 448.8,146.6 448.9,145.1 447.5,145 447.6,143.6 
		446.1,143.5 446,144.9 444.6,144.8 	"/>
	<path d="M457.7,174.1c1.6,0.5,3.3,1,4.9,1.4c0.7,0.2,1.2-0.1,1.5-0.8c0.3-0.9,0.5-1.7,0.8-2.6c0.3-0.8,0.5-1.7,0.8-2.5
		c0.2-0.7-0.1-1.3-0.8-1.5c-1.6-0.5-3.2-1-4.9-1.4c-0.7-0.2-1.3,0.1-1.5,0.8c-0.5,1.7-1,3.4-1.5,5.1
		C456.7,173.3,457,173.9,457.7,174.1z M464.7,168.3c0.6,0.2,0.9,0.6,0.7,1.3c-0.5,1.6-0.9,3.1-1.4,4.7c0,0.1-0.2,0.7-0.2,0.7
		c-0.2-0.3-0.4-0.6-0.6-0.9c-0.1-0.2,0-0.5,0.1-1c0.4-1.2,0.7-2.4,1.1-3.6c0.2-0.6-0.1-1.1-0.7-1.3c-0.9-0.3-1.9-0.5-2.8-0.8
		c-0.1,0-0.3-0.1-0.4-0.2C461.9,167.5,463.3,167.9,464.7,168.3z M458.6,171.9c0.2-0.6,0.4-1.3,0.5-1.9c0.2-0.6,0.4-1.3,0.6-2
		c0.1-0.4,0.5-0.7,0.9-0.6c1,0.3,2,0.6,3.1,0.9c0.4,0.1,0.6,0.5,0.5,1c-0.4,1.3-0.8,2.6-1.1,3.9c-0.1,0.5-0.5,0.7-1,0.5
		c-1-0.3-2-0.6-3-0.9C458.6,172.7,458.4,172.4,458.6,171.9z"/>
	<polygon points="449.8,146.6 449.8,146.6 449.7,147.5 448.5,147.5 448.4,148.8 451,149 451.2,146.7 451.4,143 448.8,142.9 
		448.8,144.3 449.9,144.3 	"/>
	<polygon points="452.1,152.2 452.6,152.2 452.8,149.4 452.3,149.3 452,149.2 451.6,149.1 451.4,152 451.8,152 	"/>
	<polygon points="542,141 542.1,140.8 542.4,140.6 540.8,138.1 540.5,138.3 540.4,138.6 540,138.9 541.5,141.3 	"/>
	<polygon points="452.7,142.9 453.2,142.9 453.4,140.1 452.9,140 452.6,139.9 452.3,139.8 452.1,142.7 452.5,142.7 	"/>
	<polygon points="169,160.7 169.2,160.8 169.8,159.5 169.5,159.4 169.4,159.3 169.3,159.2 168.7,160.5 168.9,160.6 	"/>
	<rect x="547.1" y="144.5" transform="matrix(0.8396 -0.5432 0.5432 0.8396 9.6814 322.8292)" width="8.9" height="1.1"/>
	<polygon points="545.6,146.2 545.4,146.4 545,146.7 546.6,149.1 547,148.9 547.1,148.6 547.5,148.4 545.9,146 	"/>
	<path d="M574.8,177.3l2.3,1l0.1-0.3l1.4,0.6l-0.2,0.4l1.2,0.5l0.2-0.4l1.4,0.6l-0.1,0.3l2.3,1c0.5,0.2,1.1,0,1.3-0.5l0.2-0.4
		l-0.4-0.2l3.3-7.7l0.3,0.1l0.2-0.4c0.2-0.5,0-1.1-0.5-1.3l-2.3-1l-0.2,0.4l-1.3-0.6l0.2-0.4l-1.2-0.5l-0.2,0.4l-1.4-0.6l0.2-0.4
		l-2.3-1c-0.5-0.2-1.1,0-1.3,0.5l-0.2,0.4l0.4,0.2l-3.3,7.7l-0.4-0.2l-0.2,0.4C574.1,176.4,574.3,177,574.8,177.3z M574.8,176
		l3.5-8.2c0.1-0.3,0.5-0.5,0.9-0.4l8.1,3.4c0.3,0.1,0.5,0.5,0.4,0.9l-3.5,8.2c-0.1,0.3-0.5,0.5-0.9,0.4l-8.1-3.4
		C574.9,176.7,574.7,176.3,574.8,176z"/>
	<polygon points="167.1,162 166.9,162.3 166.4,162.1 166.1,162.7 167.3,163.2 167.7,162.2 168.4,160.6 167.2,160.1 167,160.7 
		167.5,160.9 	"/>
	<polygon points="547.3,142.3 548.5,141.5 549.2,142.7 550.5,141.9 549.7,140.7 550.9,140 550.1,138.7 548.9,139.5 548.2,138.3 
		546.9,139.1 547.7,140.3 546.5,141 	"/>
	<polygon points="546.6,145.4 548.8,144 548,142.9 547,143.5 546.6,142.9 545.3,140.8 546.3,140.2 545.5,139 543.3,140.4 
		545.3,143.5 	"/>
	<polygon points="550.5,137.5 551.7,139.4 552.2,140.1 551.2,140.8 552,142 554.1,140.6 552.9,138.6 550.9,135.5 548.7,136.9 
		549.5,138.1 	"/>
	<polygon points="556.6,142.5 556.9,142.5 557.3,142.2 555.7,139.8 555.3,140.1 555,140.1 554.7,140.3 556.3,142.7 	"/>
	<polygon points="551.5,134.7 551.8,134.7 552.2,134.4 550.7,132 550.2,132.2 549.9,132.3 549.6,132.5 551.2,134.9 	"/>
	<polygon points="441.2,142 441.6,142 441.8,139.1 441.4,139.1 441.2,139.2 440.7,139.2 440.5,142.1 441,142.1 	"/>
	<path d="M439.4,153.6l3.5,0.2l0-0.5l2.2,0.2l0,0.6l1.9,0.1l0-0.6l2.1,0.1l0,0.5l3.5,0.2c0.8,0.1,1.5-0.6,1.6-1.4l0-0.7l-0.6,0
		l0.8-12.1l0.5,0l0-0.7c0.1-0.8-0.6-1.5-1.4-1.6l-3.5-0.2l0,0.6l-2-0.1l0-0.7l-1.9-0.1l0,0.7l-2.2-0.2l0-0.6l-3.5-0.2
		c-0.8-0.1-1.5,0.6-1.6,1.4l0,0.7l0.6,0l-0.8,12.1l-0.6,0l0,0.7C438,152.9,438.6,153.6,439.4,153.6z M439.7,139c0-0.5,0.5-0.9,1-0.9
		l12.7,0.9c0.5,0,0.9,0.5,0.9,1l-0.9,12.9c0,0.5-0.5,0.9-1,0.9l-12.7-0.9c-0.5,0-0.9-0.5-0.9-1L439.7,139z"/>
	<polygon points="398.3,127.3 398.5,127.4 399.1,126.1 398.9,126 398.8,125.9 398.6,125.8 398,127.1 398.2,127.2 	"/>
	<path d="M260.7,136l0.5-0.3l6.6,10.2l-0.5,0.3l0.4,0.6c0.4,0.7,1.4,0.9,2,0.4l3-1.9l-0.3-0.5l1.9-1.2l0.3,0.5l1.6-1l-0.3-0.5
		l1.8-1.2l0.3,0.5l3-1.9c0.7-0.4,0.9-1.4,0.4-2l-0.4-0.6l-0.5,0.3l-6.6-10.2l0.5-0.3l-0.4-0.6c-0.4-0.7-1.4-0.9-2-0.4l-3,1.9
		l0.3,0.5l-1.7,1.1l-0.4-0.5l-1.6,1l0.4,0.5l-1.9,1.2l-0.3-0.5l-3,1.9c-0.7,0.4-0.9,1.4-0.4,2L260.7,136z M261.5,133.9l10.7-6.9
		c0.5-0.3,1.1-0.2,1.3,0.3l7,10.8c0.3,0.5,0.2,1.1-0.3,1.3l-10.7,6.9c-0.5,0.3-1.1,0.2-1.3-0.3l-7-10.8
		C260.9,134.8,261,134.2,261.5,133.9z"/>
	<polygon points="397,130 396.8,130 396.3,131.3 396.5,131.3 396.5,131.5 396.8,131.5 397.3,130.3 397.1,130.2 	"/>
	
		<rect x="445.7" y="146.6" transform="matrix(6.722920e-02 -0.9977 0.9977 6.722920e-02 265.5703 586.145)" width="1.1" height="8.9"/>
	<polygon points="440.6,151.3 441,151.3 441.2,148.4 440.8,148.4 440.5,148.5 440.1,148.5 439.9,151.4 440.4,151.4 	"/>
	<path d="M390.5,130.1l1.6,0.7l0.1-0.2l1,0.4l-0.1,0.2l0.9,0.4l0.1-0.2l0.9,0.4l-0.1,0.2l1.6,0.7c0.4,0.2,0.8,0,0.9-0.4l0.1-0.3
		l-0.3-0.1l2.3-5.4l0.2,0.1l0.1-0.3c0.2-0.4,0-0.8-0.4-0.9l-1.6-0.7l-0.1,0.3l-0.9-0.4l0.1-0.3l-0.9-0.4l-0.1,0.3l-1-0.4l0.1-0.3
		l-1.6-0.7c-0.4-0.2-0.8,0-0.9,0.4l-0.1,0.3l0.2,0.1l-2.3,5.4l-0.2-0.1l-0.1,0.3C390,129.5,390.1,130,390.5,130.1z M390.5,129.2
		l2.4-5.8c0.1-0.2,0.4-0.4,0.6-0.3l5.7,2.4c0.2,0.1,0.4,0.4,0.3,0.6l-2.4,5.8c-0.1,0.2-0.4,0.4-0.6,0.3l-5.7-2.4
		C390.5,129.7,390.4,129.4,390.5,129.2z"/>
	<polygon points="394,128 393.4,127.8 393.6,127.4 394,126.3 394.6,126.6 394.8,125.9 393.7,125.4 393,127.2 392.5,128.1 
		393.7,128.6 	"/>
	<rect x="393.8" y="127.8" transform="matrix(0.3898 -0.9209 0.9209 0.3898 120.7295 442.2068)" width="0.5" height="4.3"/>
	<polygon points="391.4,129.2 391.6,129.3 392.2,128 392,127.9 391.8,127.9 391.6,127.8 391.1,129.1 391.3,129.2 	"/>
	<polygon points="396.4,128.5 396.2,128.9 395.7,128.7 395.4,129.3 396.6,129.8 397,128.9 397.7,127.2 396.5,126.7 396.3,127.3 
		396.8,127.5 	"/>
	<polygon points="394,127.6 394.6,127.8 394.4,128.4 395,128.7 395.3,128.1 395.9,128.4 396.2,127.7 395.6,127.4 395.8,126.8 
		395.2,126.5 394.9,127.1 394.3,126.9 	"/>
	<polygon points="393.2,125 393.4,125.1 393.9,123.8 393.7,123.8 393.6,123.8 393.4,123.7 392.8,125 393.1,125.1 	"/>
	<polygon points="444.7,147.2 443.5,147.1 443.6,146.3 443.7,143.9 444.9,144 445,142.6 442.4,142.4 442.2,146.1 442,148.4 
		444.6,148.6 	"/>
	<rect x="1618" y="144.5" transform="matrix(0.8397 -0.5431 0.5431 0.8397 181.3916 904.4439)" width="8.9" height="1.1"/>
	<polygon points="1616.5,146.2 1616.4,146.4 1616,146.7 1617.5,149.1 1617.9,148.9 1618.1,148.6 1618.4,148.4 1616.8,146 	"/>
	<polygon points="1756.2,151.2 1756.5,151.3 1757.2,149.6 1756.9,149.5 1756.8,149.4 1756.6,149.3 1755.9,150.9 1756.1,151 	"/>
	<polygon points="1747.3,153.7 1747.6,153.8 1748.3,152.1 1748.1,152 1747.9,152 1747.6,151.9 1746.9,153.6 1747.2,153.7 	"/>
	<path d="M1645.7,177.3l2.3,1l0.1-0.3l1.4,0.6l-0.2,0.4l1.2,0.5l0.2-0.4l1.4,0.6l-0.1,0.3l2.3,1c0.5,0.2,1.1,0,1.3-0.5l0.2-0.4
		l-0.4-0.2l3.3-7.7l0.3,0.1l0.2-0.4c0.2-0.5,0-1.1-0.5-1.3l-2.3-1l-0.2,0.4l-1.3-0.6l0.2-0.4l-1.2-0.5l-0.2,0.4l-1.4-0.6l0.2-0.4
		l-2.3-1c-0.5-0.2-1.1,0-1.3,0.5l-0.2,0.4l0.4,0.2l-3.3,7.7l-0.4-0.2l-0.2,0.4C1645,176.4,1645.2,177,1645.7,177.3z M1645.8,176
		l3.5-8.2c0.1-0.3,0.5-0.5,0.9-0.4l8.1,3.4c0.3,0.1,0.5,0.5,0.4,0.9l-3.5,8.2c-0.1,0.3-0.5,0.5-0.9,0.4l-8.1-3.4
		C1645.8,176.7,1645.6,176.3,1645.8,176z"/>
	<polygon points="1622.4,134.7 1622.7,134.7 1623.1,134.4 1621.6,132 1621.2,132.2 1620.9,132.3 1620.5,132.5 1622.1,134.9 	"/>
	<polygon points="1649.6,170 1649.8,170.1 1650.6,168.3 1650.4,168.2 1650.1,168.2 1649.8,168.1 1649.1,169.9 1649.4,170.1 	"/>
	<polygon points="1793.3,150.4 1794.7,150.4 1794.6,151.8 1796.1,151.9 1796.2,150.5 1797.6,150.6 1797.7,149.2 1796.3,149.1 
		1796.4,147.7 1794.9,147.6 1794.8,149 1793.4,148.9 	"/>
	<polygon points="1650.7,173.6 1651.6,174 1651.2,174.9 1652.2,175.3 1652.6,174.4 1653.5,174.8 1653.9,173.8 1653,173.4 
		1653.4,172.5 1652.4,172.1 1652,173 1651.1,172.7 	"/>
	<polygon points="1650.7,174.2 1649.9,173.9 1650.2,173.3 1650.8,171.9 1651.5,172.2 1651.9,171.3 1650.3,170.6 1649.2,173 
		1648.6,174.4 1650.3,175.1 	"/>
	<polygon points="1621.4,137.5 1622.8,139.6 1623.1,140.1 1622.1,140.8 1622.9,142 1625.1,140.6 1624,138.8 1621.8,135.5 
		1619.6,136.9 1620.4,138.1 	"/>
	<rect x="1650.4" y="174" transform="matrix(0.3899 -0.9209 0.9209 0.3899 844.1224 1628.2435)" width="0.8" height="6.2"/>
	<polygon points="1647,176 1647.3,176.1 1648.1,174.2 1647.8,174.1 1647.6,174.2 1647.3,174 1646.5,175.9 1646.9,176 	"/>
	<polygon points="1617.5,145.4 1619.7,144 1618.9,142.9 1617.9,143.5 1617.5,142.9 1616.2,140.8 1617.2,140.2 1616.4,139 
		1614.2,140.4 1616.2,143.5 	"/>
	
		<rect x="1794.5" y="150.6" transform="matrix(6.722558e-02 -0.9977 0.9977 6.722558e-02 1519.681 1935.6693)" width="1.1" height="8.9"/>
	<polygon points="1789.4,155.3 1789.8,155.3 1790,152.5 1789.6,152.4 1789.4,152.6 1788.9,152.5 1788.7,155.4 1789.2,155.5 	"/>
	<path d="M1616.5,168.1c-0.4-0.6-1-0.8-1.7-0.4c-1.4,0.9-2.8,1.8-4.3,2.7c-0.6,0.4-0.8,1-0.4,1.7c1,1.5,1.9,3,2.9,4.5
		c0.4,0.6,1,0.8,1.6,0.4c1.4-0.9,2.9-1.8,4.3-2.8c0.6-0.4,0.7-1,0.4-1.6c-0.5-0.8-1-1.5-1.5-2.3
		C1617.4,169.6,1617,168.8,1616.5,168.1z M1617.3,173.4c-0.9,0.6-1.7,1.1-2.6,1.7c-0.4,0.3-0.8,0.2-1.1-0.3
		c-0.4-0.6-0.7-1.1-1.1-1.7c-0.4-0.6-0.7-1.1-1.1-1.7c-0.3-0.4-0.2-0.8,0.2-1.1c0.9-0.6,1.8-1.2,2.7-1.7c0.4-0.2,0.8-0.1,1.1,0.3
		c0.7,1.1,1.4,2.3,2.2,3.4C1617.8,172.7,1617.7,173.1,1617.3,173.4z M1619.3,172.9c-0.4-0.1-0.7-0.1-1.1-0.2
		c-0.3-0.1-0.4-0.3-0.7-0.7c-0.7-1.1-1.4-2.1-2.1-3.2c-0.4-0.6-0.9-0.7-1.4-0.3c-0.8,0.5-1.6,1-2.5,1.6c-0.1,0.1-0.3,0.1-0.4,0.2
		c1.2-0.8,2.4-1.6,3.7-2.4c0.6-0.4,1.1-0.2,1.4,0.3c0.9,1.4,1.8,2.7,2.6,4.1C1619,172.4,1619.3,172.9,1619.3,172.9z"/>
	<path d="M1528.6,174.1c1.6,0.5,3.3,1,4.9,1.4c0.7,0.2,1.2-0.1,1.5-0.8c0.3-0.9,0.5-1.7,0.8-2.6c0.2-0.8,0.5-1.7,0.8-2.5
		c0.2-0.7-0.1-1.3-0.8-1.5c-1.6-0.5-3.2-1-4.9-1.4c-0.7-0.2-1.3,0.1-1.5,0.8c-0.5,1.7-1,3.4-1.5,5.1
		C1527.6,173.3,1527.9,173.9,1528.6,174.1z M1535.6,168.3c0.6,0.2,0.9,0.6,0.7,1.3c-0.5,1.6-0.9,3.1-1.4,4.7c0,0.1-0.2,0.7-0.2,0.7
		c-0.2-0.3-0.4-0.6-0.6-0.9c-0.1-0.2,0-0.5,0.1-1c0.4-1.2,0.7-2.4,1.1-3.6c0.2-0.6-0.1-1.1-0.7-1.3c-0.9-0.3-1.9-0.5-2.8-0.8
		c-0.1,0-0.3-0.1-0.4-0.2C1532.8,167.5,1534.2,167.9,1535.6,168.3z M1529.5,171.9c0.2-0.6,0.4-1.3,0.5-1.9c0.2-0.6,0.4-1.3,0.6-2
		c0.1-0.4,0.5-0.7,0.9-0.6c1,0.3,2,0.6,3.1,0.9c0.4,0.1,0.6,0.5,0.5,1c-0.4,1.3-0.8,2.6-1.1,3.9c-0.1,0.5-0.5,0.7-1,0.5
		c-1-0.3-2-0.6-3-0.9C1529.6,172.7,1529.4,172.4,1529.5,171.9z"/>
	<path d="M1788.2,157.7l3.5,0.2l0-0.5l2.2,0.2l0,0.6l1.9,0.1l0-0.6l2.1,0.1l0,0.5l3.5,0.2c0.8,0.1,1.5-0.6,1.6-1.4l0-0.7l-0.6,0
		l0.8-12.1l0.5,0l0-0.7c0.1-0.8-0.6-1.5-1.4-1.6l-3.5-0.2l0,0.6l-2-0.1l0-0.7l-1.9-0.1l0,0.7l-2.2-0.2l0-0.6l-3.5-0.2
		c-0.8-0.1-1.5,0.6-1.6,1.4l0,0.7l0.6,0l-0.8,12.1l-0.6,0l0,0.7C1786.8,156.9,1787.4,157.6,1788.2,157.7z M1788.5,143
		c0-0.5,0.5-0.9,1-0.9l12.7,0.9c0.5,0,0.9,0.5,0.9,1l-0.9,12.9c0,0.5-0.5,0.9-1,0.9l-12.7-0.9c-0.5,0-0.9-0.5-0.9-1L1788.5,143z"/>
	<polygon points="1523.6,142.9 1524.1,142.9 1524.3,140.1 1523.8,140 1523.5,139.9 1523.2,139.8 1523,142.7 1523.4,142.7 	"/>
	<polygon points="1523,152.2 1523.5,152.2 1523.7,149.4 1523.2,149.3 1522.9,149.2 1522.6,149.1 1522.4,152 1522.8,152 	"/>
	<polygon points="1612.9,141 1613,140.8 1613.3,140.6 1611.8,138.1 1611.4,138.3 1611.3,138.6 1610.9,138.9 1612.5,141.3 	"/>
	<polygon points="1754.5,154.7 1754.3,154.7 1753.6,156.3 1753.8,156.4 1753.9,156.6 1754.2,156.7 1754.9,155 1754.7,154.9 	"/>
	<polygon points="1793.5,151.2 1792.3,151.2 1792.4,150.4 1792.6,148 1793.7,148 1793.8,146.6 1791.3,146.5 1791,150.1 
		1790.9,152.5 1793.4,152.6 	"/>
	<polygon points="1753.8,152.8 1753.5,153.3 1752.8,153 1752.5,153.8 1754,154.5 1754.6,153.1 1755.5,151 1754,150.4 1753.6,151.2 
		1754.3,151.5 	"/>
	<path d="M1609.5,140l0.5-0.3l6.6,10.2l-0.5,0.3l0.4,0.6c0.4,0.7,1.4,0.9,2,0.4l3-1.9l-0.3-0.5l1.9-1.2l0.3,0.5l1.6-1l-0.3-0.5
		l1.8-1.2l0.3,0.5l3-1.9c0.7-0.4,0.9-1.4,0.4-2l-0.4-0.6l-0.5,0.3l-6.6-10.2l0.5-0.3l-0.4-0.6c-0.4-0.7-1.4-0.9-2-0.4l-3,1.9
		l0.3,0.5l-1.7,1.1l-0.4-0.5l-1.6,1l0.4,0.5l-1.9,1.2l-0.3-0.5l-3,1.9c-0.7,0.4-0.9,1.4-0.4,2L1609.5,140z M1610.3,137.9l10.7-6.9
		c0.5-0.3,1.1-0.2,1.3,0.3l7,10.8c0.3,0.5,0.2,1.1-0.3,1.3l-10.7,6.9c-0.5,0.3-1.1,0.2-1.3-0.3l-7-10.8
		C1609.7,138.8,1609.8,138.2,1610.3,137.9z"/>
	<polygon points="1618.2,142.3 1619.4,141.5 1620.1,142.7 1621.4,141.9 1620.6,140.7 1621.8,140 1621,138.7 1619.8,139.5 
		1619.1,138.3 1617.8,139.1 1618.6,140.3 1617.4,141 	"/>
	<polygon points="1627.5,142.5 1627.8,142.5 1628.2,142.2 1626.6,139.8 1626.2,140.1 1625.9,140.1 1625.6,140.3 1627.2,142.7 	"/>
	<polygon points="1693.4,159 1693.5,159 1693.7,158.9 1693,157.9 1692.9,158 1692.8,158 1692.6,158.1 1693.3,159.1 	"/>
	<rect x="1689.5" y="159.8" transform="matrix(0.8396 -0.5433 0.5433 0.8396 184.4318 944.528)" width="3.7" height="0.5"/>
	<polygon points="1688.8,160.5 1688.8,160.6 1688.6,160.7 1689.3,161.7 1689.4,161.6 1689.5,161.5 1689.6,161.4 1689,160.4 	"/>
	<polygon points="1689.6,158.9 1690,158.6 1690.4,159.1 1690.9,158.7 1690.6,158.2 1691.1,157.9 1690.7,157.4 1690.2,157.7 
		1689.9,157.2 1689.4,157.6 1689.7,158.1 1689.2,158.4 	"/>
	<polygon points="1691.3,155.7 1691.4,155.7 1691.6,155.6 1690.9,154.6 1690.8,154.7 1690.7,154.7 1690.5,154.8 1691.2,155.8 	"/>
	<polygon points="1690.9,156.9 1691.4,157.7 1691.6,158 1691.2,158.3 1691.5,158.8 1692.4,158.2 1691.9,157.4 1691,156.1 
		1690.1,156.7 1690.5,157.2 	"/>
	<path d="M1714.8,154.5c2.6,1.1,5.2,2.2,7.8,3.2c1.1,0.5,2.1,0.1,2.5-1c0.6-1.4,1.1-2.7,1.7-4.1c0.6-1.3,1.1-2.7,1.7-4
		c0.5-1.2,0.1-2.1-1.1-2.6c-2.6-1.1-5.1-2.1-7.7-3.2c-1.1-0.5-2.1-0.1-2.6,1.1c-1.1,2.7-2.3,5.4-3.4,8.1
		C1713.3,153,1713.7,154,1714.8,154.5z M1727.3,146.2c1,0.4,1.3,1.2,0.9,2.2c-1,2.5-2.1,5-3.1,7.4c0,0.1-0.4,1.1-0.5,1.1
		c-0.2-0.6-0.6-1-0.8-1.6c-0.2-0.4,0.1-0.9,0.4-1.6c0.8-1.9,1.6-3.9,2.4-5.8c0.4-1,0.1-1.8-0.9-2.2c-1.5-0.6-2.9-1.2-4.4-1.9
		c-0.2-0.1-0.5-0.3-0.7-0.4C1722.9,144.4,1725.1,145.3,1727.3,146.2z M1716.7,150.9c0.4-1,0.8-2,1.2-3c0.4-1,0.9-2.1,1.3-3.1
		c0.3-0.7,1-1,1.6-0.7c1.6,0.7,3.2,1.3,4.9,2c0.7,0.3,1,1,0.7,1.7c-0.8,2-1.7,4.1-2.5,6.1c-0.3,0.7-1,1-1.7,0.7
		c-1.6-0.6-3.1-1.3-4.7-1.9C1716.7,152.4,1716.4,151.7,1716.7,150.9z"/>
	<path d="M1746.1,154.8l2,0.9l0.1-0.3l1.3,0.6l-0.1,0.3l1.1,0.5l0.1-0.3l1.2,0.5l-0.1,0.3l2,0.9c0.5,0.2,1,0,1.2-0.5l0.2-0.4
		l-0.4-0.2l3-7l0.3,0.1l0.2-0.4c0.2-0.5,0-1-0.5-1.2l-2-0.9l-0.2,0.4l-1.2-0.5l0.2-0.4l-1.1-0.5l-0.2,0.4l-1.3-0.6l0.2-0.4l-2-0.9
		c-0.5-0.2-1,0-1.2,0.5l-0.2,0.4l0.3,0.1l-3,7l-0.3-0.1l-0.2,0.4C1745.5,154.1,1745.7,154.6,1746.1,154.8z M1746.2,153.6l3.2-7.5
		c0.1-0.3,0.5-0.5,0.8-0.3l7.4,3.1c0.3,0.1,0.5,0.5,0.3,0.8l-3.2,7.5c-0.1,0.3-0.5,0.5-0.8,0.3l-7.4-3.1
		C1746.2,154.3,1746,154,1746.2,153.6z"/>
	<path d="M1525.5,211.9c0,0-0.1,4.1-0.5,6c-0.4,2-0.7,3.3,0.2,3.4c0.5,0,0.8-0.8,0.8-1.4c0-1.3-0.4-1-0.4-2
		C1525.8,216.1,1525.5,211.9,1525.5,211.9z"/>
	<path d="M1589.4,212.7c-1.2,0.9-2.6,4.5-2.6,6c1.5-2.4,3.8-4,4.2-4.9C1591.5,212.9,1590.6,211.8,1589.4,212.7z"/>
	<polygon points="1790,146 1790.4,146 1790.6,143.2 1790.3,143.1 1790,143.3 1789.5,143.2 1789.3,146.1 1789.8,146.2 	"/>
	<polygon points="1800.9,156.2 1801.4,156.3 1801.6,153.4 1801.1,153.4 1800.8,153.2 1800.4,153.2 1800.3,156 1800.6,156.1 	"/>
	<polygon points="1798.6,150.9 1798.5,151.6 1797.3,151.5 1797.3,152.9 1799.8,153.1 1800,150.7 1800.2,147.1 1797.7,146.9 
		1797.6,148.3 1798.8,148.4 	"/>
	<polygon points="1801.5,146.9 1802,147 1802.2,144.1 1801.7,144.1 1801.4,143.9 1801.1,143.9 1800.9,146.7 1801.3,146.8 	"/>
	<rect x="1750.4" y="151.9" transform="matrix(0.39 -0.9208 0.9208 0.39 925.5018 1706.4685)" width="0.7" height="5.6"/>
	<polygon points="1750.7,151.5 1751.5,151.9 1751.1,152.7 1752,153 1752.3,152.2 1753.2,152.6 1753.5,151.7 1752.7,151.4 
		1753.1,150.6 1752.2,150.2 1751.9,151 1751,150.7 	"/>
	<path d="M1685.9,157.9l0.2-0.1l2.7,4.2l-0.2,0.1l0.2,0.2c0.2,0.3,0.6,0.4,0.8,0.2l1.2-0.8l-0.1-0.2l0.8-0.5l0.1,0.2l0.7-0.4
		l-0.1-0.2l0.7-0.5l0.1,0.2l1.2-0.8c0.3-0.2,0.4-0.6,0.2-0.8l-0.2-0.2l-0.2,0.1l-2.7-4.2l0.2-0.1l-0.2-0.2c-0.2-0.3-0.6-0.4-0.8-0.2
		l-1.2,0.8l0.1,0.2l-0.7,0.5l-0.1-0.2l-0.7,0.4l0.1,0.2l-0.8,0.5l-0.1-0.2l-1.2,0.8c-0.3,0.2-0.4,0.6-0.2,0.8L1685.9,157.9z
		 M1686.3,157.1l4.4-2.9c0.2-0.1,0.4-0.1,0.6,0.1l2.9,4.5c0.1,0.2,0.1,0.4-0.1,0.6l-4.4,2.9c-0.2,0.1-0.4,0.1-0.6-0.1l-2.9-4.5
		C1686,157.5,1686.1,157.2,1686.3,157.1z"/>
	<path d="M1962,222.9c-14.3,0-25.6-0.3-36.1,0.9c-15.3,1.6-70.3-1.6-77.3-1.6c-3.4,0-7.2-1-10.4-0.6c-1.1,0.1-1.6-0.6-2.7-0.6
		c-1.9,0-2.2,0.5-4.2,0.7c-1,0.1-1.8,0.9-2.7,0.5c-1-0.4,0.5-1.3,0.9-1.9c0.4-0.6,0.4-1.5-0.5-1.7c-0.4-0.1-1,0.2-1.3,0.9
		c-0.5,0.8-0.6,1.6-1.2,2.2c-0.6-0.8-1.1-1.5-1.3-2.4c-0.4-1.3-0.2-2.8-0.4-4.3c-0.5-3.3-0.7-6.7-1.6-9.8c-1.4-4.9-3.3-9.8-5.1-14.6
		c-0.5-1.4-0.3-2.6,0.4-3.8c1.4-2.3,2.5-4.6,3-7.2c0.8-4.4,1.8-8.8,2.7-13.3c0.1-0.4-0.3-1.2-0.7-1.5c-0.3-0.2-1-0.1-1.4,0.1
		c-1.5,0.8-1.7,2.3-2,3.8c-0.7,4-2.1,7.7-5.2,10.8c0-2.1,0-4.1,0-6.2c0-3,0.1-5.9-0.1-8.9c0-0.5-0.7-1.4-1.1-1.4
		c-0.6,0-1.4,0.5-1.6,1c-0.4,0.9-0.5,1.9-0.7,2.9c-0.3,1.9-0.4,3.8-0.8,5.6c-0.6,2.7-1.2,5.5-0.5,8.3c0.2,0.9,0.1,1.9,0,2.9
		c-0.4,3.5-1.3,6.9-3.6,9.7c-0.9,1.1-1.8,2.4-3.3,2.1c-2.3-0.4-4.6-1-6.9-1.7c-0.5-0.1-1.1-1-1.4-0.9c-1.8,0.5-3.6,1-5.2,1.8
		c-0.6,0.3-0.9,1.7-0.9,2.6c0,0.3,1.2,0.7,1.8,1c0.1,0.1,0.3,0.1,0.5,0.1c3.8,0.7,7.3,2.7,11.2,3.4c1.4,0.2,2.7,1.6,4,2.5
		c1.2,0.9,2.4,1.8,3.5,2.7c0.4,0.3,0.7,0.8,1.2,1.3c0.8-0.5,2.3,0.1,2.3,1.2c0,1.4-0.1,2.8-0.2,4.3c-0.1,0.9,0.1,1.8-1.2,2.3
		c-0.8,0.3-0.5,1.5,0.2,1.7c-0.2,1.5-0.4,3-0.6,4.6c-1.2-0.2-2.5-0.7-3.1-1.4c-0.6-0.7-2.4-1.4-2.9-0.2c-0.2,0.6-0.1,1.3,1.8,1.6
		c1.2,0.2,1,2-2,1.4c-1.4-0.3-2.1,1-3.9,0.5c-0.6-0.2-2.6-0.4-3.1-0.2c-1.5,0.6-2.5,1.1-3.1,1.1c-9.9,0.7-17.6-0.6-27.8,1.1
		c-1.5,0.2-1.7-0.4-3-0.6c-0.8-0.1-3.3,0.7-4.1,0.8c-7.8,0.7-9.8,0.4-14.9-0.2c-1.3-0.2-1.1-0.9-2.6-0.9c-1,0-2.1,0.5-2.7,0.7
		c-0.1,0-0.2,0-0.4,0c-1.1,0-0.9-1.1-0.4-1.6c1.1-1-0.3-1.7-1.5-0.7c-0.5,0.4-0.8,1.2-1.4,1.5c-0.4,0.3-1.2,0.3-1.6,0.1
		c-0.4-0.2-0.7-0.9-0.6-1.4c0.2-1.7,0.7-3.3,0.7-4.9c0.1-5,2.3-9.1,4.8-13.2c1.4-2.2,2.5-4.2,3.3-6.6c0.1-0.2,0.3,0.3,0.7,0.1
		c0.7-0.3,0.3-0.8,0.2-0.9c-0.2-0.7-0.2-1.4-0.1-1.7c0.5-1.2,1.1-2.2,1.9-3.3c1.7-2.4,3.3-4.8,4.9-7.3c0.8-1.2,0.6-2.2-0.5-3
		c-1.1-0.8-2.2-0.6-3.1,0.3c-1.2,1.2-2.2,2.6-3.3,4c-1,1.4-1.9,3-3,4.3c-1.1,1.3-2.1,0.1-3-0.4c-1-0.5-0.7-1.2-0.3-2.1
		c0.4-0.8,0.6-1.7,0.8-2.5c0-0.2-0.3-0.6-0.6-0.7c-0.2-0.1-0.6,0.1-0.8,0.3c-0.2,0.2-0.4,0.5-0.6,0.9c-0.5-1.3-1-2.4-1.3-3.5
		c-0.3-1.1-0.3-2.4-0.4-3.5c-0.1-0.6-0.3-1.3-0.3-1.9c0.2-1.9,0.6-3.9,0.9-5.8c0.1-0.7,0.4-1.4,0.3-2.1c-0.2-0.8-0.7-1.4-1.1-2.1
		c-0.5,0.4-1,0.8-1.6,1.3c-1.2-1-2.1-0.6-2.4,1.1c-0.3,1.5-0.4,3.1-0.9,4.6c-1.3,3.7-0.7,7.4-0.4,11.1c0.2,1.7,0.7,3.4,0.8,5.1
		c0.1,2.5,0,5-0.2,7.4c-0.1,1.9-0.2,3.9-0.9,5.6c-3,7-6.2,13.8-9.4,20.7c-0.1,0.2-0.3,0.3-0.6,0.4c-3.7-0.5-3.7-2.4-5.4-1.7
		c-1.7,0.7,0.4,1.7-0.4,2.3c-0.6,0.5-1.8,0.7-3.5,0.5c-8.7-1.2-16.7-1.3-21.8-1.9c-1.4-0.2-1.5-1.2-3.7-1.1
		c-3.4,0.2-4.6,0.6-7.9-0.3c-0.8-0.2-0.9-0.5-0.5-1c0.4-0.4,1-1.2,0.3-1.5c-0.5-0.3-1.2-0.3-1.5,0.6c-0.4,1.3-1.5,1.4-1.8,1.3
		c0,0-0.1,0-0.1,0c0-0.5,0-1-0.1-1.5c-0.4-3.6-0.1-7.4,0.1-11c0.1-2,0.8-4,1.1-6.1c0.5-3.1,1-6.1,2.7-8.8c0.5-0.7,0.9-1.6,1-2.4
		c0.1-1.1,0.2-2.4-0.4-3.3c-0.3-0.5-1.8-0.3-2.8-0.5c0,0.2-0.1,0.4-0.1,0.5c0.4,0.3,0.9,0.7,1.3,1c-0.9,2.7-2.2,4.2-3.9,4.2
		c0.1-0.8,0.3-1.5,0.3-2.2c0.1-2.4,0.9-4.9-0.2-7.3c-0.5-1.1-0.8-2.6-2.2-2.2c-1.6,0.4-0.6,1.9-0.4,2.9c0.4,2.3-0.5,4.3-1.4,6.3
		c-0.3-0.3-0.5-0.6-0.6-0.9c-0.9-3.1-1.7-6.2-2.6-9.2c-0.2-0.5-1.1-0.8-1.7-1.2c-0.3,0.7-0.8,1.3-0.9,2c-0.1,0.8,0.4,1.5,0.5,2.3
		c0.3,2.3,0.6,4.5,0.9,6.8c-0.2,0-0.4,0.1-0.6,0.1c-0.2-0.4-0.4-0.7-0.6-1.1c-1-2.1-1.8-4.2-2.9-6.2c-0.3-0.5-1.1-0.8-1.7-1.2
		c-0.2,0.7-0.6,1.3-0.7,2c0,0.7,0.3,1.3,0.5,2c0.7,3,1.7,5.9,1.8,8.9c0.3,4.5-3,6.3-6.9,4.1c-0.7-0.4-1.6-0.6-2.4-0.7
		c-1.2-0.1-1.5,0.9-0.9,1.6c1,1.2,2.2,2.2,3.4,3.1c0.1,0,0.2,0.3,0.2,0.8c0,0.8-0.3,2.2-0.5,2.8c-0.5,1.2,0.1,1.8,0.6,1.9
		s1-0.3,0.7-1.6c-0.1-0.6,0.1-1.7,0.4-2.2c0.2-0.4,0.4-0.5,0.5-0.4c0.9,0.5,1.7,1,2.5,1.6c3.5,2.5,4.8,5.9,3.9,10.1
		c-0.3,1.5-0.4,3-0.4,4.5c-2-0.1-3.2-0.9-3.6-1.9c-0.5-1.2-1.2-2.1-2.3-1.4c-1.4,0.9-0.2,2.1,0.7,2.5c0.7,0.3,0.5,1.1-0.7,1.3
		c-6.2,0.6-15.3-2-21.8-2.1c-9-0.1-16.8,1.9-26.7,2.2c-2.8,0.1-0.1-1.9-4.7-1.2c-2.3,0.3-5.8,1.3-8,1.6c-1.3,0.2-2.6-0.3-5.2-0.3
		c-1.1,0-0.3-0.4-1.6-0.6c-1-0.2-1.2,0.6-1.6,0.6c-1-0.1-1.6-0.3-2.1-0.6c-0.9-0.9,3-3.1,0.8-4.3c-2.1-1.1-1.9,4-3.9,4.5
		c0,0,0,0,0,0c-0.1-0.8-0.1-1.7-0.1-2.5c0-2.5,0-4.9,0-7.4c0-3.8,1.1-6.9,4.6-9c1.8-1.1,3.2-2.8,4.9-4c3.9-2.8,8.2-4.8,12.7-6.2
		c0.3-0.1,0.8,1.6,1,4.2c0.2,2.2-1,5.1,0.9,5.1c1.1,0,0.7-1.2,0.5-3.1c-0.4-3.8,0-6.9,0.6-7.5c0.4-0.4,0.7-0.6,1.1-1.1
		c0.2-0.3,0.3-0.4,0.6-0.5c0.2-0.1,0.3,0.8,0.3,2c0,0.7-0.3,1.7,0.6,1.7c1,0,0.5-1.4,0.4-2.3c-0.2-1.3,0.1-2.8,0.2-2.9
		c1.3-1.1,2.5-1.6,4-2.3c0.9-0.5,1.5-1.5,1.2-2.4c-0.6-1.9-2.7-2.8-5-2.3c-2.7,0.6-5.2,1.7-7.3,3.6c-0.2,0.2-0.5,0.3-0.8,0.4
		c-0.9,0.2-1.8,0.3-2.6,0.7c-4.8,1.9-8.6,0-11.4-3.2c-3.3-3.8-3.9-8.3-2.9-13c1.1-5.5,2.6-10.9,4-16.3c0.5-2.1,1.2-4.2,1.7-6.3
		c0.2-1,0-2.1-0.2-3.2c-0.1-0.7-2.1-1.9-2.5-1.6c-1,0.8-2.2,1.6-2.6,2.7c-2,5.1-3.7,10.2-5.5,15.3c-0.6,1.8-1.1,3.6-1.7,5.5
		c-0.3,1-0.9,1.7-2,1.6c-1.1-0.1-1-1.2-1.1-2c-0.2-1.7-0.2-3.5-0.3-5.2c-0.1-5.9,0.2-11.7,1.1-17.5c0.2-1.1,0.2-2.3-0.1-3.4
		c-0.4-1.3-2.3-2.2-3.5-1.8c-1.7,0.4-2.4,1.5-2.6,3.3c-0.3,2.7-0.6,5.3-1,8c-0.4,2.9-0.8,5.8-1,8.7c-0.2,1.9,0,3.8,0,5.6
		c0,1.7,0,3.4,0,5.1c-1.4,0.4-2-0.4-2.5-1.2c-1.1-1.8-2.2-3.6-3.3-5.4c-0.2-0.4-0.3-0.8-0.4-1.1c0.6,0,1.1,0,1.5,0
		c0-0.1,0-0.3,0-0.4c-0.6-0.1-1.1-0.3-1.8-0.4c0-0.1-0.1-0.4-0.1-0.5c0.4-0.3,0.7-0.5,1.2-0.9c-0.7-0.1-1.1-0.2-1.5-0.2
		c0.2-1.9-1.4-3.7-0.5-5.6c-1.1-1.8-0.4-3.7-0.5-5.7c-0.1-0.2-0.2-0.6-0.4-0.9c-0.6-0.7-1.1-1.8-1.8-2c-0.9-0.2-2.4,0.1-3,0.8
		c-0.7,0.7-0.9,2.1-0.9,3.2c0.1,3.4,0.2,6.9,0.6,10.3c0.2,1.8,0.7,3.7,1.3,5.4c1.1,3.3,2.3,6.6,3.4,9.8c0.4,1.1-0.1,1.7-1.2,1.3
		c-0.8-0.3-1.6-0.9-2.3-1.5c-1.4-1.2-2.7-2.4-3.9-3.7c-0.4-0.4-0.5-1-0.8-1.5c-0.3-0.5-0.9-1-1.1-1.6c-0.3-0.9-0.3-1.8-0.6-2.7
		c-0.1-0.6-0.4-1.2-0.7-1.6c-0.9-1.2-2.2-1.3-3.6-1.1c-1.4,3.8-0.9,6.8,0.7,9.5c1.5,2.7,3.4,5.2,5.4,7.5c2.5,2.9,4.2,6.2,5.2,9.9
		c0.7,2.8,1.7,5.5,2.5,8.3c0.9,3.3,2.8,6.2,3.4,9.7c0.3,1.8,0.6,3.7,0.5,5.5c0,2.2-1.2,2.6-1.2,3.1c0,0.9,0.5,1.3,1.1,1.1
		c-0.2,1.9-0.3,3.7-0.4,5.6c-0.9-0.6-1.4-1.7-1.4-2.4c0-1.1-0.7-1.7-1.5-1.4c-0.7,0.3-0.3,1.5,0.3,2.4c0.5,0.8,0.6,1.4,0.1,1.9
		c-0.1,0.1-0.6,0.3-1.8,0.4c-0.8,0-1.8-0.2-2.9-0.3c-1.6-0.2-1.5,0.6-2.7,0.7c-4.4,0.2-11.4,0-17.5,0.1c-4.2,0-7.5-0.7-11-0.4
		c-1.9,0.2-4.6,1.3-5.7,1.1c-1.6-0.2,0.9-1.2-0.2-1.8c-1.1-0.5-0.8,0.7-2.2,0.9c-0.2,0-0.3,0-0.4,0.1c3.4-3.9,8.5-10,10.8-14.3
		c0.5-0.9,0.8-1.4,1.2-2.4c0.1-0.3,0.3,0,0.5-0.2c0.4-0.2,0.2-0.6,0.2-0.8c-0.1-0.3,0-0.8,0.1-1.3c0.3-1.1,0.5-2.2,0.5-3.4
		c0-2.7-0.3-7.9-2.7-12.9c-2.1-4.3-4.8-7.4-4.8-7.4s0.5-0.4,0.6-0.9c-0.4-0.7-2.2-2.2-3.8-3.3c-0.8-0.6-4.3-1.9-4.3-1.9
		s-0.2-1.1-1.3-1.9c-1.1-0.8-0.7-0.6-1.8-1c-0.5-0.2-4.4-1.2-8.9-2.5c-0.2-1.8-0.6-2.3-3.1-3.6c-2.6-1.4-3.8-1.4-5.4-1.6
		c-1.6-0.2-1.9-0.1-1.9-0.1s-1.8-1-2.6-1.6c-0.8-0.6-3.8-0.8-4,0.2c-0.1,0.7-0.8,0.7-1.1,1.2l-0.1-0.3l-5.5-1.8c0,0-1.1,1.7-1.1,2.7
		c0,0-21.4-5.9-22.5-6.3c-0.7,0.7-1,1.2-1,1.2l-5.5-1.3l-3.9-0.3l3.4,1.7l5.8,1.3l0.2,1.1l22.6,5.9l-0.4,2.9
		c1.4,0.4,4.2,1.3,4.2,1.3c-1.6,1.2-2,2.6-1,4.8c1,2.2,2,2.2,1.2,4.2c-0.8,2-1,6.1-2.8,8.3c-1.8,2.2-2,5.1-1.8,7.5s0.8,4.8,0.6,7.4
		c-0.2,2.6,0,5.4-0.2,7.8c-0.1,1.2-0.8,5.6-1.5,9.9c-0.7-0.2-1.1-1.1-1.3-2c-0.1-0.6-0.8-1-1.3-0.9c-0.8,0.2-0.8,1.1-0.4,1.5
		c0.8,0.7,1.1,1.4,0.8,1.6c-1,0.7-2.2,0.6-3.7,0.4c-2-0.3-7.6-1.3-9.1-1.6c-9.7-1.5-11.7-1.3-16.6-1.3c-0.5,0,0-0.7-1-1.1
		c-0.8-0.2-1.4,0.3-1.8,0.4c-0.2-0.3-0.3-0.7-0.3-1.1c-0.2-4.2-1.6-8.1-3-12c-1.3-3.7-2.2-7.6-2.6-11.5c-0.4-3.4,0.2-6.9,0.3-10.4
		c0-0.4-0.3-1.1-0.5-1.1c-0.5,0-1.1,0.2-1.3,0.5c-0.3,0.4-0.5,1.1-0.6,1.7c-0.5,2.2-0.9,4.4-1.4,6.8c-1.7-1.2-3.1-2.3-4.5-3.2
		c-0.4-0.2-1,0-1.5,0c0.1,0.5,0,1.2,0.2,1.6c1,1.1,2.1,2.1,3.1,3.2c0.4,0.4,0.5,1,0.9,1.7c-2.5-0.8-4.6-1.5-6.8-2.2
		c-0.3-0.1-1,0.2-1.1,0.4c-0.1,0.4,0,1,0.3,1.3c0.3,0.3,0.8,0.4,1.2,0.6c2.5,0.9,4.9,2,5.5,3.7c-1.1,1-1.9,1.8-2.7,2.5
		c0.3,0.3,0.5,0.6,0.8,1c-1.4-0.2-2.8-0.4-4.2-0.5c-0.5,0-0.9,0.5-1.4,0.8c0.3,0.3,0.4,0.8,0.8,1c1.6,0.6,3.1,1.3,4.7,1.4
		c1.7,0.1,2.1,0.7,2.2,2.3c0.2,2.2,0.8,4.2,2.7,5.8c0.5,0.4,0.9,1.4,0.9,2.1c-0.2,1.3-0.4,2.5-0.6,3.7c-0.8-0.2-1-0.8-1.9-0.9
		c-0.2,0-1,0-0.6,0.7c0.3,0.7-0.4,0.7-0.9,0.7c-0.5,0-1.4-0.2-2-0.2c-0.7,0-1.4,0.4-2.1,0.4c-11.9,0.1-25.6,0.4-39.8,0.7
		c-0.1-0.4-0.3-0.8-0.5-1.2c-1.4-3.4-2.3-7-3.1-10.6c-0.5-2-0.4-4.1-0.7-6.1c-0.4-3.1-0.8-6.1,0-9.2c0.2-0.8,0.4-1.7,0.3-2.5
		c-0.2-1.1-0.5-2.4-1.3-3c-0.5-0.4-1.8,0.2-2.8,0.3c0,0.2,0,0.4,0.1,0.5c0.5,0.2,1,0.4,1.5,0.6c0,2.8-0.9,4.6-2.5,5.1
		c-0.1-0.8-0.2-1.5-0.3-2.2c-0.6-2.4-0.5-4.9-2.3-7c-0.8-0.9-1.5-2.3-2.8-1.5c-1.4,0.9,0,2,0.5,2.9c1,2.1,0.7,4.2,0.5,6.4
		c-0.4-0.2-0.7-0.4-0.8-0.7c-1.7-2.7-3.4-5.4-5.2-8.1c-0.3-0.5-1.3-0.5-2-0.7c-0.1,0.7-0.4,1.5-0.2,2.2c0.2,0.7,0.8,1.4,1.2,2.1
		c1,2.1,1.9,4.2,2.9,6.3c-0.2,0.1-0.3,0.2-0.5,0.3c-0.3-0.3-0.6-0.6-0.9-0.9c-1.5-1.7-3-3.5-4.6-5.1c-0.4-0.4-1.3-0.4-2-0.6
		c0,0.7-0.2,1.4-0.1,2.1c0.2,0.6,0.7,1.2,1,1.8c1.5,2.6,3.3,5.2,4.3,8c1.6,4.3-1.1,6.9-5.4,6c-0.8-0.2-1.7-0.1-2.5,0
		c-1.2,0.3-1.1,1.3-0.4,1.8c1.3,0.8,2.7,1.5,4.1,2c1.7,0.6,3.4,0.8,5.1,1.4c4.1,1.4,6.3,4.2,6.7,8.5c0,0.5,0.1,1,0.2,1.5
		c-10.9,0.2-21.9,0.5-32.6,0.7c-15.1,0.3-27.9-1-39.5-2.4c0.1-0.7,0.1-1.5,0.3-2.2c0.2-1.5,0.3-1.1,0.6-2.6c0.2-0.9,1.3-0.1,1.5-1
		c0.5-1.6-0.8-3.4-0.2-6.3c0.6-2.5,2.5-4.4,5.3-5.5c1.9-0.8,3.6-2.2,5.5-3.2c3-1.6,6.2-2.6,9.5-3.4c0.3-0.1,1.5,0.8,1,3.2
		c-0.3,1.4,1,2.2,1.3,2.1c0.4-0.1,1-0.1,1.3-1.6c0.3-1.5-2.1-3.7,0.5-4.4c1.6-0.4,3.4-0.5,4.6-1.7c1.8-1.8,4.2-2.4,6.4-3.2
		c0.9-0.3,1.7-1.3,1.6-2.2c-0.3-2-2.2-3.2-4.6-3c-2.8,0.2-5.4,0.9-7.8,2.3c-0.3,0.2-0.6,0.2-0.9,0.2c-0.9,0.1-1.8,0.1-2.7,0.2
		c-5.1,1.1-8.5-1.4-10.7-5c-2.7-4.3-2.5-8.9-0.8-13.3c2-5.2,4.4-10.3,6.6-15.4c0.9-2,1.9-3.9,2.7-6c0.4-1,0.4-2.1,0.4-3.2
		c0-0.7-1.8-2.2-2.2-1.9c-1.1,0.7-2.4,1.2-3,2.2c-2.8,4.7-5.3,9.5-7.9,14.2c-0.9,1.7-1.7,3.4-2.5,5.1c-0.5,1-1.2,1.5-2.2,1.3
		c-1.1-0.3-0.8-1.4-0.8-2.1c0.1-1.7,0.3-3.4,0.6-5.2c0.9-5.8,2.1-11.5,4-17.1c0.3-1.1,0.6-2.3,0.4-3.4c-0.1-1.3-1.9-2.5-3.2-2.4
		c-1.8,0.1-2.6,1.1-3.1,2.8c-0.7,2.6-1.5,5.2-2.3,7.8c-0.8,2.8-1.7,5.6-2.5,8.4c-0.5,1.8-0.6,3.7-0.9,5.6c-0.3,1.7-0.6,3.4-0.8,5
		c-1.4,0.2-1.9-0.7-2.3-1.6c-0.8-1.9-1.6-3.9-2.3-5.8c-0.2-0.4-0.2-0.8-0.2-1.2c0.6,0.1,1.1,0.2,1.5,0.3c0-0.1,0.1-0.2,0.1-0.4
		c-0.5-0.2-1-0.5-1.7-0.7c0-0.1,0-0.4,0-0.5c0.4-0.2,0.7-0.4,1.3-0.7c-0.7-0.2-1-0.3-1.5-0.5c0.6-1.9-0.7-3.8,0.5-5.6
		c-0.8-2,0.3-3.7,0.4-5.8c0-0.2-0.1-0.6-0.3-0.9c-0.4-0.8-0.8-2-1.5-2.2c-0.9-0.3-2.4-0.2-3.1,0.3c-0.8,0.6-1.2,1.9-1.4,3
		c-0.5,3.4-0.9,6.8-1.1,10.3c-0.1,1.8,0.1,3.7,0.4,5.6c0.5,3.4,1.2,6.8,1.8,10.2c0.2,1.1-0.3,1.6-1.3,1.1c-0.8-0.4-1.5-1.1-2.1-1.8
		c-1.1-1.4-2.2-2.8-3.3-4.3c-0.3-0.4-0.3-1.1-0.5-1.6c-0.2-0.6-0.7-1.1-0.8-1.7c-0.1-0.9,0-1.9-0.1-2.8c-0.1-0.6-0.2-1.2-0.4-1.7
		c-0.7-1.3-2-1.7-3.4-1.7c-2,3.5-1.9,6.5-0.9,9.5c1.1,2.9,2.5,5.7,4.1,8.3c2,3.3,3.2,6.8,3.5,10.6c0.3,2.9,0.8,5.7,1.1,8.6
		c0.4,3.4,1.8,6.6,1.8,10.2c0,3.3-0.3,6.6-1.2,9.7c-0.6,2.1-1.1,4.3-1.6,6.4c-7.9-0.7-15.6-1-23.4-0.2c-4.4,0.4-8.1,1.2-11.5,2.2
		c-0.3-1.3-0.6-2.5-0.9-3.8c-0.3-1-1.1-1.9-1.1-2.8c-0.2-4.2-1.6-8.1-3-12c-1.3-3.7-2.2-7.6-2.6-11.5c-0.4-3.4,0.2-6.9,0.3-10.4
		c0-0.4-0.3-1.1-0.5-1.1c-0.5,0-1.1,0.2-1.3,0.5c-0.3,0.4-0.5,1.1-0.6,1.7c-0.5,2.2-0.9,4.4-1.4,6.8c-1.7-1.2-3.1-2.3-4.5-3.2
		c-0.4-0.2-1,0-1.5,0c0.1,0.5,0,1.2,0.2,1.6c1,1.1,2.1,2.1,3.1,3.2c0.4,0.4,0.5,1,0.9,1.7c-2.5-0.8-4.6-1.5-6.8-2.2
		c-0.3-0.1-1,0.2-1.1,0.4c-0.1,0.4,0,1,0.3,1.3c0.3,0.3,0.8,0.4,1.2,0.6c2.5,0.9,4.9,2,5.5,3.7c-1.1,1-1.9,1.8-2.7,2.5
		c0.3,0.3,0.5,0.6,0.8,1c-1.4-0.2-2.8-0.4-4.2-0.5c-0.5,0-0.9,0.5-1.4,0.8c0.3,0.3,0.4,0.8,0.8,1c1.6,0.6,3.1,1.3,4.7,1.4
		c1.7,0.1,2.1,0.7,2.2,2.3c0.2,2.2,0.8,4.2,2.7,5.8c0.5,0.4,0.9,1.4,0.9,2.1c-0.6,4.2-1.3,8.5-2,12.7c-7.2,1.8-15.6,2.9-28.8,1.4
		c-16.4-1.8-18.6,0-18.6,0v0c-7.5,0-30.4,0-38.1-1.9c-9.2-2.3-14.6-14.6-18.4-17.7c-3.8-3.1-0.2-8.5-0.2-8.5
		c-2.6-4.2,0.2-8.8-5.7-8.8c-16-0.4-32-0.8-47.9-1.3c-0.6-1.6-1-3-1.5-4.3c-0.2,0.1-0.4,0.1-0.6,0.2c0.2,1,0.4,2,0.6,3.5
		c-23.4-0.8-46-6.8-69.2-9c-15.7,3.6-32.2,2.4-48.1,4.8c0.2-1.7,0.4-3.5,0.6-5.3c-0.3,0-0.5-0.1-0.8-0.1c-0.4,1.3-0.7,2.6-1.1,3.9
		c-0.6-3.3-2.2-8.4,2.8-8.8c6.2-0.6,12.3-1.7,18.4-2.5c6.7-0.9,13.5-1.7,20.2-2.5c7.5-0.9,15-2.8,22.6-0.1c13.4,3.6,27.3,5.5,41,8
		c6.8,1.1,13.4,2.7,20.6,1.6c11.5-1.2,23,0.9,34.7,2.3c0-2.7,0-4.3,0-5.9c1.8,4.3,6,3.5,9.8,4.1c0.5,0.1,1.5-0.2,1.5-0.4
		c0.2-3.8,2.8-1.8,4.4-1.7c2.2,0,4.5,0.3,6.7,0.5c0-0.3,0-0.6,0-0.8c-13.3-3-26.6-6-40.6-9.2c1.5-0.9,2.7-1.6,4.6-2.7
		c-4.5,1.2-7.4-2-11.8-1c-25.2,5.5-50-5.6-74.3-10.7c-1.5-0.4-3-1.8-4.4-1.6c-11.7,1.4-23.2,3.4-34.8,5.1c-0.2-1.4-0.4-2.3-0.5-3.4
		c-0.3,1.2-0.5,2.1-0.9,3.5c-0.5-1.3-0.8-1.9-1.2-2.9c-0.5,1.4-0.8,2.4-1.1,3.3c-0.2,0-0.4,0-0.6-0.1c-0.1-2.3-0.2-4.6-0.4-7.2
		c-1.1,2.9,1.2,6.5-3.1,8.8c0-3.3,0-6,0-8.6c-0.3,0-0.5,0-0.8,0c0,2.4,0,4.8,0,7.4c-2.5-1.9,1.3-6.8-4.1-7.7
		c3.6-0.8,7.2-1.6,10.8-2.4c7.3-1.2,14.8-1.7,22.2-2.6c4.9-0.6,9.9-2.4,14.6-1.9c9.5,1.2,18.9,3.9,28.2,6.1c7,1.7,14.5,2.3,20.7,5.5
		c15.4,7.5,30.1-2.5,47.3,4.5c3.1-5.3,8.5-2.5,12.7-3.7c0.3-3.1-1.4-6.6-4.7-5.2c0.9,0.6,1.8,1.3,2.7,1.9c-4.7-0.4-9-1.7-13.4-2.8
		c-3.7-0.9-7.6-1.3-7.7-7.2c-1.6,2.3-2.6,4.8-3.8,5c-6.7,0.9-13,4.5-20.4,1.3c-8.7-3.8-18.1-5.9-27.2-8.8c-5.3-1.8-10.8-3.2-16-5.2
		c5.7-1.3,9.4-6.6,14.2-9.8c0.5,0.7,1.6,2.2,1.7,2.2c3.8-2.4,3.5,1.6,4.5,3c3.3,3.5,8,17.8,13.9,12.6c-3.3-4.4-6.2-8.3-9-12.1
		c5.9-1,11.5-1.9,18.4-3c-2.6-5.1-5.9-6.2-11.1-6.9c2.2,1.2,4.5,2.4,6.7,3.5c0,0.1-0.1,0.3-0.1,0.4c-4.9-1.4-8.5-2.6-13.7-4.5
		c1.5-0.5,2.2-0.8,2.9-1c-4.6-1.9-8.2-3.6-11.4-7.8c-4,4.8-10.8,10.4-13.8,16.1c-1.4,3.3-4,3.7-5.7,6.2c-2.5-1.1-5.2-3.4-7.6-3.1
		c-3.3,0.4-5.5-0.2-5.6-3.7c1.8,0.5,3.7,1,5.5,1.5c0.1-0.2,0.1-0.5,0.2-0.7c-4.1-1.4-8.2-2.8-12.6-4.4c-22.2,7.3-46.8,6.9-68.6,15.4
		c-6.4,3.8-13.3,1.4-19.5-1.6c0.3-0.3,0.5-0.5,0.8-0.8c-3.8-2.6-5.8-6.2-7.7-10.4c1.2-0.1,2.5-0.2,3.7-0.3c-5-0.4-3.9-5-5-8.1
		c-4.8,9.1-7.7,20.6-19.3,22.3c-1.4,0.1-2.7,1.3-4,1.9c1.6,5.1,6.2,2.8,9,4.4c8.1,4.3-1.3,12.7,12.1,10c3.8-0.7,7.9,0,11.1-2.4
		c-0.4-2.2-0.7-4.4-1.1-6.6c1.2-0.1,2.4-0.3,4.3-0.5c-0.6,3.2-0.8,6-0.8,8.6c-3.9,3-8.5,2.7-13.1,2.6c-5.5,0.2-11,0.3-16.4,1
		c-6.4,2.8-13.2,5.1-20.4,5.2c-1.5,6.5,5.9,3.8,9.7,5.7c5.9,3.3,0.8,8.1-2.7,10.6c0.8,0.2,1.5,0.3,2.1,0.4c1.1-1,2.2-1.9,4-3.5
		c-0.3,1.5-0.5,2.2-0.7,3c13-1.3,25.9-2.7,38.8-4c0.1,0.5,0.2,0.9,0.3,1.4c-13.2,4.6-27.6,3-41.4,4.6c-0.4,0-0.8-0.6-1.1-1
		c-4.5,1.5-8.9,3-14.6,4.9c5.2,2.4,11.9,5.2,8.1,11.3c-6.4,10-18.9,23.3-28.9,28.5c-2.9,1.6-26.9,2-26.9,2c-3.9,0-7.4,0-7.8,0
		c-14.3,0-0.6-0.3-11.1,0.9c-15.3,1.6-13.3-1.6-20.3-1.6c-3.4,0-7.2-1-10.4-0.6c-1.1,0.1-1.6-0.6-2.7-0.6c-1.9,0-2.2,0.5-4.2,0.7
		c-1,0.1-1.8,0.9-2.7,0.5c-1-0.4,0.5-1.3,0.9-1.9c0.4-0.6,0.4-1.5-0.5-1.7c-0.4-0.1-1,0.2-1.3,0.9c-0.5,0.8-0.6,1.6-1.2,2.2
		c-0.6-0.8-1.1-1.5-1.3-2.4c-0.4-1.3-0.2-2.8-0.4-4.3c-0.5-3.3-0.7-6.7-1.6-9.8c-1.4-4.9-3.3-9.8-5.1-14.6c-0.5-1.4-0.3-2.6,0.4-3.8
		c1.4-2.3,2.5-4.6,3-7.2c0.8-4.4,1.8-8.8,2.7-13.3c0.1-0.4-0.3-1.2-0.7-1.5c-0.3-0.2-1-0.1-1.4,0.1c-1.5,0.8-1.7,2.3-2,3.8
		c-0.7,4-2.1,7.7-5.2,10.8c0-2.1,0-4.1,0-6.2c0-3,0.1-5.9-0.1-8.9c0-0.5-0.7-1.4-1.1-1.4c-0.6,0-1.4,0.5-1.6,1
		c-0.4,0.9-0.5,1.9-0.7,2.9c-0.3,1.9-0.4,3.8-0.8,5.6c-0.6,2.7-1.2,5.5-0.5,8.3c0.2,0.9,0.1,1.9,0,2.9c-0.4,3.5-1.3,6.9-3.6,9.7
		c-0.9,1.1-1.8,2.4-3.3,2.1c-2.3-0.4-4.6-1-6.9-1.7c-0.5-0.1-1.1-1-1.4-0.9c-1.8,0.5-3.6,1-5.2,1.8c-0.6,0.3-0.9,1.7-0.9,2.6
		c0,0.3,1.2,0.7,1.8,1c0.1,0.1,0.3,0.1,0.5,0.1c3.8,0.7,7.3,2.7,11.2,3.4c1.4,0.2,2.7,1.6,4,2.5c1.2,0.9,2.4,1.8,3.5,2.7
		c0.4,0.3,0.7,0.8,1.2,1.3c0.8-0.5,2.3,0.1,2.3,1.2c0,1.4-0.1,2.8-0.2,4.3c-0.1,0.9,0.1,1.8-1.2,2.3c-0.8,0.3-0.5,1.5,0.2,1.7
		c-0.2,1.5-0.4,3-0.6,4.6c-1.2-0.2-2.5-0.7-3.1-1.4c-0.6-0.7-2.4-1.4-2.9-0.2c-0.2,0.6-0.1,1.3,1.8,1.6c1.2,0.2,1,2-2,1.4
		c-1.4-0.3-2.1,1-3.9,0.5c-0.6-0.2-2.6-0.4-3.1-0.2c-1.5,0.6-2.5,1.1-3.1,1.1c-9.9,0.7-17.6-0.6-27.8,1.1c-1.5,0.2-1.7-0.4-3-0.6
		c-0.8-0.1-3.3,0.7-4.1,0.8c-7.8,0.7-9.8,0.4-14.9-0.2c-1.3-0.2-1.1-0.9-2.6-0.9c-1,0-2.1,0.5-2.7,0.7c-0.1,0-0.2,0-0.4,0
		c-1.1,0-0.9-1.1-0.4-1.6c1.1-1-0.3-1.7-1.5-0.7c-0.5,0.4-0.8,1.2-1.4,1.5c-0.4,0.3-1.2,0.3-1.6,0.1c-0.4-0.2-0.7-0.9-0.6-1.4
		c0.2-1.7,0.7-3.3,0.7-4.9c0.1-5,2.3-9.1,4.8-13.2c1.4-2.2,2.5-4.2,3.3-6.6c0.1-0.2,0.3,0.3,0.7,0.1c0.6-0.3,0.3-0.8,0.2-0.9
		c-0.2-0.7-0.2-1.4-0.1-1.7c0.5-1.2,1.1-2.2,1.9-3.3c1.7-2.4,3.3-4.8,4.9-7.3c0.8-1.2,0.6-2.2-0.5-3c-1.1-0.8-2.2-0.6-3.1,0.3
		c-1.2,1.2-2.2,2.6-3.3,4c-1,1.4-1.9,3-3,4.3c-1.1,1.3-2.1,0.1-3-0.4c-1-0.5-0.7-1.2-0.3-2.1c0.4-0.8,0.6-1.7,0.8-2.5
		c0-0.2-0.3-0.6-0.6-0.7c-0.2-0.1-0.6,0.1-0.8,0.3c-0.2,0.2-0.4,0.5-0.6,0.9c-0.5-1.3-1-2.4-1.3-3.5c-0.3-1.1-0.3-2.4-0.4-3.5
		c-0.1-0.6-0.3-1.3-0.3-1.9c0.2-1.9,0.6-3.9,0.9-5.8c0.1-0.7,0.4-1.4,0.3-2.1c-0.2-0.8-0.7-1.4-1.1-2.1c-0.5,0.4-1,0.8-1.6,1.3
		c-1.2-1-2.1-0.6-2.4,1.1c-0.3,1.5-0.4,3.1-0.9,4.6c-1.3,3.7-0.7,7.4-0.4,11.1c0.2,1.7,0.7,3.4,0.8,5.1c0.1,2.5,0,5-0.2,7.4
		c-0.1,1.9-0.2,3.9-0.9,5.6c-3,7-6.2,13.8-9.4,20.7c-0.1,0.2-0.3,0.3-0.6,0.4c-3.7-0.5-3.7-2.4-5.4-1.7c-1.7,0.7,0.4,1.7-0.4,2.3
		c-0.6,0.5-1.8,0.7-3.5,0.5c-8.7-1.2-16.7-1.3-21.8-1.9c-1.4-0.2-1.5-1.2-3.7-1.1c-3.4,0.2-4.6,0.6-7.9-0.3c-0.8-0.2-0.9-0.5-0.5-1
		c0.4-0.4,1-1.2,0.3-1.5c-0.5-0.3-1.2-0.3-1.5,0.6c-0.4,1.3-1.5,1.4-1.8,1.3c0,0-0.1,0-0.1,0c0-0.5,0-1-0.1-1.5
		c-0.4-3.6-0.1-7.4,0.1-11c0.1-2,0.8-4,1.1-6.1c0.5-3.1,1-6.1,2.7-8.8c0.5-0.7,0.9-1.6,1-2.4c0.1-1.1,0.2-2.4-0.4-3.3
		c-0.3-0.5-1.8-0.3-2.8-0.5c0,0.2-0.1,0.4-0.1,0.5c0.4,0.3,0.9,0.7,1.3,1c-0.9,2.7-2.2,4.2-3.9,4.2c0.1-0.8,0.3-1.5,0.3-2.2
		c0.1-2.4,0.9-4.9-0.2-7.3c-0.5-1.1-0.8-2.6-2.2-2.2c-1.6,0.4-0.6,1.9-0.4,2.9c0.4,2.3-0.5,4.3-1.4,6.3c-0.3-0.3-0.5-0.6-0.6-0.9
		c-0.9-3.1-1.7-6.2-2.6-9.2c-0.2-0.5-1.1-0.8-1.7-1.2c-0.3,0.7-0.8,1.3-0.9,2c-0.1,0.8,0.4,1.5,0.5,2.3c0.3,2.3,0.6,4.5,0.9,6.8
		c-0.2,0-0.4,0.1-0.6,0.1c-0.2-0.4-0.4-0.7-0.6-1.1c-1-2.1-1.8-4.2-2.9-6.2c-0.3-0.5-1.1-0.8-1.7-1.2c-0.2,0.7-0.6,1.3-0.7,2
		c0,0.7,0.3,1.3,0.5,2c0.7,3,1.7,5.9,1.8,8.9c0.3,4.5-3,6.3-6.9,4.1c-0.7-0.4-1.6-0.6-2.4-0.7c-1.2-0.1-1.5,0.9-0.9,1.6
		c1,1.2,2.2,2.2,3.4,3.1c0.1,0,0.2,0.3,0.2,0.8c0,0.8-0.3,2.2-0.5,2.8c-0.5,1.2,0.1,1.8,0.6,1.9c0.5,0,1-0.3,0.7-1.6
		c-0.1-0.6,0.1-1.7,0.4-2.2c0.2-0.4,0.4-0.5,0.5-0.4c0.9,0.5,1.7,1,2.5,1.6c3.5,2.5,4.8,5.9,3.9,10.1c-0.3,1.5-0.4,3-0.4,4.5
		c-2-0.1-3.2-0.9-3.6-1.9c-0.5-1.2-1.2-2.1-2.3-1.4c-1.4,0.9-0.2,2.1,0.7,2.5c0.7,0.3,0.5,1.1-0.7,1.3c-6.2,0.6-15.3-2-21.8-2.1
		c-9-0.1-16.8,1.9-26.7,2.2c-2.8,0.1-0.1-1.9-4.7-1.2c-2.3,0.3-5.8,1.3-8,1.6c-1.3,0.2-2.6-0.3-5.2-0.3c-1.1,0-0.3-0.4-1.6-0.6
		c-1-0.2-1.2,0.6-1.6,0.6c-1-0.1-1.6-0.3-2.1-0.6c-0.9-0.9,3-3.1,0.8-4.3c-2.1-1.1-1.9,4-3.9,4.5c0,0,0,0,0,0
		c-0.1-0.8-0.1-1.7-0.1-2.5c0-2.5,0-4.9,0-7.4c0-3.8,1.1-6.9,4.6-9c1.8-1.1,3.2-2.8,4.9-4c3.9-2.8,8.2-4.8,12.7-6.2
		c0.3-0.1,0.8,1.6,1,4.2c0.2,2.2-1,5.1,0.9,5.1c1.1,0,0.7-1.2,0.5-3.1c-0.4-3.8,0-6.9,0.6-7.5c0.4-0.4,0.7-0.6,1.1-1.1
		c0.2-0.3,0.3-0.4,0.6-0.5c0.2-0.1,0.3,0.8,0.3,2c0,0.7-0.3,1.7,0.6,1.7c1,0,0.5-1.4,0.4-2.3c-0.2-1.3,0.1-2.8,0.2-2.9
		c1.3-1.1,2.5-1.6,4-2.3c0.9-0.5,1.5-1.5,1.2-2.4c-0.6-1.9-2.7-2.8-5-2.3c-2.7,0.6-5.2,1.7-7.3,3.6c-0.2,0.2-0.5,0.3-0.8,0.4
		c-0.9,0.2-1.8,0.3-2.6,0.7c-4.8,1.9-8.6,0-11.4-3.2c-3.3-3.8-3.9-8.3-2.9-13c1.1-5.5,2.6-10.9,4-16.3c0.5-2.1,1.2-4.2,1.7-6.3
		c0.2-1,0-2.1-0.2-3.2c-0.1-0.7-2.1-1.9-2.5-1.6c-1,0.8-2.2,1.6-2.6,2.7c-2,5.1-3.7,10.2-5.5,15.3c-0.6,1.8-1.1,3.6-1.7,5.5
		c-0.3,1-0.9,1.7-2,1.6c-1.1-0.1-1-1.2-1.1-2c-0.2-1.7-0.2-3.5-0.3-5.2c-0.1-5.9,0.2-11.7,1.1-17.5c0.2-1.1,0.2-2.3-0.1-3.4
		c-0.4-1.3-2.3-2.2-3.5-1.8c-1.7,0.4-2.4,1.5-2.6,3.3c-0.3,2.7-0.6,5.3-1,8c-0.4,2.9-0.8,5.8-1,8.7c-0.2,1.9,0,3.8,0,5.6
		c0,1.7,0,3.4,0,5.1c-1.4,0.4-2-0.4-2.5-1.2c-1.1-1.8-2.2-3.6-3.3-5.4c-0.2-0.4-0.3-0.8-0.4-1.1c0.6,0,1.1,0,1.5,0
		c0-0.1,0-0.3,0-0.4c-0.6-0.1-1.1-0.3-1.8-0.4c0-0.1-0.1-0.4-0.1-0.5c0.4-0.3,0.7-0.5,1.2-0.9c-0.7-0.1-1.1-0.2-1.5-0.2
		c0.2-1.9-1.4-3.7-0.5-5.6c-1.1-1.8-0.4-3.7-0.5-5.7c-0.1-0.2-0.2-0.6-0.4-0.9c-0.6-0.7-1.1-1.8-1.8-2c-0.9-0.2-2.4,0.1-3,0.8
		c-0.7,0.7-0.9,2.1-0.9,3.2c0.1,3.4,0.2,6.9,0.6,10.3c0.2,1.8,0.7,3.7,1.3,5.4c1.1,3.3,2.3,6.6,3.4,9.8c0.4,1.1-0.1,1.7-1.2,1.3
		c-0.8-0.3-1.6-0.9-2.3-1.5c-1.4-1.2-2.7-2.4-3.9-3.7c-0.4-0.4-0.5-1-0.8-1.5c-0.3-0.5-0.9-1-1.1-1.6c-0.3-0.9-0.3-1.8-0.6-2.7
		c-0.1-0.6-0.4-1.2-0.7-1.6c-0.9-1.2-2.2-1.3-3.6-1.1c-1.4,3.8-0.9,6.8,0.7,9.5c1.5,2.7,3.4,5.2,5.4,7.5c2.5,2.9,4.2,6.2,5.2,9.9
		c0.7,2.8,1.7,5.5,2.5,8.3c0.9,3.3,2.8,6.2,3.4,9.7c0.3,1.8,0.6,3.7,0.5,5.5c0,2.2-1.2,2.6-1.2,3.1c0,0.9,0.5,1.3,1.1,1.1
		c-0.2,1.9-0.3,3.7-0.4,5.6c-0.9-0.6-1.4-1.7-1.4-2.4c0-1.1-0.7-1.7-1.5-1.4c-0.7,0.3-0.3,1.5,0.3,2.4c0.5,0.8,0.6,1.4,0.1,1.9
		c-0.1,0.1-0.6,0.3-1.8,0.4c-0.8,0-1.8-0.2-2.9-0.3c-1.6-0.2-1.5,0.6-2.7,0.7c-4.4,0.2-11.4,0-17.5,0.1c-4.2,0-7.5-0.7-11-0.4
		c-1.9,0.2-4.6,1.3-5.7,1.1c-1.6-0.2,0.9-1.2-0.2-1.8c-1.1-0.5-0.8,0.7-2.2,0.9c-0.2,0-0.3,0-0.4,0.1c3.4-3.9,8.5-10,10.8-14.3
		c0.5-0.9,0.8-1.4,1.2-2.4c0.1-0.3,0.3,0,0.5-0.2c0.4-0.2,0.2-0.6,0.2-0.8c-0.1-0.3,0-0.8,0.1-1.3c0.3-1.1,0.5-2.2,0.5-3.4
		c0-2.7-0.3-7.9-2.7-12.9c-2.1-4.3-4.8-7.4-4.8-7.4s0.5-0.4,0.6-0.9c-0.4-0.7-2.2-2.2-3.8-3.3c-0.8-0.6-4.3-1.9-4.3-1.9
		s-0.2-1.1-1.3-1.9c-1.1-0.8-0.7-0.6-1.8-1c-0.5-0.2-4.4-1.2-8.9-2.5c-0.2-1.8-0.6-2.3-3.1-3.6c-2.6-1.4-3.8-1.4-5.4-1.6
		c-1.6-0.2-1.9-0.1-1.9-0.1s-1.8-1-2.6-1.6c-0.8-0.6-3.8-0.8-4,0.2c-0.1,0.7-0.8,0.7-1.1,1.2l-0.1-0.3l-5.5-1.8c0,0-1.1,1.7-1.1,2.7
		c0,0-21.4-5.9-22.5-6.3c-0.7,0.7-1,1.2-1,1.2l-5.5-1.3l-3.9-0.3l3.4,1.7l5.8,1.3l0.2,1.1l22.6,5.9l-0.4,2.9
		c1.4,0.4,4.2,1.3,4.2,1.3c-1.6,1.2-2,2.6-1,4.8c1,2.2,2,2.2,1.2,4.2c-0.8,2-1,6.1-2.8,8.3c-1.8,2.2-2,5.1-1.8,7.5
		c0.2,2.4,0.8,4.8,0.6,7.4c-0.2,2.6,0,5.4-0.2,7.8c-0.1,1.2-0.8,5.6-1.5,9.9c-0.7-0.2-1.1-1.1-1.3-2c-0.1-0.6-0.8-1-1.3-0.9
		c-0.8,0.2-0.8,1.1-0.4,1.5c0.8,0.7,1.1,1.4,0.8,1.6c-1,0.7-2.2,0.6-3.7,0.4c-2-0.3-7.6-1.3-9.1-1.6c-9.7-1.5-11.7-1.3-16.6-1.3
		c-0.5,0,0-0.7-1-1.1c-0.8-0.2-1.4,0.3-1.8,0.4c-0.2-0.3-0.3-0.7-0.3-1.1c-0.2-4.2-1.6-8.1-3-12c-1.3-3.7-2.2-7.6-2.6-11.5
		c-0.4-3.4,0.2-6.9,0.3-10.4c0-0.4-0.3-1.1-0.5-1.1c-0.5,0-1.1,0.2-1.3,0.5c-0.3,0.4-0.5,1.1-0.6,1.7c-0.5,2.2-0.9,4.4-1.4,6.8
		c-1.7-1.2-3.1-2.3-4.5-3.2c-0.4-0.2-1,0-1.5,0c0.1,0.5,0,1.2,0.2,1.6c1,1.1,2.1,2.1,3.1,3.2c0.4,0.4,0.5,1,0.9,1.7
		c-2.5-0.8-4.6-1.5-6.8-2.2c-0.3-0.1-1,0.2-1.1,0.4c-0.1,0.4,0,1,0.3,1.3c0.3,0.3,0.8,0.4,1.2,0.6c2.5,0.9,4.9,2,5.5,3.7
		c-1.1,1-1.9,1.8-2.7,2.5c0.3,0.3,0.5,0.6,0.8,1c-1.4-0.2-2.8-0.4-4.2-0.5c-0.5,0-0.9,0.5-1.4,0.8c0.3,0.3,0.4,0.8,0.8,1
		c1.6,0.6,3.1,1.3,4.7,1.4c1.7,0.1,2.1,0.7,2.2,2.3c0.2,2.2,0.8,4.2,2.7,5.8c0.5,0.4,0.9,1.4,0.9,2.1c-0.2,1.3-0.4,2.5-0.6,3.7
		c-0.8-0.2-1-0.8-1.9-0.9c-0.2,0-1,0-0.6,0.7c0.3,0.7-0.4,0.7-0.9,0.7c-0.5,0-1.4-0.2-2-0.2c-0.7,0-1.4,0.4-2.1,0.4
		c-11.9,0.1-25.6,0.4-39.8,0.7c-0.1-0.4-0.3-0.8-0.5-1.2c-1.4-3.4-2.3-7-3.1-10.6c-0.5-2-0.4-4.1-0.7-6.1c-0.4-3.1-0.8-6.1,0-9.2
		c0.2-0.8,0.4-1.7,0.3-2.5c-0.2-1.1-0.5-2.4-1.3-3c-0.5-0.4-1.8,0.2-2.8,0.3c0,0.2,0,0.4,0.1,0.5c0.5,0.2,1,0.4,1.5,0.6
		c0,2.8-0.9,4.6-2.5,5.1c-0.1-0.8-0.2-1.5-0.3-2.2c-0.6-2.4-0.5-4.9-2.3-7c-0.8-0.9-1.5-2.3-2.8-1.5c-1.4,0.9,0,2,0.5,2.9
		c1,2.1,0.7,4.2,0.5,6.4c-0.4-0.2-0.7-0.4-0.8-0.7c-1.7-2.7-3.4-5.4-5.2-8.1c-0.3-0.5-1.3-0.5-2-0.7c-0.1,0.7-0.4,1.5-0.2,2.2
		c0.2,0.7,0.8,1.4,1.2,2.1c1,2.1,1.9,4.2,2.9,6.3c-0.2,0.1-0.3,0.2-0.5,0.3c-0.3-0.3-0.6-0.6-0.9-0.9c-1.5-1.7-3-3.5-4.6-5.1
		c-0.4-0.4-1.3-0.4-2-0.6c0,0.7-0.2,1.4-0.1,2.1c0.2,0.6,0.7,1.2,1,1.8c1.5,2.6,3.3,5.2,4.3,8c1.6,4.3-1.1,6.9-5.4,6
		c-0.8-0.2-1.7-0.1-2.5,0c-1.2,0.3-1.1,1.3-0.4,1.8c1.3,0.8,2.7,1.5,4.1,2c1.7,0.6,3.4,0.8,5.1,1.4c4.1,1.4,6.3,4.2,6.7,8.5
		c0,0.5,0.1,1,0.2,1.5c-10.9,0.2-21.9,0.5-32.6,0.7c-15.1,0.3-27.9-1-39.5-2.4c0.1-0.7,0.1-1.5,0.3-2.2c0.2-1.5,0.3-1.1,0.6-2.6
		c0.2-0.9,1.3-0.1,1.5-1c0.5-1.6-0.8-3.4-0.2-6.3c0.6-2.5,2.5-4.4,5.3-5.5c1.9-0.8,3.6-2.2,5.5-3.2c3-1.6,6.2-2.6,9.5-3.4
		c0.3-0.1,1.5,0.8,1,3.2c-0.3,1.4,1,2.2,1.3,2.1c0.4-0.1,1-0.1,1.3-1.6s-2.1-3.7,0.5-4.4c1.6-0.4,3.4-0.5,4.6-1.7
		c1.8-1.8,4.2-2.4,6.4-3.2c0.9-0.3,1.7-1.3,1.5-2.2c-0.3-2-2.2-3.2-4.6-3c-2.8,0.2-5.4,0.9-7.8,2.3c-0.3,0.2-0.6,0.2-0.9,0.2
		c-0.9,0.1-1.8,0.1-2.7,0.2c-5.1,1.1-8.5-1.4-10.7-5c-2.7-4.3-2.5-8.9-0.8-13.3c2-5.2,4.4-10.3,6.6-15.4c0.9-2,1.9-3.9,2.7-6
		c0.4-1,0.4-2.1,0.4-3.2c0-0.7-1.8-2.2-2.2-1.9c-1.1,0.7-2.4,1.2-3,2.2c-2.8,4.7-5.3,9.5-7.9,14.2c-0.9,1.7-1.7,3.4-2.5,5.1
		c-0.5,1-1.2,1.5-2.2,1.3c-1.1-0.3-0.8-1.4-0.8-2.1c0.1-1.7,0.3-3.4,0.6-5.2c0.9-5.8,2.1-11.5,4-17.1c0.3-1.1,0.6-2.3,0.4-3.4
		c-0.1-1.3-1.9-2.5-3.2-2.4c-1.8,0.1-2.6,1.1-3.1,2.8c-0.7,2.6-1.5,5.2-2.3,7.8c-0.8,2.8-1.7,5.6-2.5,8.4c-0.5,1.8-0.6,3.7-0.9,5.6
		c-0.3,1.7-0.6,3.4-0.8,5c-1.4,0.2-1.9-0.7-2.3-1.6c-0.8-1.9-1.6-3.9-2.3-5.8c-0.2-0.4-0.2-0.8-0.2-1.2c0.6,0.1,1.1,0.2,1.5,0.3
		c0-0.1,0.1-0.2,0.1-0.4c-0.5-0.2-1-0.5-1.7-0.7c0-0.1,0-0.4,0-0.5c0.4-0.2,0.7-0.4,1.3-0.7c-0.7-0.2-1-0.3-1.5-0.5
		c0.6-1.9-0.7-3.8,0.5-5.6c-0.8-2,0.3-3.7,0.4-5.8c0-0.2-0.1-0.6-0.3-0.9c-0.4-0.8-0.8-2-1.5-2.2c-0.9-0.3-2.4-0.2-3.1,0.3
		c-0.8,0.6-1.2,1.9-1.4,3c-0.5,3.4-0.9,6.8-1.1,10.3c-0.1,1.8,0.1,3.7,0.4,5.6c0.5,3.4,1.2,6.8,1.8,10.2c0.2,1.1-0.3,1.6-1.3,1.1
		c-0.8-0.4-1.5-1.1-2.1-1.8c-1.1-1.4-2.2-2.8-3.3-4.3c-0.3-0.4-0.3-1.1-0.5-1.6c-0.2-0.6-0.7-1.1-0.8-1.7c-0.1-0.9,0-1.9-0.1-2.8
		c-0.1-0.6-0.2-1.2-0.4-1.7c-0.7-1.3-2-1.7-3.4-1.7c-2,3.5-1.9,6.5-0.9,9.5c1.1,2.9,2.5,5.7,4.1,8.3c2,3.3,3.2,6.8,3.5,10.6
		c0.3,2.9,0.8,5.7,1.1,8.6c0.4,3.4,1.8,6.6,1.8,10.2c0,3.3-0.3,6.6-1.2,9.7c-0.6,2.1-1.1,4.3-1.6,6.4c-7.9-0.7-15.6-1-23.4-0.2
		c-4.4,0.4-8.1,1.2-11.5,2.2c-0.3-1.3-0.6-2.5-0.9-3.8c-0.3-1-1.1-1.9-1.1-2.8c-0.2-4.2-1.6-8.1-3-12c-1.3-3.7-2.2-7.6-2.6-11.5
		c-0.4-3.4,0.2-6.9,0.3-10.4c0-0.4-0.3-1.1-0.5-1.1c-0.5,0-1.1,0.2-1.3,0.5c-0.3,0.4-0.5,1.1-0.6,1.7c-0.5,2.2-0.9,4.4-1.4,6.8
		c-1.7-1.2-3.1-2.3-4.5-3.2c-0.4-0.2-1,0-1.5,0c0.1,0.5,0,1.2,0.2,1.6c1,1.1,2.1,2.1,3.1,3.2c0.4,0.4,0.5,1,0.9,1.7
		c-2.5-0.8-4.6-1.5-6.8-2.2c-0.3-0.1-1,0.2-1.1,0.4c-0.1,0.4,0,1,0.3,1.3c0.3,0.3,0.8,0.4,1.2,0.6c2.5,0.9,4.9,2,5.5,3.7
		c-1.1,1-1.9,1.8-2.7,2.5c0.3,0.3,0.5,0.6,0.8,1c-1.4-0.2-2.8-0.4-4.2-0.5c-0.5,0-0.9,0.5-1.4,0.8c0.3,0.3,0.4,0.8,0.8,1
		c1.6,0.6,3.1,1.3,4.7,1.4c1.7,0.1,2.1,0.7,2.2,2.3c0.2,2.2,0.8,4.2,2.7,5.8c0.5,0.4,0.9,1.4,0.9,2.1c-0.6,4.2-1.3,8.5-2,12.7
		c-7.2,1.8-15.6,2.9-28.8,1.4c-11-1.2-117.6-1-117.6-1l-31.6,0V256h2046v-33.1h-48.6C1979.4,222.9,1962.4,222.9,1962,222.9z
		 M1548.9,171.9c-0.6-0.2-1.3-0.4-1.9-0.6c0.1-0.2,0.1-0.4,0.2-0.6c0.7,0.2,1.3,0.4,2,0.5C1549,171.4,1549,171.6,1548.9,171.9z
		 M1274.7,164.2c-0.6-0.3-1.2-0.6-1.8-0.9c0.1-0.2,0.2-0.4,0.3-0.5c0.6,0.3,1.2,0.6,1.8,0.9C1274.9,163.8,1274.8,164,1274.7,164.2z
		 M1094,163.2c-2,0.1-3.7,0.6-5.1,0.2c-7.5-3.3-11.8,7.9-18.8,2.4C1080.4,160,1090,158.7,1094,163.2z M995.2,150.8
		c0,0.3,0.1,0.7,0.1,1c-9.7,1.3-19.3,2.5-29,3.8c0-0.3-0.1-0.6-0.1-0.9C975.9,153.4,985.5,152.1,995.2,150.8z M478,171.9
		c-0.6-0.2-1.3-0.4-1.9-0.6c0.1-0.2,0.1-0.4,0.2-0.6c0.7,0.2,1.3,0.4,2,0.5C478.1,171.4,478.1,171.6,478,171.9z M203.8,164.2
		c-0.6-0.3-1.2-0.6-1.8-0.9c0.1-0.2,0.2-0.4,0.3-0.5c0.6,0.3,1.2,0.6,1.8,0.9C204,163.8,203.9,164,203.8,164.2z M221.7,196.2
		c-0.1,0.3-0.6,0.6-0.9,0.6c-0.9,0-1.9-1.1-1.7-1.8c0.1-0.3,0.4-0.4,0.6-0.6C220.9,194.7,221.9,195.5,221.7,196.2z M226.3,149.2
		c0.4,0.7,0.8,1.2,0.9,1.8c0,0.1-0.8,0.6-0.8,0.6c-0.5-0.4-0.9-1-1.3-1.5C225.4,149.8,225.7,149.6,226.3,149.2z M439.8,221.7
		c-1,0.6-0.3,1.3-0.7,1.4c-4.8,0.7-6.2,1.2-10.8,1.2c-0.6,0,0.4-0.7-0.9-0.9c-0.7-0.1-1.6,0.6-2.2,0.5c-0.4,0-1.2,0.1-1.7-0.4
		c-0.4-0.4,0-0.9,1.1-1.7c0.6-0.4,0.9-1.7,0-2c-1.7-0.7-2,0.5-2.4,1.6c-0.4,1.1-1.7,1.7-2.6,1.8c-1-5-2.2-11-2.7-12.4
		c-0.8-2.6-1.4-5.8-1-8.2c0.4-2.4-0.6-5.4,2.8-8.4c3.4-3,6.2-7.2,8.6-8.8c2.4-1.6,3.2-2.6,3.4-3.6c0.2-1-0.4-2-0.4-4.6
		c0-0.1,0-0.2,0-0.4c3.5,0.8,6.4,1.4,7.1,1.4l1.1-0.1l1.4-0.5c0,0,2.4,0.3,4.1,1.6c1.2,0.9,2.1,1.9,2.6,2.7c0.2-0.2,0.6-0.5,0.6-0.5
		s0,0,0.8,0.8c0.8,0.8,3.5,6.4,4.4,8c0.9,1.6,1.5,7.3,1.6,10.1c0.1,3-0.6,4.7-2.6,8.4c-1.9,3.5-6.9,9.7-10.2,13.6
		C440.7,222,440.2,221.4,439.8,221.7z M497.8,153.4c0.5,0.6,0.9,1.1,1.2,1.6c0,0.1-0.7,0.8-0.7,0.7c-0.6-0.4-1-0.8-1.5-1.3
		C497,154.2,497.3,153.9,497.8,153.4z M500,201.3c-0.9,0.1-2.1-0.8-2-1.5c0-0.3,0.4-0.5,0.5-0.6c1.4,0,2.4,0.7,2.3,1.4
		C500.8,200.8,500.3,201.3,500,201.3z M1001.5,120.6c3.6-0.8,5.1,0.3,6.4,4.1c-6.2,1.4-12.1,2.8-18,4.1c-0.1-0.3-0.2-0.7-0.3-1
		c3.8-1.1,7.6-2.2,11.4-3.2c-0.1-0.4-0.2-0.9-0.3-1.3c-18.9,3.4-37.9,6.9-56.8,10.3c-0.1-0.4-0.1-0.7-0.2-1.1
		C962.9,128.1,982.3,124.8,1001.5,120.6z M961.4,145.1c0,3,0,5.2,0,7.5c-0.2,0-0.4,0-0.6,0c-0.2-1.7-0.4-3.4-0.6-5.5
		c-0.7,3.4,0.7,7.4-3.8,7.4c-7.6,0.6-15.1,1.5-22.7,2.2c0-2,0-4.1,0-6.3C943.2,149,952.3,147.1,961.4,145.1z M933.6,156.9
		c-0.5,3.3,2.9,0.7,3.7,2.3c-4,0.4-7.9,0.9-11.9,1.3c-0.1-0.3-0.2-0.5-0.2-0.8C928,158.7,930.8,157.8,933.6,156.9z M948.5,175
		c-0.3-0.4-0.5-0.9-1.1-1.8c-0.5,2.9-1,5.4-1.5,8.1c-3.5-0.4-7.8,2-10-2.7c-1.8,2.8-4.5,0.9-7.5,0.3c-0.1,0.1-0.5,0.8-1,1.6
		c-0.3-1-0.5-1.8-0.7-2.7c-0.5,1.1-1,2-1.8,3.8c0.3-2.9,0.5-4.8,0.8-7.1c-1.7,0.3-3,0.6-4.4,0.8c-0.1-0.5-0.1-1.1-0.2-1.6
		c5-0.5,10-1.1,14.9-1.6c0.2,1,0.4,1.7,0.6,2.8c1.7-4.6,4.9-5.4,7.9-2.7C947.8,170.9,949.3,171.1,948.5,175z M1292.6,196.2
		c-0.1,0.3-0.6,0.6-0.9,0.6c-0.9,0-1.9-1.1-1.7-1.8c0.1-0.3,0.4-0.4,0.6-0.6C1291.9,194.7,1292.8,195.5,1292.6,196.2z M1297.2,149.2
		c0.4,0.7,0.8,1.2,0.9,1.8c0,0.1-0.8,0.6-0.8,0.6c-0.5-0.4-0.9-1-1.3-1.5C1296.4,149.8,1296.7,149.6,1297.2,149.2z M1510.7,221.7
		c-1,0.6-0.3,1.3-0.7,1.4c-4.8,0.7-6.2,1.2-10.8,1.2c-0.6,0,0.4-0.7-0.9-0.9c-0.7-0.1-1.6,0.6-2.2,0.5c-0.4,0-1.2,0.1-1.7-0.4
		c-0.4-0.4,0-0.9,1.1-1.7c0.6-0.4,0.9-1.7,0-2c-1.7-0.7-2,0.5-2.4,1.6c-0.4,1.1-1.7,1.7-2.6,1.8c-1-5-2.2-11-2.7-12.4
		c-0.8-2.6-1.4-5.8-1-8.2c0.4-2.4-0.6-5.4,2.8-8.4c3.4-3,6.2-7.2,8.6-8.8c2.4-1.6,3.2-2.6,3.4-3.6s-0.4-2-0.4-4.6c0-0.1,0-0.2,0-0.4
		c3.5,0.8,6.4,1.4,7.1,1.4l1.1-0.1l1.4-0.5c0,0,2.4,0.3,4.1,1.6c1.2,0.9,2.1,1.9,2.6,2.7c0.2-0.2,0.6-0.5,0.6-0.5s0,0,0.8,0.8
		c0.8,0.8,3.5,6.4,4.4,8c0.9,1.6,1.5,7.3,1.6,10.1c0.1,3-0.6,4.7-2.6,8.4c-1.9,3.5-6.9,9.7-10.2,13.6
		C1511.6,222,1511.2,221.4,1510.7,221.7z M1568.7,153.4c0.5,0.6,0.9,1.1,1.2,1.6c0,0.1-0.7,0.8-0.7,0.7c-0.6-0.4-1-0.8-1.5-1.3
		C1567.9,154.2,1568.2,153.9,1568.7,153.4z M1571,201.3c-0.9,0.1-2.1-0.8-2-1.5c0-0.3,0.4-0.5,0.5-0.6c1.4,0,2.4,0.7,2.3,1.4
		C1571.7,200.8,1571.3,201.3,1571,201.3z"/>
	<polygon points="1655,177.2 1654.8,177.1 1654,178.9 1654.2,179 1654.3,179.2 1654.7,179.3 1655.4,177.5 1655.1,177.3 	"/>
	<polygon points="1656.9,173.2 1657.2,173.4 1658,171.5 1657.6,171.4 1657.5,171.2 1657.3,171.1 1656.5,173 1656.8,173.1 	"/>
	<path d="M1684,186.8c0.2,0.7,0.7,1.1,1.4,0.9c1.7-0.4,3.3-0.7,5-1.1c0.7-0.2,1-0.7,0.9-1.4c-0.2-0.9-0.4-1.7-0.6-2.6
		c-0.2-0.9-0.4-1.7-0.6-2.6c-0.2-0.7-0.7-1.1-1.4-0.9c-1.7,0.4-3.3,0.7-5,1.1c-0.7,0.2-1.1,0.7-0.9,1.4
		C1683.3,183.3,1683.7,185,1684,186.8z M1688.8,179.2c0.6-0.1,1.1,0.1,1.2,0.8c0.3,1.6,0.7,3.2,1.1,4.8c0,0.1,0.2,0.7,0.1,0.7
		c-0.3-0.2-0.6-0.3-0.9-0.5c-0.2-0.1-0.3-0.5-0.4-0.9c-0.3-1.2-0.6-2.5-0.8-3.7c-0.1-0.6-0.6-0.9-1.2-0.8c-1,0.2-1.9,0.4-2.8,0.6
		c-0.2,0-0.3,0-0.5,0C1686,179.8,1687.4,179.5,1688.8,179.2z M1684.9,180.4c1-0.2,2.1-0.5,3.1-0.7c0.5-0.1,0.8,0.2,0.9,0.6
		c0.3,1.3,0.6,2.6,0.9,3.9c0.1,0.5-0.1,0.8-0.6,1c-1,0.2-2,0.4-3,0.7c-0.5,0.1-0.9-0.1-1-0.6c-0.1-0.6-0.3-1.3-0.4-1.9
		c-0.1-0.7-0.3-1.3-0.4-2C1684.2,180.9,1684.4,180.5,1684.9,180.4z"/>
	<polygon points="1689.3,160.2 1690.2,159.6 1689.8,159.1 1689.4,159.4 1689.2,159.1 1688.7,158.3 1689.1,158 1688.8,157.5 
		1687.9,158.1 1688.7,159.4 	"/>
	<polygon points="1750.6,152.1 1749.9,151.8 1750.1,151.3 1750.7,150 1751.4,150.2 1751.7,149.4 1750.2,148.8 1749.3,151 
		1748.8,152.3 1750.3,152.9 	"/>
	<polygon points="1687.3,158.4 1687.4,158.3 1687.5,158.2 1686.9,157.2 1686.7,157.3 1686.7,157.4 1686.5,157.5 1687.2,158.5 	"/>
	<polygon points="1654.1,175 1653.9,175.6 1653.1,175.3 1652.7,176.2 1654.4,176.9 1654.9,175.6 1656,173 1654.4,172.3 1654,173.2 
		1654.7,173.6 	"/>
	<polygon points="1749.6,148.3 1749.8,148.4 1750.6,146.7 1750.3,146.6 1750.1,146.6 1749.9,146.5 1749.2,148.2 1749.4,148.3 	"/>
	<rect x="1372.5" y="170" transform="matrix(0.3899 -0.9209 0.9209 0.3899 678.2864 1369.8757)" width="0.8" height="6.2"/>
	<path d="M1367.8,173.2l2.3,1l0.1-0.3l1.4,0.6l-0.2,0.4l1.2,0.5l0.2-0.4l1.4,0.6l-0.1,0.3l2.3,1c0.5,0.2,1.1,0,1.3-0.5l0.2-0.4
		l-0.4-0.2l3.3-7.7l0.3,0.1l0.2-0.4c0.2-0.5,0-1.1-0.5-1.3l-2.3-1l-0.2,0.4l-1.3-0.6l0.2-0.4l-1.2-0.5l-0.2,0.4l-1.4-0.6l0.2-0.4
		l-2.3-1c-0.5-0.2-1.1,0-1.3,0.5l-0.2,0.4l0.4,0.2l-3.3,7.7l-0.4-0.2l-0.2,0.4C1367.1,172.4,1367.3,173,1367.8,173.2z M1367.9,171.9
		l3.5-8.2c0.1-0.3,0.5-0.5,0.9-0.4l8.1,3.4c0.3,0.1,0.5,0.5,0.4,0.9l-3.5,8.2c-0.1,0.3-0.5,0.5-0.9,0.4l-8.1-3.4
		C1367.9,172.7,1367.7,172.3,1367.9,171.9z"/>
	<polygon points="1369.2,171.9 1369.4,172.1 1370.2,170.2 1369.9,170.1 1369.7,170.1 1369.4,170 1368.6,171.8 1369,172 	"/>
	<polygon points="1338.6,142.1 1338.5,142.4 1338.1,142.7 1339.6,145.1 1340,144.8 1340.2,144.6 1340.5,144.4 1338.9,141.9 	"/>
	<polygon points="1344.5,130.6 1344.8,130.6 1345.2,130.4 1343.7,127.9 1343.3,128.2 1343,128.2 1342.6,128.4 1344.2,130.8 	"/>
	<polygon points="1372.8,170.2 1372,169.9 1372.2,169.4 1372.9,167.8 1373.6,168.2 1374,167.3 1372.4,166.6 1371.4,168.9 
		1370.7,170.4 1372.4,171.1 	"/>
	<polygon points="1349.6,138.5 1349.9,138.5 1350.3,138.2 1348.7,135.8 1348.3,136 1348,136 1347.7,136.2 1349.3,138.7 	"/>
	<rect x="1340.1" y="140.4" transform="matrix(0.8396 -0.5432 0.5432 0.8396 139.0794 752.9748)" width="8.9" height="1.1"/>
	<polygon points="1520.7,146.9 1520.6,147.5 1519.5,147.5 1519.4,148.8 1521.9,149 1522.1,146.7 1522.4,143 1519.8,142.9 
		1519.7,144.3 1520.9,144.3 	"/>
	<path d="M1398.1,184.4c1.7,0.1,3.4,0.3,5.1,0.4c0.7,0.1,1.2-0.3,1.3-1.1c0.1-0.9,0.2-1.8,0.2-2.7c0.1-0.9,0.2-1.8,0.2-2.6
		c0.1-0.8-0.3-1.2-1.1-1.3c-1.7-0.1-3.4-0.3-5.1-0.4c-0.7-0.1-1.2,0.3-1.3,1.1c-0.2,1.8-0.3,3.6-0.5,5.3
		C1397,183.8,1397.4,184.3,1398.1,184.4z M1403.8,177.3c0.7,0.1,1,0.5,0.9,1.1c-0.1,1.6-0.3,3.2-0.4,4.9c0,0.1,0,0.7-0.1,0.7
		c-0.2-0.3-0.5-0.5-0.7-0.8c-0.2-0.2-0.1-0.5-0.1-1c0.1-1.3,0.2-2.5,0.3-3.8c0.1-0.7-0.3-1.1-1-1.1c-1-0.1-1.9-0.2-2.9-0.3
		c-0.2,0-0.3-0.1-0.5-0.1C1400.9,177,1402.4,177.2,1403.8,177.3z M1398.7,180c0.1-0.7,0.1-1.4,0.2-2c0-0.5,0.4-0.8,0.8-0.7
		c1.1,0.1,2.1,0.2,3.2,0.3c0.5,0.1,0.7,0.4,0.7,0.9c-0.1,1.3-0.2,2.7-0.3,4c0,0.5-0.4,0.8-0.9,0.7c-1-0.1-2-0.2-3.1-0.3
		c-0.5,0-0.8-0.4-0.7-0.9C1398.6,181.3,1398.7,180.7,1398.7,180z"/>
	<path d="M1408,153.9l0.2-0.1l2.7,4.2l-0.2,0.1l0.2,0.2c0.2,0.3,0.6,0.4,0.8,0.2l1.2-0.8l-0.1-0.2l0.8-0.5l0.1,0.2l0.7-0.4l-0.1-0.2
		l0.7-0.5l0.1,0.2l1.2-0.8c0.3-0.2,0.4-0.6,0.2-0.8l-0.2-0.2l-0.2,0.1l-2.7-4.2l0.2-0.1l-0.2-0.2c-0.2-0.3-0.6-0.4-0.8-0.2l-1.2,0.8
		l0.1,0.2l-0.7,0.5l-0.1-0.2l-0.7,0.4l0.1,0.2l-0.8,0.5l-0.1-0.2l-1.2,0.8c-0.3,0.2-0.4,0.6-0.2,0.8L1408,153.9z M1408.4,153.1
		l4.4-2.9c0.2-0.1,0.4-0.1,0.6,0.1l2.9,4.5c0.1,0.2,0.1,0.4-0.1,0.6l-4.4,2.9c-0.2,0.1-0.4,0.1-0.6-0.1l-2.9-4.5
		C1408.1,153.4,1408.2,153.2,1408.4,153.1z"/>
	<polygon points="1343.5,133.4 1344.7,135.3 1344.8,135.4 1344.9,135.6 1345.2,136.1 1344.2,136.8 1345,137.9 1347.2,136.5 
		1346.1,134.8 1343.9,131.5 1341.7,132.9 1342.5,134.1 	"/>
	<polygon points="1409.4,154.3 1409.5,154.2 1409.6,154.1 1409,153.1 1408.9,153.2 1408.8,153.3 1408.6,153.4 1409.3,154.4 	"/>
	<polygon points="1372.8,169.6 1373.7,170 1373.3,170.9 1374.3,171.3 1374.7,170.4 1375.6,170.7 1376,169.8 1375.1,169.4 
		1375.5,168.5 1374.5,168.1 1374.1,169 1373.2,168.6 	"/>
	<polygon points="1376.2,171.2 1376,171.6 1375.2,171.2 1374.8,172.1 1376.5,172.8 1377.1,171.3 1378.1,169 1376.5,168.3 
		1376.1,169.2 1376.8,169.5 	"/>
	<polygon points="1379,169.2 1379.3,169.3 1380.1,167.5 1379.8,167.4 1379.6,167.2 1379.4,167.1 1378.6,168.9 1378.9,169 	"/>
	<polygon points="1377.1,173.1 1376.9,173 1376.1,174.9 1376.3,175 1376.4,175.1 1376.8,175.3 1377.5,173.4 1377.2,173.3 	"/>
	<polygon points="1235.6,161 1236.2,161.2 1236,161.8 1236.6,162.1 1236.9,161.5 1237.5,161.8 1237.8,161.1 1237.2,160.8 
		1237.4,160.2 1236.8,159.9 1236.5,160.6 1235.9,160.3 	"/>
	<polygon points="1234.8,158.4 1235,158.5 1235.5,157.2 1235.3,157.2 1235.2,157.2 1235,157.1 1234.4,158.4 1234.7,158.5 	"/>
	<rect x="1235.4" y="161.2" transform="matrix(0.3897 -0.9209 0.9209 0.3897 603.5867 1237.6638)" width="0.5" height="4.3"/>
	<polygon points="1235.6,161.4 1235,161.2 1235.2,160.8 1235.6,159.7 1236.2,160 1236.4,159.3 1235.3,158.8 1234.6,160.6 
		1234.1,161.5 1235.3,162 	"/>
	<path d="M1211.1,181.7c2.1,0.7,4.1,1.4,6.2,2.1c0.9,0.3,1.6,0,1.9-0.9c0.4-1.1,0.7-2.2,1.1-3.3c0.4-1.1,0.7-2.1,1.1-3.2
		c0.3-0.9,0-1.6-1-2c-2-0.7-4.1-1.4-6.1-2.1c-0.9-0.3-1.6,0-1.9,0.9c-0.7,2.1-1.5,4.3-2.2,6.4
		C1209.8,180.7,1210.2,181.4,1211.1,181.7z M1220.3,174.7c0.8,0.3,1.1,0.9,0.8,1.7c-0.7,2-1.3,3.9-2,5.9c0,0.1-0.3,0.9-0.3,0.9
		c-0.2-0.4-0.5-0.7-0.7-1.2c-0.1-0.3,0-0.7,0.2-1.2c0.5-1.5,1-3.1,1.6-4.6c0.3-0.8,0-1.4-0.8-1.7c-1.2-0.4-2.3-0.8-3.5-1.2
		c-0.2-0.1-0.4-0.2-0.5-0.3C1216.8,173.5,1218.6,174.1,1220.3,174.7z M1212.4,178.9c0.3-0.8,0.5-1.6,0.8-2.4
		c0.3-0.8,0.6-1.6,0.8-2.5c0.2-0.6,0.7-0.8,1.2-0.6c1.3,0.4,2.6,0.9,3.9,1.3c0.6,0.2,0.8,0.7,0.6,1.3c-0.6,1.6-1.1,3.2-1.7,4.8
		c-0.2,0.6-0.7,0.8-1.3,0.6c-1.2-0.4-2.5-0.8-3.7-1.3C1212.4,180,1212.2,179.5,1212.4,178.9z"/>
	<polygon points="1233,162.6 1233.2,162.7 1233.7,161.4 1233.6,161.3 1233.4,161.3 1233.2,161.3 1232.7,162.5 1232.9,162.6 	"/>
	<polygon points="1340.3,138.3 1341.5,137.5 1342.3,138.7 1343.5,137.9 1342.7,136.7 1343.9,135.9 1343.1,134.7 1341.9,135.4 
		1341.2,134.3 1339.9,135.1 1340.7,136.2 1339.5,137 	"/>
	<path d="M1232.1,163.5l1.6,0.7l0.1-0.2l1,0.4l-0.1,0.2l0.9,0.4l0.1-0.2l0.9,0.4l-0.1,0.2l1.6,0.7c0.4,0.2,0.8,0,0.9-0.4l0.1-0.3
		l-0.3-0.1l2.3-5.4l0.2,0.1l0.1-0.3c0.2-0.4,0-0.8-0.4-0.9l-1.6-0.7l-0.1,0.3l-0.9-0.4l0.1-0.3l-0.9-0.4l-0.1,0.3l-1-0.4l0.1-0.3
		l-1.6-0.7c-0.4-0.2-0.8,0-0.9,0.4l-0.1,0.3l0.2,0.1l-2.3,5.4l-0.2-0.1l-0.1,0.3C1231.6,162.9,1231.7,163.4,1232.1,163.5z
		 M1232.1,162.6l2.4-5.8c0.1-0.2,0.4-0.4,0.6-0.3l5.7,2.4c0.2,0.1,0.4,0.4,0.3,0.6l-2.4,5.8c-0.1,0.2-0.4,0.4-0.6,0.3l-5.7-2.4
		C1232.1,163.1,1232,162.8,1232.1,162.6z"/>
	<polygon points="1237.9,162.1 1237.8,162.3 1237.3,162.1 1237,162.7 1238.2,163.2 1238.6,162.3 1239.3,160.6 1238.1,160.1 
		1237.9,160.7 1238.4,160.9 	"/>
	<polygon points="1338.4,139.6 1339.6,141.4 1341.8,140 1341,138.8 1340,139.5 1339.6,138.8 1338.3,136.8 1339.3,136.1 1338.5,135 
		1336.3,136.4 1338.4,139.6 	"/>
	<path d="M1331.6,136l0.5-0.3l6.6,10.2l-0.5,0.3l0.4,0.6c0.4,0.7,1.4,0.9,2,0.4l3-1.9l-0.3-0.5l1.9-1.2l0.3,0.5l1.6-1l-0.3-0.5
		l1.8-1.2l0.3,0.5l3-1.9c0.7-0.4,0.9-1.4,0.4-2l-0.4-0.6l-0.5,0.3l-6.6-10.2l0.5-0.3l-0.4-0.6c-0.4-0.7-1.4-0.9-2-0.4l-3,1.9
		l0.3,0.5l-1.7,1.1l-0.4-0.5l-1.6,1l0.4,0.5l-1.9,1.2l-0.3-0.5l-3,1.9c-0.7,0.4-0.9,1.4-0.4,2L1331.6,136z M1332.4,133.9l10.7-6.9
		c0.5-0.3,1.1-0.2,1.3,0.3l7,10.8c0.3,0.5,0.2,1.1-0.3,1.3l-10.7,6.9c-0.5,0.3-1.1,0.2-1.3-0.3l-7-10.8
		C1331.8,134.8,1331.9,134.2,1332.4,133.9z"/>
	<polygon points="1335,137 1335.1,136.7 1335.4,136.5 1333.9,134.1 1333.5,134.3 1333.4,134.6 1333,134.8 1334.6,137.3 	"/>
	<path d="M1317.1,171.3c1.2,2.5,2.5,5.1,3.7,7.6c0.5,1.1,1.5,1.4,2.5,0.9c2.4-1.2,4.8-2.4,7.3-3.6c1-0.5,1.4-1.4,0.9-2.5
		c-0.6-1.3-1.2-2.5-1.9-3.8c-0.6-1.3-1.2-2.5-1.8-3.8c-0.5-1.1-1.5-1.4-2.6-0.9c-2.4,1.2-4.8,2.4-7.2,3.5
		C1316.9,169.2,1316.6,170.2,1317.1,171.3z M1325.4,165.5c0.9-0.5,1.7-0.2,2.2,0.7c1.1,2.3,2.3,4.6,3.4,7c0,0.1,0.5,1,0.5,1
		c-0.6-0.2-1.1-0.2-1.6-0.5c-0.4-0.1-0.6-0.6-0.9-1.2c-0.9-1.8-1.8-3.6-2.7-5.4c-0.5-0.9-1.3-1.2-2.2-0.7c-1.4,0.7-2.8,1.3-4.1,2
		c-0.2,0.1-0.5,0.2-0.7,0.3C1321.2,167.5,1323.3,166.5,1325.4,165.5z M1319.8,168.8c1.5-0.8,3-1.5,4.5-2.2c0.7-0.3,1.3-0.1,1.6,0.6
		c0.9,1.9,1.9,3.8,2.8,5.7c0.3,0.7,0.1,1.3-0.6,1.7c-1.5,0.7-2.9,1.4-4.4,2.1c-0.7,0.4-1.4,0.1-1.7-0.6c-0.5-0.9-0.9-1.9-1.4-2.8
		c-0.5-1-0.9-1.9-1.4-2.9C1318.9,169.8,1319.1,169.1,1319.8,168.8z"/>
	<polygon points="1239.9,160.7 1240.1,160.8 1240.7,159.5 1240.4,159.4 1240.4,159.3 1240.2,159.2 1239.6,160.5 1239.8,160.6 	"/>
	<polygon points="1238.6,163.4 1238.4,163.4 1237.9,164.7 1238.1,164.7 1238.1,164.9 1238.4,164.9 1238.9,163.7 1238.7,163.6 	"/>
	<polygon points="1371.7,166 1371.9,166.1 1372.7,164.3 1372.5,164.2 1372.3,164.2 1371.9,164 1371.2,165.9 1371.5,166 	"/>
	<polygon points="1464.1,125 1464.3,125.1 1464.8,123.8 1464.7,123.8 1464.5,123.8 1464.3,123.7 1463.8,125 1464,125.1 	"/>
	<polygon points="1464.9,127.6 1465.5,127.8 1465.3,128.4 1465.9,128.7 1466.2,128.1 1466.8,128.4 1467.1,127.7 1466.5,127.4 
		1466.8,126.8 1466.1,126.5 1465.8,127.1 1465.2,126.9 	"/>
	<polygon points="1467.3,128.5 1467.3,128.6 1467.2,128.7 1467.1,128.9 1466.6,128.7 1466.3,129.3 1467.5,129.8 1467.9,128.8 
		1468.6,127.2 1467.5,126.7 1467.2,127.3 1467.7,127.5 	"/>
	<path d="M1461.4,130.1l1.6,0.7l0.1-0.2l1,0.4l-0.1,0.2l0.9,0.4l0.1-0.2l0.9,0.4l-0.1,0.2l1.6,0.7c0.4,0.2,0.8,0,0.9-0.4l0.1-0.3
		l-0.3-0.1l2.3-5.4l0.2,0.1l0.1-0.3c0.2-0.4,0-0.8-0.4-0.9l-1.6-0.7l-0.1,0.3l-0.9-0.4l0.1-0.3l-0.9-0.4l-0.1,0.3l-1-0.4l0.1-0.3
		l-1.6-0.7c-0.4-0.2-0.8,0-0.9,0.4l-0.1,0.3l0.2,0.1l-2.3,5.4l-0.2-0.1l-0.1,0.3C1460.9,129.5,1461.1,130,1461.4,130.1z
		 M1461.4,129.2l2.4-5.8c0.1-0.2,0.4-0.4,0.6-0.3l5.7,2.4c0.2,0.1,0.4,0.4,0.3,0.6l-2.4,5.8c-0.1,0.2-0.4,0.4-0.6,0.3l-5.7-2.4
		C1461.5,129.7,1461.3,129.4,1461.4,129.2z"/>
	<polygon points="1464.9,128 1464.3,127.8 1464.5,127.4 1465,126.3 1465.5,126.6 1465.8,125.9 1464.6,125.4 1463.9,127.1 
		1463.5,128.1 1464.6,128.6 	"/>
	<polygon points="1411.4,156.2 1412.3,155.6 1412,155.1 1411.5,155.4 1411.3,155 1410.8,154.2 1411.2,154 1410.9,153.5 1410,154.1 
		1410.9,155.4 	"/>
	<rect x="1464.7" y="127.8" transform="matrix(0.3897 -0.9209 0.9209 0.3897 774.2886 1428.4634)" width="0.5" height="4.3"/>
	<polygon points="1469.2,127.3 1469.4,127.4 1470,126.1 1469.8,126 1469.7,125.9 1469.5,125.8 1469,127.1 1469.1,127.2 	"/>
	<polygon points="1515.6,147.2 1514.4,147.1 1514.5,146.3 1514.7,143.9 1515.9,144 1515.9,142.6 1513.4,142.4 1513.1,146.1 
		1513,148.4 1515.5,148.6 	"/>
	<polygon points="1515.4,146.3 1516.8,146.4 1516.7,147.8 1518.2,147.9 1518.3,146.5 1519.7,146.6 1519.8,145.1 1518.4,145 
		1518.5,143.6 1517,143.5 1516.9,144.9 1515.5,144.8 	"/>
	<polygon points="1467.9,130 1467.7,130 1467.2,131.3 1467.4,131.3 1467.5,131.5 1467.7,131.5 1468.2,130.3 1468,130.2 	"/>
	
		<rect x="1516.6" y="146.6" transform="matrix(6.722920e-02 -0.9977 0.9977 6.722920e-02 1264.4888 1654.6373)" width="1.1" height="8.9"/>
	<path d="M1510.3,153.6l3.5,0.2l0-0.5l2.2,0.2l0,0.6l1.9,0.1l0-0.6l2.1,0.1l0,0.5l3.5,0.2c0.8,0.1,1.5-0.6,1.6-1.4l0-0.7l-0.6,0
		l0.8-12.1l0.5,0l0-0.7c0.1-0.8-0.6-1.5-1.4-1.6l-3.5-0.2l0,0.6l-2-0.1l0-0.7l-1.9-0.1l0,0.7l-2.2-0.2l0-0.6l-3.5-0.2
		c-0.8-0.1-1.5,0.6-1.6,1.4l0,0.7l0.6,0l-0.8,12.1l-0.6,0l0,0.7C1508.9,152.9,1509.5,153.6,1510.3,153.6z M1510.6,139
		c0-0.5,0.5-0.9,1-0.9l12.7,0.9c0.5,0,0.9,0.5,0.9,1l-0.9,12.9c0,0.5-0.5,0.9-1,0.9l-12.7-0.9c-0.5,0-0.9-0.5-0.9-1L1510.6,139z"/>
	<polygon points="1512.1,142 1512.5,142 1512.7,139.1 1512.4,139.1 1512.1,139.2 1511.6,139.2 1511.4,142.1 1511.9,142.1 	"/>
	<polygon points="1511.5,151.3 1511.9,151.3 1512.1,148.4 1511.7,148.4 1511.5,148.5 1511,148.5 1510.8,151.4 1511.3,151.4 	"/>
	<polygon points="1462.3,129.2 1462.5,129.3 1463.1,128 1462.9,127.9 1462.8,127.9 1462.5,127.8 1462,129.1 1462.2,129.2 	"/>
	<path d="M1433.3,119.2l2,0.9l0.1-0.3l1.3,0.6l-0.1,0.3l1.1,0.5l0.1-0.3l1.2,0.5l-0.1,0.3l2,0.9c0.5,0.2,1,0,1.2-0.5l0.2-0.4
		l-0.4-0.2l3-7l0.3,0.1l0.2-0.4c0.2-0.5,0-1-0.5-1.2l-2-0.9l-0.2,0.4l-1.2-0.5l0.2-0.4l-1.1-0.5l-0.2,0.4l-1.3-0.6l0.2-0.4l-2-0.9
		c-0.5-0.2-1,0-1.2,0.5l-0.2,0.4l0.3,0.1l-3,7l-0.3-0.1l-0.2,0.4C1432.6,118.5,1432.9,119,1433.3,119.2z M1433.3,118l3.2-7.5
		c0.1-0.3,0.5-0.5,0.8-0.3l7.4,3.1c0.3,0.1,0.5,0.5,0.3,0.8l-3.2,7.5c-0.1,0.3-0.5,0.5-0.8,0.3l-7.4-3.1
		C1433.4,118.7,1433.2,118.3,1433.3,118z"/>
	<polygon points="1411,156.5 1410.9,156.6 1410.7,156.7 1411.4,157.7 1411.5,157.6 1411.6,157.5 1411.7,157.4 1411.1,156.4 	"/>
	<polygon points="1415.5,154.9 1415.6,154.9 1415.8,154.8 1415.2,153.8 1415,153.9 1414.9,153.9 1414.7,154 1415.4,155 	"/>
	<rect x="1411.6" y="155.7" transform="matrix(0.8397 -0.5431 0.5431 0.8397 141.8975 792.6277)" width="3.7" height="0.5"/>
	<polygon points="1411.7,154.9 1412.1,154.5 1412.5,155 1413,154.7 1412.7,154.2 1413.2,153.9 1412.8,153.4 1412.3,153.7 
		1412,153.2 1411.5,153.5 1411.8,154 1411.3,154.3 	"/>
	<polygon points="1413,152.8 1413.5,153.6 1413.7,154 1413.3,154.2 1413.6,154.7 1414.5,154.1 1414,153.4 1413.1,152 1412.2,152.6 
		1412.6,153.1 	"/>
	<polygon points="1413.4,151.7 1413.5,151.7 1413.7,151.6 1413.1,150.6 1412.9,150.7 1412.8,150.7 1412.6,150.8 1413.3,151.8 	"/>
	<polygon points="1437.8,115.9 1438.7,116.2 1438.3,117.1 1439.2,117.4 1439.5,116.6 1440.3,117 1440.7,116.1 1439.9,115.7 
		1440.2,114.9 1439.4,114.6 1439,115.4 1438.2,115 	"/>
	<polygon points="1440.9,117.3 1440.7,117.7 1440,117.4 1439.7,118.2 1441.2,118.8 1441.7,117.5 1442.6,115.4 1441.1,114.7 
		1440.8,115.6 1441.5,115.8 	"/>
	<polygon points="1441.7,119.1 1441.5,119 1440.8,120.7 1441,120.8 1441.1,120.9 1441.4,121.1 1442.1,119.4 1441.8,119.3 	"/>
	<polygon points="1443.4,115.6 1443.7,115.7 1444.4,114 1444.1,113.9 1444,113.7 1443.8,113.6 1443.1,115.3 1443.3,115.4 	"/>
	<polygon points="1437.8,116.5 1437.1,116.2 1437.3,115.6 1437.9,114.3 1438.6,114.6 1438.9,113.8 1437.4,113.2 1436.5,115.3 
		1436,116.6 1437.5,117.3 	"/>
	<polygon points="1436.8,112.7 1437,112.8 1437.7,111.1 1437.5,111 1437.3,111 1437,110.9 1436.3,112.6 1436.6,112.7 	"/>
	<rect x="1437.6" y="116.3" transform="matrix(0.39 -0.9208 0.9208 0.39 767.5288 1396.7095)" width="0.7" height="5.6"/>
	<polygon points="1434.5,118 1434.7,118.1 1435.5,116.5 1435.2,116.4 1435,116.4 1434.8,116.3 1434.1,118 1434.3,118.1 	"/>
</g>
</svg>
