<?xml version="1.0" encoding="utf-8"?>
<!-- Generator: Adobe Illustrator 27.2.0, SVG Export Plug-In . SVG Version: 6.00 Build 0)  -->
<svg version="1.1" id="レイヤー_1" xmlns="http://www.w3.org/2000/svg" xmlns:xlink="http://www.w3.org/1999/xlink" x="0px"
	 y="0px" viewBox="0 0 350 70" style="enable-background:new 0 0 350 70;" xml:space="preserve">
<g>
	<path d="M89.6,37.9c-0.1,0,0,0.2-0.1,0.3c-2,0.8-3.5,2.5-5.4,3.4c-3.6,3.1-7.2,6.6-10.4,10.2c0.4-0.2,0.6-0.1,0.8-0.5
		c0.7,0.2,1.1-0.7,1.9-0.7c3.7-2.8,8-5.3,12.1-7.4c0.4-0.8,1-0.8,1.7-1.2c0.3-1.7,0.7-3.3,0.9-5C90.6,37.2,90.1,37.5,89.6,37.9z"/>
	<path d="M138.6,54.7c0.2,0,0.3-0.1,0.3-0.3C138.7,54.4,138.6,54.5,138.6,54.7z"/>
	<path d="M106.6,37.9c-0.1,0-0.2,0-0.2,0.1C106.5,38.2,107,38.1,106.6,37.9z"/>
	<path d="M132.7,59.1c0.1,0.1,0.1,0.1,0.2,0.1C133.1,58.9,132.7,58.9,132.7,59.1z"/>
	<path d="M3.2,57.4c0.1,0.2,0,0.2,0,0.5c0.2,0.1,0.1-0.1,0.3-0.1C3.5,57.5,3.4,57.4,3.2,57.4z"/>
	<path d="M73.3,52.4c-0.1,0.1-0.1,0.2,0,0.2c0-0.3,0.4,0.1,0.2-0.4C73.5,52.2,73.4,52.3,73.3,52.4z"/>
	<path d="M20.1,44.8c0.2-0.1,0.6-0.5,0.6-0.7C20.5,44.3,20,44.4,20.1,44.8z"/>
	<path d="M51.3,64.5v0.2c0.2,0.2,0.3,0.1,0.5,0.3c-0.1-0.3,0.2-0.1,0.2-0.4C51.7,64.5,51.7,64.2,51.3,64.5z"/>
	<path d="M283.4,37.9c-0.1,0-0.2,0-0.2,0.1C283.4,38.2,283.8,38.1,283.4,37.9z"/>
	<path d="M179.9,48.6c0.1,0.3,0.1,0.2-0.1,0.5c0.2,0.3,0.2-0.5,0.4-0.4C180.2,48.8,180.1,48.8,179.9,48.6z"/>
	<path d="M272.4,36.6c-0.7-0.6-1.7-1.1-2.1-1.8c-3.9,4.3-8.5,9.1-11.3,14.3c0.7-0.1,0.6,0.4,1.1,0.6c1.2-0.5,2.3-0.8,3.3-1.8
		c0.7,0.4,0.8-0.8,1.5-0.6C267.2,44.5,277.4,41.1,272.4,36.6z"/>
	<path d="M0,0v70h350V0H0z M62.9,43.5c-0.7,1.6-1.6,2.9-1.9,4.6c-1.3,1-1.1,3.3-2.2,4.4c-1.7,4.7-4.4,8.8-6.7,13.4
		c-0.6,0-0.4,0.5-0.9,0.5c-0.4-0.4,0.1-0.4,0-0.8c-0.2,0-0.5-0.1-0.6-0.2c-0.2,0.3-0.6,0.6-0.9,0.8c-0.3,0-0.4-0.1-0.3-0.2
		c-0.3,0.6-1,0.5-0.9,1.2c-0.6,0.2-0.8,0.5-0.6,1.2c-0.2,0.2-0.5,0.3-0.9,0.3c-0.2-0.2-0.2-0.4-0.2-0.7c-0.1-0.2-0.9-0.5-1-0.2
		c0,0.1-0.1,0.2-0.2,0.2c-0.3,0-0.1-0.5-0.5-0.3c-0.3-1.7,0.6-2,0.5-3.5c0.1-0.4,0.3,0,0.4-0.2c-0.5-0.8,0.2-2.5,0.4-3.5
		c0.3-4,1.2-8.2,1.5-12c1.2-2.6,0.9-5.3,1.9-7.9c-1.6,2.1-3.2,4.9-5.3,6.6c0.1,0.2-0.1,0.2-0.1,0.5c-0.8,0.9-2.3,1.5-2.2,2.9
		c-0.8,0.4-1.7,1.3-1.9,2.2c-0.3-0.2-0.5-0.1-0.6,0.3c-0.5,1.2-1.8,2-2.7,2.8c-0.2,1.4-1.4,1.1-1.9,2.1c-3.4,1.4-6,1.4-8-2.1
		c-1,0.2-1.4,0.1-2.2-0.3c-0.2-1.4-0.7-2.1-1.2-3.5c-0.3-0.2-0.5,0.5-0.9,0.2c-0.3-1.2,0.1-3-0.8-4c-0.1-2.1,0.6-3.4,0.9-5.5
		c-4.2,3.5-7.5,8.1-11.6,11.5c-0.1,0.4-0.4,0.3-0.5,0.7c-0.8-0.4-1.1,0.6-1.3,1.2c-1.7,0.3-2.3,2-3.9,2.3c-0.4,0.1,0-0.3-0.2-0.5
		c-0.7,0-2.5,0.9-2.6-0.1c-0.9,0.3-1.9-0.2-2.5-0.9c0.4-1-0.5-2,0.6-2.6c0-0.3,0.3-0.2,0.2-0.5c1.6-1.4,2-4.2,3.7-5.5
		c0-0.3,0.2-0.3,0-0.5c1.7-2.9,4.2-5,6.3-7.6c5.6-4.6,9.5-11.5,15.3-15.9c0.2-1.1,1.3-1.1,1.8-2c2.6-1.3,4.2-0.6,7.2-0.6
		c0.1,0.3-0.1,0.2-0.2,0.5c2.2,1.5,2.3,3.4,3.2,5.6c0,2.4-0.5,4.6-0.6,7c-0.7,0.1-0.3,1.2-0.5,1.6c2.8-1.8,5-4.9,7-7.6
		c1.9-1.7,2.9-4.1,5.1-5.5c0.5-1.3,1.5-2.1,2.5-3c1.6-3.3,4.6-5.4,6.8-8.3c0.7-0.1,0.8-0.9,1.5-1c0.1-0.6,0.5-1.2,1.2-1.4
		c0.2-0.6,0.8-0.8,1-1.4c0.3,0,0.1-0.3,0.5-0.2C64.8,5,67.9,3.5,71.2,3c1.6,0.4,3,0.9,4.1,1.9c0.1,0.4,0.3,0.6,0.5,0.7
		c1.6,0.7,0.4,3.1,1.5,4.2c-0.4,2.2-1.4,4.3-1.8,6.5c-2,4.1-3.9,8.3-5.8,12.3h-0.2c-0.1,1.5-1.3,2.2-1.6,3.7
		c-0.2,0.1-0.1,0.4-0.4,0.4C66.3,36.3,64.3,39.9,62.9,43.5z M129.9,34.2c-0.1,0,0,0.2-0.1,0.2c-2.4-0.2-4.6,0.8-6.9,1.3
		c-1.3,2.7-2.6,5.2-3.7,8.1c-2.9,4.8-3.5,11.1-5.1,16.4c-0.1,0.2,0.2,0.1,0.2,0.3c-0.9,0.8-1,2.5-1.9,3c-0.3,0.2,0.1,0.4-0.2,0.7
		c-0.4,0-0.4-0.4-0.6-0.6c-0.2,0.3-0.1,0.5,0.2,0.6c-0.2,0.1-0.4,0.1-0.5,0c0.2,1-0.4,0.2-0.2-0.3c-0.1,0.2-0.2,0.3-0.2,0.4
		c-0.2,0-0.3-0.2-0.2-0.5c-0.3,0-0.4,0.1-0.4,0.2c-0.5-0.4-0.3-0.9-0.7-1.4c-0.1,0-0.1,0-0.1,0.1c-0.1-0.2-0.1-0.2-0.2-0.5
		c-0.2,0.1,0.2,0.1,0,0.3c-0.9-0.1-0.9-0.8-1.5-1.2c0.1-0.7-0.6-1.4-0.2-1.7c-0.1-0.1-0.2,0-0.3-0.2c-0.1-2.2-0.9-3.4-0.3-5.5
		c-0.2-2.6,1.1-4.8,1.3-7.2h0.1c0.9-3,1.7-5.3,2.8-8.2c-0.7-0.1-0.7-0.2-1.3-0.1c-1.6-0.3-3.3,0.3-4.8-0.7c-0.2,0.4,0,1.2-0.5,1.3
		c-2.6,8.3-4.2,16.7-7.3,24.8c-0.9,0.3-0.8,1.2-1.7,1.5c0.2-0.6-0.6-0.3-0.9-0.5c0.4,0,0.5-0.2,0.4-0.7c-0.4-0.2-0.3-1.5-0.9-0.9
		c-0.2,0.1-0.2-0.1-0.3-0.2c-0.3,0.1,0.2,0.3-0.1,0.5c-0.8-0.2-1.2-1.9-2.2-1.7c-0.1,0,0-0.3-0.1-0.3c-0.3,1-0.4-0.1-0.5-0.5
		c-1-2.1-1.2-6.2-1.2-9.3c-0.3-0.4-0.3,0.1-0.5,0.3c-1.3,0.9-2.8,2.2-4.1,3.3c-2.5,2.1-5.5,4.5-8.8,5.8c-0.1,0.2-0.1,0.4-0.2,0.7
		c-0.8-0.1-2.1,0.3-2.9,0.5c0.1,0.1,0.3,0.2,0.5,0.2c0.2,0.9-0.7,0.4-0.9,1c-0.4-0.2-0.7-0.3-0.9-0.3c-1.1-1.7-3-2.1-4.4-3.5
		c0-0.2,0.1-0.7-0.3-0.4c-1.4-2.4-3.2-6.1-2.7-9c-0.6-3.4,1.7-6,3.6-8.3h0.3c0.5-0.8,1.3-1.2,1.4-2.3h0.2c-0.6-1.2,2.9-2.6,3.5-4.3
		c0.7-0.3,1.8-1.1,2.3-2.1h0.5c0.6-0.8,1.6-1,2.3-1.7c1.3,0,1.7-1.4,3-1.3c0.2,0.1,0.1-0.2,0.2-0.2c2.8-0.5,6-1.1,8.8,0
		c1-0.8,1.7,1.4,2.8,1.1c0.8-1.9,1.4-4.1,2.6-5.8h0.3c0.2-0.3,0.4-0.4,0.5-0.8c0.9-0.1,1.5-1.7,2.6-1.4c0,0.2-0.2,0.1-0.3,0.3
		c0.2,0.2,0.4,0.2,0.7,0.1c0.5,0.2,1.1,0.9,1.6,0.4c0,0.3,0.1,0.4,0.3,0.6c0.6-0.4,0.9,0.8,1.5,0.1c0.4,0.4,0.7,0.9,1.2,1
		c0.8,2,2.4,3.8,1.8,6.2c1.7-0.3,3.3-1.1,5-1.1c0.8-1,1.7-0.6,2.7-1c0.7-1.5,1.2-3.4,2.1-4.8c-0.1-0.2,0.1-0.3,0.1-0.5
		c1.4-2.5,2.8-5,4.1-7.6c0-0.1,0.2,0,0.2-0.1c0.6-1.2,1.3-2.8,2-4.1c0.1-0.8,0.5-0.9,0.6-1.6c1.4-1.7,2-4.1,3.2-6
		c-0.1-0.4,0-0.5,0.2-0.8V3.5c0.8-0.7,1.4-1.1,2.3-1.6c0.1,0.4,0,0.3-0.2,0.5c0.3,0.2,0.4,0.3,0.8,0.2c0.2-0.3,0.5-0.4,0.6-0.7
		c0.2,0,0.5,0.4,0.3,0.5c0.2,0.3,0.4-0.4,0.6,0.1c0.4,0.5,0.8-0.2,1.3-0.2c-0.1-0.2-0.2-0.3,0-0.5c0.8,0.1,1.4,1.2,2.3,1.2
		c0.4,0.7,1.1,1,1.7,1.5c0,0.6,0.2,1.1,0.6,1.3c-0.2,0.8,0.3,0.9-0.1,1.6c0.3,1.6-0.8,3.9-1.8,5.2c-0.5,2.1-2,3.7-3,5.7
		c0.1,0.8-0.7,1-0.7,1.8c-0.1,0,0,0.1-0.2,0.1c-1.1,2.5-2.8,4.3-3.7,6.8c4.6,0.1,9.1-0.6,13.9-0.5c0.1,0.2-0.1,0.4,0.2,0.5
		c0.2,0,0.2-0.4,0.5-0.2c0.3,0.8-0.4,1-0.9,1.5c0.3,0.1,0.5,0.2,0.6,0.2c0,0.2,0.2,0.1,0.1,0.3c-0.2,0.2-0.2,0-0.5,0
		c-0.3,1.1-1.5,0.9-2.3,1.2c-0.2-0.6-0.6,0.4-0.9,0.3c0,0.3-0.2,0.3,0.1,0.4c0.2-0.1,0.3-0.4,0.6-0.4c-0.2,0.4-0.5,0.6,0.2,0.5
		c-0.2,0.9-1.4,0.7-1.9,1.4c-0.7,0.2-1.3,0.2-1.9,0.5C133.7,33.1,131.8,34.2,129.9,34.2z M196.8,55.1c-0.1,0-0.1,0-0.2,0.1
		c0.2,1.9-0.5,3.1-0.2,5.1c-0.1,0,0-0.2-0.2-0.1c-0.2,0.5,0.5,0.8,0.2,1.5c-0.2,0.1-0.6,0-0.7,0.3c-0.3-0.1-0.5,0.1-0.6,0.3
		c-0.3-0.1-0.9-0.8-0.9-0.3c-0.1,0.5-0.5-0.4-0.6-0.5v0.4c-0.1-0.4-0.8-1-0.9-0.5c0.1,0.1,0,0.2-0.1,0.2c-0.6,0-0.4-0.5-0.9-0.7
		c-0.1-0.1-0.1-0.2,0-0.2c-1.7-0.2-1.5-2.3-2.3-3.4c0.3-0.2-0.2-0.4,0.1-0.6c-0.4-0.6-0.8-3.1-0.7-3.3c-1,0.5-2.1,1.6-2.8,2.6
		c-0.2,0-0.2,0.2-0.4,0.2c-1.4,1.5-3.5,2.4-4.8,4.1c-1.6,0.3-2.7,2.3-4.4,2.7c-0.9,0.8-2,0.5-3,0c-0.6,0.1-0.9-0.4-1.5-0.2
		c0-0.9-1.3-0.9-1.2-1.9c-0.2,0.3-0.2-0.2-0.3,0.1c-0.1-0.2-0.5-0.1-0.4-0.4c-0.1,0-0.1,0.1-0.2,0.2c-1.3-1.5-2.9-3.2-2.1-5.4
		c0.2-0.2,0,0.1,0.2,0.1c0-1.3,0.2-2.5,0.6-3.5c-3.4,2-8,3.2-11.2,4.1c-1.5,1-3.3,0.7-4.8,1.7c-2.9,0.5-5.4,2.3-8.2,2.7
		c0,0.1-0.1,0.1-0.1,0.3c-0.3,0-0.4,0-0.5-0.1c-2.2,0.5-4.1,1.2-6.2,1.7c-1.3-0.1-2.3,0.4-3.7,0.2c-0.1-0.5,0.3-0.5,0.3-0.8
		c0.5,0.4,1-0.2,0.7-0.6c-0.7-0.2-1.1,0.6-1.7,0.6c0-0.2,0.2-0.5,0.4-0.7h-0.1v-0.2c-0.2,0.1-0.3-0.2-0.4,0.1
		c-0.2-0.1,0.1-0.3-0.1-0.4c-0.3,0.1,0,0.3-0.1,0.5c-0.5,0.3-0.4-0.3-0.7-0.1c-0.3-0.4,0.5-0.7,0.2-1.2c-0.2,0.1-0.3,0.3-0.5,0.2
		c-0.1-0.4,0.2-0.9,0-1.3c0.2-0.1,0.4-0.5,0.6-0.5c-0.2-0.7,0.7-0.6,0.5-1.2c0.5-0.2,0.6-0.4,1.2-0.3c1.5-0.9,2.8-0.8,4.3-1.6
		c-0.1-0.4-0.2,0.1-0.3,0c1.6-1.2,4-1.6,5.5-2.8c0.2,0.1,0.2-0.2,0.3,0.1c0.9-0.6,2.2-0.6,2.8-1.5c0.2,0,0.5-0.3,0.7-0.2
		c1.4-1,3.1-1.5,4.5-2.5c-2.3-0.2-4.9-0.7-7.2-1.5c-0.6-1.3-2.2-1.1-2.7-2.5c-1.6-0.5-1.4-2-2.3-3.1c-0.3,0,0.1,0.4-0.2,0.5
		c-0.4-1.3,0-3.5,0.5-4.7c-0.3-0.3-0.4-0.4-0.5-0.5c0-0.9,1.1-1.2,1.1-2.3c0.7-0.5,1-1.4,1.6-2c0,0.1,0,0.1,0.1,0.1
		c2.4-2,4.9-4,7.3-5.9c0.1-0.3,0.5-0.1,0.5-0.5c1.2-0.5,2.4-1.1,3.4-1.9c1.4-0.1,2.8-1.6,4.3-0.9c0.1-0.6,0-0.6,0-1.2
		c0.1-0.1,0.2-0.1,0.3,0c0.4-0.7,1.2-1,1.4-1.9c0.5,0,0.4-0.4,0.7-0.6l-0.2,0.2c0.3,0.2,0.2-0.3,0.5-0.2c0,0.1,0,0.1-0.1,0.2
		c0.2,0,0.3-0.1,0.5-0.2c0.3,0.2-0.3,0.2,0,0.5c0.1,0.2-0.5,0.1-0.2,0.3c0.2,0.2,0.4-0.5,0.6-0.3c0,0.2,0,0.4-0.1,0.5
		c0.6-0.1,0.6-0.9,1.2-0.9c0.1,0.2,0.2,0.3,0.4,0.5c0.2-0.1,0.5,0,0.7-0.2c0.4,0.3,1.1-0.9,0.7,0.2c0.2,0.1,0.4-0.1,0.5-0.3
		c0.3,0.6,1.1,0.8,1.6,1.3c0.1,0-0.1-0.3,0.2-0.2c0.1,0.4,0.2,0.6,0.3,0.7c1.6,3-0.3,5.8,0.5,9c-0.2,0-0.1,0.1-0.2,0.1
		c-0.3,2.7-1.9,5.2-2.3,7.8c-0.4,0.2-0.1,0.8-0.5,1c-0.1,0-0.2-0.1-0.3-0.2c-0.9,0.1-1,1.3-1.9,1.4c0.1-0.4-0.2,0.1-0.2-0.2
		c-0.1-0.1-0.2,0-0.2,0c0,0.3-0.4,0-0.4-0.2c-0.2,0.3-0.1-0.2-0.3,0.1c-0.2,0.1,0-0.3-0.2-0.3c-0.6,0.3-0.8-0.5-1.3-0.5
		c-0.4-0.6-1.4-0.3-1.7-1c-0.5-0.9-1.1-1.5-1.2-2.4c-0.5-0.3-0.5-0.6-0.8-1.2c0.2-0.3,0.1-1-0.2-1.2c0.2-0.3,0.2-0.6,0.2-0.9
		c-2.5,0.7-4.8,2.1-6.5,4.1c-0.1,0,0-0.1-0.2-0.1c-1,1.1-1.8,2.2-2.9,3.2c0.1,0.2,0.1,0.3,0,0.3c3.7,2,9.6,1.7,13.8,2.3
		c1.1,0.5,3.4-0.6,4.2,0.4c1.3,0,2.7,0,3.7,0.7c0.1,0.1,0.2,0,0.2,0.1c0.8,0.4,1.3,0.6,1.9,1.1c0.1,0.6,0.7,0.5,0.9,1
		c0,0.1,0.1-0.2,0.2,0c-0.1,0.2-0.1,0.5-0.1,0.9h0.1c1.3-4,3.9-7.4,5.3-11.4c0.9-0.9,0.7-2.3,1.6-3.3c-0.3-0.5,0.4-0.7,0.5-1
		c0.1,0.1-0.2,0.1,0.1,0.3c0.5-0.3,1.1,0.1,1.5-0.5c0.2,0,0,0.2,0.2,0.3c0.2-0.2,0.3-0.1,0.4,0.2l0.2-0.2c1.7,0.6,3.6,0.7,4.8,2.3
		c0.2,0,0.2,0.1,0.3,0.1c0.2,1.7,0.7,4.1-0.7,5.4c-0.4,2.5-2.7,4.5-3.5,7.1c-0.5,0.7-0.6,1.5-1.2,2.2c-0.1,0.2-0.2,0.5-0.3,0.7
		c0,0.2,0.2,0,0.2,0.2c2.2-1.8,4.4-3.6,5.9-6c0.2,0.2,0.2,0,0.4,0c1.9-2.3,4-4.6,6-6.8c0.1-1.1,1.3-1.3,1.6-2.2
		c0.2-0.1,1-0.7,0.8-1.1c0.4-0.4,1-0.7,1-1.3c0.8-0.1,0.8-1.3,1.6-1.5c0.2-0.3,0.2-0.8,0.5-1c-0.2-0.2,0.1-0.2,0.1-0.5l0.2-0.2
		c0-0.2,0-0.5,0.2-0.5v-0.3c0.7,0.3,1-0.7,1.7-0.4c0,0.2-0.1,0.3-0.2,0.3c0.3,0.1,0.5,0.2,0.7,0.2c0.1,0.3,0.6,0.8,0.1,0.6
		c0,0.1,0.1,0.2,0.2,0.3c-0.1,0.2-0.2,0.3-0.3,0.4c1.8-0.9,1.5,1,3,0.9c0.1,0.4,0.1,0.4,0.4,0.6c-0.1,0.2,0.1,0.2,0.1,0.4
		c1.1,0.8-0.1,2.5,0.3,3.3c-1.3,3.1-2.8,5.9-4,9c-0.2,0,0,0.3-0.2,0.2c-0.2,0.9-0.8,1.3-0.9,2.2c-0.1,0,0,0.2-0.2,0.2
		C197.9,48.5,197.5,51.7,196.8,55.1z M247,37.8c-0.3,0.9-0.6,2-1.1,2.8c-0.8,2.6-2.2,4.7-2.9,7.4c-0.2,0.1-0.1,0.5-0.3,0.5
		c0.1,0.6-0.2,0.7-0.3,1.2c0.3,0.9-0.6,1.3-0.4,2.3c0.2,0.9-0.7,1.8-0.3,2.6c-0.3,0.6-0.1,1.8-0.7,2.3c0.1-0.5,0.1-0.6,0.1-1.2
		c-0.3,0.9-0.7,1.5-0.5,2.4c-0.1,0.2,0,0.4-0.2,0.5c0.4,1.1-0.9,3-0.5,4.1c0.1,0.6,0.6,0.9,0.4,1.6c-0.5,0.4-0.3,0.8-0.5,1.3
		c-0.4-0.1-0.5,0.3-0.9,0.2c-0.8-0.5-0.8-1.6-1.6-1.9c-2.1-3-2.8-6.9-3.3-10.6c0.4-3.8,0.6-7.8,1.6-11.4c-4.5,3.6-8.3,8.2-13.2,11.1
		c-0.2-0.5-0.9-0.1-1.1-0.5c-0.3,0-1.6,0.7-1.6,0c-1.1,0.5-1.5-0.6-2.3-0.9c-0.1-0.6-0.5-1.4-0.2-1.9c-0.6-1,0.5-2.5-0.2-3.5
		c-2.9,2.6-5.4,6.8-8.9,8.3c-0.2,0.3-0.4,0.5-0.8,0.7c0,0.3-0.2,0.2-0.1,0.5c-1.3,1.5-2.7,3-3.7,4.8c-0.2,0.4-0.6,0.5-1.1,0.1
		c-0.2-0.1-0.4,0.3-0.6,0.1c0.5-0.3,1-0.5,1.5-0.8c-0.2-0.5-1.2-0.2-1.6-0.1c0-0.2,0.1,0,0.2-0.2c0-0.2-0.3-0.4-0.2-0.6
		c-0.7-0.2-1.5-0.9-2-1.4c-0.3,0,0.1,0.3-0.2,0.2c-0.4,0,0.1-0.5-0.1-0.7c-0.8-0.3-0.4-2-1.2-2.2c-0.2,0.6,0.1,1.1,0,1.6
		c-0.5-0.2,0-1-0.3-1.1c-0.1,0.1-0.2,0-0.2-0.2c-0.3-0.9-0.3-3.5,0.5-3.9c0.8-1.9,2.2-2.8,3.4-4.4c-0.1-0.5,0.2-0.2,0.1-0.7
		c0.6-0.2,0.7-0.8,1.3-0.8c1-1.1,0.7-3.2,1.7-4.3c0.3,0.1,0.3-0.7,0.7-0.5c0.8-1,1.8-1.9,2.4-3c3.6-3.2,9-10.4,14.1-9.3
		c2.1,0.2,2.5,1.8,4.1,2.8c0.1,1,0.6,2,0.2,2.9c0.3,0.8-0.3,1.8,0.1,2.8c2.3-1.7,3.3-4,5.8-5.4c0-0.3,0.2-0.2,0.2-0.5
		c0.5-0.5,1.3-0.8,1.8-1.4c3.5-1.8,5.6-5.8,9.7-6.5c0.2,0.1,0.3,0.3,0.4,0.4c0.4,0,0.6,0,0.9-0.1c0.2,0.2,0,0.1,0,0.3
		c0.7,0.3,1.2,0.9,2,0.6c0.2,0.1,0.4,0.6,0.6,0.6c-0.1,0.2,0.6,0.9,0.7,0.7c0.2-0.4,0.4,0.7,0.4,0.6c1,1.1,0.3,2.4,0.5,3.5
		C248.9,32.5,248,35.2,247,37.8z M310.5,33.5c-1.2-0.2-2.4,1-3.7,0.8c-0.1,0,0,0.2-0.1,0.2c-2.4-0.2-4.6,0.8-6.9,1.3
		c-1.3,2.7-2.6,5.2-3.7,8.1c-2.9,4.8-3.5,11.1-5.1,16.4c-0.1,0.2,0.2,0.1,0.2,0.3c-0.9,0.8-1,2.5-1.9,3c-0.3,0.2,0.1,0.4-0.2,0.7
		c-0.4,0-0.4-0.4-0.6-0.6c-0.2,0.3-0.1,0.5,0.2,0.6c-0.2,0.1-0.4,0.1-0.5,0c0.2,1-0.4,0.2-0.2-0.3c-0.1,0.2-0.2,0.3-0.2,0.4
		c-0.2,0-0.3-0.2-0.2-0.5c-0.3,0-0.4,0.1-0.4,0.2c-0.5-0.4-0.3-0.9-0.7-1.4c-0.1,0-0.1,0-0.1,0.1c-0.1-0.2-0.1-0.2-0.2-0.5
		c-0.2,0.1,0.2,0.1,0,0.3c-0.9-0.1-0.9-0.8-1.5-1.2c0.1-0.7-0.6-1.4-0.2-1.7c-0.1-0.1-0.2,0-0.3-0.2c-0.1-2.2-0.9-3.4-0.3-5.5
		c-0.2-2.6,1.1-4.8,1.3-7.2h0.1c0.9-3,1.7-5.3,2.8-8.2c-0.7-0.1-0.7-0.2-1.3-0.1c-1-0.4-2.4,0.3-3.5-0.2c1,3.5,0.1,7.7-2.7,10
		c-0.1,0.8-1,0.6-1.2,1.3l-0.1-0.1c-1.4,0.7-3.7,3.3-4.7,4.4c-3.4,2.8-9.1,6.2-13.3,7c-0.1,0.2-0.3,0.2-0.4,0.5
		c-2.1,0-5.3,1.2-7.2-0.6c-2.3,0.2-3.1-2.5-4.8-3.5c-0.6-1.2-0.5-1.7-1.4-2.9c-0.3-1.7,0.3-3.4,0.2-5.1c-0.7-3.2,1.2-6.1,2.1-8.8
		c0.6-0.5,1.2-1.7,1.9-2.2c2.3-3,5.1-6,6.9-9.3c0-0.2-0.2-0.2-0.3-0.3c0.2-0.5,0.2-0.8,0.9-0.8c1-1.3,3.9-2,5.1-1.7
		c1.5,0,3.5,0.6,4.6,1.5c0.4,0.1,0-0.3,0.2-0.3c1.4,1.4,4,1,5.4,2.3c0.2,0,0.2,0,0.2-0.1c0.1,0.4,0.8,0.7,1.2,0.5
		c0.3,0.9,1.8,2,2.6,2.7c0-0.1,0-0.1,0-0.2c0.5,0.3,1.4,0.6,1.6-0.2c0.6,0.4,0.6-0.2,1.2-0.2c0.2,0,0.1-0.1,0.2-0.3
		c2.4-0.3,4.5-1.4,6.9-1.5c0.8-1,1.7-0.6,2.7-1c0.7-1.5,1.2-3.4,2.1-4.8c-0.1-0.2,0.1-0.3,0.1-0.5c1.4-2.5,2.8-5,4.1-7.6
		c0-0.1,0.2,0,0.2-0.1c0.6-1.2,1.3-2.8,2-4.1c0.1-0.8,0.5-0.9,0.6-1.6c1.4-1.7,2-4.1,3.2-6c-0.1-0.4,0-0.5,0.2-0.8V3.5
		c0.8-0.7,1.4-1.1,2.3-1.6c0.1,0.4,0,0.3-0.2,0.5c0.3,0.2,0.4,0.3,0.8,0.2c0.2-0.3,0.5-0.4,0.6-0.7c0.2,0,0.5,0.4,0.3,0.5
		c0.2,0.3,0.4-0.4,0.6,0.1c0.4,0.5,0.8-0.2,1.3-0.2c-0.1-0.2-0.2-0.3,0-0.5c0.8,0.1,1.4,1.2,2.3,1.2c0.4,0.7,1.1,1,1.7,1.5
		c0,0.6,0.2,1.1,0.6,1.3c-0.2,0.8,0.3,0.9-0.1,1.6c0.3,1.6-0.8,3.9-1.8,5.2c-0.5,2.1-2,3.7-3,5.7c0.1,0.8-0.7,1-0.7,1.8
		c-0.1,0,0,0.1-0.2,0.1c-1.1,2.5-2.8,4.3-3.7,6.8c4.6,0.1,9.1-0.6,13.9-0.5c0.1,0.2-0.1,0.4,0.2,0.5c0.2,0,0.2-0.4,0.5-0.2
		c0.3,0.8-0.4,1-0.9,1.5c0.3,0.1,0.5,0.2,0.6,0.2c0,0.2,0.2,0.1,0.1,0.3c-0.2,0.2-0.2,0-0.5,0c-0.3,1.1-1.5,0.9-2.3,1.2
		c-0.2-0.6-0.6,0.4-0.9,0.3c0,0.3-0.2,0.3,0.1,0.4c0.2-0.1,0.3-0.4,0.6-0.4c-0.2,0.4-0.5,0.6,0.2,0.5c-0.2,0.9-1.4,0.7-1.9,1.4
		c-0.7,0.2-1.3,0.2-1.9,0.5C311.6,32.5,311.1,33.4,310.5,33.5z M347.9,41.2c0.1,2.9-0.9,5.3-3,7.1c-0.1,0.8-1,0.6-1.2,1.3l-0.1-0.1
		c-1.4,0.7-3.7,3.3-4.7,4.4c-3.4,2.8-9.1,6.2-13.3,7c-0.1,0.2-0.3,0.2-0.4,0.5c-2.1,0-5.3,1.2-7.2-0.6c-2.3,0.2-3.1-2.5-4.8-3.5
		c-0.6-1.2-0.5-1.7-1.4-2.9c-0.3-1.7,0.3-3.4,0.2-5.1c-0.7-3.2,1.2-6.1,2.1-8.8c0.6-0.5,1.2-1.7,1.9-2.2c2.3-3,5.1-6,6.9-9.3
		c0-0.2-0.2-0.2-0.3-0.3c0.2-0.5,0.2-0.8,0.9-0.8c1-1.3,3.9-2,5.1-1.7c1.5,0,3.5,0.6,4.6,1.5c0.4,0.1,0-0.3,0.2-0.3
		c1.4,1.4,4,1,5.4,2.3c0.2,0,0.2,0,0.2-0.1c0.1,0.4,0.8,0.7,1.2,0.5C342.5,33.6,348.7,35.9,347.9,41.2z"/>
	<path d="M336.7,36.6c-0.7-0.6-1.7-1.1-2.1-1.8c-3.9,4.3-8.5,9.1-11.3,14.3c0.7-0.1,0.6,0.4,1.1,0.6c1.2-0.5,2.3-0.8,3.3-1.8
		c0.7,0.4,0.8-0.8,1.5-0.6C331.5,44.5,341.6,41.1,336.7,36.6z"/>
</g>
</svg>
