<?xml version="1.0" encoding="utf-8"?>
<!-- Generator: Adobe Illustrator 27.2.0, SVG Export Plug-In . SVG Version: 6.00 Build 0)  -->
<svg version="1.1" id="レイヤー_1" xmlns="http://www.w3.org/2000/svg" xmlns:xlink="http://www.w3.org/1999/xlink" x="0px"
	 y="0px" viewBox="0 0 550 400" style="enable-background:new 0 0 550 400;" xml:space="preserve">
<g>
	<g>
		<path d="M51.1,227c-9.4-0.1-18.5-0.1-27.9,0c-4.1,0.1-6.7,2.9-6.7,7.1c0,11.7,0,23.5,0,35.2c0,4.2,2.7,7,7.1,7c9,0,18,0,26.9,0
			c4.4,0,7.1-2.6,7.1-7.1c0-5.8,0-11.6,0.1-17.3c0-5.9,0-11.9,0-17.8C57.7,229.9,55.1,227.1,51.1,227z M44.5,246l-8.2,7.2v0.3
			l-0.2-0.1l-0.2,0.1v-0.3l-8.2-7.2v-5.9l5.9,5.2v-11.9h4.9v11.9l5.9-5.2V246z"/>
	</g>
	<g>
		<path d="M24.1,153.6c8.5-0.1,16.9,0,25.4-0.1c1.4,0,2.8-0.3,4.2-0.5c-12.8-0.5-25.5-0.5-38.2-0.5c-5.8,0-9,3.2-9.1,9
			c0,14.2,0,28.5,0,42.7c0,0.6-0.1,6.1,0.1,6.2c2.3-2.4,4.8-3.6,6.9-6.2c1.6-1.6,1.5-4.4,1.5-8.4c0-11,0.1-22.1,0.1-33.1
			C14.9,156.9,18.3,153.5,24.1,153.6z"/>
	</g>
	<g>
		<path d="M51.1,155.3c-9.4-0.1-18.5-0.1-27.9,0c-4.1,0.1-6.7,2.9-6.7,7c0,11.7,0,23.5,0,35.2c0,4.2,2.7,7,7.1,7c9,0,18,0,26.9,0
			c4.4,0,7.1-2.6,7.1-7.1c0-5.8,0-11.6,0.1-17.3c0-5.9,0-11.9,0-17.8C57.7,158.2,55.1,155.4,51.1,155.3z M45,173.5l-5.9-5.2v11.9
			h-4.9v-11.9l-5.9,5.2v-5.9l8.2-7.2v-0.3l0.2,0.1l0.2-0.1v0.3l8.2,7.2V173.5z"/>
	</g>
	<g>
		<path d="M225.4,126.2c1.6-1.6,1.5-4.4,1.5-8.4c0-11,0.1-22.1,0.1-33.1c0-5.8,3.4-9.2,9.2-9.1c8.5-0.1,16.9,0,25.4-0.1
			c1.4,0,2.8-0.3,4.2-0.5c-12.8-0.5-25.5-0.5-38.2-0.5c-5.8,0-9,3.2-9.1,9c0,14.2,0,28.5,0,42.7c0,0.6-0.1,6.1,0.1,6.2
			C220.7,130,223.2,128.8,225.4,126.2z"/>
	</g>
	<g>
		<path d="M250.8,89c-0.1-0.4-0.3-0.6-0.5-0.8c-0.2-0.2-0.6-0.3-1-0.3c-0.4,0-0.9,0-1.6,0h-1.5V98h1.5c0.6,0,1.2,0,1.6-0.1
			c0.4,0,0.8-0.1,1-0.3c0.2-0.2,0.4-0.4,0.5-0.8c0.1-0.4,0.2-0.9,0.2-1.5c0-0.6,0-1.5,0-2.5c0-1,0-1.8,0-2.4
			C251,89.9,250.9,89.4,250.8,89z"/>
	</g>
	<g>
		<path d="M24.4,82c8.5-0.1,16.9,0,25.4-0.1c1.4,0,2.8-0.3,4.2-0.5c-12.8-0.5-25.5-0.5-38.2-0.5c-5.8,0-9,3.2-9.1,9
			c0,14.2,0,28.5,0,42.7c0,0.6-0.1,6.1,0.1,6.2c2.3-2.4,4.8-3.6,6.9-6.2c1.6-1.6,1.5-4.4,1.5-8.4c0-11,0.1-22.1,0.1-33.1
			C15.2,85.2,18.6,81.9,24.4,82z"/>
	</g>
	<g>
		<path d="M235.2,77.3c-4.1,0.1-6.7,2.9-6.7,7c0,11.7,0,23.5,0,35.2c0,4.2,2.7,7,7.1,7c9,0,18,0,26.9,0c4.4,0,7.1-2.6,7.1-7.1
			c0-5.8,0-11.6,0.1-17.3c0-5.9,0-11.9,0-17.8c0-4.1-2.6-6.9-6.6-7C253.8,77.2,244.6,77.2,235.2,77.3z M255.1,96.4
			c-0.1,0.9-0.2,1.7-0.4,2.4c-0.2,0.6-0.6,1.1-1.2,1.5c-0.5,0.4-1.3,0.6-2.2,0.8c-0.9,0.2-2.1,0.2-3.6,0.2h-5.8V84.7h5.8
			c1.5,0,2.7,0.1,3.6,0.2c0.9,0.2,1.7,0.4,2.2,0.8c0.5,0.4,0.9,0.9,1.2,1.5c0.2,0.6,0.4,1.4,0.4,2.4c0.1,0.9,0.1,2.1,0.1,3.4
			S255.2,95.4,255.1,96.4z"/>
	</g>
	<g>
		<path d="M51.4,83.7c-9.4-0.1-18.5-0.1-27.9,0c-4.1,0.1-6.7,2.9-6.7,7c0,11.7,0,23.5,0,35.2c0,4.2,2.7,7,7.1,7c9,0,18,0,26.9,0
			c4.4,0,7.1-2.6,7.1-7.1c0-5.8,0-11.6,0.1-17.3c0-5.9,0-11.9,0-17.8C58,86.6,55.4,83.8,51.4,83.7z M30.8,95.7h-5.4v2.5h4.6v2.3
			h-4.6v2.6h5.4v2.3h-8.4V93.4h8.4V95.7z M40.9,105.4h-2.8v-4.7c0-0.5,0-0.9,0-1.1c0-0.3-0.1-0.5-0.2-0.6c-0.1-0.1-0.2-0.2-0.4-0.2
			c-0.2,0-0.4-0.1-0.7-0.1c-0.3,0-0.5,0-0.7,0.1c-0.2,0.1-0.3,0.2-0.4,0.3c-0.1,0.2-0.1,0.4-0.2,0.6c0,0.3-0.1,0.6-0.1,1v4.6h-2.8
			v-8.9h2.7l0.1,1.1h0.2c0.2-0.3,0.4-0.6,0.6-0.7c0.3-0.2,0.6-0.3,0.9-0.4c0.3-0.1,0.7-0.1,1.1-0.1c0.6,0,1.1,0.1,1.4,0.2
			c0.4,0.2,0.6,0.4,0.8,0.7c0.2,0.3,0.3,0.7,0.4,1.1c0.1,0.4,0.1,0.9,0.1,1.5V105.4z M51.2,105.4h-2.7l-0.1-1.1h-0.1
			c-0.2,0.3-0.4,0.6-0.7,0.8c-0.3,0.2-0.6,0.3-0.9,0.4s-0.7,0.1-1,0.1c-0.5,0-1-0.1-1.3-0.2s-0.7-0.4-0.9-0.7
			c-0.2-0.3-0.4-0.8-0.5-1.4c-0.1-0.6-0.2-1.3-0.2-2.2c0-0.9,0.1-1.7,0.2-2.3c0.1-0.6,0.3-1.1,0.5-1.4c0.2-0.3,0.5-0.6,0.9-0.7
			c0.4-0.2,0.8-0.2,1.3-0.2c0.4,0,0.7,0,1,0.1c0.3,0.1,0.6,0.2,0.8,0.3c0.3,0.2,0.5,0.4,0.7,0.7h0.1v-5h2.8V105.4z"/>
	</g>
	<g>
		<polygon points="106.8,131.9 104.9,138.5 108.9,138.5 107,131.9 		"/>
	</g>
	<g>
		<path d="M94.7,119.2c8.5-0.1,16.9,0,25.4-0.1c1.4,0,2.8-0.3,4.2-0.5c-12.8-0.5-25.5-0.5-38.2-0.5c-5.8,0-9,3.2-9.1,9
			c0,14.2,0,28.5,0,42.7c0,0.6-0.1,6.1,0.1,6.2c2.3-2.4,4.8-3.6,6.9-6.2c1.6-1.6,1.5-4.4,1.5-8.4c0-11,0.1-22.1,0.1-33.1
			C85.5,122.5,88.9,119.1,94.7,119.2z"/>
	</g>
	<g>
		<path d="M121.7,121c-9.4-0.1-18.5-0.1-27.9,0c-4.1,0.1-6.7,2.9-6.7,7c0,11.7,0,23.5,0,35.2c0,4.2,2.7,7,7.1,7c9,0,18,0,26.9,0
			c4.4,0,7.1-2.6,7.1-7.1c0-5.8,0-11.6,0.1-17.3c0-5.9,0-11.9,0-17.8C128.3,123.9,125.7,121.1,121.7,121z M110.8,144.9l-1-3.3H104
			l-1,3.3h-4.1l5.3-16.6h5.7l5.3,16.6H110.8z"/>
	</g>
	<g>
		<path d="M225.7,54.5c1.6-1.6,1.5-4.4,1.5-8.4c0-11,0.1-22.1,0.1-33.1c0-5.8,3.4-9.2,9.2-9.1c8.5-0.1,16.9,0,25.4-0.1
			c1.4,0,2.8-0.3,4.2-0.5c-12.8-0.5-25.5-0.5-38.2-0.5c-5.8,0-9,3.2-9.1,9c0,14.2,0,28.5,0,42.7c0,0.6-0.1,6.1,0.1,6.2
			C221.1,58.4,223.6,57.2,225.7,54.5z"/>
	</g>
	<g>
		<path d="M48.2,99.3c-0.1-0.3-0.2-0.4-0.4-0.5c-0.2-0.1-0.5-0.1-0.8-0.1c-0.3,0-0.6,0-0.8,0.1c-0.2,0-0.3,0.1-0.4,0.3
			c-0.1,0.1-0.2,0.4-0.2,0.7c0,0.3,0,0.7,0,1.3c0,0.5,0,1,0,1.3c0,0.3,0.1,0.5,0.2,0.7c0.1,0.1,0.2,0.2,0.4,0.3
			c0.2,0,0.4,0.1,0.8,0.1c0.4,0,0.6,0,0.8-0.1c0.2-0.1,0.3-0.2,0.4-0.5c0.1-0.2,0.1-0.4,0.1-0.7c0-0.3,0-0.6,0-1c0-0.4,0-0.7,0-0.9
			C48.3,99.7,48.3,99.5,48.2,99.3z"/>
	</g>
	<g>
		<path d="M94.7,190.9c8.5-0.1,16.9,0,25.4-0.1c1.4,0,2.8-0.3,4.2-0.5c-12.8-0.5-25.5-0.5-38.2-0.5c-5.8,0-9,3.2-9.1,9
			c0,14.2,0,28.5,0,42.7c0,0.6-0.1,6.1,0.1,6.2c2.3-2.4,4.8-3.6,6.9-6.2c1.6-1.6,1.5-4.4,1.5-8.4c0-11,0.1-22.1,0.1-33.1
			C85.5,194.2,88.9,190.8,94.7,190.9z"/>
	</g>
	<g>
		<path d="M121.7,192.6c-9.4-0.1-18.5-0.1-27.9,0c-4.1,0.1-6.7,2.9-6.7,7c0,11.7,0,23.5,0,35.2c0,4.2,2.7,7,7.1,7c9,0,18,0,26.9,0
			c4.4,0,7.1-2.6,7.1-7.1c0-5.8,0-11.6,0.1-17.3c0-5.9,0-11.9,0-17.8C128.3,195.5,125.7,192.7,121.7,192.6z M113.3,216.5h-12.7v-3.1
			l7.5-10.3h-7.2V200h12.4v3l-7.6,10.4h7.6V216.5z"/>
	</g>
	<g>
		<path d="M322.2,35.9c-0.2-0.2-0.4-0.3-0.7-0.3c-0.3-0.1-0.8-0.1-1.4-0.1h-2.4v4.4h2.4c0.5,0,1,0,1.3-0.1c0.3-0.1,0.6-0.2,0.7-0.3
			c0.2-0.2,0.3-0.4,0.3-0.7c0-0.3,0.1-0.7,0.1-1.1c0-0.5,0-0.8-0.1-1.1C322.5,36.3,322.4,36.1,322.2,35.9z"/>
	</g>
	<g>
		<path d="M367.2,169.8c1.6-1.6,1.5-4.4,1.5-8.4c0-11,0.1-22.1,0.1-33.1c0-5.8,3.4-9.2,9.2-9.1c8.5-0.1,16.9,0,25.4-0.1
			c1.4,0,2.8-0.3,4.2-0.5c-12.8-0.5-25.5-0.5-38.2-0.5c-5.8,0-9,3.2-9.1,9c0,14.2,0,28.5,0,42.7c0,0.6-0.1,6.1,0.1,6.2
			C362.6,173.7,365.1,172.4,367.2,169.8z"/>
	</g>
	<g>
		<path d="M235.6,5.7c-4.1,0.1-6.7,2.9-6.7,7c0,11.7,0,23.5,0,35.2c0,4.2,2.7,7,7.1,7c9,0,18,0,26.9,0c4.4,0,7.1-2.6,7.1-7.1
			c0-5.8,0-11.6,0.1-17.3c0-5.9,0-11.9,0-17.8c0-4.1-2.6-6.9-6.6-7C254.1,5.6,244.9,5.6,235.6,5.7z M254.7,16.3h-7.4v3.4h6.3v3.2
			h-6.3v3.5h7.4v3.2h-11.6V13h11.6V16.3z"/>
	</g>
	<g>
		<path d="M367.2,241.5c1.6-1.6,1.5-4.4,1.5-8.4c0-11,0.1-22.1,0.1-33.1c0-5.8,3.4-9.2,9.2-9.1c8.5-0.1,16.9,0,25.4-0.1
			c1.4,0,2.8-0.3,4.2-0.5c-12.8-0.5-25.5-0.5-38.2-0.5c-5.8,0-9,3.2-9.1,9c0,14.2,0,28.5,0,42.7c0,0.6-0.1,6.1,0.1,6.2
			C362.6,245.3,365.1,244.1,367.2,241.5z"/>
	</g>
	<g>
		<path d="M377.1,192.6c-4.1,0.1-6.7,2.9-6.7,7c0,11.7,0,23.5,0,35.2c0,4.2,2.7,7,7.1,7c9,0,18,0,26.9,0c4.4,0,7.1-2.6,7.1-7.1
			c0-5.8,0-11.6,0.1-17.3c0-5.9,0-11.9,0-17.8c0-4.1-2.6-6.9-6.6-7C395.6,192.5,386.5,192.5,377.1,192.6z M396.8,214
			c-0.2,0.6-0.4,1-0.8,1.4c-0.4,0.4-0.9,0.7-1.5,0.9c-0.6,0.2-1.4,0.3-2.3,0.3h-8.4V200h8.4c1.1,0,1.9,0.2,2.6,0.5
			c0.7,0.3,1.2,0.8,1.6,1.4c0.3,0.6,0.5,1.4,0.5,2.3c0,0.8-0.1,1.4-0.3,2c-0.2,0.5-0.5,1-1,1.3c-0.4,0.3-1,0.5-1.6,0.7v0.1
			c0.7,0.1,1.3,0.4,1.7,0.7c0.4,0.3,0.8,0.7,1,1.3c0.2,0.5,0.3,1.2,0.3,2.1C397.1,212.8,397,213.4,396.8,214z"/>
	</g>
	<g>
		<path d="M392.1,209.8c-0.3-0.1-0.7-0.2-1.3-0.2H388v3.8h2.7c0.6,0,1-0.1,1.3-0.2c0.3-0.1,0.5-0.3,0.6-0.6c0.1-0.3,0.2-0.7,0.2-1.2
			c0-0.5-0.1-0.9-0.2-1.2C392.6,210.1,392.4,209.9,392.1,209.8z"/>
	</g>
	<g>
		<path d="M377.4,49.3c-4.1,0.1-6.7,2.9-6.7,7c0,11.7,0,23.5,0,35.2c0,4.2,2.7,7,7.1,7c9,0,18,0,26.9,0c4.4,0,7.1-2.6,7.1-7.1
			c0-5.8,0-11.6,0.1-17.3c0-5.9,0-11.9,0-17.8c0-4.1-2.6-6.9-6.6-7C396,49.2,386.8,49.2,377.4,49.3z M397.2,60.1h-4.6v13.2h-4.2
			V60.1H384v-3.4h13.3V60.1z"/>
	</g>
	<g>
		<path d="M377.1,121c-4.1,0.1-6.7,2.9-6.7,7c0,11.7,0,23.5,0,35.2c0,4.2,2.7,7,7.1,7c9,0,18,0,26.9,0c4.4,0,7.1-2.6,7.1-7.1
			c0-5.8,0-11.6,0.1-17.3c0-5.9,0-11.9,0-17.8c0-4.1-2.6-6.9-6.6-7C395.6,120.9,386.5,120.9,377.1,121z M396.7,144.6
			c-0.6,0.1-1.2,0.2-1.9,0.3c-0.7,0.1-1.4,0.1-2,0.2c-0.7,0-1.3,0.1-1.9,0.1c-1.2,0-2.3-0.1-3.1-0.2c-0.9-0.2-1.6-0.4-2.1-0.8
			c-0.6-0.4-1-0.9-1.3-1.5c-0.3-0.6-0.5-1.5-0.7-2.4s-0.2-2.1-0.2-3.5s0.1-2.5,0.2-3.5c0.1-1,0.3-1.8,0.7-2.4
			c0.3-0.6,0.8-1.2,1.3-1.5c0.6-0.4,1.3-0.6,2.1-0.8c0.9-0.2,1.9-0.2,3.1-0.2c0.6,0,1.2,0,1.9,0.1c0.7,0,1.3,0.1,2,0.2
			c0.7,0.1,1.3,0.2,1.8,0.3v3c-0.5-0.1-1-0.1-1.6-0.2c-0.5,0-1-0.1-1.5-0.1s-0.8,0-1.1,0c-0.8,0-1.5,0-2.1,0c-0.6,0-1,0.1-1.4,0.3
			c-0.3,0.2-0.6,0.4-0.8,0.8c-0.2,0.4-0.3,0.9-0.4,1.6c-0.1,0.7-0.1,1.5-0.1,2.5c0,0.9,0,1.7,0.1,2.3c0,0.6,0.1,1.1,0.3,1.5
			c0.1,0.4,0.3,0.7,0.6,0.9c0.2,0.2,0.6,0.4,1,0.4c0.4,0.1,0.9,0.1,1.5,0.1c0.2,0,0.4,0,0.6,0c0.2,0,0.4,0,0.7,0c0.2,0,0.4,0,0.6,0
			v-3.6h-2.4v-3h6.2V144.6z"/>
	</g>
	<g>
		<path d="M367.6,98.2c1.6-1.6,1.5-4.4,1.5-8.4c0-11,0.1-22.1,0.1-33.1c0-5.8,3.4-9.2,9.2-9.1c8.5-0.1,16.9,0,25.4-0.1
			c1.4,0,2.8-0.3,4.2-0.5c-12.8-0.5-25.5-0.5-38.2-0.5c-5.8,0-9,3.2-9.1,9c0,14.2,0,28.5,0,42.7c0,0.6-0.1,6.1,0.1,6.2
			C362.9,102,365.4,100.8,367.6,98.2z"/>
	</g>
	<g>
		<path d="M392,206.6c0.3-0.1,0.5-0.3,0.6-0.5c0.1-0.3,0.2-0.6,0.2-1.1c0-0.5-0.1-0.9-0.2-1.2c-0.1-0.3-0.3-0.4-0.6-0.5
			c-0.3-0.1-0.7-0.1-1.3-0.1H388v3.6h2.7C391.3,206.7,391.7,206.7,392,206.6z"/>
	</g>
	<g>
		<path d="M296.5,145.5c1.6-1.6,1.5-4.4,1.5-8.4c0-11,0.1-22.1,0.1-33.1c0-5.8,3.4-9.2,9.2-9.1c8.5-0.1,16.9,0,25.4-0.1
			c1.4,0,2.8-0.3,4.2-0.5c-12.8-0.5-25.5-0.5-38.2-0.5c-5.8,0-9,3.2-9.1,9c0,14.2,0,28.5,0,42.7c0,0.6-0.1,6.1,0.1,6.2
			C291.9,149.3,294.4,148.1,296.5,145.5z"/>
	</g>
	<g>
		<path d="M306.4,168.3c-4.1,0.1-6.7,2.9-6.7,7.1c0,11.7,0,23.5,0,35.2c0,4.2,2.7,7,7.1,7c9,0,18,0,26.9,0c4.4,0,7.1-2.6,7.1-7.1
			c0-5.8,0-11.6,0.1-17.3c0-5.9,0-11.9,0-17.8c0-4.1-2.6-6.9-6.6-7C325,168.2,315.8,168.2,306.4,168.3z M322.3,192.2h-5.5l-5-16.6
			h4.3l3.4,12.1h0.2l3.4-12.1h4.2L322.3,192.2z"/>
	</g>
	<g>
		<path d="M296.5,217.1c1.6-1.6,1.5-4.4,1.5-8.4c0-11,0.1-22.1,0.1-33.1c0-5.8,3.4-9.2,9.2-9.1c8.5-0.1,16.9,0,25.4-0.1
			c1.4,0,2.8-0.3,4.2-0.5c-12.8-0.5-25.5-0.5-38.2-0.5c-5.8,0-9,3.2-9.1,9c0,14.2,0,28.5,0,42.7c0,0.6-0.1,6.1,0.1,6.2
			C291.9,220.9,294.4,219.7,296.5,217.1z"/>
	</g>
	<g>
		<path d="M95,47.6c8.5-0.1,16.9,0,25.4-0.1c1.4,0,2.8-0.3,4.2-0.5c-12.8-0.5-25.5-0.5-38.2-0.5c-5.8,0-9,3.2-9.1,9
			c0,14.2,0,28.5,0,42.7c0,0.6-0.1,6.1,0.1,6.2c2.3-2.4,4.8-3.6,6.9-6.2c1.6-1.6,1.5-4.4,1.5-8.4c0-11,0.1-22.1,0.1-33.1
			C85.9,50.9,89.2,47.5,95,47.6z"/>
	</g>
	<g>
		<path d="M306.8,25c-4.1,0.1-6.7,2.9-6.7,7c0,11.7,0,23.5,0,35.2c0,4.2,2.7,7,7.1,7c9,0,18,0,26.9,0c4.4,0,7.1-2.6,7.1-7.1
			c0-5.8,0-11.6,0.1-17.3c0-5.9,0-11.9,0-17.8c0-4.1-2.6-6.9-6.6-7C325.3,24.9,316.1,24.9,306.8,25z M322.7,48.9l-2.1-5.9
			c-0.1,0-0.1,0-0.2,0h-2.7v5.9h-4.2V32.3h8.2c1.1,0,1.9,0.1,2.6,0.3c0.7,0.2,1.2,0.6,1.5,1s0.6,1,0.7,1.7c0.1,0.7,0.2,1.4,0.2,2.3
			c0,0.6,0,1.3-0.1,1.9c-0.1,0.6-0.3,1.2-0.6,1.7c-0.3,0.5-0.8,0.9-1.4,1.2l2.5,6.4H322.7z"/>
	</g>
	<g>
		<path d="M296.9,73.8c1.6-1.6,1.5-4.4,1.5-8.4c0-11,0.1-22.1,0.1-33.1c0-5.8,3.4-9.2,9.2-9.1c8.5-0.1,16.9,0,25.4-0.1
			c1.4,0,2.8-0.3,4.2-0.5c-12.8-0.5-25.5-0.5-38.2-0.5c-5.8,0-9,3.2-9.1,9c0,14.2,0,28.5,0,42.7c0,0.6-0.1,6.1,0.1,6.2
			C292.3,77.7,294.8,76.4,296.9,73.8z"/>
	</g>
	<g>
		<path d="M306.4,96.6c-4.1,0.1-6.7,2.9-6.7,7c0,11.7,0,23.5,0,35.2c0,4.2,2.7,7,7.1,7c9,0,18,0,26.9,0c4.4,0,7.1-2.6,7.1-7.1
			c0-5.8,0-11.6,0.1-17.3c0-5.9,0-11.9,0-17.8c0-4.1-2.6-6.9-6.6-7C325,96.5,315.8,96.5,306.4,96.6z M325.6,107.2h-6.9v3.9h6v3.2h-6
			v6.2h-4.2V104h11.1V107.2z"/>
	</g>
	<g>
		<path d="M24.1,225.2c8.5-0.1,16.9,0,25.4-0.1c1.4,0,2.8-0.3,4.2-0.5c-12.8-0.5-25.5-0.5-38.2-0.5c-5.8,0-9,3.2-9.1,9
			c0,14.2,0,28.5,0,42.7c0,0.6-0.1,6.1,0.1,6.2c2.3-2.4,4.8-3.6,6.9-6.2c1.6-1.6,1.5-4.4,1.5-8.4c0-11,0.1-22.1,0.1-33.1
			C14.9,228.5,18.3,225.1,24.1,225.2z"/>
	</g>
	<g>
		<path d="M358.4,269c-9.4-0.1-18.5-0.1-27.9,0c-4.1,0.1-6.7,2.9-6.7,7c0,11.7,0,23.5,0,35.2c0,4.2,2.7,7,7.1,7c9,0,18,0,26.9,0
			c4.4,0,7.1-2.6,7.1-7.1c0-5.8,0-11.6,0.1-17.3c0-5.9,0-11.9,0-17.8C365,271.9,362.4,269.1,358.4,269z"/>
	</g>
	<g>
		<path d="M192,96.6c-9.4-0.1-18.5-0.1-27.9,0c-4.1,0.1-6.7,2.9-6.7,7c0,11.7,0,23.5,0,35.2c0,4.2,2.7,7,7.1,7c9,0,18,0,26.9,0
			c4.4,0,7.1-2.6,7.1-7.1c0-5.8,0-11.6,0.1-17.3c0-5.9,0-11.9,0-17.8C198.5,99.5,195.9,96.7,192,96.6z M183.2,117.9
			c-0.2,0.6-0.5,1.2-0.8,1.5s-0.8,0.7-1.3,0.9c-0.5,0.2-1,0.3-1.7,0.4c-0.6,0.1-1.2,0.1-1.9,0.1c-0.6,0-1.3,0-2.1-0.1
			c-0.7,0-1.5-0.1-2.2-0.1c-0.7-0.1-1.4-0.1-1.9-0.2v-3.1c0.6,0,1.2,0.1,1.8,0.1c0.6,0,1.2,0.1,1.7,0.1c0.5,0,1,0,1.4,0
			c0.7,0,1.3,0,1.7-0.1c0.4-0.1,0.7-0.1,0.9-0.3c0.1-0.1,0.2-0.2,0.3-0.3c0.1-0.1,0.1-0.3,0.1-0.5c0-0.2,0-0.4,0-0.6
			c0-0.3,0-0.6,0-0.8c0-0.2-0.1-0.3-0.2-0.5s-0.3-0.2-0.5-0.3c-0.2-0.1-0.6-0.1-0.9-0.2l-3.4-0.4c-0.6-0.1-1.2-0.3-1.6-0.5
			c-0.4-0.2-0.8-0.6-1-1c-0.2-0.4-0.4-0.9-0.5-1.5s-0.1-1.2-0.1-1.9c0-1.1,0.2-2,0.5-2.6c0.3-0.7,0.8-1.2,1.3-1.5
			c0.6-0.3,1.2-0.6,2-0.7c0.8-0.1,1.6-0.2,2.5-0.2c0.7,0,1.3,0,2,0.1s1.3,0.1,2,0.2c0.6,0.1,1.1,0.1,1.6,0.2v3
			c-0.4,0-0.9-0.1-1.4-0.1c-0.5,0-1.1-0.1-1.7-0.1c-0.6,0-1.1,0-1.6,0c-0.6,0-1.1,0-1.5,0.1c-0.4,0-0.7,0.1-0.9,0.3
			c-0.2,0.1-0.4,0.3-0.4,0.5c-0.1,0.2-0.1,0.5-0.1,0.8c0,0.4,0,0.7,0.1,0.9c0.1,0.2,0.2,0.4,0.4,0.4c0.2,0.1,0.6,0.2,1,0.2l3.3,0.4
			c0.4,0,0.9,0.1,1.2,0.2c0.4,0.1,0.7,0.3,1,0.5c0.3,0.2,0.6,0.6,0.8,1c0.1,0.2,0.2,0.5,0.3,0.8c0.1,0.3,0.1,0.6,0.2,1
			c0,0.4,0.1,0.8,0.1,1.3C183.5,116.4,183.4,117.2,183.2,117.9z"/>
	</g>
	<g>
		<path d="M331.4,267.3c8.5-0.1,16.9,0,25.4-0.1c1.4,0,2.8-0.3,4.2-0.5c-12.8-0.5-25.5-0.5-38.2-0.5c-5.8,0-9,3.2-9.1,9
			c0,14.2,0,28.5,0,42.7c0,0.6-0.1,6.1,0.1,6.2c2.3-2.4,4.8-3.6,6.9-6.2c1.6-1.6,1.5-4.4,1.5-8.4c0-11,0.1-22.1,0.1-33.1
			C322.2,270.6,325.6,267.2,331.4,267.3z"/>
	</g>
	<g>
		<path d="M165.3,23.2c8.5-0.1,16.9,0,25.4-0.1c1.4,0,2.8-0.3,4.2-0.5c-12.8-0.5-25.5-0.5-38.2-0.5c-5.8,0-9,3.2-9.1,9
			c0,14.2,0,28.5,0,42.7c0,0.6-0.1,6.1,0.1,6.2c2.3-2.4,4.8-3.6,6.9-6.2c1.6-1.6,1.5-4.4,1.5-8.4c0-11,0.1-22.1,0.1-33.1
			C156.1,26.5,159.5,23.1,165.3,23.2z"/>
	</g>
	<g>
		<path d="M424.8,261.3c-7.1,12.3-27.4,47.4-34.5,59.7c-0.3,0.5-3.2,5.3-3,5.4c3.2-0.9,6-0.7,9.1-1.9c2.2-0.6,3.5-3.1,5.5-6.5
			c5.5-9.5,24.3-41.9,29.8-51.4c2.9-5,7.5-6.3,12.5-3.3c7.4,4.2,14.6,8.4,22,12.6c1.2,0.7,2.6,1.1,3.8,1.7
			c-10.9-6.8-21.8-13.2-32.9-19.5C432.1,255.1,427.8,256.3,424.8,261.3z"/>
	</g>
	<g>
		<path d="M164.9,94.9c8.5-0.1,16.9,0,25.4-0.1c1.4,0,2.8-0.3,4.2-0.5c-12.8-0.5-25.5-0.5-38.2-0.5c-5.8,0-9,3.2-9.1,9
			c0,14.2,0,28.5,0,42.7c0,0.6-0.1,6.1,0.1,6.2c2.3-2.4,4.8-3.6,6.9-6.2c1.6-1.6,1.5-4.4,1.5-8.4c0-11,0.1-22.1,0.1-33.1
			C155.8,98.2,159.1,94.8,164.9,94.9z"/>
	</g>
	<g>
		<path d="M466.7,278.3c-8.1-4.8-16-9.4-24.2-14c-3.6-1.9-7.2-0.8-9.3,2.8c-5.8,10.1-24.9,43.1-30.7,53.2c-2.1,3.7-1.1,7.4,2.6,9.5
			c7.8,4.5,15.6,9,23.3,13.5c3.8,2.2,7.4,1.3,9.7-2.7c2.9-5,18.9-32.8,21.9-37.7c2.9-5.1,5.9-10.3,8.9-15.4
			C470.9,284.1,470.1,280.4,466.7,278.3z"/>
	</g>
	<g>
		<path d="M192.3,25c-9.4-0.1-18.5-0.1-27.9,0c-4.1,0.1-6.7,2.9-6.7,7c0,11.7,0,23.5,0,35.2c0,4.2,2.7,7,7.1,7c9,0,18,0,26.9,0
			c4.4,0,7.1-2.6,7.1-7.1c0-5.8,0-11.6,0.1-17.3c0-5.9,0-11.9,0-17.8C198.9,27.9,196.3,25.1,192.3,25z M185.4,48.9h-5.3l-2.5-10.5
			h-0.2l-2.5,10.5h-5.3L166,32.3h4.2l2.4,11.8h0.2l2.7-11.8h4.3l2.7,11.8h0.2l2.2-11.8h4.2L185.4,48.9z"/>
	</g>
	<g>
		<path d="M259.4,240.1c8.5-0.1,16.9,0,25.4-0.1c1.4,0,2.8-0.3,4.2-0.5c-12.8-0.5-25.5-0.5-38.2-0.5c-5.8,0-9,3.2-9.1,9
			c0,14.2,0,54.8,0,69c0,0.6-0.1,6.1,0.1,6.2c2.3-2.4,4.8-3.6,6.9-6.2c1.6-1.6,1.5-4.4,1.5-8.4c0-11,0.1-48.4,0.1-59.4
			C250.2,243.4,253.6,240,259.4,240.1z"/>
	</g>
	<g>
		<path d="M236.1,147.2c8.5-0.1,16.9,0,25.4-0.1c1.4,0,2.8-0.3,4.2-0.5c-12.8-0.5-25.5-0.5-38.2-0.5c-5.8,0-9,3.2-9.1,9
			c0,14.2,0,28.5,0,42.7c0,0.6-0.1,6.1,0.1,6.2c2.3-2.4,4.8-3.6,6.9-6.2c1.6-1.6,1.5-4.4,1.5-8.4c0-11,0.1-22.1,0.1-33.1
			C226.9,150.5,230.3,147.1,236.1,147.2z"/>
	</g>
	<g>
		<path d="M110,60.9c-0.1-0.4-0.3-0.7-0.5-0.8c-0.2-0.2-0.5-0.3-0.9-0.3c-0.4,0-0.8,0-1.4,0c-0.6,0-1,0-1.4,0s-0.7,0.1-0.9,0.3
			c-0.2,0.2-0.4,0.4-0.5,0.8c-0.1,0.4-0.2,0.9-0.2,1.5c0,0.7,0,1.5,0,2.5c0,1,0,1.9,0,2.5c0,0.7,0.1,1.2,0.2,1.5
			c0.1,0.4,0.2,0.7,0.5,0.8c0.2,0.2,0.5,0.3,0.9,0.3c0.4,0,0.8,0,1.4,0c0.6,0,1,0,1.4,0c0.4,0,0.6-0.1,0.9-0.3
			c0.2-0.2,0.4-0.4,0.5-0.8c0.1-0.4,0.2-0.9,0.2-1.5c0-0.7,0-1.5,0-2.5c0-1,0-1.9,0-2.5C110.2,61.8,110.1,61.3,110,60.9z"/>
	</g>
	<g>
		<path d="M286.4,241.8c-9.4-0.1-18.5-0.1-27.9,0c-4.1,0.1-6.7,2.9-6.7,7c0,11.7,0,49.8,0,61.4c0,4.2,2.7,7,7.1,7c9,0,18,0,26.9,0
			c4.4,0,7.1-2.6,7.1-7.1c0-5.8,0-37.9,0.1-43.6c0-5.9,0-11.9,0-17.8C293,244.7,290.4,241.9,286.4,241.8z"/>
	</g>
	<g>
		<path d="M528.1,314.6c-8.1-4.8-16-9.4-24.2-14c-3.6-1.9-7.2-0.8-9.3,2.8c-5.8,10.1-24.9,43.1-30.7,53.2c-2.1,3.7-1.1,7.4,2.6,9.5
			c7.8,4.5,15.6,9,23.3,13.5c3.8,2.2,7.4,1.3,9.7-2.7c2.9-5,18.9-32.8,21.9-37.7c2.9-5.1,5.9-10.3,8.9-15.4
			C532.3,320.4,531.5,316.7,528.1,314.6z"/>
	</g>
	<g>
		<path d="M263.2,149c-9.4-0.1-18.5-0.1-27.9,0c-4.1,0.1-6.7,2.9-6.7,7c0,11.7,0,23.5,0,35.2c0,4.2,2.7,7,7.1,7c9,0,18,0,26.9,0
			c4.4,0,7.1-2.6,7.1-7.1c0-5.8,0-11.6,0.1-17.3c0-5.9,0-11.9,0-17.8C269.7,151.9,267.1,149.1,263.2,149z M254.2,172.7
			c-0.4,0.1-0.8,0.1-1.3,0.2c-0.5,0.1-1,0.1-1.5,0.1c-0.5,0-1,0-1.5,0c-1.2,0-2.3-0.1-3.1-0.3c-0.8-0.2-1.5-0.4-2-0.8
			c-0.5-0.4-0.9-0.9-1.2-1.5c-0.3-0.7-0.4-1.5-0.5-2.4c-0.1-1-0.1-2.1-0.1-3.4c0-1.3,0-2.5,0.1-3.4c0.1-1,0.3-1.8,0.5-2.4
			c0.3-0.7,0.7-1.2,1.2-1.6c0.5-0.4,1.2-0.7,2-0.8c0.8-0.2,1.9-0.2,3.1-0.2c0.5,0,1,0,1.5,0.1c0.5,0,1,0.1,1.5,0.1
			c0.5,0.1,0.9,0.1,1.2,0.2v3c-0.5,0-0.9-0.1-1.3-0.1c-0.4,0-0.8-0.1-1.1-0.1c-0.3,0-0.6,0-0.8,0c-0.7,0-1.3,0-1.8,0.1
			c-0.5,0.1-0.8,0.2-1.1,0.4c-0.3,0.2-0.5,0.5-0.6,0.9c-0.1,0.4-0.2,0.9-0.2,1.5s0,1.4,0,2.4c0,1,0,1.8,0,2.4c0,0.6,0.1,1.2,0.2,1.5
			c0.1,0.4,0.3,0.7,0.6,0.9c0.3,0.2,0.6,0.3,1.1,0.4c0.5,0.1,1.1,0.1,1.8,0.1c0.5,0,1.1,0,1.7-0.1c0.6,0,1.2-0.1,1.6-0.2V172.7z"/>
	</g>
	<g>
		<path d="M164.9,166.5c8.5-0.1,16.9,0,25.4-0.1c1.4,0,2.8-0.3,4.2-0.5c-12.8-0.5-25.5-0.5-38.2-0.5c-5.8,0-9,3.2-9.1,9
			c0,14.2,0,28.5,0,42.7c0,0.6-0.1,6.1,0.1,6.2c2.3-2.4,4.8-3.6,6.9-6.2c1.6-1.6,1.5-4.4,1.5-8.4c0-11,0.1-22.1,0.1-33.1
			C155.8,169.8,159.1,166.4,164.9,166.5z"/>
	</g>
	<g>
		<path d="M486.2,297.6c-7.1,12.3-27.4,47.4-34.5,59.7c-0.3,0.5-3.2,5.3-3,5.4c3.2-0.9,6-0.7,9.1-1.9c2.2-0.6,3.5-3.1,5.5-6.5
			c5.5-9.5,24.3-41.9,29.8-51.4c2.9-5,7.5-6.3,12.5-3.3c7.4,4.2,14.6,8.4,22,12.6c1.2,0.7,2.6,1.1,3.8,1.7
			c-10.9-6.8-21.8-13.2-32.9-19.5C493.5,291.4,489.2,292.6,486.2,297.6z"/>
	</g>
	<g>
		<path d="M0,0v400h550V0H0z M358.9,78.6c0-7.7,0-15.5,0-23.2c0.1-6.7,3.9-10.5,10.6-10.5c14.8,0,29.6,0,44.3,0
			c6.6,0,10.5,3.9,10.5,10.4c0,15.5,0,31.2,0,46.7c0,6.5-4,10.3-10.4,10.3c-14.9,0-29.7,0-44.7,0c-6.4,0-10.2-3.9-10.3-10.2
			C358.9,94.3,358.9,86.5,358.9,78.6z M358.6,150.2c0-7.7,0-15.5,0-23.2c0.1-6.7,3.9-10.5,10.6-10.5c14.8,0,29.6,0,44.3,0
			c6.6,0,10.5,3.9,10.5,10.4c0,15.5,0,31.2,0,46.7c0,6.5-4,10.3-10.4,10.3c-14.9,0-29.7,0-44.7,0c-6.4,0-10.2-3.9-10.3-10.2
			C358.6,166,358.6,158.2,358.6,150.2z M358.6,221.9c0-7.7,0-15.5,0-23.2c0.1-6.7,3.9-10.5,10.6-10.5c14.8,0,29.6,0,44.3,0
			c6.6,0,10.5,3.9,10.5,10.4c0,15.5,0,31.2,0,46.7c0,6.5-4,10.3-10.4,10.3c-14.9,0-29.7,0-44.7,0c-6.4,0-10.2-3.9-10.3-10.2
			C358.6,237.6,358.6,229.8,358.6,221.9z M288.2,54.2c0-7.7,0-15.5,0-23.2c0.1-6.7,3.9-10.5,10.6-10.5c14.8,0,29.6,0,44.3,0
			c6.6,0,10.5,3.9,10.5,10.4c0,15.5,0,31.2,0,46.7c0,6.5-4,10.3-10.4,10.3c-14.9,0-29.7,0-44.7,0c-6.4,0-10.2-3.9-10.3-10.2
			C288.2,70,288.2,62.2,288.2,54.2z M287.9,125.9c0-7.7,0-15.5,0-23.2c0.1-6.7,3.9-10.5,10.6-10.5c14.8,0,29.6,0,44.3,0
			c6.6,0,10.5,3.9,10.5,10.4c0,15.5,0,31.2,0,46.7c0,6.5-4,10.3-10.4,10.3c-14.9,0-29.7,0-44.7,0c-6.4,0-10.2-3.9-10.3-10.2
			C287.9,141.6,287.9,133.8,287.9,125.9z M287.9,197.5c0-7.7,0-15.5,0-23.2c0.1-6.7,3.9-10.5,10.6-10.5c14.8,0,29.6,0,44.3,0
			c6.6,0,10.5,3.9,10.5,10.4c0,15.5,0,31.2,0,46.7c0,6.5-4,10.3-10.4,10.3c-14.9,0-29.7,0-44.7,0c-6.4,0-10.2-3.9-10.3-10.2
			C287.9,213.3,287.9,205.4,287.9,197.5z M217,35c0-7.7,0-15.5,0-23.2c0.1-6.7,3.9-10.5,10.6-10.5c14.8,0,29.6,0,44.3,0
			c6.6,0,10.5,3.9,10.5,10.4c0,15.5,0,31.2,0,46.7c0,6.5-4,10.3-10.4,10.3c-14.9,0-29.7,0-44.7,0c-6.4,0-10.2-3.9-10.3-10.2
			C217,50.7,217,42.9,217,35z M216.7,106.6c0-7.7,0-15.5,0-23.2c0.1-6.7,3.9-10.5,10.6-10.5c14.8,0,29.6,0,44.3,0
			c6.6,0,10.5,3.9,10.5,10.4c0,15.5,0,31.2,0,46.7c0,6.5-4,10.3-10.4,10.3c-14.9,0-29.7,0-44.7,0c-6.4,0-10.2-3.9-10.3-10.2
			C216.7,122.3,216.7,114.5,216.7,106.6z M70.1,279.7c0,6.5-4,10.3-10.4,10.3c-14.9,0-29.7,0-44.7,0c-6.4,0-10.2-3.9-10.3-10.2
			c0-7.8,0-15.6,0-23.6c0-7.7,0-15.5,0-23.2c0.1-6.7,3.9-10.5,10.6-10.5c14.8,0,29.6,0,44.3,0c6.6,0,10.5,3.9,10.5,10.4
			C70.1,248.5,70.1,264.2,70.1,279.7z M70.1,208.1c0,6.5-4,10.3-10.4,10.3c-14.9,0-29.7,0-44.7,0c-6.4,0-10.2-3.9-10.3-10.2
			c0-7.8,0-15.6,0-23.6c0-7.7,0-15.5,0-23.2c0.1-6.7,3.9-10.5,10.6-10.5c14.8,0,29.6,0,44.3,0c6.6,0,10.5,3.9,10.5,10.4
			C70.1,176.9,70.1,192.5,70.1,208.1z M70.5,136.4c0,6.5-4,10.3-10.4,10.3c-14.9,0-29.7,0-44.7,0c-6.4,0-10.2-3.9-10.3-10.2
			c0-7.8,0-15.6,0-23.6c0-7.7,0-15.5,0-23.2c0.1-6.7,3.9-10.5,10.6-10.5c14.8,0,29.6,0,44.3,0c6.6,0,10.5,3.9,10.5,10.4
			C70.5,105.2,70.5,120.9,70.5,136.4z M140.8,245.4c0,6.5-4,10.3-10.4,10.3c-14.9,0-29.7,0-44.7,0c-6.4,0-10.2-3.9-10.3-10.2
			c0-7.8,0-15.6,0-23.6c0-7.7,0-15.5,0-23.2c0.1-6.7,3.9-10.5,10.6-10.5c14.8,0,29.6,0,44.3,0c6.6,0,10.5,3.9,10.5,10.4
			C140.8,214.2,140.8,229.8,140.8,245.4z M140.8,173.7c0,6.5-4,10.3-10.4,10.3c-14.9,0-29.7,0-44.7,0c-6.4,0-10.2-3.9-10.3-10.2
			c0-7.8,0-15.6,0-23.6c0-7.7,0-15.5,0-23.2c0.1-6.7,3.9-10.5,10.6-10.5c14.8,0,29.6,0,44.3,0c6.6,0,10.5,3.9,10.5,10.4
			C140.8,142.5,140.8,158.2,140.8,173.7z M141.1,102.1c0,6.5-4,10.3-10.4,10.3c-14.9,0-29.7,0-44.7,0c-6.4,0-10.2-3.9-10.3-10.2
			c0-7.8,0-15.6,0-23.6c0-7.7,0-15.5,0-23.2c0.1-6.7,3.9-10.5,10.6-10.5c14.8,0,29.6,0,44.3,0c6.6,0,10.5,3.9,10.5,10.4
			C141.1,70.9,141.1,86.5,141.1,102.1z M211,221c0,6.5-4,10.3-10.4,10.3c-14.9,0-29.7,0-44.7,0c-6.4,0-10.2-3.9-10.3-10.2
			c0-7.8,0-15.6,0-23.6c0-7.7,0-15.5,0-23.2c0.1-6.7,3.9-10.5,10.6-10.5c14.8,0,29.6,0,44.3,0c6.6,0,10.5,3.9,10.5,10.4
			C211,189.8,211,205.4,211,221z M211,149.3c0,6.5-4,10.3-10.4,10.3c-14.9,0-29.7,0-44.7,0c-6.4,0-10.2-3.9-10.3-10.2
			c0-7.8,0-15.6,0-23.6c0-7.7,0-15.5,0-23.2c0.1-6.7,3.9-10.5,10.6-10.5c14.8,0,29.6,0,44.3,0c6.6,0,10.5,3.9,10.5,10.4
			C211,118.2,211,133.8,211,149.3z M211.3,77.7c0,6.5-4,10.3-10.4,10.3c-14.9,0-29.7,0-44.7,0c-6.4,0-10.2-3.9-10.3-10.2
			c0-7.8,0-15.6,0-23.6c0-7.7,0-15.5,0-23.2c0.1-6.7,3.9-10.5,10.6-10.5c14.8,0,29.6,0,44.3,0c6.6,0,10.5,3.9,10.5,10.4
			C211.3,46.5,211.3,62.2,211.3,77.7z M216.7,201.8c0-7.8,0-15.6,0-23.6c0-7.7,0-15.5,0-23.2c0.1-6.7,3.9-10.5,10.6-10.5
			c14.8,0,29.6,0,44.3,0c6.6,0,10.5,3.9,10.5,10.4c0,15.5,0,31.2,0,46.7c0,6.5-4,10.3-10.4,10.3c-14.9,0-29.7,0-44.7,0
			C220.7,212.1,216.8,208.2,216.7,201.8z M305.4,320.8c0,6.5-4,10.3-10.4,10.3c-14.9,0-29.7,0-44.7,0c-6.4,0-10.2-3.9-10.3-10.2
			c0-7.8,0-41.9,0-49.8c0-7.7,0-15.5,0-23.2c0.1-6.7,3.9-10.5,10.6-10.5c14.8,0,29.6,0,44.3,0c6.6,0,10.5,3.9,10.5,10.4
			C305.4,263.4,305.4,305.3,305.4,320.8z M377.4,321.8c0,6.5-4,10.3-10.4,10.3c-14.9,0-29.7,0-44.7,0c-6.4,0-10.2-3.9-10.3-10.2
			c0-7.8,0-15.6,0-23.6c0-7.7,0-15.5,0-23.2c0.1-6.7,3.9-10.5,10.6-10.5c14.8,0,29.6,0,44.3,0c6.6,0,10.5,3.9,10.5,10.4
			C377.4,290.6,377.4,306.2,377.4,321.8z M429.5,360c-12.9-7.4-25.8-14.9-38.7-22.4c-5.5-3.2-6.9-8.5-3.8-14
			c3.9-6.8,21-36.3,24.9-43.2c3.9-6.7,7.7-13.4,11.6-20.1c3.4-5.7,8.6-7.2,14.5-3.8c12.8,7.4,25.6,14.8,38.4,22.2
			c5.7,3.3,7.2,8.6,3.9,14.3c-7.8,13.5-28.7,49.8-36.5,63.2C440.4,361.9,435.1,363.3,429.5,360z M541.6,329.3
			c-7.8,13.5-28.7,49.8-36.5,63.2c-3.2,5.6-8.6,7-14.2,3.7c-12.9-7.4-25.8-14.9-38.7-22.4c-5.5-3.2-6.9-8.5-3.8-14
			c3.9-6.8,21-36.3,24.9-43.2c3.9-6.7,7.7-13.4,11.6-20.1c3.4-5.7,8.6-7.2,14.5-3.8c12.8,7.4,25.6,14.8,38.4,22.2
			C543.4,318.3,544.9,323.7,541.6,329.3z"/>
	</g>
	<g>
		<path d="M122.1,49.3c-9.4-0.1-18.5-0.1-27.9,0c-4.1,0.1-6.7,2.9-6.7,7c0,11.7,0,23.5,0,35.2c0,4.2,2.7,7,7.1,7c9,0,18,0,26.9,0
			c4.4,0,7.1-2.6,7.1-7.1c0-5.8,0-11.6,0.1-17.3c0-5.9,0-11.9,0-17.8C128.6,52.2,126,49.4,122.1,49.3z M115.3,76h-4.5l-1.8-2.6
			c-0.5,0-1.1,0.1-1.7,0.1c-1.4,0-2.5-0.1-3.4-0.2c-0.9-0.2-1.6-0.4-2.1-0.8c-0.5-0.4-0.9-0.9-1.1-1.6c-0.2-0.7-0.4-1.5-0.4-2.4
			c-0.1-1-0.1-2.1-0.1-3.4c0-1.3,0-2.5,0.1-3.4c0.1-1,0.2-1.8,0.4-2.4c0.2-0.7,0.6-1.2,1.1-1.6c0.5-0.4,1.2-0.7,2.1-0.8
			c0.9-0.2,2-0.2,3.4-0.2c1.4,0,2.5,0.1,3.4,0.2s1.6,0.4,2.1,0.8c0.5,0.4,0.9,0.9,1.1,1.6c0.2,0.7,0.4,1.5,0.4,2.4
			c0.1,1,0.1,2.1,0.1,3.4c0,1.3,0,2.5-0.1,3.4c-0.1,1-0.2,1.8-0.4,2.4c-0.2,0.7-0.6,1.2-1.1,1.6c0,0,0,0,0,0l2.5,3.5V76z"/>
	</g>
	<g>
		<path d="M192,168.3c-9.4-0.1-18.5-0.1-27.9,0c-4.1,0.1-6.7,2.9-6.7,7.1c0,11.7,0,23.5,0,35.2c0,4.2,2.7,7,7.1,7c9,0,18,0,26.9,0
			c4.4,0,7.1-2.6,7.1-7.1c0-5.8,0-11.6,0.1-17.3c0-5.9,0-11.9,0-17.8C198.5,171.2,195.9,168.4,192,168.3z M180.4,192.2l-3.2-5.2H177
			l-3.2,5.2h-4.6l5.3-8.3l-5.2-8.3h4.7l3.1,5h0.2l3.1-5h4.6l-5.3,8.2l5.3,8.4H180.4z"/>
	</g>
</g>
</svg>
