<?xml version="1.0" encoding="utf-8"?>
<!-- Generator: Adobe Illustrator 27.2.0, SVG Export Plug-In . SVG Version: 6.00 Build 0)  -->
<svg version="1.1" id="レイヤー_1" xmlns="http://www.w3.org/2000/svg" xmlns:xlink="http://www.w3.org/1999/xlink" x="0px"
	 y="0px" viewBox="0 0 550 400" style="enable-background:new 0 0 550 400;" xml:space="preserve">
<g>
	<g>
		<path d="M172.1,193.4c-9.4-0.1-18.6-0.1-28,0c-4,0.1-6.6,2.9-6.6,7c0,5.9,0,11.9,0,17.8c0.1,5.7,0.1,11.5,0.1,17.3
			c0,4.5,2.6,7.2,7.1,7.2c9,0,18,0,27,0c4.4,0,7.1-2.7,7.1-7c0-11.7,0-23.5,0-35.2C178.8,196.3,176.2,193.5,172.1,193.4z
			 M165.9,217.3h-3.9l-5.8-9.7H156v9.7h-4v-16.6h4.3l5.4,8.9h0.1v-8.9h4V217.3z"/>
	</g>
	<g>
		<path d="M385.5,97.2c-9.4-0.1-18.6-0.1-28,0c-4,0.1-6.6,2.9-6.6,7c0,5.9,0,11.9,0,17.8c0.1,5.7,0.1,11.5,0.1,17.3
			c0,4.5,2.6,7.2,7.1,7.2c9,0,18,0,27,0c4.4,0,7.1-2.7,7.1-7c0-11.7,0-23.5,0-35.2C392.2,100.1,389.5,97.3,385.5,97.2z M378.2,121.2
			h-10.7v-16.6h4.2v13.2h6.5V121.2z"/>
	</g>
	<g>
		<path d="M393.3,166.2c-12.8,0-25.4,0-38.3,0.5c1.4,0.2,2.8,0.5,4.2,0.5c8.5,0.1,16.9,0,25.4,0.1c5.8-0.1,9.2,3.3,9.2,9.1
			c0,11,0.1,22.1,0.1,33.2c0,4-0.2,6.8,1.5,8.4c2.1,2.6,4.6,3.8,7,6.3c0.2-0.1,0.1-5.7,0.1-6.2c0-14.2,0-28.5,0-42.8
			C402.3,169.4,399.1,166.2,393.3,166.2z"/>
	</g>
	<g>
		<path d="M385.5,169c-9.4-0.1-18.6-0.1-28,0c-4,0.1-6.6,2.9-6.6,7c0,5.9,0,11.9,0,17.8c0.1,5.7,0.1,11.5,0.1,17.3
			c0,4.5,2.6,7.2,7.1,7.2c9,0,18,0,27,0c4.4,0,7.1-2.7,7.1-7c0-11.7,0-23.5,0-35.2C392.2,171.9,389.5,169.1,385.5,169z M364.8,187.4
			h-4.1v-3.5h4.1V187.4z M383.8,188.2l-9.7,3.6V189l6.3-2.2l-6.3-2.2v-2.8l9.7,3.6V188.2z"/>
	</g>
	<g>
		<path d="M369.2,45.2c0.1,0.4,0.2,0.7,0.5,0.8c0.2,0.2,0.5,0.3,0.9,0.3c0.4,0,0.8,0,1.4,0c0.6,0,1,0,1.4,0c0.4,0,0.6-0.1,0.9-0.3
			c0.2-0.2,0.4-0.4,0.5-0.8c0.1-0.4,0.2-0.9,0.2-1.5c0-0.7,0-1.5,0-2.5c0-1,0-1.9,0-2.5c0-0.7-0.1-1.2-0.2-1.5
			c-0.1-0.4-0.3-0.7-0.5-0.8c-0.2-0.2-0.5-0.3-0.9-0.3c-0.4,0-0.8,0-1.4,0c-0.6,0-1,0-1.4,0c-0.4,0-0.7,0.1-0.9,0.3
			c-0.2,0.2-0.4,0.4-0.5,0.8c-0.1,0.4-0.2,0.9-0.2,1.5c0,0.7,0,1.5,0,2.5c0,1,0,1.9,0,2.5C369.1,44.3,369.1,44.8,369.2,45.2z"/>
	</g>
	<g>
		<path d="M170.9,48.1c5.8-0.1,9.2,3.3,9.2,9.1c0,11,0.1,22.1,0.1,33.2c0,4-0.2,6.8,1.5,8.4c2.1,2.6,4.6,3.8,7,6.3
			c0.2-0.1,0.1-5.7,0.1-6.2c0-14.2,0-28.5,0-42.8c-0.1-5.8-3.3-9-9.1-9c-12.8,0-25.4,0-38.3,0.5c1.4,0.2,2.8,0.5,4.2,0.5
			C154,48.1,162.4,48,170.9,48.1z"/>
	</g>
	<g>
		<path d="M357.8,74.7c9,0,18,0,27,0c4.4,0,7.1-2.7,7.1-7c0-11.7,0-23.5,0-35.2c0-4.2-2.6-7-6.7-7.1c-9.4-0.1-18.6-0.1-28,0
			c-4,0.1-6.6,2.9-6.6,7c0,5.9,0,11.9,0,17.8c0.1,5.7,0.1,11.5,0.1,17.3C350.7,72.1,353.3,74.7,357.8,74.7z M364.9,37.7
			c0.1-1,0.2-1.8,0.4-2.4c0.2-0.7,0.6-1.2,1.1-1.6c0.5-0.4,1.2-0.7,2.1-0.8c0.9-0.2,2-0.2,3.4-0.2c1.4,0,2.5,0.1,3.4,0.2
			c0.9,0.2,1.6,0.4,2.1,0.8c0.5,0.4,0.9,0.9,1.1,1.6c0.2,0.7,0.4,1.5,0.4,2.4c0.1,1,0.1,2.1,0.1,3.4c0,1.3,0,2.5-0.1,3.4
			c-0.1,1-0.2,1.8-0.4,2.4c-0.2,0.7-0.6,1.2-1.1,1.6c-0.5,0.4-1.2,0.7-2.1,0.8c-0.9,0.2-2,0.2-3.4,0.2c-1.4,0-2.5-0.1-3.4-0.2
			c-0.9-0.2-1.6-0.4-2.1-0.8c-0.5-0.4-0.9-0.9-1.1-1.6c-0.2-0.7-0.4-1.5-0.4-2.4c-0.1-1-0.1-2.1-0.1-3.4
			C364.8,39.8,364.8,38.7,364.9,37.7z"/>
	</g>
	<g>
		<path d="M443.9,65.2c0.3-0.1,0.6-0.2,0.7-0.3c0.2-0.2,0.3-0.4,0.3-0.7c0-0.3,0.1-0.7,0.1-1.2c0-0.5,0-0.9-0.1-1.3
			c0-0.3-0.1-0.6-0.3-0.7c-0.2-0.2-0.4-0.3-0.7-0.3c-0.3-0.1-0.8-0.1-1.3-0.1h-2.2v4.8h2.1C443.2,65.2,443.6,65.2,443.9,65.2z"/>
	</g>
	<g>
		<path d="M172.1,121.6c-9.4-0.1-18.6-0.1-28,0c-4,0.1-6.6,2.9-6.6,7c0,5.9,0,11.9,0,17.8c0.1,5.7,0.1,11.5,0.1,17.3
			c0,4.5,2.6,7.2,7.1,7.2c9,0,18,0,27,0c4.4,0,7.1-2.7,7.1-7c0-11.7,0-23.5,0-35.2C178.8,124.5,176.2,121.7,172.1,121.6z
			 M165.8,145.6h-4.2V139h-5.4v6.6h-4.2V129h4.2v6.5h5.4V129h4.2V145.6z"/>
	</g>
	<g>
		<path d="M393.3,94.4c-12.8,0-25.4,0-38.3,0.5c1.4,0.2,2.8,0.5,4.2,0.5c8.5,0.1,16.9,0,25.4,0.1c5.8-0.1,9.2,3.3,9.2,9.1
			c0,11,0.1,22.1,0.1,33.2c0,4-0.2,6.8,1.5,8.4c2.1,2.6,4.6,3.8,7,6.3c0.2-0.1,0.1-5.7,0.1-6.2c0-14.2,0-28.5,0-42.8
			C402.3,97.6,399.1,94.4,393.3,94.4z"/>
	</g>
	<g>
		<path d="M428.1,99.1c9,0,18,0,27,0c4.4,0,7.1-2.7,7.1-7c0-11.7,0-23.5,0-35.2c0-4.2-2.6-7-6.7-7.1c-9.4-0.1-18.6-0.1-28,0
			c-4,0.1-6.6,2.9-6.6,7c0,5.9,0,11.9,0,17.8c0.1,5.7,0.1,11.5,0.1,17.3C421.1,96.5,423.7,99.1,428.1,99.1z M436.3,57.2h8
			c1.1,0,1.9,0.1,2.6,0.4c0.7,0.2,1.2,0.6,1.5,1.1c0.4,0.5,0.6,1.1,0.7,1.8c0.1,0.7,0.2,1.5,0.2,2.4c0,0.8-0.1,1.6-0.2,2.3
			c-0.1,0.7-0.3,1.3-0.7,1.8s-0.8,0.9-1.5,1.2c-0.7,0.3-1.6,0.4-2.7,0.4h-3.7v5.4h-4.2V57.2z"/>
	</g>
	<g>
		<path d="M189,127.8c-0.1-5.8-3.3-9-9.1-9c-12.8,0-25.4,0-38.3,0.5c1.4,0.2,2.8,0.5,4.2,0.5c8.5,0.1,16.9,0,25.4,0.1
			c5.8-0.1,9.2,3.3,9.2,9.1c0,11,0.1,22.1,0.1,33.2c0,4-0.2,6.8,1.5,8.4c2.1,2.6,4.6,3.8,7,6.3c0.2-0.1,0.1-5.7,0.1-6.2
			C189,156.3,189,142,189,127.8z"/>
	</g>
	<g>
		<path d="M124.3,262.1c-3-5-7.3-6.1-12.4-3.2c-11.1,6.4-22,12.7-32.9,19.6c1.3-0.5,2.7-1,3.8-1.7c7.4-4.2,14.7-8.5,22.1-12.6
			c5-3,9.6-1.7,12.5,3.3c5.5,9.5,24.3,41.9,29.8,51.5c2,3.5,3.3,5.9,5.5,6.5c3.1,1.2,5.9,1,9.2,1.9c0.1-0.2-2.7-4.9-3-5.4
			C151.8,309.6,131.5,274.4,124.3,262.1z"/>
	</g>
	<g>
		<path d="M180,190.6c-12.8,0-25.4,0-38.3,0.5c1.4,0.2,2.8,0.5,4.2,0.5c8.5,0.1,16.9,0,25.4,0.1c5.8-0.1,9.2,3.3,9.2,9.1
			c0,11,0.1,22.1,0.1,33.2c0,4-0.2,6.8,1.5,8.4c2.1,2.6,4.6,3.8,7,6.3c0.2-0.1,0.1-5.7,0.1-6.2c0-14.2,0-28.5,0-42.8
			C189,193.8,185.8,190.6,180,190.6z"/>
	</g>
	<g>
		<path d="M115.9,268c-2.1-3.6-5.7-4.7-9.3-2.8c-8.2,4.6-16.1,9.2-24.2,14c-3.4,2.1-4.2,5.8-2.2,9.3c3,5.1,5.9,10.3,8.9,15.4
			c2.9,4.9,19,32.7,21.9,37.7c2.3,3.9,5.8,4.9,9.7,2.7c7.8-4.5,15.6-9,23.4-13.5c3.8-2.2,4.8-5.9,2.6-9.6
			C140.8,311.2,121.8,278.1,115.9,268z"/>
	</g>
	<g>
		<path d="M290.9,242.6c-9.4-0.1-18.6-0.1-28,0c-4,0.1-6.6,2.9-6.6,7c0,5.9,0,11.9,0,17.8c0.1,5.7,0.1,37.8,0.1,43.6
			c0,4.5,2.6,7.2,7.1,7.2c9,0,18,0,27,0c4.4,0,7.1-2.7,7.1-7c0-11.7,0-49.8,0-61.5C297.6,245.5,295,242.7,290.9,242.6z"/>
	</g>
	<g>
		<path d="M62.9,298.5c-3-5-7.3-6.1-12.4-3.2c-11.1,6.4-22,12.7-32.9,19.6c1.3-0.5,2.7-1,3.8-1.7c7.4-4.2,14.7-8.5,22.1-12.6
			c5-3,9.6-1.7,12.5,3.3c5.5,9.5,24.3,41.9,29.8,51.5c2,3.5,3.3,5.9,5.5,6.5c3.1,1.2,5.9,1,9.2,1.9c0.1-0.2-2.7-4.9-3-5.4
			C90.3,346,70,310.8,62.9,298.5z"/>
	</g>
	<g>
		<path d="M298.7,239.8c-12.8,0-25.4,0-38.3,0.5c1.4,0.2,2.8,0.5,4.2,0.5c8.5,0.1,16.9,0,25.4,0.1c5.8-0.1,9.2,3.3,9.2,9.1
			c0,11,0.1,48.5,0.1,59.5c0,4-0.2,6.8,1.5,8.4c2.1,2.6,4.6,3.8,7,6.3c0.2-0.1,0.1-5.7,0.1-6.2c0-14.2,0-54.9,0-69.1
			C307.7,243,304.5,239.8,298.7,239.8z"/>
	</g>
	<g>
		<path d="M226.6,267.1c-12.8,0-25.4,0-38.3,0.5c1.4,0.2,2.8,0.5,4.2,0.5c8.5,0.1,16.9,0,25.4,0.1c5.8-0.1,9.2,3.3,9.2,9.1
			c0,11,0.1,22.1,0.1,33.2c0,4-0.2,6.8,1.5,8.4c2.1,2.6,4.6,3.8,7,6.3c0.2-0.1,0.1-5.7,0.1-6.2c0-14.2,0-28.5,0-42.8
			C235.6,270.3,232.4,267.1,226.6,267.1z"/>
	</g>
	<g>
		<path d="M218.8,269.9c-9.4-0.1-18.6-0.1-28,0c-4,0.1-6.6,2.9-6.6,7c0,5.9,0,11.9,0,17.8c0.1,5.7,0.1,11.5,0.1,17.3
			c0,4.5,2.6,7.2,7.1,7.2c9,0,18,0,27,0c4.4,0,7.1-2.7,7.1-7c0-11.7,0-23.5,0-35.2C225.5,272.8,222.9,270,218.8,269.9z"/>
	</g>
	<g>
		<path d="M314.2,149.7c-9.4-0.1-18.6-0.1-28,0c-4,0.1-6.6,2.9-6.6,7c0,5.9,0,11.9,0,17.8c0.1,5.7,0.1,11.5,0.1,17.3
			c0,4.5,2.6,7.2,7.1,7.2c9,0,18,0,27,0c4.4,0,7.1-2.7,7.1-7c0-11.7,0-23.5,0-35.2C320.9,152.6,318.3,149.8,314.2,149.7z
			 M293.5,167.2c0,0.9,0,1.6-0.1,2.2c-0.1,0.6-0.3,1-0.6,1.4c-0.3,0.3-0.7,0.6-1.3,0.7c-0.6,0.1-1.3,0.2-2.3,0.2v-1.5
			c0.5,0,0.8,0,1.1-0.1c0.2-0.1,0.4-0.2,0.5-0.5c0.1-0.2,0.1-0.6,0.1-1v-0.4h-1.5v-3.5h4.1V167.2z M312.5,165.3l-6.4,2.2l6.4,2.2
			v2.8l-9.7-3.6v-2.8l9.7-3.6V165.3z"/>
	</g>
	<g>
		<path d="M314.2,77.9c-9.4-0.1-18.6-0.1-28,0c-4,0.1-6.6,2.9-6.6,7c0,5.9,0,11.9,0,17.8c0.1,5.7,0.1,11.5,0.1,17.3
			c0,4.5,2.6,7.2,7.1,7.2c9,0,18,0,27,0c4.4,0,7.1-2.7,7.1-7c0-11.7,0-23.5,0-35.2C320.9,80.8,318.3,78,314.2,77.9z M304.4,101.9
			l-4.4-6.9h-1.2v6.9h-4.2V85.3h4.2v6.6h1.2l4.5-6.6h4.5l-5.7,7.9l5.7,8.7H304.4z"/>
	</g>
	<g>
		<path d="M144.4,99.1c9,0,18,0,27,0c4.4,0,7.1-2.7,7.1-7c0-11.7,0-23.5,0-35.2c0-4.2-2.6-7-6.7-7.1c-9.4-0.1-18.6-0.1-28,0
			c-4,0.1-6.6,2.9-6.6,7c0,5.9,0,11.9,0,17.8c0.1,5.7,0.1,11.5,0.1,17.3C137.3,96.5,140,99.1,144.4,99.1z M155.3,57.2l3.3,7h0.2
			l3.3-7h4.2l-5.5,10.9v5.7h-4.2v-5.7L151,57.2H155.3z"/>
	</g>
	<g>
		<path d="M322,75.1c-12.8,0-25.4,0-38.3,0.5c1.4,0.2,2.8,0.5,4.2,0.5c8.5,0.1,16.9,0,25.4,0.1c5.8-0.1,9.2,3.3,9.2,9.1
			c0,11,0.1,22.1,0.1,33.2c0,4-0.2,6.8,1.5,8.4c2.1,2.6,4.6,3.8,7,6.3c0.2-0.1,0.1-5.7,0.1-6.2c0-14.2,0-28.5,0-42.8
			C331,78.3,327.8,75.1,322,75.1z"/>
	</g>
	<g>
		<path d="M54.4,304.4c-2.1-3.6-5.7-4.7-9.3-2.8c-8.2,4.6-16.1,9.2-24.2,14c-3.4,2.1-4.2,5.8-2.2,9.3c3,5.1,5.9,10.3,8.9,15.4
			c2.9,4.9,19,32.7,21.9,37.7c2.3,3.9,5.8,4.9,9.7,2.7c7.8-4.5,15.6-9,23.4-13.5c3.8-2.2,4.8-5.9,2.6-9.6
			C79.3,347.5,60.3,314.5,54.4,304.4z"/>
	</g>
	<g>
		<path d="M384.3,23.7c5.8-0.1,9.2,3.3,9.2,9.1c0,11,0.1,22.1,0.1,33.2c0,4-0.2,6.8,1.5,8.4c2.1,2.6,4.6,3.8,7,6.3
			c0.2-0.1,0.1-5.7,0.1-6.2c0-14.2,0-28.5,0-42.8c-0.1-5.8-3.3-9-9.1-9c-12.8,0-25.4,0-38.3,0.5c1.4,0.2,2.8,0.5,4.2,0.5
			C367.3,23.7,375.8,23.6,384.3,23.7z"/>
	</g>
	<g>
		<path d="M322,146.9c-12.8,0-25.4,0-38.3,0.5c1.4,0.2,2.8,0.5,4.2,0.5c8.5,0.1,16.9,0,25.4,0.1c5.8-0.1,9.2,3.3,9.2,9.1
			c0,11,0.1,22.1,0.1,33.2c0,4-0.2,6.8,1.5,8.4c2.1,2.6,4.6,3.8,7,6.3c0.2-0.1,0.1-5.7,0.1-6.2c0-14.2,0-28.5,0-42.8
			C331,150.1,327.8,146.9,322,146.9z"/>
	</g>
	<g>
		<path d="M454.6,48.1c5.8-0.1,9.2,3.3,9.2,9.1c0,11,0.1,22.1,0.1,33.2c0,4-0.2,6.8,1.5,8.4c2.1,2.6,4.6,3.8,7,6.3
			c0.2-0.1,0.1-5.7,0.1-6.2c0-14.2,0-28.5,0-42.8c-0.1-5.8-3.3-9-9.1-9c-12.8,0-25.4,0-38.3,0.5c1.4,0.2,2.8,0.5,4.2,0.5
			C437.7,48.1,446.1,48,454.6,48.1z"/>
	</g>
	<g>
		<path d="M534.4,225c-12.8,0-25.4,0-38.3,0.5c1.4,0.2,2.8,0.5,4.2,0.5c8.5,0.1,16.9,0,25.4,0.1c5.8-0.1,9.2,3.3,9.2,9.1
			c0,11,0.1,22.1,0.1,33.2c0,4-0.2,6.8,1.5,8.4c2.1,2.6,4.6,3.8,7,6.3c0.2-0.1,0.1-5.7,0.1-6.2c0-14.2,0-28.5,0-42.8
			C543.4,228.2,540.2,225,534.4,225z"/>
	</g>
	<g>
		<path d="M286.5,55.4c9,0,18,0,27,0c4.4,0,7.1-2.7,7.1-7c0-11.7,0-23.5,0-35.2c0-4.2-2.6-7-6.7-7.1c-9.4-0.1-18.6-0.1-28,0
			c-4,0.1-6.6,2.9-6.6,7c0,5.9,0,11.9,0,17.8c0.1,5.7,0.1,11.5,0.1,17.3C279.4,52.8,282,55.4,286.5,55.4z M298.6,13.5h4.2v16.6h-4.2
			V13.5z"/>
	</g>
	<g>
		<path d="M455.8,121.6c-9.4-0.1-18.6-0.1-28,0c-4,0.1-6.6,2.9-6.6,7c0,5.9,0,11.9,0,17.8c0.1,5.7,0.1,11.5,0.1,17.3
			c0,4.5,2.6,7.2,7.1,7.2c9,0,18,0,27,0c4.4,0,7.1-2.7,7.1-7c0-11.7,0-23.5,0-35.2C462.5,124.5,459.9,121.7,455.8,121.6z
			 M438.1,145.6h-4.1v-3.5h4.1V145.6z M438.1,136.8h-4.1v-3.5h4.1V136.8z M451.4,144.7c0,0.9,0,1.6-0.1,2.2c-0.1,0.6-0.3,1-0.6,1.4
			c-0.3,0.3-0.7,0.6-1.3,0.7c-0.6,0.1-1.3,0.2-2.3,0.2v-1.5c0.5,0,0.8,0,1.1-0.1c0.2-0.1,0.4-0.2,0.5-0.5c0.1-0.2,0.1-0.6,0.1-1
			v-0.4h-1.5v-3.5h4.1V144.7z M451.4,136.8h-4.1v-3.5h4.1V136.8z"/>
	</g>
	<g>
		<path d="M259.8,103.4c-0.1-5.8-3.3-9-9.1-9c-12.8,0-25.4,0-38.3,0.5c1.4,0.2,2.8,0.5,4.2,0.5c8.5,0.1,16.9,0,25.4,0.1
			c5.8-0.1,9.2,3.3,9.2,9.1c0,11,0.1,22.1,0.1,33.2c0,4-0.2,6.8,1.5,8.4c2.1,2.6,4.6,3.8,7,6.3c0.2-0.1,0.1-5.7,0.1-6.2
			C259.8,131.9,259.8,117.6,259.8,103.4z"/>
	</g>
	<g>
		<path d="M463.7,118.8c-12.8,0-25.4,0-38.3,0.5c1.4,0.2,2.8,0.5,4.2,0.5c8.5,0.1,16.9,0,25.4,0.1c5.8-0.1,9.2,3.3,9.2,9.1
			c0,11,0.1,22.1,0.1,33.2c0,4-0.2,6.8,1.5,8.4c2.1,2.6,4.6,3.8,7,6.3c0.2-0.1,0.1-5.7,0.1-6.2c0-14.2,0-28.5,0-42.8
			C472.7,122,469.5,118.8,463.7,118.8z"/>
	</g>
	<g>
		<path d="M525.4,82.5c5.8-0.1,9.2,3.3,9.2,9.1c0,11,0.1,22.1,0.1,33.2c0,4-0.2,6.8,1.5,8.4c2.1,2.6,4.6,3.8,7,6.3
			c0.2-0.1,0.1-5.7,0.1-6.2c0-14.2,0-28.5,0-42.8c-0.1-5.8-3.3-9-9.1-9c-12.8,0-25.4,0-38.3,0.5c1.4,0.2,2.8,0.5,4.2,0.5
			C508.4,82.5,516.8,82.4,525.4,82.5z"/>
	</g>
	<g>
		<path d="M242.9,97.2c-9.4-0.1-18.6-0.1-28,0c-4,0.1-6.6,2.9-6.6,7c0,5.9,0,11.9,0,17.8c0.1,5.7,0.1,11.5,0.1,17.3
			c0,4.5,2.6,7.2,7.1,7.2c9,0,18,0,27,0c4.4,0,7.1-2.7,7.1-7c0-11.7,0-23.5,0-35.2C249.6,100.1,247,97.3,242.9,97.2z M233,113.7
			c0,1.4,0,2.6-0.1,3.5c-0.1,0.9-0.2,1.7-0.5,2.2c-0.3,0.5-0.7,0.9-1.2,1.2c-0.5,0.2-1.3,0.4-2.2,0.5s-2.1,0.1-3.6,0.1v-3
			c0.9,0,1.5-0.1,2-0.1c0.4-0.1,0.8-0.2,1-0.4c0.2-0.2,0.3-0.5,0.4-1s0.1-1.1,0.1-1.8v-10.2h4.2V113.7z"/>
	</g>
	<g>
		<path d="M498.9,133.5c9,0,18,0,27,0c4.4,0,7.1-2.7,7.1-7c0-11.7,0-23.5,0-35.2c0-4.2-2.6-7-6.7-7.1c-9.4-0.1-18.6-0.1-28,0
			c-4,0.1-6.6,2.9-6.6,7c0,5.9,0,11.9,0,17.8c0.1,5.7,0.1,11.5,0.1,17.3C491.8,130.9,494.4,133.5,498.9,133.5z M521.4,93h2.8v13
			h-2.8V93z M511.4,99.5c0.1-0.6,0.3-1.1,0.5-1.4c0.3-0.4,0.7-0.7,1.3-0.8c0.6-0.2,1.3-0.3,2.3-0.3c0.8,0,1.4,0.1,1.9,0.2
			c0.5,0.1,0.9,0.3,1.2,0.5c0.3,0.2,0.5,0.5,0.6,0.9c0.1,0.4,0.2,0.8,0.2,1.3c0,0.5,0.1,1.1,0.1,1.8v0.7h-5.4c0,0.4,0,0.7,0.1,1
			c0,0.2,0.1,0.4,0.3,0.5s0.4,0.2,0.7,0.2c0.3,0,0.7,0.1,1.3,0.1c0.2,0,0.5,0,0.8,0c0.3,0,0.6,0,0.9-0.1c0.3,0,0.6,0,0.9-0.1v2
			c-0.3,0.1-0.6,0.1-0.9,0.1c-0.4,0-0.8,0.1-1.2,0.1c-0.4,0-0.8,0-1.2,0c-0.8,0-1.5-0.1-2.1-0.2c-0.5-0.1-1-0.3-1.3-0.5
			c-0.3-0.2-0.6-0.5-0.7-0.9c-0.1-0.4-0.2-0.8-0.3-1.3c-0.1-0.5-0.1-1.1-0.1-1.8C511.3,100.8,511.3,100.1,511.4,99.5z M499.9,94h4.2
			c1.1,0,2,0.1,2.6,0.2c0.7,0.1,1.2,0.3,1.6,0.6c0.4,0.3,0.7,0.6,0.8,1.1c0.2,0.5,0.3,1,0.3,1.7c0,0.7,0.1,1.5,0.1,2.5
			c0,1,0,1.8-0.1,2.5c0,0.7-0.2,1.3-0.3,1.7c-0.2,0.5-0.5,0.8-0.8,1.1c-0.4,0.3-0.9,0.5-1.6,0.6c-0.7,0.1-1.5,0.2-2.6,0.2h-4.2V94z"
			/>
	</g>
	<g>
		<path d="M505.9,103.4c0.2-0.1,0.3-0.3,0.4-0.6c0.1-0.3,0.1-0.6,0.1-1.1s0-1.1,0-1.8c0-0.7,0-1.3,0-1.8c0-0.5-0.1-0.8-0.1-1.1
			c-0.1-0.3-0.2-0.4-0.4-0.6c-0.2-0.1-0.4-0.2-0.7-0.2c-0.3,0-0.7,0-1.2,0h-1.1v7.4h1.1c0.5,0,0.9,0,1.2,0
			C505.5,103.6,505.7,103.5,505.9,103.4z"/>
	</g>
	<g>
		<path d="M526.6,227.8c-9.4-0.1-18.6-0.1-28,0c-4,0.1-6.6,2.9-6.6,7c0,5.9,0,11.9,0,17.8c0.1,5.7,0.1,11.5,0.1,17.3
			c0,4.5,2.6,7.2,7.1,7.2c9,0,18,0,27,0c4.4,0,7.1-2.7,7.1-7c0-11.7,0-23.5,0-35.2C533.2,230.7,530.6,227.9,526.6,227.8z
			 M523.6,244.4h-0.3l-7.2,8.2h-5.9l5.2-5.9h-11.9v-4.9h11.9l-5.2-5.9h5.9l7.2,8.2h0.3l-0.1,0.2L523.6,244.4z"/>
	</g>
	<g>
		<path d="M516.8,99.8c0-0.3-0.1-0.4-0.2-0.6c-0.1-0.1-0.2-0.2-0.4-0.2c-0.2,0-0.4-0.1-0.6-0.1c-0.3,0-0.6,0-0.8,0.1
			c-0.2,0-0.3,0.1-0.4,0.2c-0.1,0.1-0.1,0.3-0.2,0.6s-0.1,0.6-0.1,1h2.7C516.8,100.4,516.8,100.1,516.8,99.8z"/>
	</g>
	<g>
		<path d="M455.8,193.4c-9.4-0.1-18.6-0.1-28,0c-4,0.1-6.6,2.9-6.6,7c0,5.9,0,11.9,0,17.8c0.1,5.7,0.1,11.5,0.1,17.3
			c0,4.5,2.6,7.2,7.1,7.2c9,0,18,0,27,0c4.4,0,7.1-2.7,7.1-7c0-11.7,0-23.5,0-35.2C462.5,196.3,459.9,193.5,455.8,193.4z
			 M432.7,217.7H430l5.7-15.8h2.7L432.7,217.7z M450.3,217.3h-3.8v-3.2h3.8V217.3z M453.7,207.7c-0.1,0.4-0.3,0.7-0.4,1
			c-0.2,0.3-0.4,0.5-0.7,0.6c-0.3,0.2-0.5,0.3-0.8,0.4L451,210c-0.2,0.1-0.4,0.1-0.6,0.2c-0.1,0.1-0.3,0.2-0.3,0.2s-0.1,0.2-0.1,0.4
			c0,0.2,0,0.4,0,0.7v0.7h-3.2v-1.5c0-0.6,0.1-1,0.2-1.4c0.1-0.3,0.3-0.6,0.5-0.8c0.2-0.2,0.5-0.3,0.9-0.4l0.7-0.2
			c0.3-0.1,0.5-0.2,0.7-0.3c0.1-0.1,0.2-0.2,0.3-0.4c0.1-0.2,0.1-0.5,0.1-0.9c0-0.4-0.1-0.7-0.2-0.9c-0.1-0.2-0.3-0.3-0.6-0.4
			c-0.3,0-0.7-0.1-1.2-0.1c-0.2,0-0.5,0-0.8,0c-0.3,0-0.6,0-0.9,0.1c-0.3,0-0.6,0-0.9,0.1c-0.3,0-0.6,0-0.8,0.1v-2.7
			c0.4-0.1,0.9-0.2,1.4-0.2c0.5-0.1,1.1-0.1,1.6-0.1c0.5,0,1,0,1.5,0c0.7,0,1.4,0.1,2,0.2c0.6,0.1,1.1,0.3,1.5,0.6
			c0.4,0.3,0.7,0.7,0.9,1.2c0.2,0.5,0.3,1.2,0.3,2.1C453.9,206.8,453.8,207.3,453.7,207.7z"/>
	</g>
	<g>
		<path d="M463.7,190.6c-12.8,0-25.4,0-38.3,0.5c1.4,0.2,2.8,0.5,4.2,0.5c8.5,0.1,16.9,0,25.4,0.1c5.8-0.1,9.2,3.3,9.2,9.1
			c0,11,0.1,22.1,0.1,33.2c0,4-0.2,6.8,1.5,8.4c2.1,2.6,4.6,3.8,7,6.3c0.2-0.1,0.1-5.7,0.1-6.2c0-14.2,0-28.5,0-42.8
			C472.7,193.8,469.5,190.6,463.7,190.6z"/>
	</g>
	<g>
		<path d="M313,4.4c5.8-0.1,9.2,3.3,9.2,9.1c0,11,0.1,22.1,0.1,33.2c0,4-0.2,6.8,1.5,8.4c2.1,2.6,4.6,3.8,7,6.3
			c0.2-0.1,0.1-5.7,0.1-6.2c0-14.2,0-28.5,0-42.8c-0.1-5.8-3.3-9-9.1-9c-12.8,0-25.4,0-38.3,0.5c1.4,0.2,2.8,0.5,4.2,0.5
			C296.1,4.4,304.5,4.3,313,4.4z"/>
	</g>
	<g>
		<path d="M0,0v400h550V0H0z M266.9,12.2c0-6.6,4-10.4,10.5-10.4c14.8,0,29.6,0,44.4,0c6.8,0,10.5,3.9,10.6,10.5
			c0,7.7,0,15.5,0,23.2c0,7.9,0,15.8,0,23.6c-0.1,6.4-4,10.3-10.3,10.3c-15,0-29.9,0-44.8,0c-6.5,0-10.4-3.9-10.4-10.3
			C266.9,43.4,266.9,27.7,266.9,12.2z M251.1,160.4c-15,0-29.9,0-44.8,0c-6.5,0-10.4-3.9-10.4-10.3c0-15.6,0-31.2,0-46.8
			c0-6.6,4-10.4,10.5-10.4c14.8,0,29.6,0,44.4,0c6.8,0,10.5,3.9,10.6,10.5c0,7.7,0,15.5,0,23.2c0,7.9,0,15.8,0,23.6
			C261.4,156.5,257.5,160.4,251.1,160.4z M261.5,175.1c0,7.7,0,15.5,0,23.2c0,7.9,0,15.8,0,23.6c-0.1,6.4-4,10.3-10.3,10.3
			c-15,0-29.9,0-44.8,0c-6.5,0-10.4-3.9-10.4-10.3c0-15.6,0-31.2,0-46.8c0-6.6,4-10.4,10.5-10.4c14.8,0,29.6,0,44.4,0
			C257.6,164.5,261.4,168.4,261.5,175.1z M195.6,31.5c0-6.6,4-10.4,10.5-10.4c14.8,0,29.6,0,44.4,0c6.8,0,10.5,3.9,10.6,10.5
			c0,7.7,0,15.5,0,23.2c0,7.9,0,15.8,0,23.6c-0.1,6.4-4,10.3-10.3,10.3c-15,0-29.9,0-44.8,0c-6.5,0-10.4-3.9-10.4-10.3
			C195.6,62.7,195.6,47,195.6,31.5z M180.3,184.8c-15,0-29.9,0-44.8,0c-6.5,0-10.4-3.9-10.4-10.3c0-15.6,0-31.2,0-46.8
			c0-6.6,4-10.4,10.5-10.4c14.8,0,29.6,0,44.4,0c6.8,0,10.5,3.9,10.6,10.5c0,7.7,0,15.5,0,23.2c0,7.9,0,15.8,0,23.6
			C190.6,180.9,186.7,184.8,180.3,184.8z M190.7,199.5c0,7.7,0,15.5,0,23.2c0,7.9,0,15.8,0,23.6c-0.1,6.4-4,10.3-10.3,10.3
			c-15,0-29.9,0-44.8,0c-6.5,0-10.4-3.9-10.4-10.3c0-15.6,0-31.2,0-46.8c0-6.6,4-10.4,10.5-10.4c14.8,0,29.6,0,44.4,0
			C186.8,188.9,190.6,192.8,190.7,199.5z M124.8,55.9c0-6.6,4-10.4,10.5-10.4c14.8,0,29.6,0,44.4,0c6.8,0,10.5,3.9,10.6,10.5
			c0,7.7,0,15.5,0,23.2c0,7.9,0,15.8,0,23.6c-0.1,6.4-4,10.3-10.3,10.3c-15,0-29.9,0-44.8,0c-6.5,0-10.4-3.9-10.4-10.3
			C124.8,87.1,124.8,71.4,124.8,55.9z M97,375c-13,7.5-25.9,14.9-38.8,22.4c-5.6,3.2-11,1.9-14.2-3.7c-7.8-13.5-28.8-49.9-36.6-63.3
			c-3.3-5.7-1.8-11,3.9-14.3c12.8-7.4,25.6-14.8,38.4-22.2c5.9-3.4,11.1-1.9,14.5,3.8c3.9,6.7,7.7,13.4,11.6,20.1
			c4,6.9,21,36.4,25,43.2C103.9,366.5,102.5,371.8,97,375z M158.5,338.6c-13,7.5-25.9,14.9-38.8,22.4c-5.6,3.2-11,1.9-14.2-3.7
			c-7.8-13.5-28.8-49.9-36.6-63.3c-3.3-5.7-1.8-11,3.9-14.3c12.8-7.4,25.6-14.8,38.4-22.2c5.9-3.4,11.1-1.9,14.5,3.8
			c3.9,6.7,7.7,13.4,11.6,20.1c4,6.9,21,36.4,25,43.2C165.4,330.1,164,335.4,158.5,338.6z M237.4,299.2c0,7.9,0,15.8,0,23.6
			c-0.1,6.4-4,10.3-10.3,10.3c-15,0-29.9,0-44.8,0c-6.5,0-10.4-3.9-10.4-10.3c0-15.6,0-31.2,0-46.8c0-6.6,4-10.4,10.5-10.4
			c14.8,0,29.6,0,44.4,0c6.8,0,10.5,3.9,10.6,10.5C237.4,283.7,237.4,291.5,237.4,299.2z M309.5,271.9c0,7.9,0,42.1,0,49.9
			c-0.1,6.4-4,10.3-10.3,10.3c-15,0-29.9,0-44.8,0c-6.5,0-10.4-3.9-10.4-10.3c0-15.6,0-57.6,0-73.1c0-6.6,4-10.4,10.5-10.4
			c14.8,0,29.6,0,44.4,0c6.8,0,10.5,3.9,10.6,10.5C309.5,256.5,309.5,264.2,309.5,271.9z M332.8,179c0,7.9,0,15.8,0,23.6
			c-0.1,6.4-4,10.3-10.3,10.3c-15,0-29.9,0-44.8,0c-6.5,0-10.4-3.9-10.4-10.3c0-15.6,0-31.2,0-46.8c0-6.6,4-10.4,10.5-10.4
			c14.8,0,29.6,0,44.4,0c6.8,0,10.5,3.9,10.6,10.5C332.8,163.5,332.8,171.2,332.8,179z M332.8,107.2c0,7.9,0,15.8,0,23.6
			c-0.1,6.4-4,10.3-10.3,10.3c-15,0-29.9,0-44.8,0c-6.5,0-10.4-3.9-10.4-10.3c0-15.6,0-31.2,0-46.8c0-6.6,4-10.4,10.5-10.4
			c14.8,0,29.6,0,44.4,0c6.8,0,10.5,3.9,10.6,10.5C332.8,91.7,332.8,99.5,332.8,107.2z M338.1,31.5c0-6.6,4-10.4,10.5-10.4
			c14.8,0,29.6,0,44.4,0c6.8,0,10.5,3.9,10.6,10.5c0,7.7,0,15.5,0,23.2c0,7.9,0,15.8,0,23.6c-0.1,6.4-4,10.3-10.3,10.3
			c-15,0-29.9,0-44.8,0c-6.5,0-10.4-3.9-10.4-10.3C338.1,62.7,338.1,47,338.1,31.5z M404,198.3c0,7.9,0,15.8,0,23.6
			c-0.1,6.4-4,10.3-10.3,10.3c-15,0-29.9,0-44.8,0c-6.5,0-10.4-3.9-10.4-10.3c0-15.6,0-31.2,0-46.8c0-6.6,4-10.4,10.5-10.4
			c14.8,0,29.6,0,44.4,0c6.8,0,10.5,3.9,10.6,10.5C404,182.8,404,190.5,404,198.3z M404,126.5c0,7.9,0,15.8,0,23.6
			c-0.1,6.4-4,10.3-10.3,10.3c-15,0-29.9,0-44.8,0c-6.5,0-10.4-3.9-10.4-10.3c0-15.6,0-31.2,0-46.8c0-6.6,4-10.4,10.5-10.4
			c14.8,0,29.6,0,44.4,0c6.8,0,10.5,3.9,10.6,10.5C404,111,404,118.8,404,126.5z M408.5,55.9c0-6.6,4-10.4,10.5-10.4
			c14.8,0,29.6,0,44.4,0c6.8,0,10.5,3.9,10.6,10.5c0,7.7,0,15.5,0,23.2c0,7.9,0,15.8,0,23.6c-0.1,6.4-4,10.3-10.3,10.3
			c-15,0-29.9,0-44.8,0c-6.5,0-10.4-3.9-10.4-10.3C408.5,87.1,408.5,71.4,408.5,55.9z M474.4,222.7c0,7.9,0,15.8,0,23.6
			c-0.1,6.4-4,10.3-10.3,10.3c-15,0-29.9,0-44.8,0c-6.5,0-10.4-3.9-10.4-10.3c0-15.6,0-31.2,0-46.8c0-6.6,4-10.4,10.5-10.4
			c14.8,0,29.6,0,44.4,0c6.8,0,10.5,3.9,10.6,10.5C474.4,207.2,474.4,214.9,474.4,222.7z M474.4,150.9c0,7.9,0,15.8,0,23.6
			c-0.1,6.4-4,10.3-10.3,10.3c-15,0-29.9,0-44.8,0c-6.5,0-10.4-3.9-10.4-10.3c0-15.6,0-31.2,0-46.8c0-6.6,4-10.4,10.5-10.4
			c14.8,0,29.6,0,44.4,0c6.8,0,10.5,3.9,10.6,10.5C474.4,135.4,474.4,143.2,474.4,150.9z M479.2,90.3c0-6.6,4-10.4,10.5-10.4
			c14.8,0,29.6,0,44.4,0c6.8,0,10.5,3.9,10.6,10.5c0,7.7,0,15.5,0,23.2c0,7.9,0,15.8,0,23.6c-0.1,6.4-4,10.3-10.3,10.3
			c-15,0-29.9,0-44.8,0c-6.5,0-10.4-3.9-10.4-10.3C479.2,121.5,479.2,105.8,479.2,90.3z M545.1,257.1c0,7.9,0,15.8,0,23.6
			c-0.1,6.4-4,10.3-10.3,10.3c-15,0-29.9,0-44.8,0c-6.5,0-10.4-3.9-10.4-10.3c0-15.6,0-31.2,0-46.8c0-6.6,4-10.4,10.5-10.4
			c14.8,0,29.6,0,44.4,0c6.8,0,10.5,3.9,10.6,10.5C545.1,241.6,545.1,249.3,545.1,257.1z M545.1,185.3c0,7.9,0,15.8,0,23.6
			c-0.1,6.4-4,10.3-10.3,10.3c-15,0-29.9,0-44.8,0c-6.5,0-10.4-3.9-10.4-10.3c0-15.6,0-31.2,0-46.8c0-6.6,4-10.4,10.5-10.4
			c14.8,0,29.6,0,44.4,0c6.8,0,10.5,3.9,10.6,10.5C545.1,169.9,545.1,177.6,545.1,185.3z"/>
	</g>
	<g>
		<path d="M215.2,74.7c9,0,18,0,27,0c4.4,0,7.1-2.7,7.1-7c0-11.7,0-23.5,0-35.2c0-4.2-2.6-7-6.7-7.1c-9.4-0.1-18.6-0.1-28,0
			c-4,0.1-6.6,2.9-6.6,7c0,5.9,0,11.9,0,17.8c0.1,5.7,0.1,11.5,0.1,17.3C208.1,72.1,210.8,74.7,215.2,74.7z M222.7,32.8h4.2v10
			c0,0.8,0,1.4,0.1,1.9s0.1,0.8,0.3,1.1c0.2,0.2,0.4,0.4,0.7,0.5c0.3,0.1,0.8,0.1,1.4,0.1c0.6,0,1.1,0,1.4-0.1
			c0.3-0.1,0.6-0.2,0.7-0.5c0.2-0.2,0.2-0.6,0.3-1.1c0-0.5,0-1.1,0-1.9v-10h4.2v9.1c0,1.2,0,2.3-0.1,3.1c-0.1,0.9-0.2,1.6-0.5,2.2
			c-0.2,0.6-0.6,1.1-1.1,1.4c-0.5,0.3-1.1,0.6-2,0.7c-0.8,0.2-1.8,0.2-3.1,0.2c-1.2,0-2.2-0.1-3.1-0.2s-1.5-0.4-2-0.7
			c-0.5-0.3-0.8-0.8-1.1-1.4c-0.2-0.6-0.4-1.3-0.5-2.2c-0.1-0.9-0.1-1.9-0.1-3.1V32.8z"/>
	</g>
	<g>
		<path d="M241.7,23.7c5.8-0.1,9.2,3.3,9.2,9.1c0,11,0.1,22.1,0.1,33.2c0,4-0.2,6.8,1.5,8.4c2.1,2.6,4.6,3.8,7,6.3
			c0.2-0.1,0.1-5.7,0.1-6.2c0-14.2,0-28.5,0-42.8c-0.1-5.8-3.3-9-9.1-9c-12.8,0-25.4,0-38.3,0.5c1.4,0.2,2.8,0.5,4.2,0.5
			C224.8,23.7,233.2,23.6,241.7,23.7z"/>
	</g>
	<g>
		<path d="M242.9,169c-9.4-0.1-18.6-0.1-28,0c-4,0.1-6.6,2.9-6.6,7c0,5.9,0,11.9,0,17.8c0.1,5.7,0.1,11.5,0.1,17.3
			c0,4.5,2.6,7.2,7.1,7.2c9,0,18,0,27,0c4.4,0,7.1-2.7,7.1-7c0-11.7,0-23.5,0-35.2C249.6,171.9,247,169.1,242.9,169z M238.9,192.9
			H235v-10.8h-0.2l-3.6,10.8h-2.8l-3.6-10.8h-0.2v10.8h-4.1v-16.6h5.7l3.3,9.9h0.2l3.3-9.9h5.8V192.9z"/>
	</g>
	<g>
		<path d="M526.6,156c-9.4-0.1-18.6-0.1-28,0c-4,0.1-6.6,2.9-6.6,7c0,5.9,0,11.9,0,17.8c0.1,5.7,0.1,11.5,0.1,17.3
			c0,4.5,2.6,7.2,7.1,7.2c9,0,18,0,27,0c4.4,0,7.1-2.7,7.1-7c0-11.7,0-23.5,0-35.2C533.2,158.9,530.6,156.1,526.6,156z M521.4,174.2
			l-5.9-5.2v11.9h-4.9V169l-5.9,5.2v-5.9l8.2-7.2v-0.3l0.2,0.1l0.2-0.1v0.3l8.2,7.2V174.2z"/>
	</g>
	<g>
		<path d="M250.7,166.2c-12.8,0-25.4,0-38.3,0.5c1.4,0.2,2.8,0.5,4.2,0.5c8.5,0.1,16.9,0,25.4,0.1c5.8-0.1,9.2,3.3,9.2,9.1
			c0,11,0.1,22.1,0.1,33.2c0,4-0.2,6.8,1.5,8.4c2.1,2.6,4.6,3.8,7,6.3c0.2-0.1,0.1-5.7,0.1-6.2c0-14.2,0-28.5,0-42.8
			C259.7,169.4,256.6,166.2,250.7,166.2z"/>
	</g>
	<g>
		<path d="M534.4,153.2c-12.8,0-25.4,0-38.3,0.5c1.4,0.2,2.8,0.5,4.2,0.5c8.5,0.1,16.9,0,25.4,0.1c5.8-0.1,9.2,3.3,9.2,9.1
			c0,11,0.1,22.1,0.1,33.2c0,4-0.2,6.8,1.5,8.4c2.1,2.6,4.6,3.8,7,6.3c0.2-0.1,0.1-5.7,0.1-6.2c0-14.2,0-28.5,0-42.8
			C543.4,156.4,540.2,153.2,534.4,153.2z"/>
	</g>
</g>
</svg>
