<?xml version="1.0" encoding="utf-8"?>
<!-- Generator: Adobe Illustrator 27.2.0, SVG Export Plug-In . SVG Version: 6.00 Build 0)  -->
<svg version="1.1" id="レイヤー_1" xmlns="http://www.w3.org/2000/svg" xmlns:xlink="http://www.w3.org/1999/xlink" x="0px"
	 y="0px" viewBox="0 0 800 200" style="enable-background:new 0 0 800 200;" xml:space="preserve">
<g>
	<path d="M630.5,92.4c1.6,0.5,2.5-2,0.8-2.5C629.7,89.3,628.8,91.9,630.5,92.4z"/>
	<polygon points="326.3,103.6 325.5,103 312.4,122.2 321.8,133.1 322.5,132.5 313.6,122.1 	"/>
	<rect x="561.9" y="94.4" transform="matrix(0.318 -0.9481 0.9481 0.318 311.84 623.1799)" width="54.2" height="1"/>
	<path d="M628.7,98c1.6,0.5,2.5-2,0.8-2.5C627.9,94.9,627.1,97.5,628.7,98z"/>
	<path d="M632.3,86.7c1.6,0.5,2.5-2,0.8-2.5C631.4,83.6,630.6,86.2,632.3,86.7z"/>
	<path d="M621,120.6c1.6,0.6,2.5-2,0.8-2.5C620.2,117.5,619.3,120.1,621,120.6z"/>
	<path d="M619.1,126.2c1.6,0.6,2.5-2,0.8-2.5C618.3,123.2,617.4,125.7,619.1,126.2z"/>
	<path d="M622.9,115c1.6,0.6,2.5-2,0.8-2.5C622.1,111.9,621.2,114.5,622.9,115z"/>
	<path d="M626.9,103.7c1.6,0.5,2.5-2,0.8-2.5C626.1,100.6,625.3,103.2,626.9,103.7z"/>
	<path d="M625.1,109.3c1.6,0.5,2.5-2,0.8-2.5C624.3,106.3,623.5,108.9,625.1,109.3z"/>
	<path d="M194.8,84c0,1.7,2.7,1.7,2.7,0C197.4,82.3,194.7,82.3,194.8,84z"/>
	<path d="M200.7,84c0,1.7,2.7,1.7,2.7,0C203.4,82.3,200.7,82.3,200.7,84z"/>
	<path d="M617.2,131.9c1.6,0.6,2.5-2,0.8-2.5C616.4,128.8,615.5,131.4,617.2,131.9z"/>
	<path d="M206.6,84c0,1.7,2.7,1.7,2.7,0C209.3,82.3,206.6,82.3,206.6,84z"/>
	<path d="M624.7,58.4l27.8-0.2c1.2,0,2.1-1,2.1-2.2c-1.2-27,3.6-30.6-7-30.5c0,0,0,0,0,0c-4.5,0-11.7,0.7-23.2,0.5
		c-1.2,0-2.1,1-2.1,2.2l0.2,28.2C622.6,57.4,623.5,58.4,624.7,58.4z M652.5,54.8l-1.1,0l-0.5-0.3l-0.9,0l-0.1-6.3
		c0.4-0.1,1.1,0,1.4,0.3l1.1,0L652.5,54.8z M651.2,28.1l1.1,0l0.1,6.3l-1.1,0l-0.5-0.3l-0.9,0l-0.1-6.3
		C650.2,27.8,650.9,27.9,651.2,28.1z M648.6,35l0.1,8l0,5.1l-5.7,0l0-3.1l2.6,0l0-1.4l0-5.6l-2.6,0l0-3.1L648.6,35z M640.3,36.9
		l0,3.1l3.1,0l0,3.3l-3.1,0l0,3.1l-3.3,0l0-3.1l-3.1,0l0-3.3l3.1,0l0-3.1L640.3,36.9z M634.5,35.1l0,3.1l-2.6,0l0,5.3l0,1.7l2.6,0
		l0,3.1l-5.7,0l0-5.1h0l-0.1-8L634.5,35.1z M648.4,51.9l0,2.5l-19.5,0.2l0-2.5L648.4,51.9z M627.2,54.7l-0.9,0l-0.5,0.3l-1.1,0
		l-0.1-6.3l1.1,0c0.3-0.3,1-0.4,1.4-0.3L627.2,54.7z M625.6,28.4c0.3-0.3,1-0.4,1.4-0.3l0.1,6.3l-0.9,0l-0.5,0.3l-1.1,0l-0.1-6.3
		L625.6,28.4z"/>
	<path d="M188.8,84c0,1.7,2.7,1.7,2.7,0C191.5,82.3,188.8,82.3,188.8,84z"/>
	<path d="M282.5,84c0,1.7,2.7,1.7,2.7,0C285.2,82.3,282.5,82.3,282.5,84z"/>
	<path d="M212.6,84c0,1.7,2.7,1.7,2.7,0C215.3,82.3,212.5,82.3,212.6,84z"/>
	<path d="M294.4,84c0,1.7,2.7,1.7,2.7,0C297.1,82.3,294.4,82.3,294.4,84z"/>
	<path d="M288.4,84c0,1.7,2.7,1.7,2.7,0C291.1,82.3,288.4,82.3,288.4,84z"/>
	<path d="M270.6,84c0,1.7,2.7,1.7,2.7,0C273.3,82.3,270.6,82.3,270.6,84z"/>
	<path d="M276.6,84c0,1.7,2.7,1.7,2.7,0C279.3,82.3,276.5,82.3,276.6,84z"/>
	<path d="M762.3,86.7c1.6,0.5,2.5-2,0.8-2.5C761.4,83.6,760.6,86.2,762.3,86.7z"/>
	<path d="M759.5,95.5c-1.6-0.5-2.5,2-0.8,2.5C760.3,98.6,761.1,96,759.5,95.5z"/>
	<path d="M760.5,92.4c1.6,0.5,2.5-2,0.8-2.5C759.6,89.3,758.8,91.9,760.5,92.4z"/>
	<path d="M775.2,25.5C775.2,25.5,775.2,25.5,775.2,25.5c-4.5,0-11.7,0.7-23.2,0.5c-1.2,0-2.1,1-2.1,2.2l0.2,28.2
		c0,1.2,1,2.1,2.2,2.1l27.8-0.2c1.2,0,2.1-1,2.1-2.2C781.1,28.9,785.8,25.4,775.2,25.5z M752.1,28.4l1.1,0c0.3-0.3,1-0.4,1.4-0.3
		l0.1,6.3l-0.9,0l-0.5,0.3l-1.1,0L752.1,28.4z M753.9,54.7l-0.5,0.3l-1.1,0l-0.1-6.3l1.1,0c0.3-0.3,1-0.4,1.4-0.3l0.1,6.3
		L753.9,54.7z M767.9,36.9l0,3.1l3.1,0l0,3.3l-3.1,0l0,3.1l-3.3,0l0-3.1l-3.1,0l0-3.3l3.1,0l0-3.1L767.9,36.9z M762.1,35.1l0,3.1
		l-2.6,0l0,5.3h0l0,1.7l2.6,0l0,3.1l-5.7,0l0-5.1l-0.1-8L762.1,35.1z M756.5,54.6l0-2.5l19.5-0.2l0,2.5L756.5,54.6z M770.6,48.1
		l0-3.1l2.6,0l0-1.4l0-5.6l-2.6,0l0-3.1l5.7,0l0.1,8l0,5.1L770.6,48.1z M777.4,27.8c0.4-0.1,1.1,0,1.4,0.3l1.1,0l0.1,6.3l-1.1,0
		l-0.5-0.3l-0.9,0L777.4,27.8z M779,54.8l-0.5-0.3l-0.9,0l-0.1-6.3c0.4-0.1,1.1,0,1.4,0.3l1.1,0l0.1,6.3L779,54.8z"/>
	<path d="M755.9,106.8c-1.6-0.5-2.5,2-0.8,2.5C756.7,109.9,757.6,107.3,755.9,106.8z"/>
	<path d="M0,0v200h800V0H0z M710.7,57.7l12.5,13.4l-3.5,3.2l-9.1-9.9l-9.6,11l-28.8,4.7l-9.4,27.8l2.3,3.9l39.9-1l0.1,4.8l-13.4,0.3
		l0,0l-25.8,0.6l0,1l25.3-0.6l-1.7,4l-12.8,0.3l-6.3,6.4l-14.4,0.3l-11.1-17.5l15-44.4L710.7,57.7z M689.3,121.8l-2.2,5.4l-15,0.3
		l5.3-5.4L689.3,121.8z M631.5,24l0,1.4l4.9,0l0-1.4l4.2,0l0,1.4l4.5,0l0-1.4c3.8,0.3,12.1-2,11,4.7l-1.2,0l0.2,26.5l1.4,0
		c0.3,2.2-0.6,4.8-3.2,4.8l-7.7,0.1l0-1.2l-4.6,0l0,1.2l-4.2,0l0-1.2l-4.9,0l0,1.2c-3.8-0.3-12.1,2-11-4.7l1.2,0l-0.2-26.5l-1.2,0
		C619.4,22.2,627.8,24.3,631.5,24z M148.4,142.6l-17.1-9.6c12.5,0.1,10.1,0.6,22.7,7.6L148.4,142.6z M177.2,145.7l-14.7-8.1l-0.1,0
		l-49-25.9l-0.5,0.9l48.2,25.5l-6,2.1c-14.2-7.8-10.5-8.1-25.6-8.2L67.8,97.4l3.9-20.5l-49,109l-4.3-2l5.9-13.2L17.3,159L82.1,15
		l4.2,2L74.6,43.2l7.1,11.7l-6,13.2L186.2,15l2.1,4.2l-24.4,11.7l0,0.1l-51.6,24.6l0.4,0.9l50.5-24.1l-1.9,4.1l-21.4,10.2v6.2h1
		v-5.6l19.8-9.4l-4.2,8.7L88.3,79.6L85.7,89l93.7,52.7L177.2,145.7z M196.5,109.2l-4.6,12.4l-30.2,6.7l-17.3-23.4l29.2-49.2h70.9
		v4.8h-15l-0.2,0.1h-39.7v1h38.5l-4.5,3.6l-18.8,0.1l-5.1,3.2l0.5,0.8l4.8-3.1l17.3-0.1l-6.6,5.4h-33.6L163.4,104l4.9,6.6l41.6-9.4
		l1.1,4.6L196.5,109.2z M215.5,96.5h-38.8v-4.8h3.9l6.3-11.1h47.2v4.8h-12.3L215.5,96.5z M278.3,109.2l-4.6,12.4l-30.2,6.7
		l-17.3-23.4l29.2-49.2h70.9v4.8h-15l-0.2,0.1h-39.7v1h38.5l-4.5,3.6l-19.7,0.1l-5.1,3.2l0.5,0.8l4.8-3.1l18.3-0.1l-6.6,5.4H264
		L245.2,104l4.9,6.6l41.6-9.4l1.1,4.6L278.3,109.2z M258.5,96.5v-4.8h3.9l6.3-11.1h47.2v4.8h-12.3l-6.3,11.1H258.5z M300.2,122.8
		L385.9,3.6l3.9,2.8l-14.4,20l0,0.2l-18.5,26.6l0.8,0.6l17.7-25.3l-0.8,18.4l-53.7,74.5l3.4,3.8L389.8,89l-0.6-2h-30.9v-4.8h24.6
		l18.3-6.7L411.5,95l-90.7,49.7L300.2,122.8z M514,150.7l-18.7-10.5l9.5,0.2l14.7,8.3L514,150.7z M542.8,153.9l-14.7-8.1l-0.1,0
		L477.1,119l-0.5,0.9l50.1,26.4l-6,2.1l-15.7-8.9l-11.5-0.3l-60.1-33.7l3.9-20.5l-49,109l-4.3-2l5.9-13.2l-6.9-11.7l64.7-144l4.2,2
		l-11.7,26.2l7.1,11.7l-6,13.2l110.5-53.1l2.1,4.2l-24.4,11.7l-0.2,0.4l-52.1,24.8l0.4,0.9l51-24.3l-1.9,4.1l-21.9,10.5v6.2h1V56
		l20.3-9.7l-4,8.3l-68.1,33.1l-2.6,9.3l93.7,52.7L542.8,153.9z M518.7,128.1l-15.9-25.6l70.1-40.1l4.4,8.5l-24.3,13.9l0.5,0.8
		l24.5-14l9.5-0.1v4.9h-7.1l-55.1,31.7l2.3,3.9l50.4-0.6l17.3-49.6l-3.8-5l3.4-9.7L606,60.6l-10.7,31.6l0.9,0.3l10.8-32.1
		l-11.9-14.5l0-0.1l-10.8-13.6l4.7-3.7l23.7,30l-24.4,69.6L518.7,128.1z M605.5,130.8l22.8-64.9l4.5,1.5l-2.2,6.2l0,0l-4,12l0.9,0.3
		l3.8-11.3l8.3,7.1l-22.7,64.9l-4.5-1.5l2.2-6.6L605.5,130.8z M707.4,155l-94.7,1.9l-0.1-4.6l16-0.4l0.2-0.3l0,0.2l43.4-0.9l0-1
		l-42.7,0.9l9.3-10.5l60.9-1.7l2.1-1.5L731,53.7l4.5,1.5l-5.3,15l0,0l-20.1,59.9l0.9,0.3l19.7-58.8l5.9,13.6l-22.3,64.8L707.4,155z
		 M746.7,146.7l-4.5-1.5l2.2-6.6l-9-7.7l22.8-64.9l4.5,1.5l-2.4,6.6l9,7.7L746.7,146.7z M780.9,59.8l-7.7,0.1l0-1.2l-4.6,0l0,1.2
		l-4.2,0l0-1.2l-4.9,0l0,1.2c-3.8-0.3-12.1,2-11-4.7l1.2,0l-0.2-26.5l-1.2,0c-1.2-6.6,7.1-4.5,10.9-4.9l0,1.4l4.9,0l0-1.4l4.2,0
		l0,1.4l4.5,0l0-1.4c3.8,0.3,12.1-2,11,4.7l-1.2,0l0.2,26.5l1.4,0C784.4,57.2,783.4,59.8,780.9,59.8z"/>
	<path d="M757.7,101.1c-1.6-0.5-2.5,2-0.8,2.5C758.5,104.2,759.3,101.6,757.7,101.1z"/>
	<path d="M751.8,118.1c-1.6-0.6-2.5,2-0.8,2.5C752.6,121.2,753.4,118.6,751.8,118.1z"/>
	<path d="M749.9,123.7c-1.6-0.6-2.5,2-0.8,2.5C750.7,126.8,751.5,124.3,749.9,123.7z"/>
	<path d="M748,129.4c-1.6-0.6-2.5,2-0.8,2.5C748.8,132.5,749.6,129.9,748,129.4z"/>
	<path d="M753.7,112.5c-1.6-0.6-2.5,2-0.8,2.5C754.5,115.6,755.3,113,753.7,112.5z"/>
</g>
</svg>
