<?xml version="1.0" encoding="utf-8"?>
<!-- Generator: Adobe Illustrator 27.2.0, SVG Export Plug-In . SVG Version: 6.00 Build 0)  -->
<svg version="1.1" id="レイヤー_1" xmlns="http://www.w3.org/2000/svg" xmlns:xlink="http://www.w3.org/1999/xlink" x="0px"
	 y="0px" viewBox="0 0 800 200" style="enable-background:new 0 0 800 200;" xml:space="preserve">
<g>
	<g>
		<path d="M226.9,81.5h-48.7l-6.6,11.4h-4v4.9h40l6.6-11.4h12.7V81.5z M181.5,86.4c-0.8,0-1.4-0.6-1.4-1.4s0.6-1.4,1.4-1.4
			s1.4,0.6,1.4,1.4S182.2,86.4,181.5,86.4z M187.6,86.4c-0.8,0-1.4-0.6-1.4-1.4s0.6-1.4,1.4-1.4c0.8,0,1.4,0.6,1.4,1.4
			S188.4,86.4,187.6,86.4z M193.7,86.4c-0.8,0-1.4-0.6-1.4-1.4s0.6-1.4,1.4-1.4s1.4,0.6,1.4,1.4S194.5,86.4,193.7,86.4z M199.9,86.4
			c-0.8,0-1.4-0.6-1.4-1.4s0.6-1.4,1.4-1.4c0.8,0,1.4,0.6,1.4,1.4S200.6,86.4,199.9,86.4z M206,86.4c-0.8,0-1.4-0.6-1.4-1.4
			s0.6-1.4,1.4-1.4c0.8,0,1.4,0.6,1.4,1.4S206.8,86.4,206,86.4z M76.3,80.5l70.4-34.2l4.3-9L130.6,47v5.8h-1v-6.4l22.1-10.5l2-4.2
			l-52.1,24.9l-0.4-0.9l53.2-25.4l0-0.1l25.2-12.1l-2.2-4.3L63.3,68.6l6.1-13.7l-7.3-12.1l12.1-27.1l-4.3-2L3.1,162.4l7.1,12.1
			l-6.1,13.6l4.5,2L59.2,77.6l-4,21.1l63.8,35.8l12.1,0.3l14.3,8.1l6.2-2.2l-49.8-26.3l0.5-0.9l50.6,26.7l0.1,0l15.2,8.4l2.3-4.2
			L73.7,90.1L76.3,80.5z M627.3,28l0.2,27.4l-1.3,0l0,1.6c0,1.8,1.5,3.3,3.4,3.3l8-0.1l0-1.2l5.1,0l0,1.3l4.3,0l0-1.3l4.8,0l0,1.2
			l8-0.1c1.8,0,3.3-1.5,3.3-3.4l0-1.6l-1.4,0l-0.2-27.4l1.2,0l0-1.6c0-1.8-1.5-3.3-3.4-3.3l-8,0.1l0,1.5l-4.6,0l0-1.5l-4.3,0l0,1.5
			l-5.1,0l0-1.5l-8,0.1c-1.8,0-3.3,1.5-3.3,3.4l0,1.6L627.3,28z M629.9,25l28.7-0.2c1.2,0,2.2,1,2.2,2.2l0.2,29.1
			c0,1.2-1,2.2-2.2,2.2l-28.7,0.2c-1.2,0-2.2-1-2.2-2.2l-0.2-29.1C627.7,26,628.7,25,629.9,25z M120.9,135.6l17.5,9.8l5.8-2
			l-13.3-7.6L120.9,135.6z M158.9,112.4l-5-6.8L173.3,72H208l6.8-5.5l-17.9,0.1l-5,3.2l-0.5-0.8l5.2-3.3l19.4-0.1l4.6-3.7h-39.8v-1
			h41l0.2-0.1h15.5v-4.9h-73.2l-30.1,50.8l17.9,24.2l31.2-6.9L188,111l15-3.5l-1.2-4.8L158.9,112.4z M243.4,112.4l-5-6.8L257.8,72
			h34.7l6.8-5.5l-18.9,0.1l-5,3.2l-0.5-0.8l5.2-3.3l20.4-0.1l4.6-3.7h-39.7v-1h41l0.2-0.1H322v-4.9h-73.2l-30.1,50.8l17.9,24.2
			l31.2-6.9l4.7-12.8l15-3.5l-1.2-4.8L243.4,112.4z M496.6,143l19.3,10.8l5.7-2l-15.2-8.6L496.6,143z M453.8,88.9l70.4-34.2l4.1-8.6
			l-21,10v5.8h-1v-6.4L529,44.7l2-4.2l-52.7,25.1l-0.4-0.9l53.8-25.6l0.2-0.5l25.2-12.1l-2.2-4.3L440.8,77l6.1-13.7l-7.3-12.1
			l12.1-27.1l-4.3-2l-66.8,148.7l7.1,12.1l-6.1,13.6l4.5,2l50.6-112.5l-4,21.1l62,34.8l11.9,0.3l16.2,9.2l6.2-2.2L477.3,122l0.5-0.9
			l52.5,27.7l0.1,0l15.2,8.4l2.3-4.2l-96.7-54.4L453.8,88.9z M399.5,76.3l-18.9,6.9h-25.4v4.9H387l0.6,2l-67.8,37.4l-3.5-3.9
			l55.5-76.9l0.8-19l-18.2,26.1l-0.8-0.6l19.1-27.4l0-0.2l14.9-20.7l-4-2.9l-88.4,123.1l21.2,22.6L410,96.4L399.5,76.3z
			 M317.4,135.7l-9.6-11.3l13.5-19.7l0.8,0.6L309,124.3l9.1,10.7L317.4,135.7z M311.4,86.4v-4.9h-48.7l-6.6,11.4h-4v4.9h40l6.6-11.4
			H311.4z M266,86.4c-0.8,0-1.4-0.6-1.4-1.4s0.6-1.4,1.4-1.4c0.8,0,1.4,0.6,1.4,1.4S266.7,86.4,266,86.4z M272.1,86.4
			c-0.8,0-1.4-0.6-1.4-1.4s0.6-1.4,1.4-1.4c0.8,0,1.4,0.6,1.4,1.4S272.9,86.4,272.1,86.4z M278.2,86.4c-0.8,0-1.4-0.6-1.4-1.4
			s0.6-1.4,1.4-1.4c0.8,0,1.4,0.6,1.4,1.4S279,86.4,278.2,86.4z M284.4,86.4c-0.8,0-1.4-0.6-1.4-1.4s0.6-1.4,1.4-1.4
			c0.8,0,1.4,0.6,1.4,1.4S285.1,86.4,284.4,86.4z M290.5,86.4c-0.8,0-1.4-0.6-1.4-1.4s0.6-1.4,1.4-1.4s1.4,0.6,1.4,1.4
			S291.3,86.4,290.5,86.4z M654.7,54.4l0-2.5L634.5,52l0,2.5L654.7,54.4z M657.2,48l-0.8,0l0.1,6.5l0.9,0l0.5,0.3l1.1,0l-0.1-6.5
			l-1.1,0L657.2,48z M657.1,33.5l0.5,0.3l1.1,0l-0.1-6.5l-1.1,0l-0.6-0.3l-0.8,0l0.1,6.5L657.1,33.5z M662.9,130.3l14.8-0.3l6.5-6.6
			l13.2-0.3l1.7-4.2l-26.2,0.6l0-1l26.6-0.6l0,0l13.9-0.3l-0.1-4.9l-41.2,1l-2.4-4l9.7-28.8l29.7-4.8l9.9-11.3l9.4,10.3l3.6-3.3
			L719,57.8l-52.2,8.5l-15.5,45.9L662.9,130.3z M651.7,37.5l0,5.8l0,1.4l-2.7,0l0,3.2l5.9,0l0-5.2l-0.1-8.3l-5.9,0l0,3.2L651.7,37.5
			z M694.6,129.6l2.3-5.6l-12.3,0.3l-5.5,5.6L694.6,129.6z M593.5,27.6l-4.9,3.8l11.1,14l0,0.1l12.3,15l-11.2,33.1l-0.9-0.3l11-32.6
			l-11.6-14.1l-3.5,10l4,5.2l-17.9,51.3l-52.1,0.6l-2.4-4L584.4,77h7.3v-5l-9.8,0.1l-25.3,14.5l-0.5-0.9l25.1-14.4l-4.5-8.8
			L504.3,104l16.4,26.5l72.1,0L618,58.6L593.5,27.6z M585,122.9l-0.9-0.3l17.8-53.1l0.9,0.3L585,122.9z M639.8,39.5l0,3.4l3.2,0
			l0,3.2l3.4,0l0-3.2l3.2,0l0-3.4l-3.2,0l0-3.2l-3.4,0l0,3.2L639.8,39.5z M631.3,48.5l-1.1,0l0.1,6.5l1.1,0l0.5-0.3l0.9,0l-0.1-6.5
			l-0.8,0L631.3,48.5z M631.2,34l0.5-0.3l0.9,0l-0.1-6.5l-0.8,0l-0.6,0.3l-1.1,0L630,34L631.2,34z M634.6,43.1l0,4.9l5.9,0l0-3.2
			l-2.7,0l0-2.1h0l0-5.1l2.7,0l0-3.2l-5.9,0L634.6,43.1L634.6,43.1z M794.8,55l-1.4,0l-0.2-27.4l1.2,0l0-1.6c0-1.8-1.5-3.3-3.4-3.3
			l-8,0.1l0,1.5l-4.6,0l0-1.5l-4.3,0l0,1.5l-5.1,0l0-1.5l-8,0.1c-1.8,0-3.3,1.5-3.3,3.4l0,1.6l1.3,0l0.2,27.4l-1.3,0l0,1.6
			c0,1.8,1.5,3.3,3.4,3.3l8-0.1l0-1.2l5.1,0l0,1.3l4.3,0l0-1.3l4.8,0l0,1.2l8-0.1c1.8,0,3.3-1.5,3.3-3.4L794.8,55z M790.7,58.2
			L762,58.5c-1.2,0-2.2-1-2.2-2.2l-0.2-29.1c0-1.2,1-2.2,2.2-2.2l28.7-0.2c1.2,0,2.2,1,2.2,2.2l0.2,29.1
			C792.9,57.2,791.9,58.2,790.7,58.2z M766.4,48l5.9,0l0-3.2l-2.7,0l0-1.8l0-5.5l2.7,0l0-3.2l-5.9,0l0.1,8.3L766.4,48z M771.5,39.5
			l0,3.4l3.2,0l0,3.2l3.4,0l0-3.2l3.2,0l0-3.4l-3.2,0l0-3.2l-3.4,0l0,3.2L771.5,39.5z M622,149.7l23.4-67l-8.5-7.3L633,87l-0.9-0.3
			l4.2-12.4l0,0l2.3-6.4l-4.6-1.6l-23.6,67l9.3,8l-2.3,6.8L622,149.7z M637.1,86c0.2-0.7,1-1.1,1.7-0.9c0.7,0.2,1.1,1,0.9,1.7
			c-0.2,0.7-1,1.1-1.7,0.9C637.3,87.5,636.9,86.7,637.1,86z M635.3,91.9c0.2-0.7,1-1.1,1.7-0.9c0.7,0.2,1.1,1,0.9,1.7
			c-0.2,0.7-1,1.1-1.7,0.9C635.5,93.4,635.1,92.6,635.3,91.9z M633.4,97.7c0.2-0.7,1-1.1,1.7-0.9c0.7,0.2,1.1,1,0.9,1.7
			c-0.2,0.7-1,1.1-1.7,0.9C633.6,99.2,633.2,98.4,633.4,97.7z M631.6,103.6c0.2-0.7,1-1.1,1.7-0.9c0.7,0.2,1.1,1,0.9,1.7
			c-0.2,0.7-1,1.1-1.7,0.9C631.8,105.1,631.4,104.3,631.6,103.6z M629.8,109.4c0.2-0.7,1-1.1,1.7-0.9c0.7,0.2,1.1,1,0.9,1.7
			c-0.2,0.7-1,1.1-1.7,0.9C629.9,110.9,629.5,110.1,629.8,109.4z M627.4,115.2c0.2-0.7,1-1.1,1.7-0.9c0.7,0.2,1.1,1,0.9,1.7
			c-0.2,0.7-1,1.1-1.7,0.9C627.6,116.7,627.2,115.9,627.4,115.2z M625.5,121c0.2-0.7,1-1.1,1.7-0.9c0.7,0.2,1.1,1,0.9,1.7
			c-0.2,0.7-1,1.1-1.7,0.9C625.6,122.5,625.2,121.8,625.5,121z M623.5,126.8c0.2-0.7,1-1.1,1.7-0.9c0.7,0.2,1.1,1,0.9,1.7
			c-0.2,0.7-1,1.1-1.7,0.9C623.7,128.3,623.3,127.6,623.5,126.8z M621.6,132.7c0.2-0.7,1-1.1,1.7-0.9c0.7,0.2,1.1,1,0.9,1.7
			c-0.2,0.7-1,1.1-1.7,0.9C621.7,134.2,621.3,133.4,621.6,132.7z M763.4,33.7l0.9,0l-0.1-6.5l-0.8,0l-0.6,0.3l-1.1,0l0.1,6.5l1.1,0
			L763.4,33.7z M772.7,67.9l-4.6-1.6l-23.6,67l9.3,8l-2.3,6.8l4.6,1.6l23.4-67l-9.3-8L772.7,67.9z M758.4,133.5
			c-0.2,0.7-1,1.1-1.7,0.9c-0.7-0.2-1.1-1-0.9-1.7c0.2-0.7,1-1.1,1.7-0.9C758.3,132,758.6,132.8,758.4,133.5z M760.3,127.7
			c-0.2,0.7-1,1.1-1.7,0.9c-0.7-0.2-1.1-1-0.9-1.7c0.2-0.7,1-1.1,1.7-0.9C760.2,126.2,760.6,127,760.3,127.7z M762.3,121.9
			c-0.2,0.7-1,1.1-1.7,0.9c-0.7-0.2-1.1-1-0.9-1.7c0.2-0.7,1-1.1,1.7-0.9C762.2,120.4,762.5,121.2,762.3,121.9z M764.3,116.1
			c-0.2,0.7-1,1.1-1.7,0.9c-0.7-0.2-1.1-1-0.9-1.7c0.2-0.7,1-1.1,1.7-0.9C764.1,114.6,764.5,115.4,764.3,116.1z M766.6,110.2
			c-0.2,0.7-1,1.1-1.7,0.9c-0.7-0.2-1.1-1-0.9-1.7c0.2-0.7,1-1.1,1.7-0.9C766.4,108.7,766.8,109.5,766.6,110.2z M768.4,104.4
			c-0.2,0.7-1,1.1-1.7,0.9c-0.7-0.2-1.1-1-0.9-1.7c0.2-0.7,1-1.1,1.7-0.9C768.3,102.9,768.7,103.7,768.4,104.4z M770.3,98.5
			c-0.2,0.7-1,1.1-1.7,0.9c-0.7-0.2-1.1-1-0.9-1.7c0.2-0.7,1-1.1,1.7-0.9C770.1,97,770.5,97.8,770.3,98.5z M771.4,86
			c0.2-0.7,1-1.1,1.7-0.9c0.7,0.2,1.1,1,0.9,1.7c-0.2,0.7-1,1.1-1.7,0.9C771.5,87.5,771.1,86.7,771.4,86z M771.2,91
			c0.7,0.2,1.1,1,0.9,1.7c-0.2,0.7-1,1.1-1.7,0.9c-0.7-0.2-1.1-1-0.9-1.7C769.7,91.1,770.5,90.7,771.2,91z M739.6,72.2l-20.3,60.7
			l-0.9-0.3l20.7-61.8l0,0l5.5-15.5l-4.6-1.6l-30.2,86.1l-2.2,1.6l-62.8,1.7l-9.6,10.8l44.1-1l0,1l-44.8,1l0-0.2l-0.2,0.3l-16.5,0.4
			l0.1,4.8l97.8-1.9l7.1-5.1l23-67L739.6,72.2z M763.6,48.2l-0.6,0.3l-1.1,0l0.1,6.5l1.1,0l0.5-0.3l0.9,0l-0.1-6.5L763.6,48.2z
			 M789.4,33.8l1.1,0l-0.1-6.5l-1.1,0l-0.6-0.3l-0.8,0l0.1,6.5l0.9,0L789.4,33.8z M789.5,48.3l-0.6-0.3l-0.8,0l0.1,6.5l0.9,0
			l0.5,0.3l1.1,0l-0.1-6.5L789.5,48.3z M786.6,34.3l-5.9,0l0,3.2l2.7,0l0,5.8l0,1.4l-2.7,0l0,3.2l5.9,0l0-5.2L786.6,34.3z M766.2,52
			l0,2.5l20.2-0.2l0-2.5L766.2,52z"/>
	</g>
</g>
</svg>
